%TF.GenerationSoftware,KiCad,Pcbnew,(5.1.10)-1*%
%TF.CreationDate,2021-09-27T18:55:40-04:00*%
%TF.ProjectId,noname,6e6f6e61-6d65-42e6-9b69-6361645f7063,rev?*%
%TF.SameCoordinates,Original*%
%TF.FileFunction,Copper,L2,Bot*%
%TF.FilePolarity,Positive*%
%FSLAX46Y46*%
G04 Gerber Fmt 4.6, Leading zero omitted, Abs format (unit mm)*
G04 Created by KiCad (PCBNEW (5.1.10)-1) date 2021-09-27 18:55:40*
%MOMM*%
%LPD*%
G01*
G04 APERTURE LIST*
%TA.AperFunction,ComponentPad*%
%ADD10R,2.400000X2.400000*%
%TD*%
%TA.AperFunction,ComponentPad*%
%ADD11C,2.400000*%
%TD*%
%TA.AperFunction,ComponentPad*%
%ADD12C,3.200000*%
%TD*%
%TA.AperFunction,ComponentPad*%
%ADD13R,3.200000X3.200000*%
%TD*%
%TA.AperFunction,ComponentPad*%
%ADD14R,2.800000X2.800000*%
%TD*%
%TA.AperFunction,ComponentPad*%
%ADD15C,2.800000*%
%TD*%
%TA.AperFunction,Conductor*%
%ADD16C,2.500000*%
%TD*%
%TA.AperFunction,Conductor*%
%ADD17C,0.254000*%
%TD*%
%TA.AperFunction,Conductor*%
%ADD18C,0.100000*%
%TD*%
G04 APERTURE END LIST*
D10*
%TO.P,C12,1*%
%TO.N,GND*%
X257175000Y-116205000D03*
D11*
%TO.P,C12,2*%
%TO.N,Net-(C10-Pad2)*%
X257175000Y-123705000D03*
%TD*%
D10*
%TO.P,C4,1*%
%TO.N,Net-(C1-Pad1)*%
X237490000Y-83820000D03*
D11*
%TO.P,C4,2*%
%TO.N,GND*%
X237490000Y-91320000D03*
%TD*%
%TO.P,C1,2*%
%TO.N,GND*%
X257175000Y-97035000D03*
D10*
%TO.P,C1,1*%
%TO.N,Net-(C1-Pad1)*%
X257175000Y-89535000D03*
%TD*%
%TO.P,C2,1*%
%TO.N,Net-(C1-Pad1)*%
X197485000Y-83820000D03*
D11*
%TO.P,C2,2*%
%TO.N,GND*%
X197485000Y-91320000D03*
%TD*%
%TO.P,C3,2*%
%TO.N,GND*%
X217170000Y-91320000D03*
D10*
%TO.P,C3,1*%
%TO.N,Net-(C1-Pad1)*%
X217170000Y-83820000D03*
%TD*%
D11*
%TO.P,C5,2*%
%TO.N,GND*%
X222885000Y-110370000D03*
D10*
%TO.P,C5,1*%
%TO.N,Net-(C5-Pad1)*%
X222885000Y-102870000D03*
%TD*%
%TO.P,C6,1*%
%TO.N,Net-(C5-Pad1)*%
X203200000Y-102870000D03*
D11*
%TO.P,C6,2*%
%TO.N,GND*%
X203200000Y-110370000D03*
%TD*%
%TO.P,C7,2*%
%TO.N,GND*%
X183515000Y-110370000D03*
D10*
%TO.P,C7,1*%
%TO.N,Net-(C5-Pad1)*%
X183515000Y-102870000D03*
%TD*%
%TO.P,C8,1*%
%TO.N,Net-(C5-Pad1)*%
X242570000Y-102870000D03*
D11*
%TO.P,C8,2*%
%TO.N,GND*%
X242570000Y-110370000D03*
%TD*%
%TO.P,C9,2*%
%TO.N,Net-(C10-Pad2)*%
X238125000Y-129420000D03*
D10*
%TO.P,C9,1*%
%TO.N,GND*%
X238125000Y-121920000D03*
%TD*%
%TO.P,C10,1*%
%TO.N,GND*%
X197485000Y-121920000D03*
D11*
%TO.P,C10,2*%
%TO.N,Net-(C10-Pad2)*%
X197485000Y-129420000D03*
%TD*%
%TO.P,C11,2*%
%TO.N,Net-(C10-Pad2)*%
X217805000Y-129420000D03*
D10*
%TO.P,C11,1*%
%TO.N,GND*%
X217805000Y-121920000D03*
%TD*%
D12*
%TO.P,D1,4*%
%TO.N,Net-(C10-Pad2)*%
X177165000Y-137795000D03*
%TO.P,D1,3*%
%TO.N,Net-(D1-Pad3)*%
X177165000Y-132715000D03*
%TO.P,D1,2*%
%TO.N,Net-(D1-Pad2)*%
X177165000Y-127635000D03*
D13*
%TO.P,D1,1*%
%TO.N,Net-(C5-Pad1)*%
X177165000Y-122555000D03*
%TD*%
%TO.P,D2,1*%
%TO.N,Net-(C1-Pad1)*%
X177165000Y-74930000D03*
D12*
%TO.P,D2,2*%
%TO.N,Net-(D2-Pad2)*%
X177165000Y-80010000D03*
%TO.P,D2,3*%
%TO.N,Net-(D2-Pad3)*%
X177165000Y-85090000D03*
%TO.P,D2,4*%
%TO.N,GND*%
X177165000Y-90170000D03*
%TD*%
D14*
%TO.P,J1,1*%
%TO.N,Net-(D2-Pad3)*%
X167005000Y-96520000D03*
D15*
%TO.P,J1,2*%
%TO.N,Net-(D2-Pad2)*%
X167005000Y-101520000D03*
%TO.P,J1,3*%
%TO.N,Net-(D1-Pad3)*%
X167005000Y-106520000D03*
%TO.P,J1,4*%
%TO.N,GND*%
X167005000Y-111520000D03*
%TO.P,J1,5*%
%TO.N,Net-(D1-Pad2)*%
X167005000Y-116520000D03*
%TD*%
%TO.P,J2,4*%
%TO.N,Net-(C1-Pad1)*%
X249795000Y-75565000D03*
%TO.P,J2,3*%
%TO.N,Net-(C5-Pad1)*%
X254795000Y-75565000D03*
%TO.P,J2,2*%
%TO.N,GND*%
X259795000Y-75565000D03*
D14*
%TO.P,J2,1*%
%TO.N,Net-(C10-Pad2)*%
X264795000Y-75565000D03*
%TD*%
%TO.P,J3,1*%
%TO.N,Net-(C10-Pad2)*%
X248920000Y-137795000D03*
D15*
%TO.P,J3,2*%
%TO.N,GND*%
X253920000Y-137795000D03*
%TO.P,J3,3*%
%TO.N,Net-(C5-Pad1)*%
X258920000Y-137795000D03*
%TO.P,J3,4*%
%TO.N,Net-(C1-Pad1)*%
X263920000Y-137795000D03*
%TD*%
%TO.P,J4,4*%
%TO.N,Net-(C1-Pad1)*%
X274955000Y-86600000D03*
%TO.P,J4,3*%
%TO.N,Net-(C5-Pad1)*%
X274955000Y-91600000D03*
%TO.P,J4,2*%
%TO.N,GND*%
X274955000Y-96600000D03*
D14*
%TO.P,J4,1*%
%TO.N,Net-(C10-Pad2)*%
X274955000Y-101600000D03*
%TD*%
%TO.P,J5,1*%
%TO.N,Net-(C10-Pad2)*%
X274955000Y-127000000D03*
D15*
%TO.P,J5,2*%
%TO.N,GND*%
X274955000Y-122000000D03*
%TO.P,J5,3*%
%TO.N,Net-(C5-Pad1)*%
X274955000Y-117000000D03*
%TO.P,J5,4*%
%TO.N,Net-(C1-Pad1)*%
X274955000Y-112000000D03*
%TD*%
D16*
%TO.N,Net-(C1-Pad1)*%
X284480000Y-132080000D02*
X284480000Y-121525000D01*
X278765000Y-137795000D02*
X284480000Y-132080000D01*
X284480000Y-121525000D02*
X274955000Y-112000000D01*
X263920000Y-137795000D02*
X278765000Y-137795000D01*
X260830000Y-86600000D02*
X274955000Y-86600000D01*
X249795000Y-75565000D02*
X260830000Y-86600000D01*
X257895000Y-89535000D02*
X260830000Y-86600000D01*
X257175000Y-89535000D02*
X257895000Y-89535000D01*
X245745000Y-75565000D02*
X237490000Y-83820000D01*
X249795000Y-75565000D02*
X245745000Y-75565000D01*
X237490000Y-83820000D02*
X217170000Y-83820000D01*
X197485000Y-83820000D02*
X217170000Y-83820000D01*
X267970000Y-105015000D02*
X274955000Y-112000000D01*
X267970000Y-93585000D02*
X267970000Y-105015000D01*
X274955000Y-86600000D02*
X267970000Y-93585000D01*
X188595000Y-74930000D02*
X197485000Y-83820000D01*
X177165000Y-74930000D02*
X188595000Y-74930000D01*
%TO.N,Net-(C5-Pad1)*%
X258920000Y-137795000D02*
X263365000Y-133350000D01*
X263365000Y-133350000D02*
X278765000Y-133350000D01*
X278765000Y-133350000D02*
X281305000Y-130810000D01*
X281305000Y-123350000D02*
X274955000Y-117000000D01*
X281305000Y-130810000D02*
X281305000Y-123350000D01*
X254795000Y-75565000D02*
X262415000Y-83185000D01*
X262415000Y-83185000D02*
X276860000Y-83185000D01*
X276860000Y-83185000D02*
X278765000Y-85090000D01*
X278765000Y-87790000D02*
X274955000Y-91600000D01*
X278765000Y-85090000D02*
X278765000Y-87790000D01*
X183515000Y-102870000D02*
X203200000Y-102870000D01*
X203200000Y-102870000D02*
X222885000Y-102870000D01*
X222885000Y-102870000D02*
X242570000Y-102870000D01*
X264320000Y-117000000D02*
X274955000Y-117000000D01*
X250190000Y-102870000D02*
X264320000Y-117000000D01*
X242570000Y-102870000D02*
X250190000Y-102870000D01*
X274955000Y-91600000D02*
X271305000Y-95250000D01*
X271305000Y-103360002D02*
X287655000Y-119710002D01*
X271305000Y-95250000D02*
X271305000Y-103360002D01*
X287655000Y-119710002D02*
X287655000Y-133985000D01*
X287655000Y-133985000D02*
X280670000Y-140970000D01*
X262095000Y-140970000D02*
X258920000Y-137795000D01*
X280670000Y-140970000D02*
X262095000Y-140970000D01*
X177165000Y-109220000D02*
X183515000Y-102870000D01*
X177165000Y-122555000D02*
X177165000Y-109220000D01*
%TO.N,Net-(C10-Pad2)*%
X259715000Y-127000000D02*
X274955000Y-127000000D01*
X248920000Y-137795000D02*
X259715000Y-127000000D01*
X264795000Y-75565000D02*
X278130000Y-75565000D01*
X278130000Y-75565000D02*
X285115000Y-82550000D01*
X285115000Y-82550000D02*
X285115000Y-91440000D01*
X246500000Y-137795000D02*
X238125000Y-129420000D01*
X248920000Y-137795000D02*
X246500000Y-137795000D01*
X259715000Y-126245000D02*
X259715000Y-127000000D01*
X257175000Y-123705000D02*
X259715000Y-126245000D01*
X238125000Y-129420000D02*
X217805000Y-129420000D01*
X217805000Y-129420000D02*
X197485000Y-129420000D01*
X285115000Y-91440000D02*
X274955000Y-101600000D01*
X255270000Y-144145000D02*
X248920000Y-137795000D01*
X281940000Y-144145000D02*
X255270000Y-144145000D01*
X290830000Y-135255000D02*
X281940000Y-144145000D01*
X290830000Y-118110000D02*
X290830000Y-135255000D01*
X274955000Y-102235000D02*
X290830000Y-118110000D01*
X274955000Y-101600000D02*
X274955000Y-102235000D01*
X189110000Y-137795000D02*
X197485000Y-129420000D01*
X177165000Y-137795000D02*
X189110000Y-137795000D01*
%TO.N,Net-(D1-Pad3)*%
X162560000Y-110965000D02*
X167005000Y-106520000D01*
X162560000Y-121285000D02*
X162560000Y-110965000D01*
X173990000Y-132715000D02*
X162560000Y-121285000D01*
X177165000Y-132715000D02*
X173990000Y-132715000D01*
%TO.N,Net-(D1-Pad2)*%
X167005000Y-119737741D02*
X167005000Y-116520000D01*
X174902259Y-127635000D02*
X167005000Y-119737741D01*
X177165000Y-127635000D02*
X174902259Y-127635000D01*
%TO.N,Net-(D2-Pad2)*%
X177165000Y-80010000D02*
X162560000Y-94615000D01*
X162560000Y-97075000D02*
X167005000Y-101520000D01*
X162560000Y-94615000D02*
X162560000Y-97075000D01*
%TO.N,Net-(D2-Pad3)*%
X167005000Y-95250000D02*
X167005000Y-96520000D01*
X177165000Y-85090000D02*
X167005000Y-95250000D01*
%TD*%
D17*
%TO.N,GND*%
X297790000Y-145390000D02*
X283360792Y-145390000D01*
X288635920Y-140114872D01*
X290500000Y-140114872D01*
X290500000Y-140555128D01*
X290585890Y-140986925D01*
X290754369Y-141393669D01*
X290998962Y-141759729D01*
X291310271Y-142071038D01*
X291676331Y-142315631D01*
X292083075Y-142484110D01*
X292514872Y-142570000D01*
X292955128Y-142570000D01*
X293386925Y-142484110D01*
X293793669Y-142315631D01*
X294159729Y-142071038D01*
X294471038Y-141759729D01*
X294715631Y-141393669D01*
X294884110Y-140986925D01*
X294970000Y-140555128D01*
X294970000Y-140114872D01*
X294884110Y-139683075D01*
X294715631Y-139276331D01*
X294471038Y-138910271D01*
X294159729Y-138598962D01*
X293793669Y-138354369D01*
X293386925Y-138185890D01*
X292955128Y-138100000D01*
X292514872Y-138100000D01*
X292083075Y-138185890D01*
X291676331Y-138354369D01*
X291310271Y-138598962D01*
X290998962Y-138910271D01*
X290754369Y-139276331D01*
X290585890Y-139683075D01*
X290500000Y-140114872D01*
X288635920Y-140114872D01*
X292097423Y-136653370D01*
X292169345Y-136594345D01*
X292332944Y-136395000D01*
X292404903Y-136307317D01*
X292424572Y-136270518D01*
X292579939Y-135979848D01*
X292687725Y-135624524D01*
X292715000Y-135347597D01*
X292724120Y-135255000D01*
X292715000Y-135162403D01*
X292715000Y-118202586D01*
X292724119Y-118109999D01*
X292715000Y-118017412D01*
X292715000Y-118017403D01*
X292687725Y-117740476D01*
X292579939Y-117385152D01*
X292404903Y-117057683D01*
X292169345Y-116770655D01*
X292097423Y-116711630D01*
X277303292Y-101917500D01*
X286382423Y-92838370D01*
X286454345Y-92779345D01*
X286558595Y-92652317D01*
X286689903Y-92492317D01*
X286758091Y-92364746D01*
X286864939Y-92164848D01*
X286972725Y-91809524D01*
X287000000Y-91532597D01*
X287009120Y-91440000D01*
X287000000Y-91347403D01*
X287000000Y-82642597D01*
X287009120Y-82550000D01*
X286972725Y-82180476D01*
X286958227Y-82132682D01*
X286864939Y-81825152D01*
X286689903Y-81497683D01*
X286638511Y-81435062D01*
X286513372Y-81282579D01*
X286513370Y-81282577D01*
X286454345Y-81210655D01*
X286382423Y-81151630D01*
X279528374Y-74297582D01*
X279469345Y-74225655D01*
X279182317Y-73990097D01*
X278854848Y-73815061D01*
X278499524Y-73707275D01*
X278222597Y-73680000D01*
X278222589Y-73680000D01*
X278130000Y-73670881D01*
X278037411Y-73680000D01*
X266604981Y-73680000D01*
X266549494Y-73634463D01*
X266439180Y-73575498D01*
X266319482Y-73539188D01*
X266195000Y-73526928D01*
X263395000Y-73526928D01*
X263270518Y-73539188D01*
X263150820Y-73575498D01*
X263040506Y-73634463D01*
X262943815Y-73713815D01*
X262864463Y-73810506D01*
X262805498Y-73920820D01*
X262769188Y-74040518D01*
X262756928Y-74165000D01*
X262756928Y-76965000D01*
X262769188Y-77089482D01*
X262805498Y-77209180D01*
X262864463Y-77319494D01*
X262943815Y-77416185D01*
X263040506Y-77495537D01*
X263150820Y-77554502D01*
X263270518Y-77590812D01*
X263395000Y-77603072D01*
X266195000Y-77603072D01*
X266319482Y-77590812D01*
X266439180Y-77554502D01*
X266549494Y-77495537D01*
X266604981Y-77450000D01*
X277349208Y-77450000D01*
X283230000Y-83330793D01*
X283230001Y-90659206D01*
X276971839Y-96917369D01*
X276999310Y-96553223D01*
X276950904Y-96155296D01*
X276825795Y-95774460D01*
X276680770Y-95503135D01*
X276375447Y-95359158D01*
X275134605Y-96600000D01*
X275148748Y-96614143D01*
X274969143Y-96793748D01*
X274955000Y-96779605D01*
X273714158Y-98020447D01*
X273858135Y-98325770D01*
X274215892Y-98506597D01*
X274602053Y-98614155D01*
X275001777Y-98644310D01*
X275278568Y-98610640D01*
X274327280Y-99561928D01*
X273555000Y-99561928D01*
X273430518Y-99574188D01*
X273310820Y-99610498D01*
X273200506Y-99669463D01*
X273190000Y-99678085D01*
X273190000Y-97623470D01*
X273229230Y-97696865D01*
X273534553Y-97840842D01*
X274775395Y-96600000D01*
X274761253Y-96585858D01*
X274940858Y-96406253D01*
X274955000Y-96420395D01*
X276195842Y-95179553D01*
X276051865Y-94874230D01*
X275694108Y-94693403D01*
X275307947Y-94585845D01*
X274908223Y-94555690D01*
X274631432Y-94589360D01*
X275745603Y-93475189D01*
X275918934Y-93403393D01*
X276252237Y-93180687D01*
X276535687Y-92897237D01*
X276758393Y-92563934D01*
X276830189Y-92390603D01*
X280032423Y-89188370D01*
X280104345Y-89129345D01*
X280339903Y-88842317D01*
X280514939Y-88514848D01*
X280622725Y-88159524D01*
X280650000Y-87882597D01*
X280659120Y-87790000D01*
X280650000Y-87697403D01*
X280650000Y-85182589D01*
X280659119Y-85090000D01*
X280650000Y-84997411D01*
X280650000Y-84997403D01*
X280622725Y-84720476D01*
X280514939Y-84365152D01*
X280339903Y-84037683D01*
X280104345Y-83750655D01*
X280032423Y-83691630D01*
X278258374Y-81917582D01*
X278199345Y-81845655D01*
X277912317Y-81610097D01*
X277584848Y-81435061D01*
X277229524Y-81327275D01*
X276952597Y-81300000D01*
X276952589Y-81300000D01*
X276860000Y-81290881D01*
X276767411Y-81300000D01*
X263195793Y-81300000D01*
X259477631Y-77581839D01*
X259841777Y-77609310D01*
X260239704Y-77560904D01*
X260620540Y-77435795D01*
X260891865Y-77290770D01*
X261035842Y-76985447D01*
X259795000Y-75744605D01*
X259780858Y-75758748D01*
X259601253Y-75579143D01*
X259615395Y-75565000D01*
X259974605Y-75565000D01*
X261215447Y-76805842D01*
X261520770Y-76661865D01*
X261701597Y-76304108D01*
X261809155Y-75917947D01*
X261839310Y-75518223D01*
X261790904Y-75120296D01*
X261665795Y-74739460D01*
X261520770Y-74468135D01*
X261215447Y-74324158D01*
X259974605Y-75565000D01*
X259615395Y-75565000D01*
X258374553Y-74324158D01*
X258069230Y-74468135D01*
X257888403Y-74825892D01*
X257780845Y-75212053D01*
X257750690Y-75611777D01*
X257784360Y-75888568D01*
X256670189Y-74774397D01*
X256598393Y-74601066D01*
X256375687Y-74267763D01*
X256252477Y-74144553D01*
X258554158Y-74144553D01*
X259795000Y-75385395D01*
X261035842Y-74144553D01*
X260891865Y-73839230D01*
X260534108Y-73658403D01*
X260147947Y-73550845D01*
X259748223Y-73520690D01*
X259350296Y-73569096D01*
X258969460Y-73694205D01*
X258698135Y-73839230D01*
X258554158Y-74144553D01*
X256252477Y-74144553D01*
X256092237Y-73984313D01*
X255758934Y-73761607D01*
X255388587Y-73608204D01*
X254995430Y-73530000D01*
X254594570Y-73530000D01*
X254201413Y-73608204D01*
X253831066Y-73761607D01*
X253497763Y-73984313D01*
X253214313Y-74267763D01*
X252991607Y-74601066D01*
X252838204Y-74971413D01*
X252760000Y-75364570D01*
X252760000Y-75765430D01*
X252784527Y-75888735D01*
X251670189Y-74774397D01*
X251598393Y-74601066D01*
X251375687Y-74267763D01*
X251092237Y-73984313D01*
X250758934Y-73761607D01*
X250388587Y-73608204D01*
X249995430Y-73530000D01*
X249594570Y-73530000D01*
X249201413Y-73608204D01*
X249028082Y-73680000D01*
X245837589Y-73680000D01*
X245745000Y-73670881D01*
X245652411Y-73680000D01*
X245652403Y-73680000D01*
X245407662Y-73704105D01*
X245375475Y-73707275D01*
X245353916Y-73713815D01*
X245020152Y-73815061D01*
X244692683Y-73990097D01*
X244543979Y-74112136D01*
X244477579Y-74166628D01*
X244477577Y-74166630D01*
X244405655Y-74225655D01*
X244346630Y-74297577D01*
X236709208Y-81935000D01*
X198265793Y-81935000D01*
X189993374Y-73662582D01*
X189934345Y-73590655D01*
X189647317Y-73355097D01*
X189319848Y-73180061D01*
X188964524Y-73072275D01*
X188687597Y-73045000D01*
X188687589Y-73045000D01*
X188595000Y-73035881D01*
X188502411Y-73045000D01*
X179332683Y-73045000D01*
X179295537Y-72975506D01*
X179216185Y-72878815D01*
X179126085Y-72804872D01*
X290500000Y-72804872D01*
X290500000Y-73245128D01*
X290585890Y-73676925D01*
X290754369Y-74083669D01*
X290998962Y-74449729D01*
X291310271Y-74761038D01*
X291676331Y-75005631D01*
X292083075Y-75174110D01*
X292514872Y-75260000D01*
X292955128Y-75260000D01*
X293386925Y-75174110D01*
X293793669Y-75005631D01*
X294159729Y-74761038D01*
X294471038Y-74449729D01*
X294715631Y-74083669D01*
X294884110Y-73676925D01*
X294970000Y-73245128D01*
X294970000Y-72804872D01*
X294884110Y-72373075D01*
X294715631Y-71966331D01*
X294471038Y-71600271D01*
X294159729Y-71288962D01*
X293793669Y-71044369D01*
X293386925Y-70875890D01*
X292955128Y-70790000D01*
X292514872Y-70790000D01*
X292083075Y-70875890D01*
X291676331Y-71044369D01*
X291310271Y-71288962D01*
X290998962Y-71600271D01*
X290754369Y-71966331D01*
X290585890Y-72373075D01*
X290500000Y-72804872D01*
X179126085Y-72804872D01*
X179119494Y-72799463D01*
X179009180Y-72740498D01*
X178889482Y-72704188D01*
X178765000Y-72691928D01*
X175565000Y-72691928D01*
X175440518Y-72704188D01*
X175320820Y-72740498D01*
X175210506Y-72799463D01*
X175113815Y-72878815D01*
X175034463Y-72975506D01*
X174975498Y-73085820D01*
X174939188Y-73205518D01*
X174926928Y-73330000D01*
X174926928Y-76530000D01*
X174939188Y-76654482D01*
X174975498Y-76774180D01*
X175034463Y-76884494D01*
X175113815Y-76981185D01*
X175210506Y-77060537D01*
X175320820Y-77119502D01*
X175440518Y-77155812D01*
X175565000Y-77168072D01*
X178765000Y-77168072D01*
X178889482Y-77155812D01*
X179009180Y-77119502D01*
X179119494Y-77060537D01*
X179216185Y-76981185D01*
X179295537Y-76884494D01*
X179332683Y-76815000D01*
X187814208Y-76815000D01*
X195646928Y-84647721D01*
X195646928Y-85020000D01*
X195659188Y-85144482D01*
X195695498Y-85264180D01*
X195754463Y-85374494D01*
X195833815Y-85471185D01*
X195930506Y-85550537D01*
X196040820Y-85609502D01*
X196160518Y-85645812D01*
X196285000Y-85658072D01*
X197050689Y-85658072D01*
X197115476Y-85677725D01*
X197485000Y-85714120D01*
X197577597Y-85705000D01*
X237397411Y-85705000D01*
X237490000Y-85714119D01*
X237582589Y-85705000D01*
X237582597Y-85705000D01*
X237859524Y-85677725D01*
X237924311Y-85658072D01*
X238690000Y-85658072D01*
X238814482Y-85645812D01*
X238934180Y-85609502D01*
X239044494Y-85550537D01*
X239141185Y-85471185D01*
X239220537Y-85374494D01*
X239279502Y-85264180D01*
X239315812Y-85144482D01*
X239328072Y-85020000D01*
X239328072Y-84647720D01*
X246525793Y-77450000D01*
X249014208Y-77450000D01*
X258164207Y-86600000D01*
X257114208Y-87650000D01*
X257082403Y-87650000D01*
X256805476Y-87677275D01*
X256740689Y-87696928D01*
X255975000Y-87696928D01*
X255850518Y-87709188D01*
X255730820Y-87745498D01*
X255620506Y-87804463D01*
X255523815Y-87883815D01*
X255444463Y-87980506D01*
X255385498Y-88090820D01*
X255349188Y-88210518D01*
X255336928Y-88335000D01*
X255336928Y-89100689D01*
X255317275Y-89165476D01*
X255280880Y-89535000D01*
X255317275Y-89904524D01*
X255336928Y-89969311D01*
X255336928Y-90735000D01*
X255349188Y-90859482D01*
X255385498Y-90979180D01*
X255444463Y-91089494D01*
X255523815Y-91186185D01*
X255620506Y-91265537D01*
X255730820Y-91324502D01*
X255850518Y-91360812D01*
X255975000Y-91373072D01*
X256740689Y-91373072D01*
X256805476Y-91392725D01*
X257082403Y-91420000D01*
X257802411Y-91420000D01*
X257895000Y-91429119D01*
X257987589Y-91420000D01*
X257987597Y-91420000D01*
X258264524Y-91392725D01*
X258329311Y-91373072D01*
X258375000Y-91373072D01*
X258499482Y-91360812D01*
X258619180Y-91324502D01*
X258729494Y-91265537D01*
X258826185Y-91186185D01*
X258843050Y-91165635D01*
X258947317Y-91109903D01*
X259234345Y-90874345D01*
X259293374Y-90802418D01*
X261610793Y-88485000D01*
X270404207Y-88485000D01*
X266702582Y-92186626D01*
X266630655Y-92245655D01*
X266395097Y-92532683D01*
X266220061Y-92860153D01*
X266112275Y-93215477D01*
X266085000Y-93492404D01*
X266085000Y-93492411D01*
X266075881Y-93585000D01*
X266085000Y-93677589D01*
X266085001Y-104922401D01*
X266075881Y-105015000D01*
X266112275Y-105384524D01*
X266220062Y-105739848D01*
X266395098Y-106067317D01*
X266571628Y-106282420D01*
X266571631Y-106282423D01*
X266630656Y-106354345D01*
X266702577Y-106413369D01*
X273079811Y-112790604D01*
X273151607Y-112963934D01*
X273374313Y-113297237D01*
X273657763Y-113580687D01*
X273991066Y-113803393D01*
X274164397Y-113875189D01*
X275278735Y-114989527D01*
X275155430Y-114965000D01*
X274754570Y-114965000D01*
X274361413Y-115043204D01*
X274188082Y-115115000D01*
X265100793Y-115115000D01*
X251588374Y-101602582D01*
X251529345Y-101530655D01*
X251242317Y-101295097D01*
X250914848Y-101120061D01*
X250559524Y-101012275D01*
X250282597Y-100985000D01*
X250282589Y-100985000D01*
X250190000Y-100975881D01*
X250097411Y-100985000D01*
X183607586Y-100985000D01*
X183514999Y-100975881D01*
X183422412Y-100985000D01*
X183422403Y-100985000D01*
X183145476Y-101012275D01*
X183080689Y-101031928D01*
X182315000Y-101031928D01*
X182190518Y-101044188D01*
X182070820Y-101080498D01*
X181960506Y-101139463D01*
X181863815Y-101218815D01*
X181784463Y-101315506D01*
X181725498Y-101425820D01*
X181689188Y-101545518D01*
X181676928Y-101670000D01*
X181676928Y-102042279D01*
X175897577Y-107821631D01*
X175825656Y-107880655D01*
X175766631Y-107952577D01*
X175766628Y-107952580D01*
X175590098Y-108167683D01*
X175415062Y-108495152D01*
X175307275Y-108850476D01*
X175270881Y-109220000D01*
X175280001Y-109312599D01*
X175280000Y-120387317D01*
X175210506Y-120424463D01*
X175113815Y-120503815D01*
X175034463Y-120600506D01*
X174975498Y-120710820D01*
X174939188Y-120830518D01*
X174926928Y-120955000D01*
X174926928Y-124155000D01*
X174939188Y-124279482D01*
X174975498Y-124399180D01*
X175034463Y-124509494D01*
X175113815Y-124606185D01*
X175210506Y-124685537D01*
X175320820Y-124744502D01*
X175440518Y-124780812D01*
X175565000Y-124793072D01*
X178765000Y-124793072D01*
X178889482Y-124780812D01*
X179009180Y-124744502D01*
X179119494Y-124685537D01*
X179216185Y-124606185D01*
X179295537Y-124509494D01*
X179354502Y-124399180D01*
X179390812Y-124279482D01*
X179403072Y-124155000D01*
X179403072Y-123120000D01*
X195646928Y-123120000D01*
X195659188Y-123244482D01*
X195695498Y-123364180D01*
X195754463Y-123474494D01*
X195833815Y-123571185D01*
X195930506Y-123650537D01*
X196040820Y-123709502D01*
X196160518Y-123745812D01*
X196285000Y-123758072D01*
X197199250Y-123755000D01*
X197358000Y-123596250D01*
X197358000Y-122047000D01*
X197612000Y-122047000D01*
X197612000Y-123596250D01*
X197770750Y-123755000D01*
X198685000Y-123758072D01*
X198809482Y-123745812D01*
X198929180Y-123709502D01*
X199039494Y-123650537D01*
X199136185Y-123571185D01*
X199215537Y-123474494D01*
X199274502Y-123364180D01*
X199310812Y-123244482D01*
X199323072Y-123120000D01*
X215966928Y-123120000D01*
X215979188Y-123244482D01*
X216015498Y-123364180D01*
X216074463Y-123474494D01*
X216153815Y-123571185D01*
X216250506Y-123650537D01*
X216360820Y-123709502D01*
X216480518Y-123745812D01*
X216605000Y-123758072D01*
X217519250Y-123755000D01*
X217678000Y-123596250D01*
X217678000Y-122047000D01*
X217932000Y-122047000D01*
X217932000Y-123596250D01*
X218090750Y-123755000D01*
X219005000Y-123758072D01*
X219129482Y-123745812D01*
X219249180Y-123709502D01*
X219359494Y-123650537D01*
X219456185Y-123571185D01*
X219535537Y-123474494D01*
X219594502Y-123364180D01*
X219630812Y-123244482D01*
X219643072Y-123120000D01*
X236286928Y-123120000D01*
X236299188Y-123244482D01*
X236335498Y-123364180D01*
X236394463Y-123474494D01*
X236473815Y-123571185D01*
X236570506Y-123650537D01*
X236680820Y-123709502D01*
X236800518Y-123745812D01*
X236925000Y-123758072D01*
X237839250Y-123755000D01*
X237998000Y-123596250D01*
X237998000Y-122047000D01*
X238252000Y-122047000D01*
X238252000Y-123596250D01*
X238410750Y-123755000D01*
X239325000Y-123758072D01*
X239449482Y-123745812D01*
X239569180Y-123709502D01*
X239679494Y-123650537D01*
X239776185Y-123571185D01*
X239855537Y-123474494D01*
X239914502Y-123364180D01*
X239950812Y-123244482D01*
X239963072Y-123120000D01*
X239960000Y-122205750D01*
X239801250Y-122047000D01*
X238252000Y-122047000D01*
X237998000Y-122047000D01*
X236448750Y-122047000D01*
X236290000Y-122205750D01*
X236286928Y-123120000D01*
X219643072Y-123120000D01*
X219640000Y-122205750D01*
X219481250Y-122047000D01*
X217932000Y-122047000D01*
X217678000Y-122047000D01*
X216128750Y-122047000D01*
X215970000Y-122205750D01*
X215966928Y-123120000D01*
X199323072Y-123120000D01*
X199320000Y-122205750D01*
X199161250Y-122047000D01*
X197612000Y-122047000D01*
X197358000Y-122047000D01*
X195808750Y-122047000D01*
X195650000Y-122205750D01*
X195646928Y-123120000D01*
X179403072Y-123120000D01*
X179403072Y-120955000D01*
X179390812Y-120830518D01*
X179357287Y-120720000D01*
X195646928Y-120720000D01*
X195650000Y-121634250D01*
X195808750Y-121793000D01*
X197358000Y-121793000D01*
X197358000Y-120243750D01*
X197612000Y-120243750D01*
X197612000Y-121793000D01*
X199161250Y-121793000D01*
X199320000Y-121634250D01*
X199323072Y-120720000D01*
X215966928Y-120720000D01*
X215970000Y-121634250D01*
X216128750Y-121793000D01*
X217678000Y-121793000D01*
X217678000Y-120243750D01*
X217932000Y-120243750D01*
X217932000Y-121793000D01*
X219481250Y-121793000D01*
X219640000Y-121634250D01*
X219643072Y-120720000D01*
X236286928Y-120720000D01*
X236290000Y-121634250D01*
X236448750Y-121793000D01*
X237998000Y-121793000D01*
X237998000Y-120243750D01*
X238252000Y-120243750D01*
X238252000Y-121793000D01*
X239801250Y-121793000D01*
X239960000Y-121634250D01*
X239963072Y-120720000D01*
X239950812Y-120595518D01*
X239914502Y-120475820D01*
X239855537Y-120365506D01*
X239776185Y-120268815D01*
X239679494Y-120189463D01*
X239569180Y-120130498D01*
X239449482Y-120094188D01*
X239325000Y-120081928D01*
X238410750Y-120085000D01*
X238252000Y-120243750D01*
X237998000Y-120243750D01*
X237839250Y-120085000D01*
X236925000Y-120081928D01*
X236800518Y-120094188D01*
X236680820Y-120130498D01*
X236570506Y-120189463D01*
X236473815Y-120268815D01*
X236394463Y-120365506D01*
X236335498Y-120475820D01*
X236299188Y-120595518D01*
X236286928Y-120720000D01*
X219643072Y-120720000D01*
X219630812Y-120595518D01*
X219594502Y-120475820D01*
X219535537Y-120365506D01*
X219456185Y-120268815D01*
X219359494Y-120189463D01*
X219249180Y-120130498D01*
X219129482Y-120094188D01*
X219005000Y-120081928D01*
X218090750Y-120085000D01*
X217932000Y-120243750D01*
X217678000Y-120243750D01*
X217519250Y-120085000D01*
X216605000Y-120081928D01*
X216480518Y-120094188D01*
X216360820Y-120130498D01*
X216250506Y-120189463D01*
X216153815Y-120268815D01*
X216074463Y-120365506D01*
X216015498Y-120475820D01*
X215979188Y-120595518D01*
X215966928Y-120720000D01*
X199323072Y-120720000D01*
X199310812Y-120595518D01*
X199274502Y-120475820D01*
X199215537Y-120365506D01*
X199136185Y-120268815D01*
X199039494Y-120189463D01*
X198929180Y-120130498D01*
X198809482Y-120094188D01*
X198685000Y-120081928D01*
X197770750Y-120085000D01*
X197612000Y-120243750D01*
X197358000Y-120243750D01*
X197199250Y-120085000D01*
X196285000Y-120081928D01*
X196160518Y-120094188D01*
X196040820Y-120130498D01*
X195930506Y-120189463D01*
X195833815Y-120268815D01*
X195754463Y-120365506D01*
X195695498Y-120475820D01*
X195659188Y-120595518D01*
X195646928Y-120720000D01*
X179357287Y-120720000D01*
X179354502Y-120710820D01*
X179295537Y-120600506D01*
X179216185Y-120503815D01*
X179119494Y-120424463D01*
X179050000Y-120387317D01*
X179050000Y-117405000D01*
X255336928Y-117405000D01*
X255349188Y-117529482D01*
X255385498Y-117649180D01*
X255444463Y-117759494D01*
X255523815Y-117856185D01*
X255620506Y-117935537D01*
X255730820Y-117994502D01*
X255850518Y-118030812D01*
X255975000Y-118043072D01*
X256889250Y-118040000D01*
X257048000Y-117881250D01*
X257048000Y-116332000D01*
X257302000Y-116332000D01*
X257302000Y-117881250D01*
X257460750Y-118040000D01*
X258375000Y-118043072D01*
X258499482Y-118030812D01*
X258619180Y-117994502D01*
X258729494Y-117935537D01*
X258826185Y-117856185D01*
X258905537Y-117759494D01*
X258964502Y-117649180D01*
X259000812Y-117529482D01*
X259013072Y-117405000D01*
X259010000Y-116490750D01*
X258851250Y-116332000D01*
X257302000Y-116332000D01*
X257048000Y-116332000D01*
X255498750Y-116332000D01*
X255340000Y-116490750D01*
X255336928Y-117405000D01*
X179050000Y-117405000D01*
X179050000Y-115005000D01*
X255336928Y-115005000D01*
X255340000Y-115919250D01*
X255498750Y-116078000D01*
X257048000Y-116078000D01*
X257048000Y-114528750D01*
X257302000Y-114528750D01*
X257302000Y-116078000D01*
X258851250Y-116078000D01*
X259010000Y-115919250D01*
X259013072Y-115005000D01*
X259000812Y-114880518D01*
X258964502Y-114760820D01*
X258905537Y-114650506D01*
X258826185Y-114553815D01*
X258729494Y-114474463D01*
X258619180Y-114415498D01*
X258499482Y-114379188D01*
X258375000Y-114366928D01*
X257460750Y-114370000D01*
X257302000Y-114528750D01*
X257048000Y-114528750D01*
X256889250Y-114370000D01*
X255975000Y-114366928D01*
X255850518Y-114379188D01*
X255730820Y-114415498D01*
X255620506Y-114474463D01*
X255523815Y-114553815D01*
X255444463Y-114650506D01*
X255385498Y-114760820D01*
X255349188Y-114880518D01*
X255336928Y-115005000D01*
X179050000Y-115005000D01*
X179050000Y-111647980D01*
X182416626Y-111647980D01*
X182536514Y-111932836D01*
X182860210Y-112093699D01*
X183209069Y-112188322D01*
X183569684Y-112213067D01*
X183928198Y-112166985D01*
X184270833Y-112051846D01*
X184493486Y-111932836D01*
X184613374Y-111647980D01*
X202101626Y-111647980D01*
X202221514Y-111932836D01*
X202545210Y-112093699D01*
X202894069Y-112188322D01*
X203254684Y-112213067D01*
X203613198Y-112166985D01*
X203955833Y-112051846D01*
X204178486Y-111932836D01*
X204298374Y-111647980D01*
X221786626Y-111647980D01*
X221906514Y-111932836D01*
X222230210Y-112093699D01*
X222579069Y-112188322D01*
X222939684Y-112213067D01*
X223298198Y-112166985D01*
X223640833Y-112051846D01*
X223863486Y-111932836D01*
X223983374Y-111647980D01*
X241471626Y-111647980D01*
X241591514Y-111932836D01*
X241915210Y-112093699D01*
X242264069Y-112188322D01*
X242624684Y-112213067D01*
X242983198Y-112166985D01*
X243325833Y-112051846D01*
X243548486Y-111932836D01*
X243668374Y-111647980D01*
X242570000Y-110549605D01*
X241471626Y-111647980D01*
X223983374Y-111647980D01*
X222885000Y-110549605D01*
X221786626Y-111647980D01*
X204298374Y-111647980D01*
X203200000Y-110549605D01*
X202101626Y-111647980D01*
X184613374Y-111647980D01*
X183515000Y-110549605D01*
X182416626Y-111647980D01*
X179050000Y-111647980D01*
X179050000Y-110424684D01*
X181671933Y-110424684D01*
X181718015Y-110783198D01*
X181833154Y-111125833D01*
X181952164Y-111348486D01*
X182237020Y-111468374D01*
X183335395Y-110370000D01*
X183694605Y-110370000D01*
X184792980Y-111468374D01*
X185077836Y-111348486D01*
X185238699Y-111024790D01*
X185333322Y-110675931D01*
X185350562Y-110424684D01*
X201356933Y-110424684D01*
X201403015Y-110783198D01*
X201518154Y-111125833D01*
X201637164Y-111348486D01*
X201922020Y-111468374D01*
X203020395Y-110370000D01*
X203379605Y-110370000D01*
X204477980Y-111468374D01*
X204762836Y-111348486D01*
X204923699Y-111024790D01*
X205018322Y-110675931D01*
X205035562Y-110424684D01*
X221041933Y-110424684D01*
X221088015Y-110783198D01*
X221203154Y-111125833D01*
X221322164Y-111348486D01*
X221607020Y-111468374D01*
X222705395Y-110370000D01*
X223064605Y-110370000D01*
X224162980Y-111468374D01*
X224447836Y-111348486D01*
X224608699Y-111024790D01*
X224703322Y-110675931D01*
X224720562Y-110424684D01*
X240726933Y-110424684D01*
X240773015Y-110783198D01*
X240888154Y-111125833D01*
X241007164Y-111348486D01*
X241292020Y-111468374D01*
X242390395Y-110370000D01*
X242749605Y-110370000D01*
X243847980Y-111468374D01*
X244132836Y-111348486D01*
X244293699Y-111024790D01*
X244388322Y-110675931D01*
X244413067Y-110315316D01*
X244366985Y-109956802D01*
X244251846Y-109614167D01*
X244132836Y-109391514D01*
X243847980Y-109271626D01*
X242749605Y-110370000D01*
X242390395Y-110370000D01*
X241292020Y-109271626D01*
X241007164Y-109391514D01*
X240846301Y-109715210D01*
X240751678Y-110064069D01*
X240726933Y-110424684D01*
X224720562Y-110424684D01*
X224728067Y-110315316D01*
X224681985Y-109956802D01*
X224566846Y-109614167D01*
X224447836Y-109391514D01*
X224162980Y-109271626D01*
X223064605Y-110370000D01*
X222705395Y-110370000D01*
X221607020Y-109271626D01*
X221322164Y-109391514D01*
X221161301Y-109715210D01*
X221066678Y-110064069D01*
X221041933Y-110424684D01*
X205035562Y-110424684D01*
X205043067Y-110315316D01*
X204996985Y-109956802D01*
X204881846Y-109614167D01*
X204762836Y-109391514D01*
X204477980Y-109271626D01*
X203379605Y-110370000D01*
X203020395Y-110370000D01*
X201922020Y-109271626D01*
X201637164Y-109391514D01*
X201476301Y-109715210D01*
X201381678Y-110064069D01*
X201356933Y-110424684D01*
X185350562Y-110424684D01*
X185358067Y-110315316D01*
X185311985Y-109956802D01*
X185196846Y-109614167D01*
X185077836Y-109391514D01*
X184792980Y-109271626D01*
X183694605Y-110370000D01*
X183335395Y-110370000D01*
X182237020Y-109271626D01*
X181952164Y-109391514D01*
X181791301Y-109715210D01*
X181696678Y-110064069D01*
X181671933Y-110424684D01*
X179050000Y-110424684D01*
X179050000Y-110000792D01*
X179958772Y-109092020D01*
X182416626Y-109092020D01*
X183515000Y-110190395D01*
X184613374Y-109092020D01*
X202101626Y-109092020D01*
X203200000Y-110190395D01*
X204298374Y-109092020D01*
X221786626Y-109092020D01*
X222885000Y-110190395D01*
X223983374Y-109092020D01*
X241471626Y-109092020D01*
X242570000Y-110190395D01*
X243668374Y-109092020D01*
X243548486Y-108807164D01*
X243224790Y-108646301D01*
X242875931Y-108551678D01*
X242515316Y-108526933D01*
X242156802Y-108573015D01*
X241814167Y-108688154D01*
X241591514Y-108807164D01*
X241471626Y-109092020D01*
X223983374Y-109092020D01*
X223863486Y-108807164D01*
X223539790Y-108646301D01*
X223190931Y-108551678D01*
X222830316Y-108526933D01*
X222471802Y-108573015D01*
X222129167Y-108688154D01*
X221906514Y-108807164D01*
X221786626Y-109092020D01*
X204298374Y-109092020D01*
X204178486Y-108807164D01*
X203854790Y-108646301D01*
X203505931Y-108551678D01*
X203145316Y-108526933D01*
X202786802Y-108573015D01*
X202444167Y-108688154D01*
X202221514Y-108807164D01*
X202101626Y-109092020D01*
X184613374Y-109092020D01*
X184493486Y-108807164D01*
X184169790Y-108646301D01*
X183820931Y-108551678D01*
X183460316Y-108526933D01*
X183101802Y-108573015D01*
X182759167Y-108688154D01*
X182536514Y-108807164D01*
X182416626Y-109092020D01*
X179958772Y-109092020D01*
X184295793Y-104755000D01*
X249409208Y-104755000D01*
X262921630Y-118267423D01*
X262980655Y-118339345D01*
X263052577Y-118398370D01*
X263052579Y-118398372D01*
X263106448Y-118442581D01*
X263267683Y-118574903D01*
X263595152Y-118749939D01*
X263950476Y-118857725D01*
X264320000Y-118894120D01*
X264412597Y-118885000D01*
X274174208Y-118885000D01*
X275272369Y-119983161D01*
X274908223Y-119955690D01*
X274510296Y-120004096D01*
X274129460Y-120129205D01*
X273858135Y-120274230D01*
X273714158Y-120579553D01*
X274955000Y-121820395D01*
X274969143Y-121806253D01*
X275148748Y-121985858D01*
X275134605Y-122000000D01*
X276375447Y-123240842D01*
X276680770Y-123096865D01*
X276861597Y-122739108D01*
X276969155Y-122352947D01*
X276999310Y-121953223D01*
X276965640Y-121676432D01*
X279420001Y-124130794D01*
X279420000Y-130029208D01*
X277984208Y-131465000D01*
X263457586Y-131465000D01*
X263364999Y-131455881D01*
X263272412Y-131465000D01*
X263272403Y-131465000D01*
X262995476Y-131492275D01*
X262640152Y-131600061D01*
X262312683Y-131775097D01*
X262312681Y-131775098D01*
X262312682Y-131775098D01*
X262097579Y-131951628D01*
X262097577Y-131951630D01*
X262025655Y-132010655D01*
X261966630Y-132082577D01*
X258129397Y-135919811D01*
X257956066Y-135991607D01*
X257622763Y-136214313D01*
X257339313Y-136497763D01*
X257116607Y-136831066D01*
X256963204Y-137201413D01*
X256885000Y-137594570D01*
X256885000Y-137995430D01*
X256963204Y-138388587D01*
X257116607Y-138758934D01*
X257339313Y-139092237D01*
X257622763Y-139375687D01*
X257956066Y-139598393D01*
X258129397Y-139670189D01*
X260696630Y-142237423D01*
X260715159Y-142260000D01*
X256050793Y-142260000D01*
X253602632Y-139811839D01*
X253966777Y-139839310D01*
X254364704Y-139790904D01*
X254745540Y-139665795D01*
X255016865Y-139520770D01*
X255160842Y-139215447D01*
X253920000Y-137974605D01*
X253905858Y-137988748D01*
X253726253Y-137809143D01*
X253740395Y-137795000D01*
X254099605Y-137795000D01*
X255340447Y-139035842D01*
X255645770Y-138891865D01*
X255826597Y-138534108D01*
X255934155Y-138147947D01*
X255964310Y-137748223D01*
X255915904Y-137350296D01*
X255790795Y-136969460D01*
X255645770Y-136698135D01*
X255340447Y-136554158D01*
X254099605Y-137795000D01*
X253740395Y-137795000D01*
X253726253Y-137780858D01*
X253905858Y-137601253D01*
X253920000Y-137615395D01*
X255160842Y-136374553D01*
X255016865Y-136069230D01*
X254659108Y-135888403D01*
X254272947Y-135780845D01*
X253873223Y-135750690D01*
X253596432Y-135784360D01*
X260495792Y-128885000D01*
X273145019Y-128885000D01*
X273200506Y-128930537D01*
X273310820Y-128989502D01*
X273430518Y-129025812D01*
X273555000Y-129038072D01*
X276355000Y-129038072D01*
X276479482Y-129025812D01*
X276599180Y-128989502D01*
X276709494Y-128930537D01*
X276806185Y-128851185D01*
X276885537Y-128754494D01*
X276944502Y-128644180D01*
X276980812Y-128524482D01*
X276993072Y-128400000D01*
X276993072Y-125600000D01*
X276980812Y-125475518D01*
X276944502Y-125355820D01*
X276885537Y-125245506D01*
X276806185Y-125148815D01*
X276709494Y-125069463D01*
X276599180Y-125010498D01*
X276479482Y-124974188D01*
X276355000Y-124961928D01*
X273555000Y-124961928D01*
X273430518Y-124974188D01*
X273310820Y-125010498D01*
X273200506Y-125069463D01*
X273145019Y-125115000D01*
X261226150Y-125115000D01*
X261054345Y-124905655D01*
X260982418Y-124846626D01*
X259556239Y-123420447D01*
X273714158Y-123420447D01*
X273858135Y-123725770D01*
X274215892Y-123906597D01*
X274602053Y-124014155D01*
X275001777Y-124044310D01*
X275399704Y-123995904D01*
X275780540Y-123870795D01*
X276051865Y-123725770D01*
X276195842Y-123420447D01*
X274955000Y-122179605D01*
X273714158Y-123420447D01*
X259556239Y-123420447D01*
X258442420Y-122306628D01*
X258227317Y-122130098D01*
X258071435Y-122046777D01*
X272910690Y-122046777D01*
X272959096Y-122444704D01*
X273084205Y-122825540D01*
X273229230Y-123096865D01*
X273534553Y-123240842D01*
X274775395Y-122000000D01*
X273534553Y-120759158D01*
X273229230Y-120903135D01*
X273048403Y-121260892D01*
X272940845Y-121647053D01*
X272910690Y-122046777D01*
X258071435Y-122046777D01*
X257899848Y-121955062D01*
X257544524Y-121847275D01*
X257175000Y-121810881D01*
X256805476Y-121847275D01*
X256450152Y-121955062D01*
X256122683Y-122130098D01*
X255835655Y-122365655D01*
X255600098Y-122652683D01*
X255425062Y-122980152D01*
X255317275Y-123335476D01*
X255280881Y-123705000D01*
X255317275Y-124074524D01*
X255425062Y-124429848D01*
X255600098Y-124757317D01*
X255776628Y-124972420D01*
X257426708Y-126622500D01*
X248292280Y-135756928D01*
X247520000Y-135756928D01*
X247395518Y-135769188D01*
X247275820Y-135805498D01*
X247210960Y-135840167D01*
X239523374Y-128152582D01*
X239464345Y-128080655D01*
X239177317Y-127845097D01*
X238849848Y-127670061D01*
X238494524Y-127562275D01*
X238217597Y-127535000D01*
X238217589Y-127535000D01*
X238125000Y-127525881D01*
X238032411Y-127535000D01*
X197577597Y-127535000D01*
X197485000Y-127525880D01*
X197392403Y-127535000D01*
X197115476Y-127562275D01*
X196760152Y-127670061D01*
X196432683Y-127845097D01*
X196217579Y-128021628D01*
X196217577Y-128021630D01*
X196145655Y-128080655D01*
X196086630Y-128152577D01*
X188329208Y-135910000D01*
X178366791Y-135910000D01*
X178223669Y-135814369D01*
X177816925Y-135645890D01*
X177385128Y-135560000D01*
X176944872Y-135560000D01*
X176513075Y-135645890D01*
X176106331Y-135814369D01*
X175740271Y-136058962D01*
X175428962Y-136370271D01*
X175184369Y-136736331D01*
X175015890Y-137143075D01*
X174930000Y-137574872D01*
X174930000Y-138015128D01*
X175015890Y-138446925D01*
X175184369Y-138853669D01*
X175428962Y-139219729D01*
X175740271Y-139531038D01*
X176106331Y-139775631D01*
X176513075Y-139944110D01*
X176944872Y-140030000D01*
X177385128Y-140030000D01*
X177816925Y-139944110D01*
X178223669Y-139775631D01*
X178366791Y-139680000D01*
X189017411Y-139680000D01*
X189110000Y-139689119D01*
X189202589Y-139680000D01*
X189202597Y-139680000D01*
X189479524Y-139652725D01*
X189834848Y-139544939D01*
X190162317Y-139369903D01*
X190449345Y-139134345D01*
X190508374Y-139062418D01*
X198265793Y-131305000D01*
X237344208Y-131305000D01*
X245101630Y-139062423D01*
X245160655Y-139134345D01*
X245232577Y-139193370D01*
X245232579Y-139193372D01*
X245265100Y-139220061D01*
X245447683Y-139369903D01*
X245775152Y-139544939D01*
X246130476Y-139652725D01*
X246500000Y-139689120D01*
X246592597Y-139680000D01*
X247110019Y-139680000D01*
X247165506Y-139725537D01*
X247275820Y-139784502D01*
X247395518Y-139820812D01*
X247520000Y-139833072D01*
X248292280Y-139833072D01*
X253849207Y-145390000D01*
X159410000Y-145390000D01*
X159410000Y-138844872D01*
X163500000Y-138844872D01*
X163500000Y-139285128D01*
X163585890Y-139716925D01*
X163754369Y-140123669D01*
X163998962Y-140489729D01*
X164310271Y-140801038D01*
X164676331Y-141045631D01*
X165083075Y-141214110D01*
X165514872Y-141300000D01*
X165955128Y-141300000D01*
X166386925Y-141214110D01*
X166793669Y-141045631D01*
X167159729Y-140801038D01*
X167471038Y-140489729D01*
X167715631Y-140123669D01*
X167884110Y-139716925D01*
X167970000Y-139285128D01*
X167970000Y-138844872D01*
X167884110Y-138413075D01*
X167715631Y-138006331D01*
X167471038Y-137640271D01*
X167159729Y-137328962D01*
X166793669Y-137084369D01*
X166386925Y-136915890D01*
X165955128Y-136830000D01*
X165514872Y-136830000D01*
X165083075Y-136915890D01*
X164676331Y-137084369D01*
X164310271Y-137328962D01*
X163998962Y-137640271D01*
X163754369Y-138006331D01*
X163585890Y-138413075D01*
X163500000Y-138844872D01*
X159410000Y-138844872D01*
X159410000Y-110965000D01*
X160665881Y-110965000D01*
X160675001Y-111057599D01*
X160675000Y-121192411D01*
X160665881Y-121285000D01*
X160675000Y-121377589D01*
X160675000Y-121377596D01*
X160702275Y-121654523D01*
X160810061Y-122009847D01*
X160985097Y-122337317D01*
X161220655Y-122624345D01*
X161292582Y-122683374D01*
X172591630Y-133982423D01*
X172650655Y-134054345D01*
X172722577Y-134113370D01*
X172722579Y-134113372D01*
X172831405Y-134202683D01*
X172937683Y-134289903D01*
X173265152Y-134464939D01*
X173480128Y-134530151D01*
X173620475Y-134572725D01*
X173655732Y-134576197D01*
X173897403Y-134600000D01*
X173897410Y-134600000D01*
X173989999Y-134609119D01*
X174082588Y-134600000D01*
X175963209Y-134600000D01*
X176106331Y-134695631D01*
X176513075Y-134864110D01*
X176944872Y-134950000D01*
X177385128Y-134950000D01*
X177816925Y-134864110D01*
X178223669Y-134695631D01*
X178589729Y-134451038D01*
X178901038Y-134139729D01*
X179145631Y-133773669D01*
X179314110Y-133366925D01*
X179400000Y-132935128D01*
X179400000Y-132494872D01*
X179314110Y-132063075D01*
X179145631Y-131656331D01*
X178901038Y-131290271D01*
X178589729Y-130978962D01*
X178223669Y-130734369D01*
X177816925Y-130565890D01*
X177385128Y-130480000D01*
X176944872Y-130480000D01*
X176513075Y-130565890D01*
X176106331Y-130734369D01*
X175963209Y-130830000D01*
X174770793Y-130830000D01*
X164445000Y-120504208D01*
X164445000Y-116319570D01*
X164970000Y-116319570D01*
X164970000Y-116720430D01*
X165048204Y-117113587D01*
X165120001Y-117286919D01*
X165120000Y-119645151D01*
X165110881Y-119737741D01*
X165120000Y-119830330D01*
X165120000Y-119830337D01*
X165135316Y-119985845D01*
X165147275Y-120107265D01*
X165172210Y-120189463D01*
X165255061Y-120462588D01*
X165430097Y-120790058D01*
X165665655Y-121077086D01*
X165737582Y-121136115D01*
X173503889Y-128902423D01*
X173562914Y-128974345D01*
X173634836Y-129033370D01*
X173634838Y-129033372D01*
X173667360Y-129060062D01*
X173849942Y-129209903D01*
X174177411Y-129384939D01*
X174459983Y-129470656D01*
X174532735Y-129492725D01*
X174902259Y-129529120D01*
X174994856Y-129520000D01*
X175963209Y-129520000D01*
X176106331Y-129615631D01*
X176513075Y-129784110D01*
X176944872Y-129870000D01*
X177385128Y-129870000D01*
X177816925Y-129784110D01*
X178223669Y-129615631D01*
X178589729Y-129371038D01*
X178901038Y-129059729D01*
X179145631Y-128693669D01*
X179314110Y-128286925D01*
X179400000Y-127855128D01*
X179400000Y-127414872D01*
X179314110Y-126983075D01*
X179145631Y-126576331D01*
X178901038Y-126210271D01*
X178589729Y-125898962D01*
X178223669Y-125654369D01*
X177816925Y-125485890D01*
X177385128Y-125400000D01*
X176944872Y-125400000D01*
X176513075Y-125485890D01*
X176106331Y-125654369D01*
X175963209Y-125750000D01*
X175683052Y-125750000D01*
X168890000Y-118956949D01*
X168890000Y-117286918D01*
X168961796Y-117113587D01*
X169040000Y-116720430D01*
X169040000Y-116319570D01*
X168961796Y-115926413D01*
X168808393Y-115556066D01*
X168585687Y-115222763D01*
X168302237Y-114939313D01*
X167968934Y-114716607D01*
X167598587Y-114563204D01*
X167205430Y-114485000D01*
X166804570Y-114485000D01*
X166411413Y-114563204D01*
X166041066Y-114716607D01*
X165707763Y-114939313D01*
X165424313Y-115222763D01*
X165201607Y-115556066D01*
X165048204Y-115926413D01*
X164970000Y-116319570D01*
X164445000Y-116319570D01*
X164445000Y-112940447D01*
X165764158Y-112940447D01*
X165908135Y-113245770D01*
X166265892Y-113426597D01*
X166652053Y-113534155D01*
X167051777Y-113564310D01*
X167449704Y-113515904D01*
X167830540Y-113390795D01*
X168101865Y-113245770D01*
X168245842Y-112940447D01*
X167005000Y-111699605D01*
X165764158Y-112940447D01*
X164445000Y-112940447D01*
X164445000Y-111745792D01*
X164988161Y-111202631D01*
X164960690Y-111566777D01*
X165009096Y-111964704D01*
X165134205Y-112345540D01*
X165279230Y-112616865D01*
X165584553Y-112760842D01*
X166825395Y-111520000D01*
X167184605Y-111520000D01*
X168425447Y-112760842D01*
X168730770Y-112616865D01*
X168911597Y-112259108D01*
X169019155Y-111872947D01*
X169049310Y-111473223D01*
X169000904Y-111075296D01*
X168875795Y-110694460D01*
X168730770Y-110423135D01*
X168425447Y-110279158D01*
X167184605Y-111520000D01*
X166825395Y-111520000D01*
X166811253Y-111505858D01*
X166990858Y-111326253D01*
X167005000Y-111340395D01*
X168245842Y-110099553D01*
X168101865Y-109794230D01*
X167744108Y-109613403D01*
X167357947Y-109505845D01*
X166958223Y-109475690D01*
X166681432Y-109509360D01*
X167795604Y-108395189D01*
X167968934Y-108323393D01*
X168302237Y-108100687D01*
X168585687Y-107817237D01*
X168808393Y-107483934D01*
X168961796Y-107113587D01*
X169040000Y-106720430D01*
X169040000Y-106319570D01*
X168961796Y-105926413D01*
X168808393Y-105556066D01*
X168585687Y-105222763D01*
X168302237Y-104939313D01*
X167968934Y-104716607D01*
X167598587Y-104563204D01*
X167205430Y-104485000D01*
X166804570Y-104485000D01*
X166411413Y-104563204D01*
X166041066Y-104716607D01*
X165707763Y-104939313D01*
X165424313Y-105222763D01*
X165201607Y-105556066D01*
X165129811Y-105729396D01*
X161292577Y-109566631D01*
X161220656Y-109625655D01*
X161161631Y-109697577D01*
X161161628Y-109697580D01*
X160985098Y-109912683D01*
X160810062Y-110240152D01*
X160702275Y-110595476D01*
X160665881Y-110965000D01*
X159410000Y-110965000D01*
X159410000Y-94615000D01*
X160665881Y-94615000D01*
X160675000Y-94707590D01*
X160675001Y-96982401D01*
X160665881Y-97075000D01*
X160702275Y-97444524D01*
X160810062Y-97799848D01*
X160985098Y-98127317D01*
X161161628Y-98342420D01*
X161161631Y-98342423D01*
X161220656Y-98414345D01*
X161292577Y-98473369D01*
X165129811Y-102310604D01*
X165201607Y-102483934D01*
X165424313Y-102817237D01*
X165707763Y-103100687D01*
X166041066Y-103323393D01*
X166411413Y-103476796D01*
X166804570Y-103555000D01*
X167205430Y-103555000D01*
X167598587Y-103476796D01*
X167968934Y-103323393D01*
X168302237Y-103100687D01*
X168585687Y-102817237D01*
X168808393Y-102483934D01*
X168961796Y-102113587D01*
X169040000Y-101720430D01*
X169040000Y-101319570D01*
X168961796Y-100926413D01*
X168808393Y-100556066D01*
X168585687Y-100222763D01*
X168302237Y-99939313D01*
X167968934Y-99716607D01*
X167795604Y-99644811D01*
X166708865Y-98558072D01*
X168405000Y-98558072D01*
X168529482Y-98545812D01*
X168649180Y-98509502D01*
X168759494Y-98450537D01*
X168856185Y-98371185D01*
X168903952Y-98312980D01*
X256076626Y-98312980D01*
X256196514Y-98597836D01*
X256520210Y-98758699D01*
X256869069Y-98853322D01*
X257229684Y-98878067D01*
X257588198Y-98831985D01*
X257930833Y-98716846D01*
X258153486Y-98597836D01*
X258273374Y-98312980D01*
X257175000Y-97214605D01*
X256076626Y-98312980D01*
X168903952Y-98312980D01*
X168935537Y-98274494D01*
X168994502Y-98164180D01*
X169030812Y-98044482D01*
X169043072Y-97920000D01*
X169043072Y-97089684D01*
X255331933Y-97089684D01*
X255378015Y-97448198D01*
X255493154Y-97790833D01*
X255612164Y-98013486D01*
X255897020Y-98133374D01*
X256995395Y-97035000D01*
X257354605Y-97035000D01*
X258452980Y-98133374D01*
X258737836Y-98013486D01*
X258898699Y-97689790D01*
X258993322Y-97340931D01*
X259018067Y-96980316D01*
X258971985Y-96621802D01*
X258856846Y-96279167D01*
X258737836Y-96056514D01*
X258452980Y-95936626D01*
X257354605Y-97035000D01*
X256995395Y-97035000D01*
X255897020Y-95936626D01*
X255612164Y-96056514D01*
X255451301Y-96380210D01*
X255356678Y-96729069D01*
X255331933Y-97089684D01*
X169043072Y-97089684D01*
X169043072Y-95877720D01*
X169163772Y-95757020D01*
X256076626Y-95757020D01*
X257175000Y-96855395D01*
X258273374Y-95757020D01*
X258153486Y-95472164D01*
X257829790Y-95311301D01*
X257480931Y-95216678D01*
X257120316Y-95191933D01*
X256761802Y-95238015D01*
X256419167Y-95353154D01*
X256196514Y-95472164D01*
X256076626Y-95757020D01*
X169163772Y-95757020D01*
X172322812Y-92597980D01*
X196386626Y-92597980D01*
X196506514Y-92882836D01*
X196830210Y-93043699D01*
X197179069Y-93138322D01*
X197539684Y-93163067D01*
X197898198Y-93116985D01*
X198240833Y-93001846D01*
X198463486Y-92882836D01*
X198583374Y-92597980D01*
X216071626Y-92597980D01*
X216191514Y-92882836D01*
X216515210Y-93043699D01*
X216864069Y-93138322D01*
X217224684Y-93163067D01*
X217583198Y-93116985D01*
X217925833Y-93001846D01*
X218148486Y-92882836D01*
X218268374Y-92597980D01*
X236391626Y-92597980D01*
X236511514Y-92882836D01*
X236835210Y-93043699D01*
X237184069Y-93138322D01*
X237544684Y-93163067D01*
X237903198Y-93116985D01*
X238245833Y-93001846D01*
X238468486Y-92882836D01*
X238588374Y-92597980D01*
X237490000Y-91499605D01*
X236391626Y-92597980D01*
X218268374Y-92597980D01*
X217170000Y-91499605D01*
X216071626Y-92597980D01*
X198583374Y-92597980D01*
X197485000Y-91499605D01*
X196386626Y-92597980D01*
X172322812Y-92597980D01*
X173187947Y-91732845D01*
X175781761Y-91732845D01*
X175949802Y-92058643D01*
X176341607Y-92259426D01*
X176765055Y-92379914D01*
X177203873Y-92415476D01*
X177641197Y-92364746D01*
X178060221Y-92229674D01*
X178380198Y-92058643D01*
X178548239Y-91732845D01*
X177165000Y-90349605D01*
X175781761Y-91732845D01*
X173187947Y-91732845D01*
X174937832Y-89982961D01*
X174919524Y-90208873D01*
X174970254Y-90646197D01*
X175105326Y-91065221D01*
X175276357Y-91385198D01*
X175602155Y-91553239D01*
X176985395Y-90170000D01*
X177344605Y-90170000D01*
X178727845Y-91553239D01*
X179053643Y-91385198D01*
X179059030Y-91374684D01*
X195641933Y-91374684D01*
X195688015Y-91733198D01*
X195803154Y-92075833D01*
X195922164Y-92298486D01*
X196207020Y-92418374D01*
X197305395Y-91320000D01*
X197664605Y-91320000D01*
X198762980Y-92418374D01*
X199047836Y-92298486D01*
X199208699Y-91974790D01*
X199303322Y-91625931D01*
X199320562Y-91374684D01*
X215326933Y-91374684D01*
X215373015Y-91733198D01*
X215488154Y-92075833D01*
X215607164Y-92298486D01*
X215892020Y-92418374D01*
X216990395Y-91320000D01*
X217349605Y-91320000D01*
X218447980Y-92418374D01*
X218732836Y-92298486D01*
X218893699Y-91974790D01*
X218988322Y-91625931D01*
X219005562Y-91374684D01*
X235646933Y-91374684D01*
X235693015Y-91733198D01*
X235808154Y-92075833D01*
X235927164Y-92298486D01*
X236212020Y-92418374D01*
X237310395Y-91320000D01*
X237669605Y-91320000D01*
X238767980Y-92418374D01*
X239052836Y-92298486D01*
X239213699Y-91974790D01*
X239308322Y-91625931D01*
X239333067Y-91265316D01*
X239286985Y-90906802D01*
X239171846Y-90564167D01*
X239052836Y-90341514D01*
X238767980Y-90221626D01*
X237669605Y-91320000D01*
X237310395Y-91320000D01*
X236212020Y-90221626D01*
X235927164Y-90341514D01*
X235766301Y-90665210D01*
X235671678Y-91014069D01*
X235646933Y-91374684D01*
X219005562Y-91374684D01*
X219013067Y-91265316D01*
X218966985Y-90906802D01*
X218851846Y-90564167D01*
X218732836Y-90341514D01*
X218447980Y-90221626D01*
X217349605Y-91320000D01*
X216990395Y-91320000D01*
X215892020Y-90221626D01*
X215607164Y-90341514D01*
X215446301Y-90665210D01*
X215351678Y-91014069D01*
X215326933Y-91374684D01*
X199320562Y-91374684D01*
X199328067Y-91265316D01*
X199281985Y-90906802D01*
X199166846Y-90564167D01*
X199047836Y-90341514D01*
X198762980Y-90221626D01*
X197664605Y-91320000D01*
X197305395Y-91320000D01*
X196207020Y-90221626D01*
X195922164Y-90341514D01*
X195761301Y-90665210D01*
X195666678Y-91014069D01*
X195641933Y-91374684D01*
X179059030Y-91374684D01*
X179254426Y-90993393D01*
X179374914Y-90569945D01*
X179410476Y-90131127D01*
X179400140Y-90042020D01*
X196386626Y-90042020D01*
X197485000Y-91140395D01*
X198583374Y-90042020D01*
X216071626Y-90042020D01*
X217170000Y-91140395D01*
X218268374Y-90042020D01*
X236391626Y-90042020D01*
X237490000Y-91140395D01*
X238588374Y-90042020D01*
X238468486Y-89757164D01*
X238144790Y-89596301D01*
X237795931Y-89501678D01*
X237435316Y-89476933D01*
X237076802Y-89523015D01*
X236734167Y-89638154D01*
X236511514Y-89757164D01*
X236391626Y-90042020D01*
X218268374Y-90042020D01*
X218148486Y-89757164D01*
X217824790Y-89596301D01*
X217475931Y-89501678D01*
X217115316Y-89476933D01*
X216756802Y-89523015D01*
X216414167Y-89638154D01*
X216191514Y-89757164D01*
X216071626Y-90042020D01*
X198583374Y-90042020D01*
X198463486Y-89757164D01*
X198139790Y-89596301D01*
X197790931Y-89501678D01*
X197430316Y-89476933D01*
X197071802Y-89523015D01*
X196729167Y-89638154D01*
X196506514Y-89757164D01*
X196386626Y-90042020D01*
X179400140Y-90042020D01*
X179359746Y-89693803D01*
X179224674Y-89274779D01*
X179053643Y-88954802D01*
X178727845Y-88786761D01*
X177344605Y-90170000D01*
X176985395Y-90170000D01*
X176971252Y-90155858D01*
X177150858Y-89976252D01*
X177165000Y-89990395D01*
X178548239Y-88607155D01*
X178380198Y-88281357D01*
X177988393Y-88080574D01*
X177564945Y-87960086D01*
X177126127Y-87924524D01*
X176979228Y-87941564D01*
X177648102Y-87272691D01*
X177816925Y-87239110D01*
X178223669Y-87070631D01*
X178589729Y-86826038D01*
X178901038Y-86514729D01*
X179145631Y-86148669D01*
X179314110Y-85741925D01*
X179400000Y-85310128D01*
X179400000Y-84869872D01*
X179314110Y-84438075D01*
X179145631Y-84031331D01*
X178901038Y-83665271D01*
X178589729Y-83353962D01*
X178223669Y-83109369D01*
X177816925Y-82940890D01*
X177385128Y-82855000D01*
X176985793Y-82855000D01*
X177648102Y-82192691D01*
X177816925Y-82159110D01*
X178223669Y-81990631D01*
X178589729Y-81746038D01*
X178901038Y-81434729D01*
X179145631Y-81068669D01*
X179314110Y-80661925D01*
X179400000Y-80230128D01*
X179400000Y-79789872D01*
X179314110Y-79358075D01*
X179145631Y-78951331D01*
X178901038Y-78585271D01*
X178589729Y-78273962D01*
X178223669Y-78029369D01*
X177816925Y-77860890D01*
X177385128Y-77775000D01*
X176944872Y-77775000D01*
X176513075Y-77860890D01*
X176106331Y-78029369D01*
X175740271Y-78273962D01*
X175428962Y-78585271D01*
X175184369Y-78951331D01*
X175015890Y-79358075D01*
X174982309Y-79526898D01*
X161292582Y-93216626D01*
X161220655Y-93275655D01*
X160985097Y-93562683D01*
X160810061Y-93890153D01*
X160702275Y-94245477D01*
X160675000Y-94522404D01*
X160675000Y-94522411D01*
X160665881Y-94615000D01*
X159410000Y-94615000D01*
X159410000Y-74074872D01*
X163500000Y-74074872D01*
X163500000Y-74515128D01*
X163585890Y-74946925D01*
X163754369Y-75353669D01*
X163998962Y-75719729D01*
X164310271Y-76031038D01*
X164676331Y-76275631D01*
X165083075Y-76444110D01*
X165514872Y-76530000D01*
X165955128Y-76530000D01*
X166386925Y-76444110D01*
X166793669Y-76275631D01*
X167159729Y-76031038D01*
X167471038Y-75719729D01*
X167715631Y-75353669D01*
X167884110Y-74946925D01*
X167970000Y-74515128D01*
X167970000Y-74074872D01*
X167884110Y-73643075D01*
X167715631Y-73236331D01*
X167471038Y-72870271D01*
X167159729Y-72558962D01*
X166793669Y-72314369D01*
X166386925Y-72145890D01*
X165955128Y-72060000D01*
X165514872Y-72060000D01*
X165083075Y-72145890D01*
X164676331Y-72314369D01*
X164310271Y-72558962D01*
X163998962Y-72870271D01*
X163754369Y-73236331D01*
X163585890Y-73643075D01*
X163500000Y-74074872D01*
X159410000Y-74074872D01*
X159410000Y-67970000D01*
X297790001Y-67970000D01*
X297790000Y-145390000D01*
%TA.AperFunction,Conductor*%
D18*
G36*
X297790000Y-145390000D02*
G01*
X283360792Y-145390000D01*
X288635920Y-140114872D01*
X290500000Y-140114872D01*
X290500000Y-140555128D01*
X290585890Y-140986925D01*
X290754369Y-141393669D01*
X290998962Y-141759729D01*
X291310271Y-142071038D01*
X291676331Y-142315631D01*
X292083075Y-142484110D01*
X292514872Y-142570000D01*
X292955128Y-142570000D01*
X293386925Y-142484110D01*
X293793669Y-142315631D01*
X294159729Y-142071038D01*
X294471038Y-141759729D01*
X294715631Y-141393669D01*
X294884110Y-140986925D01*
X294970000Y-140555128D01*
X294970000Y-140114872D01*
X294884110Y-139683075D01*
X294715631Y-139276331D01*
X294471038Y-138910271D01*
X294159729Y-138598962D01*
X293793669Y-138354369D01*
X293386925Y-138185890D01*
X292955128Y-138100000D01*
X292514872Y-138100000D01*
X292083075Y-138185890D01*
X291676331Y-138354369D01*
X291310271Y-138598962D01*
X290998962Y-138910271D01*
X290754369Y-139276331D01*
X290585890Y-139683075D01*
X290500000Y-140114872D01*
X288635920Y-140114872D01*
X292097423Y-136653370D01*
X292169345Y-136594345D01*
X292332944Y-136395000D01*
X292404903Y-136307317D01*
X292424572Y-136270518D01*
X292579939Y-135979848D01*
X292687725Y-135624524D01*
X292715000Y-135347597D01*
X292724120Y-135255000D01*
X292715000Y-135162403D01*
X292715000Y-118202586D01*
X292724119Y-118109999D01*
X292715000Y-118017412D01*
X292715000Y-118017403D01*
X292687725Y-117740476D01*
X292579939Y-117385152D01*
X292404903Y-117057683D01*
X292169345Y-116770655D01*
X292097423Y-116711630D01*
X277303292Y-101917500D01*
X286382423Y-92838370D01*
X286454345Y-92779345D01*
X286558595Y-92652317D01*
X286689903Y-92492317D01*
X286758091Y-92364746D01*
X286864939Y-92164848D01*
X286972725Y-91809524D01*
X287000000Y-91532597D01*
X287009120Y-91440000D01*
X287000000Y-91347403D01*
X287000000Y-82642597D01*
X287009120Y-82550000D01*
X286972725Y-82180476D01*
X286958227Y-82132682D01*
X286864939Y-81825152D01*
X286689903Y-81497683D01*
X286638511Y-81435062D01*
X286513372Y-81282579D01*
X286513370Y-81282577D01*
X286454345Y-81210655D01*
X286382423Y-81151630D01*
X279528374Y-74297582D01*
X279469345Y-74225655D01*
X279182317Y-73990097D01*
X278854848Y-73815061D01*
X278499524Y-73707275D01*
X278222597Y-73680000D01*
X278222589Y-73680000D01*
X278130000Y-73670881D01*
X278037411Y-73680000D01*
X266604981Y-73680000D01*
X266549494Y-73634463D01*
X266439180Y-73575498D01*
X266319482Y-73539188D01*
X266195000Y-73526928D01*
X263395000Y-73526928D01*
X263270518Y-73539188D01*
X263150820Y-73575498D01*
X263040506Y-73634463D01*
X262943815Y-73713815D01*
X262864463Y-73810506D01*
X262805498Y-73920820D01*
X262769188Y-74040518D01*
X262756928Y-74165000D01*
X262756928Y-76965000D01*
X262769188Y-77089482D01*
X262805498Y-77209180D01*
X262864463Y-77319494D01*
X262943815Y-77416185D01*
X263040506Y-77495537D01*
X263150820Y-77554502D01*
X263270518Y-77590812D01*
X263395000Y-77603072D01*
X266195000Y-77603072D01*
X266319482Y-77590812D01*
X266439180Y-77554502D01*
X266549494Y-77495537D01*
X266604981Y-77450000D01*
X277349208Y-77450000D01*
X283230000Y-83330793D01*
X283230001Y-90659206D01*
X276971839Y-96917369D01*
X276999310Y-96553223D01*
X276950904Y-96155296D01*
X276825795Y-95774460D01*
X276680770Y-95503135D01*
X276375447Y-95359158D01*
X275134605Y-96600000D01*
X275148748Y-96614143D01*
X274969143Y-96793748D01*
X274955000Y-96779605D01*
X273714158Y-98020447D01*
X273858135Y-98325770D01*
X274215892Y-98506597D01*
X274602053Y-98614155D01*
X275001777Y-98644310D01*
X275278568Y-98610640D01*
X274327280Y-99561928D01*
X273555000Y-99561928D01*
X273430518Y-99574188D01*
X273310820Y-99610498D01*
X273200506Y-99669463D01*
X273190000Y-99678085D01*
X273190000Y-97623470D01*
X273229230Y-97696865D01*
X273534553Y-97840842D01*
X274775395Y-96600000D01*
X274761253Y-96585858D01*
X274940858Y-96406253D01*
X274955000Y-96420395D01*
X276195842Y-95179553D01*
X276051865Y-94874230D01*
X275694108Y-94693403D01*
X275307947Y-94585845D01*
X274908223Y-94555690D01*
X274631432Y-94589360D01*
X275745603Y-93475189D01*
X275918934Y-93403393D01*
X276252237Y-93180687D01*
X276535687Y-92897237D01*
X276758393Y-92563934D01*
X276830189Y-92390603D01*
X280032423Y-89188370D01*
X280104345Y-89129345D01*
X280339903Y-88842317D01*
X280514939Y-88514848D01*
X280622725Y-88159524D01*
X280650000Y-87882597D01*
X280659120Y-87790000D01*
X280650000Y-87697403D01*
X280650000Y-85182589D01*
X280659119Y-85090000D01*
X280650000Y-84997411D01*
X280650000Y-84997403D01*
X280622725Y-84720476D01*
X280514939Y-84365152D01*
X280339903Y-84037683D01*
X280104345Y-83750655D01*
X280032423Y-83691630D01*
X278258374Y-81917582D01*
X278199345Y-81845655D01*
X277912317Y-81610097D01*
X277584848Y-81435061D01*
X277229524Y-81327275D01*
X276952597Y-81300000D01*
X276952589Y-81300000D01*
X276860000Y-81290881D01*
X276767411Y-81300000D01*
X263195793Y-81300000D01*
X259477631Y-77581839D01*
X259841777Y-77609310D01*
X260239704Y-77560904D01*
X260620540Y-77435795D01*
X260891865Y-77290770D01*
X261035842Y-76985447D01*
X259795000Y-75744605D01*
X259780858Y-75758748D01*
X259601253Y-75579143D01*
X259615395Y-75565000D01*
X259974605Y-75565000D01*
X261215447Y-76805842D01*
X261520770Y-76661865D01*
X261701597Y-76304108D01*
X261809155Y-75917947D01*
X261839310Y-75518223D01*
X261790904Y-75120296D01*
X261665795Y-74739460D01*
X261520770Y-74468135D01*
X261215447Y-74324158D01*
X259974605Y-75565000D01*
X259615395Y-75565000D01*
X258374553Y-74324158D01*
X258069230Y-74468135D01*
X257888403Y-74825892D01*
X257780845Y-75212053D01*
X257750690Y-75611777D01*
X257784360Y-75888568D01*
X256670189Y-74774397D01*
X256598393Y-74601066D01*
X256375687Y-74267763D01*
X256252477Y-74144553D01*
X258554158Y-74144553D01*
X259795000Y-75385395D01*
X261035842Y-74144553D01*
X260891865Y-73839230D01*
X260534108Y-73658403D01*
X260147947Y-73550845D01*
X259748223Y-73520690D01*
X259350296Y-73569096D01*
X258969460Y-73694205D01*
X258698135Y-73839230D01*
X258554158Y-74144553D01*
X256252477Y-74144553D01*
X256092237Y-73984313D01*
X255758934Y-73761607D01*
X255388587Y-73608204D01*
X254995430Y-73530000D01*
X254594570Y-73530000D01*
X254201413Y-73608204D01*
X253831066Y-73761607D01*
X253497763Y-73984313D01*
X253214313Y-74267763D01*
X252991607Y-74601066D01*
X252838204Y-74971413D01*
X252760000Y-75364570D01*
X252760000Y-75765430D01*
X252784527Y-75888735D01*
X251670189Y-74774397D01*
X251598393Y-74601066D01*
X251375687Y-74267763D01*
X251092237Y-73984313D01*
X250758934Y-73761607D01*
X250388587Y-73608204D01*
X249995430Y-73530000D01*
X249594570Y-73530000D01*
X249201413Y-73608204D01*
X249028082Y-73680000D01*
X245837589Y-73680000D01*
X245745000Y-73670881D01*
X245652411Y-73680000D01*
X245652403Y-73680000D01*
X245407662Y-73704105D01*
X245375475Y-73707275D01*
X245353916Y-73713815D01*
X245020152Y-73815061D01*
X244692683Y-73990097D01*
X244543979Y-74112136D01*
X244477579Y-74166628D01*
X244477577Y-74166630D01*
X244405655Y-74225655D01*
X244346630Y-74297577D01*
X236709208Y-81935000D01*
X198265793Y-81935000D01*
X189993374Y-73662582D01*
X189934345Y-73590655D01*
X189647317Y-73355097D01*
X189319848Y-73180061D01*
X188964524Y-73072275D01*
X188687597Y-73045000D01*
X188687589Y-73045000D01*
X188595000Y-73035881D01*
X188502411Y-73045000D01*
X179332683Y-73045000D01*
X179295537Y-72975506D01*
X179216185Y-72878815D01*
X179126085Y-72804872D01*
X290500000Y-72804872D01*
X290500000Y-73245128D01*
X290585890Y-73676925D01*
X290754369Y-74083669D01*
X290998962Y-74449729D01*
X291310271Y-74761038D01*
X291676331Y-75005631D01*
X292083075Y-75174110D01*
X292514872Y-75260000D01*
X292955128Y-75260000D01*
X293386925Y-75174110D01*
X293793669Y-75005631D01*
X294159729Y-74761038D01*
X294471038Y-74449729D01*
X294715631Y-74083669D01*
X294884110Y-73676925D01*
X294970000Y-73245128D01*
X294970000Y-72804872D01*
X294884110Y-72373075D01*
X294715631Y-71966331D01*
X294471038Y-71600271D01*
X294159729Y-71288962D01*
X293793669Y-71044369D01*
X293386925Y-70875890D01*
X292955128Y-70790000D01*
X292514872Y-70790000D01*
X292083075Y-70875890D01*
X291676331Y-71044369D01*
X291310271Y-71288962D01*
X290998962Y-71600271D01*
X290754369Y-71966331D01*
X290585890Y-72373075D01*
X290500000Y-72804872D01*
X179126085Y-72804872D01*
X179119494Y-72799463D01*
X179009180Y-72740498D01*
X178889482Y-72704188D01*
X178765000Y-72691928D01*
X175565000Y-72691928D01*
X175440518Y-72704188D01*
X175320820Y-72740498D01*
X175210506Y-72799463D01*
X175113815Y-72878815D01*
X175034463Y-72975506D01*
X174975498Y-73085820D01*
X174939188Y-73205518D01*
X174926928Y-73330000D01*
X174926928Y-76530000D01*
X174939188Y-76654482D01*
X174975498Y-76774180D01*
X175034463Y-76884494D01*
X175113815Y-76981185D01*
X175210506Y-77060537D01*
X175320820Y-77119502D01*
X175440518Y-77155812D01*
X175565000Y-77168072D01*
X178765000Y-77168072D01*
X178889482Y-77155812D01*
X179009180Y-77119502D01*
X179119494Y-77060537D01*
X179216185Y-76981185D01*
X179295537Y-76884494D01*
X179332683Y-76815000D01*
X187814208Y-76815000D01*
X195646928Y-84647721D01*
X195646928Y-85020000D01*
X195659188Y-85144482D01*
X195695498Y-85264180D01*
X195754463Y-85374494D01*
X195833815Y-85471185D01*
X195930506Y-85550537D01*
X196040820Y-85609502D01*
X196160518Y-85645812D01*
X196285000Y-85658072D01*
X197050689Y-85658072D01*
X197115476Y-85677725D01*
X197485000Y-85714120D01*
X197577597Y-85705000D01*
X237397411Y-85705000D01*
X237490000Y-85714119D01*
X237582589Y-85705000D01*
X237582597Y-85705000D01*
X237859524Y-85677725D01*
X237924311Y-85658072D01*
X238690000Y-85658072D01*
X238814482Y-85645812D01*
X238934180Y-85609502D01*
X239044494Y-85550537D01*
X239141185Y-85471185D01*
X239220537Y-85374494D01*
X239279502Y-85264180D01*
X239315812Y-85144482D01*
X239328072Y-85020000D01*
X239328072Y-84647720D01*
X246525793Y-77450000D01*
X249014208Y-77450000D01*
X258164207Y-86600000D01*
X257114208Y-87650000D01*
X257082403Y-87650000D01*
X256805476Y-87677275D01*
X256740689Y-87696928D01*
X255975000Y-87696928D01*
X255850518Y-87709188D01*
X255730820Y-87745498D01*
X255620506Y-87804463D01*
X255523815Y-87883815D01*
X255444463Y-87980506D01*
X255385498Y-88090820D01*
X255349188Y-88210518D01*
X255336928Y-88335000D01*
X255336928Y-89100689D01*
X255317275Y-89165476D01*
X255280880Y-89535000D01*
X255317275Y-89904524D01*
X255336928Y-89969311D01*
X255336928Y-90735000D01*
X255349188Y-90859482D01*
X255385498Y-90979180D01*
X255444463Y-91089494D01*
X255523815Y-91186185D01*
X255620506Y-91265537D01*
X255730820Y-91324502D01*
X255850518Y-91360812D01*
X255975000Y-91373072D01*
X256740689Y-91373072D01*
X256805476Y-91392725D01*
X257082403Y-91420000D01*
X257802411Y-91420000D01*
X257895000Y-91429119D01*
X257987589Y-91420000D01*
X257987597Y-91420000D01*
X258264524Y-91392725D01*
X258329311Y-91373072D01*
X258375000Y-91373072D01*
X258499482Y-91360812D01*
X258619180Y-91324502D01*
X258729494Y-91265537D01*
X258826185Y-91186185D01*
X258843050Y-91165635D01*
X258947317Y-91109903D01*
X259234345Y-90874345D01*
X259293374Y-90802418D01*
X261610793Y-88485000D01*
X270404207Y-88485000D01*
X266702582Y-92186626D01*
X266630655Y-92245655D01*
X266395097Y-92532683D01*
X266220061Y-92860153D01*
X266112275Y-93215477D01*
X266085000Y-93492404D01*
X266085000Y-93492411D01*
X266075881Y-93585000D01*
X266085000Y-93677589D01*
X266085001Y-104922401D01*
X266075881Y-105015000D01*
X266112275Y-105384524D01*
X266220062Y-105739848D01*
X266395098Y-106067317D01*
X266571628Y-106282420D01*
X266571631Y-106282423D01*
X266630656Y-106354345D01*
X266702577Y-106413369D01*
X273079811Y-112790604D01*
X273151607Y-112963934D01*
X273374313Y-113297237D01*
X273657763Y-113580687D01*
X273991066Y-113803393D01*
X274164397Y-113875189D01*
X275278735Y-114989527D01*
X275155430Y-114965000D01*
X274754570Y-114965000D01*
X274361413Y-115043204D01*
X274188082Y-115115000D01*
X265100793Y-115115000D01*
X251588374Y-101602582D01*
X251529345Y-101530655D01*
X251242317Y-101295097D01*
X250914848Y-101120061D01*
X250559524Y-101012275D01*
X250282597Y-100985000D01*
X250282589Y-100985000D01*
X250190000Y-100975881D01*
X250097411Y-100985000D01*
X183607586Y-100985000D01*
X183514999Y-100975881D01*
X183422412Y-100985000D01*
X183422403Y-100985000D01*
X183145476Y-101012275D01*
X183080689Y-101031928D01*
X182315000Y-101031928D01*
X182190518Y-101044188D01*
X182070820Y-101080498D01*
X181960506Y-101139463D01*
X181863815Y-101218815D01*
X181784463Y-101315506D01*
X181725498Y-101425820D01*
X181689188Y-101545518D01*
X181676928Y-101670000D01*
X181676928Y-102042279D01*
X175897577Y-107821631D01*
X175825656Y-107880655D01*
X175766631Y-107952577D01*
X175766628Y-107952580D01*
X175590098Y-108167683D01*
X175415062Y-108495152D01*
X175307275Y-108850476D01*
X175270881Y-109220000D01*
X175280001Y-109312599D01*
X175280000Y-120387317D01*
X175210506Y-120424463D01*
X175113815Y-120503815D01*
X175034463Y-120600506D01*
X174975498Y-120710820D01*
X174939188Y-120830518D01*
X174926928Y-120955000D01*
X174926928Y-124155000D01*
X174939188Y-124279482D01*
X174975498Y-124399180D01*
X175034463Y-124509494D01*
X175113815Y-124606185D01*
X175210506Y-124685537D01*
X175320820Y-124744502D01*
X175440518Y-124780812D01*
X175565000Y-124793072D01*
X178765000Y-124793072D01*
X178889482Y-124780812D01*
X179009180Y-124744502D01*
X179119494Y-124685537D01*
X179216185Y-124606185D01*
X179295537Y-124509494D01*
X179354502Y-124399180D01*
X179390812Y-124279482D01*
X179403072Y-124155000D01*
X179403072Y-123120000D01*
X195646928Y-123120000D01*
X195659188Y-123244482D01*
X195695498Y-123364180D01*
X195754463Y-123474494D01*
X195833815Y-123571185D01*
X195930506Y-123650537D01*
X196040820Y-123709502D01*
X196160518Y-123745812D01*
X196285000Y-123758072D01*
X197199250Y-123755000D01*
X197358000Y-123596250D01*
X197358000Y-122047000D01*
X197612000Y-122047000D01*
X197612000Y-123596250D01*
X197770750Y-123755000D01*
X198685000Y-123758072D01*
X198809482Y-123745812D01*
X198929180Y-123709502D01*
X199039494Y-123650537D01*
X199136185Y-123571185D01*
X199215537Y-123474494D01*
X199274502Y-123364180D01*
X199310812Y-123244482D01*
X199323072Y-123120000D01*
X215966928Y-123120000D01*
X215979188Y-123244482D01*
X216015498Y-123364180D01*
X216074463Y-123474494D01*
X216153815Y-123571185D01*
X216250506Y-123650537D01*
X216360820Y-123709502D01*
X216480518Y-123745812D01*
X216605000Y-123758072D01*
X217519250Y-123755000D01*
X217678000Y-123596250D01*
X217678000Y-122047000D01*
X217932000Y-122047000D01*
X217932000Y-123596250D01*
X218090750Y-123755000D01*
X219005000Y-123758072D01*
X219129482Y-123745812D01*
X219249180Y-123709502D01*
X219359494Y-123650537D01*
X219456185Y-123571185D01*
X219535537Y-123474494D01*
X219594502Y-123364180D01*
X219630812Y-123244482D01*
X219643072Y-123120000D01*
X236286928Y-123120000D01*
X236299188Y-123244482D01*
X236335498Y-123364180D01*
X236394463Y-123474494D01*
X236473815Y-123571185D01*
X236570506Y-123650537D01*
X236680820Y-123709502D01*
X236800518Y-123745812D01*
X236925000Y-123758072D01*
X237839250Y-123755000D01*
X237998000Y-123596250D01*
X237998000Y-122047000D01*
X238252000Y-122047000D01*
X238252000Y-123596250D01*
X238410750Y-123755000D01*
X239325000Y-123758072D01*
X239449482Y-123745812D01*
X239569180Y-123709502D01*
X239679494Y-123650537D01*
X239776185Y-123571185D01*
X239855537Y-123474494D01*
X239914502Y-123364180D01*
X239950812Y-123244482D01*
X239963072Y-123120000D01*
X239960000Y-122205750D01*
X239801250Y-122047000D01*
X238252000Y-122047000D01*
X237998000Y-122047000D01*
X236448750Y-122047000D01*
X236290000Y-122205750D01*
X236286928Y-123120000D01*
X219643072Y-123120000D01*
X219640000Y-122205750D01*
X219481250Y-122047000D01*
X217932000Y-122047000D01*
X217678000Y-122047000D01*
X216128750Y-122047000D01*
X215970000Y-122205750D01*
X215966928Y-123120000D01*
X199323072Y-123120000D01*
X199320000Y-122205750D01*
X199161250Y-122047000D01*
X197612000Y-122047000D01*
X197358000Y-122047000D01*
X195808750Y-122047000D01*
X195650000Y-122205750D01*
X195646928Y-123120000D01*
X179403072Y-123120000D01*
X179403072Y-120955000D01*
X179390812Y-120830518D01*
X179357287Y-120720000D01*
X195646928Y-120720000D01*
X195650000Y-121634250D01*
X195808750Y-121793000D01*
X197358000Y-121793000D01*
X197358000Y-120243750D01*
X197612000Y-120243750D01*
X197612000Y-121793000D01*
X199161250Y-121793000D01*
X199320000Y-121634250D01*
X199323072Y-120720000D01*
X215966928Y-120720000D01*
X215970000Y-121634250D01*
X216128750Y-121793000D01*
X217678000Y-121793000D01*
X217678000Y-120243750D01*
X217932000Y-120243750D01*
X217932000Y-121793000D01*
X219481250Y-121793000D01*
X219640000Y-121634250D01*
X219643072Y-120720000D01*
X236286928Y-120720000D01*
X236290000Y-121634250D01*
X236448750Y-121793000D01*
X237998000Y-121793000D01*
X237998000Y-120243750D01*
X238252000Y-120243750D01*
X238252000Y-121793000D01*
X239801250Y-121793000D01*
X239960000Y-121634250D01*
X239963072Y-120720000D01*
X239950812Y-120595518D01*
X239914502Y-120475820D01*
X239855537Y-120365506D01*
X239776185Y-120268815D01*
X239679494Y-120189463D01*
X239569180Y-120130498D01*
X239449482Y-120094188D01*
X239325000Y-120081928D01*
X238410750Y-120085000D01*
X238252000Y-120243750D01*
X237998000Y-120243750D01*
X237839250Y-120085000D01*
X236925000Y-120081928D01*
X236800518Y-120094188D01*
X236680820Y-120130498D01*
X236570506Y-120189463D01*
X236473815Y-120268815D01*
X236394463Y-120365506D01*
X236335498Y-120475820D01*
X236299188Y-120595518D01*
X236286928Y-120720000D01*
X219643072Y-120720000D01*
X219630812Y-120595518D01*
X219594502Y-120475820D01*
X219535537Y-120365506D01*
X219456185Y-120268815D01*
X219359494Y-120189463D01*
X219249180Y-120130498D01*
X219129482Y-120094188D01*
X219005000Y-120081928D01*
X218090750Y-120085000D01*
X217932000Y-120243750D01*
X217678000Y-120243750D01*
X217519250Y-120085000D01*
X216605000Y-120081928D01*
X216480518Y-120094188D01*
X216360820Y-120130498D01*
X216250506Y-120189463D01*
X216153815Y-120268815D01*
X216074463Y-120365506D01*
X216015498Y-120475820D01*
X215979188Y-120595518D01*
X215966928Y-120720000D01*
X199323072Y-120720000D01*
X199310812Y-120595518D01*
X199274502Y-120475820D01*
X199215537Y-120365506D01*
X199136185Y-120268815D01*
X199039494Y-120189463D01*
X198929180Y-120130498D01*
X198809482Y-120094188D01*
X198685000Y-120081928D01*
X197770750Y-120085000D01*
X197612000Y-120243750D01*
X197358000Y-120243750D01*
X197199250Y-120085000D01*
X196285000Y-120081928D01*
X196160518Y-120094188D01*
X196040820Y-120130498D01*
X195930506Y-120189463D01*
X195833815Y-120268815D01*
X195754463Y-120365506D01*
X195695498Y-120475820D01*
X195659188Y-120595518D01*
X195646928Y-120720000D01*
X179357287Y-120720000D01*
X179354502Y-120710820D01*
X179295537Y-120600506D01*
X179216185Y-120503815D01*
X179119494Y-120424463D01*
X179050000Y-120387317D01*
X179050000Y-117405000D01*
X255336928Y-117405000D01*
X255349188Y-117529482D01*
X255385498Y-117649180D01*
X255444463Y-117759494D01*
X255523815Y-117856185D01*
X255620506Y-117935537D01*
X255730820Y-117994502D01*
X255850518Y-118030812D01*
X255975000Y-118043072D01*
X256889250Y-118040000D01*
X257048000Y-117881250D01*
X257048000Y-116332000D01*
X257302000Y-116332000D01*
X257302000Y-117881250D01*
X257460750Y-118040000D01*
X258375000Y-118043072D01*
X258499482Y-118030812D01*
X258619180Y-117994502D01*
X258729494Y-117935537D01*
X258826185Y-117856185D01*
X258905537Y-117759494D01*
X258964502Y-117649180D01*
X259000812Y-117529482D01*
X259013072Y-117405000D01*
X259010000Y-116490750D01*
X258851250Y-116332000D01*
X257302000Y-116332000D01*
X257048000Y-116332000D01*
X255498750Y-116332000D01*
X255340000Y-116490750D01*
X255336928Y-117405000D01*
X179050000Y-117405000D01*
X179050000Y-115005000D01*
X255336928Y-115005000D01*
X255340000Y-115919250D01*
X255498750Y-116078000D01*
X257048000Y-116078000D01*
X257048000Y-114528750D01*
X257302000Y-114528750D01*
X257302000Y-116078000D01*
X258851250Y-116078000D01*
X259010000Y-115919250D01*
X259013072Y-115005000D01*
X259000812Y-114880518D01*
X258964502Y-114760820D01*
X258905537Y-114650506D01*
X258826185Y-114553815D01*
X258729494Y-114474463D01*
X258619180Y-114415498D01*
X258499482Y-114379188D01*
X258375000Y-114366928D01*
X257460750Y-114370000D01*
X257302000Y-114528750D01*
X257048000Y-114528750D01*
X256889250Y-114370000D01*
X255975000Y-114366928D01*
X255850518Y-114379188D01*
X255730820Y-114415498D01*
X255620506Y-114474463D01*
X255523815Y-114553815D01*
X255444463Y-114650506D01*
X255385498Y-114760820D01*
X255349188Y-114880518D01*
X255336928Y-115005000D01*
X179050000Y-115005000D01*
X179050000Y-111647980D01*
X182416626Y-111647980D01*
X182536514Y-111932836D01*
X182860210Y-112093699D01*
X183209069Y-112188322D01*
X183569684Y-112213067D01*
X183928198Y-112166985D01*
X184270833Y-112051846D01*
X184493486Y-111932836D01*
X184613374Y-111647980D01*
X202101626Y-111647980D01*
X202221514Y-111932836D01*
X202545210Y-112093699D01*
X202894069Y-112188322D01*
X203254684Y-112213067D01*
X203613198Y-112166985D01*
X203955833Y-112051846D01*
X204178486Y-111932836D01*
X204298374Y-111647980D01*
X221786626Y-111647980D01*
X221906514Y-111932836D01*
X222230210Y-112093699D01*
X222579069Y-112188322D01*
X222939684Y-112213067D01*
X223298198Y-112166985D01*
X223640833Y-112051846D01*
X223863486Y-111932836D01*
X223983374Y-111647980D01*
X241471626Y-111647980D01*
X241591514Y-111932836D01*
X241915210Y-112093699D01*
X242264069Y-112188322D01*
X242624684Y-112213067D01*
X242983198Y-112166985D01*
X243325833Y-112051846D01*
X243548486Y-111932836D01*
X243668374Y-111647980D01*
X242570000Y-110549605D01*
X241471626Y-111647980D01*
X223983374Y-111647980D01*
X222885000Y-110549605D01*
X221786626Y-111647980D01*
X204298374Y-111647980D01*
X203200000Y-110549605D01*
X202101626Y-111647980D01*
X184613374Y-111647980D01*
X183515000Y-110549605D01*
X182416626Y-111647980D01*
X179050000Y-111647980D01*
X179050000Y-110424684D01*
X181671933Y-110424684D01*
X181718015Y-110783198D01*
X181833154Y-111125833D01*
X181952164Y-111348486D01*
X182237020Y-111468374D01*
X183335395Y-110370000D01*
X183694605Y-110370000D01*
X184792980Y-111468374D01*
X185077836Y-111348486D01*
X185238699Y-111024790D01*
X185333322Y-110675931D01*
X185350562Y-110424684D01*
X201356933Y-110424684D01*
X201403015Y-110783198D01*
X201518154Y-111125833D01*
X201637164Y-111348486D01*
X201922020Y-111468374D01*
X203020395Y-110370000D01*
X203379605Y-110370000D01*
X204477980Y-111468374D01*
X204762836Y-111348486D01*
X204923699Y-111024790D01*
X205018322Y-110675931D01*
X205035562Y-110424684D01*
X221041933Y-110424684D01*
X221088015Y-110783198D01*
X221203154Y-111125833D01*
X221322164Y-111348486D01*
X221607020Y-111468374D01*
X222705395Y-110370000D01*
X223064605Y-110370000D01*
X224162980Y-111468374D01*
X224447836Y-111348486D01*
X224608699Y-111024790D01*
X224703322Y-110675931D01*
X224720562Y-110424684D01*
X240726933Y-110424684D01*
X240773015Y-110783198D01*
X240888154Y-111125833D01*
X241007164Y-111348486D01*
X241292020Y-111468374D01*
X242390395Y-110370000D01*
X242749605Y-110370000D01*
X243847980Y-111468374D01*
X244132836Y-111348486D01*
X244293699Y-111024790D01*
X244388322Y-110675931D01*
X244413067Y-110315316D01*
X244366985Y-109956802D01*
X244251846Y-109614167D01*
X244132836Y-109391514D01*
X243847980Y-109271626D01*
X242749605Y-110370000D01*
X242390395Y-110370000D01*
X241292020Y-109271626D01*
X241007164Y-109391514D01*
X240846301Y-109715210D01*
X240751678Y-110064069D01*
X240726933Y-110424684D01*
X224720562Y-110424684D01*
X224728067Y-110315316D01*
X224681985Y-109956802D01*
X224566846Y-109614167D01*
X224447836Y-109391514D01*
X224162980Y-109271626D01*
X223064605Y-110370000D01*
X222705395Y-110370000D01*
X221607020Y-109271626D01*
X221322164Y-109391514D01*
X221161301Y-109715210D01*
X221066678Y-110064069D01*
X221041933Y-110424684D01*
X205035562Y-110424684D01*
X205043067Y-110315316D01*
X204996985Y-109956802D01*
X204881846Y-109614167D01*
X204762836Y-109391514D01*
X204477980Y-109271626D01*
X203379605Y-110370000D01*
X203020395Y-110370000D01*
X201922020Y-109271626D01*
X201637164Y-109391514D01*
X201476301Y-109715210D01*
X201381678Y-110064069D01*
X201356933Y-110424684D01*
X185350562Y-110424684D01*
X185358067Y-110315316D01*
X185311985Y-109956802D01*
X185196846Y-109614167D01*
X185077836Y-109391514D01*
X184792980Y-109271626D01*
X183694605Y-110370000D01*
X183335395Y-110370000D01*
X182237020Y-109271626D01*
X181952164Y-109391514D01*
X181791301Y-109715210D01*
X181696678Y-110064069D01*
X181671933Y-110424684D01*
X179050000Y-110424684D01*
X179050000Y-110000792D01*
X179958772Y-109092020D01*
X182416626Y-109092020D01*
X183515000Y-110190395D01*
X184613374Y-109092020D01*
X202101626Y-109092020D01*
X203200000Y-110190395D01*
X204298374Y-109092020D01*
X221786626Y-109092020D01*
X222885000Y-110190395D01*
X223983374Y-109092020D01*
X241471626Y-109092020D01*
X242570000Y-110190395D01*
X243668374Y-109092020D01*
X243548486Y-108807164D01*
X243224790Y-108646301D01*
X242875931Y-108551678D01*
X242515316Y-108526933D01*
X242156802Y-108573015D01*
X241814167Y-108688154D01*
X241591514Y-108807164D01*
X241471626Y-109092020D01*
X223983374Y-109092020D01*
X223863486Y-108807164D01*
X223539790Y-108646301D01*
X223190931Y-108551678D01*
X222830316Y-108526933D01*
X222471802Y-108573015D01*
X222129167Y-108688154D01*
X221906514Y-108807164D01*
X221786626Y-109092020D01*
X204298374Y-109092020D01*
X204178486Y-108807164D01*
X203854790Y-108646301D01*
X203505931Y-108551678D01*
X203145316Y-108526933D01*
X202786802Y-108573015D01*
X202444167Y-108688154D01*
X202221514Y-108807164D01*
X202101626Y-109092020D01*
X184613374Y-109092020D01*
X184493486Y-108807164D01*
X184169790Y-108646301D01*
X183820931Y-108551678D01*
X183460316Y-108526933D01*
X183101802Y-108573015D01*
X182759167Y-108688154D01*
X182536514Y-108807164D01*
X182416626Y-109092020D01*
X179958772Y-109092020D01*
X184295793Y-104755000D01*
X249409208Y-104755000D01*
X262921630Y-118267423D01*
X262980655Y-118339345D01*
X263052577Y-118398370D01*
X263052579Y-118398372D01*
X263106448Y-118442581D01*
X263267683Y-118574903D01*
X263595152Y-118749939D01*
X263950476Y-118857725D01*
X264320000Y-118894120D01*
X264412597Y-118885000D01*
X274174208Y-118885000D01*
X275272369Y-119983161D01*
X274908223Y-119955690D01*
X274510296Y-120004096D01*
X274129460Y-120129205D01*
X273858135Y-120274230D01*
X273714158Y-120579553D01*
X274955000Y-121820395D01*
X274969143Y-121806253D01*
X275148748Y-121985858D01*
X275134605Y-122000000D01*
X276375447Y-123240842D01*
X276680770Y-123096865D01*
X276861597Y-122739108D01*
X276969155Y-122352947D01*
X276999310Y-121953223D01*
X276965640Y-121676432D01*
X279420001Y-124130794D01*
X279420000Y-130029208D01*
X277984208Y-131465000D01*
X263457586Y-131465000D01*
X263364999Y-131455881D01*
X263272412Y-131465000D01*
X263272403Y-131465000D01*
X262995476Y-131492275D01*
X262640152Y-131600061D01*
X262312683Y-131775097D01*
X262312681Y-131775098D01*
X262312682Y-131775098D01*
X262097579Y-131951628D01*
X262097577Y-131951630D01*
X262025655Y-132010655D01*
X261966630Y-132082577D01*
X258129397Y-135919811D01*
X257956066Y-135991607D01*
X257622763Y-136214313D01*
X257339313Y-136497763D01*
X257116607Y-136831066D01*
X256963204Y-137201413D01*
X256885000Y-137594570D01*
X256885000Y-137995430D01*
X256963204Y-138388587D01*
X257116607Y-138758934D01*
X257339313Y-139092237D01*
X257622763Y-139375687D01*
X257956066Y-139598393D01*
X258129397Y-139670189D01*
X260696630Y-142237423D01*
X260715159Y-142260000D01*
X256050793Y-142260000D01*
X253602632Y-139811839D01*
X253966777Y-139839310D01*
X254364704Y-139790904D01*
X254745540Y-139665795D01*
X255016865Y-139520770D01*
X255160842Y-139215447D01*
X253920000Y-137974605D01*
X253905858Y-137988748D01*
X253726253Y-137809143D01*
X253740395Y-137795000D01*
X254099605Y-137795000D01*
X255340447Y-139035842D01*
X255645770Y-138891865D01*
X255826597Y-138534108D01*
X255934155Y-138147947D01*
X255964310Y-137748223D01*
X255915904Y-137350296D01*
X255790795Y-136969460D01*
X255645770Y-136698135D01*
X255340447Y-136554158D01*
X254099605Y-137795000D01*
X253740395Y-137795000D01*
X253726253Y-137780858D01*
X253905858Y-137601253D01*
X253920000Y-137615395D01*
X255160842Y-136374553D01*
X255016865Y-136069230D01*
X254659108Y-135888403D01*
X254272947Y-135780845D01*
X253873223Y-135750690D01*
X253596432Y-135784360D01*
X260495792Y-128885000D01*
X273145019Y-128885000D01*
X273200506Y-128930537D01*
X273310820Y-128989502D01*
X273430518Y-129025812D01*
X273555000Y-129038072D01*
X276355000Y-129038072D01*
X276479482Y-129025812D01*
X276599180Y-128989502D01*
X276709494Y-128930537D01*
X276806185Y-128851185D01*
X276885537Y-128754494D01*
X276944502Y-128644180D01*
X276980812Y-128524482D01*
X276993072Y-128400000D01*
X276993072Y-125600000D01*
X276980812Y-125475518D01*
X276944502Y-125355820D01*
X276885537Y-125245506D01*
X276806185Y-125148815D01*
X276709494Y-125069463D01*
X276599180Y-125010498D01*
X276479482Y-124974188D01*
X276355000Y-124961928D01*
X273555000Y-124961928D01*
X273430518Y-124974188D01*
X273310820Y-125010498D01*
X273200506Y-125069463D01*
X273145019Y-125115000D01*
X261226150Y-125115000D01*
X261054345Y-124905655D01*
X260982418Y-124846626D01*
X259556239Y-123420447D01*
X273714158Y-123420447D01*
X273858135Y-123725770D01*
X274215892Y-123906597D01*
X274602053Y-124014155D01*
X275001777Y-124044310D01*
X275399704Y-123995904D01*
X275780540Y-123870795D01*
X276051865Y-123725770D01*
X276195842Y-123420447D01*
X274955000Y-122179605D01*
X273714158Y-123420447D01*
X259556239Y-123420447D01*
X258442420Y-122306628D01*
X258227317Y-122130098D01*
X258071435Y-122046777D01*
X272910690Y-122046777D01*
X272959096Y-122444704D01*
X273084205Y-122825540D01*
X273229230Y-123096865D01*
X273534553Y-123240842D01*
X274775395Y-122000000D01*
X273534553Y-120759158D01*
X273229230Y-120903135D01*
X273048403Y-121260892D01*
X272940845Y-121647053D01*
X272910690Y-122046777D01*
X258071435Y-122046777D01*
X257899848Y-121955062D01*
X257544524Y-121847275D01*
X257175000Y-121810881D01*
X256805476Y-121847275D01*
X256450152Y-121955062D01*
X256122683Y-122130098D01*
X255835655Y-122365655D01*
X255600098Y-122652683D01*
X255425062Y-122980152D01*
X255317275Y-123335476D01*
X255280881Y-123705000D01*
X255317275Y-124074524D01*
X255425062Y-124429848D01*
X255600098Y-124757317D01*
X255776628Y-124972420D01*
X257426708Y-126622500D01*
X248292280Y-135756928D01*
X247520000Y-135756928D01*
X247395518Y-135769188D01*
X247275820Y-135805498D01*
X247210960Y-135840167D01*
X239523374Y-128152582D01*
X239464345Y-128080655D01*
X239177317Y-127845097D01*
X238849848Y-127670061D01*
X238494524Y-127562275D01*
X238217597Y-127535000D01*
X238217589Y-127535000D01*
X238125000Y-127525881D01*
X238032411Y-127535000D01*
X197577597Y-127535000D01*
X197485000Y-127525880D01*
X197392403Y-127535000D01*
X197115476Y-127562275D01*
X196760152Y-127670061D01*
X196432683Y-127845097D01*
X196217579Y-128021628D01*
X196217577Y-128021630D01*
X196145655Y-128080655D01*
X196086630Y-128152577D01*
X188329208Y-135910000D01*
X178366791Y-135910000D01*
X178223669Y-135814369D01*
X177816925Y-135645890D01*
X177385128Y-135560000D01*
X176944872Y-135560000D01*
X176513075Y-135645890D01*
X176106331Y-135814369D01*
X175740271Y-136058962D01*
X175428962Y-136370271D01*
X175184369Y-136736331D01*
X175015890Y-137143075D01*
X174930000Y-137574872D01*
X174930000Y-138015128D01*
X175015890Y-138446925D01*
X175184369Y-138853669D01*
X175428962Y-139219729D01*
X175740271Y-139531038D01*
X176106331Y-139775631D01*
X176513075Y-139944110D01*
X176944872Y-140030000D01*
X177385128Y-140030000D01*
X177816925Y-139944110D01*
X178223669Y-139775631D01*
X178366791Y-139680000D01*
X189017411Y-139680000D01*
X189110000Y-139689119D01*
X189202589Y-139680000D01*
X189202597Y-139680000D01*
X189479524Y-139652725D01*
X189834848Y-139544939D01*
X190162317Y-139369903D01*
X190449345Y-139134345D01*
X190508374Y-139062418D01*
X198265793Y-131305000D01*
X237344208Y-131305000D01*
X245101630Y-139062423D01*
X245160655Y-139134345D01*
X245232577Y-139193370D01*
X245232579Y-139193372D01*
X245265100Y-139220061D01*
X245447683Y-139369903D01*
X245775152Y-139544939D01*
X246130476Y-139652725D01*
X246500000Y-139689120D01*
X246592597Y-139680000D01*
X247110019Y-139680000D01*
X247165506Y-139725537D01*
X247275820Y-139784502D01*
X247395518Y-139820812D01*
X247520000Y-139833072D01*
X248292280Y-139833072D01*
X253849207Y-145390000D01*
X159410000Y-145390000D01*
X159410000Y-138844872D01*
X163500000Y-138844872D01*
X163500000Y-139285128D01*
X163585890Y-139716925D01*
X163754369Y-140123669D01*
X163998962Y-140489729D01*
X164310271Y-140801038D01*
X164676331Y-141045631D01*
X165083075Y-141214110D01*
X165514872Y-141300000D01*
X165955128Y-141300000D01*
X166386925Y-141214110D01*
X166793669Y-141045631D01*
X167159729Y-140801038D01*
X167471038Y-140489729D01*
X167715631Y-140123669D01*
X167884110Y-139716925D01*
X167970000Y-139285128D01*
X167970000Y-138844872D01*
X167884110Y-138413075D01*
X167715631Y-138006331D01*
X167471038Y-137640271D01*
X167159729Y-137328962D01*
X166793669Y-137084369D01*
X166386925Y-136915890D01*
X165955128Y-136830000D01*
X165514872Y-136830000D01*
X165083075Y-136915890D01*
X164676331Y-137084369D01*
X164310271Y-137328962D01*
X163998962Y-137640271D01*
X163754369Y-138006331D01*
X163585890Y-138413075D01*
X163500000Y-138844872D01*
X159410000Y-138844872D01*
X159410000Y-110965000D01*
X160665881Y-110965000D01*
X160675001Y-111057599D01*
X160675000Y-121192411D01*
X160665881Y-121285000D01*
X160675000Y-121377589D01*
X160675000Y-121377596D01*
X160702275Y-121654523D01*
X160810061Y-122009847D01*
X160985097Y-122337317D01*
X161220655Y-122624345D01*
X161292582Y-122683374D01*
X172591630Y-133982423D01*
X172650655Y-134054345D01*
X172722577Y-134113370D01*
X172722579Y-134113372D01*
X172831405Y-134202683D01*
X172937683Y-134289903D01*
X173265152Y-134464939D01*
X173480128Y-134530151D01*
X173620475Y-134572725D01*
X173655732Y-134576197D01*
X173897403Y-134600000D01*
X173897410Y-134600000D01*
X173989999Y-134609119D01*
X174082588Y-134600000D01*
X175963209Y-134600000D01*
X176106331Y-134695631D01*
X176513075Y-134864110D01*
X176944872Y-134950000D01*
X177385128Y-134950000D01*
X177816925Y-134864110D01*
X178223669Y-134695631D01*
X178589729Y-134451038D01*
X178901038Y-134139729D01*
X179145631Y-133773669D01*
X179314110Y-133366925D01*
X179400000Y-132935128D01*
X179400000Y-132494872D01*
X179314110Y-132063075D01*
X179145631Y-131656331D01*
X178901038Y-131290271D01*
X178589729Y-130978962D01*
X178223669Y-130734369D01*
X177816925Y-130565890D01*
X177385128Y-130480000D01*
X176944872Y-130480000D01*
X176513075Y-130565890D01*
X176106331Y-130734369D01*
X175963209Y-130830000D01*
X174770793Y-130830000D01*
X164445000Y-120504208D01*
X164445000Y-116319570D01*
X164970000Y-116319570D01*
X164970000Y-116720430D01*
X165048204Y-117113587D01*
X165120001Y-117286919D01*
X165120000Y-119645151D01*
X165110881Y-119737741D01*
X165120000Y-119830330D01*
X165120000Y-119830337D01*
X165135316Y-119985845D01*
X165147275Y-120107265D01*
X165172210Y-120189463D01*
X165255061Y-120462588D01*
X165430097Y-120790058D01*
X165665655Y-121077086D01*
X165737582Y-121136115D01*
X173503889Y-128902423D01*
X173562914Y-128974345D01*
X173634836Y-129033370D01*
X173634838Y-129033372D01*
X173667360Y-129060062D01*
X173849942Y-129209903D01*
X174177411Y-129384939D01*
X174459983Y-129470656D01*
X174532735Y-129492725D01*
X174902259Y-129529120D01*
X174994856Y-129520000D01*
X175963209Y-129520000D01*
X176106331Y-129615631D01*
X176513075Y-129784110D01*
X176944872Y-129870000D01*
X177385128Y-129870000D01*
X177816925Y-129784110D01*
X178223669Y-129615631D01*
X178589729Y-129371038D01*
X178901038Y-129059729D01*
X179145631Y-128693669D01*
X179314110Y-128286925D01*
X179400000Y-127855128D01*
X179400000Y-127414872D01*
X179314110Y-126983075D01*
X179145631Y-126576331D01*
X178901038Y-126210271D01*
X178589729Y-125898962D01*
X178223669Y-125654369D01*
X177816925Y-125485890D01*
X177385128Y-125400000D01*
X176944872Y-125400000D01*
X176513075Y-125485890D01*
X176106331Y-125654369D01*
X175963209Y-125750000D01*
X175683052Y-125750000D01*
X168890000Y-118956949D01*
X168890000Y-117286918D01*
X168961796Y-117113587D01*
X169040000Y-116720430D01*
X169040000Y-116319570D01*
X168961796Y-115926413D01*
X168808393Y-115556066D01*
X168585687Y-115222763D01*
X168302237Y-114939313D01*
X167968934Y-114716607D01*
X167598587Y-114563204D01*
X167205430Y-114485000D01*
X166804570Y-114485000D01*
X166411413Y-114563204D01*
X166041066Y-114716607D01*
X165707763Y-114939313D01*
X165424313Y-115222763D01*
X165201607Y-115556066D01*
X165048204Y-115926413D01*
X164970000Y-116319570D01*
X164445000Y-116319570D01*
X164445000Y-112940447D01*
X165764158Y-112940447D01*
X165908135Y-113245770D01*
X166265892Y-113426597D01*
X166652053Y-113534155D01*
X167051777Y-113564310D01*
X167449704Y-113515904D01*
X167830540Y-113390795D01*
X168101865Y-113245770D01*
X168245842Y-112940447D01*
X167005000Y-111699605D01*
X165764158Y-112940447D01*
X164445000Y-112940447D01*
X164445000Y-111745792D01*
X164988161Y-111202631D01*
X164960690Y-111566777D01*
X165009096Y-111964704D01*
X165134205Y-112345540D01*
X165279230Y-112616865D01*
X165584553Y-112760842D01*
X166825395Y-111520000D01*
X167184605Y-111520000D01*
X168425447Y-112760842D01*
X168730770Y-112616865D01*
X168911597Y-112259108D01*
X169019155Y-111872947D01*
X169049310Y-111473223D01*
X169000904Y-111075296D01*
X168875795Y-110694460D01*
X168730770Y-110423135D01*
X168425447Y-110279158D01*
X167184605Y-111520000D01*
X166825395Y-111520000D01*
X166811253Y-111505858D01*
X166990858Y-111326253D01*
X167005000Y-111340395D01*
X168245842Y-110099553D01*
X168101865Y-109794230D01*
X167744108Y-109613403D01*
X167357947Y-109505845D01*
X166958223Y-109475690D01*
X166681432Y-109509360D01*
X167795604Y-108395189D01*
X167968934Y-108323393D01*
X168302237Y-108100687D01*
X168585687Y-107817237D01*
X168808393Y-107483934D01*
X168961796Y-107113587D01*
X169040000Y-106720430D01*
X169040000Y-106319570D01*
X168961796Y-105926413D01*
X168808393Y-105556066D01*
X168585687Y-105222763D01*
X168302237Y-104939313D01*
X167968934Y-104716607D01*
X167598587Y-104563204D01*
X167205430Y-104485000D01*
X166804570Y-104485000D01*
X166411413Y-104563204D01*
X166041066Y-104716607D01*
X165707763Y-104939313D01*
X165424313Y-105222763D01*
X165201607Y-105556066D01*
X165129811Y-105729396D01*
X161292577Y-109566631D01*
X161220656Y-109625655D01*
X161161631Y-109697577D01*
X161161628Y-109697580D01*
X160985098Y-109912683D01*
X160810062Y-110240152D01*
X160702275Y-110595476D01*
X160665881Y-110965000D01*
X159410000Y-110965000D01*
X159410000Y-94615000D01*
X160665881Y-94615000D01*
X160675000Y-94707590D01*
X160675001Y-96982401D01*
X160665881Y-97075000D01*
X160702275Y-97444524D01*
X160810062Y-97799848D01*
X160985098Y-98127317D01*
X161161628Y-98342420D01*
X161161631Y-98342423D01*
X161220656Y-98414345D01*
X161292577Y-98473369D01*
X165129811Y-102310604D01*
X165201607Y-102483934D01*
X165424313Y-102817237D01*
X165707763Y-103100687D01*
X166041066Y-103323393D01*
X166411413Y-103476796D01*
X166804570Y-103555000D01*
X167205430Y-103555000D01*
X167598587Y-103476796D01*
X167968934Y-103323393D01*
X168302237Y-103100687D01*
X168585687Y-102817237D01*
X168808393Y-102483934D01*
X168961796Y-102113587D01*
X169040000Y-101720430D01*
X169040000Y-101319570D01*
X168961796Y-100926413D01*
X168808393Y-100556066D01*
X168585687Y-100222763D01*
X168302237Y-99939313D01*
X167968934Y-99716607D01*
X167795604Y-99644811D01*
X166708865Y-98558072D01*
X168405000Y-98558072D01*
X168529482Y-98545812D01*
X168649180Y-98509502D01*
X168759494Y-98450537D01*
X168856185Y-98371185D01*
X168903952Y-98312980D01*
X256076626Y-98312980D01*
X256196514Y-98597836D01*
X256520210Y-98758699D01*
X256869069Y-98853322D01*
X257229684Y-98878067D01*
X257588198Y-98831985D01*
X257930833Y-98716846D01*
X258153486Y-98597836D01*
X258273374Y-98312980D01*
X257175000Y-97214605D01*
X256076626Y-98312980D01*
X168903952Y-98312980D01*
X168935537Y-98274494D01*
X168994502Y-98164180D01*
X169030812Y-98044482D01*
X169043072Y-97920000D01*
X169043072Y-97089684D01*
X255331933Y-97089684D01*
X255378015Y-97448198D01*
X255493154Y-97790833D01*
X255612164Y-98013486D01*
X255897020Y-98133374D01*
X256995395Y-97035000D01*
X257354605Y-97035000D01*
X258452980Y-98133374D01*
X258737836Y-98013486D01*
X258898699Y-97689790D01*
X258993322Y-97340931D01*
X259018067Y-96980316D01*
X258971985Y-96621802D01*
X258856846Y-96279167D01*
X258737836Y-96056514D01*
X258452980Y-95936626D01*
X257354605Y-97035000D01*
X256995395Y-97035000D01*
X255897020Y-95936626D01*
X255612164Y-96056514D01*
X255451301Y-96380210D01*
X255356678Y-96729069D01*
X255331933Y-97089684D01*
X169043072Y-97089684D01*
X169043072Y-95877720D01*
X169163772Y-95757020D01*
X256076626Y-95757020D01*
X257175000Y-96855395D01*
X258273374Y-95757020D01*
X258153486Y-95472164D01*
X257829790Y-95311301D01*
X257480931Y-95216678D01*
X257120316Y-95191933D01*
X256761802Y-95238015D01*
X256419167Y-95353154D01*
X256196514Y-95472164D01*
X256076626Y-95757020D01*
X169163772Y-95757020D01*
X172322812Y-92597980D01*
X196386626Y-92597980D01*
X196506514Y-92882836D01*
X196830210Y-93043699D01*
X197179069Y-93138322D01*
X197539684Y-93163067D01*
X197898198Y-93116985D01*
X198240833Y-93001846D01*
X198463486Y-92882836D01*
X198583374Y-92597980D01*
X216071626Y-92597980D01*
X216191514Y-92882836D01*
X216515210Y-93043699D01*
X216864069Y-93138322D01*
X217224684Y-93163067D01*
X217583198Y-93116985D01*
X217925833Y-93001846D01*
X218148486Y-92882836D01*
X218268374Y-92597980D01*
X236391626Y-92597980D01*
X236511514Y-92882836D01*
X236835210Y-93043699D01*
X237184069Y-93138322D01*
X237544684Y-93163067D01*
X237903198Y-93116985D01*
X238245833Y-93001846D01*
X238468486Y-92882836D01*
X238588374Y-92597980D01*
X237490000Y-91499605D01*
X236391626Y-92597980D01*
X218268374Y-92597980D01*
X217170000Y-91499605D01*
X216071626Y-92597980D01*
X198583374Y-92597980D01*
X197485000Y-91499605D01*
X196386626Y-92597980D01*
X172322812Y-92597980D01*
X173187947Y-91732845D01*
X175781761Y-91732845D01*
X175949802Y-92058643D01*
X176341607Y-92259426D01*
X176765055Y-92379914D01*
X177203873Y-92415476D01*
X177641197Y-92364746D01*
X178060221Y-92229674D01*
X178380198Y-92058643D01*
X178548239Y-91732845D01*
X177165000Y-90349605D01*
X175781761Y-91732845D01*
X173187947Y-91732845D01*
X174937832Y-89982961D01*
X174919524Y-90208873D01*
X174970254Y-90646197D01*
X175105326Y-91065221D01*
X175276357Y-91385198D01*
X175602155Y-91553239D01*
X176985395Y-90170000D01*
X177344605Y-90170000D01*
X178727845Y-91553239D01*
X179053643Y-91385198D01*
X179059030Y-91374684D01*
X195641933Y-91374684D01*
X195688015Y-91733198D01*
X195803154Y-92075833D01*
X195922164Y-92298486D01*
X196207020Y-92418374D01*
X197305395Y-91320000D01*
X197664605Y-91320000D01*
X198762980Y-92418374D01*
X199047836Y-92298486D01*
X199208699Y-91974790D01*
X199303322Y-91625931D01*
X199320562Y-91374684D01*
X215326933Y-91374684D01*
X215373015Y-91733198D01*
X215488154Y-92075833D01*
X215607164Y-92298486D01*
X215892020Y-92418374D01*
X216990395Y-91320000D01*
X217349605Y-91320000D01*
X218447980Y-92418374D01*
X218732836Y-92298486D01*
X218893699Y-91974790D01*
X218988322Y-91625931D01*
X219005562Y-91374684D01*
X235646933Y-91374684D01*
X235693015Y-91733198D01*
X235808154Y-92075833D01*
X235927164Y-92298486D01*
X236212020Y-92418374D01*
X237310395Y-91320000D01*
X237669605Y-91320000D01*
X238767980Y-92418374D01*
X239052836Y-92298486D01*
X239213699Y-91974790D01*
X239308322Y-91625931D01*
X239333067Y-91265316D01*
X239286985Y-90906802D01*
X239171846Y-90564167D01*
X239052836Y-90341514D01*
X238767980Y-90221626D01*
X237669605Y-91320000D01*
X237310395Y-91320000D01*
X236212020Y-90221626D01*
X235927164Y-90341514D01*
X235766301Y-90665210D01*
X235671678Y-91014069D01*
X235646933Y-91374684D01*
X219005562Y-91374684D01*
X219013067Y-91265316D01*
X218966985Y-90906802D01*
X218851846Y-90564167D01*
X218732836Y-90341514D01*
X218447980Y-90221626D01*
X217349605Y-91320000D01*
X216990395Y-91320000D01*
X215892020Y-90221626D01*
X215607164Y-90341514D01*
X215446301Y-90665210D01*
X215351678Y-91014069D01*
X215326933Y-91374684D01*
X199320562Y-91374684D01*
X199328067Y-91265316D01*
X199281985Y-90906802D01*
X199166846Y-90564167D01*
X199047836Y-90341514D01*
X198762980Y-90221626D01*
X197664605Y-91320000D01*
X197305395Y-91320000D01*
X196207020Y-90221626D01*
X195922164Y-90341514D01*
X195761301Y-90665210D01*
X195666678Y-91014069D01*
X195641933Y-91374684D01*
X179059030Y-91374684D01*
X179254426Y-90993393D01*
X179374914Y-90569945D01*
X179410476Y-90131127D01*
X179400140Y-90042020D01*
X196386626Y-90042020D01*
X197485000Y-91140395D01*
X198583374Y-90042020D01*
X216071626Y-90042020D01*
X217170000Y-91140395D01*
X218268374Y-90042020D01*
X236391626Y-90042020D01*
X237490000Y-91140395D01*
X238588374Y-90042020D01*
X238468486Y-89757164D01*
X238144790Y-89596301D01*
X237795931Y-89501678D01*
X237435316Y-89476933D01*
X237076802Y-89523015D01*
X236734167Y-89638154D01*
X236511514Y-89757164D01*
X236391626Y-90042020D01*
X218268374Y-90042020D01*
X218148486Y-89757164D01*
X217824790Y-89596301D01*
X217475931Y-89501678D01*
X217115316Y-89476933D01*
X216756802Y-89523015D01*
X216414167Y-89638154D01*
X216191514Y-89757164D01*
X216071626Y-90042020D01*
X198583374Y-90042020D01*
X198463486Y-89757164D01*
X198139790Y-89596301D01*
X197790931Y-89501678D01*
X197430316Y-89476933D01*
X197071802Y-89523015D01*
X196729167Y-89638154D01*
X196506514Y-89757164D01*
X196386626Y-90042020D01*
X179400140Y-90042020D01*
X179359746Y-89693803D01*
X179224674Y-89274779D01*
X179053643Y-88954802D01*
X178727845Y-88786761D01*
X177344605Y-90170000D01*
X176985395Y-90170000D01*
X176971252Y-90155858D01*
X177150858Y-89976252D01*
X177165000Y-89990395D01*
X178548239Y-88607155D01*
X178380198Y-88281357D01*
X177988393Y-88080574D01*
X177564945Y-87960086D01*
X177126127Y-87924524D01*
X176979228Y-87941564D01*
X177648102Y-87272691D01*
X177816925Y-87239110D01*
X178223669Y-87070631D01*
X178589729Y-86826038D01*
X178901038Y-86514729D01*
X179145631Y-86148669D01*
X179314110Y-85741925D01*
X179400000Y-85310128D01*
X179400000Y-84869872D01*
X179314110Y-84438075D01*
X179145631Y-84031331D01*
X178901038Y-83665271D01*
X178589729Y-83353962D01*
X178223669Y-83109369D01*
X177816925Y-82940890D01*
X177385128Y-82855000D01*
X176985793Y-82855000D01*
X177648102Y-82192691D01*
X177816925Y-82159110D01*
X178223669Y-81990631D01*
X178589729Y-81746038D01*
X178901038Y-81434729D01*
X179145631Y-81068669D01*
X179314110Y-80661925D01*
X179400000Y-80230128D01*
X179400000Y-79789872D01*
X179314110Y-79358075D01*
X179145631Y-78951331D01*
X178901038Y-78585271D01*
X178589729Y-78273962D01*
X178223669Y-78029369D01*
X177816925Y-77860890D01*
X177385128Y-77775000D01*
X176944872Y-77775000D01*
X176513075Y-77860890D01*
X176106331Y-78029369D01*
X175740271Y-78273962D01*
X175428962Y-78585271D01*
X175184369Y-78951331D01*
X175015890Y-79358075D01*
X174982309Y-79526898D01*
X161292582Y-93216626D01*
X161220655Y-93275655D01*
X160985097Y-93562683D01*
X160810061Y-93890153D01*
X160702275Y-94245477D01*
X160675000Y-94522404D01*
X160675000Y-94522411D01*
X160665881Y-94615000D01*
X159410000Y-94615000D01*
X159410000Y-74074872D01*
X163500000Y-74074872D01*
X163500000Y-74515128D01*
X163585890Y-74946925D01*
X163754369Y-75353669D01*
X163998962Y-75719729D01*
X164310271Y-76031038D01*
X164676331Y-76275631D01*
X165083075Y-76444110D01*
X165514872Y-76530000D01*
X165955128Y-76530000D01*
X166386925Y-76444110D01*
X166793669Y-76275631D01*
X167159729Y-76031038D01*
X167471038Y-75719729D01*
X167715631Y-75353669D01*
X167884110Y-74946925D01*
X167970000Y-74515128D01*
X167970000Y-74074872D01*
X167884110Y-73643075D01*
X167715631Y-73236331D01*
X167471038Y-72870271D01*
X167159729Y-72558962D01*
X166793669Y-72314369D01*
X166386925Y-72145890D01*
X165955128Y-72060000D01*
X165514872Y-72060000D01*
X165083075Y-72145890D01*
X164676331Y-72314369D01*
X164310271Y-72558962D01*
X163998962Y-72870271D01*
X163754369Y-73236331D01*
X163585890Y-73643075D01*
X163500000Y-74074872D01*
X159410000Y-74074872D01*
X159410000Y-67970000D01*
X297790001Y-67970000D01*
X297790000Y-145390000D01*
G37*
%TD.AperFunction*%
%TD*%
M02*
