%TF.GenerationSoftware,KiCad,Pcbnew,7.0.2*%
%TF.CreationDate,2023-05-23T13:36:19-04:00*%
%TF.ProjectId,SSI2130_Oscillator,53534932-3133-4305-9f4f-7363696c6c61,rev?*%
%TF.SameCoordinates,Original*%
%TF.FileFunction,Copper,L4,Bot*%
%TF.FilePolarity,Positive*%
%FSLAX46Y46*%
G04 Gerber Fmt 4.6, Leading zero omitted, Abs format (unit mm)*
G04 Created by KiCad (PCBNEW 7.0.2) date 2023-05-23 13:36:19*
%MOMM*%
%LPD*%
G01*
G04 APERTURE LIST*
G04 Aperture macros list*
%AMRoundRect*
0 Rectangle with rounded corners*
0 $1 Rounding radius*
0 $2 $3 $4 $5 $6 $7 $8 $9 X,Y pos of 4 corners*
0 Add a 4 corners polygon primitive as box body*
4,1,4,$2,$3,$4,$5,$6,$7,$8,$9,$2,$3,0*
0 Add four circle primitives for the rounded corners*
1,1,$1+$1,$2,$3*
1,1,$1+$1,$4,$5*
1,1,$1+$1,$6,$7*
1,1,$1+$1,$8,$9*
0 Add four rect primitives between the rounded corners*
20,1,$1+$1,$2,$3,$4,$5,0*
20,1,$1+$1,$4,$5,$6,$7,0*
20,1,$1+$1,$6,$7,$8,$9,0*
20,1,$1+$1,$8,$9,$2,$3,0*%
G04 Aperture macros list end*
%TA.AperFunction,SMDPad,CuDef*%
%ADD10RoundRect,0.225000X-0.225000X-0.250000X0.225000X-0.250000X0.225000X0.250000X-0.225000X0.250000X0*%
%TD*%
%TA.AperFunction,ComponentPad*%
%ADD11R,1.600000X1.600000*%
%TD*%
%TA.AperFunction,ComponentPad*%
%ADD12O,1.600000X1.600000*%
%TD*%
%TA.AperFunction,SMDPad,CuDef*%
%ADD13RoundRect,0.250000X-0.550000X1.050000X-0.550000X-1.050000X0.550000X-1.050000X0.550000X1.050000X0*%
%TD*%
%TA.AperFunction,SMDPad,CuDef*%
%ADD14RoundRect,0.225000X0.225000X0.250000X-0.225000X0.250000X-0.225000X-0.250000X0.225000X-0.250000X0*%
%TD*%
%TA.AperFunction,SMDPad,CuDef*%
%ADD15RoundRect,0.225000X-0.250000X0.225000X-0.250000X-0.225000X0.250000X-0.225000X0.250000X0.225000X0*%
%TD*%
%TA.AperFunction,SMDPad,CuDef*%
%ADD16R,0.900000X1.200000*%
%TD*%
%TA.AperFunction,ComponentPad*%
%ADD17R,1.200000X1.200000*%
%TD*%
%TA.AperFunction,ComponentPad*%
%ADD18C,1.200000*%
%TD*%
%TA.AperFunction,ComponentPad*%
%ADD19O,2.500000X4.000000*%
%TD*%
%TA.AperFunction,SMDPad,CuDef*%
%ADD20R,0.800000X0.900000*%
%TD*%
%TA.AperFunction,SMDPad,CuDef*%
%ADD21R,0.900000X0.800000*%
%TD*%
%TA.AperFunction,SMDPad,CuDef*%
%ADD22RoundRect,0.200000X-0.200000X-0.275000X0.200000X-0.275000X0.200000X0.275000X-0.200000X0.275000X0*%
%TD*%
%TA.AperFunction,SMDPad,CuDef*%
%ADD23RoundRect,0.200000X0.200000X0.275000X-0.200000X0.275000X-0.200000X-0.275000X0.200000X-0.275000X0*%
%TD*%
%TA.AperFunction,SMDPad,CuDef*%
%ADD24RoundRect,0.200000X-0.275000X0.200000X-0.275000X-0.200000X0.275000X-0.200000X0.275000X0.200000X0*%
%TD*%
%TA.AperFunction,SMDPad,CuDef*%
%ADD25RoundRect,0.200000X0.275000X-0.200000X0.275000X0.200000X-0.275000X0.200000X-0.275000X-0.200000X0*%
%TD*%
%TA.AperFunction,ComponentPad*%
%ADD26C,1.440000*%
%TD*%
%TA.AperFunction,ComponentPad*%
%ADD27O,2.720000X3.240000*%
%TD*%
%TA.AperFunction,ComponentPad*%
%ADD28C,1.800000*%
%TD*%
%TA.AperFunction,ComponentPad*%
%ADD29R,1.800000X1.800000*%
%TD*%
%TA.AperFunction,SMDPad,CuDef*%
%ADD30RoundRect,0.150000X-0.825000X-0.150000X0.825000X-0.150000X0.825000X0.150000X-0.825000X0.150000X0*%
%TD*%
%TA.AperFunction,SMDPad,CuDef*%
%ADD31RoundRect,0.150000X-0.150000X0.825000X-0.150000X-0.825000X0.150000X-0.825000X0.150000X0.825000X0*%
%TD*%
%TA.AperFunction,SMDPad,CuDef*%
%ADD32R,2.900000X2.900000*%
%TD*%
%TA.AperFunction,SMDPad,CuDef*%
%ADD33RoundRect,0.050000X-0.050000X-0.300000X0.050000X-0.300000X0.050000X0.300000X-0.050000X0.300000X0*%
%TD*%
%TA.AperFunction,SMDPad,CuDef*%
%ADD34RoundRect,0.050000X-0.300000X-0.050000X0.300000X-0.050000X0.300000X0.050000X-0.300000X0.050000X0*%
%TD*%
%TA.AperFunction,SMDPad,CuDef*%
%ADD35R,1.200000X0.900000*%
%TD*%
%TA.AperFunction,ComponentPad*%
%ADD36C,1.400000*%
%TD*%
%TA.AperFunction,ComponentPad*%
%ADD37C,3.000000*%
%TD*%
%TA.AperFunction,ComponentPad*%
%ADD38RoundRect,0.250000X-0.600000X-0.600000X0.600000X-0.600000X0.600000X0.600000X-0.600000X0.600000X0*%
%TD*%
%TA.AperFunction,ComponentPad*%
%ADD39C,1.700000*%
%TD*%
%TA.AperFunction,SMDPad,CuDef*%
%ADD40RoundRect,0.225000X0.250000X-0.225000X0.250000X0.225000X-0.250000X0.225000X-0.250000X-0.225000X0*%
%TD*%
%TA.AperFunction,ViaPad*%
%ADD41C,0.800000*%
%TD*%
%TA.AperFunction,ViaPad*%
%ADD42C,1.000000*%
%TD*%
%TA.AperFunction,Conductor*%
%ADD43C,0.250000*%
%TD*%
%TA.AperFunction,Conductor*%
%ADD44C,1.000000*%
%TD*%
%TA.AperFunction,Conductor*%
%ADD45C,0.200000*%
%TD*%
%TA.AperFunction,Conductor*%
%ADD46C,0.750000*%
%TD*%
%TA.AperFunction,Conductor*%
%ADD47C,0.400000*%
%TD*%
G04 APERTURE END LIST*
D10*
%TO.P,C35,2*%
%TO.N,Net-(C35-Pad2)*%
X49048000Y-71628000D03*
%TO.P,C35,1*%
%TO.N,Net-(C35-Pad1)*%
X47498000Y-71628000D03*
%TD*%
D11*
%TO.P,A1,1*%
%TO.N,Net-(A1-Pad1)*%
X80518000Y-29210000D03*
D12*
%TO.P,A1,17*%
%TO.N,Net-(A1-Pad17)*%
X65278000Y-62230000D03*
%TO.P,A1,2*%
%TO.N,Net-(A1-Pad2)*%
X80518000Y-31750000D03*
%TO.P,A1,18*%
%TO.N,Net-(A1-Pad18)*%
X65278000Y-59690000D03*
%TO.P,A1,3*%
%TO.N,Net-(A1-Pad3)*%
X80518000Y-34290000D03*
%TO.P,A1,19*%
%TO.N,Net-(A1-Pad19)*%
X65278000Y-57150000D03*
%TO.P,A1,4*%
%TO.N,GND*%
X80518000Y-36830000D03*
%TO.P,A1,20*%
%TO.N,Net-(A1-Pad20)*%
X65278000Y-54610000D03*
%TO.P,A1,5*%
%TO.N,Net-(A1-Pad5)*%
X80518000Y-39370000D03*
%TO.P,A1,21*%
%TO.N,Net-(A1-Pad21)*%
X65278000Y-52070000D03*
%TO.P,A1,6*%
%TO.N,Net-(A1-Pad6)*%
X80518000Y-41910000D03*
%TO.P,A1,22*%
%TO.N,Net-(A1-Pad22)*%
X65278000Y-49530000D03*
%TO.P,A1,7*%
%TO.N,Net-(A1-Pad7)*%
X80518000Y-44450000D03*
%TO.P,A1,23*%
%TO.N,Net-(A1-Pad23)*%
X65278000Y-46990000D03*
%TO.P,A1,8*%
%TO.N,Net-(A1-Pad8)*%
X80518000Y-46990000D03*
%TO.P,A1,24*%
%TO.N,Net-(A1-Pad24)*%
X65278000Y-44450000D03*
%TO.P,A1,9*%
%TO.N,Net-(A1-Pad9)*%
X80518000Y-49530000D03*
%TO.P,A1,25*%
%TO.N,Net-(A1-Pad25)*%
X65278000Y-41910000D03*
%TO.P,A1,10*%
%TO.N,Net-(A1-Pad10)*%
X80518000Y-52070000D03*
%TO.P,A1,26*%
%TO.N,Net-(A1-Pad26)*%
X65278000Y-39370000D03*
%TO.P,A1,11*%
%TO.N,Net-(A1-Pad11)*%
X80518000Y-54610000D03*
%TO.P,A1,27*%
%TO.N,Net-(A1-Pad27)*%
X65278000Y-36830000D03*
%TO.P,A1,12*%
%TO.N,Net-(A1-Pad12)*%
X80518000Y-57150000D03*
%TO.P,A1,28*%
%TO.N,Net-(A1-Pad28)*%
X65278000Y-34290000D03*
%TO.P,A1,13*%
%TO.N,Net-(A1-Pad13)*%
X80518000Y-59690000D03*
%TO.P,A1,29*%
%TO.N,GND*%
X65278000Y-31750000D03*
%TO.P,A1,14*%
%TO.N,Net-(A1-Pad14)*%
X80518000Y-62230000D03*
%TO.P,A1,30*%
%TO.N,ARDUINOPOWER*%
X65278000Y-29210000D03*
%TO.P,A1,15*%
%TO.N,Net-(A1-Pad15)*%
X80518000Y-64770000D03*
%TO.P,A1,16*%
%TO.N,Net-(A1-Pad16)*%
X65278000Y-64770000D03*
%TD*%
D13*
%TO.P,C2,1*%
%TO.N,ARDUINOPOWER*%
X100584000Y-70822000D03*
%TO.P,C2,2*%
%TO.N,GND*%
X100584000Y-74422000D03*
%TD*%
%TO.P,C3,1*%
%TO.N,+12V*%
X100330000Y-83544000D03*
%TO.P,C3,2*%
%TO.N,GND*%
X100330000Y-87144000D03*
%TD*%
%TO.P,C4,2*%
%TO.N,-12V*%
X93980000Y-80562000D03*
%TO.P,C4,1*%
%TO.N,GND*%
X93980000Y-76962000D03*
%TD*%
D14*
%TO.P,C5,1*%
%TO.N,+12V*%
X88646000Y-79502000D03*
%TO.P,C5,2*%
%TO.N,GND*%
X87096000Y-79502000D03*
%TD*%
D10*
%TO.P,C6,2*%
%TO.N,-12V*%
X85357000Y-70866000D03*
%TO.P,C6,1*%
%TO.N,GND*%
X83807000Y-70866000D03*
%TD*%
D14*
%TO.P,C7,1*%
%TO.N,Net-(C7-Pad1)*%
X77470000Y-78740000D03*
%TO.P,C7,2*%
%TO.N,Net-(C7-Pad2)*%
X75920000Y-78740000D03*
%TD*%
D10*
%TO.P,C8,2*%
%TO.N,GND*%
X75692000Y-122936000D03*
%TO.P,C8,1*%
%TO.N,+12V*%
X74142000Y-122936000D03*
%TD*%
D14*
%TO.P,C9,2*%
%TO.N,-12V*%
X68834000Y-122936000D03*
%TO.P,C9,1*%
%TO.N,GND*%
X70384000Y-122936000D03*
%TD*%
%TO.P,C10,1*%
%TO.N,Net-(C10-Pad1)*%
X81052000Y-76200000D03*
%TO.P,C10,2*%
%TO.N,Net-(C10-Pad2)*%
X79502000Y-76200000D03*
%TD*%
%TO.P,C11,2*%
%TO.N,Net-(C11-Pad2)*%
X83794000Y-65278000D03*
%TO.P,C11,1*%
%TO.N,TIME_REVERSE*%
X85344000Y-65278000D03*
%TD*%
D10*
%TO.P,C12,1*%
%TO.N,+5V*%
X74155000Y-113030000D03*
%TO.P,C12,2*%
%TO.N,GND*%
X75705000Y-113030000D03*
%TD*%
D14*
%TO.P,C13,1*%
%TO.N,GND*%
X67844000Y-113030000D03*
%TO.P,C13,2*%
%TO.N,-5V*%
X66294000Y-113030000D03*
%TD*%
%TO.P,C14,2*%
%TO.N,GND*%
X84074000Y-105156000D03*
%TO.P,C14,1*%
%TO.N,Net-(C14-Pad1)*%
X85624000Y-105156000D03*
%TD*%
D13*
%TO.P,C15,2*%
%TO.N,GND*%
X80264000Y-110236000D03*
%TO.P,C15,1*%
%TO.N,Net-(C14-Pad1)*%
X80264000Y-106636000D03*
%TD*%
D10*
%TO.P,C16,1*%
%TO.N,GND*%
X64236000Y-76200000D03*
%TO.P,C16,2*%
%TO.N,+12V*%
X65786000Y-76200000D03*
%TD*%
D14*
%TO.P,C17,1*%
%TO.N,GND*%
X77470000Y-76200000D03*
%TO.P,C17,2*%
%TO.N,-12V*%
X75920000Y-76200000D03*
%TD*%
D10*
%TO.P,C18,1*%
%TO.N,GND*%
X39344000Y-78740000D03*
%TO.P,C18,2*%
%TO.N,+12V*%
X40894000Y-78740000D03*
%TD*%
D14*
%TO.P,C19,2*%
%TO.N,-12V*%
X51536000Y-78740000D03*
%TO.P,C19,1*%
%TO.N,GND*%
X53086000Y-78740000D03*
%TD*%
%TO.P,C20,1*%
%TO.N,Net-(C20-Pad1)*%
X65812000Y-84582000D03*
%TO.P,C20,2*%
%TO.N,Net-(C20-Pad2)*%
X64262000Y-84582000D03*
%TD*%
%TO.P,C21,1*%
%TO.N,Net-(C21-Pad1)*%
X37338000Y-46990000D03*
%TO.P,C21,2*%
%TO.N,SOFT_SYNC*%
X35788000Y-46990000D03*
%TD*%
D15*
%TO.P,C22,2*%
%TO.N,Net-(C22-Pad2)*%
X82804000Y-94247000D03*
%TO.P,C22,1*%
%TO.N,GND*%
X82804000Y-92697000D03*
%TD*%
D10*
%TO.P,C23,2*%
%TO.N,HARD_SYNC*%
X37338000Y-59182000D03*
%TO.P,C23,1*%
%TO.N,Net-(C23-Pad1)*%
X35788000Y-59182000D03*
%TD*%
%TO.P,C24,2*%
%TO.N,+12V*%
X64770000Y-100330000D03*
%TO.P,C24,1*%
%TO.N,GND*%
X63220000Y-100330000D03*
%TD*%
D14*
%TO.P,C25,1*%
%TO.N,GND*%
X76734000Y-100076000D03*
%TO.P,C25,2*%
%TO.N,-12V*%
X75184000Y-100076000D03*
%TD*%
%TO.P,C26,1*%
%TO.N,Net-(C26-Pad1)*%
X66828000Y-90170000D03*
%TO.P,C26,2*%
%TO.N,GND*%
X65278000Y-90170000D03*
%TD*%
D10*
%TO.P,C27,2*%
%TO.N,+12V*%
X85598000Y-102362000D03*
%TO.P,C27,1*%
%TO.N,GND*%
X84048000Y-102362000D03*
%TD*%
D14*
%TO.P,C28,2*%
%TO.N,-12V*%
X95758000Y-101092000D03*
%TO.P,C28,1*%
%TO.N,GND*%
X97308000Y-101092000D03*
%TD*%
D15*
%TO.P,C31,2*%
%TO.N,GND*%
X76708000Y-94234000D03*
%TO.P,C31,1*%
%TO.N,+5V*%
X76708000Y-92684000D03*
%TD*%
D14*
%TO.P,C34,1*%
%TO.N,-5V*%
X64770000Y-93472000D03*
%TO.P,C34,2*%
%TO.N,GND*%
X63220000Y-93472000D03*
%TD*%
%TO.P,C36,2*%
%TO.N,Net-(C36-Pad2)*%
X63220000Y-106426000D03*
%TO.P,C36,1*%
%TO.N,Net-(C36-Pad1)*%
X64770000Y-106426000D03*
%TD*%
D10*
%TO.P,C37,1*%
%TO.N,PWM+*%
X79730000Y-97028000D03*
%TO.P,C37,2*%
%TO.N,Net-(C37-Pad2)*%
X81280000Y-97028000D03*
%TD*%
%TO.P,C38,2*%
%TO.N,SQO*%
X97308000Y-95504000D03*
%TO.P,C38,1*%
%TO.N,TUNER_SIGNAL*%
X95758000Y-95504000D03*
%TD*%
%TO.P,C39,1*%
%TO.N,Net-(C39-Pad1)*%
X95732000Y-107188000D03*
%TO.P,C39,2*%
%TO.N,MIXO*%
X97282000Y-107188000D03*
%TD*%
D16*
%TO.P,D1,2*%
%TO.N,Net-(D1-Pad2)*%
X102360000Y-66294000D03*
%TO.P,D1,1*%
%TO.N,ARDUINOPOWER*%
X99060000Y-66294000D03*
%TD*%
%TO.P,D2,1*%
%TO.N,+12V*%
X98808000Y-78994000D03*
%TO.P,D2,2*%
%TO.N,Net-(D2-Pad2)*%
X102108000Y-78994000D03*
%TD*%
%TO.P,D3,2*%
%TO.N,-12V*%
X98806000Y-91440000D03*
%TO.P,D3,1*%
%TO.N,Net-(D3-Pad1)*%
X102106000Y-91440000D03*
%TD*%
D17*
%TO.P,DS1,1*%
%TO.N,GND*%
X106680000Y-30734000D03*
D18*
%TO.P,DS1,2*%
%TO.N,F*%
X106680000Y-33274000D03*
%TO.P,DS1,3*%
%TO.N,G*%
X106680000Y-35814000D03*
%TO.P,DS1,4*%
%TO.N,E*%
X106680000Y-38354000D03*
%TO.P,DS1,5*%
%TO.N,D*%
X106680000Y-40894000D03*
%TO.P,DS1,6*%
%TO.N,GND*%
X111760000Y-40894000D03*
%TO.P,DS1,7*%
%TO.N,DP*%
X111760000Y-38354000D03*
%TO.P,DS1,8*%
%TO.N,C*%
X111760000Y-35814000D03*
%TO.P,DS1,9*%
%TO.N,B*%
X111760000Y-33274000D03*
%TO.P,DS1,10*%
%TO.N,A*%
X111760000Y-30734000D03*
%TD*%
D19*
%TO.P,J2,3*%
%TO.N,Net-(J2-Pad3)*%
X32186000Y-119380000D03*
%TO.P,J2,2*%
%TO.N,Net-(J2-Pad2)*%
X40386000Y-119380000D03*
%TO.P,J2,1*%
%TO.N,GND*%
X43386000Y-119380000D03*
%TD*%
%TO.P,J3,3*%
%TO.N,Net-(J3-Pad3)*%
X32186000Y-69088000D03*
%TO.P,J3,2*%
%TO.N,Net-(J3-Pad2)*%
X40386000Y-69088000D03*
%TO.P,J3,1*%
%TO.N,GND*%
X43386000Y-69088000D03*
%TD*%
%TO.P,J4,1*%
%TO.N,GND*%
X43386000Y-86106000D03*
%TO.P,J4,2*%
%TO.N,Net-(J4-Pad2)*%
X40386000Y-86106000D03*
%TO.P,J4,3*%
%TO.N,Net-(J4-Pad3)*%
X32186000Y-86106000D03*
%TD*%
%TO.P,J5,1*%
%TO.N,GND*%
X43386000Y-108458000D03*
%TO.P,J5,2*%
%TO.N,Net-(C1-Pad1)*%
X40386000Y-108458000D03*
%TO.P,J5,3*%
%TO.N,Net-(J5-Pad3)*%
X32186000Y-108458000D03*
%TD*%
%TO.P,J6,3*%
%TO.N,Net-(C1-Pad2)*%
X32186000Y-97282000D03*
%TO.P,J6,2*%
%TO.N,Net-(J6-Pad2)*%
X40386000Y-97282000D03*
%TO.P,J6,1*%
%TO.N,GND*%
X43386000Y-97282000D03*
%TD*%
%TO.P,J7,1*%
%TO.N,GND*%
X100378000Y-109474000D03*
%TO.P,J7,2*%
%TO.N,Net-(J7-Pad2)*%
X103378000Y-109474000D03*
%TO.P,J7,3*%
%TO.N,SIN_OUT*%
X111578000Y-109474000D03*
%TD*%
%TO.P,J8,3*%
%TO.N,SQUARE_OUT*%
X111578000Y-99060000D03*
%TO.P,J8,2*%
%TO.N,Net-(J8-Pad2)*%
X103378000Y-99060000D03*
%TO.P,J8,1*%
%TO.N,GND*%
X100378000Y-99060000D03*
%TD*%
%TO.P,J9,1*%
%TO.N,GND*%
X100378000Y-119888000D03*
%TO.P,J9,2*%
%TO.N,Net-(J9-Pad2)*%
X103378000Y-119888000D03*
%TO.P,J9,3*%
%TO.N,MIX_OUT*%
X111578000Y-119888000D03*
%TD*%
%TO.P,J10,3*%
%TO.N,Net-(J10-Pad3)*%
X32186000Y-41402000D03*
%TO.P,J10,2*%
%TO.N,Net-(J10-Pad2)*%
X40386000Y-41402000D03*
%TO.P,J10,1*%
%TO.N,GND*%
X43386000Y-41402000D03*
%TD*%
%TO.P,J11,3*%
%TO.N,Net-(J11-Pad3)*%
X32186000Y-52324000D03*
%TO.P,J11,2*%
%TO.N,Net-(J11-Pad2)*%
X40386000Y-52324000D03*
%TO.P,J11,1*%
%TO.N,GND*%
X43386000Y-52324000D03*
%TD*%
%TO.P,J12,1*%
%TO.N,GND*%
X43386000Y-30480000D03*
%TO.P,J12,2*%
%TO.N,Net-(J12-Pad2)*%
X40386000Y-30480000D03*
%TO.P,J12,3*%
%TO.N,Net-(J12-Pad3)*%
X32186000Y-30480000D03*
%TD*%
D20*
%TO.P,Q1,1*%
%TO.N,TIME_REVERSE*%
X93284000Y-71914000D03*
%TO.P,Q1,2*%
%TO.N,GND*%
X95184000Y-71914000D03*
%TO.P,Q1,3*%
%TO.N,Net-(Q1-Pad3)*%
X94234000Y-73914000D03*
%TD*%
D21*
%TO.P,Q2,1*%
%TO.N,Net-(Q2-Pad1)*%
X76740000Y-90866000D03*
%TO.P,Q2,2*%
%TO.N,Net-(C23-Pad1)*%
X76740000Y-88966000D03*
%TO.P,Q2,3*%
%TO.N,+5V*%
X78740000Y-89916000D03*
%TD*%
D22*
%TO.P,R1,2*%
%TO.N,Net-(C36-Pad2)*%
X59308000Y-114808000D03*
%TO.P,R1,1*%
%TO.N,PWM_CV*%
X57658000Y-114808000D03*
%TD*%
D23*
%TO.P,R2,2*%
%TO.N,Net-(C36-Pad2)*%
X86106000Y-114300000D03*
%TO.P,R2,1*%
%TO.N,PWM_OFFSET*%
X87756000Y-114300000D03*
%TD*%
D22*
%TO.P,R3,1*%
%TO.N,MIX_CV*%
X57341000Y-66548000D03*
%TO.P,R3,2*%
%TO.N,Net-(C20-Pad2)*%
X58991000Y-66548000D03*
%TD*%
D23*
%TO.P,R4,1*%
%TO.N,MIX_OFFSET*%
X93344000Y-66548000D03*
%TO.P,R4,2*%
%TO.N,Net-(C20-Pad2)*%
X91694000Y-66548000D03*
%TD*%
%TO.P,R5,1*%
%TO.N,VREF*%
X77596000Y-84582000D03*
%TO.P,R5,2*%
%TO.N,Net-(C7-Pad2)*%
X75946000Y-84582000D03*
%TD*%
%TO.P,R6,2*%
%TO.N,Net-(C7-Pad2)*%
X86106000Y-85852000D03*
%TO.P,R6,1*%
%TO.N,TZFM_TZPM_IN*%
X87756000Y-85852000D03*
%TD*%
%TO.P,R7,1*%
%TO.N,Net-(C36-Pad2)*%
X64770000Y-103378000D03*
%TO.P,R7,2*%
%TO.N,Net-(C36-Pad1)*%
X63120000Y-103378000D03*
%TD*%
D22*
%TO.P,R8,2*%
%TO.N,Net-(C20-Pad1)*%
X65786000Y-81788000D03*
%TO.P,R8,1*%
%TO.N,Net-(C20-Pad2)*%
X64136000Y-81788000D03*
%TD*%
%TO.P,R9,2*%
%TO.N,Net-(C7-Pad1)*%
X77596000Y-81788000D03*
%TO.P,R9,1*%
%TO.N,Net-(C7-Pad2)*%
X75946000Y-81788000D03*
%TD*%
D24*
%TO.P,R10,2*%
%TO.N,Net-(D6-Pad1)*%
X63246000Y-110236000D03*
%TO.P,R10,1*%
%TO.N,Net-(C36-Pad1)*%
X63246000Y-108586000D03*
%TD*%
D22*
%TO.P,R11,1*%
%TO.N,Net-(C20-Pad1)*%
X64199000Y-87376000D03*
%TO.P,R11,2*%
%TO.N,Net-(D4-Pad2)*%
X65849000Y-87376000D03*
%TD*%
%TO.P,R12,2*%
%TO.N,Net-(C10-Pad2)*%
X81152000Y-81788000D03*
%TO.P,R12,1*%
%TO.N,Net-(C7-Pad1)*%
X79502000Y-81788000D03*
%TD*%
D23*
%TO.P,R13,1*%
%TO.N,Net-(C7-Pad1)*%
X77533000Y-73406000D03*
%TO.P,R13,2*%
%TO.N,Net-(Q1-Pad3)*%
X75883000Y-73406000D03*
%TD*%
D22*
%TO.P,R14,1*%
%TO.N,Net-(C10-Pad2)*%
X79502000Y-73406000D03*
%TO.P,R14,2*%
%TO.N,Net-(C10-Pad1)*%
X81152000Y-73406000D03*
%TD*%
D23*
%TO.P,R15,1*%
%TO.N,Net-(D4-Pad2)*%
X65786000Y-78994000D03*
%TO.P,R15,2*%
%TO.N,Net-(C35-Pad2)*%
X64136000Y-78994000D03*
%TD*%
%TO.P,R16,1*%
%TO.N,GND*%
X85090000Y-79502000D03*
%TO.P,R16,2*%
%TO.N,Net-(R16-Pad2)*%
X83440000Y-79502000D03*
%TD*%
D22*
%TO.P,R17,2*%
%TO.N,Net-(C37-Pad2)*%
X76834000Y-103378000D03*
%TO.P,R17,1*%
%TO.N,Net-(D6-Pad1)*%
X75184000Y-103378000D03*
%TD*%
%TO.P,R18,1*%
%TO.N,Net-(C35-Pad2)*%
X64136000Y-73406000D03*
%TO.P,R18,2*%
%TO.N,Net-(C35-Pad1)*%
X65786000Y-73406000D03*
%TD*%
D23*
%TO.P,R19,2*%
%TO.N,Net-(C10-Pad1)*%
X79502000Y-78740000D03*
%TO.P,R19,1*%
%TO.N,LIN_FREQ*%
X81152000Y-78740000D03*
%TD*%
D22*
%TO.P,R20,1*%
%TO.N,Net-(R16-Pad2)*%
X83694000Y-68072000D03*
%TO.P,R20,2*%
%TO.N,Net-(C11-Pad2)*%
X85344000Y-68072000D03*
%TD*%
D23*
%TO.P,R21,1*%
%TO.N,Net-(C37-Pad2)*%
X76834000Y-106426000D03*
%TO.P,R21,2*%
%TO.N,PWM+*%
X75184000Y-106426000D03*
%TD*%
D22*
%TO.P,R22,2*%
%TO.N,Net-(R22-Pad2)*%
X40894000Y-75946000D03*
%TO.P,R22,1*%
%TO.N,Net-(C35-Pad1)*%
X39244000Y-75946000D03*
%TD*%
%TO.P,R23,1*%
%TO.N,TIME_REVERSE*%
X83694000Y-62484000D03*
%TO.P,R23,2*%
%TO.N,+5V*%
X85344000Y-62484000D03*
%TD*%
D23*
%TO.P,R24,1*%
%TO.N,Net-(R22-Pad2)*%
X36893000Y-73152000D03*
%TO.P,R24,2*%
%TO.N,Net-(D10-Pad2)*%
X35243000Y-73152000D03*
%TD*%
%TO.P,R25,2*%
%TO.N,Net-(D9-Pad2)*%
X39244000Y-73152000D03*
%TO.P,R25,1*%
%TO.N,Net-(R22-Pad2)*%
X40894000Y-73152000D03*
%TD*%
%TO.P,R26,1*%
%TO.N,Net-(R26-Pad1)*%
X36830000Y-75946000D03*
%TO.P,R26,2*%
%TO.N,Net-(C35-Pad1)*%
X35180000Y-75946000D03*
%TD*%
%TO.P,R27,2*%
%TO.N,Net-(D10-Pad1)*%
X60389000Y-79756000D03*
%TO.P,R27,1*%
%TO.N,TRI_MIX*%
X62039000Y-79756000D03*
%TD*%
%TO.P,R28,1*%
%TO.N,Net-(R28-Pad1)*%
X53086000Y-75692000D03*
%TO.P,R28,2*%
%TO.N,Net-(D9-Pad2)*%
X51436000Y-75692000D03*
%TD*%
%TO.P,R29,2*%
%TO.N,-5V*%
X35180000Y-81534000D03*
%TO.P,R29,1*%
%TO.N,Net-(R29-Pad1)*%
X36830000Y-81534000D03*
%TD*%
%TO.P,R30,2*%
%TO.N,Net-(R26-Pad1)*%
X35180000Y-78740000D03*
%TO.P,R30,1*%
%TO.N,GND*%
X36830000Y-78740000D03*
%TD*%
D22*
%TO.P,R31,2*%
%TO.N,Net-(R28-Pad1)*%
X53086000Y-72898000D03*
%TO.P,R31,1*%
%TO.N,Net-(D11-Pad2)*%
X51436000Y-72898000D03*
%TD*%
%TO.P,R32,2*%
%TO.N,Net-(R32-Pad2)*%
X40894000Y-81534000D03*
%TO.P,R32,1*%
%TO.N,Net-(R29-Pad1)*%
X39244000Y-81534000D03*
%TD*%
%TO.P,R33,1*%
%TO.N,Net-(R33-Pad1)*%
X51436000Y-81534000D03*
%TO.P,R33,2*%
%TO.N,Net-(D11-Pad2)*%
X53086000Y-81534000D03*
%TD*%
%TO.P,R34,1*%
%TO.N,Net-(R32-Pad2)*%
X47118000Y-85598000D03*
%TO.P,R34,2*%
%TO.N,Net-(R34-Pad2)*%
X48768000Y-85598000D03*
%TD*%
%TO.P,R35,2*%
%TO.N,Net-(R34-Pad2)*%
X48768000Y-88392000D03*
%TO.P,R35,1*%
%TO.N,GND*%
X47118000Y-88392000D03*
%TD*%
%TO.P,R36,2*%
%TO.N,Net-(R33-Pad1)*%
X53086000Y-84582000D03*
%TO.P,R36,1*%
%TO.N,Net-(D12-Pad2)*%
X51436000Y-84582000D03*
%TD*%
D23*
%TO.P,R37,1*%
%TO.N,PULSE_MIX*%
X62102000Y-72390000D03*
%TO.P,R37,2*%
%TO.N,Net-(D11-Pad1)*%
X60452000Y-72390000D03*
%TD*%
%TO.P,R38,2*%
%TO.N,Net-(D12-Pad1)*%
X60452000Y-76200000D03*
%TO.P,R38,1*%
%TO.N,SAW_MIX*%
X62102000Y-76200000D03*
%TD*%
D25*
%TO.P,R39,1*%
%TO.N,VOLT_PER_OCTAVE*%
X57150000Y-47878000D03*
%TO.P,R39,2*%
%TO.N,CENTER_PITCH*%
X57150000Y-46228000D03*
%TD*%
D22*
%TO.P,R40,1*%
%TO.N,VOLT_PER_OCTAVE*%
X63120000Y-97282000D03*
%TO.P,R40,2*%
%TO.N,VOLT_PER_OCTAVE_IN*%
X64770000Y-97282000D03*
%TD*%
D23*
%TO.P,R41,2*%
%TO.N,LOG_FM_IN*%
X75121000Y-97028000D03*
%TO.P,R41,1*%
%TO.N,VOLT_PER_OCTAVE*%
X76771000Y-97028000D03*
%TD*%
D25*
%TO.P,R42,2*%
%TO.N,OCTAVE_SHIFT*%
X97790000Y-49530000D03*
%TO.P,R42,1*%
%TO.N,VOLT_PER_OCTAVE*%
X97790000Y-51180000D03*
%TD*%
D22*
%TO.P,R43,2*%
%TO.N,VOLT_PER_OCTAVE*%
X56642000Y-97282000D03*
%TO.P,R43,1*%
%TO.N,Net-(R43-Pad1)*%
X54992000Y-97282000D03*
%TD*%
D23*
%TO.P,R44,1*%
%TO.N,VOLT_PER_OCTAVE*%
X60706000Y-100330000D03*
%TO.P,R44,2*%
%TO.N,VREF*%
X59056000Y-100330000D03*
%TD*%
%TO.P,R45,2*%
%TO.N,Net-(R45-Pad2)*%
X54992000Y-100330000D03*
%TO.P,R45,1*%
%TO.N,VREF*%
X56642000Y-100330000D03*
%TD*%
D22*
%TO.P,R46,1*%
%TO.N,Net-(Q2-Pad1)*%
X79502000Y-87376000D03*
%TO.P,R46,2*%
%TO.N,-5V*%
X81152000Y-87376000D03*
%TD*%
D23*
%TO.P,R47,1*%
%TO.N,TRO*%
X60578000Y-106426000D03*
%TO.P,R47,2*%
%TO.N,Net-(R47-Pad2)*%
X58928000Y-106426000D03*
%TD*%
%TO.P,R48,1*%
%TO.N,GND*%
X56642000Y-106426000D03*
%TO.P,R48,2*%
%TO.N,Net-(R47-Pad2)*%
X54992000Y-106426000D03*
%TD*%
%TO.P,R49,2*%
%TO.N,Net-(Q2-Pad1)*%
X79502000Y-84582000D03*
%TO.P,R49,1*%
%TO.N,+5V*%
X81152000Y-84582000D03*
%TD*%
D22*
%TO.P,R50,2*%
%TO.N,GND*%
X37338000Y-63246000D03*
%TO.P,R50,1*%
%TO.N,Net-(C23-Pad1)*%
X35688000Y-63246000D03*
%TD*%
D24*
%TO.P,R51,1*%
%TO.N,Net-(C22-Pad2)*%
X79756000Y-92584000D03*
%TO.P,R51,2*%
%TO.N,Net-(R51-Pad2)*%
X79756000Y-94234000D03*
%TD*%
D22*
%TO.P,R52,1*%
%TO.N,GND*%
X58928000Y-103378000D03*
%TO.P,R52,2*%
%TO.N,Net-(R52-Pad2)*%
X60578000Y-103378000D03*
%TD*%
D23*
%TO.P,R53,1*%
%TO.N,VOLT_PER_OCTAVE*%
X60706000Y-97282000D03*
%TO.P,R53,2*%
%TO.N,HFTRIM*%
X59056000Y-97282000D03*
%TD*%
%TO.P,R54,1*%
%TO.N,+5V*%
X88900000Y-107950000D03*
%TO.P,R54,2*%
%TO.N,Net-(C14-Pad1)*%
X87250000Y-107950000D03*
%TD*%
D22*
%TO.P,R55,1*%
%TO.N,+5V*%
X87758000Y-93980000D03*
%TO.P,R55,2*%
%TO.N,Net-(R55-Pad2)*%
X89408000Y-93980000D03*
%TD*%
%TO.P,R56,2*%
%TO.N,SQO*%
X93726000Y-93980000D03*
%TO.P,R56,1*%
%TO.N,Net-(R55-Pad2)*%
X92076000Y-93980000D03*
%TD*%
D23*
%TO.P,R59,1*%
%TO.N,Net-(R59-Pad1)*%
X85724000Y-99314000D03*
%TO.P,R59,2*%
%TO.N,SINO*%
X84074000Y-99314000D03*
%TD*%
D22*
%TO.P,R60,2*%
%TO.N,-5V*%
X93980000Y-107950000D03*
%TO.P,R60,1*%
%TO.N,SQO*%
X92330000Y-107950000D03*
%TD*%
D23*
%TO.P,R61,2*%
%TO.N,Net-(R47-Pad2)*%
X54992000Y-103378000D03*
%TO.P,R61,1*%
%TO.N,VREF*%
X56642000Y-103378000D03*
%TD*%
D22*
%TO.P,R62,2*%
%TO.N,SQO*%
X97408000Y-98298000D03*
%TO.P,R62,1*%
%TO.N,TUNER_SIGNAL*%
X95758000Y-98298000D03*
%TD*%
%TO.P,R63,2*%
%TO.N,MIXO*%
X97345000Y-104140000D03*
%TO.P,R63,1*%
%TO.N,Net-(C39-Pad1)*%
X95695000Y-104140000D03*
%TD*%
D23*
%TO.P,R64,2*%
%TO.N,Net-(R59-Pad1)*%
X84074000Y-96520000D03*
%TO.P,R64,1*%
%TO.N,Net-(R64-Pad1)*%
X85724000Y-96520000D03*
%TD*%
%TO.P,R65,1*%
%TO.N,SQUARE_OUT*%
X108584000Y-99060000D03*
%TO.P,R65,2*%
%TO.N,TUNER_SIGNAL*%
X106934000Y-99060000D03*
%TD*%
%TO.P,R66,1*%
%TO.N,MIX_OUT*%
X108584000Y-119888000D03*
%TO.P,R66,2*%
%TO.N,Net-(C39-Pad1)*%
X106934000Y-119888000D03*
%TD*%
%TO.P,R67,2*%
%TO.N,Net-(R64-Pad1)*%
X106934000Y-109474000D03*
%TO.P,R67,1*%
%TO.N,SIN_OUT*%
X108584000Y-109474000D03*
%TD*%
D25*
%TO.P,R68,1*%
%TO.N,Net-(R68-Pad1)*%
X94488000Y-34544000D03*
%TO.P,R68,2*%
%TO.N,+5V*%
X94488000Y-32894000D03*
%TD*%
D22*
%TO.P,R69,2*%
%TO.N,A*%
X85090000Y-39370000D03*
%TO.P,R69,1*%
%TO.N,Net-(A1-Pad5)*%
X83440000Y-39370000D03*
%TD*%
%TO.P,R70,2*%
%TO.N,B*%
X85090000Y-41910000D03*
%TO.P,R70,1*%
%TO.N,Net-(A1-Pad6)*%
X83440000Y-41910000D03*
%TD*%
%TO.P,R71,1*%
%TO.N,Net-(A1-Pad7)*%
X83503000Y-44450000D03*
%TO.P,R71,2*%
%TO.N,C*%
X85153000Y-44450000D03*
%TD*%
%TO.P,R72,2*%
%TO.N,DP*%
X85090000Y-46990000D03*
%TO.P,R72,1*%
%TO.N,Net-(A1-Pad8)*%
X83440000Y-46990000D03*
%TD*%
%TO.P,R73,2*%
%TO.N,F*%
X85090000Y-49530000D03*
%TO.P,R73,1*%
%TO.N,Net-(A1-Pad9)*%
X83440000Y-49530000D03*
%TD*%
%TO.P,R74,2*%
%TO.N,G*%
X85090000Y-52070000D03*
%TO.P,R74,1*%
%TO.N,Net-(A1-Pad10)*%
X83440000Y-52070000D03*
%TD*%
%TO.P,R75,1*%
%TO.N,Net-(A1-Pad11)*%
X83440000Y-54610000D03*
%TO.P,R75,2*%
%TO.N,E*%
X85090000Y-54610000D03*
%TD*%
%TO.P,R76,2*%
%TO.N,D*%
X85090000Y-57150000D03*
%TO.P,R76,1*%
%TO.N,Net-(A1-Pad12)*%
X83440000Y-57150000D03*
%TD*%
D25*
%TO.P,R77,2*%
%TO.N,Net-(R68-Pad1)*%
X91440000Y-32894000D03*
%TO.P,R77,1*%
%TO.N,Net-(R77-Pad1)*%
X91440000Y-34544000D03*
%TD*%
D22*
%TO.P,R78,1*%
%TO.N,Net-(J10-Pad3)*%
X35688000Y-38862000D03*
%TO.P,R78,2*%
%TO.N,SOFT_SYNC*%
X37338000Y-38862000D03*
%TD*%
D25*
%TO.P,R79,1*%
%TO.N,Net-(R79-Pad1)*%
X89662000Y-38354000D03*
%TO.P,R79,2*%
%TO.N,Net-(R77-Pad1)*%
X89662000Y-36704000D03*
%TD*%
D22*
%TO.P,R80,2*%
%TO.N,HARD_SYNC*%
X37338000Y-51054000D03*
%TO.P,R80,1*%
%TO.N,Net-(J11-Pad3)*%
X35688000Y-51054000D03*
%TD*%
%TO.P,R81,1*%
%TO.N,SOFT_SYNC*%
X35688000Y-42926000D03*
%TO.P,R81,2*%
%TO.N,GND*%
X37338000Y-42926000D03*
%TD*%
D25*
%TO.P,R82,1*%
%TO.N,Net-(R82-Pad1)*%
X92964000Y-38417000D03*
%TO.P,R82,2*%
%TO.N,Net-(R79-Pad1)*%
X92964000Y-36767000D03*
%TD*%
D22*
%TO.P,R83,1*%
%TO.N,HARD_SYNC*%
X35688000Y-55118000D03*
%TO.P,R83,2*%
%TO.N,GND*%
X37338000Y-55118000D03*
%TD*%
D25*
%TO.P,R84,2*%
%TO.N,Net-(R82-Pad1)*%
X96266000Y-36704000D03*
%TO.P,R84,1*%
%TO.N,GND*%
X96266000Y-38354000D03*
%TD*%
%TO.P,R85,1*%
%TO.N,TUNER_SIGNAL*%
X61468000Y-58928000D03*
%TO.P,R85,2*%
%TO.N,Net-(A1-Pad19)*%
X61468000Y-57278000D03*
%TD*%
D24*
%TO.P,R86,1*%
%TO.N,Net-(D13-Pad2)*%
X112522000Y-45086000D03*
%TO.P,R86,2*%
%TO.N,Net-(A1-Pad15)*%
X112522000Y-46736000D03*
%TD*%
%TO.P,R87,2*%
%TO.N,Net-(A1-Pad14)*%
X109220000Y-46736000D03*
%TO.P,R87,1*%
%TO.N,Net-(D14-Pad2)*%
X109220000Y-45086000D03*
%TD*%
%TO.P,R88,2*%
%TO.N,Net-(A1-Pad13)*%
X105918000Y-46736000D03*
%TO.P,R88,1*%
%TO.N,Net-(D15-Pad2)*%
X105918000Y-45086000D03*
%TD*%
D26*
%TO.P,RV1,1*%
%TO.N,VREF*%
X52578000Y-101092000D03*
%TO.P,RV1,2*%
%TO.N,Net-(R43-Pad1)*%
X50038000Y-101092000D03*
%TO.P,RV1,3*%
%TO.N,GND*%
X47498000Y-101092000D03*
%TD*%
%TO.P,RV2,3*%
%TO.N,Net-(R45-Pad2)*%
X47498000Y-106680000D03*
%TO.P,RV2,2*%
X50038000Y-106680000D03*
%TO.P,RV2,1*%
%TO.N,Net-(RV2-Pad1)*%
X52578000Y-106680000D03*
%TD*%
%TO.P,RV3,1*%
%TO.N,GND*%
X47752000Y-90424000D03*
%TO.P,RV3,2*%
%TO.N,HFTRIM*%
X47752000Y-92964000D03*
%TO.P,RV3,3*%
%TO.N,Net-(RV3-Pad3)*%
X47752000Y-95504000D03*
%TD*%
D27*
%TO.P,RV4,*%
%TO.N,*%
X62498000Y-118244000D03*
X52898000Y-118244000D03*
D28*
%TO.P,RV4,3*%
%TO.N,Net-(J2-Pad3)*%
X55198000Y-110744000D03*
%TO.P,RV4,2*%
%TO.N,PWM_CV*%
X57698000Y-110744000D03*
D29*
%TO.P,RV4,1*%
%TO.N,GND*%
X60198000Y-110744000D03*
%TD*%
%TO.P,RV5,1*%
%TO.N,GND*%
X90170000Y-110744000D03*
D28*
%TO.P,RV5,2*%
%TO.N,PWM_OFFSET*%
X87670000Y-110744000D03*
%TO.P,RV5,3*%
%TO.N,+5V*%
X85170000Y-110744000D03*
D27*
%TO.P,RV5,*%
%TO.N,*%
X82870000Y-118244000D03*
X92470000Y-118244000D03*
%TD*%
%TO.P,RV6,*%
%TO.N,*%
X52310000Y-62350000D03*
X61910000Y-62350000D03*
D28*
%TO.P,RV6,3*%
%TO.N,Net-(J3-Pad3)*%
X59610000Y-69850000D03*
%TO.P,RV6,2*%
%TO.N,MIX_CV*%
X57110000Y-69850000D03*
D29*
%TO.P,RV6,1*%
%TO.N,GND*%
X54610000Y-69850000D03*
%TD*%
%TO.P,RV7,1*%
%TO.N,-5V*%
X90932000Y-69850000D03*
D28*
%TO.P,RV7,2*%
%TO.N,MIX_OFFSET*%
X93432000Y-69850000D03*
%TO.P,RV7,3*%
%TO.N,+5V*%
X95932000Y-69850000D03*
D27*
%TO.P,RV7,*%
%TO.N,*%
X98232000Y-62350000D03*
X88632000Y-62350000D03*
%TD*%
D29*
%TO.P,RV8,1*%
%TO.N,GND*%
X60452000Y-82296000D03*
D28*
%TO.P,RV8,2*%
%TO.N,Net-(RV8-Pad2)*%
X57952000Y-82296000D03*
%TO.P,RV8,3*%
%TO.N,Net-(J4-Pad3)*%
X55452000Y-82296000D03*
D27*
%TO.P,RV8,*%
%TO.N,*%
X53152000Y-89796000D03*
X62752000Y-89796000D03*
%TD*%
%TO.P,RV9,*%
%TO.N,*%
X92470000Y-89796000D03*
X82870000Y-89796000D03*
D28*
%TO.P,RV9,3*%
%TO.N,Net-(J5-Pad3)*%
X85170000Y-82296000D03*
%TO.P,RV9,2*%
%TO.N,TZFM_TZPM_IN*%
X87670000Y-82296000D03*
D29*
%TO.P,RV9,1*%
%TO.N,GND*%
X90170000Y-82296000D03*
%TD*%
%TO.P,RV11,1*%
%TO.N,GND*%
X54610000Y-42926000D03*
D28*
%TO.P,RV11,2*%
%TO.N,CENTER_PITCH*%
X57110000Y-42926000D03*
%TO.P,RV11,3*%
%TO.N,+5V*%
X59610000Y-42926000D03*
D27*
%TO.P,RV11,*%
%TO.N,*%
X61910000Y-35426000D03*
X52310000Y-35426000D03*
%TD*%
D30*
%TO.P,U1,14*%
%TO.N,Net-(C7-Pad1)*%
X73341000Y-80010000D03*
%TO.P,U1,13*%
%TO.N,Net-(C7-Pad2)*%
X73341000Y-78740000D03*
%TO.P,U1,12*%
%TO.N,GND*%
X73341000Y-77470000D03*
%TO.P,U1,11*%
%TO.N,-12V*%
X73341000Y-76200000D03*
%TO.P,U1,10*%
%TO.N,Net-(Q1-Pad3)*%
X73341000Y-74930000D03*
%TO.P,U1,9*%
%TO.N,Net-(C10-Pad2)*%
X73341000Y-73660000D03*
%TO.P,U1,8*%
%TO.N,Net-(C10-Pad1)*%
X73341000Y-72390000D03*
%TO.P,U1,7*%
%TO.N,Net-(C35-Pad1)*%
X68391000Y-72390000D03*
%TO.P,U1,6*%
%TO.N,Net-(C35-Pad2)*%
X68391000Y-73660000D03*
%TO.P,U1,5*%
%TO.N,GND*%
X68391000Y-74930000D03*
%TO.P,U1,4*%
%TO.N,+12V*%
X68391000Y-76200000D03*
%TO.P,U1,3*%
%TO.N,GND*%
X68391000Y-77470000D03*
%TO.P,U1,2*%
%TO.N,Net-(C20-Pad2)*%
X68391000Y-78740000D03*
%TO.P,U1,1*%
%TO.N,Net-(C20-Pad1)*%
X68391000Y-80010000D03*
%TD*%
%TO.P,U2,1*%
%TO.N,Net-(R32-Pad2)*%
X43753000Y-82550000D03*
%TO.P,U2,2*%
%TO.N,Net-(R29-Pad1)*%
X43753000Y-81280000D03*
%TO.P,U2,3*%
%TO.N,Net-(R26-Pad1)*%
X43753000Y-80010000D03*
%TO.P,U2,4*%
%TO.N,+12V*%
X43753000Y-78740000D03*
%TO.P,U2,5*%
%TO.N,GND*%
X43753000Y-77470000D03*
%TO.P,U2,6*%
%TO.N,Net-(R22-Pad2)*%
X43753000Y-76200000D03*
%TO.P,U2,7*%
%TO.N,Net-(D8-Pad2)*%
X43753000Y-74930000D03*
%TO.P,U2,8*%
%TO.N,Net-(D11-Pad2)*%
X48703000Y-74930000D03*
%TO.P,U2,9*%
%TO.N,Net-(R28-Pad1)*%
X48703000Y-76200000D03*
%TO.P,U2,10*%
%TO.N,GND*%
X48703000Y-77470000D03*
%TO.P,U2,11*%
%TO.N,-12V*%
X48703000Y-78740000D03*
%TO.P,U2,12*%
%TO.N,Net-(R34-Pad2)*%
X48703000Y-80010000D03*
%TO.P,U2,13*%
%TO.N,Net-(R33-Pad1)*%
X48703000Y-81280000D03*
%TO.P,U2,14*%
%TO.N,Net-(D12-Pad2)*%
X48703000Y-82550000D03*
%TD*%
%TO.P,U3,1*%
%TO.N,Net-(C36-Pad1)*%
X67440000Y-104648000D03*
%TO.P,U3,2*%
%TO.N,Net-(C36-Pad2)*%
X67440000Y-103378000D03*
%TO.P,U3,3*%
%TO.N,GND*%
X67440000Y-102108000D03*
%TO.P,U3,4*%
%TO.N,+12V*%
X67440000Y-100838000D03*
%TO.P,U3,5*%
%TO.N,Net-(J12-Pad3)*%
X67440000Y-99568000D03*
%TO.P,U3,6*%
%TO.N,VOLT_PER_OCTAVE_IN*%
X67440000Y-98298000D03*
%TO.P,U3,7*%
X67440000Y-97028000D03*
%TO.P,U3,8*%
%TO.N,LOG_FM_IN*%
X72390000Y-97028000D03*
%TO.P,U3,9*%
X72390000Y-98298000D03*
%TO.P,U3,10*%
%TO.N,Net-(RV8-Pad2)*%
X72390000Y-99568000D03*
%TO.P,U3,11*%
%TO.N,-12V*%
X72390000Y-100838000D03*
%TO.P,U3,12*%
%TO.N,GND*%
X72390000Y-102108000D03*
%TO.P,U3,13*%
%TO.N,Net-(C37-Pad2)*%
X72390000Y-103378000D03*
%TO.P,U3,14*%
%TO.N,PWM+*%
X72390000Y-104648000D03*
%TD*%
%TO.P,U4,14*%
%TO.N,Net-(C39-Pad1)*%
X93153000Y-104902000D03*
%TO.P,U4,13*%
%TO.N,MIXO*%
X93153000Y-103632000D03*
%TO.P,U4,12*%
%TO.N,GND*%
X93153000Y-102362000D03*
%TO.P,U4,11*%
%TO.N,-12V*%
X93153000Y-101092000D03*
%TO.P,U4,10*%
%TO.N,GND*%
X93153000Y-99822000D03*
%TO.P,U4,9*%
%TO.N,SQO*%
X93153000Y-98552000D03*
%TO.P,U4,8*%
%TO.N,TUNER_SIGNAL*%
X93153000Y-97282000D03*
%TO.P,U4,7*%
%TO.N,Net-(R64-Pad1)*%
X88203000Y-97282000D03*
%TO.P,U4,6*%
%TO.N,Net-(R59-Pad1)*%
X88203000Y-98552000D03*
%TO.P,U4,5*%
%TO.N,GND*%
X88203000Y-99822000D03*
%TO.P,U4,4*%
%TO.N,+12V*%
X88203000Y-101092000D03*
%TO.P,U4,3*%
%TO.N,Net-(C14-Pad1)*%
X88203000Y-102362000D03*
%TO.P,U4,2*%
%TO.N,VREF*%
X88203000Y-103632000D03*
%TO.P,U4,1*%
X88203000Y-104902000D03*
%TD*%
D20*
%TO.P,U5,3*%
%TO.N,N/C*%
X80076000Y-101616000D03*
%TO.P,U5,2*%
%TO.N,GND*%
X79126000Y-103616000D03*
%TO.P,U5,1*%
%TO.N,Net-(C14-Pad1)*%
X81026000Y-103616000D03*
%TD*%
D31*
%TO.P,U7,1*%
%TO.N,+5V*%
X74168000Y-115446000D03*
%TO.P,U7,2*%
%TO.N,GND*%
X75438000Y-115446000D03*
%TO.P,U7,3*%
X76708000Y-115446000D03*
%TO.P,U7,4*%
%TO.N,Net-(U7-Pad4)*%
X77978000Y-115446000D03*
%TO.P,U7,5*%
%TO.N,Net-(U7-Pad5)*%
X77978000Y-120396000D03*
%TO.P,U7,6*%
%TO.N,GND*%
X76708000Y-120396000D03*
%TO.P,U7,7*%
X75438000Y-120396000D03*
%TO.P,U7,8*%
%TO.N,+12V*%
X74168000Y-120396000D03*
%TD*%
%TO.P,U8,1*%
%TO.N,-5V*%
X66421000Y-115381000D03*
%TO.P,U8,2*%
%TO.N,-12V*%
X67691000Y-115381000D03*
%TO.P,U8,3*%
X68961000Y-115381000D03*
%TO.P,U8,4*%
%TO.N,Net-(U8-Pad4)*%
X70231000Y-115381000D03*
%TO.P,U8,5*%
%TO.N,GND*%
X70231000Y-120331000D03*
%TO.P,U8,6*%
%TO.N,-12V*%
X68961000Y-120331000D03*
%TO.P,U8,7*%
X67691000Y-120331000D03*
%TO.P,U8,8*%
%TO.N,Net-(U8-Pad8)*%
X66421000Y-120331000D03*
%TD*%
D30*
%TO.P,U9,8*%
%TO.N,+12V*%
X88581000Y-76581000D03*
%TO.P,U9,7*%
%TO.N,TIME_REVERSE*%
X88581000Y-75311000D03*
%TO.P,U9,6*%
%TO.N,Net-(U9-Pad6)*%
X88581000Y-74041000D03*
%TO.P,U9,5*%
%TO.N,Net-(U9-Pad5)*%
X88581000Y-72771000D03*
%TO.P,U9,4*%
%TO.N,-12V*%
X83631000Y-72771000D03*
%TO.P,U9,3*%
%TO.N,Net-(C7-Pad1)*%
X83631000Y-74041000D03*
%TO.P,U9,2*%
%TO.N,Net-(R16-Pad2)*%
X83631000Y-75311000D03*
%TO.P,U9,1*%
%TO.N,GND*%
X83631000Y-76581000D03*
%TD*%
D32*
%TO.P,U11,33*%
%TO.N,Net-(U11-Pad33)*%
X71110695Y-92202000D03*
D33*
%TO.P,U11,32*%
%TO.N,PWM+*%
X69710695Y-94202000D03*
%TO.P,U11,31*%
%TO.N,TRO*%
X70110695Y-94202000D03*
%TO.P,U11,30*%
%TO.N,Net-(U11-Pad30)*%
X70510695Y-94202000D03*
%TO.P,U11,29*%
%TO.N,Net-(U11-Pad29)*%
X70910695Y-94202000D03*
%TO.P,U11,28*%
%TO.N,Net-(R55-Pad2)*%
X71310695Y-94202000D03*
%TO.P,U11,27*%
%TO.N,+5V*%
X71710695Y-94202000D03*
%TO.P,U11,26*%
%TO.N,Net-(R51-Pad2)*%
X72110695Y-94202000D03*
%TO.P,U11,25*%
%TO.N,MIXO*%
X72510695Y-94202000D03*
D34*
%TO.P,U11,24*%
%TO.N,SINO*%
X73110695Y-93602000D03*
%TO.P,U11,23*%
%TO.N,VREF*%
X73110695Y-93202000D03*
%TO.P,U11,22*%
%TO.N,Net-(RV2-Pad1)*%
X73110695Y-92802000D03*
%TO.P,U11,21*%
%TO.N,LIN_FREQ*%
X73110695Y-92402000D03*
%TO.P,U11,20*%
%TO.N,GND*%
X73110695Y-92002000D03*
%TO.P,U11,19*%
%TO.N,Net-(C21-Pad1)*%
X73110695Y-91602000D03*
%TO.P,U11,18*%
%TO.N,TIME_REVERSE*%
X73110695Y-91202000D03*
%TO.P,U11,17*%
%TO.N,Net-(C23-Pad1)*%
X73110695Y-90802000D03*
D33*
%TO.P,U11,16*%
%TO.N,GND*%
X72510695Y-90202000D03*
%TO.P,U11,15*%
X72110695Y-90202000D03*
%TO.P,U11,14*%
%TO.N,Net-(C26-Pad1)*%
X71710695Y-90202000D03*
%TO.P,U11,13*%
%TO.N,Net-(U11-Pad13)*%
X71310695Y-90202000D03*
%TO.P,U11,12*%
%TO.N,Net-(U11-Pad12)*%
X70910695Y-90202000D03*
%TO.P,U11,11*%
%TO.N,PULSE_MIX*%
X70510695Y-90202000D03*
%TO.P,U11,10*%
%TO.N,SAW_MIX*%
X70110695Y-90202000D03*
%TO.P,U11,9*%
%TO.N,TRI_MIX*%
X69710695Y-90202000D03*
D34*
%TO.P,U11,8*%
%TO.N,-5V*%
X69110695Y-90802000D03*
%TO.P,U11,7*%
%TO.N,VOLT_PER_OCTAVE*%
X69110695Y-91202000D03*
%TO.P,U11,6*%
%TO.N,Net-(RV3-Pad3)*%
X69110695Y-91602000D03*
%TO.P,U11,5*%
%TO.N,Net-(U11-Pad5)*%
X69110695Y-92002000D03*
%TO.P,U11,4*%
%TO.N,Net-(U11-Pad4)*%
X69110695Y-92402000D03*
%TO.P,U11,3*%
%TO.N,Net-(R52-Pad2)*%
X69110695Y-92802000D03*
%TO.P,U11,2*%
%TO.N,Net-(R47-Pad2)*%
X69110695Y-93202000D03*
%TO.P,U11,1*%
%TO.N,TRO*%
X69110695Y-93602000D03*
%TD*%
D16*
%TO.P,D4,1*%
%TO.N,+5V*%
X71628000Y-83312000D03*
%TO.P,D4,2*%
%TO.N,Net-(D4-Pad2)*%
X68328000Y-83312000D03*
%TD*%
%TO.P,D5,2*%
%TO.N,-5V*%
X71626000Y-87122000D03*
%TO.P,D5,1*%
%TO.N,Net-(D4-Pad2)*%
X68326000Y-87122000D03*
%TD*%
D35*
%TO.P,D6,1*%
%TO.N,Net-(D6-Pad1)*%
X67310000Y-109980000D03*
%TO.P,D6,2*%
%TO.N,-5V*%
X67310000Y-106680000D03*
%TD*%
%TO.P,D7,1*%
%TO.N,GND*%
X72390000Y-106682000D03*
%TO.P,D7,2*%
%TO.N,Net-(D6-Pad1)*%
X72390000Y-109982000D03*
%TD*%
%TO.P,D8,1*%
%TO.N,Net-(D10-Pad2)*%
X31750000Y-76454000D03*
%TO.P,D8,2*%
%TO.N,Net-(D8-Pad2)*%
X31750000Y-73154000D03*
%TD*%
%TO.P,D9,2*%
%TO.N,Net-(D9-Pad2)*%
X31750000Y-78740000D03*
%TO.P,D9,1*%
%TO.N,Net-(D8-Pad2)*%
X31750000Y-82040000D03*
%TD*%
D16*
%TO.P,D10,2*%
%TO.N,Net-(D10-Pad2)*%
X55118000Y-79756000D03*
%TO.P,D10,1*%
%TO.N,Net-(D10-Pad1)*%
X58418000Y-79756000D03*
%TD*%
%TO.P,D11,1*%
%TO.N,Net-(D11-Pad1)*%
X58418000Y-72644000D03*
%TO.P,D11,2*%
%TO.N,Net-(D11-Pad2)*%
X55118000Y-72644000D03*
%TD*%
%TO.P,D12,2*%
%TO.N,Net-(D12-Pad2)*%
X55118000Y-76200000D03*
%TO.P,D12,1*%
%TO.N,Net-(D12-Pad1)*%
X58418000Y-76200000D03*
%TD*%
D36*
%TO.P,S1,1*%
%TO.N,OCTAVE_SHIFT*%
X97710000Y-45980000D03*
%TO.P,S1,2*%
%TO.N,GND*%
X95210000Y-45980000D03*
%TO.P,S1,3*%
%TO.N,Net-(R82-Pad1)*%
X92710000Y-45980000D03*
%TO.P,S1,4*%
%TO.N,Net-(R79-Pad1)*%
X90210000Y-45980000D03*
%TO.P,S1,5*%
%TO.N,Net-(R77-Pad1)*%
X87710000Y-45980000D03*
%TO.P,S1,6*%
%TO.N,Net-(R68-Pad1)*%
X87710000Y-27680000D03*
%TO.P,S1,7*%
%TO.N,+5V*%
X90210000Y-27680000D03*
%TO.P,S1,8*%
%TO.N,Net-(S1-Pad8)*%
X92710000Y-27680000D03*
%TO.P,S1,9*%
%TO.N,Net-(S1-Pad9)*%
X95210000Y-27680000D03*
%TO.P,S1,10*%
%TO.N,Net-(S1-Pad10)*%
X97710000Y-27680000D03*
D37*
%TO.P,S1,MH1*%
%TO.N,Net-(S1-PadMH1)*%
X84710000Y-35730000D03*
%TO.P,S1,MH2*%
%TO.N,Net-(S1-PadMH2)*%
X100710000Y-35730000D03*
%TD*%
D38*
%TO.P,J1,1*%
%TO.N,Net-(D3-Pad1)*%
X107696000Y-87884000D03*
D39*
%TO.P,J1,3*%
%TO.N,GND*%
X107696000Y-85344000D03*
%TO.P,J1,5*%
X107696000Y-82804000D03*
%TO.P,J1,7*%
X107696000Y-80264000D03*
%TO.P,J1,9*%
%TO.N,Net-(D2-Pad2)*%
X107696000Y-77724000D03*
%TO.P,J1,11*%
%TO.N,Net-(D1-Pad2)*%
X107696000Y-75184000D03*
%TO.P,J1,13*%
%TO.N,Net-(J1-Pad13)*%
X107696000Y-72644000D03*
%TO.P,J1,15*%
%TO.N,Net-(J1-Pad15)*%
X107696000Y-70104000D03*
%TO.P,J1,2*%
%TO.N,Net-(D3-Pad1)*%
X110236000Y-87884000D03*
%TO.P,J1,4*%
%TO.N,GND*%
X110236000Y-85344000D03*
%TO.P,J1,6*%
X110236000Y-82804000D03*
%TO.P,J1,8*%
X110236000Y-80264000D03*
%TO.P,J1,10*%
%TO.N,Net-(D2-Pad2)*%
X110236000Y-77724000D03*
%TO.P,J1,12*%
%TO.N,Net-(D1-Pad2)*%
X110236000Y-75184000D03*
%TO.P,J1,14*%
%TO.N,Net-(J1-Pad14)*%
X110236000Y-72644000D03*
%TO.P,J1,16*%
%TO.N,Net-(J1-Pad16)*%
X110236000Y-70104000D03*
%TD*%
D40*
%TO.P,C29,1*%
%TO.N,GND*%
X61722000Y-30988000D03*
%TO.P,C29,2*%
%TO.N,ARDUINOPOWER*%
X61722000Y-29438000D03*
%TD*%
%TO.P,C1,1*%
%TO.N,Net-(C1-Pad1)*%
X36576000Y-103658000D03*
%TO.P,C1,2*%
%TO.N,Net-(C1-Pad2)*%
X36576000Y-102108000D03*
%TD*%
D41*
%TO.N,GND*%
X73660000Y-89662000D03*
X37338000Y-41656000D03*
X37338000Y-53848000D03*
X37338000Y-61976000D03*
X38100000Y-78740000D03*
X52307500Y-77486500D03*
X46228000Y-77470000D03*
X40640000Y-77470000D03*
X65363807Y-75015807D03*
X71120000Y-77470000D03*
X74930000Y-77470000D03*
X85059000Y-78009000D03*
X69850000Y-102108000D03*
X65024000Y-102108000D03*
X75070000Y-101740000D03*
X77470000Y-113030000D03*
D42*
X45672000Y-88392000D03*
D41*
X63294258Y-92250258D03*
X82550000Y-70866000D03*
X90678000Y-99822000D03*
X96897500Y-100206500D03*
X84074000Y-103632000D03*
X95758000Y-102362000D03*
X78245000Y-101587000D03*
X81534000Y-92710000D03*
X57531000Y-104775000D03*
X75465326Y-91601306D03*
X75438000Y-94234000D03*
X79502000Y-88646000D03*
X107442000Y-46990000D03*
X110998000Y-46990000D03*
X103356000Y-87144000D03*
X96520000Y-74422000D03*
X69088000Y-113030000D03*
X76200000Y-118110000D03*
X70384000Y-121386000D03*
X76200000Y-116840000D03*
X76200000Y-119380000D03*
%TO.N,ARDUINOPOWER*%
X99060000Y-68326000D03*
%TO.N,+12V*%
X42164000Y-78740000D03*
X67056000Y-76200000D03*
X88581000Y-78043000D03*
X65786000Y-100838000D03*
X86487000Y-101473000D03*
X74142000Y-121692000D03*
X100330000Y-80516000D03*
X99696000Y-79882000D03*
X100330000Y-81534000D03*
%TO.N,-12V*%
X50292000Y-78740000D03*
X74930000Y-76200000D03*
X84424000Y-71978000D03*
X74168000Y-100838000D03*
X94742000Y-101092000D03*
X97663000Y-90297000D03*
X93980000Y-82550000D03*
X68295000Y-118141000D03*
%TO.N,Net-(C7-Pad1)*%
X82042000Y-74676000D03*
X78245010Y-74689010D03*
%TO.N,TIME_REVERSE*%
X75692000Y-89666000D03*
X77724000Y-87376000D03*
X83566000Y-84836000D03*
X90434500Y-74432500D03*
%TO.N,+5V*%
X74155000Y-114059000D03*
X86614000Y-64008000D03*
X82296000Y-84582000D03*
X78092000Y-91300000D03*
X86868000Y-93980000D03*
X90174653Y-101087347D03*
X70104000Y-78994000D03*
X71374000Y-95758000D03*
X74930000Y-83312000D03*
%TO.N,-5V*%
X68533299Y-89732051D03*
X66294000Y-114046000D03*
X81026000Y-86106000D03*
X73152000Y-87122000D03*
X66305675Y-91959675D03*
X67310000Y-108204000D03*
X93980000Y-109474000D03*
X35306000Y-84836000D03*
X83312000Y-87122000D03*
%TO.N,Net-(C20-Pad2)*%
X61722000Y-69850000D03*
X65060990Y-80300990D03*
X89154000Y-69349999D03*
X84582000Y-69596000D03*
%TO.N,Net-(C21-Pad1)*%
X60960000Y-67056000D03*
X70104000Y-83058000D03*
X75298298Y-90615352D03*
X76708000Y-87122000D03*
%TO.N,Net-(C23-Pad1)*%
X35788000Y-62002000D03*
X70104000Y-85090000D03*
%TO.N,Net-(C35-Pad1)*%
X38443990Y-75145990D03*
X46482000Y-72898000D03*
%TO.N,PWM+*%
X68223953Y-95677990D03*
X79756000Y-98298000D03*
X69596000Y-98806000D03*
X70656282Y-103001340D03*
X69596000Y-100838000D03*
%TO.N,SQO*%
X91440000Y-101092000D03*
X91440000Y-98552000D03*
%TO.N,MIXO*%
X94526010Y-103339990D03*
X80010000Y-95758000D03*
%TO.N,Net-(D13-Pad2)*%
X112776000Y-43942000D03*
%TO.N,Net-(D14-Pad2)*%
X109220000Y-43942000D03*
%TO.N,Net-(D15-Pad2)*%
X105664000Y-43942000D03*
%TO.N,DP*%
X86360000Y-46990000D03*
%TO.N,C*%
X86360000Y-44450000D03*
%TO.N,B*%
X86360000Y-41910000D03*
%TO.N,A*%
X86360000Y-39370000D03*
%TO.N,Net-(J5-Pad3)*%
X54610000Y-86614000D03*
X41910000Y-93726000D03*
%TO.N,Net-(J12-Pad3)*%
X60706000Y-98806000D03*
%TO.N,VREF*%
X88203000Y-104329000D03*
X85028000Y-101154000D03*
%TO.N,Net-(R16-Pad2)*%
X86614000Y-72644000D03*
X85344000Y-75184000D03*
%TO.N,LIN_FREQ*%
X75433371Y-92600798D03*
X74422000Y-87630000D03*
X72898000Y-85852000D03*
X80264000Y-79756000D03*
%TO.N,TRI_MIX*%
X69088000Y-88900000D03*
X60198000Y-84582000D03*
%TO.N,PULSE_MIX*%
X71120000Y-88900000D03*
X62738000Y-84582000D03*
%TO.N,SAW_MIX*%
X70104000Y-88900000D03*
X61468000Y-84582000D03*
%TO.N,TRO*%
X68580000Y-94742000D03*
X69596000Y-95758000D03*
X63246000Y-101600000D03*
%TO.N,Net-(R47-Pad2)*%
X67818000Y-93980000D03*
X59944000Y-105156000D03*
%TO.N,Net-(R51-Pad2)*%
X72393024Y-95500976D03*
X77978000Y-94234000D03*
%TO.N,Net-(R52-Pad2)*%
X67818000Y-92964000D03*
X60706000Y-101854000D03*
%TO.N,Net-(R55-Pad2)*%
X82799347Y-97794653D03*
X70725975Y-97168025D03*
%TO.N,SINO*%
X73660000Y-94742000D03*
X84074000Y-98044000D03*
%TO.N,Net-(RV2-Pad1)*%
X78232000Y-93218000D03*
X78486000Y-99387999D03*
X78232000Y-96774000D03*
%TO.N,Net-(RV3-Pad3)*%
X67818000Y-91948000D03*
X60452000Y-93218000D03*
%TO.N,Net-(RV8-Pad2)*%
X61907142Y-98229142D03*
%TO.N,Net-(D10-Pad2)*%
X35306000Y-71882000D03*
X54102000Y-80264000D03*
%TO.N,Net-(D9-Pad2)*%
X38291000Y-74105000D03*
X44450000Y-72898000D03*
%TO.N,TUNER_SIGNAL*%
X98298000Y-97028000D03*
X95758000Y-97282000D03*
X95504000Y-55880000D03*
X104902000Y-94488000D03*
%TO.N,VOLT_PER_OCTAVE*%
X57150000Y-49022000D03*
X56677001Y-73116999D03*
%TD*%
D43*
%TO.N,Net-(A1-Pad19)*%
X61596000Y-57150000D02*
X61468000Y-57278000D01*
X65278000Y-57150000D02*
X61596000Y-57150000D01*
D44*
%TO.N,GND*%
X103356000Y-87144000D02*
X103356000Y-87144000D01*
X100330000Y-87144000D02*
X103356000Y-87144000D01*
X107696000Y-80264000D02*
X107696000Y-85344000D01*
X110236000Y-80264000D02*
X110236000Y-85344000D01*
X110236000Y-82804000D02*
X107696000Y-82804000D01*
X110236000Y-80264000D02*
X107696000Y-80264000D01*
X110236000Y-85344000D02*
X107696000Y-85344000D01*
X96520000Y-74422000D02*
X96520000Y-74422000D01*
X100584000Y-74422000D02*
X96520000Y-74422000D01*
X96520000Y-74422000D02*
X96520000Y-74422000D01*
X103356000Y-87144000D02*
X103356000Y-87144000D01*
X75438000Y-120396000D02*
X75438000Y-115446000D01*
X76708000Y-115446000D02*
X76708000Y-120396000D01*
X76200000Y-115824000D02*
X75822000Y-115446000D01*
X76200000Y-120396000D02*
X76200000Y-119380000D01*
X76708000Y-115446000D02*
X75822000Y-115446000D01*
X75822000Y-115446000D02*
X75438000Y-115446000D01*
X75438000Y-120396000D02*
X76200000Y-120396000D01*
X76200000Y-120396000D02*
X76708000Y-120396000D01*
X76200000Y-117856000D02*
X76200000Y-116840000D01*
X75705000Y-115179000D02*
X75438000Y-115446000D01*
X75705000Y-113030000D02*
X75705000Y-115179000D01*
X75692000Y-120650000D02*
X75438000Y-120396000D01*
X75692000Y-122936000D02*
X75692000Y-120650000D01*
X70384000Y-120484000D02*
X70231000Y-120331000D01*
X70384000Y-122936000D02*
X70384000Y-121640000D01*
X70384000Y-121640000D02*
X70384000Y-121386000D01*
X67844000Y-113030000D02*
X69088000Y-113030000D01*
X95210000Y-39410000D02*
X96266000Y-38354000D01*
X95210000Y-45980000D02*
X95210000Y-39410000D01*
D45*
X73120000Y-90202000D02*
X73660000Y-89662000D01*
X72110695Y-90202000D02*
X73120000Y-90202000D01*
X37338000Y-42926000D02*
X37338000Y-41656000D01*
X37338000Y-55118000D02*
X37338000Y-53848000D01*
X37338000Y-63246000D02*
X37338000Y-61976000D01*
X62484000Y-31750000D02*
X61722000Y-30988000D01*
X65278000Y-31750000D02*
X62484000Y-31750000D01*
D44*
X39344000Y-78740000D02*
X38100000Y-78740000D01*
X38100000Y-78740000D02*
X36830000Y-78740000D01*
X39344000Y-78506836D02*
X39344000Y-78740000D01*
X40380836Y-77470000D02*
X39344000Y-78506836D01*
X43753000Y-77470000D02*
X40640000Y-77470000D01*
X48703000Y-77470000D02*
X46228000Y-77470000D01*
X52291000Y-77470000D02*
X48703000Y-77470000D01*
X53086000Y-78265000D02*
X52307500Y-77486500D01*
X53086000Y-78740000D02*
X53086000Y-78265000D01*
X52307500Y-77486500D02*
X52291000Y-77470000D01*
X46228000Y-77470000D02*
X43753000Y-77470000D01*
X40640000Y-77470000D02*
X40380836Y-77470000D01*
D46*
X64236000Y-76143614D02*
X64236000Y-76200000D01*
X65449614Y-74930000D02*
X65363807Y-75015807D01*
X68391000Y-74930000D02*
X65449614Y-74930000D01*
X65363807Y-75015807D02*
X64236000Y-76143614D01*
X64236000Y-76256386D02*
X64236000Y-76200000D01*
X65449614Y-77470000D02*
X64236000Y-76256386D01*
X68391000Y-77470000D02*
X65449614Y-77470000D01*
X68391000Y-77470000D02*
X71120000Y-77470000D01*
X71120000Y-77470000D02*
X73341000Y-77470000D01*
X77470000Y-76256386D02*
X77470000Y-76200000D01*
X76256386Y-77470000D02*
X77470000Y-76256386D01*
X73341000Y-77470000D02*
X74930000Y-77470000D01*
X74930000Y-77470000D02*
X76256386Y-77470000D01*
X95184000Y-73086000D02*
X96520000Y-74422000D01*
X95184000Y-71914000D02*
X95184000Y-73086000D01*
X87096000Y-79502000D02*
X85090000Y-79502000D01*
X87096000Y-79558386D02*
X87096000Y-79502000D01*
X88089624Y-80552010D02*
X87096000Y-79558386D01*
X88426010Y-80552010D02*
X88089624Y-80552010D01*
X90170000Y-82296000D02*
X88426010Y-80552010D01*
X85090000Y-78040000D02*
X85059000Y-78009000D01*
X85090000Y-79502000D02*
X85090000Y-78040000D01*
X85059000Y-78009000D02*
X83631000Y-76581000D01*
D47*
X72690000Y-101808000D02*
X72390000Y-102108000D01*
X75002000Y-101808000D02*
X72690000Y-101808000D01*
X76734000Y-100076000D02*
X75070000Y-101740000D01*
X72390000Y-102108000D02*
X69850000Y-102108000D01*
X64998000Y-102108000D02*
X63220000Y-100330000D01*
X67440000Y-102108000D02*
X65024000Y-102108000D01*
X69850000Y-102108000D02*
X67440000Y-102108000D01*
X65024000Y-102108000D02*
X64998000Y-102108000D01*
X75070000Y-101740000D02*
X75002000Y-101808000D01*
X69850000Y-104142000D02*
X69850000Y-102108000D01*
X72390000Y-106682000D02*
X69850000Y-104142000D01*
D46*
X77470000Y-113030000D02*
X77470000Y-113030000D01*
X75705000Y-113030000D02*
X77470000Y-113030000D01*
X77470000Y-113030000D02*
X80264000Y-110236000D01*
X45672000Y-88392000D02*
X43386000Y-86106000D01*
X47118000Y-88392000D02*
X45672000Y-88392000D01*
X45672000Y-88392000D02*
X45672000Y-88392000D01*
X65278000Y-90266517D02*
X65278000Y-90170000D01*
X63220000Y-92324517D02*
X63294258Y-92250258D01*
X63220000Y-93472000D02*
X63220000Y-92324517D01*
X63294258Y-92250258D02*
X65278000Y-90266517D01*
X83807000Y-70866000D02*
X82550000Y-70866000D01*
X97308000Y-100617000D02*
X97308000Y-101092000D01*
X96513000Y-99822000D02*
X96897500Y-100206500D01*
X93153000Y-99822000D02*
X96513000Y-99822000D01*
X99340000Y-99060000D02*
X97308000Y-101092000D01*
X100378000Y-99060000D02*
X99340000Y-99060000D01*
X93153000Y-99822000D02*
X90678000Y-99822000D01*
X90678000Y-99822000D02*
X88203000Y-99822000D01*
X96897500Y-100206500D02*
X97308000Y-100617000D01*
X84074000Y-102388000D02*
X84048000Y-102362000D01*
X84074000Y-105156000D02*
X84074000Y-103632000D01*
X84074000Y-103632000D02*
X84074000Y-102388000D01*
X97308000Y-101148386D02*
X97308000Y-101092000D01*
X96094386Y-102362000D02*
X97308000Y-101148386D01*
X93153000Y-102362000D02*
X95758000Y-102362000D01*
X95758000Y-102362000D02*
X96094386Y-102362000D01*
X79126000Y-102468000D02*
X78245000Y-101587000D01*
X79126000Y-103616000D02*
X79126000Y-102468000D01*
X78245000Y-101587000D02*
X76734000Y-100076000D01*
D43*
X76708000Y-93936834D02*
X76708000Y-94234000D01*
D46*
X81547000Y-92697000D02*
X81534000Y-92710000D01*
X82804000Y-92697000D02*
X81547000Y-92697000D01*
X56642000Y-105664000D02*
X57531000Y-104775000D01*
X56642000Y-106426000D02*
X56642000Y-105664000D01*
X57531000Y-104775000D02*
X58928000Y-103378000D01*
D45*
X75465326Y-91601306D02*
X74878042Y-91601306D01*
X74878042Y-91601306D02*
X74477339Y-92002010D01*
X74477329Y-92002000D02*
X74477339Y-92002010D01*
X73110695Y-92002000D02*
X74477329Y-92002000D01*
D43*
X76708000Y-94234000D02*
X75438000Y-94234000D01*
D44*
X103356000Y-87144000D02*
X107696000Y-82804000D01*
X96520000Y-74422000D02*
X93980000Y-76962000D01*
X69088000Y-113030000D02*
X69088000Y-113030000D01*
X76200000Y-118110000D02*
X76200000Y-117856000D01*
X70384000Y-121386000D02*
X70384000Y-120484000D01*
X76200000Y-116840000D02*
X76200000Y-115824000D01*
X76200000Y-119380000D02*
X76200000Y-118110000D01*
D45*
%TO.N,Net-(A1-Pad5)*%
X83440000Y-39370000D02*
X80518000Y-39370000D01*
%TO.N,Net-(A1-Pad6)*%
X83440000Y-41910000D02*
X80518000Y-41910000D01*
%TO.N,Net-(A1-Pad7)*%
X83503000Y-44450000D02*
X80518000Y-44450000D01*
%TO.N,Net-(A1-Pad8)*%
X83440000Y-46990000D02*
X80518000Y-46990000D01*
%TO.N,Net-(A1-Pad9)*%
X83440000Y-49530000D02*
X80518000Y-49530000D01*
%TO.N,Net-(A1-Pad10)*%
X83440000Y-52070000D02*
X80518000Y-52070000D01*
%TO.N,Net-(A1-Pad11)*%
X83440000Y-54610000D02*
X80518000Y-54610000D01*
%TO.N,Net-(A1-Pad12)*%
X83440000Y-57150000D02*
X80518000Y-57150000D01*
%TO.N,Net-(A1-Pad13)*%
X80518000Y-59690000D02*
X84582000Y-59690000D01*
X84582000Y-59690000D02*
X86106000Y-58166000D01*
X86106000Y-58166000D02*
X98298000Y-58166000D01*
X105918000Y-50546000D02*
X105918000Y-46736000D01*
X98298000Y-58166000D02*
X105918000Y-50546000D01*
%TO.N,Net-(A1-Pad14)*%
X80518000Y-62230000D02*
X82042000Y-60706000D01*
X82042000Y-60706000D02*
X84836000Y-60706000D01*
X84836000Y-60706000D02*
X86614000Y-58928000D01*
X86614000Y-58928000D02*
X99314000Y-58928000D01*
X109220000Y-49022000D02*
X109220000Y-46736000D01*
X99314000Y-58928000D02*
X109220000Y-49022000D01*
D44*
%TO.N,ARDUINOPOWER*%
X99060000Y-69298000D02*
X100584000Y-70822000D01*
X99060000Y-66294000D02*
X99060000Y-68326000D01*
D45*
X61950000Y-29210000D02*
X61722000Y-29438000D01*
X65278000Y-29210000D02*
X61950000Y-29210000D01*
D44*
X99060000Y-68326000D02*
X99060000Y-69298000D01*
D45*
%TO.N,Net-(A1-Pad15)*%
X80518000Y-64770000D02*
X80518000Y-64262000D01*
X80518000Y-64262000D02*
X83566000Y-61214000D01*
X83566000Y-61214000D02*
X86360000Y-61214000D01*
X86360000Y-61214000D02*
X87630000Y-59944000D01*
X87630000Y-59944000D02*
X101600000Y-59944000D01*
X112522000Y-49022000D02*
X112522000Y-46736000D01*
X101600000Y-59944000D02*
X112522000Y-49022000D01*
D43*
%TO.N,Net-(C1-Pad1)*%
X40386000Y-107468000D02*
X36576000Y-103658000D01*
X40386000Y-108458000D02*
X40386000Y-107468000D01*
%TO.N,Net-(C1-Pad2)*%
X36576000Y-101672000D02*
X32186000Y-97282000D01*
X36576000Y-102108000D02*
X36576000Y-101672000D01*
D44*
%TO.N,+12V*%
X100330000Y-80516000D02*
X100330000Y-80516000D01*
X100330000Y-83544000D02*
X100330000Y-81534000D01*
X100330000Y-80516000D02*
X99696000Y-79882000D01*
X100330000Y-81534000D02*
X100330000Y-80516000D01*
X74142000Y-120422000D02*
X74168000Y-120396000D01*
X74142000Y-122936000D02*
X74142000Y-121692000D01*
X43753000Y-78740000D02*
X42164000Y-78740000D01*
X42164000Y-78740000D02*
X40894000Y-78740000D01*
X68391000Y-76200000D02*
X67056000Y-76200000D01*
X67056000Y-76200000D02*
X65786000Y-76200000D01*
D47*
X88581000Y-79437000D02*
X88646000Y-79502000D01*
X88581000Y-76581000D02*
X88581000Y-78043000D01*
X88581000Y-78043000D02*
X88581000Y-79437000D01*
D46*
X65278000Y-100838000D02*
X65786000Y-100838000D01*
X64770000Y-100330000D02*
X65278000Y-100838000D01*
X65786000Y-100838000D02*
X67440000Y-100838000D01*
X86868000Y-101092000D02*
X86487000Y-101473000D01*
X88203000Y-101092000D02*
X86868000Y-101092000D01*
X86487000Y-101473000D02*
X85598000Y-102362000D01*
D44*
X74142000Y-121692000D02*
X74142000Y-120422000D01*
X100330000Y-80516000D02*
X100330000Y-80516000D01*
X99696000Y-79882000D02*
X98808000Y-78994000D01*
X100330000Y-81534000D02*
X100330000Y-81534000D01*
%TO.N,-12V*%
X93980000Y-80562000D02*
X93980000Y-82550000D01*
X68961000Y-115381000D02*
X67691000Y-115381000D01*
X68961000Y-115381000D02*
X68961000Y-120331000D01*
X67691000Y-120331000D02*
X67691000Y-115381000D01*
X68821000Y-120471000D02*
X68961000Y-120331000D01*
X68295000Y-120111000D02*
X68515000Y-120331000D01*
X68295000Y-116047000D02*
X68295000Y-118141000D01*
X68515000Y-120331000D02*
X68961000Y-120331000D01*
X67691000Y-120331000D02*
X68515000Y-120331000D01*
X68295000Y-116047000D02*
X68961000Y-115381000D01*
X68834000Y-120650000D02*
X68515000Y-120331000D01*
X68834000Y-122936000D02*
X68834000Y-120650000D01*
X48703000Y-78740000D02*
X50292000Y-78740000D01*
X50292000Y-78740000D02*
X51536000Y-78740000D01*
D46*
X75920000Y-76200000D02*
X74930000Y-76200000D01*
X74930000Y-76200000D02*
X73341000Y-76200000D01*
X85357000Y-71045000D02*
X85357000Y-70866000D01*
X84424000Y-71978000D02*
X85357000Y-71045000D01*
D47*
X84424000Y-71978000D02*
X83631000Y-72771000D01*
D44*
X93980000Y-82550000D02*
X93980000Y-82550000D01*
D46*
X74422000Y-100838000D02*
X75184000Y-100076000D01*
X72390000Y-100838000D02*
X74168000Y-100838000D01*
X74168000Y-100838000D02*
X74422000Y-100838000D01*
D44*
X68295000Y-118141000D02*
X68295000Y-118141000D01*
X68295000Y-118141000D02*
X68295000Y-118141000D01*
D46*
X95758000Y-101092000D02*
X94742000Y-101092000D01*
X94742000Y-101092000D02*
X93153000Y-101092000D01*
D44*
X97663000Y-90297000D02*
X98806000Y-91440000D01*
X93980000Y-86614000D02*
X97663000Y-90297000D01*
X93980000Y-82550000D02*
X93980000Y-86614000D01*
X68295000Y-118141000D02*
X68295000Y-120111000D01*
D43*
%TO.N,Net-(C7-Pad1)*%
X76200000Y-80010000D02*
X73341000Y-80010000D01*
X77470000Y-78740000D02*
X76200000Y-80010000D01*
X77596000Y-81406000D02*
X76200000Y-80010000D01*
X77596000Y-81788000D02*
X77596000Y-81406000D01*
X78245010Y-74118010D02*
X77533000Y-73406000D01*
X77470000Y-78740000D02*
X78245010Y-77964990D01*
X79502000Y-81788000D02*
X77596000Y-81788000D01*
X82677000Y-74041000D02*
X82042000Y-74676000D01*
X83631000Y-74041000D02*
X82677000Y-74041000D01*
X78245010Y-74689010D02*
X78245010Y-74118010D01*
X78245010Y-77964990D02*
X78245010Y-74689010D01*
%TO.N,Net-(C7-Pad2)*%
X75920000Y-78740000D02*
X73341000Y-78740000D01*
X72366000Y-78740000D02*
X73341000Y-78740000D01*
X72040990Y-80356758D02*
X72040990Y-79065010D01*
X72040990Y-79065010D02*
X72366000Y-78740000D01*
X73472232Y-81788000D02*
X72040990Y-80356758D01*
X75946000Y-81788000D02*
X73472232Y-81788000D01*
X75946000Y-84582000D02*
X75946000Y-81788000D01*
X86106000Y-85045002D02*
X86106000Y-85852000D01*
X76746010Y-82588010D02*
X83649008Y-82588010D01*
X83649008Y-82588010D02*
X86106000Y-85045002D01*
X75946000Y-81788000D02*
X76746010Y-82588010D01*
%TO.N,Net-(C10-Pad1)*%
X79901980Y-72155980D02*
X81152000Y-73406000D01*
X73575020Y-72155980D02*
X79901980Y-72155980D01*
X73341000Y-72390000D02*
X73575020Y-72155980D01*
X81152000Y-76100000D02*
X81052000Y-76200000D01*
X81152000Y-73406000D02*
X81152000Y-76100000D01*
X81052000Y-77190000D02*
X79502000Y-78740000D01*
X81052000Y-76200000D02*
X81052000Y-77190000D01*
%TO.N,Net-(C10-Pad2)*%
X78701990Y-72605990D02*
X79502000Y-73406000D01*
X75465532Y-72605990D02*
X78701990Y-72605990D01*
X74411522Y-73660000D02*
X75465532Y-72605990D01*
X73341000Y-73660000D02*
X74411522Y-73660000D01*
X79502000Y-73406000D02*
X79502000Y-76200000D01*
X78776990Y-76925010D02*
X79502000Y-76200000D01*
X78776990Y-79812990D02*
X78776990Y-76925010D01*
X80752000Y-81788000D02*
X78776990Y-79812990D01*
X81152000Y-81788000D02*
X80752000Y-81788000D01*
D45*
%TO.N,Net-(C11-Pad2)*%
X85344000Y-68072000D02*
X85344000Y-67564000D01*
X83794000Y-66014000D02*
X83794000Y-65278000D01*
X85344000Y-67564000D02*
X83794000Y-66014000D01*
%TO.N,TIME_REVERSE*%
X85344000Y-64134000D02*
X83694000Y-62484000D01*
X85344000Y-65278000D02*
X85344000Y-64134000D01*
D43*
X90610998Y-71914000D02*
X93284000Y-71914000D01*
X85344000Y-66647002D02*
X90610998Y-71914000D01*
X85344000Y-65278000D02*
X85344000Y-66647002D01*
X90610998Y-74256002D02*
X90610998Y-74256002D01*
X88581000Y-75311000D02*
X89556000Y-75311000D01*
X90610998Y-74256002D02*
X90610998Y-71914000D01*
D45*
X73110695Y-91202000D02*
X73898000Y-91202000D01*
X74168000Y-90932000D02*
X74168000Y-90755700D01*
X73898000Y-91202000D02*
X74168000Y-90932000D01*
X75257700Y-89666000D02*
X75692000Y-89666000D01*
X74168000Y-90755700D02*
X75257700Y-89666000D01*
X82536990Y-83806990D02*
X83566000Y-84836000D01*
X79094888Y-83806990D02*
X82536990Y-83806990D01*
X78801990Y-84099888D02*
X79094888Y-83806990D01*
X78801990Y-86298010D02*
X78801990Y-84099888D01*
X77724000Y-87376000D02*
X78801990Y-86298010D01*
D43*
X90434500Y-74432500D02*
X90610998Y-74256002D01*
X89556000Y-75311000D02*
X90434500Y-74432500D01*
D44*
%TO.N,+5V*%
X74155000Y-115433000D02*
X74168000Y-115446000D01*
X74155000Y-113030000D02*
X74155000Y-114059000D01*
X94488000Y-31958000D02*
X90210000Y-27680000D01*
X94488000Y-32894000D02*
X94488000Y-31958000D01*
D45*
X71710695Y-94202000D02*
X71710695Y-94913305D01*
D44*
X74155000Y-114059000D02*
X74155000Y-115433000D01*
X86614000Y-63754000D02*
X85344000Y-62484000D01*
X86614000Y-64008000D02*
X86614000Y-63754000D01*
X93916798Y-65372990D02*
X95932000Y-67388192D01*
X87978990Y-65372990D02*
X93916798Y-65372990D01*
X95932000Y-67388192D02*
X95932000Y-69850000D01*
X86614000Y-64008000D02*
X87978990Y-65372990D01*
D46*
X71628000Y-83312000D02*
X72898000Y-83312000D01*
X82296000Y-84582000D02*
X81152000Y-84582000D01*
X86913990Y-109000010D02*
X85170000Y-110744000D01*
X87849990Y-109000010D02*
X86913990Y-109000010D01*
X88900000Y-107950000D02*
X87849990Y-109000010D01*
X78740000Y-90652000D02*
X78740000Y-89916000D01*
X76708000Y-92684000D02*
X78092000Y-91300000D01*
X78092000Y-91300000D02*
X78740000Y-90652000D01*
X87758000Y-93980000D02*
X86868000Y-93980000D01*
X90174653Y-106675347D02*
X90174653Y-101087347D01*
X88900000Y-107950000D02*
X90174653Y-106675347D01*
X71340980Y-80230980D02*
X70104000Y-78994000D01*
X71340980Y-81754980D02*
X71340980Y-80230980D01*
X72898000Y-83312000D02*
X71340980Y-81754980D01*
D45*
X71710695Y-94913305D02*
X71710695Y-95167305D01*
X71374000Y-95504000D02*
X71374000Y-95758000D01*
X71710695Y-95167305D02*
X71374000Y-95504000D01*
D46*
X74930000Y-83312000D02*
X72898000Y-83312000D01*
D44*
%TO.N,-5V*%
X66294000Y-115254000D02*
X66421000Y-115381000D01*
X66294000Y-113030000D02*
X66294000Y-114046000D01*
D45*
X69110695Y-90309447D02*
X68533299Y-89732051D01*
X69110695Y-90802000D02*
X69110695Y-90309447D01*
D44*
X66294000Y-114046000D02*
X66294000Y-115254000D01*
D46*
X81152000Y-86232000D02*
X81026000Y-86106000D01*
X81152000Y-87376000D02*
X81152000Y-86232000D01*
X73152000Y-87122000D02*
X71626000Y-87122000D01*
X65532000Y-93472000D02*
X66040000Y-92964000D01*
X64770000Y-93472000D02*
X65532000Y-93472000D01*
X66040000Y-92225350D02*
X66305675Y-91959675D01*
X66040000Y-92964000D02*
X66040000Y-92225350D01*
X67310000Y-106680000D02*
X67310000Y-108204000D01*
X93980000Y-107950000D02*
X93980000Y-109474000D01*
X81406000Y-87122000D02*
X81152000Y-87376000D01*
X35180000Y-84710000D02*
X35306000Y-84836000D01*
X35180000Y-81534000D02*
X35180000Y-84710000D01*
X83312000Y-87122000D02*
X81406000Y-87122000D01*
D43*
%TO.N,Net-(C14-Pad1)*%
X85624000Y-103588834D02*
X85624000Y-105156000D01*
X86850834Y-102362000D02*
X85624000Y-103588834D01*
X88203000Y-102362000D02*
X86850834Y-102362000D01*
X87250000Y-106782000D02*
X85624000Y-105156000D01*
X87250000Y-107950000D02*
X87250000Y-106782000D01*
X81026000Y-105874000D02*
X80264000Y-106636000D01*
X81026000Y-103616000D02*
X81026000Y-105874000D01*
X84144000Y-106636000D02*
X80264000Y-106636000D01*
X85624000Y-105156000D02*
X84144000Y-106636000D01*
%TO.N,Net-(C20-Pad1)*%
X64199000Y-86195000D02*
X65812000Y-84582000D01*
X64199000Y-87376000D02*
X64199000Y-86195000D01*
X65786000Y-84556000D02*
X65812000Y-84582000D01*
X65786000Y-81788000D02*
X65786000Y-84556000D01*
X66613000Y-81788000D02*
X68391000Y-80010000D01*
X65786000Y-81788000D02*
X66613000Y-81788000D01*
%TO.N,Net-(C20-Pad2)*%
X67844990Y-78193990D02*
X68391000Y-78740000D01*
X65368532Y-78193990D02*
X67844990Y-78193990D01*
X65060990Y-78501532D02*
X65368532Y-78193990D01*
X64136000Y-81788000D02*
X65060990Y-80863010D01*
X58991000Y-67119000D02*
X61722000Y-69850000D01*
X58991000Y-66548000D02*
X58991000Y-67119000D01*
X65060990Y-80300990D02*
X65060990Y-78501532D01*
X65060990Y-80863010D02*
X65060990Y-80300990D01*
X91694000Y-66809999D02*
X89154000Y-69349999D01*
X91694000Y-66548000D02*
X91694000Y-66809999D01*
X64262000Y-81914000D02*
X64136000Y-81788000D01*
X64262000Y-84582000D02*
X64262000Y-81914000D01*
X62210020Y-69361980D02*
X61722000Y-69850000D01*
X84347980Y-69361980D02*
X62210020Y-69361980D01*
X84582000Y-69596000D02*
X84347980Y-69361980D01*
%TO.N,Net-(C21-Pad1)*%
X70104000Y-83058000D02*
X70104000Y-83058000D01*
X60960000Y-67056000D02*
X60960000Y-66490315D01*
X41459684Y-46990000D02*
X42065842Y-47596158D01*
X37338000Y-46990000D02*
X41459684Y-46990000D01*
X60960000Y-66490315D02*
X42065842Y-47596158D01*
D45*
X74311650Y-91602000D02*
X75298298Y-90615352D01*
X73110695Y-91602000D02*
X74311650Y-91602000D01*
D43*
X70104000Y-83623685D02*
X70808315Y-84328000D01*
X70104000Y-83058000D02*
X70104000Y-83623685D01*
X70808315Y-84328000D02*
X74676000Y-84328000D01*
X75220990Y-85074468D02*
X75744522Y-85598000D01*
X75220990Y-84872990D02*
X75220990Y-85074468D01*
X74676000Y-84328000D02*
X75220990Y-84872990D01*
X75744522Y-86158522D02*
X76708000Y-87122000D01*
X75744522Y-85598000D02*
X75744522Y-86158522D01*
D45*
%TO.N,SOFT_SYNC*%
X35688000Y-40512000D02*
X37338000Y-38862000D01*
X35688000Y-42926000D02*
X35688000Y-40512000D01*
X35788000Y-43026000D02*
X35688000Y-42926000D01*
X35788000Y-46990000D02*
X35788000Y-43026000D01*
D43*
%TO.N,Net-(C22-Pad2)*%
X81419000Y-94247000D02*
X79756000Y-92584000D01*
X82804000Y-94247000D02*
X81419000Y-94247000D01*
D45*
%TO.N,HARD_SYNC*%
X37338000Y-51054000D02*
X37338000Y-52070000D01*
X35688000Y-53720000D02*
X35688000Y-55118000D01*
X37338000Y-52070000D02*
X35688000Y-53720000D01*
X35688000Y-55118000D02*
X35688000Y-56008000D01*
X37338000Y-57658000D02*
X37338000Y-59182000D01*
X35688000Y-56008000D02*
X37338000Y-57658000D01*
%TO.N,Net-(C23-Pad1)*%
X73556002Y-90802000D02*
X73110695Y-90802000D01*
X75392002Y-88966000D02*
X73556002Y-90802000D01*
X76740000Y-88966000D02*
X75392002Y-88966000D01*
X35788000Y-63146000D02*
X35688000Y-63246000D01*
X35788000Y-59182000D02*
X35788000Y-62002000D01*
X35788000Y-62002000D02*
X35788000Y-63146000D01*
D43*
X75392002Y-87273000D02*
X73209002Y-85090000D01*
X75392002Y-88966000D02*
X75392002Y-87273000D01*
X73209002Y-85090000D02*
X70104000Y-85090000D01*
D45*
%TO.N,Net-(C26-Pad1)*%
X71710695Y-89579305D02*
X71710695Y-90202000D01*
X71882000Y-89408000D02*
X71710695Y-89579305D01*
X71456001Y-88199999D02*
X71882000Y-88625998D01*
X71882000Y-88625998D02*
X71882000Y-89408000D01*
X66828000Y-89695000D02*
X68323001Y-88199999D01*
X68323001Y-88199999D02*
X71456001Y-88199999D01*
X66828000Y-90170000D02*
X66828000Y-89695000D01*
D43*
%TO.N,Net-(C35-Pad1)*%
X38443990Y-75145990D02*
X38443990Y-75145990D01*
X35980010Y-75145990D02*
X38443990Y-75145990D01*
X35180000Y-75946000D02*
X35980010Y-75145990D01*
%TO.N,Net-(C35-Pad2)*%
X64236000Y-73380000D02*
X64262000Y-73406000D01*
X64936010Y-74206010D02*
X64136000Y-73406000D01*
X66869990Y-74206010D02*
X64936010Y-74206010D01*
X67416000Y-73660000D02*
X66869990Y-74206010D01*
X68391000Y-73660000D02*
X67416000Y-73660000D01*
X64236000Y-73306000D02*
X64136000Y-73406000D01*
X63460990Y-75681030D02*
X63460990Y-78318990D01*
X63460990Y-78318990D02*
X64136000Y-78994000D01*
X64936010Y-74206010D02*
X63460990Y-75681030D01*
X64136000Y-73206522D02*
X62454489Y-71525011D01*
X64136000Y-73406000D02*
X64136000Y-73206522D01*
X49150989Y-71525011D02*
X49048000Y-71628000D01*
X62454489Y-71525011D02*
X49150989Y-71525011D01*
%TO.N,Net-(C35-Pad1)*%
X66802000Y-72390000D02*
X65786000Y-73406000D01*
X68391000Y-72390000D02*
X66802000Y-72390000D01*
X53449999Y-71075001D02*
X65487001Y-71075001D01*
X65487001Y-71075001D02*
X66802000Y-72390000D01*
X53202988Y-70827990D02*
X53449999Y-71075001D01*
X48298010Y-70827990D02*
X53202988Y-70827990D01*
X47498000Y-71628000D02*
X48298010Y-70827990D01*
X38443990Y-75145990D02*
X39244000Y-75946000D01*
X46482000Y-72644000D02*
X47498000Y-71628000D01*
X46482000Y-72898000D02*
X46482000Y-72644000D01*
%TO.N,Net-(C36-Pad2)*%
X67440000Y-103378000D02*
X64770000Y-103378000D01*
X62394990Y-102885532D02*
X62394990Y-105600990D01*
X62702532Y-102577990D02*
X62394990Y-102885532D01*
X62394990Y-105600990D02*
X63220000Y-106426000D01*
X63969990Y-102577990D02*
X62702532Y-102577990D01*
X64770000Y-103378000D02*
X63969990Y-102577990D01*
X62471000Y-107175000D02*
X62445990Y-107200010D01*
X61912000Y-107734000D02*
X62471000Y-107175000D01*
X63220000Y-106426000D02*
X62471000Y-107175000D01*
X61912000Y-112204000D02*
X59308000Y-114808000D01*
X81402160Y-108610990D02*
X76047010Y-108610990D01*
X83944999Y-111153829D02*
X81402160Y-108610990D01*
X83944999Y-112138999D02*
X83944999Y-111153829D01*
X86106000Y-114300000D02*
X83944999Y-112138999D01*
X61939010Y-110961010D02*
X61912000Y-110934000D01*
X73696990Y-110961010D02*
X61939010Y-110961010D01*
X76047010Y-108610990D02*
X73696990Y-110961010D01*
X61912000Y-110934000D02*
X61912000Y-107734000D01*
X61912000Y-112204000D02*
X61912000Y-110934000D01*
%TO.N,Net-(C36-Pad1)*%
X65662000Y-106426000D02*
X64770000Y-106426000D01*
X67440000Y-104648000D02*
X65662000Y-106426000D01*
X63246000Y-107950000D02*
X64770000Y-106426000D01*
X63246000Y-108586000D02*
X63246000Y-107950000D01*
X64770000Y-105028000D02*
X63120000Y-103378000D01*
X64770000Y-106426000D02*
X64770000Y-105028000D01*
%TO.N,PWM+*%
X74168000Y-106426000D02*
X72390000Y-104648000D01*
X75184000Y-106426000D02*
X74168000Y-106426000D01*
D45*
X68680012Y-95677990D02*
X68223953Y-95677990D01*
X69710695Y-94647307D02*
X68680012Y-95677990D01*
X69710695Y-94202000D02*
X69710695Y-94647307D01*
X79756000Y-97054000D02*
X79730000Y-97028000D01*
X79756000Y-98298000D02*
X79756000Y-97054000D01*
D43*
X70656282Y-103889282D02*
X70656282Y-103001340D01*
X71415000Y-104648000D02*
X70656282Y-103889282D01*
X72390000Y-104648000D02*
X71415000Y-104648000D01*
X69596000Y-100838000D02*
X69596000Y-98806000D01*
%TO.N,Net-(C37-Pad2)*%
X73365000Y-103378000D02*
X72390000Y-103378000D01*
X76033990Y-102577990D02*
X74165010Y-102577990D01*
X74165010Y-102577990D02*
X73365000Y-103378000D01*
X76834000Y-103378000D02*
X76033990Y-102577990D01*
X81280000Y-101926998D02*
X80010000Y-103196998D01*
X81280000Y-97028000D02*
X81280000Y-101926998D01*
X80010000Y-104167002D02*
X79529002Y-104648000D01*
X80010000Y-103196998D02*
X80010000Y-104167002D01*
X79529002Y-104648000D02*
X76962000Y-104648000D01*
X76962000Y-104648000D02*
X76834000Y-104776000D01*
X76834000Y-104776000D02*
X76834000Y-106426000D01*
X76960000Y-104648000D02*
X76834000Y-104522000D01*
X76962000Y-104648000D02*
X76960000Y-104648000D01*
X76834000Y-104522000D02*
X76834000Y-104776000D01*
X76834000Y-103378000D02*
X76834000Y-104522000D01*
%TO.N,SQO*%
X96607990Y-99098010D02*
X97408000Y-98298000D01*
X93699010Y-99098010D02*
X96607990Y-99098010D01*
X93153000Y-98552000D02*
X93699010Y-99098010D01*
X97408000Y-95604000D02*
X97308000Y-95504000D01*
X97408000Y-98298000D02*
X97408000Y-95604000D01*
X95784000Y-93980000D02*
X93726000Y-93980000D01*
X97308000Y-95504000D02*
X95784000Y-93980000D01*
X91440000Y-107060000D02*
X91440000Y-101092000D01*
X92330000Y-107950000D02*
X91440000Y-107060000D01*
X91440000Y-98552000D02*
X93153000Y-98552000D01*
%TO.N,Net-(C39-Pad1)*%
X95732000Y-107188000D02*
X95732000Y-106146000D01*
X94488000Y-104902000D02*
X93153000Y-104902000D01*
X95732000Y-106146000D02*
X94488000Y-104902000D01*
X95250000Y-104140000D02*
X94488000Y-104902000D01*
X95695000Y-104140000D02*
X95250000Y-104140000D01*
X95732000Y-108686000D02*
X95732000Y-107188000D01*
X106934000Y-119888000D02*
X95732000Y-108686000D01*
D45*
%TO.N,MIXO*%
X73385998Y-95504000D02*
X74422000Y-95504000D01*
X72510695Y-94628697D02*
X73385998Y-95504000D01*
X72510695Y-94202000D02*
X72510695Y-94628697D01*
D43*
X93445010Y-103339990D02*
X93153000Y-103632000D01*
X96544990Y-103339990D02*
X94526010Y-103339990D01*
X97345000Y-104140000D02*
X96544990Y-103339990D01*
X97282000Y-104203000D02*
X97345000Y-104140000D01*
X97282000Y-107188000D02*
X97282000Y-104203000D01*
X94526010Y-103339990D02*
X93445010Y-103339990D01*
X74676000Y-95758000D02*
X74422000Y-95504000D01*
X80010000Y-95758000D02*
X74676000Y-95758000D01*
D44*
%TO.N,Net-(D1-Pad2)*%
X110236000Y-75184000D02*
X107696000Y-75184000D01*
X102360000Y-66294000D02*
X102362000Y-66294000D01*
X106145999Y-73633999D02*
X107696000Y-75184000D01*
X106145999Y-70077999D02*
X106145999Y-73633999D01*
X102362000Y-66294000D02*
X106145999Y-70077999D01*
%TO.N,Net-(D2-Pad2)*%
X110236000Y-77724000D02*
X107696000Y-77724000D01*
X103378000Y-77724000D02*
X102108000Y-78994000D01*
X107696000Y-77724000D02*
X103378000Y-77724000D01*
%TO.N,Net-(D3-Pad1)*%
X110236000Y-87884000D02*
X107696000Y-87884000D01*
X105662000Y-87884000D02*
X102106000Y-91440000D01*
X107696000Y-87884000D02*
X105662000Y-87884000D01*
D46*
%TO.N,Net-(D13-Pad2)*%
X112776000Y-44832000D02*
X112522000Y-45086000D01*
X112776000Y-43942000D02*
X112776000Y-44832000D01*
%TO.N,Net-(D14-Pad2)*%
X109220000Y-45086000D02*
X109220000Y-43942000D01*
%TO.N,Net-(D15-Pad2)*%
X105664000Y-44832000D02*
X105918000Y-45086000D01*
X105664000Y-43942000D02*
X105664000Y-44832000D01*
D45*
%TO.N,F*%
X96709999Y-43244001D02*
X106680000Y-33274000D01*
X96709999Y-45960003D02*
X96709999Y-43244001D01*
X93140002Y-49530000D02*
X96709999Y-45960003D01*
X85090000Y-49530000D02*
X93140002Y-49530000D01*
%TO.N,G*%
X98082122Y-52070000D02*
X102108000Y-48044122D01*
X85090000Y-52070000D02*
X98082122Y-52070000D01*
X102108000Y-40386000D02*
X106680000Y-35814000D01*
X102108000Y-48044122D02*
X102108000Y-40386000D01*
%TO.N,E*%
X85090000Y-54610000D02*
X97790000Y-54610000D01*
X97790000Y-54610000D02*
X103632000Y-48768000D01*
X103632000Y-41402000D02*
X106680000Y-38354000D01*
X103632000Y-48768000D02*
X103632000Y-41402000D01*
%TO.N,D*%
X85090000Y-57150000D02*
X97790000Y-57150000D01*
X97790000Y-57150000D02*
X104648000Y-50292000D01*
X104648000Y-42926000D02*
X106680000Y-40894000D01*
X104648000Y-50292000D02*
X104648000Y-42926000D01*
%TO.N,DP*%
X85090000Y-46990000D02*
X86360000Y-46990000D01*
%TO.N,C*%
X85153000Y-44450000D02*
X86360000Y-44450000D01*
%TO.N,B*%
X85090000Y-41910000D02*
X86360000Y-41910000D01*
%TO.N,A*%
X85090000Y-39370000D02*
X86360000Y-39370000D01*
D43*
%TO.N,Net-(J2-Pad3)*%
X39922001Y-111643999D02*
X32186000Y-119380000D01*
X54298001Y-111643999D02*
X39922001Y-111643999D01*
X55198000Y-110744000D02*
X54298001Y-111643999D01*
%TO.N,Net-(J3-Pad3)*%
X57758468Y-65747990D02*
X35526010Y-65747990D01*
X58066010Y-66055532D02*
X57758468Y-65747990D01*
X35526010Y-65747990D02*
X32186000Y-69088000D01*
X58066010Y-68306010D02*
X58066010Y-66055532D01*
X59610000Y-69850000D02*
X58066010Y-68306010D01*
%TO.N,Net-(J4-Pad3)*%
X35297001Y-89217001D02*
X32186000Y-86106000D01*
X49803791Y-89217001D02*
X35297001Y-89217001D01*
X55452000Y-83568792D02*
X49803791Y-89217001D01*
X55452000Y-82296000D02*
X55452000Y-83568792D01*
%TO.N,Net-(J5-Pad3)*%
X41910000Y-93726000D02*
X43942000Y-91694000D01*
X48611037Y-91694000D02*
X53691037Y-86614000D01*
X53691037Y-86614000D02*
X54610000Y-86614000D01*
X43942000Y-91694000D02*
X48611037Y-91694000D01*
%TO.N,SIN_OUT*%
X111578000Y-109474000D02*
X108584000Y-109474000D01*
%TO.N,SQUARE_OUT*%
X111578000Y-99060000D02*
X108584000Y-99060000D01*
%TO.N,MIX_OUT*%
X108584000Y-119888000D02*
X111578000Y-119888000D01*
D45*
%TO.N,Net-(J10-Pad3)*%
X33148000Y-41402000D02*
X35688000Y-38862000D01*
X32186000Y-41402000D02*
X33148000Y-41402000D01*
%TO.N,Net-(J11-Pad3)*%
X33456000Y-51054000D02*
X32186000Y-52324000D01*
X35688000Y-51054000D02*
X33456000Y-51054000D01*
D43*
%TO.N,Net-(J12-Pad3)*%
X60854143Y-98954143D02*
X60706000Y-98806000D01*
X64646977Y-98954143D02*
X60854143Y-98954143D01*
X65260834Y-99568000D02*
X64646977Y-98954143D01*
X67440000Y-99568000D02*
X65260834Y-99568000D01*
%TO.N,Net-(Q1-Pad3)*%
X74359000Y-74930000D02*
X75883000Y-73406000D01*
X73341000Y-74930000D02*
X74359000Y-74930000D01*
X82359488Y-73396010D02*
X80083478Y-71120000D01*
X84632778Y-73396010D02*
X82359488Y-73396010D01*
X87172778Y-75936010D02*
X84632778Y-73396010D01*
X92211990Y-75936010D02*
X87172778Y-75936010D01*
X94234000Y-73914000D02*
X92211990Y-75936010D01*
X80083478Y-71120000D02*
X72390000Y-71120000D01*
X72390000Y-71120000D02*
X71628000Y-71882000D01*
X72366000Y-74930000D02*
X73341000Y-74930000D01*
X71628000Y-74192000D02*
X72366000Y-74930000D01*
X71628000Y-71882000D02*
X71628000Y-74192000D01*
%TO.N,Net-(Q2-Pad1)*%
X79502000Y-87376000D02*
X79502000Y-84582000D01*
X77515001Y-89362999D02*
X79502000Y-87376000D01*
X77515001Y-90090999D02*
X77515001Y-89362999D01*
X76740000Y-90866000D02*
X77515001Y-90090999D01*
%TO.N,PWM_CV*%
X57658000Y-110784000D02*
X57698000Y-110744000D01*
X57658000Y-114808000D02*
X57658000Y-110784000D01*
%TO.N,PWM_OFFSET*%
X87756000Y-110830000D02*
X87670000Y-110744000D01*
X87756000Y-114300000D02*
X87756000Y-110830000D01*
%TO.N,MIX_CV*%
X57110000Y-66779000D02*
X57341000Y-66548000D01*
X57110000Y-69850000D02*
X57110000Y-66779000D01*
D45*
%TO.N,MIX_OFFSET*%
X93432000Y-66636000D02*
X93344000Y-66548000D01*
X93432000Y-69850000D02*
X93432000Y-66636000D01*
D43*
%TO.N,VREF*%
X56642000Y-103378000D02*
X56642000Y-100330000D01*
X59056000Y-100330000D02*
X57912000Y-100330000D01*
X52578000Y-101346000D02*
X53340000Y-100584000D01*
X53340000Y-100584000D02*
X53340000Y-99822000D01*
X53340000Y-99822000D02*
X54102000Y-99060000D01*
X55372000Y-99060000D02*
X56642000Y-100330000D01*
X54102000Y-99060000D02*
X55372000Y-99060000D01*
X88203000Y-104902000D02*
X88203000Y-104329000D01*
X88203000Y-104329000D02*
X88203000Y-103632000D01*
X80513844Y-95009010D02*
X75451010Y-95009010D01*
X82055010Y-96550176D02*
X80513844Y-95009010D01*
X82055010Y-98746695D02*
X82055010Y-96550176D01*
X84462315Y-101154000D02*
X82055010Y-98746695D01*
X85028000Y-101154000D02*
X84462315Y-101154000D01*
X57912000Y-100330000D02*
X56642000Y-100330000D01*
D45*
X73745843Y-93811842D02*
X73760705Y-93796980D01*
X74229999Y-94295999D02*
X73745843Y-93811842D01*
X73760705Y-93796980D02*
X73760705Y-93318705D01*
X73644000Y-93202000D02*
X73760705Y-93318705D01*
X73110695Y-93202000D02*
X73644000Y-93202000D01*
X74943010Y-95009010D02*
X75451010Y-95009010D01*
X74229999Y-94295999D02*
X74943010Y-95009010D01*
D43*
X84555010Y-93748824D02*
X83281824Y-95022010D01*
X84555010Y-84752008D02*
X84555010Y-93748824D01*
X80526844Y-95022010D02*
X80513844Y-95009010D01*
X83184982Y-83381980D02*
X84555010Y-84752008D01*
X78321020Y-83381980D02*
X83184982Y-83381980D01*
X77596000Y-84107000D02*
X78321020Y-83381980D01*
X83281824Y-95022010D02*
X80526844Y-95022010D01*
X77596000Y-84582000D02*
X77596000Y-84107000D01*
%TO.N,TZFM_TZPM_IN*%
X87756000Y-82382000D02*
X87670000Y-82296000D01*
X87756000Y-85852000D02*
X87756000Y-82382000D01*
D45*
%TO.N,Net-(R16-Pad2)*%
X84094000Y-68072000D02*
X86614000Y-70592000D01*
X86614000Y-70592000D02*
X86614000Y-72644000D01*
X83694000Y-68072000D02*
X84094000Y-68072000D01*
X83758000Y-75184000D02*
X83631000Y-75311000D01*
X85344000Y-75184000D02*
X83758000Y-75184000D01*
D43*
X82330990Y-78392990D02*
X82330990Y-76165010D01*
X83440000Y-79502000D02*
X82330990Y-78392990D01*
X83185000Y-75311000D02*
X83631000Y-75311000D01*
X82330990Y-76165010D02*
X83185000Y-75311000D01*
D45*
%TO.N,LIN_FREQ*%
X74510428Y-92600798D02*
X75433371Y-92600798D01*
X74311630Y-92402000D02*
X74510428Y-92600798D01*
X73110695Y-92402000D02*
X74311630Y-92402000D01*
X74422000Y-87376000D02*
X72898000Y-85852000D01*
X74422000Y-87630000D02*
X74422000Y-87376000D01*
X80264000Y-79628000D02*
X81152000Y-78740000D01*
X80264000Y-79756000D02*
X80264000Y-79628000D01*
D43*
%TO.N,Net-(R22-Pad2)*%
X43499000Y-75946000D02*
X43753000Y-76200000D01*
X40894000Y-75946000D02*
X43499000Y-75946000D01*
X40894000Y-75946000D02*
X40894000Y-73152000D01*
X44728000Y-76200000D02*
X43753000Y-76200000D01*
X45053010Y-75874990D02*
X44728000Y-76200000D01*
X45053010Y-74583242D02*
X45053010Y-75874990D01*
X42371748Y-71901980D02*
X45053010Y-74583242D01*
X37668020Y-71901980D02*
X42371748Y-71901980D01*
X36893000Y-72677000D02*
X37668020Y-71901980D01*
X36893000Y-73152000D02*
X36893000Y-72677000D01*
%TO.N,Net-(R26-Pad1)*%
X35180000Y-77596000D02*
X36830000Y-75946000D01*
X35180000Y-78740000D02*
X35180000Y-77596000D01*
X36450000Y-80010000D02*
X35180000Y-78740000D01*
X43753000Y-80010000D02*
X36450000Y-80010000D01*
D45*
%TO.N,TRI_MIX*%
X69710695Y-90202000D02*
X69710695Y-89522695D01*
X69710695Y-89522695D02*
X69088000Y-88900000D01*
D43*
X62039000Y-79756000D02*
X62039000Y-80315969D01*
X61258999Y-83521001D02*
X60198000Y-84582000D01*
X61612001Y-83521001D02*
X61258999Y-83521001D01*
X62039000Y-83094002D02*
X61612001Y-83521001D01*
X62039000Y-80315969D02*
X62039000Y-83094002D01*
%TO.N,Net-(R28-Pad1)*%
X48995010Y-76492010D02*
X48703000Y-76200000D01*
X52285990Y-76492010D02*
X48995010Y-76492010D01*
X53086000Y-75692000D02*
X52285990Y-76492010D01*
X53086000Y-72644000D02*
X53086000Y-75692000D01*
%TO.N,Net-(R29-Pad1)*%
X39244000Y-81534000D02*
X36830000Y-81534000D01*
X40044010Y-80733990D02*
X39244000Y-81534000D01*
X43206990Y-80733990D02*
X40044010Y-80733990D01*
X43753000Y-81280000D02*
X43206990Y-80733990D01*
%TO.N,Net-(R32-Pad2)*%
X41910000Y-82550000D02*
X40894000Y-81534000D01*
X43753000Y-82550000D02*
X41910000Y-82550000D01*
X46801000Y-85598000D02*
X43753000Y-82550000D01*
X47118000Y-85598000D02*
X46801000Y-85598000D01*
%TO.N,Net-(R33-Pad1)*%
X48957000Y-81534000D02*
X48703000Y-81280000D01*
X51436000Y-81534000D02*
X48957000Y-81534000D01*
X53086000Y-83184000D02*
X51436000Y-81534000D01*
X53086000Y-84582000D02*
X53086000Y-83184000D01*
%TO.N,Net-(R34-Pad2)*%
X48768000Y-85598000D02*
X48768000Y-88392000D01*
X47689822Y-80010000D02*
X48703000Y-80010000D01*
X46952981Y-80746841D02*
X47689822Y-80010000D01*
X46952980Y-83782980D02*
X46952981Y-80746841D01*
X48768000Y-85598000D02*
X46952980Y-83782980D01*
D45*
%TO.N,PULSE_MIX*%
X70510695Y-90202000D02*
X70510695Y-89509305D01*
X70510695Y-89509305D02*
X70866000Y-89154000D01*
X70866000Y-89154000D02*
X71120000Y-88900000D01*
D43*
X62827010Y-73115010D02*
X62102000Y-72390000D01*
X62827010Y-78321420D02*
X62827010Y-73115010D01*
X63214020Y-78708430D02*
X62827010Y-78321420D01*
X63214020Y-84105980D02*
X63214020Y-78708430D01*
X62738000Y-84582000D02*
X63214020Y-84105980D01*
D45*
%TO.N,SAW_MIX*%
X70110695Y-88906695D02*
X70104000Y-88900000D01*
X70110695Y-90202000D02*
X70110695Y-88906695D01*
D43*
X62102000Y-78232820D02*
X62102000Y-76200000D01*
X62764010Y-78894830D02*
X62102000Y-78232820D01*
X62764010Y-83285990D02*
X62764010Y-78894830D01*
X61468000Y-84582000D02*
X62764010Y-83285990D01*
%TO.N,HFTRIM*%
X58255990Y-96481990D02*
X49314010Y-96481990D01*
X59056000Y-97282000D02*
X58255990Y-96481990D01*
X49314010Y-96481990D02*
X48514000Y-97282000D01*
X48514000Y-97282000D02*
X46990000Y-97282000D01*
X46990000Y-97282000D02*
X45974000Y-96266000D01*
X45974000Y-94742000D02*
X47752000Y-92964000D01*
X45974000Y-96266000D02*
X45974000Y-94742000D01*
D45*
%TO.N,CENTER_PITCH*%
X57150000Y-42966000D02*
X57110000Y-42926000D01*
X57150000Y-46228000D02*
X57150000Y-42966000D01*
D43*
%TO.N,VOLT_PER_OCTAVE_IN*%
X65024000Y-97028000D02*
X64770000Y-97282000D01*
X67440000Y-97028000D02*
X65024000Y-97028000D01*
X67440000Y-98298000D02*
X67440000Y-97028000D01*
%TO.N,LOG_FM_IN*%
X72390000Y-98298000D02*
X72390000Y-97028000D01*
X75121000Y-97028000D02*
X72390000Y-97028000D01*
D45*
%TO.N,OCTAVE_SHIFT*%
X97790000Y-46060000D02*
X97710000Y-45980000D01*
X97790000Y-49530000D02*
X97790000Y-46060000D01*
D43*
%TO.N,Net-(R43-Pad1)*%
X54102000Y-97282000D02*
X54992000Y-97282000D01*
X50038000Y-101346000D02*
X54102000Y-97282000D01*
%TO.N,Net-(R45-Pad2)*%
X54992000Y-101980000D02*
X50038000Y-106934000D01*
X54992000Y-100330000D02*
X54992000Y-101980000D01*
X50038000Y-106934000D02*
X47498000Y-106934000D01*
D45*
%TO.N,TRO*%
X69110695Y-94211305D02*
X68580000Y-94742000D01*
X69110695Y-93602000D02*
X69110695Y-94211305D01*
X70110695Y-95243305D02*
X70110695Y-94202000D01*
X69596000Y-95758000D02*
X70110695Y-95243305D01*
D43*
X60578000Y-106426000D02*
X61722000Y-105282000D01*
X63044112Y-101600000D02*
X63246000Y-101600000D01*
X61722000Y-102922112D02*
X63044112Y-101600000D01*
X61722000Y-103632000D02*
X61722000Y-102922112D01*
X61722000Y-105282000D02*
X61722000Y-103632000D01*
D45*
%TO.N,Net-(R47-Pad2)*%
X68596000Y-93202000D02*
X67818000Y-93980000D01*
X69110695Y-93202000D02*
X68596000Y-93202000D01*
D43*
X58928000Y-106426000D02*
X57404000Y-107950000D01*
X56516000Y-107950000D02*
X54992000Y-106426000D01*
X57404000Y-107950000D02*
X56516000Y-107950000D01*
X54992000Y-106426000D02*
X54992000Y-103378000D01*
X59944000Y-105410000D02*
X58928000Y-106426000D01*
X59944000Y-105156000D02*
X59944000Y-105410000D01*
D45*
%TO.N,Net-(R51-Pad2)*%
X72110695Y-95218647D02*
X72393024Y-95500976D01*
X72110695Y-94202000D02*
X72110695Y-95218647D01*
D43*
X79756000Y-94234000D02*
X77978000Y-94234000D01*
D45*
%TO.N,Net-(R52-Pad2)*%
X67980000Y-92802000D02*
X67818000Y-92964000D01*
X69110695Y-92802000D02*
X67980000Y-92802000D01*
D43*
X60706000Y-103250000D02*
X60578000Y-103378000D01*
X60706000Y-101854000D02*
X60706000Y-103250000D01*
%TO.N,Net-(R55-Pad2)*%
X92076000Y-93980000D02*
X90678000Y-93980000D01*
X90678000Y-93980000D02*
X89408000Y-93980000D01*
D45*
X71310695Y-94202000D02*
X71310695Y-94805305D01*
X70673999Y-95442001D02*
X70673999Y-96073999D01*
X71310695Y-94805305D02*
X70673999Y-95442001D01*
X70725975Y-96125975D02*
X70725975Y-97168025D01*
X70673999Y-96073999D02*
X70725975Y-96125975D01*
D43*
X88138000Y-95250000D02*
X89408000Y-93980000D01*
X87668010Y-95719990D02*
X88138000Y-95250000D01*
X83656532Y-95719990D02*
X87668010Y-95719990D01*
X82799347Y-96577175D02*
X83656532Y-95719990D01*
X82799347Y-97794653D02*
X82799347Y-96577175D01*
%TO.N,Net-(R59-Pad1)*%
X86486000Y-98552000D02*
X85724000Y-99314000D01*
X88203000Y-98552000D02*
X86486000Y-98552000D01*
X84454000Y-96520000D02*
X86486000Y-98552000D01*
X84074000Y-96520000D02*
X84454000Y-96520000D01*
D45*
%TO.N,SINO*%
X73110695Y-94192695D02*
X73660000Y-94742000D01*
X73110695Y-93602000D02*
X73110695Y-94192695D01*
D43*
X84074000Y-98044000D02*
X84074000Y-99314000D01*
%TO.N,Net-(R64-Pad1)*%
X86486000Y-97282000D02*
X85724000Y-96520000D01*
X88203000Y-97282000D02*
X86614000Y-97282000D01*
X86614000Y-97282000D02*
X86486000Y-97282000D01*
X88483010Y-97001990D02*
X88203000Y-97282000D01*
X107659010Y-108748990D02*
X107659010Y-98567532D01*
X106934000Y-109474000D02*
X107659010Y-108748990D01*
X93308532Y-93179990D02*
X93764010Y-93179990D01*
X93000990Y-93487532D02*
X93308532Y-93179990D01*
X93000990Y-94272488D02*
X93000990Y-93487532D01*
X89991478Y-97282000D02*
X93000990Y-94272488D01*
X88203000Y-97282000D02*
X89991478Y-97282000D01*
X102271468Y-93179990D02*
X93764010Y-93179990D01*
X102271468Y-93179990D02*
X104863990Y-93179990D01*
X107659010Y-95975010D02*
X107659010Y-98567532D01*
X104863990Y-93179990D02*
X107659010Y-95975010D01*
D44*
%TO.N,Net-(R68-Pad1)*%
X94390192Y-34544000D02*
X94488000Y-34544000D01*
X91440000Y-31410000D02*
X87710000Y-27680000D01*
X91440000Y-32894000D02*
X91440000Y-31410000D01*
X94488000Y-34544000D02*
X93472000Y-34544000D01*
X91822000Y-32894000D02*
X91440000Y-32894000D01*
X93472000Y-34544000D02*
X91822000Y-32894000D01*
%TO.N,Net-(R77-Pad1)*%
X91440000Y-34926000D02*
X89662000Y-36704000D01*
X91440000Y-34544000D02*
X91440000Y-34926000D01*
X87710000Y-38181000D02*
X87710000Y-45980000D01*
X89187000Y-36704000D02*
X87710000Y-38181000D01*
X89662000Y-36704000D02*
X89187000Y-36704000D01*
%TO.N,Net-(R79-Pad1)*%
X90210000Y-38902000D02*
X89662000Y-38354000D01*
X90210000Y-45980000D02*
X90210000Y-38902000D01*
X89759808Y-38354000D02*
X89662000Y-38354000D01*
X89662000Y-38354000D02*
X90424000Y-38354000D01*
X92011000Y-36767000D02*
X92964000Y-36767000D01*
X90424000Y-38354000D02*
X92011000Y-36767000D01*
%TO.N,Net-(R82-Pad1)*%
X92710000Y-38671000D02*
X92964000Y-38417000D01*
X92710000Y-45980000D02*
X92710000Y-38671000D01*
X93061808Y-38417000D02*
X92964000Y-38417000D01*
X92964000Y-38417000D02*
X93917000Y-38417000D01*
X95630000Y-36704000D02*
X96266000Y-36704000D01*
X93917000Y-38417000D02*
X95630000Y-36704000D01*
D45*
%TO.N,Net-(RV2-Pad1)*%
X78015990Y-93434010D02*
X78232000Y-93218000D01*
X74662624Y-93434010D02*
X78015990Y-93434010D01*
X74030614Y-92802000D02*
X74662624Y-93434010D01*
X73110695Y-92802000D02*
X74030614Y-92802000D01*
D43*
X78486000Y-97028000D02*
X78232000Y-96774000D01*
X78486000Y-99387999D02*
X78486000Y-97028000D01*
D45*
%TO.N,Net-(RV3-Pad3)*%
X68164000Y-91602000D02*
X67818000Y-91948000D01*
X69110695Y-91602000D02*
X68164000Y-91602000D01*
D43*
X58166000Y-95504000D02*
X60452000Y-93218000D01*
X47752000Y-95504000D02*
X58166000Y-95504000D01*
%TO.N,Net-(RV8-Pad2)*%
X65704394Y-98229142D02*
X61907142Y-98229142D01*
X66418242Y-98942990D02*
X65704394Y-98229142D01*
X70639980Y-98833980D02*
X70639980Y-98791442D01*
X71374000Y-99568000D02*
X70639980Y-98833980D01*
X72390000Y-99568000D02*
X71374000Y-99568000D01*
X68441778Y-98942990D02*
X68740010Y-98644758D01*
X66418242Y-98942990D02*
X68441778Y-98942990D01*
X68740010Y-98644758D02*
X68740010Y-98391990D01*
X69109269Y-98022731D02*
X69871269Y-98022731D01*
X68740010Y-98391990D02*
X69109269Y-98022731D01*
X70639980Y-98791442D02*
X69871269Y-98022731D01*
%TO.N,Net-(D4-Pad2)*%
X68326000Y-83314000D02*
X68328000Y-83312000D01*
X68326000Y-87122000D02*
X68326000Y-83314000D01*
X69691010Y-81948990D02*
X68328000Y-83312000D01*
X69691010Y-79663242D02*
X69691010Y-81948990D01*
X69392778Y-79365010D02*
X69691010Y-79663242D01*
X66157010Y-79365010D02*
X69392778Y-79365010D01*
X65786000Y-78994000D02*
X66157010Y-79365010D01*
X68072000Y-87376000D02*
X68326000Y-87122000D01*
X65849000Y-87376000D02*
X68072000Y-87376000D01*
%TO.N,Net-(D6-Pad1)*%
X63502000Y-109980000D02*
X63246000Y-110236000D01*
X67310000Y-109980000D02*
X63502000Y-109980000D01*
X67312000Y-109982000D02*
X67310000Y-109980000D01*
X72390000Y-109982000D02*
X67312000Y-109982000D01*
X72845478Y-109982000D02*
X72390000Y-109982000D01*
X75909010Y-106918468D02*
X72845478Y-109982000D01*
X75909010Y-103703010D02*
X75909010Y-106918468D01*
X75584000Y-103378000D02*
X75909010Y-103703010D01*
X75184000Y-103378000D02*
X75584000Y-103378000D01*
%TO.N,Net-(D10-Pad2)*%
X35052000Y-73152000D02*
X31750000Y-76454000D01*
X35243000Y-73152000D02*
X35052000Y-73152000D01*
X35243000Y-71945000D02*
X35306000Y-71882000D01*
X35243000Y-73152000D02*
X35243000Y-71945000D01*
X54610000Y-80264000D02*
X55118000Y-79756000D01*
X54102000Y-80264000D02*
X54610000Y-80264000D01*
%TO.N,Net-(D8-Pad2)*%
X30824999Y-74079001D02*
X31750000Y-73154000D01*
X31750000Y-82040000D02*
X30824999Y-81114999D01*
X37618010Y-73644468D02*
X37094478Y-74168000D01*
X37618010Y-73560512D02*
X37618010Y-73644468D01*
X38826532Y-72351990D02*
X37618010Y-73560512D01*
X41474990Y-72351990D02*
X38826532Y-72351990D01*
X43753000Y-74630000D02*
X41474990Y-72351990D01*
X43753000Y-74930000D02*
X43753000Y-74630000D01*
X37094478Y-74168000D02*
X34672410Y-74168000D01*
X34672410Y-74168000D02*
X33020000Y-75820410D01*
X33020000Y-76819002D02*
X32610001Y-77229001D01*
X33020000Y-75820410D02*
X33020000Y-76819002D01*
X30928999Y-77229001D02*
X30824999Y-77125001D01*
X32610001Y-77229001D02*
X30928999Y-77229001D01*
X30824999Y-77125001D02*
X30824999Y-74079001D01*
X30824999Y-81114999D02*
X30824999Y-77125001D01*
%TO.N,Net-(D9-Pad2)*%
X38443990Y-73952010D02*
X39244000Y-73152000D01*
X31750000Y-78740000D02*
X32512000Y-78740000D01*
X33782000Y-77470000D02*
X33782000Y-75946000D01*
X32512000Y-78740000D02*
X33782000Y-77470000D01*
X37777990Y-74618010D02*
X38291000Y-74105000D01*
X35109990Y-74618010D02*
X37777990Y-74618010D01*
X33782000Y-75946000D02*
X35109990Y-74618010D01*
X38291000Y-74105000D02*
X38443990Y-73952010D01*
X49704778Y-75555010D02*
X47361010Y-75555010D01*
X49841768Y-75692000D02*
X49704778Y-75555010D01*
X51436000Y-75692000D02*
X49841768Y-75692000D01*
X44704000Y-72898000D02*
X44450000Y-72898000D01*
X47361010Y-75555010D02*
X44704000Y-72898000D01*
%TO.N,Net-(D10-Pad1)*%
X58418000Y-79756000D02*
X60389000Y-79756000D01*
%TO.N,Net-(D11-Pad1)*%
X58418000Y-72390000D02*
X60452000Y-72390000D01*
%TO.N,Net-(D11-Pad2)*%
X50989000Y-72644000D02*
X48703000Y-74930000D01*
X51436000Y-72644000D02*
X50989000Y-72644000D01*
X55893001Y-73165001D02*
X55118000Y-72390000D01*
X55893001Y-80616001D02*
X55893001Y-73165001D01*
X55438003Y-81070999D02*
X55893001Y-80616001D01*
X53549001Y-81070999D02*
X55438003Y-81070999D01*
X53086000Y-81534000D02*
X53549001Y-81070999D01*
X52236010Y-72097990D02*
X51436000Y-72898000D01*
X54571990Y-72097990D02*
X52236010Y-72097990D01*
X55118000Y-72644000D02*
X54571990Y-72097990D01*
%TO.N,Net-(D12-Pad2)*%
X47402990Y-81626758D02*
X48326232Y-82550000D01*
X47402990Y-80933242D02*
X47402990Y-81626758D01*
X47681242Y-80654990D02*
X47402990Y-80933242D01*
X52423844Y-80654990D02*
X47681242Y-80654990D01*
X55118000Y-77960834D02*
X52423844Y-80654990D01*
X48326232Y-82550000D02*
X48703000Y-82550000D01*
X55118000Y-76200000D02*
X55118000Y-77960834D01*
X50735000Y-84582000D02*
X48703000Y-82550000D01*
X51436000Y-84582000D02*
X50735000Y-84582000D01*
%TO.N,Net-(D12-Pad1)*%
X60452000Y-76200000D02*
X58418000Y-76200000D01*
%TO.N,TUNER_SIGNAL*%
X94742000Y-97282000D02*
X93153000Y-97282000D01*
X95758000Y-95504000D02*
X95758000Y-96266000D01*
X104502001Y-96628001D02*
X106934000Y-99060000D01*
X98697999Y-96628001D02*
X104502001Y-96628001D01*
X98298000Y-97028000D02*
X98697999Y-96628001D01*
X95758000Y-96266000D02*
X95758000Y-97282000D01*
X94742000Y-97282000D02*
X95758000Y-97282000D01*
X95758000Y-98298000D02*
X95758000Y-97282000D01*
X64374998Y-58928000D02*
X64882998Y-58420000D01*
X61468000Y-58928000D02*
X64374998Y-58928000D01*
X64882998Y-58420000D02*
X76454000Y-58420000D01*
X95359001Y-55735001D02*
X95504000Y-55880000D01*
X79138999Y-55735001D02*
X95359001Y-55735001D01*
X76454000Y-58420000D02*
X79138999Y-55735001D01*
X104902000Y-96228002D02*
X104502001Y-96628001D01*
X104902000Y-94488000D02*
X104902000Y-96228002D01*
D45*
%TO.N,VOLT_PER_OCTAVE*%
X67527998Y-91202000D02*
X67117999Y-91611999D01*
X69110695Y-91202000D02*
X67527998Y-91202000D01*
X66758001Y-93639997D02*
X67117999Y-93279999D01*
X66758001Y-93643999D02*
X66758001Y-93639997D01*
X67117999Y-91611999D02*
X67117999Y-93279999D01*
X60241999Y-50969999D02*
X57150000Y-47878000D01*
X97579999Y-50969999D02*
X60241999Y-50969999D01*
X97790000Y-51180000D02*
X97579999Y-50969999D01*
D43*
X59905990Y-98082010D02*
X60706000Y-97282000D01*
X56642000Y-97282000D02*
X57442010Y-98082010D01*
X63120000Y-97282000D02*
X60706000Y-97282000D01*
D45*
X65342000Y-95060000D02*
X63120000Y-97282000D01*
D43*
X56677001Y-88181835D02*
X56677001Y-73116999D01*
X66104000Y-94298000D02*
X62793166Y-94298000D01*
D45*
X66758001Y-93643999D02*
X66104000Y-94298000D01*
D43*
X62793166Y-94298000D02*
X56677001Y-88181835D01*
D45*
X66104000Y-94298000D02*
X65342000Y-95060000D01*
D43*
X57150000Y-49022000D02*
X57150000Y-47878000D01*
X59220010Y-98844010D02*
X59220010Y-98082010D01*
X60706000Y-100330000D02*
X59220010Y-98844010D01*
X59220010Y-98082010D02*
X59905990Y-98082010D01*
X57442010Y-98082010D02*
X59220010Y-98082010D01*
X74875990Y-98923010D02*
X76771000Y-97028000D01*
X71089990Y-98644758D02*
X71368242Y-98923010D01*
X71089990Y-98605042D02*
X71089990Y-98644758D01*
X71368242Y-98923010D02*
X74875990Y-98923010D01*
X68887938Y-96402990D02*
X71089990Y-98605042D01*
X66684990Y-96402990D02*
X68887938Y-96402990D01*
X65342000Y-95060000D02*
X66684990Y-96402990D01*
%TD*%
M02*
