%TF.GenerationSoftware,KiCad,Pcbnew,7.0.2*%
%TF.CreationDate,2023-05-23T13:36:19-04:00*%
%TF.ProjectId,SSI2130_Oscillator,53534932-3133-4305-9f4f-7363696c6c61,rev?*%
%TF.SameCoordinates,Original*%
%TF.FileFunction,Soldermask,Top*%
%TF.FilePolarity,Negative*%
%FSLAX46Y46*%
G04 Gerber Fmt 4.6, Leading zero omitted, Abs format (unit mm)*
G04 Created by KiCad (PCBNEW 7.0.2) date 2023-05-23 13:36:19*
%MOMM*%
%LPD*%
G01*
G04 APERTURE LIST*
G04 Aperture macros list*
%AMRoundRect*
0 Rectangle with rounded corners*
0 $1 Rounding radius*
0 $2 $3 $4 $5 $6 $7 $8 $9 X,Y pos of 4 corners*
0 Add a 4 corners polygon primitive as box body*
4,1,4,$2,$3,$4,$5,$6,$7,$8,$9,$2,$3,0*
0 Add four circle primitives for the rounded corners*
1,1,$1+$1,$2,$3*
1,1,$1+$1,$4,$5*
1,1,$1+$1,$6,$7*
1,1,$1+$1,$8,$9*
0 Add four rect primitives between the rounded corners*
20,1,$1+$1,$2,$3,$4,$5,0*
20,1,$1+$1,$4,$5,$6,$7,0*
20,1,$1+$1,$6,$7,$8,$9,0*
20,1,$1+$1,$8,$9,$2,$3,0*%
G04 Aperture macros list end*
%ADD10R,1.600000X1.600000*%
%ADD11O,1.600000X1.600000*%
%ADD12RoundRect,0.243750X0.456250X-0.243750X0.456250X0.243750X-0.456250X0.243750X-0.456250X-0.243750X0*%
%ADD13R,1.200000X1.200000*%
%ADD14C,1.200000*%
%ADD15O,2.500000X4.000000*%
%ADD16C,1.440000*%
%ADD17O,2.720000X3.240000*%
%ADD18C,1.800000*%
%ADD19R,1.800000X1.800000*%
%ADD20C,1.400000*%
%ADD21C,3.000000*%
%ADD22RoundRect,0.250000X-0.600000X-0.600000X0.600000X-0.600000X0.600000X0.600000X-0.600000X0.600000X0*%
%ADD23C,1.700000*%
G04 APERTURE END LIST*
D10*
%TO.C,A1*%
X80518000Y-29210000D03*
D11*
X65278000Y-62230000D03*
X80518000Y-31750000D03*
X65278000Y-59690000D03*
X80518000Y-34290000D03*
X65278000Y-57150000D03*
X80518000Y-36830000D03*
X65278000Y-54610000D03*
X80518000Y-39370000D03*
X65278000Y-52070000D03*
X80518000Y-41910000D03*
X65278000Y-49530000D03*
X80518000Y-44450000D03*
X65278000Y-46990000D03*
X80518000Y-46990000D03*
X65278000Y-44450000D03*
X80518000Y-49530000D03*
X65278000Y-41910000D03*
X80518000Y-52070000D03*
X65278000Y-39370000D03*
X80518000Y-54610000D03*
X65278000Y-36830000D03*
X80518000Y-57150000D03*
X65278000Y-34290000D03*
X80518000Y-59690000D03*
X65278000Y-31750000D03*
X80518000Y-62230000D03*
X65278000Y-29210000D03*
X80518000Y-64770000D03*
X65278000Y-64770000D03*
%TD*%
D12*
%TO.C,D13*%
X112776000Y-46990000D03*
X112776000Y-45115000D03*
%TD*%
%TO.C,D14*%
X109220000Y-46990000D03*
X109220000Y-45115000D03*
%TD*%
%TO.C,D15*%
X105664000Y-45115000D03*
X105664000Y-46990000D03*
%TD*%
D13*
%TO.C,DS1*%
X106680000Y-30734000D03*
D14*
X106680000Y-33274000D03*
X106680000Y-35814000D03*
X106680000Y-38354000D03*
X106680000Y-40894000D03*
X111760000Y-40894000D03*
X111760000Y-38354000D03*
X111760000Y-35814000D03*
X111760000Y-33274000D03*
X111760000Y-30734000D03*
%TD*%
D15*
%TO.C,J2*%
X32186000Y-119380000D03*
X40386000Y-119380000D03*
X43386000Y-119380000D03*
%TD*%
%TO.C,J3*%
X32186000Y-69088000D03*
X40386000Y-69088000D03*
X43386000Y-69088000D03*
%TD*%
%TO.C,J4*%
X43386000Y-86106000D03*
X40386000Y-86106000D03*
X32186000Y-86106000D03*
%TD*%
%TO.C,J5*%
X43386000Y-108458000D03*
X40386000Y-108458000D03*
X32186000Y-108458000D03*
%TD*%
%TO.C,J6*%
X32186000Y-97282000D03*
X40386000Y-97282000D03*
X43386000Y-97282000D03*
%TD*%
%TO.C,J7*%
X100378000Y-109474000D03*
X103378000Y-109474000D03*
X111578000Y-109474000D03*
%TD*%
%TO.C,J8*%
X111578000Y-99060000D03*
X103378000Y-99060000D03*
X100378000Y-99060000D03*
%TD*%
%TO.C,J9*%
X100378000Y-119888000D03*
X103378000Y-119888000D03*
X111578000Y-119888000D03*
%TD*%
%TO.C,J10*%
X32186000Y-41402000D03*
X40386000Y-41402000D03*
X43386000Y-41402000D03*
%TD*%
%TO.C,J11*%
X32186000Y-52324000D03*
X40386000Y-52324000D03*
X43386000Y-52324000D03*
%TD*%
%TO.C,J12*%
X43386000Y-30480000D03*
X40386000Y-30480000D03*
X32186000Y-30480000D03*
%TD*%
D16*
%TO.C,RV1*%
X52578000Y-101092000D03*
X50038000Y-101092000D03*
X47498000Y-101092000D03*
%TD*%
%TO.C,RV2*%
X47498000Y-106680000D03*
X50038000Y-106680000D03*
X52578000Y-106680000D03*
%TD*%
%TO.C,RV3*%
X47752000Y-90424000D03*
X47752000Y-92964000D03*
X47752000Y-95504000D03*
%TD*%
D17*
%TO.C,RV4*%
X62498000Y-118244000D03*
X52898000Y-118244000D03*
D18*
X55198000Y-110744000D03*
X57698000Y-110744000D03*
D19*
X60198000Y-110744000D03*
%TD*%
%TO.C,RV5*%
X90170000Y-110744000D03*
D18*
X87670000Y-110744000D03*
X85170000Y-110744000D03*
D17*
X82870000Y-118244000D03*
X92470000Y-118244000D03*
%TD*%
%TO.C,RV6*%
X52310000Y-62350000D03*
X61910000Y-62350000D03*
D18*
X59610000Y-69850000D03*
X57110000Y-69850000D03*
D19*
X54610000Y-69850000D03*
%TD*%
%TO.C,RV7*%
X90932000Y-69850000D03*
D18*
X93432000Y-69850000D03*
X95932000Y-69850000D03*
D17*
X98232000Y-62350000D03*
X88632000Y-62350000D03*
%TD*%
D19*
%TO.C,RV8*%
X60452000Y-82296000D03*
D18*
X57952000Y-82296000D03*
X55452000Y-82296000D03*
D17*
X53152000Y-89796000D03*
X62752000Y-89796000D03*
%TD*%
%TO.C,RV9*%
X92470000Y-89796000D03*
X82870000Y-89796000D03*
D18*
X85170000Y-82296000D03*
X87670000Y-82296000D03*
D19*
X90170000Y-82296000D03*
%TD*%
%TO.C,RV11*%
X54610000Y-42926000D03*
D18*
X57110000Y-42926000D03*
X59610000Y-42926000D03*
D17*
X61910000Y-35426000D03*
X52310000Y-35426000D03*
%TD*%
D20*
%TO.C,S1*%
X97710000Y-45980000D03*
X95210000Y-45980000D03*
X92710000Y-45980000D03*
X90210000Y-45980000D03*
X87710000Y-45980000D03*
X87710000Y-27680000D03*
X90210000Y-27680000D03*
X92710000Y-27680000D03*
X95210000Y-27680000D03*
X97710000Y-27680000D03*
D21*
X84710000Y-35730000D03*
X100710000Y-35730000D03*
%TD*%
D22*
%TO.C,J1*%
X107696000Y-87884000D03*
D23*
X107696000Y-85344000D03*
X107696000Y-82804000D03*
X107696000Y-80264000D03*
X107696000Y-77724000D03*
X107696000Y-75184000D03*
X107696000Y-72644000D03*
X107696000Y-70104000D03*
X110236000Y-87884000D03*
X110236000Y-85344000D03*
X110236000Y-82804000D03*
X110236000Y-80264000D03*
X110236000Y-77724000D03*
X110236000Y-75184000D03*
X110236000Y-72644000D03*
X110236000Y-70104000D03*
%TD*%
M02*
