M48
; DRILL file {KiCad 7.0.2} date Tue May 23 13:36:23 2023
; FORMAT={-:-/ absolute / inch / decimal}
; #@! TF.CreationDate,2023-05-23T13:36:23-04:00
; #@! TF.GenerationSoftware,Kicad,Pcbnew,7.0.2
; #@! TF.FileFunction,Plated,1,4,PTH
FMAT,2
INCH
; #@! TA.AperFunction,Plated,PTH,ViaDrill
T1C0.0157
; #@! TA.AperFunction,Plated,PTH,ViaDrill
T2C0.0236
; #@! TA.AperFunction,Plated,PTH,ComponentDrill
T3C0.0315
; #@! TA.AperFunction,Plated,PTH,ComponentDrill
T4C0.0354
; #@! TA.AperFunction,Plated,PTH,ComponentDrill
T5C0.0394
; #@! TA.AperFunction,Plated,PTH,ComponentDrill
T6C0.0433
; #@! TA.AperFunction,Plated,PTH,ComponentDrill
T7C0.0630
; #@! TA.AperFunction,Plated,PTH,ComponentDrill
T8C0.0787
%
G90
G05
T1
X1.39Y-2.83
X1.39Y-3.34
X1.409Y-2.441
X1.47Y-1.64
X1.47Y-2.12
X1.47Y-2.44
X1.5Y-3.1
X1.5075Y-2.9175
X1.5135Y-2.9585
X1.6Y-3.05
X1.65Y-3.69
X1.66Y-3.1
X1.75Y-2.87
X1.82Y-3.05
X1.83Y-2.87
X1.98Y-3.1
X2.0594Y-3.0506
X2.13Y-3.16
X2.15Y-3.41
X2.2314Y-2.8786
X2.25Y-1.93
X2.265Y-4.125
X2.36Y-4.14
X2.37Y-3.33
X2.38Y-3.67
X2.39Y-3.89
X2.39Y-4.01
X2.4Y-2.64
X2.42Y-3.33
X2.43Y-2.75
X2.4373Y-3.8673
X2.47Y-3.33
X2.49Y-4.0
X2.4919Y-3.6319
X2.56Y-4.02
X2.5615Y-3.1615
X2.5734Y-2.9534
X2.59Y-3.97
X2.61Y-4.49
X2.6105Y-3.6205
X2.64Y-3.0
X2.65Y-4.26
X2.67Y-3.62
X2.67Y-3.66
X2.67Y-3.7
X2.686Y-3.7668
X2.6888Y-4.6512
X2.6982Y-3.5328
X2.7Y-3.73
X2.72Y-3.5
X2.72Y-4.45
X2.74Y-3.77
X2.74Y-3.89
X2.74Y-3.97
X2.75Y-4.02
X2.76Y-3.11
X2.76Y-3.27
X2.76Y-3.35
X2.76Y-3.5
X2.771Y-4.779
X2.7817Y-4.0552
X2.7845Y-3.8255
X2.8Y-3.05
X2.8Y-3.5
X2.81Y-3.77
X2.8501Y-3.7599
X2.87Y-3.38
X2.88Y-3.43
X2.9Y-3.53
X2.9Y-3.73
X2.919Y-4.791
X2.9195Y-4.4905
X2.92Y-3.97
X2.93Y-3.45
X2.95Y-3.0
X2.95Y-3.05
X2.95Y-3.28
X2.9555Y-4.0055
X2.9645Y-3.5675
X2.9698Y-3.6457
X2.97Y-3.71
X2.9711Y-3.6064
X2.98Y-3.5302
X3.0Y-4.6
X3.0Y-4.65
X3.0Y-4.7
X3.02Y-3.43
X3.05Y-4.45
X3.06Y-3.44
X3.07Y-3.71
X3.0745Y-3.5945
X3.08Y-3.67
X3.08Y-3.81
X3.0805Y-3.9995
X3.0805Y-2.9405
X3.09Y-3.9129
X3.13Y-3.49
X3.14Y-3.87
X3.15Y-3.77
X3.16Y-3.14
X3.19Y-3.39
X3.21Y-3.65
X3.23Y-2.94
X3.24Y-3.33
X3.25Y-2.79
X3.2598Y-3.8502
X3.28Y-3.43
X3.29Y-3.34
X3.31Y-3.86
X3.31Y-4.08
X3.3238Y-2.8338
X3.33Y-2.74
X3.3476Y-3.9824
X3.3488Y-3.0712
X3.36Y-2.96
X3.4Y-1.55
X3.4Y-1.65
X3.4Y-1.75
X3.4Y-1.85
X3.405Y-3.995
X3.41Y-2.52
X3.41Y-2.86
X3.42Y-3.7
X3.4726Y-4.1074
X3.4874Y-3.0726
X3.51Y-2.7303
X3.5502Y-3.9798
X3.5604Y-2.9304
X3.57Y-3.93
X3.6Y-3.88
X3.6Y-3.98
X3.7Y-3.25
X3.7Y-4.31
X3.7215Y-4.0685
X3.73Y-3.98
X3.76Y-2.2
X3.77Y-3.83
X3.77Y-4.03
X3.8Y-2.93
X3.8149Y-3.9451
X3.845Y-3.555
X3.87Y-3.82
X3.9Y-2.69
X3.925Y-3.145
X3.95Y-3.1699
X3.95Y-3.21
X4.0691Y-3.4309
X4.13Y-3.72
X4.16Y-1.73
X4.23Y-1.85
X4.3Y-1.73
X4.37Y-1.85
X4.44Y-1.73
T2
X1.7981Y-3.48
T3
X1.87Y-3.98
X1.87Y-4.2
X1.88Y-3.56
X1.88Y-3.66
X1.88Y-3.76
X1.97Y-3.98
X1.97Y-4.2
X2.07Y-3.98
X2.07Y-4.2
X4.2Y-1.21
X4.2Y-1.31
X4.2Y-1.41
X4.2Y-1.51
X4.2Y-1.61
X4.4Y-1.21
X4.4Y-1.31
X4.4Y-1.41
X4.4Y-1.51
X4.4Y-1.61
T4
X3.4531Y-1.0898
X3.4531Y-1.8102
X3.5516Y-1.0898
X3.5516Y-1.8102
X3.65Y-1.0898
X3.65Y-1.8102
X3.7484Y-1.0898
X3.7484Y-1.8102
X3.8469Y-1.0898
X3.8469Y-1.8102
T5
X2.15Y-1.69
X2.15Y-2.75
X2.1731Y-4.36
X2.1831Y-3.24
X2.2484Y-1.69
X2.2484Y-2.75
X2.2716Y-4.36
X2.2816Y-3.24
X2.3469Y-1.69
X2.3469Y-2.75
X2.37Y-4.36
X2.38Y-3.24
X2.57Y-1.15
X2.57Y-1.25
X2.57Y-1.35
X2.57Y-1.45
X2.57Y-1.55
X2.57Y-1.65
X2.57Y-1.75
X2.57Y-1.85
X2.57Y-1.95
X2.57Y-2.05
X2.57Y-2.15
X2.57Y-2.25
X2.57Y-2.35
X2.57Y-2.45
X2.57Y-2.55
X3.17Y-1.15
X3.17Y-1.25
X3.17Y-1.35
X3.17Y-1.45
X3.17Y-1.55
X3.17Y-1.65
X3.17Y-1.75
X3.17Y-1.85
X3.17Y-1.95
X3.17Y-2.05
X3.17Y-2.15
X3.17Y-2.25
X3.17Y-2.35
X3.17Y-2.45
X3.17Y-2.55
X3.3531Y-3.24
X3.3531Y-4.36
X3.4516Y-3.24
X3.4516Y-4.36
X3.55Y-3.24
X3.55Y-4.36
X3.58Y-2.75
X3.6784Y-2.75
X3.7769Y-2.75
X4.24Y-2.76
X4.24Y-2.86
X4.24Y-2.96
X4.24Y-3.06
X4.24Y-3.16
X4.24Y-3.26
X4.24Y-3.36
X4.24Y-3.46
X4.34Y-2.76
X4.34Y-2.86
X4.34Y-2.96
X4.34Y-3.06
X4.34Y-3.16
X4.34Y-3.26
X4.34Y-3.36
X4.34Y-3.46
T7
X1.2672Y-1.2
X1.2672Y-1.63
X1.2672Y-2.06
X1.2672Y-2.72
X1.2672Y-3.39
X1.2672Y-3.83
X1.2672Y-4.27
X1.2672Y-4.7
X1.59Y-1.2
X1.59Y-1.63
X1.59Y-2.06
X1.59Y-2.72
X1.59Y-3.39
X1.59Y-3.83
X1.59Y-4.27
X1.59Y-4.7
X1.7081Y-1.2
X1.7081Y-1.63
X1.7081Y-2.06
X1.7081Y-2.72
X1.7081Y-3.39
X1.7081Y-3.83
X1.7081Y-4.27
X1.7081Y-4.7
X3.9519Y-3.9
X3.9519Y-4.31
X3.9519Y-4.72
X4.07Y-3.9
X4.07Y-4.31
X4.07Y-4.72
X4.3928Y-3.9
X4.3928Y-4.31
X4.3928Y-4.72
T8
X3.335Y-1.4067
X3.965Y-1.4067
T6
G00X2.0594Y-1.4085
M15
G01X2.0594Y-1.3809
M16
G05
G00X2.0594Y-2.4685
M15
G01X2.0594Y-2.4409
M16
G05
G00X2.0826Y-4.6415
M15
G01X2.0826Y-4.6691
M16
G05
G00X2.0926Y-3.5215
M15
G01X2.0926Y-3.5491
M16
G05
G00X2.4374Y-1.4085
M15
G01X2.4374Y-1.3809
M16
G05
G00X2.4374Y-2.4685
M15
G01X2.4374Y-2.4409
M16
G05
G00X2.4606Y-4.6415
M15
G01X2.4606Y-4.6691
M16
G05
G00X2.4706Y-3.5215
M15
G01X2.4706Y-3.5491
M16
G05
G00X3.2626Y-3.5215
M15
G01X3.2626Y-3.5491
M16
G05
G00X3.2626Y-4.6415
M15
G01X3.2626Y-4.6691
M16
G05
G00X3.4894Y-2.4685
M15
G01X3.4894Y-2.4409
M16
G05
G00X3.6406Y-3.5215
M15
G01X3.6406Y-3.5491
M16
G05
G00X3.6406Y-4.6415
M15
G01X3.6406Y-4.6691
M16
G05
G00X3.8674Y-2.4685
M15
G01X3.8674Y-2.4409
M16
G05
T0
M30
