%TF.GenerationSoftware,KiCad,Pcbnew,7.0.2*%
%TF.CreationDate,2023-05-23T13:36:19-04:00*%
%TF.ProjectId,SSI2130_Oscillator,53534932-3133-4305-9f4f-7363696c6c61,rev?*%
%TF.SameCoordinates,Original*%
%TF.FileFunction,Paste,Bot*%
%TF.FilePolarity,Positive*%
%FSLAX46Y46*%
G04 Gerber Fmt 4.6, Leading zero omitted, Abs format (unit mm)*
G04 Created by KiCad (PCBNEW 7.0.2) date 2023-05-23 13:36:19*
%MOMM*%
%LPD*%
G01*
G04 APERTURE LIST*
G04 Aperture macros list*
%AMRoundRect*
0 Rectangle with rounded corners*
0 $1 Rounding radius*
0 $2 $3 $4 $5 $6 $7 $8 $9 X,Y pos of 4 corners*
0 Add a 4 corners polygon primitive as box body*
4,1,4,$2,$3,$4,$5,$6,$7,$8,$9,$2,$3,0*
0 Add four circle primitives for the rounded corners*
1,1,$1+$1,$2,$3*
1,1,$1+$1,$4,$5*
1,1,$1+$1,$6,$7*
1,1,$1+$1,$8,$9*
0 Add four rect primitives between the rounded corners*
20,1,$1+$1,$2,$3,$4,$5,0*
20,1,$1+$1,$4,$5,$6,$7,0*
20,1,$1+$1,$6,$7,$8,$9,0*
20,1,$1+$1,$8,$9,$2,$3,0*%
G04 Aperture macros list end*
%ADD10RoundRect,0.225000X-0.225000X-0.250000X0.225000X-0.250000X0.225000X0.250000X-0.225000X0.250000X0*%
%ADD11RoundRect,0.250000X-0.550000X1.050000X-0.550000X-1.050000X0.550000X-1.050000X0.550000X1.050000X0*%
%ADD12RoundRect,0.225000X0.225000X0.250000X-0.225000X0.250000X-0.225000X-0.250000X0.225000X-0.250000X0*%
%ADD13RoundRect,0.225000X-0.250000X0.225000X-0.250000X-0.225000X0.250000X-0.225000X0.250000X0.225000X0*%
%ADD14R,0.900000X1.200000*%
%ADD15R,0.800000X0.900000*%
%ADD16R,0.900000X0.800000*%
%ADD17RoundRect,0.200000X-0.200000X-0.275000X0.200000X-0.275000X0.200000X0.275000X-0.200000X0.275000X0*%
%ADD18RoundRect,0.200000X0.200000X0.275000X-0.200000X0.275000X-0.200000X-0.275000X0.200000X-0.275000X0*%
%ADD19RoundRect,0.200000X-0.275000X0.200000X-0.275000X-0.200000X0.275000X-0.200000X0.275000X0.200000X0*%
%ADD20RoundRect,0.200000X0.275000X-0.200000X0.275000X0.200000X-0.275000X0.200000X-0.275000X-0.200000X0*%
%ADD21RoundRect,0.150000X-0.825000X-0.150000X0.825000X-0.150000X0.825000X0.150000X-0.825000X0.150000X0*%
%ADD22RoundRect,0.150000X-0.150000X0.825000X-0.150000X-0.825000X0.150000X-0.825000X0.150000X0.825000X0*%
%ADD23RoundRect,0.250000X-0.335000X-0.335000X0.335000X-0.335000X0.335000X0.335000X-0.335000X0.335000X0*%
%ADD24RoundRect,0.050000X-0.050000X-0.300000X0.050000X-0.300000X0.050000X0.300000X-0.050000X0.300000X0*%
%ADD25RoundRect,0.050000X-0.300000X-0.050000X0.300000X-0.050000X0.300000X0.050000X-0.300000X0.050000X0*%
%ADD26R,1.200000X0.900000*%
%ADD27RoundRect,0.225000X0.250000X-0.225000X0.250000X0.225000X-0.250000X0.225000X-0.250000X-0.225000X0*%
G04 APERTURE END LIST*
D10*
%TO.C,C35*%
X49048000Y-71628000D03*
X47498000Y-71628000D03*
%TD*%
D11*
%TO.C,C2*%
X100584000Y-70822000D03*
X100584000Y-74422000D03*
%TD*%
%TO.C,C3*%
X100330000Y-83544000D03*
X100330000Y-87144000D03*
%TD*%
%TO.C,C4*%
X93980000Y-80562000D03*
X93980000Y-76962000D03*
%TD*%
D12*
%TO.C,C5*%
X88646000Y-79502000D03*
X87096000Y-79502000D03*
%TD*%
D10*
%TO.C,C6*%
X85357000Y-70866000D03*
X83807000Y-70866000D03*
%TD*%
D12*
%TO.C,C7*%
X77470000Y-78740000D03*
X75920000Y-78740000D03*
%TD*%
D10*
%TO.C,C8*%
X75692000Y-122936000D03*
X74142000Y-122936000D03*
%TD*%
D12*
%TO.C,C9*%
X68834000Y-122936000D03*
X70384000Y-122936000D03*
%TD*%
%TO.C,C10*%
X81052000Y-76200000D03*
X79502000Y-76200000D03*
%TD*%
%TO.C,C11*%
X83794000Y-65278000D03*
X85344000Y-65278000D03*
%TD*%
D10*
%TO.C,C12*%
X74155000Y-113030000D03*
X75705000Y-113030000D03*
%TD*%
D12*
%TO.C,C13*%
X67844000Y-113030000D03*
X66294000Y-113030000D03*
%TD*%
%TO.C,C14*%
X84074000Y-105156000D03*
X85624000Y-105156000D03*
%TD*%
D11*
%TO.C,C15*%
X80264000Y-110236000D03*
X80264000Y-106636000D03*
%TD*%
D10*
%TO.C,C16*%
X64236000Y-76200000D03*
X65786000Y-76200000D03*
%TD*%
D12*
%TO.C,C17*%
X77470000Y-76200000D03*
X75920000Y-76200000D03*
%TD*%
D10*
%TO.C,C18*%
X39344000Y-78740000D03*
X40894000Y-78740000D03*
%TD*%
D12*
%TO.C,C19*%
X51536000Y-78740000D03*
X53086000Y-78740000D03*
%TD*%
%TO.C,C20*%
X65812000Y-84582000D03*
X64262000Y-84582000D03*
%TD*%
%TO.C,C21*%
X37338000Y-46990000D03*
X35788000Y-46990000D03*
%TD*%
D13*
%TO.C,C22*%
X82804000Y-94247000D03*
X82804000Y-92697000D03*
%TD*%
D10*
%TO.C,C23*%
X37338000Y-59182000D03*
X35788000Y-59182000D03*
%TD*%
%TO.C,C24*%
X64770000Y-100330000D03*
X63220000Y-100330000D03*
%TD*%
D12*
%TO.C,C25*%
X76734000Y-100076000D03*
X75184000Y-100076000D03*
%TD*%
%TO.C,C26*%
X66828000Y-90170000D03*
X65278000Y-90170000D03*
%TD*%
D10*
%TO.C,C27*%
X85598000Y-102362000D03*
X84048000Y-102362000D03*
%TD*%
D12*
%TO.C,C28*%
X95758000Y-101092000D03*
X97308000Y-101092000D03*
%TD*%
D13*
%TO.C,C31*%
X76708000Y-94234000D03*
X76708000Y-92684000D03*
%TD*%
D12*
%TO.C,C34*%
X64770000Y-93472000D03*
X63220000Y-93472000D03*
%TD*%
%TO.C,C36*%
X63220000Y-106426000D03*
X64770000Y-106426000D03*
%TD*%
D10*
%TO.C,C37*%
X79730000Y-97028000D03*
X81280000Y-97028000D03*
%TD*%
%TO.C,C38*%
X97308000Y-95504000D03*
X95758000Y-95504000D03*
%TD*%
%TO.C,C39*%
X95732000Y-107188000D03*
X97282000Y-107188000D03*
%TD*%
D14*
%TO.C,D1*%
X102360000Y-66294000D03*
X99060000Y-66294000D03*
%TD*%
%TO.C,D2*%
X98808000Y-78994000D03*
X102108000Y-78994000D03*
%TD*%
%TO.C,D3*%
X98806000Y-91440000D03*
X102106000Y-91440000D03*
%TD*%
D15*
%TO.C,Q1*%
X93284000Y-71914000D03*
X95184000Y-71914000D03*
X94234000Y-73914000D03*
%TD*%
D16*
%TO.C,Q2*%
X76740000Y-90866000D03*
X76740000Y-88966000D03*
X78740000Y-89916000D03*
%TD*%
D17*
%TO.C,R1*%
X59308000Y-114808000D03*
X57658000Y-114808000D03*
%TD*%
D18*
%TO.C,R2*%
X86106000Y-114300000D03*
X87756000Y-114300000D03*
%TD*%
D17*
%TO.C,R3*%
X57341000Y-66548000D03*
X58991000Y-66548000D03*
%TD*%
D18*
%TO.C,R4*%
X93344000Y-66548000D03*
X91694000Y-66548000D03*
%TD*%
%TO.C,R5*%
X77596000Y-84582000D03*
X75946000Y-84582000D03*
%TD*%
%TO.C,R6*%
X86106000Y-85852000D03*
X87756000Y-85852000D03*
%TD*%
%TO.C,R7*%
X64770000Y-103378000D03*
X63120000Y-103378000D03*
%TD*%
D17*
%TO.C,R8*%
X65786000Y-81788000D03*
X64136000Y-81788000D03*
%TD*%
%TO.C,R9*%
X77596000Y-81788000D03*
X75946000Y-81788000D03*
%TD*%
D19*
%TO.C,R10*%
X63246000Y-110236000D03*
X63246000Y-108586000D03*
%TD*%
D17*
%TO.C,R11*%
X64199000Y-87376000D03*
X65849000Y-87376000D03*
%TD*%
%TO.C,R12*%
X81152000Y-81788000D03*
X79502000Y-81788000D03*
%TD*%
D18*
%TO.C,R13*%
X77533000Y-73406000D03*
X75883000Y-73406000D03*
%TD*%
D17*
%TO.C,R14*%
X79502000Y-73406000D03*
X81152000Y-73406000D03*
%TD*%
D18*
%TO.C,R15*%
X65786000Y-78994000D03*
X64136000Y-78994000D03*
%TD*%
%TO.C,R16*%
X85090000Y-79502000D03*
X83440000Y-79502000D03*
%TD*%
D17*
%TO.C,R17*%
X76834000Y-103378000D03*
X75184000Y-103378000D03*
%TD*%
%TO.C,R18*%
X64136000Y-73406000D03*
X65786000Y-73406000D03*
%TD*%
D18*
%TO.C,R19*%
X79502000Y-78740000D03*
X81152000Y-78740000D03*
%TD*%
D17*
%TO.C,R20*%
X83694000Y-68072000D03*
X85344000Y-68072000D03*
%TD*%
D18*
%TO.C,R21*%
X76834000Y-106426000D03*
X75184000Y-106426000D03*
%TD*%
D17*
%TO.C,R22*%
X40894000Y-75946000D03*
X39244000Y-75946000D03*
%TD*%
%TO.C,R23*%
X83694000Y-62484000D03*
X85344000Y-62484000D03*
%TD*%
D18*
%TO.C,R24*%
X36893000Y-73152000D03*
X35243000Y-73152000D03*
%TD*%
%TO.C,R25*%
X39244000Y-73152000D03*
X40894000Y-73152000D03*
%TD*%
%TO.C,R26*%
X36830000Y-75946000D03*
X35180000Y-75946000D03*
%TD*%
%TO.C,R27*%
X60389000Y-79756000D03*
X62039000Y-79756000D03*
%TD*%
%TO.C,R28*%
X53086000Y-75692000D03*
X51436000Y-75692000D03*
%TD*%
%TO.C,R29*%
X35180000Y-81534000D03*
X36830000Y-81534000D03*
%TD*%
%TO.C,R30*%
X35180000Y-78740000D03*
X36830000Y-78740000D03*
%TD*%
D17*
%TO.C,R31*%
X53086000Y-72898000D03*
X51436000Y-72898000D03*
%TD*%
%TO.C,R32*%
X40894000Y-81534000D03*
X39244000Y-81534000D03*
%TD*%
%TO.C,R33*%
X51436000Y-81534000D03*
X53086000Y-81534000D03*
%TD*%
%TO.C,R34*%
X47118000Y-85598000D03*
X48768000Y-85598000D03*
%TD*%
%TO.C,R35*%
X48768000Y-88392000D03*
X47118000Y-88392000D03*
%TD*%
%TO.C,R36*%
X53086000Y-84582000D03*
X51436000Y-84582000D03*
%TD*%
D18*
%TO.C,R37*%
X62102000Y-72390000D03*
X60452000Y-72390000D03*
%TD*%
%TO.C,R38*%
X60452000Y-76200000D03*
X62102000Y-76200000D03*
%TD*%
D20*
%TO.C,R39*%
X57150000Y-47878000D03*
X57150000Y-46228000D03*
%TD*%
D17*
%TO.C,R40*%
X63120000Y-97282000D03*
X64770000Y-97282000D03*
%TD*%
D18*
%TO.C,R41*%
X75121000Y-97028000D03*
X76771000Y-97028000D03*
%TD*%
D20*
%TO.C,R42*%
X97790000Y-49530000D03*
X97790000Y-51180000D03*
%TD*%
D17*
%TO.C,R43*%
X56642000Y-97282000D03*
X54992000Y-97282000D03*
%TD*%
D18*
%TO.C,R44*%
X60706000Y-100330000D03*
X59056000Y-100330000D03*
%TD*%
%TO.C,R45*%
X54992000Y-100330000D03*
X56642000Y-100330000D03*
%TD*%
D17*
%TO.C,R46*%
X79502000Y-87376000D03*
X81152000Y-87376000D03*
%TD*%
D18*
%TO.C,R47*%
X60578000Y-106426000D03*
X58928000Y-106426000D03*
%TD*%
%TO.C,R48*%
X56642000Y-106426000D03*
X54992000Y-106426000D03*
%TD*%
%TO.C,R49*%
X79502000Y-84582000D03*
X81152000Y-84582000D03*
%TD*%
D17*
%TO.C,R50*%
X37338000Y-63246000D03*
X35688000Y-63246000D03*
%TD*%
D19*
%TO.C,R51*%
X79756000Y-92584000D03*
X79756000Y-94234000D03*
%TD*%
D17*
%TO.C,R52*%
X58928000Y-103378000D03*
X60578000Y-103378000D03*
%TD*%
D18*
%TO.C,R53*%
X60706000Y-97282000D03*
X59056000Y-97282000D03*
%TD*%
%TO.C,R54*%
X88900000Y-107950000D03*
X87250000Y-107950000D03*
%TD*%
D17*
%TO.C,R55*%
X87758000Y-93980000D03*
X89408000Y-93980000D03*
%TD*%
%TO.C,R56*%
X93726000Y-93980000D03*
X92076000Y-93980000D03*
%TD*%
D18*
%TO.C,R59*%
X85724000Y-99314000D03*
X84074000Y-99314000D03*
%TD*%
D17*
%TO.C,R60*%
X93980000Y-107950000D03*
X92330000Y-107950000D03*
%TD*%
D18*
%TO.C,R61*%
X54992000Y-103378000D03*
X56642000Y-103378000D03*
%TD*%
D17*
%TO.C,R62*%
X97408000Y-98298000D03*
X95758000Y-98298000D03*
%TD*%
%TO.C,R63*%
X97345000Y-104140000D03*
X95695000Y-104140000D03*
%TD*%
D18*
%TO.C,R64*%
X84074000Y-96520000D03*
X85724000Y-96520000D03*
%TD*%
%TO.C,R65*%
X108584000Y-99060000D03*
X106934000Y-99060000D03*
%TD*%
%TO.C,R66*%
X108584000Y-119888000D03*
X106934000Y-119888000D03*
%TD*%
%TO.C,R67*%
X106934000Y-109474000D03*
X108584000Y-109474000D03*
%TD*%
D20*
%TO.C,R68*%
X94488000Y-34544000D03*
X94488000Y-32894000D03*
%TD*%
D17*
%TO.C,R69*%
X85090000Y-39370000D03*
X83440000Y-39370000D03*
%TD*%
%TO.C,R70*%
X85090000Y-41910000D03*
X83440000Y-41910000D03*
%TD*%
%TO.C,R71*%
X83503000Y-44450000D03*
X85153000Y-44450000D03*
%TD*%
%TO.C,R72*%
X85090000Y-46990000D03*
X83440000Y-46990000D03*
%TD*%
%TO.C,R73*%
X85090000Y-49530000D03*
X83440000Y-49530000D03*
%TD*%
%TO.C,R74*%
X85090000Y-52070000D03*
X83440000Y-52070000D03*
%TD*%
%TO.C,R75*%
X83440000Y-54610000D03*
X85090000Y-54610000D03*
%TD*%
%TO.C,R76*%
X85090000Y-57150000D03*
X83440000Y-57150000D03*
%TD*%
D20*
%TO.C,R77*%
X91440000Y-32894000D03*
X91440000Y-34544000D03*
%TD*%
D17*
%TO.C,R78*%
X35688000Y-38862000D03*
X37338000Y-38862000D03*
%TD*%
D20*
%TO.C,R79*%
X89662000Y-38354000D03*
X89662000Y-36704000D03*
%TD*%
D17*
%TO.C,R80*%
X37338000Y-51054000D03*
X35688000Y-51054000D03*
%TD*%
%TO.C,R81*%
X35688000Y-42926000D03*
X37338000Y-42926000D03*
%TD*%
D20*
%TO.C,R82*%
X92964000Y-38417000D03*
X92964000Y-36767000D03*
%TD*%
D17*
%TO.C,R83*%
X35688000Y-55118000D03*
X37338000Y-55118000D03*
%TD*%
D20*
%TO.C,R84*%
X96266000Y-36704000D03*
X96266000Y-38354000D03*
%TD*%
%TO.C,R85*%
X61468000Y-58928000D03*
X61468000Y-57278000D03*
%TD*%
D19*
%TO.C,R86*%
X112522000Y-45086000D03*
X112522000Y-46736000D03*
%TD*%
%TO.C,R87*%
X109220000Y-46736000D03*
X109220000Y-45086000D03*
%TD*%
%TO.C,R88*%
X105918000Y-46736000D03*
X105918000Y-45086000D03*
%TD*%
D21*
%TO.C,U1*%
X73341000Y-80010000D03*
X73341000Y-78740000D03*
X73341000Y-77470000D03*
X73341000Y-76200000D03*
X73341000Y-74930000D03*
X73341000Y-73660000D03*
X73341000Y-72390000D03*
X68391000Y-72390000D03*
X68391000Y-73660000D03*
X68391000Y-74930000D03*
X68391000Y-76200000D03*
X68391000Y-77470000D03*
X68391000Y-78740000D03*
X68391000Y-80010000D03*
%TD*%
%TO.C,U2*%
X43753000Y-82550000D03*
X43753000Y-81280000D03*
X43753000Y-80010000D03*
X43753000Y-78740000D03*
X43753000Y-77470000D03*
X43753000Y-76200000D03*
X43753000Y-74930000D03*
X48703000Y-74930000D03*
X48703000Y-76200000D03*
X48703000Y-77470000D03*
X48703000Y-78740000D03*
X48703000Y-80010000D03*
X48703000Y-81280000D03*
X48703000Y-82550000D03*
%TD*%
%TO.C,U3*%
X67440000Y-104648000D03*
X67440000Y-103378000D03*
X67440000Y-102108000D03*
X67440000Y-100838000D03*
X67440000Y-99568000D03*
X67440000Y-98298000D03*
X67440000Y-97028000D03*
X72390000Y-97028000D03*
X72390000Y-98298000D03*
X72390000Y-99568000D03*
X72390000Y-100838000D03*
X72390000Y-102108000D03*
X72390000Y-103378000D03*
X72390000Y-104648000D03*
%TD*%
%TO.C,U4*%
X93153000Y-104902000D03*
X93153000Y-103632000D03*
X93153000Y-102362000D03*
X93153000Y-101092000D03*
X93153000Y-99822000D03*
X93153000Y-98552000D03*
X93153000Y-97282000D03*
X88203000Y-97282000D03*
X88203000Y-98552000D03*
X88203000Y-99822000D03*
X88203000Y-101092000D03*
X88203000Y-102362000D03*
X88203000Y-103632000D03*
X88203000Y-104902000D03*
%TD*%
D15*
%TO.C,U5*%
X80076000Y-101616000D03*
X79126000Y-103616000D03*
X81026000Y-103616000D03*
%TD*%
D22*
%TO.C,U7*%
X74168000Y-115446000D03*
X75438000Y-115446000D03*
X76708000Y-115446000D03*
X77978000Y-115446000D03*
X77978000Y-120396000D03*
X76708000Y-120396000D03*
X75438000Y-120396000D03*
X74168000Y-120396000D03*
%TD*%
%TO.C,U8*%
X66421000Y-115381000D03*
X67691000Y-115381000D03*
X68961000Y-115381000D03*
X70231000Y-115381000D03*
X70231000Y-120331000D03*
X68961000Y-120331000D03*
X67691000Y-120331000D03*
X66421000Y-120331000D03*
%TD*%
D21*
%TO.C,U9*%
X88581000Y-76581000D03*
X88581000Y-75311000D03*
X88581000Y-74041000D03*
X88581000Y-72771000D03*
X83631000Y-72771000D03*
X83631000Y-74041000D03*
X83631000Y-75311000D03*
X83631000Y-76581000D03*
%TD*%
D23*
%TO.C,U11*%
X71835695Y-91477000D03*
X71835695Y-92927000D03*
X70385695Y-91477000D03*
X70385695Y-92927000D03*
D24*
X69710695Y-94202000D03*
X70110695Y-94202000D03*
X70510695Y-94202000D03*
X70910695Y-94202000D03*
X71310695Y-94202000D03*
X71710695Y-94202000D03*
X72110695Y-94202000D03*
X72510695Y-94202000D03*
D25*
X73110695Y-93602000D03*
X73110695Y-93202000D03*
X73110695Y-92802000D03*
X73110695Y-92402000D03*
X73110695Y-92002000D03*
X73110695Y-91602000D03*
X73110695Y-91202000D03*
X73110695Y-90802000D03*
D24*
X72510695Y-90202000D03*
X72110695Y-90202000D03*
X71710695Y-90202000D03*
X71310695Y-90202000D03*
X70910695Y-90202000D03*
X70510695Y-90202000D03*
X70110695Y-90202000D03*
X69710695Y-90202000D03*
D25*
X69110695Y-90802000D03*
X69110695Y-91202000D03*
X69110695Y-91602000D03*
X69110695Y-92002000D03*
X69110695Y-92402000D03*
X69110695Y-92802000D03*
X69110695Y-93202000D03*
X69110695Y-93602000D03*
%TD*%
D14*
%TO.C,D4*%
X71628000Y-83312000D03*
X68328000Y-83312000D03*
%TD*%
%TO.C,D5*%
X71626000Y-87122000D03*
X68326000Y-87122000D03*
%TD*%
D26*
%TO.C,D6*%
X67310000Y-109980000D03*
X67310000Y-106680000D03*
%TD*%
%TO.C,D7*%
X72390000Y-106682000D03*
X72390000Y-109982000D03*
%TD*%
%TO.C,D8*%
X31750000Y-76454000D03*
X31750000Y-73154000D03*
%TD*%
%TO.C,D9*%
X31750000Y-78740000D03*
X31750000Y-82040000D03*
%TD*%
D14*
%TO.C,D10*%
X55118000Y-79756000D03*
X58418000Y-79756000D03*
%TD*%
%TO.C,D11*%
X58418000Y-72644000D03*
X55118000Y-72644000D03*
%TD*%
%TO.C,D12*%
X55118000Y-76200000D03*
X58418000Y-76200000D03*
%TD*%
D27*
%TO.C,C29*%
X61722000Y-30988000D03*
X61722000Y-29438000D03*
%TD*%
%TO.C,C1*%
X36576000Y-103658000D03*
X36576000Y-102108000D03*
%TD*%
M02*
