%TF.GenerationSoftware,KiCad,Pcbnew,(5.1.10)-1*%
%TF.CreationDate,2022-02-04T18:43:22-05:00*%
%TF.ProjectId,OutputBoard_2,4f757470-7574-4426-9f61-72645f322e6b,rev?*%
%TF.SameCoordinates,Original*%
%TF.FileFunction,Copper,L1,Top*%
%TF.FilePolarity,Positive*%
%FSLAX46Y46*%
G04 Gerber Fmt 4.6, Leading zero omitted, Abs format (unit mm)*
G04 Created by KiCad (PCBNEW (5.1.10)-1) date 2022-02-04 18:43:22*
%MOMM*%
%LPD*%
G01*
G04 APERTURE LIST*
%TA.AperFunction,ComponentPad*%
%ADD10O,1.700000X2.500000*%
%TD*%
%TA.AperFunction,ComponentPad*%
%ADD11O,2.500000X1.700000*%
%TD*%
%TA.AperFunction,ComponentPad*%
%ADD12C,1.800000*%
%TD*%
%TA.AperFunction,ComponentPad*%
%ADD13R,1.800000X1.800000*%
%TD*%
%TA.AperFunction,ComponentPad*%
%ADD14O,4.000000X2.500000*%
%TD*%
%TA.AperFunction,ComponentPad*%
%ADD15O,1.600000X1.600000*%
%TD*%
%TA.AperFunction,ComponentPad*%
%ADD16C,1.600000*%
%TD*%
%TA.AperFunction,ComponentPad*%
%ADD17R,1.700000X1.700000*%
%TD*%
%TA.AperFunction,ComponentPad*%
%ADD18O,1.700000X1.700000*%
%TD*%
%TA.AperFunction,ComponentPad*%
%ADD19O,1.700000X2.000000*%
%TD*%
%TA.AperFunction,ViaPad*%
%ADD20C,0.800000*%
%TD*%
%TA.AperFunction,Conductor*%
%ADD21C,0.250000*%
%TD*%
%TA.AperFunction,Conductor*%
%ADD22C,1.000000*%
%TD*%
%TA.AperFunction,Conductor*%
%ADD23C,0.500000*%
%TD*%
G04 APERTURE END LIST*
D10*
%TO.P,J2,S*%
%TO.N,RPH*%
X65780000Y-59074000D03*
D11*
%TO.P,J2,G*%
%TO.N,GND*%
X63330000Y-60799000D03*
D10*
%TO.P,J2,T*%
%TO.N,LPH*%
X57880000Y-58274000D03*
D11*
%TO.P,J2,TN*%
%TO.N,Net-(J2-PadTN)*%
X58630000Y-60799000D03*
%TO.P,J2,SN*%
%TO.N,Net-(J2-PadSN)*%
X64930000Y-56549000D03*
%TD*%
D12*
%TO.P,D1,2*%
%TO.N,Net-(D1-Pad2)*%
X93218000Y-53086000D03*
D13*
%TO.P,D1,1*%
%TO.N,GND*%
X90678000Y-53086000D03*
%TD*%
%TO.P,D2,1*%
%TO.N,GND*%
X90678000Y-59944000D03*
D12*
%TO.P,D2,2*%
%TO.N,Net-(D2-Pad2)*%
X93218000Y-59944000D03*
%TD*%
%TO.P,D3,2*%
%TO.N,Net-(D3-Pad2)*%
X93218000Y-66802000D03*
D13*
%TO.P,D3,1*%
%TO.N,GND*%
X90678000Y-66802000D03*
%TD*%
%TO.P,D4,1*%
%TO.N,GND*%
X90678000Y-73660000D03*
D12*
%TO.P,D4,2*%
%TO.N,Net-(D4-Pad2)*%
X93218000Y-73660000D03*
%TD*%
%TO.P,D5,2*%
%TO.N,Net-(D5-Pad2)*%
X93218000Y-80518000D03*
D13*
%TO.P,D5,1*%
%TO.N,GND*%
X90678000Y-80518000D03*
%TD*%
%TO.P,D6,1*%
%TO.N,GND*%
X90678000Y-87376000D03*
D12*
%TO.P,D6,2*%
%TO.N,Net-(D6-Pad2)*%
X93218000Y-87376000D03*
%TD*%
%TO.P,D7,2*%
%TO.N,Net-(D7-Pad2)*%
X93218000Y-94234000D03*
D13*
%TO.P,D7,1*%
%TO.N,GND*%
X90678000Y-94234000D03*
%TD*%
%TO.P,D8,1*%
%TO.N,GND*%
X90678000Y-101092000D03*
D12*
%TO.P,D8,2*%
%TO.N,Net-(D8-Pad2)*%
X93218000Y-101092000D03*
%TD*%
%TO.P,D9,2*%
%TO.N,Net-(D9-Pad2)*%
X93218000Y-107950000D03*
D13*
%TO.P,D9,1*%
%TO.N,GND*%
X90678000Y-107950000D03*
%TD*%
%TO.P,D10,1*%
%TO.N,GND*%
X90678000Y-115062000D03*
D12*
%TO.P,D10,2*%
%TO.N,Net-(D10-Pad2)*%
X93218000Y-115062000D03*
%TD*%
%TO.P,D11,2*%
%TO.N,Net-(D11-Pad2)*%
X76708000Y-53086000D03*
D13*
%TO.P,D11,1*%
%TO.N,GND*%
X74168000Y-53086000D03*
%TD*%
%TO.P,D12,1*%
%TO.N,GND*%
X74168000Y-59944000D03*
D12*
%TO.P,D12,2*%
%TO.N,Net-(D12-Pad2)*%
X76708000Y-59944000D03*
%TD*%
%TO.P,D13,2*%
%TO.N,Net-(D13-Pad2)*%
X76708000Y-66802000D03*
D13*
%TO.P,D13,1*%
%TO.N,GND*%
X74168000Y-66802000D03*
%TD*%
D12*
%TO.P,D14,2*%
%TO.N,Net-(D14-Pad2)*%
X76708000Y-73660000D03*
D13*
%TO.P,D14,1*%
%TO.N,GND*%
X74168000Y-73660000D03*
%TD*%
D12*
%TO.P,D15,2*%
%TO.N,Net-(D15-Pad2)*%
X76708000Y-80518000D03*
D13*
%TO.P,D15,1*%
%TO.N,GND*%
X74168000Y-80518000D03*
%TD*%
%TO.P,D16,1*%
%TO.N,GND*%
X74168000Y-87376000D03*
D12*
%TO.P,D16,2*%
%TO.N,Net-(D16-Pad2)*%
X76708000Y-87376000D03*
%TD*%
D13*
%TO.P,D17,1*%
%TO.N,GND*%
X74168000Y-94234000D03*
D12*
%TO.P,D17,2*%
%TO.N,Net-(D17-Pad2)*%
X76708000Y-94234000D03*
%TD*%
D13*
%TO.P,D18,1*%
%TO.N,GND*%
X74168000Y-101092000D03*
D12*
%TO.P,D18,2*%
%TO.N,Net-(D18-Pad2)*%
X76708000Y-101092000D03*
%TD*%
%TO.P,D19,2*%
%TO.N,Net-(D19-Pad2)*%
X76708000Y-107950000D03*
D13*
%TO.P,D19,1*%
%TO.N,GND*%
X74168000Y-107950000D03*
%TD*%
%TO.P,D20,1*%
%TO.N,GND*%
X74168000Y-115062000D03*
D12*
%TO.P,D20,2*%
%TO.N,Net-(D20-Pad2)*%
X76708000Y-115062000D03*
%TD*%
D14*
%TO.P,J3,3*%
%TO.N,L*%
X67056000Y-87558000D03*
%TO.P,J3,2*%
%TO.N,Net-(J3-Pad2)*%
X67056000Y-95758000D03*
%TO.P,J3,1*%
%TO.N,GND*%
X67056000Y-98758000D03*
%TD*%
%TO.P,J4,1*%
%TO.N,GND*%
X66802000Y-116538000D03*
%TO.P,J4,2*%
%TO.N,Net-(J4-Pad2)*%
X66802000Y-113538000D03*
%TO.P,J4,3*%
%TO.N,R*%
X66802000Y-105338000D03*
%TD*%
D15*
%TO.P,R1,2*%
%TO.N,L110*%
X80518000Y-58420000D03*
D16*
%TO.P,R1,1*%
%TO.N,Net-(D1-Pad2)*%
X80518000Y-50800000D03*
%TD*%
%TO.P,R2,1*%
%TO.N,Net-(D2-Pad2)*%
X83820000Y-58420000D03*
D15*
%TO.P,R2,2*%
%TO.N,L19*%
X83820000Y-50800000D03*
%TD*%
%TO.P,R3,2*%
%TO.N,L18*%
X87122000Y-50800000D03*
D16*
%TO.P,R3,1*%
%TO.N,Net-(D3-Pad2)*%
X87122000Y-58420000D03*
%TD*%
D15*
%TO.P,R4,2*%
%TO.N,L17*%
X80518000Y-61214000D03*
D16*
%TO.P,R4,1*%
%TO.N,Net-(D4-Pad2)*%
X80518000Y-68834000D03*
%TD*%
%TO.P,R5,1*%
%TO.N,Net-(D5-Pad2)*%
X83820000Y-68834000D03*
D15*
%TO.P,R5,2*%
%TO.N,L16*%
X83820000Y-61214000D03*
%TD*%
D16*
%TO.P,R6,1*%
%TO.N,Net-(D6-Pad2)*%
X87122000Y-68834000D03*
D15*
%TO.P,R6,2*%
%TO.N,L15*%
X87122000Y-61214000D03*
%TD*%
%TO.P,R7,2*%
%TO.N,L14*%
X80518000Y-71628000D03*
D16*
%TO.P,R7,1*%
%TO.N,Net-(D7-Pad2)*%
X80518000Y-79248000D03*
%TD*%
%TO.P,R8,1*%
%TO.N,Net-(D8-Pad2)*%
X83820000Y-79248000D03*
D15*
%TO.P,R8,2*%
%TO.N,L13*%
X83820000Y-71628000D03*
%TD*%
%TO.P,R9,2*%
%TO.N,L12*%
X87122000Y-71628000D03*
D16*
%TO.P,R9,1*%
%TO.N,Net-(D9-Pad2)*%
X87122000Y-79248000D03*
%TD*%
D15*
%TO.P,R10,2*%
%TO.N,L11*%
X80518000Y-82042000D03*
D16*
%TO.P,R10,1*%
%TO.N,Net-(D10-Pad2)*%
X80518000Y-89662000D03*
%TD*%
%TO.P,R11,1*%
%TO.N,Net-(D11-Pad2)*%
X83820000Y-89662000D03*
D15*
%TO.P,R11,2*%
%TO.N,R110*%
X83820000Y-82042000D03*
%TD*%
D16*
%TO.P,R12,1*%
%TO.N,Net-(D12-Pad2)*%
X87122000Y-89662000D03*
D15*
%TO.P,R12,2*%
%TO.N,R19*%
X87122000Y-82042000D03*
%TD*%
%TO.P,R13,2*%
%TO.N,R18*%
X80518000Y-92456000D03*
D16*
%TO.P,R13,1*%
%TO.N,Net-(D13-Pad2)*%
X80518000Y-100076000D03*
%TD*%
D15*
%TO.P,R14,2*%
%TO.N,R17*%
X83820000Y-92456000D03*
D16*
%TO.P,R14,1*%
%TO.N,Net-(D14-Pad2)*%
X83820000Y-100076000D03*
%TD*%
%TO.P,R15,1*%
%TO.N,Net-(D15-Pad2)*%
X87122000Y-100076000D03*
D15*
%TO.P,R15,2*%
%TO.N,R16*%
X87122000Y-92456000D03*
%TD*%
%TO.P,R16,2*%
%TO.N,R15*%
X80518000Y-102870000D03*
D16*
%TO.P,R16,1*%
%TO.N,Net-(D16-Pad2)*%
X80518000Y-110490000D03*
%TD*%
%TO.P,R17,1*%
%TO.N,Net-(D17-Pad2)*%
X83820000Y-110490000D03*
D15*
%TO.P,R17,2*%
%TO.N,R14*%
X83820000Y-102870000D03*
%TD*%
D16*
%TO.P,R18,1*%
%TO.N,Net-(D18-Pad2)*%
X87122000Y-110490000D03*
D15*
%TO.P,R18,2*%
%TO.N,R13*%
X87122000Y-102870000D03*
%TD*%
%TO.P,R19,2*%
%TO.N,R12*%
X87376000Y-113538000D03*
D16*
%TO.P,R19,1*%
%TO.N,Net-(D19-Pad2)*%
X79756000Y-113538000D03*
%TD*%
%TO.P,R20,1*%
%TO.N,Net-(D20-Pad2)*%
X79756000Y-116840000D03*
D15*
%TO.P,R20,2*%
%TO.N,R11*%
X87376000Y-116840000D03*
%TD*%
D17*
%TO.P,J1,1*%
%TO.N,R*%
X60060000Y-83660000D03*
D18*
%TO.P,J1,2*%
%TO.N,GND*%
X57520000Y-83660000D03*
%TO.P,J1,3*%
%TO.N,L*%
X60060000Y-86200000D03*
%TO.P,J1,4*%
%TO.N,GND*%
X57520000Y-86200000D03*
%TO.P,J1,5*%
%TO.N,RPH*%
X60060000Y-88740000D03*
%TO.P,J1,6*%
%TO.N,MONO*%
X57520000Y-88740000D03*
%TO.P,J1,7*%
%TO.N,LPH*%
X60060000Y-91280000D03*
%TO.P,J1,8*%
%TO.N,MONO*%
X57520000Y-91280000D03*
%TO.P,J1,9*%
%TO.N,L11*%
X60060000Y-93820000D03*
%TO.P,J1,10*%
%TO.N,R11*%
X57520000Y-93820000D03*
%TO.P,J1,11*%
%TO.N,L12*%
X60060000Y-96360000D03*
%TO.P,J1,12*%
%TO.N,R12*%
X57520000Y-96360000D03*
%TO.P,J1,13*%
%TO.N,L13*%
X60060000Y-98900000D03*
%TO.P,J1,14*%
%TO.N,R13*%
X57520000Y-98900000D03*
%TO.P,J1,15*%
%TO.N,L14*%
X60060000Y-101440000D03*
%TO.P,J1,16*%
%TO.N,R14*%
X57520000Y-101440000D03*
%TO.P,J1,17*%
%TO.N,L15*%
X60060000Y-103980000D03*
%TO.P,J1,18*%
%TO.N,R15*%
X57520000Y-103980000D03*
%TO.P,J1,19*%
%TO.N,L16*%
X60060000Y-106520000D03*
%TO.P,J1,20*%
%TO.N,R16*%
X57520000Y-106520000D03*
%TO.P,J1,21*%
%TO.N,L17*%
X60060000Y-109060000D03*
%TO.P,J1,22*%
%TO.N,R17*%
X57520000Y-109060000D03*
%TO.P,J1,23*%
%TO.N,L18*%
X60060000Y-111600000D03*
%TO.P,J1,24*%
%TO.N,R18*%
X57520000Y-111600000D03*
%TO.P,J1,25*%
%TO.N,L19*%
X60060000Y-114140000D03*
%TO.P,J1,26*%
%TO.N,R19*%
X57520000Y-114140000D03*
%TO.P,J1,27*%
%TO.N,L110*%
X60060000Y-116680000D03*
%TO.P,J1,28*%
%TO.N,R110*%
X57520000Y-116680000D03*
%TD*%
%TO.P,J5,1*%
%TO.N,GND*%
%TA.AperFunction,ComponentPad*%
G36*
G01*
X65444000Y-53074000D02*
X65444000Y-51574000D01*
G75*
G02*
X65694000Y-51324000I250000J0D01*
G01*
X66894000Y-51324000D01*
G75*
G02*
X67144000Y-51574000I0J-250000D01*
G01*
X67144000Y-53074000D01*
G75*
G02*
X66894000Y-53324000I-250000J0D01*
G01*
X65694000Y-53324000D01*
G75*
G02*
X65444000Y-53074000I0J250000D01*
G01*
G37*
%TD.AperFunction*%
D19*
%TO.P,J5,2*%
%TO.N,MONO*%
X68794000Y-52324000D03*
%TD*%
D20*
%TO.N,R11*%
X70358000Y-103632000D03*
%TO.N,R12*%
X70300998Y-105213002D03*
%TO.N,R13*%
X70358000Y-106426000D03*
%TO.N,R14*%
X70358000Y-107950000D03*
%TO.N,R15*%
X70358000Y-109220000D03*
%TO.N,R16*%
X70358000Y-110744000D03*
%TO.N,R17*%
X70358000Y-112268000D03*
%TO.N,R18*%
X70358000Y-113792000D03*
%TO.N,R19*%
X70358000Y-115316000D03*
X87122000Y-87630000D03*
%TO.N,R110*%
X83820000Y-87884000D03*
X72644000Y-116840000D03*
%TD*%
D21*
%TO.N,Net-(D1-Pad2)*%
X80518000Y-50800000D02*
X81643001Y-49674999D01*
X89806999Y-49674999D02*
X93218000Y-53086000D01*
X81643001Y-49674999D02*
X89806999Y-49674999D01*
D22*
%TO.N,GND*%
X57520000Y-86200000D02*
X57520000Y-83660000D01*
D21*
X58695001Y-87375001D02*
X57520000Y-86200000D01*
X60434003Y-87375001D02*
X58695001Y-87375001D01*
X61235001Y-88175999D02*
X60434003Y-87375001D01*
X61235001Y-93239001D02*
X61235001Y-88175999D01*
X66754000Y-98758000D02*
X61235001Y-93239001D01*
X67056000Y-98758000D02*
X66754000Y-98758000D01*
D22*
X72793998Y-115062000D02*
X74168000Y-115062000D01*
X71317998Y-116538000D02*
X72793998Y-115062000D01*
X66802000Y-116538000D02*
X71317998Y-116538000D01*
X58443919Y-81534000D02*
X74168000Y-81534000D01*
X57520000Y-82457919D02*
X58443919Y-81534000D01*
X57520000Y-83660000D02*
X57520000Y-82457919D01*
X67994010Y-54024010D02*
X66294000Y-52324000D01*
X73229990Y-54024010D02*
X67994010Y-54024010D01*
X74168000Y-53086000D02*
X73229990Y-54024010D01*
X74103990Y-61024010D02*
X74168000Y-60960000D01*
X63555010Y-61024010D02*
X74103990Y-61024010D01*
X63330000Y-60799000D02*
X63555010Y-61024010D01*
X74168000Y-60960000D02*
X74168000Y-81534000D01*
X74168000Y-53086000D02*
X74168000Y-60960000D01*
X75768001Y-51485999D02*
X74168000Y-53086000D01*
X77476001Y-51485999D02*
X75768001Y-51485999D01*
X79076002Y-53086000D02*
X77476001Y-51485999D01*
X90678000Y-53086000D02*
X79076002Y-53086000D01*
X74244001Y-113461999D02*
X74168000Y-113538000D01*
X79059998Y-115062000D02*
X77459997Y-113461999D01*
X90678000Y-115062000D02*
X79059998Y-115062000D01*
X74168000Y-113538000D02*
X74168000Y-115062000D01*
X77459997Y-113461999D02*
X74244001Y-113461999D01*
X74168000Y-81534000D02*
X74168000Y-113538000D01*
X90678000Y-107950000D02*
X90678000Y-115062000D01*
X90678000Y-94234000D02*
X90678000Y-87376000D01*
D21*
%TO.N,Net-(D2-Pad2)*%
X90568999Y-57294999D02*
X93218000Y-59944000D01*
X84945001Y-57294999D02*
X90568999Y-57294999D01*
X83820000Y-58420000D02*
X84945001Y-57294999D01*
%TO.N,Net-(D3-Pad2)*%
X88247001Y-61831001D02*
X93218000Y-66802000D01*
X88247001Y-59545001D02*
X88247001Y-61831001D01*
X87122000Y-58420000D02*
X88247001Y-59545001D01*
%TO.N,Net-(D4-Pad2)*%
X93218000Y-72628588D02*
X93218000Y-73660000D01*
X87848402Y-67258990D02*
X93218000Y-72628588D01*
X82093011Y-67258989D02*
X87848402Y-67258990D01*
X80518000Y-68834000D02*
X82093011Y-67258989D01*
%TO.N,Net-(D5-Pad2)*%
X87662001Y-67708999D02*
X89452999Y-69499997D01*
X84945001Y-67708999D02*
X87662001Y-67708999D01*
X83820000Y-68834000D02*
X84945001Y-67708999D01*
X93218000Y-78585002D02*
X93218000Y-80518000D01*
X91992999Y-72039997D02*
X89452999Y-69499997D01*
X91992999Y-77360001D02*
X91992999Y-72039997D01*
X93218000Y-78585002D02*
X91992999Y-77360001D01*
%TO.N,Net-(D6-Pad2)*%
X87122000Y-68834000D02*
X89002989Y-70714989D01*
X89002989Y-76457987D02*
X91992999Y-79447997D01*
X89002989Y-70714989D02*
X89002989Y-76457987D01*
X91992999Y-79447997D02*
X91992999Y-83102999D01*
X93218000Y-84328000D02*
X93218000Y-87376000D01*
X91992999Y-83102999D02*
X93218000Y-84328000D01*
%TO.N,Net-(D7-Pad2)*%
X82093011Y-77672989D02*
X87848402Y-77672990D01*
X80518000Y-79248000D02*
X82093011Y-77672989D01*
X91992999Y-93008999D02*
X91992999Y-86404999D01*
X93218000Y-94234000D02*
X91992999Y-93008999D01*
X89147021Y-83559021D02*
X89147021Y-82543021D01*
X91992999Y-86404999D02*
X89147021Y-83559021D01*
X87848402Y-77672990D02*
X89147021Y-78971609D01*
X89147021Y-78971609D02*
X89147021Y-82543021D01*
%TO.N,Net-(D8-Pad2)*%
X84945001Y-78122999D02*
X87662001Y-78122999D01*
X83820000Y-79248000D02*
X84945001Y-78122999D01*
X88697011Y-89864989D02*
X88697012Y-90349422D01*
X88697012Y-90349422D02*
X89408000Y-91060410D01*
X93218000Y-99159002D02*
X93218000Y-101092000D01*
X89408000Y-95349002D02*
X93218000Y-99159002D01*
X89408000Y-91060410D02*
X89408000Y-95349002D01*
X87662001Y-78122999D02*
X88697011Y-79158009D01*
X88697011Y-79158009D02*
X88697011Y-89864989D01*
%TO.N,Net-(D9-Pad2)*%
X88247003Y-90279003D02*
X88247003Y-90535823D01*
X88247001Y-90279001D02*
X88247003Y-90279003D01*
X88247001Y-90060999D02*
X88247001Y-90279001D01*
X88957990Y-91246810D02*
X88957990Y-95561990D01*
X88247003Y-90535823D02*
X88957990Y-91246810D01*
X88957990Y-95561990D02*
X89452999Y-96056999D01*
X93218000Y-106017002D02*
X93218000Y-107950000D01*
X89452999Y-102252001D02*
X93218000Y-106017002D01*
X89452999Y-96056999D02*
X89452999Y-102252001D01*
X88247001Y-80373001D02*
X88247001Y-90060999D01*
X87122000Y-79248000D02*
X88247001Y-80373001D01*
%TO.N,Net-(D10-Pad2)*%
X81643001Y-90787001D02*
X80518000Y-89662000D01*
X88507980Y-91433210D02*
X87861771Y-90787001D01*
X87861771Y-90787001D02*
X81643001Y-90787001D01*
X88507980Y-95748390D02*
X88507980Y-91433210D01*
X89002989Y-96243399D02*
X88507980Y-95748390D01*
X89002989Y-102438401D02*
X89002989Y-96243399D01*
X89452999Y-102888411D02*
X89002989Y-102438401D01*
X91992999Y-113836999D02*
X93218000Y-115062000D01*
X91992999Y-105428411D02*
X91992999Y-113836999D01*
X89452999Y-102888411D02*
X91992999Y-105428411D01*
%TO.N,Net-(D11-Pad2)*%
X83820000Y-89662000D02*
X85546989Y-87935011D01*
X85546989Y-87935011D02*
X85546989Y-81865399D01*
X79791598Y-80823010D02*
X78942989Y-79974401D01*
X84504601Y-80823011D02*
X79791598Y-80823010D01*
X85546989Y-81865399D02*
X84504601Y-80823011D01*
X78942989Y-79974401D02*
X78942989Y-65278000D01*
X75482999Y-61818010D02*
X75482999Y-54311001D01*
X75482999Y-54311001D02*
X76708000Y-53086000D01*
X78942989Y-65278000D02*
X75482999Y-61818010D01*
%TO.N,Net-(D12-Pad2)*%
X85996999Y-88536999D02*
X85996999Y-81678999D01*
X87122000Y-89662000D02*
X85996999Y-88536999D01*
X85996999Y-81678999D02*
X84691001Y-80373001D01*
X79977999Y-80373001D02*
X79392999Y-79788001D01*
X84691001Y-80373001D02*
X79977999Y-80373001D01*
X79392999Y-62628999D02*
X76708000Y-59944000D01*
X79392999Y-79788001D02*
X79392999Y-62628999D01*
%TO.N,Net-(D13-Pad2)*%
X78486000Y-68580000D02*
X76708000Y-66802000D01*
X79392999Y-81060821D02*
X78486000Y-80153822D01*
X79392999Y-92996001D02*
X79392999Y-81060821D01*
X78486000Y-80153822D02*
X78486000Y-68580000D01*
X80518000Y-94121002D02*
X79392999Y-92996001D01*
X80518000Y-100076000D02*
X80518000Y-94121002D01*
%TO.N,Net-(D14-Pad2)*%
X79392999Y-100616001D02*
X79392999Y-93632411D01*
X79977999Y-101201001D02*
X79392999Y-100616001D01*
X82694999Y-101201001D02*
X79977999Y-101201001D01*
X83820000Y-100076000D02*
X82694999Y-101201001D01*
X79392999Y-93632411D02*
X78942989Y-93182401D01*
X78942989Y-81247221D02*
X78035990Y-80340222D01*
X78942989Y-93182401D02*
X78942989Y-81247221D01*
X78035990Y-74987990D02*
X76708000Y-73660000D01*
X78035990Y-80340222D02*
X78035990Y-74987990D01*
%TO.N,Net-(D15-Pad2)*%
X85546989Y-101651011D02*
X79791599Y-101651011D01*
X87122000Y-100076000D02*
X85546989Y-101651011D01*
X79791599Y-101651011D02*
X78942989Y-100802401D01*
X78942989Y-100802401D02*
X78942989Y-93818811D01*
X78942989Y-93818811D02*
X78486000Y-93361822D01*
X78486000Y-82296000D02*
X76708000Y-80518000D01*
X78486000Y-93361822D02*
X78486000Y-82296000D01*
%TO.N,Net-(D16-Pad2)*%
X80518000Y-110490000D02*
X79392999Y-109364999D01*
X79392999Y-109364999D02*
X79392999Y-101888821D01*
X79392999Y-101888821D02*
X78486000Y-100981822D01*
X78486000Y-100981822D02*
X78486000Y-93998232D01*
X78486000Y-93998232D02*
X78035990Y-93548222D01*
X78035990Y-88703990D02*
X76708000Y-87376000D01*
X78035990Y-93548222D02*
X78035990Y-88703990D01*
%TO.N,Net-(D17-Pad2)*%
X79977999Y-111615001D02*
X78942989Y-110579991D01*
X82694999Y-111615001D02*
X79977999Y-111615001D01*
X83820000Y-110490000D02*
X82694999Y-111615001D01*
X78942989Y-102075221D02*
X77978000Y-101110232D01*
X78942989Y-110579991D02*
X78942989Y-102075221D01*
X77978000Y-95504000D02*
X76708000Y-94234000D01*
X77978000Y-101110232D02*
X77978000Y-95504000D01*
%TO.N,Net-(D18-Pad2)*%
X79791598Y-112065010D02*
X78486000Y-110759412D01*
X85546989Y-112065011D02*
X79791598Y-112065010D01*
X87122000Y-110490000D02*
X85546989Y-112065011D01*
X78486000Y-102870000D02*
X76708000Y-101092000D01*
X78486000Y-110759412D02*
X78486000Y-102870000D01*
%TO.N,Net-(D19-Pad2)*%
X79756000Y-113538000D02*
X79756000Y-112665822D01*
X76708000Y-109617822D02*
X76708000Y-107950000D01*
X79756000Y-112665822D02*
X76708000Y-109617822D01*
%TO.N,Net-(D20-Pad2)*%
X78486000Y-116840000D02*
X76708000Y-115062000D01*
X79756000Y-116840000D02*
X78486000Y-116840000D01*
D23*
%TO.N,R*%
X66312177Y-83660000D02*
X60060000Y-83660000D01*
X69506010Y-86853833D02*
X66312177Y-83660000D01*
X69506010Y-102633990D02*
X69506010Y-86853833D01*
X66802000Y-105338000D02*
X69506010Y-102633990D01*
%TO.N,L*%
X65698000Y-86200000D02*
X67056000Y-87558000D01*
X60060000Y-86200000D02*
X65698000Y-86200000D01*
D21*
%TO.N,MONO*%
X57520000Y-91280000D02*
X57520000Y-88740000D01*
%TO.N,R11*%
X60434003Y-94995001D02*
X62585031Y-97146029D01*
X58695001Y-94995001D02*
X60434003Y-94995001D01*
X57520000Y-93820000D02*
X58695001Y-94995001D01*
X62585031Y-97146029D02*
X62585031Y-104746211D01*
X62585031Y-104746211D02*
X66104205Y-108265385D01*
X68187980Y-108088020D02*
X68187981Y-107323199D01*
X68010615Y-108265385D02*
X68187980Y-108088020D01*
X66104205Y-108265385D02*
X68010615Y-108265385D01*
X69182990Y-106328190D02*
X69182990Y-104807010D01*
X68187981Y-107323199D02*
X69182990Y-106328190D01*
X69182990Y-104807010D02*
X70358000Y-103632000D01*
X70358000Y-103632000D02*
X70358000Y-103632000D01*
%TO.N,R12*%
X60434003Y-97535001D02*
X62135021Y-99236019D01*
X58695001Y-97535001D02*
X60434003Y-97535001D01*
X57520000Y-96360000D02*
X58695001Y-97535001D01*
X62135021Y-99236019D02*
X62135021Y-104932611D01*
X62135021Y-104932611D02*
X65377359Y-108174949D01*
X70300998Y-105410000D02*
X70300998Y-105213002D01*
X70300998Y-105213002D02*
X70300998Y-105213002D01*
X68222258Y-108812922D02*
X66015332Y-108812922D01*
X68637990Y-108397190D02*
X68222258Y-108812922D01*
X66015332Y-108812922D02*
X65377359Y-108174949D01*
X68637990Y-107509600D02*
X68637990Y-108397190D01*
X69632999Y-106514591D02*
X68637990Y-107509600D01*
X69632999Y-105881001D02*
X69632999Y-106514591D01*
X70300998Y-105213002D02*
X69632999Y-105881001D01*
%TO.N,R13*%
X70101180Y-106426000D02*
X70358000Y-106426000D01*
X70358000Y-106426000D02*
X70358000Y-106426000D01*
X58695001Y-100075001D02*
X57520000Y-98900000D01*
X60434003Y-100075001D02*
X58695001Y-100075001D01*
X61685011Y-101326009D02*
X60434003Y-100075001D01*
X61685011Y-105119011D02*
X61685011Y-101326009D01*
X65828932Y-109262932D02*
X61685011Y-105119011D01*
X68408658Y-109262932D02*
X65828932Y-109262932D01*
X69088000Y-108583590D02*
X68408658Y-109262932D01*
X69088000Y-107696000D02*
X69088000Y-108583590D01*
X70358000Y-106426000D02*
X69088000Y-107696000D01*
%TO.N,R14*%
X70358000Y-107950000D02*
X70358000Y-107950000D01*
X58884999Y-102804999D02*
X57520000Y-101440000D01*
X61214000Y-105156000D02*
X61235001Y-105134999D01*
X60624001Y-102804999D02*
X58884999Y-102804999D01*
X61214000Y-105332569D02*
X61214000Y-105156000D01*
X65594373Y-109712942D02*
X61214000Y-105332569D01*
X61235001Y-103415999D02*
X60624001Y-102804999D01*
X61235001Y-105134999D02*
X61235001Y-103415999D01*
X68595058Y-109712942D02*
X65594373Y-109712942D01*
X70358000Y-107950000D02*
X68595058Y-109712942D01*
%TO.N,R15*%
X70358000Y-109220000D02*
X70358000Y-109220000D01*
X58695001Y-105155001D02*
X57520000Y-103980000D01*
X60400022Y-105155001D02*
X58695001Y-105155001D01*
X65407973Y-110162952D02*
X60400022Y-105155001D01*
X69415048Y-110162952D02*
X65407973Y-110162952D01*
X70358000Y-109220000D02*
X69415048Y-110162952D01*
%TO.N,R16*%
X70358000Y-110998000D02*
X70358000Y-110998000D01*
X68894630Y-110744000D02*
X68864315Y-110713685D01*
X70358000Y-110744000D02*
X68894630Y-110744000D01*
X60894999Y-107884999D02*
X58884999Y-107884999D01*
X63622962Y-110612962D02*
X60894999Y-107884999D01*
X68763590Y-110612962D02*
X63622962Y-110612962D01*
X58884999Y-107884999D02*
X57520000Y-106520000D01*
X68894630Y-110744000D02*
X68763590Y-110612962D01*
%TO.N,R17*%
X57520000Y-109060000D02*
X58884999Y-110424999D01*
X69782220Y-112268000D02*
X70358000Y-112268000D01*
X70358000Y-112268000D02*
X70358000Y-112268000D01*
X68577190Y-111062972D02*
X62927028Y-111062972D01*
X69782220Y-112268000D02*
X68577190Y-111062972D01*
X62289055Y-110424999D02*
X58884999Y-110424999D01*
X62927028Y-111062972D02*
X62289055Y-110424999D01*
%TO.N,R18*%
X68390791Y-111512981D02*
X69596000Y-112718190D01*
X65213210Y-111512980D02*
X68390791Y-111512981D01*
X63951189Y-112775001D02*
X65213210Y-111512980D01*
X58695001Y-112775001D02*
X63951189Y-112775001D01*
X57520000Y-111600000D02*
X58695001Y-112775001D01*
X69596000Y-112718190D02*
X69596000Y-113030000D01*
X69596000Y-113030000D02*
X70358000Y-113792000D01*
X70358000Y-113792000D02*
X70358000Y-113792000D01*
%TO.N,R19*%
X68204390Y-111962990D02*
X69127010Y-112885610D01*
X69127010Y-112885610D02*
X69127010Y-114768990D01*
X65399610Y-111962990D02*
X68204390Y-111962990D01*
X61857601Y-115504999D02*
X65399610Y-111962990D01*
X58884999Y-115504999D02*
X61857601Y-115504999D01*
X57520000Y-114140000D02*
X58884999Y-115504999D01*
X69127010Y-114768990D02*
X69674020Y-115316000D01*
X69674020Y-115316000D02*
X70358000Y-115316000D01*
X87122000Y-82042000D02*
X87122000Y-87376000D01*
X87122000Y-87376000D02*
X87122000Y-87630000D01*
X87122000Y-87630000D02*
X87122000Y-87630000D01*
%TO.N,R110*%
X57520000Y-116680000D02*
X58953010Y-118113010D01*
X68583010Y-118113010D02*
X69084990Y-118113010D01*
X58953010Y-118113010D02*
X68583010Y-118113010D01*
X83820000Y-82042000D02*
X83820000Y-87884000D01*
X83820000Y-87884000D02*
X83820000Y-87884000D01*
X69084990Y-118113010D02*
X71370990Y-118113010D01*
X71370990Y-118113010D02*
X72644000Y-116840000D01*
X72644000Y-116840000D02*
X72644000Y-116840000D01*
%TD*%
M02*
