M48
; DRILL file {KiCad (5.1.10)-1} date 02/04/22 18:43:24
; FORMAT={-:-/ absolute / inch / decimal}
; #@! TF.CreationDate,2022-02-04T18:43:24-05:00
; #@! TF.GenerationSoftware,Kicad,Pcbnew,(5.1.10)-1
; #@! TF.FileFunction,Plated,1,2,PTH
FMAT,2
INCH
T1C0.0157
T2C0.0276
T3C0.0315
T4C0.0354
T5C0.0394
T6C0.0630
%
G90
G05
T1
X2.7678Y-4.1422
X2.77Y-4.08
X2.77Y-4.19
X2.77Y-4.25
X2.77Y-4.3
X2.77Y-4.36
X2.77Y-4.42
X2.77Y-4.48
X2.77Y-4.54
X2.86Y-4.6
X3.3Y-3.46
X3.43Y-3.45
T3
X3.14Y-4.47
X3.14Y-4.6
X3.17Y-2.0
X3.17Y-2.3
X3.17Y-2.41
X3.17Y-2.71
X3.17Y-2.82
X3.17Y-3.12
X3.17Y-3.23
X3.17Y-3.53
X3.17Y-3.64
X3.17Y-3.94
X3.17Y-4.05
X3.17Y-4.35
X3.3Y-2.0
X3.3Y-2.3
X3.3Y-2.41
X3.3Y-2.71
X3.3Y-2.82
X3.3Y-3.12
X3.3Y-3.23
X3.3Y-3.53
X3.3Y-3.64
X3.3Y-3.94
X3.3Y-4.05
X3.3Y-4.35
X3.43Y-2.0
X3.43Y-2.3
X3.43Y-2.41
X3.43Y-2.71
X3.43Y-2.82
X3.43Y-3.12
X3.43Y-3.23
X3.43Y-3.53
X3.43Y-3.64
X3.43Y-3.94
X3.43Y-4.05
X3.43Y-4.35
X3.44Y-4.47
X3.44Y-4.6
T4
X2.92Y-2.09
X2.92Y-2.36
X2.92Y-2.63
X2.92Y-2.9
X2.92Y-3.17
X2.92Y-3.44
X2.92Y-3.71
X2.92Y-3.98
X2.92Y-4.25
X2.92Y-4.53
X3.02Y-2.09
X3.02Y-2.36
X3.02Y-2.63
X3.02Y-2.9
X3.02Y-3.17
X3.02Y-3.44
X3.02Y-3.71
X3.02Y-3.98
X3.02Y-4.25
X3.02Y-4.53
X3.57Y-2.09
X3.57Y-2.36
X3.57Y-2.63
X3.57Y-2.9
X3.57Y-3.17
X3.57Y-3.44
X3.57Y-3.71
X3.57Y-3.98
X3.57Y-4.25
X3.57Y-4.53
X3.67Y-2.09
X3.67Y-2.36
X3.67Y-2.63
X3.67Y-2.9
X3.67Y-3.17
X3.67Y-3.44
X3.67Y-3.71
X3.67Y-3.98
X3.67Y-4.25
X3.67Y-4.53
T5
X2.2646Y-3.2937
X2.2646Y-3.3937
X2.2646Y-3.4937
X2.2646Y-3.5937
X2.2646Y-3.6937
X2.2646Y-3.7937
X2.2646Y-3.8937
X2.2646Y-3.9937
X2.2646Y-4.0937
X2.2646Y-4.1937
X2.2646Y-4.2937
X2.2646Y-4.3937
X2.2646Y-4.4937
X2.2646Y-4.5937
X2.3646Y-3.2937
X2.3646Y-3.3937
X2.3646Y-3.4937
X2.3646Y-3.5937
X2.3646Y-3.6937
X2.3646Y-3.7937
X2.3646Y-3.8937
X2.3646Y-3.9937
X2.3646Y-4.0937
X2.3646Y-4.1937
X2.3646Y-4.2937
X2.3646Y-4.3937
X2.3646Y-4.4937
X2.3646Y-4.5937
X2.61Y-2.06
X2.7084Y-2.06
T6
X2.63Y-4.1472
X2.63Y-4.47
X2.63Y-4.5881
X2.64Y-3.4472
X2.64Y-3.77
X2.64Y-3.8881
T2
G00X2.2787Y-2.31
M15
G01X2.2787Y-2.2785
M16
G05
G00X2.324Y-2.3937
M15
G01X2.2925Y-2.3937
M16
G05
G00X2.5091Y-2.3937
M15
G01X2.4776Y-2.3937
M16
G05
G00X2.572Y-2.2263
M15
G01X2.5406Y-2.2263
M16
G05
G00X2.5898Y-2.3415
M15
G01X2.5898Y-2.31
M16
G05
T0
M30
