%TF.GenerationSoftware,KiCad,Pcbnew,(5.1.10)-1*%
%TF.CreationDate,2022-02-04T18:43:22-05:00*%
%TF.ProjectId,OutputBoard_2,4f757470-7574-4426-9f61-72645f322e6b,rev?*%
%TF.SameCoordinates,Original*%
%TF.FileFunction,Copper,L2,Bot*%
%TF.FilePolarity,Positive*%
%FSLAX46Y46*%
G04 Gerber Fmt 4.6, Leading zero omitted, Abs format (unit mm)*
G04 Created by KiCad (PCBNEW (5.1.10)-1) date 2022-02-04 18:43:22*
%MOMM*%
%LPD*%
G01*
G04 APERTURE LIST*
%TA.AperFunction,ComponentPad*%
%ADD10O,1.700000X2.500000*%
%TD*%
%TA.AperFunction,ComponentPad*%
%ADD11O,2.500000X1.700000*%
%TD*%
%TA.AperFunction,ComponentPad*%
%ADD12C,1.800000*%
%TD*%
%TA.AperFunction,ComponentPad*%
%ADD13R,1.800000X1.800000*%
%TD*%
%TA.AperFunction,ComponentPad*%
%ADD14O,4.000000X2.500000*%
%TD*%
%TA.AperFunction,ComponentPad*%
%ADD15O,1.600000X1.600000*%
%TD*%
%TA.AperFunction,ComponentPad*%
%ADD16C,1.600000*%
%TD*%
%TA.AperFunction,ComponentPad*%
%ADD17R,1.700000X1.700000*%
%TD*%
%TA.AperFunction,ComponentPad*%
%ADD18O,1.700000X1.700000*%
%TD*%
%TA.AperFunction,ComponentPad*%
%ADD19O,1.700000X2.000000*%
%TD*%
%TA.AperFunction,ViaPad*%
%ADD20C,0.800000*%
%TD*%
%TA.AperFunction,Conductor*%
%ADD21C,1.000000*%
%TD*%
%TA.AperFunction,Conductor*%
%ADD22C,0.250000*%
%TD*%
G04 APERTURE END LIST*
D10*
%TO.P,J2,S*%
%TO.N,RPH*%
X65780000Y-59074000D03*
D11*
%TO.P,J2,G*%
%TO.N,GND*%
X63330000Y-60799000D03*
D10*
%TO.P,J2,T*%
%TO.N,LPH*%
X57880000Y-58274000D03*
D11*
%TO.P,J2,TN*%
%TO.N,Net-(J2-PadTN)*%
X58630000Y-60799000D03*
%TO.P,J2,SN*%
%TO.N,Net-(J2-PadSN)*%
X64930000Y-56549000D03*
%TD*%
D12*
%TO.P,D1,2*%
%TO.N,Net-(D1-Pad2)*%
X93218000Y-53086000D03*
D13*
%TO.P,D1,1*%
%TO.N,GND*%
X90678000Y-53086000D03*
%TD*%
%TO.P,D2,1*%
%TO.N,GND*%
X90678000Y-59944000D03*
D12*
%TO.P,D2,2*%
%TO.N,Net-(D2-Pad2)*%
X93218000Y-59944000D03*
%TD*%
%TO.P,D3,2*%
%TO.N,Net-(D3-Pad2)*%
X93218000Y-66802000D03*
D13*
%TO.P,D3,1*%
%TO.N,GND*%
X90678000Y-66802000D03*
%TD*%
%TO.P,D4,1*%
%TO.N,GND*%
X90678000Y-73660000D03*
D12*
%TO.P,D4,2*%
%TO.N,Net-(D4-Pad2)*%
X93218000Y-73660000D03*
%TD*%
%TO.P,D5,2*%
%TO.N,Net-(D5-Pad2)*%
X93218000Y-80518000D03*
D13*
%TO.P,D5,1*%
%TO.N,GND*%
X90678000Y-80518000D03*
%TD*%
%TO.P,D6,1*%
%TO.N,GND*%
X90678000Y-87376000D03*
D12*
%TO.P,D6,2*%
%TO.N,Net-(D6-Pad2)*%
X93218000Y-87376000D03*
%TD*%
%TO.P,D7,2*%
%TO.N,Net-(D7-Pad2)*%
X93218000Y-94234000D03*
D13*
%TO.P,D7,1*%
%TO.N,GND*%
X90678000Y-94234000D03*
%TD*%
%TO.P,D8,1*%
%TO.N,GND*%
X90678000Y-101092000D03*
D12*
%TO.P,D8,2*%
%TO.N,Net-(D8-Pad2)*%
X93218000Y-101092000D03*
%TD*%
%TO.P,D9,2*%
%TO.N,Net-(D9-Pad2)*%
X93218000Y-107950000D03*
D13*
%TO.P,D9,1*%
%TO.N,GND*%
X90678000Y-107950000D03*
%TD*%
%TO.P,D10,1*%
%TO.N,GND*%
X90678000Y-115062000D03*
D12*
%TO.P,D10,2*%
%TO.N,Net-(D10-Pad2)*%
X93218000Y-115062000D03*
%TD*%
%TO.P,D11,2*%
%TO.N,Net-(D11-Pad2)*%
X76708000Y-53086000D03*
D13*
%TO.P,D11,1*%
%TO.N,GND*%
X74168000Y-53086000D03*
%TD*%
%TO.P,D12,1*%
%TO.N,GND*%
X74168000Y-59944000D03*
D12*
%TO.P,D12,2*%
%TO.N,Net-(D12-Pad2)*%
X76708000Y-59944000D03*
%TD*%
%TO.P,D13,2*%
%TO.N,Net-(D13-Pad2)*%
X76708000Y-66802000D03*
D13*
%TO.P,D13,1*%
%TO.N,GND*%
X74168000Y-66802000D03*
%TD*%
D12*
%TO.P,D14,2*%
%TO.N,Net-(D14-Pad2)*%
X76708000Y-73660000D03*
D13*
%TO.P,D14,1*%
%TO.N,GND*%
X74168000Y-73660000D03*
%TD*%
D12*
%TO.P,D15,2*%
%TO.N,Net-(D15-Pad2)*%
X76708000Y-80518000D03*
D13*
%TO.P,D15,1*%
%TO.N,GND*%
X74168000Y-80518000D03*
%TD*%
%TO.P,D16,1*%
%TO.N,GND*%
X74168000Y-87376000D03*
D12*
%TO.P,D16,2*%
%TO.N,Net-(D16-Pad2)*%
X76708000Y-87376000D03*
%TD*%
D13*
%TO.P,D17,1*%
%TO.N,GND*%
X74168000Y-94234000D03*
D12*
%TO.P,D17,2*%
%TO.N,Net-(D17-Pad2)*%
X76708000Y-94234000D03*
%TD*%
D13*
%TO.P,D18,1*%
%TO.N,GND*%
X74168000Y-101092000D03*
D12*
%TO.P,D18,2*%
%TO.N,Net-(D18-Pad2)*%
X76708000Y-101092000D03*
%TD*%
%TO.P,D19,2*%
%TO.N,Net-(D19-Pad2)*%
X76708000Y-107950000D03*
D13*
%TO.P,D19,1*%
%TO.N,GND*%
X74168000Y-107950000D03*
%TD*%
%TO.P,D20,1*%
%TO.N,GND*%
X74168000Y-115062000D03*
D12*
%TO.P,D20,2*%
%TO.N,Net-(D20-Pad2)*%
X76708000Y-115062000D03*
%TD*%
D14*
%TO.P,J3,3*%
%TO.N,L*%
X67056000Y-87558000D03*
%TO.P,J3,2*%
%TO.N,Net-(J3-Pad2)*%
X67056000Y-95758000D03*
%TO.P,J3,1*%
%TO.N,GND*%
X67056000Y-98758000D03*
%TD*%
%TO.P,J4,1*%
%TO.N,GND*%
X66802000Y-116538000D03*
%TO.P,J4,2*%
%TO.N,Net-(J4-Pad2)*%
X66802000Y-113538000D03*
%TO.P,J4,3*%
%TO.N,R*%
X66802000Y-105338000D03*
%TD*%
D15*
%TO.P,R1,2*%
%TO.N,L110*%
X80518000Y-58420000D03*
D16*
%TO.P,R1,1*%
%TO.N,Net-(D1-Pad2)*%
X80518000Y-50800000D03*
%TD*%
%TO.P,R2,1*%
%TO.N,Net-(D2-Pad2)*%
X83820000Y-58420000D03*
D15*
%TO.P,R2,2*%
%TO.N,L19*%
X83820000Y-50800000D03*
%TD*%
%TO.P,R3,2*%
%TO.N,L18*%
X87122000Y-50800000D03*
D16*
%TO.P,R3,1*%
%TO.N,Net-(D3-Pad2)*%
X87122000Y-58420000D03*
%TD*%
D15*
%TO.P,R4,2*%
%TO.N,L17*%
X80518000Y-61214000D03*
D16*
%TO.P,R4,1*%
%TO.N,Net-(D4-Pad2)*%
X80518000Y-68834000D03*
%TD*%
%TO.P,R5,1*%
%TO.N,Net-(D5-Pad2)*%
X83820000Y-68834000D03*
D15*
%TO.P,R5,2*%
%TO.N,L16*%
X83820000Y-61214000D03*
%TD*%
D16*
%TO.P,R6,1*%
%TO.N,Net-(D6-Pad2)*%
X87122000Y-68834000D03*
D15*
%TO.P,R6,2*%
%TO.N,L15*%
X87122000Y-61214000D03*
%TD*%
%TO.P,R7,2*%
%TO.N,L14*%
X80518000Y-71628000D03*
D16*
%TO.P,R7,1*%
%TO.N,Net-(D7-Pad2)*%
X80518000Y-79248000D03*
%TD*%
%TO.P,R8,1*%
%TO.N,Net-(D8-Pad2)*%
X83820000Y-79248000D03*
D15*
%TO.P,R8,2*%
%TO.N,L13*%
X83820000Y-71628000D03*
%TD*%
%TO.P,R9,2*%
%TO.N,L12*%
X87122000Y-71628000D03*
D16*
%TO.P,R9,1*%
%TO.N,Net-(D9-Pad2)*%
X87122000Y-79248000D03*
%TD*%
D15*
%TO.P,R10,2*%
%TO.N,L11*%
X80518000Y-82042000D03*
D16*
%TO.P,R10,1*%
%TO.N,Net-(D10-Pad2)*%
X80518000Y-89662000D03*
%TD*%
%TO.P,R11,1*%
%TO.N,Net-(D11-Pad2)*%
X83820000Y-89662000D03*
D15*
%TO.P,R11,2*%
%TO.N,R110*%
X83820000Y-82042000D03*
%TD*%
D16*
%TO.P,R12,1*%
%TO.N,Net-(D12-Pad2)*%
X87122000Y-89662000D03*
D15*
%TO.P,R12,2*%
%TO.N,R19*%
X87122000Y-82042000D03*
%TD*%
%TO.P,R13,2*%
%TO.N,R18*%
X80518000Y-92456000D03*
D16*
%TO.P,R13,1*%
%TO.N,Net-(D13-Pad2)*%
X80518000Y-100076000D03*
%TD*%
D15*
%TO.P,R14,2*%
%TO.N,R17*%
X83820000Y-92456000D03*
D16*
%TO.P,R14,1*%
%TO.N,Net-(D14-Pad2)*%
X83820000Y-100076000D03*
%TD*%
%TO.P,R15,1*%
%TO.N,Net-(D15-Pad2)*%
X87122000Y-100076000D03*
D15*
%TO.P,R15,2*%
%TO.N,R16*%
X87122000Y-92456000D03*
%TD*%
%TO.P,R16,2*%
%TO.N,R15*%
X80518000Y-102870000D03*
D16*
%TO.P,R16,1*%
%TO.N,Net-(D16-Pad2)*%
X80518000Y-110490000D03*
%TD*%
%TO.P,R17,1*%
%TO.N,Net-(D17-Pad2)*%
X83820000Y-110490000D03*
D15*
%TO.P,R17,2*%
%TO.N,R14*%
X83820000Y-102870000D03*
%TD*%
D16*
%TO.P,R18,1*%
%TO.N,Net-(D18-Pad2)*%
X87122000Y-110490000D03*
D15*
%TO.P,R18,2*%
%TO.N,R13*%
X87122000Y-102870000D03*
%TD*%
%TO.P,R19,2*%
%TO.N,R12*%
X87376000Y-113538000D03*
D16*
%TO.P,R19,1*%
%TO.N,Net-(D19-Pad2)*%
X79756000Y-113538000D03*
%TD*%
%TO.P,R20,1*%
%TO.N,Net-(D20-Pad2)*%
X79756000Y-116840000D03*
D15*
%TO.P,R20,2*%
%TO.N,R11*%
X87376000Y-116840000D03*
%TD*%
D17*
%TO.P,J1,1*%
%TO.N,R*%
X60060000Y-83660000D03*
D18*
%TO.P,J1,2*%
%TO.N,GND*%
X57520000Y-83660000D03*
%TO.P,J1,3*%
%TO.N,L*%
X60060000Y-86200000D03*
%TO.P,J1,4*%
%TO.N,GND*%
X57520000Y-86200000D03*
%TO.P,J1,5*%
%TO.N,RPH*%
X60060000Y-88740000D03*
%TO.P,J1,6*%
%TO.N,MONO*%
X57520000Y-88740000D03*
%TO.P,J1,7*%
%TO.N,LPH*%
X60060000Y-91280000D03*
%TO.P,J1,8*%
%TO.N,MONO*%
X57520000Y-91280000D03*
%TO.P,J1,9*%
%TO.N,L11*%
X60060000Y-93820000D03*
%TO.P,J1,10*%
%TO.N,R11*%
X57520000Y-93820000D03*
%TO.P,J1,11*%
%TO.N,L12*%
X60060000Y-96360000D03*
%TO.P,J1,12*%
%TO.N,R12*%
X57520000Y-96360000D03*
%TO.P,J1,13*%
%TO.N,L13*%
X60060000Y-98900000D03*
%TO.P,J1,14*%
%TO.N,R13*%
X57520000Y-98900000D03*
%TO.P,J1,15*%
%TO.N,L14*%
X60060000Y-101440000D03*
%TO.P,J1,16*%
%TO.N,R14*%
X57520000Y-101440000D03*
%TO.P,J1,17*%
%TO.N,L15*%
X60060000Y-103980000D03*
%TO.P,J1,18*%
%TO.N,R15*%
X57520000Y-103980000D03*
%TO.P,J1,19*%
%TO.N,L16*%
X60060000Y-106520000D03*
%TO.P,J1,20*%
%TO.N,R16*%
X57520000Y-106520000D03*
%TO.P,J1,21*%
%TO.N,L17*%
X60060000Y-109060000D03*
%TO.P,J1,22*%
%TO.N,R17*%
X57520000Y-109060000D03*
%TO.P,J1,23*%
%TO.N,L18*%
X60060000Y-111600000D03*
%TO.P,J1,24*%
%TO.N,R18*%
X57520000Y-111600000D03*
%TO.P,J1,25*%
%TO.N,L19*%
X60060000Y-114140000D03*
%TO.P,J1,26*%
%TO.N,R19*%
X57520000Y-114140000D03*
%TO.P,J1,27*%
%TO.N,L110*%
X60060000Y-116680000D03*
%TO.P,J1,28*%
%TO.N,R110*%
X57520000Y-116680000D03*
%TD*%
%TO.P,J5,1*%
%TO.N,GND*%
%TA.AperFunction,ComponentPad*%
G36*
G01*
X65444000Y-53074000D02*
X65444000Y-51574000D01*
G75*
G02*
X65694000Y-51324000I250000J0D01*
G01*
X66894000Y-51324000D01*
G75*
G02*
X67144000Y-51574000I0J-250000D01*
G01*
X67144000Y-53074000D01*
G75*
G02*
X66894000Y-53324000I-250000J0D01*
G01*
X65694000Y-53324000D01*
G75*
G02*
X65444000Y-53074000I0J250000D01*
G01*
G37*
%TD.AperFunction*%
D19*
%TO.P,J5,2*%
%TO.N,MONO*%
X68794000Y-52324000D03*
%TD*%
D20*
%TO.N,R11*%
X70358000Y-103632000D03*
%TO.N,R12*%
X70300998Y-105213002D03*
%TO.N,R13*%
X70358000Y-106426000D03*
%TO.N,R14*%
X70358000Y-107950000D03*
%TO.N,R15*%
X70358000Y-109220000D03*
%TO.N,R16*%
X70358000Y-110744000D03*
%TO.N,R17*%
X70358000Y-112268000D03*
%TO.N,R18*%
X70358000Y-113792000D03*
%TO.N,R19*%
X70358000Y-115316000D03*
X87122000Y-87630000D03*
%TO.N,R110*%
X83820000Y-87884000D03*
X72644000Y-116840000D03*
%TD*%
D21*
%TO.N,GND*%
X90678000Y-107950000D02*
X90678000Y-101092000D01*
X90678000Y-101092000D02*
X90678000Y-94234000D01*
X90678000Y-87376000D02*
X90678000Y-80518000D01*
X90678000Y-73660000D02*
X90678000Y-59944000D01*
X90678000Y-59944000D02*
X90678000Y-53086000D01*
D22*
%TO.N,RPH*%
X56344999Y-89304001D02*
X56344999Y-82213411D01*
X56955999Y-89915001D02*
X56344999Y-89304001D01*
X58884999Y-89915001D02*
X56955999Y-89915001D01*
X60060000Y-88740000D02*
X58884999Y-89915001D01*
X56344999Y-82213411D02*
X57590400Y-80968010D01*
X71052401Y-80968009D02*
X71824010Y-80196400D01*
X57590400Y-80968010D02*
X71052401Y-80968009D01*
X66568410Y-59074000D02*
X65780000Y-59074000D01*
X71824009Y-64329599D02*
X66568410Y-59074000D01*
X71824010Y-80196400D02*
X71824009Y-64329599D01*
%TO.N,MONO*%
X58695001Y-82274999D02*
X59551982Y-81418018D01*
X58695001Y-87564999D02*
X58695001Y-82274999D01*
X57520000Y-88740000D02*
X58695001Y-87564999D01*
X59551982Y-81418018D02*
X71238802Y-81418018D01*
X71238802Y-81418018D02*
X72274019Y-80382799D01*
X72274019Y-80382799D02*
X72274018Y-64143198D01*
X68794000Y-60663180D02*
X68794000Y-52324000D01*
X72274018Y-64143198D02*
X68794000Y-60663180D01*
%TO.N,LPH*%
X57054990Y-59099010D02*
X57880000Y-58274000D01*
X57054990Y-61285705D02*
X57054990Y-59099010D01*
X71374000Y-64516000D02*
X70612000Y-63754000D01*
X59523285Y-63754000D02*
X57054990Y-61285705D01*
X71374000Y-80010000D02*
X71374000Y-64516000D01*
X70866000Y-80518000D02*
X71374000Y-80010000D01*
X57404000Y-80518000D02*
X70866000Y-80518000D01*
X55880000Y-82042000D02*
X57404000Y-80518000D01*
X55880000Y-91379002D02*
X55880000Y-82042000D01*
X56955999Y-92455001D02*
X55880000Y-91379002D01*
X70612000Y-63754000D02*
X59523285Y-63754000D01*
X58884999Y-92455001D02*
X56955999Y-92455001D01*
X60060000Y-91280000D02*
X58884999Y-92455001D01*
%TO.N,L11*%
X63771400Y-93820000D02*
X75549400Y-82042000D01*
X75549400Y-82042000D02*
X80518000Y-82042000D01*
X60060000Y-93820000D02*
X63771400Y-93820000D01*
%TO.N,R11*%
X78977411Y-115714999D02*
X78891398Y-115801012D01*
X86250999Y-115714999D02*
X78977411Y-115714999D01*
X87376000Y-116840000D02*
X86250999Y-115714999D01*
X78418400Y-115801012D02*
X76204401Y-118015011D01*
X78891398Y-115801012D02*
X78418400Y-115801012D01*
X69182989Y-104807011D02*
X70358000Y-103632000D01*
X69823598Y-118015010D02*
X69182989Y-117374401D01*
X69182989Y-117374401D02*
X69182989Y-104807011D01*
X76204401Y-118015011D02*
X69823598Y-118015010D01*
%TO.N,L12*%
X81643001Y-82582001D02*
X81643001Y-77106999D01*
X81058001Y-83167001D02*
X81643001Y-82582001D01*
X75060809Y-83167001D02*
X81058001Y-83167001D01*
X64516000Y-93726000D02*
X64516000Y-93711810D01*
X64516000Y-93711810D02*
X75060809Y-83167001D01*
X61882000Y-96360000D02*
X64516000Y-93726000D01*
X60060000Y-96360000D02*
X61882000Y-96360000D01*
X85546989Y-70052989D02*
X87122000Y-71628000D01*
X79791599Y-70052989D02*
X85546989Y-70052989D01*
X78942990Y-70901598D02*
X79791599Y-70052989D01*
X78942989Y-74406987D02*
X78942990Y-70901598D01*
X81643001Y-77106999D02*
X78942989Y-74406987D01*
%TO.N,R12*%
X76018001Y-117565001D02*
X78232000Y-115351002D01*
X70009999Y-117565001D02*
X76018001Y-117565001D01*
X69632999Y-117188001D02*
X70009999Y-117565001D01*
X69632999Y-105881001D02*
X69632999Y-117188001D01*
X70300998Y-105213002D02*
X69632999Y-105881001D01*
X79392999Y-114663001D02*
X80296001Y-114663001D01*
X78704998Y-115351002D02*
X79392999Y-114663001D01*
X78232000Y-115351002D02*
X78704998Y-115351002D01*
X81421002Y-113538000D02*
X87376000Y-113538000D01*
X80296001Y-114663001D02*
X81421002Y-113538000D01*
%TO.N,L13*%
X64966010Y-93993990D02*
X60060000Y-98900000D01*
X64966010Y-93898210D02*
X64966010Y-93993990D01*
X75247209Y-83617011D02*
X64966010Y-93898210D01*
X82093010Y-82768402D02*
X81244401Y-83617011D01*
X81244401Y-83617011D02*
X75247209Y-83617011D01*
X79392999Y-74220587D02*
X82093011Y-76920599D01*
X79392999Y-71087999D02*
X79392999Y-74220587D01*
X79977999Y-70502999D02*
X79392999Y-71087999D01*
X82694999Y-70502999D02*
X79977999Y-70502999D01*
X82093011Y-76920599D02*
X82093010Y-82768402D01*
X83820000Y-71628000D02*
X82694999Y-70502999D01*
%TO.N,R13*%
X86678360Y-101294990D02*
X79791598Y-101294990D01*
X87122000Y-101738630D02*
X86678360Y-101294990D01*
X87122000Y-102870000D02*
X87122000Y-101738630D01*
X79791598Y-101294990D02*
X75306608Y-105779980D01*
X71004020Y-105779980D02*
X70358000Y-106426000D01*
X75306608Y-105779980D02*
X71004020Y-105779980D01*
%TO.N,L14*%
X60060000Y-101440000D02*
X62018205Y-99481795D01*
X75482999Y-88446003D02*
X75482999Y-86061001D01*
X75328001Y-88601001D02*
X75482999Y-88446003D01*
X70995409Y-88601001D02*
X75328001Y-88601001D01*
X62018205Y-97578205D02*
X70995409Y-88601001D01*
X62018205Y-99481795D02*
X62018205Y-97578205D01*
X75482999Y-86061001D02*
X77476979Y-84067021D01*
X81430802Y-84067020D02*
X82543019Y-82954801D01*
X77476979Y-84067021D02*
X81430802Y-84067020D01*
X82543019Y-73653019D02*
X80518000Y-71628000D01*
X82543019Y-82954801D02*
X82543019Y-73653019D01*
%TO.N,R14*%
X83820000Y-102870000D02*
X82694999Y-101744999D01*
X79977999Y-101744999D02*
X75493008Y-106229990D01*
X82694999Y-101744999D02*
X79977999Y-101744999D01*
X72078010Y-106229990D02*
X70358000Y-107950000D01*
X75493008Y-106229990D02*
X72078010Y-106229990D01*
%TO.N,L15*%
X88247001Y-72168001D02*
X88247001Y-62339001D01*
X85090000Y-75325002D02*
X88247001Y-72168001D01*
X85090000Y-82437002D02*
X85090000Y-75325002D01*
X60060000Y-103980000D02*
X63710000Y-100330000D01*
X63710000Y-100330000D02*
X65650600Y-100330000D01*
X68458390Y-100333010D02*
X69596000Y-99195400D01*
X65650600Y-100330000D02*
X65653610Y-100333010D01*
X65653610Y-100333010D02*
X68458390Y-100333010D01*
X69596000Y-99195400D02*
X69596000Y-90636820D01*
X69596000Y-90636820D02*
X71181809Y-89051011D01*
X79820971Y-84517029D02*
X83009973Y-84517029D01*
X71181809Y-89051011D02*
X76845991Y-89051011D01*
X88247001Y-62339001D02*
X87122000Y-61214000D01*
X76845991Y-89051011D02*
X77978000Y-87919002D01*
X77978000Y-87919002D02*
X77978000Y-86360000D01*
X77978000Y-86360000D02*
X79820971Y-84517029D01*
X83009973Y-84517029D02*
X85090000Y-82437002D01*
%TO.N,R15*%
X80518000Y-102870000D02*
X76708000Y-106680000D01*
X70512998Y-109220000D02*
X70358000Y-109220000D01*
X73052998Y-106680000D02*
X70512998Y-109220000D01*
X76708000Y-106680000D02*
X73052998Y-106680000D01*
%TO.N,L16*%
X84945001Y-60088999D02*
X83820000Y-61214000D01*
X87662001Y-60088999D02*
X84945001Y-60088999D01*
X88697011Y-61124009D02*
X87662001Y-60088999D01*
X88697011Y-72354401D02*
X88697011Y-61124009D01*
X85540010Y-75511402D02*
X88697011Y-72354401D01*
X85540010Y-82623402D02*
X85540010Y-75511402D01*
X80007371Y-84967039D02*
X83196374Y-84967038D01*
X65467210Y-100783020D02*
X68644791Y-100783019D01*
X77032392Y-89501020D02*
X78428010Y-88105402D01*
X61764205Y-104815795D02*
X61764205Y-102912205D01*
X61764205Y-102912205D02*
X63896400Y-100780010D01*
X63896400Y-100780010D02*
X65464200Y-100780010D01*
X68644791Y-100783019D02*
X70046010Y-99381800D01*
X70046010Y-90823220D02*
X71368209Y-89501021D01*
X65464200Y-100780010D02*
X65467210Y-100783020D01*
X70046010Y-99381800D02*
X70046010Y-90823220D01*
X83196374Y-84967038D02*
X85540010Y-82623402D01*
X60060000Y-106520000D02*
X61764205Y-104815795D01*
X78428010Y-88105402D02*
X78428010Y-86546400D01*
X71368209Y-89501021D02*
X77032392Y-89501020D01*
X78428010Y-86546400D02*
X80007371Y-84967039D01*
%TO.N,R16*%
X88247001Y-94712371D02*
X88247001Y-103410001D01*
X88247001Y-103410001D02*
X85231002Y-106426000D01*
X87122000Y-93587370D02*
X88247001Y-94712371D01*
X87122000Y-92456000D02*
X87122000Y-93587370D01*
X80045002Y-106426000D02*
X77251002Y-109220000D01*
X85231002Y-106426000D02*
X80045002Y-106426000D01*
X71882000Y-109220000D02*
X70358000Y-110744000D01*
X77251002Y-109220000D02*
X71882000Y-109220000D01*
%TO.N,L17*%
X82093011Y-59638989D02*
X80518000Y-61214000D01*
X87848401Y-59638989D02*
X82093011Y-59638989D01*
X89147020Y-60937608D02*
X87848401Y-59638989D01*
X89147021Y-72540801D02*
X89147020Y-60937608D01*
X85996999Y-75690823D02*
X89147021Y-72540801D01*
X60060000Y-109060000D02*
X62214215Y-106905785D01*
X78878020Y-86732800D02*
X80193773Y-85417047D01*
X62214215Y-103098605D02*
X64079792Y-101233028D01*
X68831192Y-101233028D02*
X70496020Y-99568200D01*
X64079792Y-101233028D02*
X68831192Y-101233028D01*
X70496020Y-99568200D02*
X70496020Y-91009620D01*
X70496020Y-91009620D02*
X71554611Y-89951029D01*
X62214215Y-106905785D02*
X62214215Y-103098605D01*
X71554611Y-89951029D02*
X77218793Y-89951029D01*
X85996999Y-82802823D02*
X85996999Y-75690823D01*
X83382775Y-85417047D02*
X85996999Y-82802823D01*
X77218793Y-89951029D02*
X78878020Y-88291802D01*
X78878020Y-88291802D02*
X78878020Y-86732800D01*
X80193773Y-85417047D02*
X83382775Y-85417047D01*
%TO.N,R17*%
X87662001Y-91330999D02*
X88646000Y-92314998D01*
X84945001Y-91330999D02*
X87662001Y-91330999D01*
X83820000Y-92456000D02*
X84945001Y-91330999D01*
X88646000Y-94474960D02*
X88697011Y-94525971D01*
X88646000Y-92314998D02*
X88646000Y-94474960D01*
X88697010Y-103596402D02*
X85417402Y-106876010D01*
X88697011Y-94525971D02*
X88697010Y-103596402D01*
X85417402Y-106876010D02*
X80231402Y-106876010D01*
X80231402Y-106876010D02*
X77437402Y-109670010D01*
X72955990Y-109670010D02*
X70358000Y-112268000D01*
X77437402Y-109670010D02*
X72955990Y-109670010D01*
%TO.N,L18*%
X91948000Y-74775002D02*
X91948000Y-57150000D01*
X91539002Y-75184000D02*
X91948000Y-74775002D01*
X91440000Y-75184000D02*
X91539002Y-75184000D01*
X88247001Y-78376999D02*
X91440000Y-75184000D01*
X88247001Y-82582001D02*
X88247001Y-78376999D01*
X60060000Y-111600000D02*
X62664225Y-108995775D01*
X62664225Y-108995775D02*
X62664225Y-103285005D01*
X71741011Y-90401039D02*
X77405194Y-90401038D01*
X79328030Y-88478202D02*
X79328030Y-86919200D01*
X62664225Y-103285005D02*
X64266192Y-101683038D01*
X64266192Y-101683038D02*
X69017593Y-101683037D01*
X70946030Y-99754600D02*
X70946030Y-91196020D01*
X70946030Y-91196020D02*
X71741011Y-90401039D01*
X69017593Y-101683037D02*
X70946030Y-99754600D01*
X77405194Y-90401038D02*
X79328030Y-88478202D01*
X79328030Y-86919200D02*
X80380173Y-85867057D01*
X80380173Y-85867057D02*
X84961946Y-85867056D01*
X84961946Y-85867056D02*
X88247001Y-82582001D01*
X91948000Y-51970998D02*
X91948000Y-57150000D01*
X90777002Y-50800000D02*
X91948000Y-51970998D01*
X87122000Y-50800000D02*
X90777002Y-50800000D01*
%TO.N,R18*%
X87848402Y-90880990D02*
X89096010Y-92128598D01*
X82093010Y-90880990D02*
X87848402Y-90880990D01*
X80518000Y-92456000D02*
X82093010Y-90880990D01*
X89147020Y-94339572D02*
X89147019Y-103782803D01*
X89096010Y-94288560D02*
X89147020Y-94339572D01*
X89096010Y-92128598D02*
X89096010Y-94288560D01*
X89147019Y-103782803D02*
X85603802Y-107326020D01*
X85603802Y-107326020D02*
X80417802Y-107326020D01*
X80417802Y-107326020D02*
X77623802Y-110120020D01*
X74029980Y-110120020D02*
X70358000Y-113792000D01*
X77623802Y-110120020D02*
X74029980Y-110120020D01*
%TO.N,L19*%
X84945001Y-49674999D02*
X83820000Y-50800000D01*
X94443001Y-74248001D02*
X94443001Y-59008591D01*
X91626400Y-75634010D02*
X93056992Y-75634010D01*
X89652001Y-49674999D02*
X84945001Y-49674999D01*
X88697011Y-78563399D02*
X91626400Y-75634010D01*
X88697011Y-82768401D02*
X88697011Y-78563399D01*
X60060000Y-114140000D02*
X63114235Y-111085765D01*
X79778040Y-87105600D02*
X80566575Y-86317065D01*
X63114235Y-111085765D02*
X63114235Y-103509765D01*
X71396040Y-99941000D02*
X71396040Y-91382420D01*
X64490954Y-102133046D02*
X69203994Y-102133046D01*
X69203994Y-102133046D02*
X71396040Y-99941000D01*
X71396040Y-91382420D02*
X71927413Y-90851047D01*
X93056992Y-75634010D02*
X94443001Y-74248001D01*
X71927413Y-90851047D02*
X77591595Y-90851047D01*
X77591595Y-90851047D02*
X79778040Y-88664602D01*
X79778040Y-88664602D02*
X79778040Y-87105600D01*
X63114235Y-103509765D02*
X64490954Y-102133046D01*
X85148347Y-86317065D02*
X88697011Y-82768401D01*
X80566575Y-86317065D02*
X85148347Y-86317065D01*
X89652001Y-49674999D02*
X92980589Y-49674999D01*
X94443001Y-58972999D02*
X94425205Y-58990795D01*
X92980589Y-49674999D02*
X94443001Y-51137411D01*
X94443001Y-51137411D02*
X94443001Y-58972999D01*
X94443001Y-59008591D02*
X94425205Y-58990795D01*
%TO.N,R19*%
X88588009Y-89096009D02*
X87122000Y-87630000D01*
X89893011Y-89096009D02*
X88588009Y-89096009D01*
X94443001Y-93645999D02*
X89893011Y-89096009D01*
X94443001Y-108538001D02*
X94443001Y-93645999D01*
X91366001Y-111615001D02*
X94443001Y-108538001D01*
X74058999Y-111615001D02*
X91366001Y-111615001D01*
X70358000Y-115316000D02*
X74058999Y-111615001D01*
%TO.N,L110*%
X60060000Y-116680000D02*
X63564245Y-113175755D01*
X63564245Y-113175755D02*
X63564245Y-103696165D01*
X69390395Y-102583055D02*
X71846050Y-100127400D01*
X64677354Y-102583056D02*
X69390395Y-102583055D01*
X63564245Y-103696165D02*
X64677354Y-102583056D01*
X71846050Y-100127400D02*
X71846050Y-91568820D01*
X72113813Y-91301057D02*
X77777996Y-91301056D01*
X71846050Y-91568820D02*
X72113813Y-91301057D01*
X77777996Y-91301056D02*
X78292051Y-90787001D01*
X81058001Y-90787001D02*
X81643001Y-90202001D01*
X78292051Y-90787001D02*
X81058001Y-90787001D01*
X81643001Y-88790999D02*
X83666925Y-86767075D01*
X81643001Y-90202001D02*
X81643001Y-88790999D01*
X83666925Y-86767075D02*
X85334748Y-86767074D01*
X85334748Y-86767074D02*
X89147021Y-82954801D01*
X89147021Y-82954801D02*
X89147021Y-78749799D01*
X93243393Y-76084019D02*
X94893011Y-74434401D01*
X91812800Y-76084020D02*
X93243393Y-76084019D01*
X89147021Y-78749799D02*
X91812800Y-76084020D01*
X94893011Y-74434401D02*
X94893011Y-52948009D01*
X80518000Y-52436998D02*
X80518000Y-58420000D01*
X83730009Y-49224989D02*
X80518000Y-52436998D01*
X91169991Y-49224989D02*
X83730009Y-49224989D01*
X91169991Y-49224989D02*
X93166989Y-49224989D01*
X94893011Y-50951011D02*
X94893011Y-52948009D01*
X93166989Y-49224989D02*
X94893011Y-50951011D01*
%TO.N,R110*%
X83820000Y-87884000D02*
X84854232Y-87884000D01*
X87821997Y-86904999D02*
X89562998Y-88646000D01*
X85833233Y-86904999D02*
X87821997Y-86904999D01*
X84854232Y-87884000D02*
X85833233Y-86904999D01*
X89562998Y-88646000D02*
X90079412Y-88646000D01*
X90079412Y-88646000D02*
X94893011Y-93459599D01*
X94893010Y-108724402D02*
X91552401Y-112065011D01*
X94893011Y-93459599D02*
X94893010Y-108724402D01*
X91552401Y-112065011D02*
X74779987Y-112065011D01*
X72644000Y-114200998D02*
X72848499Y-113996499D01*
X72644000Y-116840000D02*
X72644000Y-114200998D01*
X74779987Y-112065011D02*
X72848499Y-113996499D01*
%TD*%
M02*
