%TF.GenerationSoftware,KiCad,Pcbnew,(5.1.10)-1*%
%TF.CreationDate,2021-09-17T22:04:39-04:00*%
%TF.ProjectId,Power Supply,506f7765-7220-4537-9570-706c792e6b69,rev?*%
%TF.SameCoordinates,Original*%
%TF.FileFunction,Legend,Top*%
%TF.FilePolarity,Positive*%
%FSLAX46Y46*%
G04 Gerber Fmt 4.6, Leading zero omitted, Abs format (unit mm)*
G04 Created by KiCad (PCBNEW (5.1.10)-1) date 2021-09-17 22:04:39*
%MOMM*%
%LPD*%
G01*
G04 APERTURE LIST*
%ADD10C,0.150000*%
%ADD11C,0.120000*%
G04 APERTURE END LIST*
D10*
X192667380Y-66793333D02*
X191667380Y-66793333D01*
X191667380Y-66412380D01*
X191715000Y-66317142D01*
X191762619Y-66269523D01*
X191857857Y-66221904D01*
X192000714Y-66221904D01*
X192095952Y-66269523D01*
X192143571Y-66317142D01*
X192191190Y-66412380D01*
X192191190Y-66793333D01*
X192667380Y-65650476D02*
X192619761Y-65745714D01*
X192572142Y-65793333D01*
X192476904Y-65840952D01*
X192191190Y-65840952D01*
X192095952Y-65793333D01*
X192048333Y-65745714D01*
X192000714Y-65650476D01*
X192000714Y-65507619D01*
X192048333Y-65412380D01*
X192095952Y-65364761D01*
X192191190Y-65317142D01*
X192476904Y-65317142D01*
X192572142Y-65364761D01*
X192619761Y-65412380D01*
X192667380Y-65507619D01*
X192667380Y-65650476D01*
X192619761Y-64936190D02*
X192667380Y-64840952D01*
X192667380Y-64650476D01*
X192619761Y-64555238D01*
X192524523Y-64507619D01*
X192476904Y-64507619D01*
X192381666Y-64555238D01*
X192334047Y-64650476D01*
X192334047Y-64793333D01*
X192286428Y-64888571D01*
X192191190Y-64936190D01*
X192143571Y-64936190D01*
X192048333Y-64888571D01*
X192000714Y-64793333D01*
X192000714Y-64650476D01*
X192048333Y-64555238D01*
X192667380Y-64079047D02*
X192000714Y-64079047D01*
X191667380Y-64079047D02*
X191715000Y-64126666D01*
X191762619Y-64079047D01*
X191715000Y-64031428D01*
X191667380Y-64079047D01*
X191762619Y-64079047D01*
X192000714Y-63745714D02*
X192000714Y-63364761D01*
X191667380Y-63602857D02*
X192524523Y-63602857D01*
X192619761Y-63555238D01*
X192667380Y-63460000D01*
X192667380Y-63364761D01*
X192667380Y-63031428D02*
X192000714Y-63031428D01*
X191667380Y-63031428D02*
X191715000Y-63079047D01*
X191762619Y-63031428D01*
X191715000Y-62983809D01*
X191667380Y-63031428D01*
X191762619Y-63031428D01*
X192000714Y-62650476D02*
X192667380Y-62412380D01*
X192000714Y-62174285D01*
X192619761Y-61412380D02*
X192667380Y-61507619D01*
X192667380Y-61698095D01*
X192619761Y-61793333D01*
X192524523Y-61840952D01*
X192143571Y-61840952D01*
X192048333Y-61793333D01*
X192000714Y-61698095D01*
X192000714Y-61507619D01*
X192048333Y-61412380D01*
X192143571Y-61364761D01*
X192238809Y-61364761D01*
X192334047Y-61840952D01*
X191667380Y-60317142D02*
X192667380Y-59983809D01*
X191667380Y-59650476D01*
X192667380Y-59174285D02*
X192619761Y-59269523D01*
X192572142Y-59317142D01*
X192476904Y-59364761D01*
X192191190Y-59364761D01*
X192095952Y-59317142D01*
X192048333Y-59269523D01*
X192000714Y-59174285D01*
X192000714Y-59031428D01*
X192048333Y-58936190D01*
X192095952Y-58888571D01*
X192191190Y-58840952D01*
X192476904Y-58840952D01*
X192572142Y-58888571D01*
X192619761Y-58936190D01*
X192667380Y-59031428D01*
X192667380Y-59174285D01*
X192667380Y-58269523D02*
X192619761Y-58364761D01*
X192524523Y-58412380D01*
X191667380Y-58412380D01*
X192000714Y-58031428D02*
X192000714Y-57650476D01*
X191667380Y-57888571D02*
X192524523Y-57888571D01*
X192619761Y-57840952D01*
X192667380Y-57745714D01*
X192667380Y-57650476D01*
X192667380Y-56888571D02*
X192143571Y-56888571D01*
X192048333Y-56936190D01*
X192000714Y-57031428D01*
X192000714Y-57221904D01*
X192048333Y-57317142D01*
X192619761Y-56888571D02*
X192667380Y-56983809D01*
X192667380Y-57221904D01*
X192619761Y-57317142D01*
X192524523Y-57364761D01*
X192429285Y-57364761D01*
X192334047Y-57317142D01*
X192286428Y-57221904D01*
X192286428Y-56983809D01*
X192238809Y-56888571D01*
X192000714Y-55983809D02*
X192810238Y-55983809D01*
X192905476Y-56031428D01*
X192953095Y-56079047D01*
X193000714Y-56174285D01*
X193000714Y-56317142D01*
X192953095Y-56412380D01*
X192619761Y-55983809D02*
X192667380Y-56079047D01*
X192667380Y-56269523D01*
X192619761Y-56364761D01*
X192572142Y-56412380D01*
X192476904Y-56460000D01*
X192191190Y-56460000D01*
X192095952Y-56412380D01*
X192048333Y-56364761D01*
X192000714Y-56269523D01*
X192000714Y-56079047D01*
X192048333Y-55983809D01*
X192619761Y-55126666D02*
X192667380Y-55221904D01*
X192667380Y-55412380D01*
X192619761Y-55507619D01*
X192524523Y-55555238D01*
X192143571Y-55555238D01*
X192048333Y-55507619D01*
X192000714Y-55412380D01*
X192000714Y-55221904D01*
X192048333Y-55126666D01*
X192143571Y-55079047D01*
X192238809Y-55079047D01*
X192334047Y-55555238D01*
X194031666Y-63031428D02*
X194031666Y-62555238D01*
X194317380Y-63126666D02*
X193317380Y-62793333D01*
X194317380Y-62460000D01*
X194317380Y-61698095D02*
X193317380Y-61698095D01*
X194269761Y-61698095D02*
X194317380Y-61793333D01*
X194317380Y-61983809D01*
X194269761Y-62079047D01*
X194222142Y-62126666D01*
X194126904Y-62174285D01*
X193841190Y-62174285D01*
X193745952Y-62126666D01*
X193698333Y-62079047D01*
X193650714Y-61983809D01*
X193650714Y-61793333D01*
X193698333Y-61698095D01*
X193650714Y-61221904D02*
X194507857Y-61221904D01*
X194603095Y-61269523D01*
X194650714Y-61364761D01*
X194650714Y-61412380D01*
X193317380Y-61221904D02*
X193365000Y-61269523D01*
X193412619Y-61221904D01*
X193365000Y-61174285D01*
X193317380Y-61221904D01*
X193412619Y-61221904D01*
X193650714Y-60317142D02*
X194317380Y-60317142D01*
X193650714Y-60745714D02*
X194174523Y-60745714D01*
X194269761Y-60698095D01*
X194317380Y-60602857D01*
X194317380Y-60460000D01*
X194269761Y-60364761D01*
X194222142Y-60317142D01*
X194269761Y-59888571D02*
X194317380Y-59793333D01*
X194317380Y-59602857D01*
X194269761Y-59507619D01*
X194174523Y-59460000D01*
X194126904Y-59460000D01*
X194031666Y-59507619D01*
X193984047Y-59602857D01*
X193984047Y-59745714D01*
X193936428Y-59840952D01*
X193841190Y-59888571D01*
X193793571Y-59888571D01*
X193698333Y-59840952D01*
X193650714Y-59745714D01*
X193650714Y-59602857D01*
X193698333Y-59507619D01*
X193650714Y-59174285D02*
X193650714Y-58793333D01*
X193317380Y-59031428D02*
X194174523Y-59031428D01*
X194269761Y-58983809D01*
X194317380Y-58888571D01*
X194317380Y-58793333D01*
X192667380Y-112775238D02*
X191667380Y-112775238D01*
X192667380Y-112203809D01*
X191667380Y-112203809D01*
X192619761Y-111346666D02*
X192667380Y-111441904D01*
X192667380Y-111632380D01*
X192619761Y-111727619D01*
X192524523Y-111775238D01*
X192143571Y-111775238D01*
X192048333Y-111727619D01*
X192000714Y-111632380D01*
X192000714Y-111441904D01*
X192048333Y-111346666D01*
X192143571Y-111299047D01*
X192238809Y-111299047D01*
X192334047Y-111775238D01*
X192000714Y-110441904D02*
X192810238Y-110441904D01*
X192905476Y-110489523D01*
X192953095Y-110537142D01*
X193000714Y-110632380D01*
X193000714Y-110775238D01*
X192953095Y-110870476D01*
X192619761Y-110441904D02*
X192667380Y-110537142D01*
X192667380Y-110727619D01*
X192619761Y-110822857D01*
X192572142Y-110870476D01*
X192476904Y-110918095D01*
X192191190Y-110918095D01*
X192095952Y-110870476D01*
X192048333Y-110822857D01*
X192000714Y-110727619D01*
X192000714Y-110537142D01*
X192048333Y-110441904D01*
X192667380Y-109537142D02*
X192143571Y-109537142D01*
X192048333Y-109584761D01*
X192000714Y-109680000D01*
X192000714Y-109870476D01*
X192048333Y-109965714D01*
X192619761Y-109537142D02*
X192667380Y-109632380D01*
X192667380Y-109870476D01*
X192619761Y-109965714D01*
X192524523Y-110013333D01*
X192429285Y-110013333D01*
X192334047Y-109965714D01*
X192286428Y-109870476D01*
X192286428Y-109632380D01*
X192238809Y-109537142D01*
X192000714Y-109203809D02*
X192000714Y-108822857D01*
X191667380Y-109060952D02*
X192524523Y-109060952D01*
X192619761Y-109013333D01*
X192667380Y-108918095D01*
X192667380Y-108822857D01*
X192667380Y-108489523D02*
X192000714Y-108489523D01*
X191667380Y-108489523D02*
X191715000Y-108537142D01*
X191762619Y-108489523D01*
X191715000Y-108441904D01*
X191667380Y-108489523D01*
X191762619Y-108489523D01*
X192000714Y-108108571D02*
X192667380Y-107870476D01*
X192000714Y-107632380D01*
X192619761Y-106870476D02*
X192667380Y-106965714D01*
X192667380Y-107156190D01*
X192619761Y-107251428D01*
X192524523Y-107299047D01*
X192143571Y-107299047D01*
X192048333Y-107251428D01*
X192000714Y-107156190D01*
X192000714Y-106965714D01*
X192048333Y-106870476D01*
X192143571Y-106822857D01*
X192238809Y-106822857D01*
X192334047Y-107299047D01*
X191667380Y-105775238D02*
X192667380Y-105441904D01*
X191667380Y-105108571D01*
X192667380Y-104632380D02*
X192619761Y-104727619D01*
X192572142Y-104775238D01*
X192476904Y-104822857D01*
X192191190Y-104822857D01*
X192095952Y-104775238D01*
X192048333Y-104727619D01*
X192000714Y-104632380D01*
X192000714Y-104489523D01*
X192048333Y-104394285D01*
X192095952Y-104346666D01*
X192191190Y-104299047D01*
X192476904Y-104299047D01*
X192572142Y-104346666D01*
X192619761Y-104394285D01*
X192667380Y-104489523D01*
X192667380Y-104632380D01*
X192667380Y-103727619D02*
X192619761Y-103822857D01*
X192524523Y-103870476D01*
X191667380Y-103870476D01*
X192000714Y-103489523D02*
X192000714Y-103108571D01*
X191667380Y-103346666D02*
X192524523Y-103346666D01*
X192619761Y-103299047D01*
X192667380Y-103203809D01*
X192667380Y-103108571D01*
X192667380Y-102346666D02*
X192143571Y-102346666D01*
X192048333Y-102394285D01*
X192000714Y-102489523D01*
X192000714Y-102680000D01*
X192048333Y-102775238D01*
X192619761Y-102346666D02*
X192667380Y-102441904D01*
X192667380Y-102680000D01*
X192619761Y-102775238D01*
X192524523Y-102822857D01*
X192429285Y-102822857D01*
X192334047Y-102775238D01*
X192286428Y-102680000D01*
X192286428Y-102441904D01*
X192238809Y-102346666D01*
X192000714Y-101441904D02*
X192810238Y-101441904D01*
X192905476Y-101489523D01*
X192953095Y-101537142D01*
X193000714Y-101632380D01*
X193000714Y-101775238D01*
X192953095Y-101870476D01*
X192619761Y-101441904D02*
X192667380Y-101537142D01*
X192667380Y-101727619D01*
X192619761Y-101822857D01*
X192572142Y-101870476D01*
X192476904Y-101918095D01*
X192191190Y-101918095D01*
X192095952Y-101870476D01*
X192048333Y-101822857D01*
X192000714Y-101727619D01*
X192000714Y-101537142D01*
X192048333Y-101441904D01*
X192619761Y-100584761D02*
X192667380Y-100680000D01*
X192667380Y-100870476D01*
X192619761Y-100965714D01*
X192524523Y-101013333D01*
X192143571Y-101013333D01*
X192048333Y-100965714D01*
X192000714Y-100870476D01*
X192000714Y-100680000D01*
X192048333Y-100584761D01*
X192143571Y-100537142D01*
X192238809Y-100537142D01*
X192334047Y-101013333D01*
X194031666Y-110584761D02*
X194031666Y-110108571D01*
X194317380Y-110680000D02*
X193317380Y-110346666D01*
X194317380Y-110013333D01*
X194317380Y-109251428D02*
X193317380Y-109251428D01*
X194269761Y-109251428D02*
X194317380Y-109346666D01*
X194317380Y-109537142D01*
X194269761Y-109632380D01*
X194222142Y-109680000D01*
X194126904Y-109727619D01*
X193841190Y-109727619D01*
X193745952Y-109680000D01*
X193698333Y-109632380D01*
X193650714Y-109537142D01*
X193650714Y-109346666D01*
X193698333Y-109251428D01*
X193650714Y-108775238D02*
X194507857Y-108775238D01*
X194603095Y-108822857D01*
X194650714Y-108918095D01*
X194650714Y-108965714D01*
X193317380Y-108775238D02*
X193365000Y-108822857D01*
X193412619Y-108775238D01*
X193365000Y-108727619D01*
X193317380Y-108775238D01*
X193412619Y-108775238D01*
X193650714Y-107870476D02*
X194317380Y-107870476D01*
X193650714Y-108299047D02*
X194174523Y-108299047D01*
X194269761Y-108251428D01*
X194317380Y-108156190D01*
X194317380Y-108013333D01*
X194269761Y-107918095D01*
X194222142Y-107870476D01*
X194269761Y-107441904D02*
X194317380Y-107346666D01*
X194317380Y-107156190D01*
X194269761Y-107060952D01*
X194174523Y-107013333D01*
X194126904Y-107013333D01*
X194031666Y-107060952D01*
X193984047Y-107156190D01*
X193984047Y-107299047D01*
X193936428Y-107394285D01*
X193841190Y-107441904D01*
X193793571Y-107441904D01*
X193698333Y-107394285D01*
X193650714Y-107299047D01*
X193650714Y-107156190D01*
X193698333Y-107060952D01*
X193650714Y-106727619D02*
X193650714Y-106346666D01*
X193317380Y-106584761D02*
X194174523Y-106584761D01*
X194269761Y-106537142D01*
X194317380Y-106441904D01*
X194317380Y-106346666D01*
X194317380Y-106013333D02*
X193650714Y-106013333D01*
X193745952Y-106013333D02*
X193698333Y-105965714D01*
X193650714Y-105870476D01*
X193650714Y-105727619D01*
X193698333Y-105632380D01*
X193793571Y-105584761D01*
X194317380Y-105584761D01*
X193793571Y-105584761D02*
X193698333Y-105537142D01*
X193650714Y-105441904D01*
X193650714Y-105299047D01*
X193698333Y-105203809D01*
X193793571Y-105156190D01*
X194317380Y-105156190D01*
X194269761Y-104299047D02*
X194317380Y-104394285D01*
X194317380Y-104584761D01*
X194269761Y-104680000D01*
X194174523Y-104727619D01*
X193793571Y-104727619D01*
X193698333Y-104680000D01*
X193650714Y-104584761D01*
X193650714Y-104394285D01*
X193698333Y-104299047D01*
X193793571Y-104251428D01*
X193888809Y-104251428D01*
X193984047Y-104727619D01*
X193650714Y-103822857D02*
X194317380Y-103822857D01*
X193745952Y-103822857D02*
X193698333Y-103775238D01*
X193650714Y-103680000D01*
X193650714Y-103537142D01*
X193698333Y-103441904D01*
X193793571Y-103394285D01*
X194317380Y-103394285D01*
X193650714Y-103060952D02*
X193650714Y-102680000D01*
X193317380Y-102918095D02*
X194174523Y-102918095D01*
X194269761Y-102870476D01*
X194317380Y-102775238D01*
X194317380Y-102680000D01*
X62730000Y-92583095D02*
X62777619Y-92487857D01*
X62777619Y-92345000D01*
X62730000Y-92202142D01*
X62634761Y-92106904D01*
X62539523Y-92059285D01*
X62349047Y-92011666D01*
X62206190Y-92011666D01*
X62015714Y-92059285D01*
X61920476Y-92106904D01*
X61825238Y-92202142D01*
X61777619Y-92345000D01*
X61777619Y-92440238D01*
X61825238Y-92583095D01*
X61872857Y-92630714D01*
X62206190Y-92630714D01*
X62206190Y-92440238D01*
X61777619Y-93059285D02*
X62777619Y-93059285D01*
X61777619Y-93630714D01*
X62777619Y-93630714D01*
X61777619Y-94106904D02*
X62777619Y-94106904D01*
X62777619Y-94345000D01*
X62730000Y-94487857D01*
X62634761Y-94583095D01*
X62539523Y-94630714D01*
X62349047Y-94678333D01*
X62206190Y-94678333D01*
X62015714Y-94630714D01*
X61920476Y-94583095D01*
X61825238Y-94487857D01*
X61777619Y-94345000D01*
X61777619Y-94106904D01*
X61825238Y-85915714D02*
X61777619Y-86058571D01*
X61777619Y-86296666D01*
X61825238Y-86391904D01*
X61872857Y-86439523D01*
X61968095Y-86487142D01*
X62063333Y-86487142D01*
X62158571Y-86439523D01*
X62206190Y-86391904D01*
X62253809Y-86296666D01*
X62301428Y-86106190D01*
X62349047Y-86010952D01*
X62396666Y-85963333D01*
X62491904Y-85915714D01*
X62587142Y-85915714D01*
X62682380Y-85963333D01*
X62730000Y-86010952D01*
X62777619Y-86106190D01*
X62777619Y-86344285D01*
X62730000Y-86487142D01*
X62301428Y-86915714D02*
X62301428Y-87249047D01*
X61777619Y-87391904D02*
X61777619Y-86915714D01*
X62777619Y-86915714D01*
X62777619Y-87391904D01*
X61872857Y-88391904D02*
X61825238Y-88344285D01*
X61777619Y-88201428D01*
X61777619Y-88106190D01*
X61825238Y-87963333D01*
X61920476Y-87868095D01*
X62015714Y-87820476D01*
X62206190Y-87772857D01*
X62349047Y-87772857D01*
X62539523Y-87820476D01*
X62634761Y-87868095D01*
X62730000Y-87963333D01*
X62777619Y-88106190D01*
X62777619Y-88201428D01*
X62730000Y-88344285D01*
X62682380Y-88391904D01*
X62682380Y-88772857D02*
X62730000Y-88820476D01*
X62777619Y-88915714D01*
X62777619Y-89153809D01*
X62730000Y-89249047D01*
X62682380Y-89296666D01*
X62587142Y-89344285D01*
X62491904Y-89344285D01*
X62349047Y-89296666D01*
X61777619Y-88725238D01*
X61777619Y-89344285D01*
X61872857Y-81550000D02*
X61825238Y-81502380D01*
X61777619Y-81359523D01*
X61777619Y-81264285D01*
X61825238Y-81121428D01*
X61920476Y-81026190D01*
X62015714Y-80978571D01*
X62206190Y-80930952D01*
X62349047Y-80930952D01*
X62539523Y-80978571D01*
X62634761Y-81026190D01*
X62730000Y-81121428D01*
X62777619Y-81264285D01*
X62777619Y-81359523D01*
X62730000Y-81502380D01*
X62682380Y-81550000D01*
X62777619Y-81835714D02*
X62777619Y-82407142D01*
X61777619Y-82121428D02*
X62777619Y-82121428D01*
X62063333Y-82692857D02*
X62063333Y-83169047D01*
X61777619Y-82597619D02*
X62777619Y-82930952D01*
X61777619Y-83264285D01*
X61777619Y-83597619D02*
X62777619Y-83597619D01*
X62777619Y-83978571D01*
X62730000Y-84073809D01*
X62682380Y-84121428D01*
X62587142Y-84169047D01*
X62444285Y-84169047D01*
X62349047Y-84121428D01*
X62301428Y-84073809D01*
X62253809Y-83978571D01*
X62253809Y-83597619D01*
X61825238Y-75755714D02*
X61777619Y-75898571D01*
X61777619Y-76136666D01*
X61825238Y-76231904D01*
X61872857Y-76279523D01*
X61968095Y-76327142D01*
X62063333Y-76327142D01*
X62158571Y-76279523D01*
X62206190Y-76231904D01*
X62253809Y-76136666D01*
X62301428Y-75946190D01*
X62349047Y-75850952D01*
X62396666Y-75803333D01*
X62491904Y-75755714D01*
X62587142Y-75755714D01*
X62682380Y-75803333D01*
X62730000Y-75850952D01*
X62777619Y-75946190D01*
X62777619Y-76184285D01*
X62730000Y-76327142D01*
X62301428Y-76755714D02*
X62301428Y-77089047D01*
X61777619Y-77231904D02*
X61777619Y-76755714D01*
X62777619Y-76755714D01*
X62777619Y-77231904D01*
X61872857Y-78231904D02*
X61825238Y-78184285D01*
X61777619Y-78041428D01*
X61777619Y-77946190D01*
X61825238Y-77803333D01*
X61920476Y-77708095D01*
X62015714Y-77660476D01*
X62206190Y-77612857D01*
X62349047Y-77612857D01*
X62539523Y-77660476D01*
X62634761Y-77708095D01*
X62730000Y-77803333D01*
X62777619Y-77946190D01*
X62777619Y-78041428D01*
X62730000Y-78184285D01*
X62682380Y-78231904D01*
X61777619Y-79184285D02*
X61777619Y-78612857D01*
X61777619Y-78898571D02*
X62777619Y-78898571D01*
X62634761Y-78803333D01*
X62539523Y-78708095D01*
X62491904Y-78612857D01*
D11*
%TO.C,J2*%
X201530000Y-92210000D02*
X200530000Y-92710000D01*
X201530000Y-93210000D02*
X201530000Y-92210000D01*
X200530000Y-92710000D02*
X201530000Y-93210000D01*
X198830000Y-81770000D02*
X200140000Y-81770000D01*
X198830000Y-81770000D02*
X198830000Y-81770000D01*
X198830000Y-71020000D02*
X198830000Y-81770000D01*
X192330000Y-71020000D02*
X198830000Y-71020000D01*
X192330000Y-96620000D02*
X192330000Y-71020000D01*
X198830000Y-96620000D02*
X192330000Y-96620000D01*
X198830000Y-85870000D02*
X198830000Y-96620000D01*
X200140000Y-85870000D02*
X198830000Y-85870000D01*
X200140000Y-69720000D02*
X200140000Y-97920000D01*
X191020000Y-69720000D02*
X200140000Y-69720000D01*
X191020000Y-97920000D02*
X191020000Y-69720000D01*
X200140000Y-97920000D02*
X191020000Y-97920000D01*
%TO.C,RV4*%
X195650000Y-56270000D02*
X197470000Y-56270000D01*
X198770000Y-56270000D02*
X200590000Y-56270000D01*
X195650000Y-63110000D02*
X197470000Y-63110000D01*
X198770000Y-63110000D02*
X200590000Y-63110000D01*
X200590000Y-56270000D02*
X200590000Y-63110000D01*
X195650000Y-56270000D02*
X195650000Y-63110000D01*
%TO.C,RV8*%
X200590000Y-111370000D02*
X200590000Y-104530000D01*
X195650000Y-111370000D02*
X195650000Y-104530000D01*
X197470000Y-104530000D02*
X195650000Y-104530000D01*
X200590000Y-104530000D02*
X198770000Y-104530000D01*
X197470000Y-111370000D02*
X195650000Y-111370000D01*
X200590000Y-111370000D02*
X198770000Y-111370000D01*
%TO.C,BR1*%
X78520000Y-73370000D02*
X78520000Y-96770000D01*
X78520000Y-96770000D02*
X85920000Y-96770000D01*
X85920000Y-96770000D02*
X85920000Y-73370000D01*
X85920000Y-73370000D02*
X78520000Y-73370000D01*
X81920000Y-78070000D02*
X78520000Y-78070000D01*
X84820000Y-73170000D02*
X86120000Y-73170000D01*
X86120000Y-73170000D02*
X86120000Y-74370000D01*
X85520000Y-78070000D02*
X85920000Y-78070000D01*
%TO.C,C1*%
X150464759Y-76586000D02*
X150464759Y-77216000D01*
X150149759Y-76901000D02*
X150779759Y-76901000D01*
X156891000Y-78338000D02*
X156891000Y-79142000D01*
X156851000Y-78107000D02*
X156851000Y-79373000D01*
X156811000Y-77938000D02*
X156811000Y-79542000D01*
X156771000Y-77800000D02*
X156771000Y-79680000D01*
X156731000Y-77681000D02*
X156731000Y-79799000D01*
X156691000Y-77575000D02*
X156691000Y-79905000D01*
X156651000Y-77478000D02*
X156651000Y-80002000D01*
X156611000Y-77390000D02*
X156611000Y-80090000D01*
X156571000Y-77308000D02*
X156571000Y-80172000D01*
X156531000Y-77231000D02*
X156531000Y-80249000D01*
X156491000Y-77159000D02*
X156491000Y-80321000D01*
X156451000Y-77090000D02*
X156451000Y-80390000D01*
X156411000Y-77026000D02*
X156411000Y-80454000D01*
X156371000Y-76964000D02*
X156371000Y-80516000D01*
X156331000Y-76906000D02*
X156331000Y-80574000D01*
X156291000Y-76850000D02*
X156291000Y-80630000D01*
X156251000Y-76796000D02*
X156251000Y-80684000D01*
X156211000Y-76745000D02*
X156211000Y-80735000D01*
X156171000Y-76696000D02*
X156171000Y-80784000D01*
X156131000Y-76648000D02*
X156131000Y-80832000D01*
X156091000Y-76603000D02*
X156091000Y-80877000D01*
X156051000Y-76558000D02*
X156051000Y-80922000D01*
X156011000Y-76516000D02*
X156011000Y-80964000D01*
X155971000Y-76475000D02*
X155971000Y-81005000D01*
X155931000Y-79780000D02*
X155931000Y-81045000D01*
X155931000Y-76435000D02*
X155931000Y-77700000D01*
X155891000Y-79780000D02*
X155891000Y-81083000D01*
X155891000Y-76397000D02*
X155891000Y-77700000D01*
X155851000Y-79780000D02*
X155851000Y-81120000D01*
X155851000Y-76360000D02*
X155851000Y-77700000D01*
X155811000Y-79780000D02*
X155811000Y-81156000D01*
X155811000Y-76324000D02*
X155811000Y-77700000D01*
X155771000Y-79780000D02*
X155771000Y-81190000D01*
X155771000Y-76290000D02*
X155771000Y-77700000D01*
X155731000Y-79780000D02*
X155731000Y-81224000D01*
X155731000Y-76256000D02*
X155731000Y-77700000D01*
X155691000Y-79780000D02*
X155691000Y-81256000D01*
X155691000Y-76224000D02*
X155691000Y-77700000D01*
X155651000Y-79780000D02*
X155651000Y-81288000D01*
X155651000Y-76192000D02*
X155651000Y-77700000D01*
X155611000Y-79780000D02*
X155611000Y-81318000D01*
X155611000Y-76162000D02*
X155611000Y-77700000D01*
X155571000Y-79780000D02*
X155571000Y-81347000D01*
X155571000Y-76133000D02*
X155571000Y-77700000D01*
X155531000Y-79780000D02*
X155531000Y-81376000D01*
X155531000Y-76104000D02*
X155531000Y-77700000D01*
X155491000Y-79780000D02*
X155491000Y-81404000D01*
X155491000Y-76076000D02*
X155491000Y-77700000D01*
X155451000Y-79780000D02*
X155451000Y-81430000D01*
X155451000Y-76050000D02*
X155451000Y-77700000D01*
X155411000Y-79780000D02*
X155411000Y-81456000D01*
X155411000Y-76024000D02*
X155411000Y-77700000D01*
X155371000Y-79780000D02*
X155371000Y-81482000D01*
X155371000Y-75998000D02*
X155371000Y-77700000D01*
X155331000Y-79780000D02*
X155331000Y-81506000D01*
X155331000Y-75974000D02*
X155331000Y-77700000D01*
X155291000Y-79780000D02*
X155291000Y-81530000D01*
X155291000Y-75950000D02*
X155291000Y-77700000D01*
X155251000Y-79780000D02*
X155251000Y-81552000D01*
X155251000Y-75928000D02*
X155251000Y-77700000D01*
X155211000Y-79780000D02*
X155211000Y-81574000D01*
X155211000Y-75906000D02*
X155211000Y-77700000D01*
X155171000Y-79780000D02*
X155171000Y-81596000D01*
X155171000Y-75884000D02*
X155171000Y-77700000D01*
X155131000Y-79780000D02*
X155131000Y-81616000D01*
X155131000Y-75864000D02*
X155131000Y-77700000D01*
X155091000Y-79780000D02*
X155091000Y-81636000D01*
X155091000Y-75844000D02*
X155091000Y-77700000D01*
X155051000Y-79780000D02*
X155051000Y-81656000D01*
X155051000Y-75824000D02*
X155051000Y-77700000D01*
X155011000Y-79780000D02*
X155011000Y-81674000D01*
X155011000Y-75806000D02*
X155011000Y-77700000D01*
X154971000Y-79780000D02*
X154971000Y-81692000D01*
X154971000Y-75788000D02*
X154971000Y-77700000D01*
X154931000Y-79780000D02*
X154931000Y-81710000D01*
X154931000Y-75770000D02*
X154931000Y-77700000D01*
X154891000Y-79780000D02*
X154891000Y-81726000D01*
X154891000Y-75754000D02*
X154891000Y-77700000D01*
X154851000Y-79780000D02*
X154851000Y-81742000D01*
X154851000Y-75738000D02*
X154851000Y-77700000D01*
X154811000Y-79780000D02*
X154811000Y-81758000D01*
X154811000Y-75722000D02*
X154811000Y-77700000D01*
X154771000Y-79780000D02*
X154771000Y-81773000D01*
X154771000Y-75707000D02*
X154771000Y-77700000D01*
X154731000Y-79780000D02*
X154731000Y-81787000D01*
X154731000Y-75693000D02*
X154731000Y-77700000D01*
X154691000Y-79780000D02*
X154691000Y-81801000D01*
X154691000Y-75679000D02*
X154691000Y-77700000D01*
X154651000Y-79780000D02*
X154651000Y-81814000D01*
X154651000Y-75666000D02*
X154651000Y-77700000D01*
X154611000Y-79780000D02*
X154611000Y-81826000D01*
X154611000Y-75654000D02*
X154611000Y-77700000D01*
X154571000Y-79780000D02*
X154571000Y-81838000D01*
X154571000Y-75642000D02*
X154571000Y-77700000D01*
X154531000Y-79780000D02*
X154531000Y-81850000D01*
X154531000Y-75630000D02*
X154531000Y-77700000D01*
X154491000Y-79780000D02*
X154491000Y-81861000D01*
X154491000Y-75619000D02*
X154491000Y-77700000D01*
X154451000Y-79780000D02*
X154451000Y-81871000D01*
X154451000Y-75609000D02*
X154451000Y-77700000D01*
X154411000Y-79780000D02*
X154411000Y-81881000D01*
X154411000Y-75599000D02*
X154411000Y-77700000D01*
X154371000Y-79780000D02*
X154371000Y-81890000D01*
X154371000Y-75590000D02*
X154371000Y-77700000D01*
X154330000Y-79780000D02*
X154330000Y-81899000D01*
X154330000Y-75581000D02*
X154330000Y-77700000D01*
X154290000Y-79780000D02*
X154290000Y-81907000D01*
X154290000Y-75573000D02*
X154290000Y-77700000D01*
X154250000Y-79780000D02*
X154250000Y-81915000D01*
X154250000Y-75565000D02*
X154250000Y-77700000D01*
X154210000Y-79780000D02*
X154210000Y-81922000D01*
X154210000Y-75558000D02*
X154210000Y-77700000D01*
X154170000Y-79780000D02*
X154170000Y-81929000D01*
X154170000Y-75551000D02*
X154170000Y-77700000D01*
X154130000Y-79780000D02*
X154130000Y-81935000D01*
X154130000Y-75545000D02*
X154130000Y-77700000D01*
X154090000Y-79780000D02*
X154090000Y-81941000D01*
X154090000Y-75539000D02*
X154090000Y-77700000D01*
X154050000Y-79780000D02*
X154050000Y-81946000D01*
X154050000Y-75534000D02*
X154050000Y-77700000D01*
X154010000Y-79780000D02*
X154010000Y-81951000D01*
X154010000Y-75529000D02*
X154010000Y-77700000D01*
X153970000Y-79780000D02*
X153970000Y-81955000D01*
X153970000Y-75525000D02*
X153970000Y-77700000D01*
X153930000Y-79780000D02*
X153930000Y-81958000D01*
X153930000Y-75522000D02*
X153930000Y-77700000D01*
X153890000Y-79780000D02*
X153890000Y-81962000D01*
X153890000Y-75518000D02*
X153890000Y-77700000D01*
X153850000Y-75516000D02*
X153850000Y-81964000D01*
X153810000Y-75513000D02*
X153810000Y-81967000D01*
X153770000Y-75512000D02*
X153770000Y-81968000D01*
X153730000Y-75510000D02*
X153730000Y-81970000D01*
X153690000Y-75510000D02*
X153690000Y-81970000D01*
X153650000Y-75510000D02*
X153650000Y-81970000D01*
X156920000Y-78740000D02*
G75*
G03*
X156920000Y-78740000I-3270000J0D01*
G01*
%TO.C,C2*%
X132729000Y-83470000D02*
X131471000Y-83470000D01*
X132729000Y-81630000D02*
X131471000Y-81630000D01*
%TO.C,C3*%
X140685225Y-63045000D02*
X140685225Y-63545000D01*
X140435225Y-63295000D02*
X140935225Y-63295000D01*
X145841000Y-64486000D02*
X145841000Y-65054000D01*
X145801000Y-64252000D02*
X145801000Y-65288000D01*
X145761000Y-64093000D02*
X145761000Y-65447000D01*
X145721000Y-63965000D02*
X145721000Y-65575000D01*
X145681000Y-63855000D02*
X145681000Y-65685000D01*
X145641000Y-63759000D02*
X145641000Y-65781000D01*
X145601000Y-63672000D02*
X145601000Y-65868000D01*
X145561000Y-63592000D02*
X145561000Y-65948000D01*
X145521000Y-63519000D02*
X145521000Y-66021000D01*
X145481000Y-63451000D02*
X145481000Y-66089000D01*
X145441000Y-63387000D02*
X145441000Y-66153000D01*
X145401000Y-63327000D02*
X145401000Y-66213000D01*
X145361000Y-63270000D02*
X145361000Y-66270000D01*
X145321000Y-63216000D02*
X145321000Y-66324000D01*
X145281000Y-63165000D02*
X145281000Y-66375000D01*
X145241000Y-65810000D02*
X145241000Y-66423000D01*
X145241000Y-63117000D02*
X145241000Y-63730000D01*
X145201000Y-65810000D02*
X145201000Y-66469000D01*
X145201000Y-63071000D02*
X145201000Y-63730000D01*
X145161000Y-65810000D02*
X145161000Y-66513000D01*
X145161000Y-63027000D02*
X145161000Y-63730000D01*
X145121000Y-65810000D02*
X145121000Y-66555000D01*
X145121000Y-62985000D02*
X145121000Y-63730000D01*
X145081000Y-65810000D02*
X145081000Y-66596000D01*
X145081000Y-62944000D02*
X145081000Y-63730000D01*
X145041000Y-65810000D02*
X145041000Y-66634000D01*
X145041000Y-62906000D02*
X145041000Y-63730000D01*
X145001000Y-65810000D02*
X145001000Y-66671000D01*
X145001000Y-62869000D02*
X145001000Y-63730000D01*
X144961000Y-65810000D02*
X144961000Y-66707000D01*
X144961000Y-62833000D02*
X144961000Y-63730000D01*
X144921000Y-65810000D02*
X144921000Y-66741000D01*
X144921000Y-62799000D02*
X144921000Y-63730000D01*
X144881000Y-65810000D02*
X144881000Y-66774000D01*
X144881000Y-62766000D02*
X144881000Y-63730000D01*
X144841000Y-65810000D02*
X144841000Y-66805000D01*
X144841000Y-62735000D02*
X144841000Y-63730000D01*
X144801000Y-65810000D02*
X144801000Y-66835000D01*
X144801000Y-62705000D02*
X144801000Y-63730000D01*
X144761000Y-65810000D02*
X144761000Y-66865000D01*
X144761000Y-62675000D02*
X144761000Y-63730000D01*
X144721000Y-65810000D02*
X144721000Y-66892000D01*
X144721000Y-62648000D02*
X144721000Y-63730000D01*
X144681000Y-65810000D02*
X144681000Y-66919000D01*
X144681000Y-62621000D02*
X144681000Y-63730000D01*
X144641000Y-65810000D02*
X144641000Y-66945000D01*
X144641000Y-62595000D02*
X144641000Y-63730000D01*
X144601000Y-65810000D02*
X144601000Y-66970000D01*
X144601000Y-62570000D02*
X144601000Y-63730000D01*
X144561000Y-65810000D02*
X144561000Y-66994000D01*
X144561000Y-62546000D02*
X144561000Y-63730000D01*
X144521000Y-65810000D02*
X144521000Y-67017000D01*
X144521000Y-62523000D02*
X144521000Y-63730000D01*
X144481000Y-65810000D02*
X144481000Y-67038000D01*
X144481000Y-62502000D02*
X144481000Y-63730000D01*
X144441000Y-65810000D02*
X144441000Y-67060000D01*
X144441000Y-62480000D02*
X144441000Y-63730000D01*
X144401000Y-65810000D02*
X144401000Y-67080000D01*
X144401000Y-62460000D02*
X144401000Y-63730000D01*
X144361000Y-65810000D02*
X144361000Y-67099000D01*
X144361000Y-62441000D02*
X144361000Y-63730000D01*
X144321000Y-65810000D02*
X144321000Y-67118000D01*
X144321000Y-62422000D02*
X144321000Y-63730000D01*
X144281000Y-65810000D02*
X144281000Y-67135000D01*
X144281000Y-62405000D02*
X144281000Y-63730000D01*
X144241000Y-65810000D02*
X144241000Y-67152000D01*
X144241000Y-62388000D02*
X144241000Y-63730000D01*
X144201000Y-65810000D02*
X144201000Y-67168000D01*
X144201000Y-62372000D02*
X144201000Y-63730000D01*
X144161000Y-65810000D02*
X144161000Y-67184000D01*
X144161000Y-62356000D02*
X144161000Y-63730000D01*
X144121000Y-65810000D02*
X144121000Y-67198000D01*
X144121000Y-62342000D02*
X144121000Y-63730000D01*
X144081000Y-65810000D02*
X144081000Y-67212000D01*
X144081000Y-62328000D02*
X144081000Y-63730000D01*
X144041000Y-65810000D02*
X144041000Y-67225000D01*
X144041000Y-62315000D02*
X144041000Y-63730000D01*
X144001000Y-65810000D02*
X144001000Y-67238000D01*
X144001000Y-62302000D02*
X144001000Y-63730000D01*
X143961000Y-65810000D02*
X143961000Y-67250000D01*
X143961000Y-62290000D02*
X143961000Y-63730000D01*
X143920000Y-65810000D02*
X143920000Y-67261000D01*
X143920000Y-62279000D02*
X143920000Y-63730000D01*
X143880000Y-65810000D02*
X143880000Y-67271000D01*
X143880000Y-62269000D02*
X143880000Y-63730000D01*
X143840000Y-65810000D02*
X143840000Y-67281000D01*
X143840000Y-62259000D02*
X143840000Y-63730000D01*
X143800000Y-65810000D02*
X143800000Y-67290000D01*
X143800000Y-62250000D02*
X143800000Y-63730000D01*
X143760000Y-65810000D02*
X143760000Y-67298000D01*
X143760000Y-62242000D02*
X143760000Y-63730000D01*
X143720000Y-65810000D02*
X143720000Y-67306000D01*
X143720000Y-62234000D02*
X143720000Y-63730000D01*
X143680000Y-65810000D02*
X143680000Y-67313000D01*
X143680000Y-62227000D02*
X143680000Y-63730000D01*
X143640000Y-65810000D02*
X143640000Y-67320000D01*
X143640000Y-62220000D02*
X143640000Y-63730000D01*
X143600000Y-65810000D02*
X143600000Y-67326000D01*
X143600000Y-62214000D02*
X143600000Y-63730000D01*
X143560000Y-65810000D02*
X143560000Y-67331000D01*
X143560000Y-62209000D02*
X143560000Y-63730000D01*
X143520000Y-65810000D02*
X143520000Y-67335000D01*
X143520000Y-62205000D02*
X143520000Y-63730000D01*
X143480000Y-65810000D02*
X143480000Y-67339000D01*
X143480000Y-62201000D02*
X143480000Y-63730000D01*
X143440000Y-65810000D02*
X143440000Y-67343000D01*
X143440000Y-62197000D02*
X143440000Y-63730000D01*
X143400000Y-65810000D02*
X143400000Y-67346000D01*
X143400000Y-62194000D02*
X143400000Y-63730000D01*
X143360000Y-65810000D02*
X143360000Y-67348000D01*
X143360000Y-62192000D02*
X143360000Y-63730000D01*
X143320000Y-65810000D02*
X143320000Y-67349000D01*
X143320000Y-62191000D02*
X143320000Y-63730000D01*
X143280000Y-62190000D02*
X143280000Y-63730000D01*
X143280000Y-65810000D02*
X143280000Y-67350000D01*
X143240000Y-62190000D02*
X143240000Y-63730000D01*
X143240000Y-65810000D02*
X143240000Y-67350000D01*
X145860000Y-64770000D02*
G75*
G03*
X145860000Y-64770000I-2620000J0D01*
G01*
%TO.C,C4*%
X91775000Y-82579440D02*
X93575000Y-82579440D01*
X92675000Y-83479440D02*
X92675000Y-81679440D01*
X97750000Y-64600000D02*
X97830000Y-64600000D01*
X96976000Y-64640000D02*
X98604000Y-64640000D01*
X96624000Y-64680000D02*
X98956000Y-64680000D01*
X96355000Y-64720000D02*
X99225000Y-64720000D01*
X96129000Y-64760000D02*
X99451000Y-64760000D01*
X95930000Y-64800000D02*
X99650000Y-64800000D01*
X95751000Y-64840000D02*
X99829000Y-64840000D01*
X95587000Y-64880000D02*
X99993000Y-64880000D01*
X95435000Y-64920000D02*
X100145000Y-64920000D01*
X95292000Y-64960000D02*
X100288000Y-64960000D01*
X95158000Y-65000000D02*
X100422000Y-65000000D01*
X95031000Y-65040000D02*
X100549000Y-65040000D01*
X94910000Y-65080000D02*
X100670000Y-65080000D01*
X94794000Y-65120000D02*
X100786000Y-65120000D01*
X94683000Y-65160000D02*
X100897000Y-65160000D01*
X94576000Y-65200000D02*
X101004000Y-65200000D01*
X94473000Y-65240000D02*
X101107000Y-65240000D01*
X94374000Y-65280000D02*
X101206000Y-65280000D01*
X94278000Y-65320000D02*
X101302000Y-65320000D01*
X94185000Y-65360000D02*
X101395000Y-65360000D01*
X94094000Y-65400000D02*
X101486000Y-65400000D01*
X94006000Y-65440000D02*
X101574000Y-65440000D01*
X93921000Y-65480000D02*
X101659000Y-65480000D01*
X93838000Y-65520000D02*
X101742000Y-65520000D01*
X93757000Y-65559000D02*
X101823000Y-65559000D01*
X93677000Y-65599000D02*
X101903000Y-65599000D01*
X93600000Y-65639000D02*
X101980000Y-65639000D01*
X93525000Y-65679000D02*
X102055000Y-65679000D01*
X93451000Y-65719000D02*
X102129000Y-65719000D01*
X93378000Y-65759000D02*
X102202000Y-65759000D01*
X93308000Y-65799000D02*
X102272000Y-65799000D01*
X93238000Y-65839000D02*
X102342000Y-65839000D01*
X93170000Y-65879000D02*
X102410000Y-65879000D01*
X93104000Y-65919000D02*
X102476000Y-65919000D01*
X93038000Y-65959000D02*
X102542000Y-65959000D01*
X92974000Y-65999000D02*
X102606000Y-65999000D01*
X92911000Y-66039000D02*
X102669000Y-66039000D01*
X92849000Y-66079000D02*
X102731000Y-66079000D01*
X92788000Y-66119000D02*
X102792000Y-66119000D01*
X92728000Y-66159000D02*
X102852000Y-66159000D01*
X92670000Y-66199000D02*
X102910000Y-66199000D01*
X92612000Y-66239000D02*
X102968000Y-66239000D01*
X92555000Y-66279000D02*
X103025000Y-66279000D01*
X92499000Y-66319000D02*
X103081000Y-66319000D01*
X92444000Y-66359000D02*
X103136000Y-66359000D01*
X92390000Y-66399000D02*
X103190000Y-66399000D01*
X92336000Y-66439000D02*
X103244000Y-66439000D01*
X92284000Y-66479000D02*
X103296000Y-66479000D01*
X92232000Y-66519000D02*
X103348000Y-66519000D01*
X92181000Y-66559000D02*
X103399000Y-66559000D01*
X92130000Y-66599000D02*
X103450000Y-66599000D01*
X92081000Y-66639000D02*
X103499000Y-66639000D01*
X92032000Y-66679000D02*
X103548000Y-66679000D01*
X91984000Y-66719000D02*
X103596000Y-66719000D01*
X91936000Y-66759000D02*
X103644000Y-66759000D01*
X91889000Y-66799000D02*
X103691000Y-66799000D01*
X91843000Y-66839000D02*
X103737000Y-66839000D01*
X91797000Y-66879000D02*
X103783000Y-66879000D01*
X91752000Y-66919000D02*
X103828000Y-66919000D01*
X91708000Y-66959000D02*
X103872000Y-66959000D01*
X91664000Y-66999000D02*
X103916000Y-66999000D01*
X91620000Y-67039000D02*
X103960000Y-67039000D01*
X91578000Y-67079000D02*
X104002000Y-67079000D01*
X91536000Y-67119000D02*
X104044000Y-67119000D01*
X91494000Y-67159000D02*
X104086000Y-67159000D01*
X91453000Y-67199000D02*
X104127000Y-67199000D01*
X91412000Y-67239000D02*
X104168000Y-67239000D01*
X91372000Y-67279000D02*
X104208000Y-67279000D01*
X91332000Y-67319000D02*
X104248000Y-67319000D01*
X91293000Y-67359000D02*
X104287000Y-67359000D01*
X91254000Y-67399000D02*
X104326000Y-67399000D01*
X91216000Y-67439000D02*
X104364000Y-67439000D01*
X91178000Y-67479000D02*
X104402000Y-67479000D01*
X91141000Y-67519000D02*
X104439000Y-67519000D01*
X91104000Y-67559000D02*
X104476000Y-67559000D01*
X91068000Y-67599000D02*
X104512000Y-67599000D01*
X91032000Y-67639000D02*
X104548000Y-67639000D01*
X90996000Y-67679000D02*
X104584000Y-67679000D01*
X90961000Y-67719000D02*
X104619000Y-67719000D01*
X90926000Y-67759000D02*
X104654000Y-67759000D01*
X90892000Y-67799000D02*
X104688000Y-67799000D01*
X90858000Y-67839000D02*
X104722000Y-67839000D01*
X90825000Y-67879000D02*
X104755000Y-67879000D01*
X90791000Y-67919000D02*
X104789000Y-67919000D01*
X90759000Y-67959000D02*
X104821000Y-67959000D01*
X90726000Y-67999000D02*
X104854000Y-67999000D01*
X90694000Y-68039000D02*
X104886000Y-68039000D01*
X90663000Y-68079000D02*
X104917000Y-68079000D01*
X90631000Y-68119000D02*
X104949000Y-68119000D01*
X90600000Y-68159000D02*
X104980000Y-68159000D01*
X90570000Y-68199000D02*
X105010000Y-68199000D01*
X90540000Y-68239000D02*
X105040000Y-68239000D01*
X90510000Y-68279000D02*
X105070000Y-68279000D01*
X90480000Y-68319000D02*
X105100000Y-68319000D01*
X90451000Y-68359000D02*
X105129000Y-68359000D01*
X90422000Y-68399000D02*
X105158000Y-68399000D01*
X90393000Y-68439000D02*
X105187000Y-68439000D01*
X90365000Y-68479000D02*
X105215000Y-68479000D01*
X90337000Y-68519000D02*
X105243000Y-68519000D01*
X99230000Y-68559000D02*
X105270000Y-68559000D01*
X90310000Y-68559000D02*
X96350000Y-68559000D01*
X99230000Y-68599000D02*
X105298000Y-68599000D01*
X90282000Y-68599000D02*
X96350000Y-68599000D01*
X99230000Y-68639000D02*
X105325000Y-68639000D01*
X90255000Y-68639000D02*
X96350000Y-68639000D01*
X99230000Y-68679000D02*
X105351000Y-68679000D01*
X90229000Y-68679000D02*
X96350000Y-68679000D01*
X99230000Y-68719000D02*
X105378000Y-68719000D01*
X90202000Y-68719000D02*
X96350000Y-68719000D01*
X99230000Y-68759000D02*
X105404000Y-68759000D01*
X90176000Y-68759000D02*
X96350000Y-68759000D01*
X99230000Y-68799000D02*
X105430000Y-68799000D01*
X90150000Y-68799000D02*
X96350000Y-68799000D01*
X99230000Y-68839000D02*
X105455000Y-68839000D01*
X90125000Y-68839000D02*
X96350000Y-68839000D01*
X99230000Y-68879000D02*
X105480000Y-68879000D01*
X90100000Y-68879000D02*
X96350000Y-68879000D01*
X99230000Y-68919000D02*
X105505000Y-68919000D01*
X90075000Y-68919000D02*
X96350000Y-68919000D01*
X99230000Y-68959000D02*
X105530000Y-68959000D01*
X90050000Y-68959000D02*
X96350000Y-68959000D01*
X99230000Y-68999000D02*
X105554000Y-68999000D01*
X90026000Y-68999000D02*
X96350000Y-68999000D01*
X99230000Y-69039000D02*
X105578000Y-69039000D01*
X90002000Y-69039000D02*
X96350000Y-69039000D01*
X99230000Y-69079000D02*
X105602000Y-69079000D01*
X89978000Y-69079000D02*
X96350000Y-69079000D01*
X99230000Y-69119000D02*
X105625000Y-69119000D01*
X89955000Y-69119000D02*
X96350000Y-69119000D01*
X99230000Y-69159000D02*
X105649000Y-69159000D01*
X89931000Y-69159000D02*
X96350000Y-69159000D01*
X99230000Y-69199000D02*
X105672000Y-69199000D01*
X89908000Y-69199000D02*
X96350000Y-69199000D01*
X99230000Y-69239000D02*
X105694000Y-69239000D01*
X89886000Y-69239000D02*
X96350000Y-69239000D01*
X99230000Y-69279000D02*
X105717000Y-69279000D01*
X89863000Y-69279000D02*
X96350000Y-69279000D01*
X99230000Y-69319000D02*
X105739000Y-69319000D01*
X89841000Y-69319000D02*
X96350000Y-69319000D01*
X99230000Y-69359000D02*
X105761000Y-69359000D01*
X89819000Y-69359000D02*
X96350000Y-69359000D01*
X99230000Y-69399000D02*
X105782000Y-69399000D01*
X89798000Y-69399000D02*
X96350000Y-69399000D01*
X99230000Y-69439000D02*
X105804000Y-69439000D01*
X89776000Y-69439000D02*
X96350000Y-69439000D01*
X99230000Y-69479000D02*
X105825000Y-69479000D01*
X89755000Y-69479000D02*
X96350000Y-69479000D01*
X99230000Y-69519000D02*
X105846000Y-69519000D01*
X89734000Y-69519000D02*
X96350000Y-69519000D01*
X99230000Y-69559000D02*
X105866000Y-69559000D01*
X89714000Y-69559000D02*
X96350000Y-69559000D01*
X99230000Y-69599000D02*
X105887000Y-69599000D01*
X89693000Y-69599000D02*
X96350000Y-69599000D01*
X99230000Y-69639000D02*
X105907000Y-69639000D01*
X89673000Y-69639000D02*
X96350000Y-69639000D01*
X99230000Y-69679000D02*
X105927000Y-69679000D01*
X89653000Y-69679000D02*
X96350000Y-69679000D01*
X99230000Y-69719000D02*
X105946000Y-69719000D01*
X89634000Y-69719000D02*
X96350000Y-69719000D01*
X99230000Y-69759000D02*
X105966000Y-69759000D01*
X89614000Y-69759000D02*
X96350000Y-69759000D01*
X99230000Y-69799000D02*
X105985000Y-69799000D01*
X89595000Y-69799000D02*
X96350000Y-69799000D01*
X99230000Y-69839000D02*
X106004000Y-69839000D01*
X89576000Y-69839000D02*
X96350000Y-69839000D01*
X99230000Y-69879000D02*
X106023000Y-69879000D01*
X89557000Y-69879000D02*
X96350000Y-69879000D01*
X99230000Y-69919000D02*
X106041000Y-69919000D01*
X89539000Y-69919000D02*
X96350000Y-69919000D01*
X99230000Y-69959000D02*
X106059000Y-69959000D01*
X89521000Y-69959000D02*
X96350000Y-69959000D01*
X99230000Y-69999000D02*
X106077000Y-69999000D01*
X89503000Y-69999000D02*
X96350000Y-69999000D01*
X99230000Y-70039000D02*
X106095000Y-70039000D01*
X89485000Y-70039000D02*
X96350000Y-70039000D01*
X99230000Y-70079000D02*
X106113000Y-70079000D01*
X89467000Y-70079000D02*
X96350000Y-70079000D01*
X99230000Y-70119000D02*
X106130000Y-70119000D01*
X89450000Y-70119000D02*
X96350000Y-70119000D01*
X99230000Y-70159000D02*
X106147000Y-70159000D01*
X89433000Y-70159000D02*
X96350000Y-70159000D01*
X99230000Y-70199000D02*
X106164000Y-70199000D01*
X89416000Y-70199000D02*
X96350000Y-70199000D01*
X99230000Y-70239000D02*
X106180000Y-70239000D01*
X89400000Y-70239000D02*
X96350000Y-70239000D01*
X99230000Y-70279000D02*
X106197000Y-70279000D01*
X89383000Y-70279000D02*
X96350000Y-70279000D01*
X99230000Y-70319000D02*
X106213000Y-70319000D01*
X89367000Y-70319000D02*
X96350000Y-70319000D01*
X99230000Y-70359000D02*
X106229000Y-70359000D01*
X89351000Y-70359000D02*
X96350000Y-70359000D01*
X99230000Y-70399000D02*
X106245000Y-70399000D01*
X89335000Y-70399000D02*
X96350000Y-70399000D01*
X99230000Y-70439000D02*
X106260000Y-70439000D01*
X89320000Y-70439000D02*
X96350000Y-70439000D01*
X99230000Y-70479000D02*
X106276000Y-70479000D01*
X89304000Y-70479000D02*
X96350000Y-70479000D01*
X99230000Y-70519000D02*
X106291000Y-70519000D01*
X89289000Y-70519000D02*
X96350000Y-70519000D01*
X99230000Y-70559000D02*
X106306000Y-70559000D01*
X89274000Y-70559000D02*
X96350000Y-70559000D01*
X99230000Y-70599000D02*
X106320000Y-70599000D01*
X89260000Y-70599000D02*
X96350000Y-70599000D01*
X99230000Y-70639000D02*
X106335000Y-70639000D01*
X89245000Y-70639000D02*
X96350000Y-70639000D01*
X99230000Y-70679000D02*
X106349000Y-70679000D01*
X89231000Y-70679000D02*
X96350000Y-70679000D01*
X99230000Y-70719000D02*
X106363000Y-70719000D01*
X89217000Y-70719000D02*
X96350000Y-70719000D01*
X99230000Y-70759000D02*
X106377000Y-70759000D01*
X89203000Y-70759000D02*
X96350000Y-70759000D01*
X99230000Y-70799000D02*
X106390000Y-70799000D01*
X89190000Y-70799000D02*
X96350000Y-70799000D01*
X99230000Y-70839000D02*
X106404000Y-70839000D01*
X89176000Y-70839000D02*
X96350000Y-70839000D01*
X99230000Y-70879000D02*
X106417000Y-70879000D01*
X89163000Y-70879000D02*
X96350000Y-70879000D01*
X99230000Y-70919000D02*
X106430000Y-70919000D01*
X89150000Y-70919000D02*
X96350000Y-70919000D01*
X99230000Y-70959000D02*
X106443000Y-70959000D01*
X89137000Y-70959000D02*
X96350000Y-70959000D01*
X99230000Y-70999000D02*
X106455000Y-70999000D01*
X89125000Y-70999000D02*
X96350000Y-70999000D01*
X99230000Y-71039000D02*
X106468000Y-71039000D01*
X89112000Y-71039000D02*
X96350000Y-71039000D01*
X99230000Y-71079000D02*
X106480000Y-71079000D01*
X89100000Y-71079000D02*
X96350000Y-71079000D01*
X99230000Y-71119000D02*
X106492000Y-71119000D01*
X89088000Y-71119000D02*
X96350000Y-71119000D01*
X99230000Y-71159000D02*
X106504000Y-71159000D01*
X89076000Y-71159000D02*
X96350000Y-71159000D01*
X99230000Y-71199000D02*
X106515000Y-71199000D01*
X89065000Y-71199000D02*
X96350000Y-71199000D01*
X99230000Y-71239000D02*
X106527000Y-71239000D01*
X89053000Y-71239000D02*
X96350000Y-71239000D01*
X99230000Y-71279000D02*
X106538000Y-71279000D01*
X89042000Y-71279000D02*
X96350000Y-71279000D01*
X99230000Y-71319000D02*
X106549000Y-71319000D01*
X89031000Y-71319000D02*
X96350000Y-71319000D01*
X99230000Y-71359000D02*
X106560000Y-71359000D01*
X89020000Y-71359000D02*
X96350000Y-71359000D01*
X99230000Y-71399000D02*
X106570000Y-71399000D01*
X89010000Y-71399000D02*
X96350000Y-71399000D01*
X88999000Y-71439000D02*
X106581000Y-71439000D01*
X88989000Y-71479000D02*
X106591000Y-71479000D01*
X88979000Y-71519000D02*
X106601000Y-71519000D01*
X88969000Y-71559000D02*
X106611000Y-71559000D01*
X88959000Y-71599000D02*
X106621000Y-71599000D01*
X88950000Y-71639000D02*
X106630000Y-71639000D01*
X88941000Y-71679000D02*
X106639000Y-71679000D01*
X88932000Y-71719000D02*
X106648000Y-71719000D01*
X88923000Y-71759000D02*
X106657000Y-71759000D01*
X88914000Y-71799000D02*
X106666000Y-71799000D01*
X88905000Y-71839000D02*
X106675000Y-71839000D01*
X88897000Y-71879000D02*
X106683000Y-71879000D01*
X88889000Y-71919000D02*
X106691000Y-71919000D01*
X88881000Y-71959000D02*
X106699000Y-71959000D01*
X88873000Y-71999000D02*
X106707000Y-71999000D01*
X88866000Y-72039000D02*
X106714000Y-72039000D01*
X88858000Y-72079000D02*
X106722000Y-72079000D01*
X88851000Y-72119000D02*
X106729000Y-72119000D01*
X88844000Y-72159000D02*
X106736000Y-72159000D01*
X88837000Y-72199000D02*
X106743000Y-72199000D01*
X88830000Y-72239000D02*
X106750000Y-72239000D01*
X88824000Y-72279000D02*
X106756000Y-72279000D01*
X88818000Y-72319000D02*
X106762000Y-72319000D01*
X88811000Y-72359000D02*
X106769000Y-72359000D01*
X88806000Y-72399000D02*
X106774000Y-72399000D01*
X88800000Y-72439000D02*
X106780000Y-72439000D01*
X88794000Y-72479000D02*
X106786000Y-72479000D01*
X88789000Y-72519000D02*
X106791000Y-72519000D01*
X88784000Y-72559000D02*
X106796000Y-72559000D01*
X88779000Y-72599000D02*
X106801000Y-72599000D01*
X88774000Y-72639000D02*
X106806000Y-72639000D01*
X88769000Y-72679000D02*
X106811000Y-72679000D01*
X88764000Y-72719000D02*
X106816000Y-72719000D01*
X88760000Y-72759000D02*
X106820000Y-72759000D01*
X88756000Y-72799000D02*
X106824000Y-72799000D01*
X88752000Y-72839000D02*
X106828000Y-72839000D01*
X88748000Y-72879000D02*
X106832000Y-72879000D01*
X88745000Y-72919000D02*
X106835000Y-72919000D01*
X88741000Y-72959000D02*
X106839000Y-72959000D01*
X88738000Y-72999000D02*
X106842000Y-72999000D01*
X88735000Y-73040000D02*
X106845000Y-73040000D01*
X88732000Y-73080000D02*
X106848000Y-73080000D01*
X88729000Y-73120000D02*
X106851000Y-73120000D01*
X88727000Y-73160000D02*
X106853000Y-73160000D01*
X88724000Y-73200000D02*
X106856000Y-73200000D01*
X88722000Y-73240000D02*
X106858000Y-73240000D01*
X88720000Y-73280000D02*
X106860000Y-73280000D01*
X88718000Y-73320000D02*
X106862000Y-73320000D01*
X88717000Y-73360000D02*
X106863000Y-73360000D01*
X88715000Y-73400000D02*
X106865000Y-73400000D01*
X88714000Y-73440000D02*
X106866000Y-73440000D01*
X88713000Y-73480000D02*
X106867000Y-73480000D01*
X88712000Y-73520000D02*
X106868000Y-73520000D01*
X88711000Y-73560000D02*
X106869000Y-73560000D01*
X88710000Y-73600000D02*
X106870000Y-73600000D01*
X88710000Y-73640000D02*
X106870000Y-73640000D01*
X88710000Y-73680000D02*
X106870000Y-73680000D01*
X88709000Y-73720000D02*
X106871000Y-73720000D01*
X106910000Y-73720000D02*
G75*
G03*
X106910000Y-73720000I-9120000J0D01*
G01*
%TO.C,C5*%
X113365000Y-82579440D02*
X115165000Y-82579440D01*
X114265000Y-83479440D02*
X114265000Y-81679440D01*
X119340000Y-64600000D02*
X119420000Y-64600000D01*
X118566000Y-64640000D02*
X120194000Y-64640000D01*
X118214000Y-64680000D02*
X120546000Y-64680000D01*
X117945000Y-64720000D02*
X120815000Y-64720000D01*
X117719000Y-64760000D02*
X121041000Y-64760000D01*
X117520000Y-64800000D02*
X121240000Y-64800000D01*
X117341000Y-64840000D02*
X121419000Y-64840000D01*
X117177000Y-64880000D02*
X121583000Y-64880000D01*
X117025000Y-64920000D02*
X121735000Y-64920000D01*
X116882000Y-64960000D02*
X121878000Y-64960000D01*
X116748000Y-65000000D02*
X122012000Y-65000000D01*
X116621000Y-65040000D02*
X122139000Y-65040000D01*
X116500000Y-65080000D02*
X122260000Y-65080000D01*
X116384000Y-65120000D02*
X122376000Y-65120000D01*
X116273000Y-65160000D02*
X122487000Y-65160000D01*
X116166000Y-65200000D02*
X122594000Y-65200000D01*
X116063000Y-65240000D02*
X122697000Y-65240000D01*
X115964000Y-65280000D02*
X122796000Y-65280000D01*
X115868000Y-65320000D02*
X122892000Y-65320000D01*
X115775000Y-65360000D02*
X122985000Y-65360000D01*
X115684000Y-65400000D02*
X123076000Y-65400000D01*
X115596000Y-65440000D02*
X123164000Y-65440000D01*
X115511000Y-65480000D02*
X123249000Y-65480000D01*
X115428000Y-65520000D02*
X123332000Y-65520000D01*
X115347000Y-65559000D02*
X123413000Y-65559000D01*
X115267000Y-65599000D02*
X123493000Y-65599000D01*
X115190000Y-65639000D02*
X123570000Y-65639000D01*
X115115000Y-65679000D02*
X123645000Y-65679000D01*
X115041000Y-65719000D02*
X123719000Y-65719000D01*
X114968000Y-65759000D02*
X123792000Y-65759000D01*
X114898000Y-65799000D02*
X123862000Y-65799000D01*
X114828000Y-65839000D02*
X123932000Y-65839000D01*
X114760000Y-65879000D02*
X124000000Y-65879000D01*
X114694000Y-65919000D02*
X124066000Y-65919000D01*
X114628000Y-65959000D02*
X124132000Y-65959000D01*
X114564000Y-65999000D02*
X124196000Y-65999000D01*
X114501000Y-66039000D02*
X124259000Y-66039000D01*
X114439000Y-66079000D02*
X124321000Y-66079000D01*
X114378000Y-66119000D02*
X124382000Y-66119000D01*
X114318000Y-66159000D02*
X124442000Y-66159000D01*
X114260000Y-66199000D02*
X124500000Y-66199000D01*
X114202000Y-66239000D02*
X124558000Y-66239000D01*
X114145000Y-66279000D02*
X124615000Y-66279000D01*
X114089000Y-66319000D02*
X124671000Y-66319000D01*
X114034000Y-66359000D02*
X124726000Y-66359000D01*
X113980000Y-66399000D02*
X124780000Y-66399000D01*
X113926000Y-66439000D02*
X124834000Y-66439000D01*
X113874000Y-66479000D02*
X124886000Y-66479000D01*
X113822000Y-66519000D02*
X124938000Y-66519000D01*
X113771000Y-66559000D02*
X124989000Y-66559000D01*
X113720000Y-66599000D02*
X125040000Y-66599000D01*
X113671000Y-66639000D02*
X125089000Y-66639000D01*
X113622000Y-66679000D02*
X125138000Y-66679000D01*
X113574000Y-66719000D02*
X125186000Y-66719000D01*
X113526000Y-66759000D02*
X125234000Y-66759000D01*
X113479000Y-66799000D02*
X125281000Y-66799000D01*
X113433000Y-66839000D02*
X125327000Y-66839000D01*
X113387000Y-66879000D02*
X125373000Y-66879000D01*
X113342000Y-66919000D02*
X125418000Y-66919000D01*
X113298000Y-66959000D02*
X125462000Y-66959000D01*
X113254000Y-66999000D02*
X125506000Y-66999000D01*
X113210000Y-67039000D02*
X125550000Y-67039000D01*
X113168000Y-67079000D02*
X125592000Y-67079000D01*
X113126000Y-67119000D02*
X125634000Y-67119000D01*
X113084000Y-67159000D02*
X125676000Y-67159000D01*
X113043000Y-67199000D02*
X125717000Y-67199000D01*
X113002000Y-67239000D02*
X125758000Y-67239000D01*
X112962000Y-67279000D02*
X125798000Y-67279000D01*
X112922000Y-67319000D02*
X125838000Y-67319000D01*
X112883000Y-67359000D02*
X125877000Y-67359000D01*
X112844000Y-67399000D02*
X125916000Y-67399000D01*
X112806000Y-67439000D02*
X125954000Y-67439000D01*
X112768000Y-67479000D02*
X125992000Y-67479000D01*
X112731000Y-67519000D02*
X126029000Y-67519000D01*
X112694000Y-67559000D02*
X126066000Y-67559000D01*
X112658000Y-67599000D02*
X126102000Y-67599000D01*
X112622000Y-67639000D02*
X126138000Y-67639000D01*
X112586000Y-67679000D02*
X126174000Y-67679000D01*
X112551000Y-67719000D02*
X126209000Y-67719000D01*
X112516000Y-67759000D02*
X126244000Y-67759000D01*
X112482000Y-67799000D02*
X126278000Y-67799000D01*
X112448000Y-67839000D02*
X126312000Y-67839000D01*
X112415000Y-67879000D02*
X126345000Y-67879000D01*
X112381000Y-67919000D02*
X126379000Y-67919000D01*
X112349000Y-67959000D02*
X126411000Y-67959000D01*
X112316000Y-67999000D02*
X126444000Y-67999000D01*
X112284000Y-68039000D02*
X126476000Y-68039000D01*
X112253000Y-68079000D02*
X126507000Y-68079000D01*
X112221000Y-68119000D02*
X126539000Y-68119000D01*
X112190000Y-68159000D02*
X126570000Y-68159000D01*
X112160000Y-68199000D02*
X126600000Y-68199000D01*
X112130000Y-68239000D02*
X126630000Y-68239000D01*
X112100000Y-68279000D02*
X126660000Y-68279000D01*
X112070000Y-68319000D02*
X126690000Y-68319000D01*
X112041000Y-68359000D02*
X126719000Y-68359000D01*
X112012000Y-68399000D02*
X126748000Y-68399000D01*
X111983000Y-68439000D02*
X126777000Y-68439000D01*
X111955000Y-68479000D02*
X126805000Y-68479000D01*
X111927000Y-68519000D02*
X126833000Y-68519000D01*
X120820000Y-68559000D02*
X126860000Y-68559000D01*
X111900000Y-68559000D02*
X117940000Y-68559000D01*
X120820000Y-68599000D02*
X126888000Y-68599000D01*
X111872000Y-68599000D02*
X117940000Y-68599000D01*
X120820000Y-68639000D02*
X126915000Y-68639000D01*
X111845000Y-68639000D02*
X117940000Y-68639000D01*
X120820000Y-68679000D02*
X126941000Y-68679000D01*
X111819000Y-68679000D02*
X117940000Y-68679000D01*
X120820000Y-68719000D02*
X126968000Y-68719000D01*
X111792000Y-68719000D02*
X117940000Y-68719000D01*
X120820000Y-68759000D02*
X126994000Y-68759000D01*
X111766000Y-68759000D02*
X117940000Y-68759000D01*
X120820000Y-68799000D02*
X127020000Y-68799000D01*
X111740000Y-68799000D02*
X117940000Y-68799000D01*
X120820000Y-68839000D02*
X127045000Y-68839000D01*
X111715000Y-68839000D02*
X117940000Y-68839000D01*
X120820000Y-68879000D02*
X127070000Y-68879000D01*
X111690000Y-68879000D02*
X117940000Y-68879000D01*
X120820000Y-68919000D02*
X127095000Y-68919000D01*
X111665000Y-68919000D02*
X117940000Y-68919000D01*
X120820000Y-68959000D02*
X127120000Y-68959000D01*
X111640000Y-68959000D02*
X117940000Y-68959000D01*
X120820000Y-68999000D02*
X127144000Y-68999000D01*
X111616000Y-68999000D02*
X117940000Y-68999000D01*
X120820000Y-69039000D02*
X127168000Y-69039000D01*
X111592000Y-69039000D02*
X117940000Y-69039000D01*
X120820000Y-69079000D02*
X127192000Y-69079000D01*
X111568000Y-69079000D02*
X117940000Y-69079000D01*
X120820000Y-69119000D02*
X127215000Y-69119000D01*
X111545000Y-69119000D02*
X117940000Y-69119000D01*
X120820000Y-69159000D02*
X127239000Y-69159000D01*
X111521000Y-69159000D02*
X117940000Y-69159000D01*
X120820000Y-69199000D02*
X127262000Y-69199000D01*
X111498000Y-69199000D02*
X117940000Y-69199000D01*
X120820000Y-69239000D02*
X127284000Y-69239000D01*
X111476000Y-69239000D02*
X117940000Y-69239000D01*
X120820000Y-69279000D02*
X127307000Y-69279000D01*
X111453000Y-69279000D02*
X117940000Y-69279000D01*
X120820000Y-69319000D02*
X127329000Y-69319000D01*
X111431000Y-69319000D02*
X117940000Y-69319000D01*
X120820000Y-69359000D02*
X127351000Y-69359000D01*
X111409000Y-69359000D02*
X117940000Y-69359000D01*
X120820000Y-69399000D02*
X127372000Y-69399000D01*
X111388000Y-69399000D02*
X117940000Y-69399000D01*
X120820000Y-69439000D02*
X127394000Y-69439000D01*
X111366000Y-69439000D02*
X117940000Y-69439000D01*
X120820000Y-69479000D02*
X127415000Y-69479000D01*
X111345000Y-69479000D02*
X117940000Y-69479000D01*
X120820000Y-69519000D02*
X127436000Y-69519000D01*
X111324000Y-69519000D02*
X117940000Y-69519000D01*
X120820000Y-69559000D02*
X127456000Y-69559000D01*
X111304000Y-69559000D02*
X117940000Y-69559000D01*
X120820000Y-69599000D02*
X127477000Y-69599000D01*
X111283000Y-69599000D02*
X117940000Y-69599000D01*
X120820000Y-69639000D02*
X127497000Y-69639000D01*
X111263000Y-69639000D02*
X117940000Y-69639000D01*
X120820000Y-69679000D02*
X127517000Y-69679000D01*
X111243000Y-69679000D02*
X117940000Y-69679000D01*
X120820000Y-69719000D02*
X127536000Y-69719000D01*
X111224000Y-69719000D02*
X117940000Y-69719000D01*
X120820000Y-69759000D02*
X127556000Y-69759000D01*
X111204000Y-69759000D02*
X117940000Y-69759000D01*
X120820000Y-69799000D02*
X127575000Y-69799000D01*
X111185000Y-69799000D02*
X117940000Y-69799000D01*
X120820000Y-69839000D02*
X127594000Y-69839000D01*
X111166000Y-69839000D02*
X117940000Y-69839000D01*
X120820000Y-69879000D02*
X127613000Y-69879000D01*
X111147000Y-69879000D02*
X117940000Y-69879000D01*
X120820000Y-69919000D02*
X127631000Y-69919000D01*
X111129000Y-69919000D02*
X117940000Y-69919000D01*
X120820000Y-69959000D02*
X127649000Y-69959000D01*
X111111000Y-69959000D02*
X117940000Y-69959000D01*
X120820000Y-69999000D02*
X127667000Y-69999000D01*
X111093000Y-69999000D02*
X117940000Y-69999000D01*
X120820000Y-70039000D02*
X127685000Y-70039000D01*
X111075000Y-70039000D02*
X117940000Y-70039000D01*
X120820000Y-70079000D02*
X127703000Y-70079000D01*
X111057000Y-70079000D02*
X117940000Y-70079000D01*
X120820000Y-70119000D02*
X127720000Y-70119000D01*
X111040000Y-70119000D02*
X117940000Y-70119000D01*
X120820000Y-70159000D02*
X127737000Y-70159000D01*
X111023000Y-70159000D02*
X117940000Y-70159000D01*
X120820000Y-70199000D02*
X127754000Y-70199000D01*
X111006000Y-70199000D02*
X117940000Y-70199000D01*
X120820000Y-70239000D02*
X127770000Y-70239000D01*
X110990000Y-70239000D02*
X117940000Y-70239000D01*
X120820000Y-70279000D02*
X127787000Y-70279000D01*
X110973000Y-70279000D02*
X117940000Y-70279000D01*
X120820000Y-70319000D02*
X127803000Y-70319000D01*
X110957000Y-70319000D02*
X117940000Y-70319000D01*
X120820000Y-70359000D02*
X127819000Y-70359000D01*
X110941000Y-70359000D02*
X117940000Y-70359000D01*
X120820000Y-70399000D02*
X127835000Y-70399000D01*
X110925000Y-70399000D02*
X117940000Y-70399000D01*
X120820000Y-70439000D02*
X127850000Y-70439000D01*
X110910000Y-70439000D02*
X117940000Y-70439000D01*
X120820000Y-70479000D02*
X127866000Y-70479000D01*
X110894000Y-70479000D02*
X117940000Y-70479000D01*
X120820000Y-70519000D02*
X127881000Y-70519000D01*
X110879000Y-70519000D02*
X117940000Y-70519000D01*
X120820000Y-70559000D02*
X127896000Y-70559000D01*
X110864000Y-70559000D02*
X117940000Y-70559000D01*
X120820000Y-70599000D02*
X127910000Y-70599000D01*
X110850000Y-70599000D02*
X117940000Y-70599000D01*
X120820000Y-70639000D02*
X127925000Y-70639000D01*
X110835000Y-70639000D02*
X117940000Y-70639000D01*
X120820000Y-70679000D02*
X127939000Y-70679000D01*
X110821000Y-70679000D02*
X117940000Y-70679000D01*
X120820000Y-70719000D02*
X127953000Y-70719000D01*
X110807000Y-70719000D02*
X117940000Y-70719000D01*
X120820000Y-70759000D02*
X127967000Y-70759000D01*
X110793000Y-70759000D02*
X117940000Y-70759000D01*
X120820000Y-70799000D02*
X127980000Y-70799000D01*
X110780000Y-70799000D02*
X117940000Y-70799000D01*
X120820000Y-70839000D02*
X127994000Y-70839000D01*
X110766000Y-70839000D02*
X117940000Y-70839000D01*
X120820000Y-70879000D02*
X128007000Y-70879000D01*
X110753000Y-70879000D02*
X117940000Y-70879000D01*
X120820000Y-70919000D02*
X128020000Y-70919000D01*
X110740000Y-70919000D02*
X117940000Y-70919000D01*
X120820000Y-70959000D02*
X128033000Y-70959000D01*
X110727000Y-70959000D02*
X117940000Y-70959000D01*
X120820000Y-70999000D02*
X128045000Y-70999000D01*
X110715000Y-70999000D02*
X117940000Y-70999000D01*
X120820000Y-71039000D02*
X128058000Y-71039000D01*
X110702000Y-71039000D02*
X117940000Y-71039000D01*
X120820000Y-71079000D02*
X128070000Y-71079000D01*
X110690000Y-71079000D02*
X117940000Y-71079000D01*
X120820000Y-71119000D02*
X128082000Y-71119000D01*
X110678000Y-71119000D02*
X117940000Y-71119000D01*
X120820000Y-71159000D02*
X128094000Y-71159000D01*
X110666000Y-71159000D02*
X117940000Y-71159000D01*
X120820000Y-71199000D02*
X128105000Y-71199000D01*
X110655000Y-71199000D02*
X117940000Y-71199000D01*
X120820000Y-71239000D02*
X128117000Y-71239000D01*
X110643000Y-71239000D02*
X117940000Y-71239000D01*
X120820000Y-71279000D02*
X128128000Y-71279000D01*
X110632000Y-71279000D02*
X117940000Y-71279000D01*
X120820000Y-71319000D02*
X128139000Y-71319000D01*
X110621000Y-71319000D02*
X117940000Y-71319000D01*
X120820000Y-71359000D02*
X128150000Y-71359000D01*
X110610000Y-71359000D02*
X117940000Y-71359000D01*
X120820000Y-71399000D02*
X128160000Y-71399000D01*
X110600000Y-71399000D02*
X117940000Y-71399000D01*
X110589000Y-71439000D02*
X128171000Y-71439000D01*
X110579000Y-71479000D02*
X128181000Y-71479000D01*
X110569000Y-71519000D02*
X128191000Y-71519000D01*
X110559000Y-71559000D02*
X128201000Y-71559000D01*
X110549000Y-71599000D02*
X128211000Y-71599000D01*
X110540000Y-71639000D02*
X128220000Y-71639000D01*
X110531000Y-71679000D02*
X128229000Y-71679000D01*
X110522000Y-71719000D02*
X128238000Y-71719000D01*
X110513000Y-71759000D02*
X128247000Y-71759000D01*
X110504000Y-71799000D02*
X128256000Y-71799000D01*
X110495000Y-71839000D02*
X128265000Y-71839000D01*
X110487000Y-71879000D02*
X128273000Y-71879000D01*
X110479000Y-71919000D02*
X128281000Y-71919000D01*
X110471000Y-71959000D02*
X128289000Y-71959000D01*
X110463000Y-71999000D02*
X128297000Y-71999000D01*
X110456000Y-72039000D02*
X128304000Y-72039000D01*
X110448000Y-72079000D02*
X128312000Y-72079000D01*
X110441000Y-72119000D02*
X128319000Y-72119000D01*
X110434000Y-72159000D02*
X128326000Y-72159000D01*
X110427000Y-72199000D02*
X128333000Y-72199000D01*
X110420000Y-72239000D02*
X128340000Y-72239000D01*
X110414000Y-72279000D02*
X128346000Y-72279000D01*
X110408000Y-72319000D02*
X128352000Y-72319000D01*
X110401000Y-72359000D02*
X128359000Y-72359000D01*
X110396000Y-72399000D02*
X128364000Y-72399000D01*
X110390000Y-72439000D02*
X128370000Y-72439000D01*
X110384000Y-72479000D02*
X128376000Y-72479000D01*
X110379000Y-72519000D02*
X128381000Y-72519000D01*
X110374000Y-72559000D02*
X128386000Y-72559000D01*
X110369000Y-72599000D02*
X128391000Y-72599000D01*
X110364000Y-72639000D02*
X128396000Y-72639000D01*
X110359000Y-72679000D02*
X128401000Y-72679000D01*
X110354000Y-72719000D02*
X128406000Y-72719000D01*
X110350000Y-72759000D02*
X128410000Y-72759000D01*
X110346000Y-72799000D02*
X128414000Y-72799000D01*
X110342000Y-72839000D02*
X128418000Y-72839000D01*
X110338000Y-72879000D02*
X128422000Y-72879000D01*
X110335000Y-72919000D02*
X128425000Y-72919000D01*
X110331000Y-72959000D02*
X128429000Y-72959000D01*
X110328000Y-72999000D02*
X128432000Y-72999000D01*
X110325000Y-73040000D02*
X128435000Y-73040000D01*
X110322000Y-73080000D02*
X128438000Y-73080000D01*
X110319000Y-73120000D02*
X128441000Y-73120000D01*
X110317000Y-73160000D02*
X128443000Y-73160000D01*
X110314000Y-73200000D02*
X128446000Y-73200000D01*
X110312000Y-73240000D02*
X128448000Y-73240000D01*
X110310000Y-73280000D02*
X128450000Y-73280000D01*
X110308000Y-73320000D02*
X128452000Y-73320000D01*
X110307000Y-73360000D02*
X128453000Y-73360000D01*
X110305000Y-73400000D02*
X128455000Y-73400000D01*
X110304000Y-73440000D02*
X128456000Y-73440000D01*
X110303000Y-73480000D02*
X128457000Y-73480000D01*
X110302000Y-73520000D02*
X128458000Y-73520000D01*
X110301000Y-73560000D02*
X128459000Y-73560000D01*
X110300000Y-73600000D02*
X128460000Y-73600000D01*
X110300000Y-73640000D02*
X128460000Y-73640000D01*
X110300000Y-73680000D02*
X128460000Y-73680000D01*
X110299000Y-73720000D02*
X128461000Y-73720000D01*
X128500000Y-73720000D02*
G75*
G03*
X128500000Y-73720000I-9120000J0D01*
G01*
%TO.C,C6*%
X106910000Y-96580000D02*
G75*
G03*
X106910000Y-96580000I-9120000J0D01*
G01*
X88709000Y-96580000D02*
X106871000Y-96580000D01*
X88710000Y-96540000D02*
X106870000Y-96540000D01*
X88710000Y-96500000D02*
X106870000Y-96500000D01*
X88710000Y-96460000D02*
X106870000Y-96460000D01*
X88711000Y-96420000D02*
X106869000Y-96420000D01*
X88712000Y-96380000D02*
X106868000Y-96380000D01*
X88713000Y-96340000D02*
X106867000Y-96340000D01*
X88714000Y-96300000D02*
X106866000Y-96300000D01*
X88715000Y-96260000D02*
X106865000Y-96260000D01*
X88717000Y-96220000D02*
X106863000Y-96220000D01*
X88718000Y-96180000D02*
X106862000Y-96180000D01*
X88720000Y-96140000D02*
X106860000Y-96140000D01*
X88722000Y-96100000D02*
X106858000Y-96100000D01*
X88724000Y-96060000D02*
X106856000Y-96060000D01*
X88727000Y-96020000D02*
X106853000Y-96020000D01*
X88729000Y-95980000D02*
X106851000Y-95980000D01*
X88732000Y-95940000D02*
X106848000Y-95940000D01*
X88735000Y-95900000D02*
X106845000Y-95900000D01*
X88738000Y-95859000D02*
X106842000Y-95859000D01*
X88741000Y-95819000D02*
X106839000Y-95819000D01*
X88745000Y-95779000D02*
X106835000Y-95779000D01*
X88748000Y-95739000D02*
X106832000Y-95739000D01*
X88752000Y-95699000D02*
X106828000Y-95699000D01*
X88756000Y-95659000D02*
X106824000Y-95659000D01*
X88760000Y-95619000D02*
X106820000Y-95619000D01*
X88764000Y-95579000D02*
X106816000Y-95579000D01*
X88769000Y-95539000D02*
X106811000Y-95539000D01*
X88774000Y-95499000D02*
X106806000Y-95499000D01*
X88779000Y-95459000D02*
X106801000Y-95459000D01*
X88784000Y-95419000D02*
X106796000Y-95419000D01*
X88789000Y-95379000D02*
X106791000Y-95379000D01*
X88794000Y-95339000D02*
X106786000Y-95339000D01*
X88800000Y-95299000D02*
X106780000Y-95299000D01*
X88806000Y-95259000D02*
X106774000Y-95259000D01*
X88811000Y-95219000D02*
X106769000Y-95219000D01*
X88818000Y-95179000D02*
X106762000Y-95179000D01*
X88824000Y-95139000D02*
X106756000Y-95139000D01*
X88830000Y-95099000D02*
X106750000Y-95099000D01*
X88837000Y-95059000D02*
X106743000Y-95059000D01*
X88844000Y-95019000D02*
X106736000Y-95019000D01*
X88851000Y-94979000D02*
X106729000Y-94979000D01*
X88858000Y-94939000D02*
X106722000Y-94939000D01*
X88866000Y-94899000D02*
X106714000Y-94899000D01*
X88873000Y-94859000D02*
X106707000Y-94859000D01*
X88881000Y-94819000D02*
X106699000Y-94819000D01*
X88889000Y-94779000D02*
X106691000Y-94779000D01*
X88897000Y-94739000D02*
X106683000Y-94739000D01*
X88905000Y-94699000D02*
X106675000Y-94699000D01*
X88914000Y-94659000D02*
X106666000Y-94659000D01*
X88923000Y-94619000D02*
X106657000Y-94619000D01*
X88932000Y-94579000D02*
X106648000Y-94579000D01*
X88941000Y-94539000D02*
X106639000Y-94539000D01*
X88950000Y-94499000D02*
X106630000Y-94499000D01*
X88959000Y-94459000D02*
X106621000Y-94459000D01*
X88969000Y-94419000D02*
X106611000Y-94419000D01*
X88979000Y-94379000D02*
X106601000Y-94379000D01*
X88989000Y-94339000D02*
X106591000Y-94339000D01*
X88999000Y-94299000D02*
X106581000Y-94299000D01*
X89010000Y-94259000D02*
X96350000Y-94259000D01*
X99230000Y-94259000D02*
X106570000Y-94259000D01*
X89020000Y-94219000D02*
X96350000Y-94219000D01*
X99230000Y-94219000D02*
X106560000Y-94219000D01*
X89031000Y-94179000D02*
X96350000Y-94179000D01*
X99230000Y-94179000D02*
X106549000Y-94179000D01*
X89042000Y-94139000D02*
X96350000Y-94139000D01*
X99230000Y-94139000D02*
X106538000Y-94139000D01*
X89053000Y-94099000D02*
X96350000Y-94099000D01*
X99230000Y-94099000D02*
X106527000Y-94099000D01*
X89065000Y-94059000D02*
X96350000Y-94059000D01*
X99230000Y-94059000D02*
X106515000Y-94059000D01*
X89076000Y-94019000D02*
X96350000Y-94019000D01*
X99230000Y-94019000D02*
X106504000Y-94019000D01*
X89088000Y-93979000D02*
X96350000Y-93979000D01*
X99230000Y-93979000D02*
X106492000Y-93979000D01*
X89100000Y-93939000D02*
X96350000Y-93939000D01*
X99230000Y-93939000D02*
X106480000Y-93939000D01*
X89112000Y-93899000D02*
X96350000Y-93899000D01*
X99230000Y-93899000D02*
X106468000Y-93899000D01*
X89125000Y-93859000D02*
X96350000Y-93859000D01*
X99230000Y-93859000D02*
X106455000Y-93859000D01*
X89137000Y-93819000D02*
X96350000Y-93819000D01*
X99230000Y-93819000D02*
X106443000Y-93819000D01*
X89150000Y-93779000D02*
X96350000Y-93779000D01*
X99230000Y-93779000D02*
X106430000Y-93779000D01*
X89163000Y-93739000D02*
X96350000Y-93739000D01*
X99230000Y-93739000D02*
X106417000Y-93739000D01*
X89176000Y-93699000D02*
X96350000Y-93699000D01*
X99230000Y-93699000D02*
X106404000Y-93699000D01*
X89190000Y-93659000D02*
X96350000Y-93659000D01*
X99230000Y-93659000D02*
X106390000Y-93659000D01*
X89203000Y-93619000D02*
X96350000Y-93619000D01*
X99230000Y-93619000D02*
X106377000Y-93619000D01*
X89217000Y-93579000D02*
X96350000Y-93579000D01*
X99230000Y-93579000D02*
X106363000Y-93579000D01*
X89231000Y-93539000D02*
X96350000Y-93539000D01*
X99230000Y-93539000D02*
X106349000Y-93539000D01*
X89245000Y-93499000D02*
X96350000Y-93499000D01*
X99230000Y-93499000D02*
X106335000Y-93499000D01*
X89260000Y-93459000D02*
X96350000Y-93459000D01*
X99230000Y-93459000D02*
X106320000Y-93459000D01*
X89274000Y-93419000D02*
X96350000Y-93419000D01*
X99230000Y-93419000D02*
X106306000Y-93419000D01*
X89289000Y-93379000D02*
X96350000Y-93379000D01*
X99230000Y-93379000D02*
X106291000Y-93379000D01*
X89304000Y-93339000D02*
X96350000Y-93339000D01*
X99230000Y-93339000D02*
X106276000Y-93339000D01*
X89320000Y-93299000D02*
X96350000Y-93299000D01*
X99230000Y-93299000D02*
X106260000Y-93299000D01*
X89335000Y-93259000D02*
X96350000Y-93259000D01*
X99230000Y-93259000D02*
X106245000Y-93259000D01*
X89351000Y-93219000D02*
X96350000Y-93219000D01*
X99230000Y-93219000D02*
X106229000Y-93219000D01*
X89367000Y-93179000D02*
X96350000Y-93179000D01*
X99230000Y-93179000D02*
X106213000Y-93179000D01*
X89383000Y-93139000D02*
X96350000Y-93139000D01*
X99230000Y-93139000D02*
X106197000Y-93139000D01*
X89400000Y-93099000D02*
X96350000Y-93099000D01*
X99230000Y-93099000D02*
X106180000Y-93099000D01*
X89416000Y-93059000D02*
X96350000Y-93059000D01*
X99230000Y-93059000D02*
X106164000Y-93059000D01*
X89433000Y-93019000D02*
X96350000Y-93019000D01*
X99230000Y-93019000D02*
X106147000Y-93019000D01*
X89450000Y-92979000D02*
X96350000Y-92979000D01*
X99230000Y-92979000D02*
X106130000Y-92979000D01*
X89467000Y-92939000D02*
X96350000Y-92939000D01*
X99230000Y-92939000D02*
X106113000Y-92939000D01*
X89485000Y-92899000D02*
X96350000Y-92899000D01*
X99230000Y-92899000D02*
X106095000Y-92899000D01*
X89503000Y-92859000D02*
X96350000Y-92859000D01*
X99230000Y-92859000D02*
X106077000Y-92859000D01*
X89521000Y-92819000D02*
X96350000Y-92819000D01*
X99230000Y-92819000D02*
X106059000Y-92819000D01*
X89539000Y-92779000D02*
X96350000Y-92779000D01*
X99230000Y-92779000D02*
X106041000Y-92779000D01*
X89557000Y-92739000D02*
X96350000Y-92739000D01*
X99230000Y-92739000D02*
X106023000Y-92739000D01*
X89576000Y-92699000D02*
X96350000Y-92699000D01*
X99230000Y-92699000D02*
X106004000Y-92699000D01*
X89595000Y-92659000D02*
X96350000Y-92659000D01*
X99230000Y-92659000D02*
X105985000Y-92659000D01*
X89614000Y-92619000D02*
X96350000Y-92619000D01*
X99230000Y-92619000D02*
X105966000Y-92619000D01*
X89634000Y-92579000D02*
X96350000Y-92579000D01*
X99230000Y-92579000D02*
X105946000Y-92579000D01*
X89653000Y-92539000D02*
X96350000Y-92539000D01*
X99230000Y-92539000D02*
X105927000Y-92539000D01*
X89673000Y-92499000D02*
X96350000Y-92499000D01*
X99230000Y-92499000D02*
X105907000Y-92499000D01*
X89693000Y-92459000D02*
X96350000Y-92459000D01*
X99230000Y-92459000D02*
X105887000Y-92459000D01*
X89714000Y-92419000D02*
X96350000Y-92419000D01*
X99230000Y-92419000D02*
X105866000Y-92419000D01*
X89734000Y-92379000D02*
X96350000Y-92379000D01*
X99230000Y-92379000D02*
X105846000Y-92379000D01*
X89755000Y-92339000D02*
X96350000Y-92339000D01*
X99230000Y-92339000D02*
X105825000Y-92339000D01*
X89776000Y-92299000D02*
X96350000Y-92299000D01*
X99230000Y-92299000D02*
X105804000Y-92299000D01*
X89798000Y-92259000D02*
X96350000Y-92259000D01*
X99230000Y-92259000D02*
X105782000Y-92259000D01*
X89819000Y-92219000D02*
X96350000Y-92219000D01*
X99230000Y-92219000D02*
X105761000Y-92219000D01*
X89841000Y-92179000D02*
X96350000Y-92179000D01*
X99230000Y-92179000D02*
X105739000Y-92179000D01*
X89863000Y-92139000D02*
X96350000Y-92139000D01*
X99230000Y-92139000D02*
X105717000Y-92139000D01*
X89886000Y-92099000D02*
X96350000Y-92099000D01*
X99230000Y-92099000D02*
X105694000Y-92099000D01*
X89908000Y-92059000D02*
X96350000Y-92059000D01*
X99230000Y-92059000D02*
X105672000Y-92059000D01*
X89931000Y-92019000D02*
X96350000Y-92019000D01*
X99230000Y-92019000D02*
X105649000Y-92019000D01*
X89955000Y-91979000D02*
X96350000Y-91979000D01*
X99230000Y-91979000D02*
X105625000Y-91979000D01*
X89978000Y-91939000D02*
X96350000Y-91939000D01*
X99230000Y-91939000D02*
X105602000Y-91939000D01*
X90002000Y-91899000D02*
X96350000Y-91899000D01*
X99230000Y-91899000D02*
X105578000Y-91899000D01*
X90026000Y-91859000D02*
X96350000Y-91859000D01*
X99230000Y-91859000D02*
X105554000Y-91859000D01*
X90050000Y-91819000D02*
X96350000Y-91819000D01*
X99230000Y-91819000D02*
X105530000Y-91819000D01*
X90075000Y-91779000D02*
X96350000Y-91779000D01*
X99230000Y-91779000D02*
X105505000Y-91779000D01*
X90100000Y-91739000D02*
X96350000Y-91739000D01*
X99230000Y-91739000D02*
X105480000Y-91739000D01*
X90125000Y-91699000D02*
X96350000Y-91699000D01*
X99230000Y-91699000D02*
X105455000Y-91699000D01*
X90150000Y-91659000D02*
X96350000Y-91659000D01*
X99230000Y-91659000D02*
X105430000Y-91659000D01*
X90176000Y-91619000D02*
X96350000Y-91619000D01*
X99230000Y-91619000D02*
X105404000Y-91619000D01*
X90202000Y-91579000D02*
X96350000Y-91579000D01*
X99230000Y-91579000D02*
X105378000Y-91579000D01*
X90229000Y-91539000D02*
X96350000Y-91539000D01*
X99230000Y-91539000D02*
X105351000Y-91539000D01*
X90255000Y-91499000D02*
X96350000Y-91499000D01*
X99230000Y-91499000D02*
X105325000Y-91499000D01*
X90282000Y-91459000D02*
X96350000Y-91459000D01*
X99230000Y-91459000D02*
X105298000Y-91459000D01*
X90310000Y-91419000D02*
X96350000Y-91419000D01*
X99230000Y-91419000D02*
X105270000Y-91419000D01*
X90337000Y-91379000D02*
X105243000Y-91379000D01*
X90365000Y-91339000D02*
X105215000Y-91339000D01*
X90393000Y-91299000D02*
X105187000Y-91299000D01*
X90422000Y-91259000D02*
X105158000Y-91259000D01*
X90451000Y-91219000D02*
X105129000Y-91219000D01*
X90480000Y-91179000D02*
X105100000Y-91179000D01*
X90510000Y-91139000D02*
X105070000Y-91139000D01*
X90540000Y-91099000D02*
X105040000Y-91099000D01*
X90570000Y-91059000D02*
X105010000Y-91059000D01*
X90600000Y-91019000D02*
X104980000Y-91019000D01*
X90631000Y-90979000D02*
X104949000Y-90979000D01*
X90663000Y-90939000D02*
X104917000Y-90939000D01*
X90694000Y-90899000D02*
X104886000Y-90899000D01*
X90726000Y-90859000D02*
X104854000Y-90859000D01*
X90759000Y-90819000D02*
X104821000Y-90819000D01*
X90791000Y-90779000D02*
X104789000Y-90779000D01*
X90825000Y-90739000D02*
X104755000Y-90739000D01*
X90858000Y-90699000D02*
X104722000Y-90699000D01*
X90892000Y-90659000D02*
X104688000Y-90659000D01*
X90926000Y-90619000D02*
X104654000Y-90619000D01*
X90961000Y-90579000D02*
X104619000Y-90579000D01*
X90996000Y-90539000D02*
X104584000Y-90539000D01*
X91032000Y-90499000D02*
X104548000Y-90499000D01*
X91068000Y-90459000D02*
X104512000Y-90459000D01*
X91104000Y-90419000D02*
X104476000Y-90419000D01*
X91141000Y-90379000D02*
X104439000Y-90379000D01*
X91178000Y-90339000D02*
X104402000Y-90339000D01*
X91216000Y-90299000D02*
X104364000Y-90299000D01*
X91254000Y-90259000D02*
X104326000Y-90259000D01*
X91293000Y-90219000D02*
X104287000Y-90219000D01*
X91332000Y-90179000D02*
X104248000Y-90179000D01*
X91372000Y-90139000D02*
X104208000Y-90139000D01*
X91412000Y-90099000D02*
X104168000Y-90099000D01*
X91453000Y-90059000D02*
X104127000Y-90059000D01*
X91494000Y-90019000D02*
X104086000Y-90019000D01*
X91536000Y-89979000D02*
X104044000Y-89979000D01*
X91578000Y-89939000D02*
X104002000Y-89939000D01*
X91620000Y-89899000D02*
X103960000Y-89899000D01*
X91664000Y-89859000D02*
X103916000Y-89859000D01*
X91708000Y-89819000D02*
X103872000Y-89819000D01*
X91752000Y-89779000D02*
X103828000Y-89779000D01*
X91797000Y-89739000D02*
X103783000Y-89739000D01*
X91843000Y-89699000D02*
X103737000Y-89699000D01*
X91889000Y-89659000D02*
X103691000Y-89659000D01*
X91936000Y-89619000D02*
X103644000Y-89619000D01*
X91984000Y-89579000D02*
X103596000Y-89579000D01*
X92032000Y-89539000D02*
X103548000Y-89539000D01*
X92081000Y-89499000D02*
X103499000Y-89499000D01*
X92130000Y-89459000D02*
X103450000Y-89459000D01*
X92181000Y-89419000D02*
X103399000Y-89419000D01*
X92232000Y-89379000D02*
X103348000Y-89379000D01*
X92284000Y-89339000D02*
X103296000Y-89339000D01*
X92336000Y-89299000D02*
X103244000Y-89299000D01*
X92390000Y-89259000D02*
X103190000Y-89259000D01*
X92444000Y-89219000D02*
X103136000Y-89219000D01*
X92499000Y-89179000D02*
X103081000Y-89179000D01*
X92555000Y-89139000D02*
X103025000Y-89139000D01*
X92612000Y-89099000D02*
X102968000Y-89099000D01*
X92670000Y-89059000D02*
X102910000Y-89059000D01*
X92728000Y-89019000D02*
X102852000Y-89019000D01*
X92788000Y-88979000D02*
X102792000Y-88979000D01*
X92849000Y-88939000D02*
X102731000Y-88939000D01*
X92911000Y-88899000D02*
X102669000Y-88899000D01*
X92974000Y-88859000D02*
X102606000Y-88859000D01*
X93038000Y-88819000D02*
X102542000Y-88819000D01*
X93104000Y-88779000D02*
X102476000Y-88779000D01*
X93170000Y-88739000D02*
X102410000Y-88739000D01*
X93238000Y-88699000D02*
X102342000Y-88699000D01*
X93308000Y-88659000D02*
X102272000Y-88659000D01*
X93378000Y-88619000D02*
X102202000Y-88619000D01*
X93451000Y-88579000D02*
X102129000Y-88579000D01*
X93525000Y-88539000D02*
X102055000Y-88539000D01*
X93600000Y-88499000D02*
X101980000Y-88499000D01*
X93677000Y-88459000D02*
X101903000Y-88459000D01*
X93757000Y-88419000D02*
X101823000Y-88419000D01*
X93838000Y-88380000D02*
X101742000Y-88380000D01*
X93921000Y-88340000D02*
X101659000Y-88340000D01*
X94006000Y-88300000D02*
X101574000Y-88300000D01*
X94094000Y-88260000D02*
X101486000Y-88260000D01*
X94185000Y-88220000D02*
X101395000Y-88220000D01*
X94278000Y-88180000D02*
X101302000Y-88180000D01*
X94374000Y-88140000D02*
X101206000Y-88140000D01*
X94473000Y-88100000D02*
X101107000Y-88100000D01*
X94576000Y-88060000D02*
X101004000Y-88060000D01*
X94683000Y-88020000D02*
X100897000Y-88020000D01*
X94794000Y-87980000D02*
X100786000Y-87980000D01*
X94910000Y-87940000D02*
X100670000Y-87940000D01*
X95031000Y-87900000D02*
X100549000Y-87900000D01*
X95158000Y-87860000D02*
X100422000Y-87860000D01*
X95292000Y-87820000D02*
X100288000Y-87820000D01*
X95435000Y-87780000D02*
X100145000Y-87780000D01*
X95587000Y-87740000D02*
X99993000Y-87740000D01*
X95751000Y-87700000D02*
X99829000Y-87700000D01*
X95930000Y-87660000D02*
X99650000Y-87660000D01*
X96129000Y-87620000D02*
X99451000Y-87620000D01*
X96355000Y-87580000D02*
X99225000Y-87580000D01*
X96624000Y-87540000D02*
X98956000Y-87540000D01*
X96976000Y-87500000D02*
X98604000Y-87500000D01*
X97750000Y-87460000D02*
X97830000Y-87460000D01*
X92675000Y-106339440D02*
X92675000Y-104539440D01*
X91775000Y-105439440D02*
X93575000Y-105439440D01*
%TO.C,C7*%
X128500000Y-96580000D02*
G75*
G03*
X128500000Y-96580000I-9120000J0D01*
G01*
X110299000Y-96580000D02*
X128461000Y-96580000D01*
X110300000Y-96540000D02*
X128460000Y-96540000D01*
X110300000Y-96500000D02*
X128460000Y-96500000D01*
X110300000Y-96460000D02*
X128460000Y-96460000D01*
X110301000Y-96420000D02*
X128459000Y-96420000D01*
X110302000Y-96380000D02*
X128458000Y-96380000D01*
X110303000Y-96340000D02*
X128457000Y-96340000D01*
X110304000Y-96300000D02*
X128456000Y-96300000D01*
X110305000Y-96260000D02*
X128455000Y-96260000D01*
X110307000Y-96220000D02*
X128453000Y-96220000D01*
X110308000Y-96180000D02*
X128452000Y-96180000D01*
X110310000Y-96140000D02*
X128450000Y-96140000D01*
X110312000Y-96100000D02*
X128448000Y-96100000D01*
X110314000Y-96060000D02*
X128446000Y-96060000D01*
X110317000Y-96020000D02*
X128443000Y-96020000D01*
X110319000Y-95980000D02*
X128441000Y-95980000D01*
X110322000Y-95940000D02*
X128438000Y-95940000D01*
X110325000Y-95900000D02*
X128435000Y-95900000D01*
X110328000Y-95859000D02*
X128432000Y-95859000D01*
X110331000Y-95819000D02*
X128429000Y-95819000D01*
X110335000Y-95779000D02*
X128425000Y-95779000D01*
X110338000Y-95739000D02*
X128422000Y-95739000D01*
X110342000Y-95699000D02*
X128418000Y-95699000D01*
X110346000Y-95659000D02*
X128414000Y-95659000D01*
X110350000Y-95619000D02*
X128410000Y-95619000D01*
X110354000Y-95579000D02*
X128406000Y-95579000D01*
X110359000Y-95539000D02*
X128401000Y-95539000D01*
X110364000Y-95499000D02*
X128396000Y-95499000D01*
X110369000Y-95459000D02*
X128391000Y-95459000D01*
X110374000Y-95419000D02*
X128386000Y-95419000D01*
X110379000Y-95379000D02*
X128381000Y-95379000D01*
X110384000Y-95339000D02*
X128376000Y-95339000D01*
X110390000Y-95299000D02*
X128370000Y-95299000D01*
X110396000Y-95259000D02*
X128364000Y-95259000D01*
X110401000Y-95219000D02*
X128359000Y-95219000D01*
X110408000Y-95179000D02*
X128352000Y-95179000D01*
X110414000Y-95139000D02*
X128346000Y-95139000D01*
X110420000Y-95099000D02*
X128340000Y-95099000D01*
X110427000Y-95059000D02*
X128333000Y-95059000D01*
X110434000Y-95019000D02*
X128326000Y-95019000D01*
X110441000Y-94979000D02*
X128319000Y-94979000D01*
X110448000Y-94939000D02*
X128312000Y-94939000D01*
X110456000Y-94899000D02*
X128304000Y-94899000D01*
X110463000Y-94859000D02*
X128297000Y-94859000D01*
X110471000Y-94819000D02*
X128289000Y-94819000D01*
X110479000Y-94779000D02*
X128281000Y-94779000D01*
X110487000Y-94739000D02*
X128273000Y-94739000D01*
X110495000Y-94699000D02*
X128265000Y-94699000D01*
X110504000Y-94659000D02*
X128256000Y-94659000D01*
X110513000Y-94619000D02*
X128247000Y-94619000D01*
X110522000Y-94579000D02*
X128238000Y-94579000D01*
X110531000Y-94539000D02*
X128229000Y-94539000D01*
X110540000Y-94499000D02*
X128220000Y-94499000D01*
X110549000Y-94459000D02*
X128211000Y-94459000D01*
X110559000Y-94419000D02*
X128201000Y-94419000D01*
X110569000Y-94379000D02*
X128191000Y-94379000D01*
X110579000Y-94339000D02*
X128181000Y-94339000D01*
X110589000Y-94299000D02*
X128171000Y-94299000D01*
X110600000Y-94259000D02*
X117940000Y-94259000D01*
X120820000Y-94259000D02*
X128160000Y-94259000D01*
X110610000Y-94219000D02*
X117940000Y-94219000D01*
X120820000Y-94219000D02*
X128150000Y-94219000D01*
X110621000Y-94179000D02*
X117940000Y-94179000D01*
X120820000Y-94179000D02*
X128139000Y-94179000D01*
X110632000Y-94139000D02*
X117940000Y-94139000D01*
X120820000Y-94139000D02*
X128128000Y-94139000D01*
X110643000Y-94099000D02*
X117940000Y-94099000D01*
X120820000Y-94099000D02*
X128117000Y-94099000D01*
X110655000Y-94059000D02*
X117940000Y-94059000D01*
X120820000Y-94059000D02*
X128105000Y-94059000D01*
X110666000Y-94019000D02*
X117940000Y-94019000D01*
X120820000Y-94019000D02*
X128094000Y-94019000D01*
X110678000Y-93979000D02*
X117940000Y-93979000D01*
X120820000Y-93979000D02*
X128082000Y-93979000D01*
X110690000Y-93939000D02*
X117940000Y-93939000D01*
X120820000Y-93939000D02*
X128070000Y-93939000D01*
X110702000Y-93899000D02*
X117940000Y-93899000D01*
X120820000Y-93899000D02*
X128058000Y-93899000D01*
X110715000Y-93859000D02*
X117940000Y-93859000D01*
X120820000Y-93859000D02*
X128045000Y-93859000D01*
X110727000Y-93819000D02*
X117940000Y-93819000D01*
X120820000Y-93819000D02*
X128033000Y-93819000D01*
X110740000Y-93779000D02*
X117940000Y-93779000D01*
X120820000Y-93779000D02*
X128020000Y-93779000D01*
X110753000Y-93739000D02*
X117940000Y-93739000D01*
X120820000Y-93739000D02*
X128007000Y-93739000D01*
X110766000Y-93699000D02*
X117940000Y-93699000D01*
X120820000Y-93699000D02*
X127994000Y-93699000D01*
X110780000Y-93659000D02*
X117940000Y-93659000D01*
X120820000Y-93659000D02*
X127980000Y-93659000D01*
X110793000Y-93619000D02*
X117940000Y-93619000D01*
X120820000Y-93619000D02*
X127967000Y-93619000D01*
X110807000Y-93579000D02*
X117940000Y-93579000D01*
X120820000Y-93579000D02*
X127953000Y-93579000D01*
X110821000Y-93539000D02*
X117940000Y-93539000D01*
X120820000Y-93539000D02*
X127939000Y-93539000D01*
X110835000Y-93499000D02*
X117940000Y-93499000D01*
X120820000Y-93499000D02*
X127925000Y-93499000D01*
X110850000Y-93459000D02*
X117940000Y-93459000D01*
X120820000Y-93459000D02*
X127910000Y-93459000D01*
X110864000Y-93419000D02*
X117940000Y-93419000D01*
X120820000Y-93419000D02*
X127896000Y-93419000D01*
X110879000Y-93379000D02*
X117940000Y-93379000D01*
X120820000Y-93379000D02*
X127881000Y-93379000D01*
X110894000Y-93339000D02*
X117940000Y-93339000D01*
X120820000Y-93339000D02*
X127866000Y-93339000D01*
X110910000Y-93299000D02*
X117940000Y-93299000D01*
X120820000Y-93299000D02*
X127850000Y-93299000D01*
X110925000Y-93259000D02*
X117940000Y-93259000D01*
X120820000Y-93259000D02*
X127835000Y-93259000D01*
X110941000Y-93219000D02*
X117940000Y-93219000D01*
X120820000Y-93219000D02*
X127819000Y-93219000D01*
X110957000Y-93179000D02*
X117940000Y-93179000D01*
X120820000Y-93179000D02*
X127803000Y-93179000D01*
X110973000Y-93139000D02*
X117940000Y-93139000D01*
X120820000Y-93139000D02*
X127787000Y-93139000D01*
X110990000Y-93099000D02*
X117940000Y-93099000D01*
X120820000Y-93099000D02*
X127770000Y-93099000D01*
X111006000Y-93059000D02*
X117940000Y-93059000D01*
X120820000Y-93059000D02*
X127754000Y-93059000D01*
X111023000Y-93019000D02*
X117940000Y-93019000D01*
X120820000Y-93019000D02*
X127737000Y-93019000D01*
X111040000Y-92979000D02*
X117940000Y-92979000D01*
X120820000Y-92979000D02*
X127720000Y-92979000D01*
X111057000Y-92939000D02*
X117940000Y-92939000D01*
X120820000Y-92939000D02*
X127703000Y-92939000D01*
X111075000Y-92899000D02*
X117940000Y-92899000D01*
X120820000Y-92899000D02*
X127685000Y-92899000D01*
X111093000Y-92859000D02*
X117940000Y-92859000D01*
X120820000Y-92859000D02*
X127667000Y-92859000D01*
X111111000Y-92819000D02*
X117940000Y-92819000D01*
X120820000Y-92819000D02*
X127649000Y-92819000D01*
X111129000Y-92779000D02*
X117940000Y-92779000D01*
X120820000Y-92779000D02*
X127631000Y-92779000D01*
X111147000Y-92739000D02*
X117940000Y-92739000D01*
X120820000Y-92739000D02*
X127613000Y-92739000D01*
X111166000Y-92699000D02*
X117940000Y-92699000D01*
X120820000Y-92699000D02*
X127594000Y-92699000D01*
X111185000Y-92659000D02*
X117940000Y-92659000D01*
X120820000Y-92659000D02*
X127575000Y-92659000D01*
X111204000Y-92619000D02*
X117940000Y-92619000D01*
X120820000Y-92619000D02*
X127556000Y-92619000D01*
X111224000Y-92579000D02*
X117940000Y-92579000D01*
X120820000Y-92579000D02*
X127536000Y-92579000D01*
X111243000Y-92539000D02*
X117940000Y-92539000D01*
X120820000Y-92539000D02*
X127517000Y-92539000D01*
X111263000Y-92499000D02*
X117940000Y-92499000D01*
X120820000Y-92499000D02*
X127497000Y-92499000D01*
X111283000Y-92459000D02*
X117940000Y-92459000D01*
X120820000Y-92459000D02*
X127477000Y-92459000D01*
X111304000Y-92419000D02*
X117940000Y-92419000D01*
X120820000Y-92419000D02*
X127456000Y-92419000D01*
X111324000Y-92379000D02*
X117940000Y-92379000D01*
X120820000Y-92379000D02*
X127436000Y-92379000D01*
X111345000Y-92339000D02*
X117940000Y-92339000D01*
X120820000Y-92339000D02*
X127415000Y-92339000D01*
X111366000Y-92299000D02*
X117940000Y-92299000D01*
X120820000Y-92299000D02*
X127394000Y-92299000D01*
X111388000Y-92259000D02*
X117940000Y-92259000D01*
X120820000Y-92259000D02*
X127372000Y-92259000D01*
X111409000Y-92219000D02*
X117940000Y-92219000D01*
X120820000Y-92219000D02*
X127351000Y-92219000D01*
X111431000Y-92179000D02*
X117940000Y-92179000D01*
X120820000Y-92179000D02*
X127329000Y-92179000D01*
X111453000Y-92139000D02*
X117940000Y-92139000D01*
X120820000Y-92139000D02*
X127307000Y-92139000D01*
X111476000Y-92099000D02*
X117940000Y-92099000D01*
X120820000Y-92099000D02*
X127284000Y-92099000D01*
X111498000Y-92059000D02*
X117940000Y-92059000D01*
X120820000Y-92059000D02*
X127262000Y-92059000D01*
X111521000Y-92019000D02*
X117940000Y-92019000D01*
X120820000Y-92019000D02*
X127239000Y-92019000D01*
X111545000Y-91979000D02*
X117940000Y-91979000D01*
X120820000Y-91979000D02*
X127215000Y-91979000D01*
X111568000Y-91939000D02*
X117940000Y-91939000D01*
X120820000Y-91939000D02*
X127192000Y-91939000D01*
X111592000Y-91899000D02*
X117940000Y-91899000D01*
X120820000Y-91899000D02*
X127168000Y-91899000D01*
X111616000Y-91859000D02*
X117940000Y-91859000D01*
X120820000Y-91859000D02*
X127144000Y-91859000D01*
X111640000Y-91819000D02*
X117940000Y-91819000D01*
X120820000Y-91819000D02*
X127120000Y-91819000D01*
X111665000Y-91779000D02*
X117940000Y-91779000D01*
X120820000Y-91779000D02*
X127095000Y-91779000D01*
X111690000Y-91739000D02*
X117940000Y-91739000D01*
X120820000Y-91739000D02*
X127070000Y-91739000D01*
X111715000Y-91699000D02*
X117940000Y-91699000D01*
X120820000Y-91699000D02*
X127045000Y-91699000D01*
X111740000Y-91659000D02*
X117940000Y-91659000D01*
X120820000Y-91659000D02*
X127020000Y-91659000D01*
X111766000Y-91619000D02*
X117940000Y-91619000D01*
X120820000Y-91619000D02*
X126994000Y-91619000D01*
X111792000Y-91579000D02*
X117940000Y-91579000D01*
X120820000Y-91579000D02*
X126968000Y-91579000D01*
X111819000Y-91539000D02*
X117940000Y-91539000D01*
X120820000Y-91539000D02*
X126941000Y-91539000D01*
X111845000Y-91499000D02*
X117940000Y-91499000D01*
X120820000Y-91499000D02*
X126915000Y-91499000D01*
X111872000Y-91459000D02*
X117940000Y-91459000D01*
X120820000Y-91459000D02*
X126888000Y-91459000D01*
X111900000Y-91419000D02*
X117940000Y-91419000D01*
X120820000Y-91419000D02*
X126860000Y-91419000D01*
X111927000Y-91379000D02*
X126833000Y-91379000D01*
X111955000Y-91339000D02*
X126805000Y-91339000D01*
X111983000Y-91299000D02*
X126777000Y-91299000D01*
X112012000Y-91259000D02*
X126748000Y-91259000D01*
X112041000Y-91219000D02*
X126719000Y-91219000D01*
X112070000Y-91179000D02*
X126690000Y-91179000D01*
X112100000Y-91139000D02*
X126660000Y-91139000D01*
X112130000Y-91099000D02*
X126630000Y-91099000D01*
X112160000Y-91059000D02*
X126600000Y-91059000D01*
X112190000Y-91019000D02*
X126570000Y-91019000D01*
X112221000Y-90979000D02*
X126539000Y-90979000D01*
X112253000Y-90939000D02*
X126507000Y-90939000D01*
X112284000Y-90899000D02*
X126476000Y-90899000D01*
X112316000Y-90859000D02*
X126444000Y-90859000D01*
X112349000Y-90819000D02*
X126411000Y-90819000D01*
X112381000Y-90779000D02*
X126379000Y-90779000D01*
X112415000Y-90739000D02*
X126345000Y-90739000D01*
X112448000Y-90699000D02*
X126312000Y-90699000D01*
X112482000Y-90659000D02*
X126278000Y-90659000D01*
X112516000Y-90619000D02*
X126244000Y-90619000D01*
X112551000Y-90579000D02*
X126209000Y-90579000D01*
X112586000Y-90539000D02*
X126174000Y-90539000D01*
X112622000Y-90499000D02*
X126138000Y-90499000D01*
X112658000Y-90459000D02*
X126102000Y-90459000D01*
X112694000Y-90419000D02*
X126066000Y-90419000D01*
X112731000Y-90379000D02*
X126029000Y-90379000D01*
X112768000Y-90339000D02*
X125992000Y-90339000D01*
X112806000Y-90299000D02*
X125954000Y-90299000D01*
X112844000Y-90259000D02*
X125916000Y-90259000D01*
X112883000Y-90219000D02*
X125877000Y-90219000D01*
X112922000Y-90179000D02*
X125838000Y-90179000D01*
X112962000Y-90139000D02*
X125798000Y-90139000D01*
X113002000Y-90099000D02*
X125758000Y-90099000D01*
X113043000Y-90059000D02*
X125717000Y-90059000D01*
X113084000Y-90019000D02*
X125676000Y-90019000D01*
X113126000Y-89979000D02*
X125634000Y-89979000D01*
X113168000Y-89939000D02*
X125592000Y-89939000D01*
X113210000Y-89899000D02*
X125550000Y-89899000D01*
X113254000Y-89859000D02*
X125506000Y-89859000D01*
X113298000Y-89819000D02*
X125462000Y-89819000D01*
X113342000Y-89779000D02*
X125418000Y-89779000D01*
X113387000Y-89739000D02*
X125373000Y-89739000D01*
X113433000Y-89699000D02*
X125327000Y-89699000D01*
X113479000Y-89659000D02*
X125281000Y-89659000D01*
X113526000Y-89619000D02*
X125234000Y-89619000D01*
X113574000Y-89579000D02*
X125186000Y-89579000D01*
X113622000Y-89539000D02*
X125138000Y-89539000D01*
X113671000Y-89499000D02*
X125089000Y-89499000D01*
X113720000Y-89459000D02*
X125040000Y-89459000D01*
X113771000Y-89419000D02*
X124989000Y-89419000D01*
X113822000Y-89379000D02*
X124938000Y-89379000D01*
X113874000Y-89339000D02*
X124886000Y-89339000D01*
X113926000Y-89299000D02*
X124834000Y-89299000D01*
X113980000Y-89259000D02*
X124780000Y-89259000D01*
X114034000Y-89219000D02*
X124726000Y-89219000D01*
X114089000Y-89179000D02*
X124671000Y-89179000D01*
X114145000Y-89139000D02*
X124615000Y-89139000D01*
X114202000Y-89099000D02*
X124558000Y-89099000D01*
X114260000Y-89059000D02*
X124500000Y-89059000D01*
X114318000Y-89019000D02*
X124442000Y-89019000D01*
X114378000Y-88979000D02*
X124382000Y-88979000D01*
X114439000Y-88939000D02*
X124321000Y-88939000D01*
X114501000Y-88899000D02*
X124259000Y-88899000D01*
X114564000Y-88859000D02*
X124196000Y-88859000D01*
X114628000Y-88819000D02*
X124132000Y-88819000D01*
X114694000Y-88779000D02*
X124066000Y-88779000D01*
X114760000Y-88739000D02*
X124000000Y-88739000D01*
X114828000Y-88699000D02*
X123932000Y-88699000D01*
X114898000Y-88659000D02*
X123862000Y-88659000D01*
X114968000Y-88619000D02*
X123792000Y-88619000D01*
X115041000Y-88579000D02*
X123719000Y-88579000D01*
X115115000Y-88539000D02*
X123645000Y-88539000D01*
X115190000Y-88499000D02*
X123570000Y-88499000D01*
X115267000Y-88459000D02*
X123493000Y-88459000D01*
X115347000Y-88419000D02*
X123413000Y-88419000D01*
X115428000Y-88380000D02*
X123332000Y-88380000D01*
X115511000Y-88340000D02*
X123249000Y-88340000D01*
X115596000Y-88300000D02*
X123164000Y-88300000D01*
X115684000Y-88260000D02*
X123076000Y-88260000D01*
X115775000Y-88220000D02*
X122985000Y-88220000D01*
X115868000Y-88180000D02*
X122892000Y-88180000D01*
X115964000Y-88140000D02*
X122796000Y-88140000D01*
X116063000Y-88100000D02*
X122697000Y-88100000D01*
X116166000Y-88060000D02*
X122594000Y-88060000D01*
X116273000Y-88020000D02*
X122487000Y-88020000D01*
X116384000Y-87980000D02*
X122376000Y-87980000D01*
X116500000Y-87940000D02*
X122260000Y-87940000D01*
X116621000Y-87900000D02*
X122139000Y-87900000D01*
X116748000Y-87860000D02*
X122012000Y-87860000D01*
X116882000Y-87820000D02*
X121878000Y-87820000D01*
X117025000Y-87780000D02*
X121735000Y-87780000D01*
X117177000Y-87740000D02*
X121583000Y-87740000D01*
X117341000Y-87700000D02*
X121419000Y-87700000D01*
X117520000Y-87660000D02*
X121240000Y-87660000D01*
X117719000Y-87620000D02*
X121041000Y-87620000D01*
X117945000Y-87580000D02*
X120815000Y-87580000D01*
X118214000Y-87540000D02*
X120546000Y-87540000D01*
X118566000Y-87500000D02*
X120194000Y-87500000D01*
X119340000Y-87460000D02*
X119420000Y-87460000D01*
X114265000Y-106339440D02*
X114265000Y-104539440D01*
X113365000Y-105439440D02*
X115165000Y-105439440D01*
%TO.C,C8*%
X132729000Y-86710000D02*
X131471000Y-86710000D01*
X132729000Y-88550000D02*
X131471000Y-88550000D01*
%TO.C,C9*%
X156960000Y-91440000D02*
G75*
G03*
X156960000Y-91440000I-3270000J0D01*
G01*
X153690000Y-94670000D02*
X153690000Y-88210000D01*
X153650000Y-94670000D02*
X153650000Y-88210000D01*
X153610000Y-94670000D02*
X153610000Y-88210000D01*
X153570000Y-94668000D02*
X153570000Y-88212000D01*
X153530000Y-94667000D02*
X153530000Y-88213000D01*
X153490000Y-94664000D02*
X153490000Y-88216000D01*
X153450000Y-94662000D02*
X153450000Y-92480000D01*
X153450000Y-90400000D02*
X153450000Y-88218000D01*
X153410000Y-94658000D02*
X153410000Y-92480000D01*
X153410000Y-90400000D02*
X153410000Y-88222000D01*
X153370000Y-94655000D02*
X153370000Y-92480000D01*
X153370000Y-90400000D02*
X153370000Y-88225000D01*
X153330000Y-94651000D02*
X153330000Y-92480000D01*
X153330000Y-90400000D02*
X153330000Y-88229000D01*
X153290000Y-94646000D02*
X153290000Y-92480000D01*
X153290000Y-90400000D02*
X153290000Y-88234000D01*
X153250000Y-94641000D02*
X153250000Y-92480000D01*
X153250000Y-90400000D02*
X153250000Y-88239000D01*
X153210000Y-94635000D02*
X153210000Y-92480000D01*
X153210000Y-90400000D02*
X153210000Y-88245000D01*
X153170000Y-94629000D02*
X153170000Y-92480000D01*
X153170000Y-90400000D02*
X153170000Y-88251000D01*
X153130000Y-94622000D02*
X153130000Y-92480000D01*
X153130000Y-90400000D02*
X153130000Y-88258000D01*
X153090000Y-94615000D02*
X153090000Y-92480000D01*
X153090000Y-90400000D02*
X153090000Y-88265000D01*
X153050000Y-94607000D02*
X153050000Y-92480000D01*
X153050000Y-90400000D02*
X153050000Y-88273000D01*
X153010000Y-94599000D02*
X153010000Y-92480000D01*
X153010000Y-90400000D02*
X153010000Y-88281000D01*
X152969000Y-94590000D02*
X152969000Y-92480000D01*
X152969000Y-90400000D02*
X152969000Y-88290000D01*
X152929000Y-94581000D02*
X152929000Y-92480000D01*
X152929000Y-90400000D02*
X152929000Y-88299000D01*
X152889000Y-94571000D02*
X152889000Y-92480000D01*
X152889000Y-90400000D02*
X152889000Y-88309000D01*
X152849000Y-94561000D02*
X152849000Y-92480000D01*
X152849000Y-90400000D02*
X152849000Y-88319000D01*
X152809000Y-94550000D02*
X152809000Y-92480000D01*
X152809000Y-90400000D02*
X152809000Y-88330000D01*
X152769000Y-94538000D02*
X152769000Y-92480000D01*
X152769000Y-90400000D02*
X152769000Y-88342000D01*
X152729000Y-94526000D02*
X152729000Y-92480000D01*
X152729000Y-90400000D02*
X152729000Y-88354000D01*
X152689000Y-94514000D02*
X152689000Y-92480000D01*
X152689000Y-90400000D02*
X152689000Y-88366000D01*
X152649000Y-94501000D02*
X152649000Y-92480000D01*
X152649000Y-90400000D02*
X152649000Y-88379000D01*
X152609000Y-94487000D02*
X152609000Y-92480000D01*
X152609000Y-90400000D02*
X152609000Y-88393000D01*
X152569000Y-94473000D02*
X152569000Y-92480000D01*
X152569000Y-90400000D02*
X152569000Y-88407000D01*
X152529000Y-94458000D02*
X152529000Y-92480000D01*
X152529000Y-90400000D02*
X152529000Y-88422000D01*
X152489000Y-94442000D02*
X152489000Y-92480000D01*
X152489000Y-90400000D02*
X152489000Y-88438000D01*
X152449000Y-94426000D02*
X152449000Y-92480000D01*
X152449000Y-90400000D02*
X152449000Y-88454000D01*
X152409000Y-94410000D02*
X152409000Y-92480000D01*
X152409000Y-90400000D02*
X152409000Y-88470000D01*
X152369000Y-94392000D02*
X152369000Y-92480000D01*
X152369000Y-90400000D02*
X152369000Y-88488000D01*
X152329000Y-94374000D02*
X152329000Y-92480000D01*
X152329000Y-90400000D02*
X152329000Y-88506000D01*
X152289000Y-94356000D02*
X152289000Y-92480000D01*
X152289000Y-90400000D02*
X152289000Y-88524000D01*
X152249000Y-94336000D02*
X152249000Y-92480000D01*
X152249000Y-90400000D02*
X152249000Y-88544000D01*
X152209000Y-94316000D02*
X152209000Y-92480000D01*
X152209000Y-90400000D02*
X152209000Y-88564000D01*
X152169000Y-94296000D02*
X152169000Y-92480000D01*
X152169000Y-90400000D02*
X152169000Y-88584000D01*
X152129000Y-94274000D02*
X152129000Y-92480000D01*
X152129000Y-90400000D02*
X152129000Y-88606000D01*
X152089000Y-94252000D02*
X152089000Y-92480000D01*
X152089000Y-90400000D02*
X152089000Y-88628000D01*
X152049000Y-94230000D02*
X152049000Y-92480000D01*
X152049000Y-90400000D02*
X152049000Y-88650000D01*
X152009000Y-94206000D02*
X152009000Y-92480000D01*
X152009000Y-90400000D02*
X152009000Y-88674000D01*
X151969000Y-94182000D02*
X151969000Y-92480000D01*
X151969000Y-90400000D02*
X151969000Y-88698000D01*
X151929000Y-94156000D02*
X151929000Y-92480000D01*
X151929000Y-90400000D02*
X151929000Y-88724000D01*
X151889000Y-94130000D02*
X151889000Y-92480000D01*
X151889000Y-90400000D02*
X151889000Y-88750000D01*
X151849000Y-94104000D02*
X151849000Y-92480000D01*
X151849000Y-90400000D02*
X151849000Y-88776000D01*
X151809000Y-94076000D02*
X151809000Y-92480000D01*
X151809000Y-90400000D02*
X151809000Y-88804000D01*
X151769000Y-94047000D02*
X151769000Y-92480000D01*
X151769000Y-90400000D02*
X151769000Y-88833000D01*
X151729000Y-94018000D02*
X151729000Y-92480000D01*
X151729000Y-90400000D02*
X151729000Y-88862000D01*
X151689000Y-93988000D02*
X151689000Y-92480000D01*
X151689000Y-90400000D02*
X151689000Y-88892000D01*
X151649000Y-93956000D02*
X151649000Y-92480000D01*
X151649000Y-90400000D02*
X151649000Y-88924000D01*
X151609000Y-93924000D02*
X151609000Y-92480000D01*
X151609000Y-90400000D02*
X151609000Y-88956000D01*
X151569000Y-93890000D02*
X151569000Y-92480000D01*
X151569000Y-90400000D02*
X151569000Y-88990000D01*
X151529000Y-93856000D02*
X151529000Y-92480000D01*
X151529000Y-90400000D02*
X151529000Y-89024000D01*
X151489000Y-93820000D02*
X151489000Y-92480000D01*
X151489000Y-90400000D02*
X151489000Y-89060000D01*
X151449000Y-93783000D02*
X151449000Y-92480000D01*
X151449000Y-90400000D02*
X151449000Y-89097000D01*
X151409000Y-93745000D02*
X151409000Y-92480000D01*
X151409000Y-90400000D02*
X151409000Y-89135000D01*
X151369000Y-93705000D02*
X151369000Y-89175000D01*
X151329000Y-93664000D02*
X151329000Y-89216000D01*
X151289000Y-93622000D02*
X151289000Y-89258000D01*
X151249000Y-93577000D02*
X151249000Y-89303000D01*
X151209000Y-93532000D02*
X151209000Y-89348000D01*
X151169000Y-93484000D02*
X151169000Y-89396000D01*
X151129000Y-93435000D02*
X151129000Y-89445000D01*
X151089000Y-93384000D02*
X151089000Y-89496000D01*
X151049000Y-93330000D02*
X151049000Y-89550000D01*
X151009000Y-93274000D02*
X151009000Y-89606000D01*
X150969000Y-93216000D02*
X150969000Y-89664000D01*
X150929000Y-93154000D02*
X150929000Y-89726000D01*
X150889000Y-93090000D02*
X150889000Y-89790000D01*
X150849000Y-93021000D02*
X150849000Y-89859000D01*
X150809000Y-92949000D02*
X150809000Y-89931000D01*
X150769000Y-92872000D02*
X150769000Y-90008000D01*
X150729000Y-92790000D02*
X150729000Y-90090000D01*
X150689000Y-92702000D02*
X150689000Y-90178000D01*
X150649000Y-92605000D02*
X150649000Y-90275000D01*
X150609000Y-92499000D02*
X150609000Y-90381000D01*
X150569000Y-92380000D02*
X150569000Y-90500000D01*
X150529000Y-92242000D02*
X150529000Y-90638000D01*
X150489000Y-92073000D02*
X150489000Y-90807000D01*
X150449000Y-91842000D02*
X150449000Y-91038000D01*
X157190241Y-93279000D02*
X156560241Y-93279000D01*
X156875241Y-93594000D02*
X156875241Y-92964000D01*
%TO.C,C10*%
X146400000Y-105410000D02*
G75*
G03*
X146400000Y-105410000I-2620000J0D01*
G01*
X143780000Y-104370000D02*
X143780000Y-102830000D01*
X143780000Y-107990000D02*
X143780000Y-106450000D01*
X143740000Y-104370000D02*
X143740000Y-102830000D01*
X143740000Y-107990000D02*
X143740000Y-106450000D01*
X143700000Y-107989000D02*
X143700000Y-106450000D01*
X143700000Y-104370000D02*
X143700000Y-102831000D01*
X143660000Y-107988000D02*
X143660000Y-106450000D01*
X143660000Y-104370000D02*
X143660000Y-102832000D01*
X143620000Y-107986000D02*
X143620000Y-106450000D01*
X143620000Y-104370000D02*
X143620000Y-102834000D01*
X143580000Y-107983000D02*
X143580000Y-106450000D01*
X143580000Y-104370000D02*
X143580000Y-102837000D01*
X143540000Y-107979000D02*
X143540000Y-106450000D01*
X143540000Y-104370000D02*
X143540000Y-102841000D01*
X143500000Y-107975000D02*
X143500000Y-106450000D01*
X143500000Y-104370000D02*
X143500000Y-102845000D01*
X143460000Y-107971000D02*
X143460000Y-106450000D01*
X143460000Y-104370000D02*
X143460000Y-102849000D01*
X143420000Y-107966000D02*
X143420000Y-106450000D01*
X143420000Y-104370000D02*
X143420000Y-102854000D01*
X143380000Y-107960000D02*
X143380000Y-106450000D01*
X143380000Y-104370000D02*
X143380000Y-102860000D01*
X143340000Y-107953000D02*
X143340000Y-106450000D01*
X143340000Y-104370000D02*
X143340000Y-102867000D01*
X143300000Y-107946000D02*
X143300000Y-106450000D01*
X143300000Y-104370000D02*
X143300000Y-102874000D01*
X143260000Y-107938000D02*
X143260000Y-106450000D01*
X143260000Y-104370000D02*
X143260000Y-102882000D01*
X143220000Y-107930000D02*
X143220000Y-106450000D01*
X143220000Y-104370000D02*
X143220000Y-102890000D01*
X143180000Y-107921000D02*
X143180000Y-106450000D01*
X143180000Y-104370000D02*
X143180000Y-102899000D01*
X143140000Y-107911000D02*
X143140000Y-106450000D01*
X143140000Y-104370000D02*
X143140000Y-102909000D01*
X143100000Y-107901000D02*
X143100000Y-106450000D01*
X143100000Y-104370000D02*
X143100000Y-102919000D01*
X143059000Y-107890000D02*
X143059000Y-106450000D01*
X143059000Y-104370000D02*
X143059000Y-102930000D01*
X143019000Y-107878000D02*
X143019000Y-106450000D01*
X143019000Y-104370000D02*
X143019000Y-102942000D01*
X142979000Y-107865000D02*
X142979000Y-106450000D01*
X142979000Y-104370000D02*
X142979000Y-102955000D01*
X142939000Y-107852000D02*
X142939000Y-106450000D01*
X142939000Y-104370000D02*
X142939000Y-102968000D01*
X142899000Y-107838000D02*
X142899000Y-106450000D01*
X142899000Y-104370000D02*
X142899000Y-102982000D01*
X142859000Y-107824000D02*
X142859000Y-106450000D01*
X142859000Y-104370000D02*
X142859000Y-102996000D01*
X142819000Y-107808000D02*
X142819000Y-106450000D01*
X142819000Y-104370000D02*
X142819000Y-103012000D01*
X142779000Y-107792000D02*
X142779000Y-106450000D01*
X142779000Y-104370000D02*
X142779000Y-103028000D01*
X142739000Y-107775000D02*
X142739000Y-106450000D01*
X142739000Y-104370000D02*
X142739000Y-103045000D01*
X142699000Y-107758000D02*
X142699000Y-106450000D01*
X142699000Y-104370000D02*
X142699000Y-103062000D01*
X142659000Y-107739000D02*
X142659000Y-106450000D01*
X142659000Y-104370000D02*
X142659000Y-103081000D01*
X142619000Y-107720000D02*
X142619000Y-106450000D01*
X142619000Y-104370000D02*
X142619000Y-103100000D01*
X142579000Y-107700000D02*
X142579000Y-106450000D01*
X142579000Y-104370000D02*
X142579000Y-103120000D01*
X142539000Y-107678000D02*
X142539000Y-106450000D01*
X142539000Y-104370000D02*
X142539000Y-103142000D01*
X142499000Y-107657000D02*
X142499000Y-106450000D01*
X142499000Y-104370000D02*
X142499000Y-103163000D01*
X142459000Y-107634000D02*
X142459000Y-106450000D01*
X142459000Y-104370000D02*
X142459000Y-103186000D01*
X142419000Y-107610000D02*
X142419000Y-106450000D01*
X142419000Y-104370000D02*
X142419000Y-103210000D01*
X142379000Y-107585000D02*
X142379000Y-106450000D01*
X142379000Y-104370000D02*
X142379000Y-103235000D01*
X142339000Y-107559000D02*
X142339000Y-106450000D01*
X142339000Y-104370000D02*
X142339000Y-103261000D01*
X142299000Y-107532000D02*
X142299000Y-106450000D01*
X142299000Y-104370000D02*
X142299000Y-103288000D01*
X142259000Y-107505000D02*
X142259000Y-106450000D01*
X142259000Y-104370000D02*
X142259000Y-103315000D01*
X142219000Y-107475000D02*
X142219000Y-106450000D01*
X142219000Y-104370000D02*
X142219000Y-103345000D01*
X142179000Y-107445000D02*
X142179000Y-106450000D01*
X142179000Y-104370000D02*
X142179000Y-103375000D01*
X142139000Y-107414000D02*
X142139000Y-106450000D01*
X142139000Y-104370000D02*
X142139000Y-103406000D01*
X142099000Y-107381000D02*
X142099000Y-106450000D01*
X142099000Y-104370000D02*
X142099000Y-103439000D01*
X142059000Y-107347000D02*
X142059000Y-106450000D01*
X142059000Y-104370000D02*
X142059000Y-103473000D01*
X142019000Y-107311000D02*
X142019000Y-106450000D01*
X142019000Y-104370000D02*
X142019000Y-103509000D01*
X141979000Y-107274000D02*
X141979000Y-106450000D01*
X141979000Y-104370000D02*
X141979000Y-103546000D01*
X141939000Y-107236000D02*
X141939000Y-106450000D01*
X141939000Y-104370000D02*
X141939000Y-103584000D01*
X141899000Y-107195000D02*
X141899000Y-106450000D01*
X141899000Y-104370000D02*
X141899000Y-103625000D01*
X141859000Y-107153000D02*
X141859000Y-106450000D01*
X141859000Y-104370000D02*
X141859000Y-103667000D01*
X141819000Y-107109000D02*
X141819000Y-106450000D01*
X141819000Y-104370000D02*
X141819000Y-103711000D01*
X141779000Y-107063000D02*
X141779000Y-106450000D01*
X141779000Y-104370000D02*
X141779000Y-103757000D01*
X141739000Y-107015000D02*
X141739000Y-103805000D01*
X141699000Y-106964000D02*
X141699000Y-103856000D01*
X141659000Y-106910000D02*
X141659000Y-103910000D01*
X141619000Y-106853000D02*
X141619000Y-103967000D01*
X141579000Y-106793000D02*
X141579000Y-104027000D01*
X141539000Y-106729000D02*
X141539000Y-104091000D01*
X141499000Y-106661000D02*
X141499000Y-104159000D01*
X141459000Y-106588000D02*
X141459000Y-104232000D01*
X141419000Y-106508000D02*
X141419000Y-104312000D01*
X141379000Y-106421000D02*
X141379000Y-104399000D01*
X141339000Y-106325000D02*
X141339000Y-104495000D01*
X141299000Y-106215000D02*
X141299000Y-104605000D01*
X141259000Y-106087000D02*
X141259000Y-104733000D01*
X141219000Y-105928000D02*
X141219000Y-104892000D01*
X141179000Y-105694000D02*
X141179000Y-105126000D01*
X146584775Y-106885000D02*
X146084775Y-106885000D01*
X146334775Y-107135000D02*
X146334775Y-106635000D01*
%TO.C,C11*%
X165384775Y-80465000D02*
X165384775Y-79965000D01*
X165634775Y-80215000D02*
X165134775Y-80215000D01*
X160229000Y-79024000D02*
X160229000Y-78456000D01*
X160269000Y-79258000D02*
X160269000Y-78222000D01*
X160309000Y-79417000D02*
X160309000Y-78063000D01*
X160349000Y-79545000D02*
X160349000Y-77935000D01*
X160389000Y-79655000D02*
X160389000Y-77825000D01*
X160429000Y-79751000D02*
X160429000Y-77729000D01*
X160469000Y-79838000D02*
X160469000Y-77642000D01*
X160509000Y-79918000D02*
X160509000Y-77562000D01*
X160549000Y-79991000D02*
X160549000Y-77489000D01*
X160589000Y-80059000D02*
X160589000Y-77421000D01*
X160629000Y-80123000D02*
X160629000Y-77357000D01*
X160669000Y-80183000D02*
X160669000Y-77297000D01*
X160709000Y-80240000D02*
X160709000Y-77240000D01*
X160749000Y-80294000D02*
X160749000Y-77186000D01*
X160789000Y-80345000D02*
X160789000Y-77135000D01*
X160829000Y-77700000D02*
X160829000Y-77087000D01*
X160829000Y-80393000D02*
X160829000Y-79780000D01*
X160869000Y-77700000D02*
X160869000Y-77041000D01*
X160869000Y-80439000D02*
X160869000Y-79780000D01*
X160909000Y-77700000D02*
X160909000Y-76997000D01*
X160909000Y-80483000D02*
X160909000Y-79780000D01*
X160949000Y-77700000D02*
X160949000Y-76955000D01*
X160949000Y-80525000D02*
X160949000Y-79780000D01*
X160989000Y-77700000D02*
X160989000Y-76914000D01*
X160989000Y-80566000D02*
X160989000Y-79780000D01*
X161029000Y-77700000D02*
X161029000Y-76876000D01*
X161029000Y-80604000D02*
X161029000Y-79780000D01*
X161069000Y-77700000D02*
X161069000Y-76839000D01*
X161069000Y-80641000D02*
X161069000Y-79780000D01*
X161109000Y-77700000D02*
X161109000Y-76803000D01*
X161109000Y-80677000D02*
X161109000Y-79780000D01*
X161149000Y-77700000D02*
X161149000Y-76769000D01*
X161149000Y-80711000D02*
X161149000Y-79780000D01*
X161189000Y-77700000D02*
X161189000Y-76736000D01*
X161189000Y-80744000D02*
X161189000Y-79780000D01*
X161229000Y-77700000D02*
X161229000Y-76705000D01*
X161229000Y-80775000D02*
X161229000Y-79780000D01*
X161269000Y-77700000D02*
X161269000Y-76675000D01*
X161269000Y-80805000D02*
X161269000Y-79780000D01*
X161309000Y-77700000D02*
X161309000Y-76645000D01*
X161309000Y-80835000D02*
X161309000Y-79780000D01*
X161349000Y-77700000D02*
X161349000Y-76618000D01*
X161349000Y-80862000D02*
X161349000Y-79780000D01*
X161389000Y-77700000D02*
X161389000Y-76591000D01*
X161389000Y-80889000D02*
X161389000Y-79780000D01*
X161429000Y-77700000D02*
X161429000Y-76565000D01*
X161429000Y-80915000D02*
X161429000Y-79780000D01*
X161469000Y-77700000D02*
X161469000Y-76540000D01*
X161469000Y-80940000D02*
X161469000Y-79780000D01*
X161509000Y-77700000D02*
X161509000Y-76516000D01*
X161509000Y-80964000D02*
X161509000Y-79780000D01*
X161549000Y-77700000D02*
X161549000Y-76493000D01*
X161549000Y-80987000D02*
X161549000Y-79780000D01*
X161589000Y-77700000D02*
X161589000Y-76472000D01*
X161589000Y-81008000D02*
X161589000Y-79780000D01*
X161629000Y-77700000D02*
X161629000Y-76450000D01*
X161629000Y-81030000D02*
X161629000Y-79780000D01*
X161669000Y-77700000D02*
X161669000Y-76430000D01*
X161669000Y-81050000D02*
X161669000Y-79780000D01*
X161709000Y-77700000D02*
X161709000Y-76411000D01*
X161709000Y-81069000D02*
X161709000Y-79780000D01*
X161749000Y-77700000D02*
X161749000Y-76392000D01*
X161749000Y-81088000D02*
X161749000Y-79780000D01*
X161789000Y-77700000D02*
X161789000Y-76375000D01*
X161789000Y-81105000D02*
X161789000Y-79780000D01*
X161829000Y-77700000D02*
X161829000Y-76358000D01*
X161829000Y-81122000D02*
X161829000Y-79780000D01*
X161869000Y-77700000D02*
X161869000Y-76342000D01*
X161869000Y-81138000D02*
X161869000Y-79780000D01*
X161909000Y-77700000D02*
X161909000Y-76326000D01*
X161909000Y-81154000D02*
X161909000Y-79780000D01*
X161949000Y-77700000D02*
X161949000Y-76312000D01*
X161949000Y-81168000D02*
X161949000Y-79780000D01*
X161989000Y-77700000D02*
X161989000Y-76298000D01*
X161989000Y-81182000D02*
X161989000Y-79780000D01*
X162029000Y-77700000D02*
X162029000Y-76285000D01*
X162029000Y-81195000D02*
X162029000Y-79780000D01*
X162069000Y-77700000D02*
X162069000Y-76272000D01*
X162069000Y-81208000D02*
X162069000Y-79780000D01*
X162109000Y-77700000D02*
X162109000Y-76260000D01*
X162109000Y-81220000D02*
X162109000Y-79780000D01*
X162150000Y-77700000D02*
X162150000Y-76249000D01*
X162150000Y-81231000D02*
X162150000Y-79780000D01*
X162190000Y-77700000D02*
X162190000Y-76239000D01*
X162190000Y-81241000D02*
X162190000Y-79780000D01*
X162230000Y-77700000D02*
X162230000Y-76229000D01*
X162230000Y-81251000D02*
X162230000Y-79780000D01*
X162270000Y-77700000D02*
X162270000Y-76220000D01*
X162270000Y-81260000D02*
X162270000Y-79780000D01*
X162310000Y-77700000D02*
X162310000Y-76212000D01*
X162310000Y-81268000D02*
X162310000Y-79780000D01*
X162350000Y-77700000D02*
X162350000Y-76204000D01*
X162350000Y-81276000D02*
X162350000Y-79780000D01*
X162390000Y-77700000D02*
X162390000Y-76197000D01*
X162390000Y-81283000D02*
X162390000Y-79780000D01*
X162430000Y-77700000D02*
X162430000Y-76190000D01*
X162430000Y-81290000D02*
X162430000Y-79780000D01*
X162470000Y-77700000D02*
X162470000Y-76184000D01*
X162470000Y-81296000D02*
X162470000Y-79780000D01*
X162510000Y-77700000D02*
X162510000Y-76179000D01*
X162510000Y-81301000D02*
X162510000Y-79780000D01*
X162550000Y-77700000D02*
X162550000Y-76175000D01*
X162550000Y-81305000D02*
X162550000Y-79780000D01*
X162590000Y-77700000D02*
X162590000Y-76171000D01*
X162590000Y-81309000D02*
X162590000Y-79780000D01*
X162630000Y-77700000D02*
X162630000Y-76167000D01*
X162630000Y-81313000D02*
X162630000Y-79780000D01*
X162670000Y-77700000D02*
X162670000Y-76164000D01*
X162670000Y-81316000D02*
X162670000Y-79780000D01*
X162710000Y-77700000D02*
X162710000Y-76162000D01*
X162710000Y-81318000D02*
X162710000Y-79780000D01*
X162750000Y-77700000D02*
X162750000Y-76161000D01*
X162750000Y-81319000D02*
X162750000Y-79780000D01*
X162790000Y-81320000D02*
X162790000Y-79780000D01*
X162790000Y-77700000D02*
X162790000Y-76160000D01*
X162830000Y-81320000D02*
X162830000Y-79780000D01*
X162830000Y-77700000D02*
X162830000Y-76160000D01*
X165450000Y-78740000D02*
G75*
G03*
X165450000Y-78740000I-2620000J0D01*
G01*
%TO.C,C12*%
X164910000Y-91440000D02*
G75*
G03*
X164910000Y-91440000I-2620000J0D01*
G01*
X162290000Y-92480000D02*
X162290000Y-94020000D01*
X162290000Y-88860000D02*
X162290000Y-90400000D01*
X162330000Y-92480000D02*
X162330000Y-94020000D01*
X162330000Y-88860000D02*
X162330000Y-90400000D01*
X162370000Y-88861000D02*
X162370000Y-90400000D01*
X162370000Y-92480000D02*
X162370000Y-94019000D01*
X162410000Y-88862000D02*
X162410000Y-90400000D01*
X162410000Y-92480000D02*
X162410000Y-94018000D01*
X162450000Y-88864000D02*
X162450000Y-90400000D01*
X162450000Y-92480000D02*
X162450000Y-94016000D01*
X162490000Y-88867000D02*
X162490000Y-90400000D01*
X162490000Y-92480000D02*
X162490000Y-94013000D01*
X162530000Y-88871000D02*
X162530000Y-90400000D01*
X162530000Y-92480000D02*
X162530000Y-94009000D01*
X162570000Y-88875000D02*
X162570000Y-90400000D01*
X162570000Y-92480000D02*
X162570000Y-94005000D01*
X162610000Y-88879000D02*
X162610000Y-90400000D01*
X162610000Y-92480000D02*
X162610000Y-94001000D01*
X162650000Y-88884000D02*
X162650000Y-90400000D01*
X162650000Y-92480000D02*
X162650000Y-93996000D01*
X162690000Y-88890000D02*
X162690000Y-90400000D01*
X162690000Y-92480000D02*
X162690000Y-93990000D01*
X162730000Y-88897000D02*
X162730000Y-90400000D01*
X162730000Y-92480000D02*
X162730000Y-93983000D01*
X162770000Y-88904000D02*
X162770000Y-90400000D01*
X162770000Y-92480000D02*
X162770000Y-93976000D01*
X162810000Y-88912000D02*
X162810000Y-90400000D01*
X162810000Y-92480000D02*
X162810000Y-93968000D01*
X162850000Y-88920000D02*
X162850000Y-90400000D01*
X162850000Y-92480000D02*
X162850000Y-93960000D01*
X162890000Y-88929000D02*
X162890000Y-90400000D01*
X162890000Y-92480000D02*
X162890000Y-93951000D01*
X162930000Y-88939000D02*
X162930000Y-90400000D01*
X162930000Y-92480000D02*
X162930000Y-93941000D01*
X162970000Y-88949000D02*
X162970000Y-90400000D01*
X162970000Y-92480000D02*
X162970000Y-93931000D01*
X163011000Y-88960000D02*
X163011000Y-90400000D01*
X163011000Y-92480000D02*
X163011000Y-93920000D01*
X163051000Y-88972000D02*
X163051000Y-90400000D01*
X163051000Y-92480000D02*
X163051000Y-93908000D01*
X163091000Y-88985000D02*
X163091000Y-90400000D01*
X163091000Y-92480000D02*
X163091000Y-93895000D01*
X163131000Y-88998000D02*
X163131000Y-90400000D01*
X163131000Y-92480000D02*
X163131000Y-93882000D01*
X163171000Y-89012000D02*
X163171000Y-90400000D01*
X163171000Y-92480000D02*
X163171000Y-93868000D01*
X163211000Y-89026000D02*
X163211000Y-90400000D01*
X163211000Y-92480000D02*
X163211000Y-93854000D01*
X163251000Y-89042000D02*
X163251000Y-90400000D01*
X163251000Y-92480000D02*
X163251000Y-93838000D01*
X163291000Y-89058000D02*
X163291000Y-90400000D01*
X163291000Y-92480000D02*
X163291000Y-93822000D01*
X163331000Y-89075000D02*
X163331000Y-90400000D01*
X163331000Y-92480000D02*
X163331000Y-93805000D01*
X163371000Y-89092000D02*
X163371000Y-90400000D01*
X163371000Y-92480000D02*
X163371000Y-93788000D01*
X163411000Y-89111000D02*
X163411000Y-90400000D01*
X163411000Y-92480000D02*
X163411000Y-93769000D01*
X163451000Y-89130000D02*
X163451000Y-90400000D01*
X163451000Y-92480000D02*
X163451000Y-93750000D01*
X163491000Y-89150000D02*
X163491000Y-90400000D01*
X163491000Y-92480000D02*
X163491000Y-93730000D01*
X163531000Y-89172000D02*
X163531000Y-90400000D01*
X163531000Y-92480000D02*
X163531000Y-93708000D01*
X163571000Y-89193000D02*
X163571000Y-90400000D01*
X163571000Y-92480000D02*
X163571000Y-93687000D01*
X163611000Y-89216000D02*
X163611000Y-90400000D01*
X163611000Y-92480000D02*
X163611000Y-93664000D01*
X163651000Y-89240000D02*
X163651000Y-90400000D01*
X163651000Y-92480000D02*
X163651000Y-93640000D01*
X163691000Y-89265000D02*
X163691000Y-90400000D01*
X163691000Y-92480000D02*
X163691000Y-93615000D01*
X163731000Y-89291000D02*
X163731000Y-90400000D01*
X163731000Y-92480000D02*
X163731000Y-93589000D01*
X163771000Y-89318000D02*
X163771000Y-90400000D01*
X163771000Y-92480000D02*
X163771000Y-93562000D01*
X163811000Y-89345000D02*
X163811000Y-90400000D01*
X163811000Y-92480000D02*
X163811000Y-93535000D01*
X163851000Y-89375000D02*
X163851000Y-90400000D01*
X163851000Y-92480000D02*
X163851000Y-93505000D01*
X163891000Y-89405000D02*
X163891000Y-90400000D01*
X163891000Y-92480000D02*
X163891000Y-93475000D01*
X163931000Y-89436000D02*
X163931000Y-90400000D01*
X163931000Y-92480000D02*
X163931000Y-93444000D01*
X163971000Y-89469000D02*
X163971000Y-90400000D01*
X163971000Y-92480000D02*
X163971000Y-93411000D01*
X164011000Y-89503000D02*
X164011000Y-90400000D01*
X164011000Y-92480000D02*
X164011000Y-93377000D01*
X164051000Y-89539000D02*
X164051000Y-90400000D01*
X164051000Y-92480000D02*
X164051000Y-93341000D01*
X164091000Y-89576000D02*
X164091000Y-90400000D01*
X164091000Y-92480000D02*
X164091000Y-93304000D01*
X164131000Y-89614000D02*
X164131000Y-90400000D01*
X164131000Y-92480000D02*
X164131000Y-93266000D01*
X164171000Y-89655000D02*
X164171000Y-90400000D01*
X164171000Y-92480000D02*
X164171000Y-93225000D01*
X164211000Y-89697000D02*
X164211000Y-90400000D01*
X164211000Y-92480000D02*
X164211000Y-93183000D01*
X164251000Y-89741000D02*
X164251000Y-90400000D01*
X164251000Y-92480000D02*
X164251000Y-93139000D01*
X164291000Y-89787000D02*
X164291000Y-90400000D01*
X164291000Y-92480000D02*
X164291000Y-93093000D01*
X164331000Y-89835000D02*
X164331000Y-93045000D01*
X164371000Y-89886000D02*
X164371000Y-92994000D01*
X164411000Y-89940000D02*
X164411000Y-92940000D01*
X164451000Y-89997000D02*
X164451000Y-92883000D01*
X164491000Y-90057000D02*
X164491000Y-92823000D01*
X164531000Y-90121000D02*
X164531000Y-92759000D01*
X164571000Y-90189000D02*
X164571000Y-92691000D01*
X164611000Y-90262000D02*
X164611000Y-92618000D01*
X164651000Y-90342000D02*
X164651000Y-92538000D01*
X164691000Y-90429000D02*
X164691000Y-92451000D01*
X164731000Y-90525000D02*
X164731000Y-92355000D01*
X164771000Y-90635000D02*
X164771000Y-92245000D01*
X164811000Y-90763000D02*
X164811000Y-92117000D01*
X164851000Y-90922000D02*
X164851000Y-91958000D01*
X164891000Y-91156000D02*
X164891000Y-91724000D01*
X159485225Y-89965000D02*
X159985225Y-89965000D01*
X159735225Y-89715000D02*
X159735225Y-90215000D01*
%TO.C,D1*%
X105230000Y-59490000D02*
X105230000Y-62430000D01*
X105230000Y-62430000D02*
X110670000Y-62430000D01*
X110670000Y-62430000D02*
X110670000Y-59490000D01*
X110670000Y-59490000D02*
X105230000Y-59490000D01*
X104210000Y-60960000D02*
X105230000Y-60960000D01*
X111690000Y-60960000D02*
X110670000Y-60960000D01*
X106130000Y-59490000D02*
X106130000Y-62430000D01*
X106250000Y-59490000D02*
X106250000Y-62430000D01*
X106010000Y-59490000D02*
X106010000Y-62430000D01*
%TO.C,D2*%
X133550000Y-64100000D02*
X130610000Y-64100000D01*
X133550000Y-64340000D02*
X130610000Y-64340000D01*
X133550000Y-64220000D02*
X130610000Y-64220000D01*
X132080000Y-69780000D02*
X132080000Y-68760000D01*
X132080000Y-62300000D02*
X132080000Y-63320000D01*
X133550000Y-68760000D02*
X133550000Y-63320000D01*
X130610000Y-68760000D02*
X133550000Y-68760000D01*
X130610000Y-63320000D02*
X130610000Y-68760000D01*
X133550000Y-63320000D02*
X130610000Y-63320000D01*
%TO.C,D3*%
X111940000Y-110690000D02*
X111940000Y-107750000D01*
X111940000Y-107750000D02*
X106500000Y-107750000D01*
X106500000Y-107750000D02*
X106500000Y-110690000D01*
X106500000Y-110690000D02*
X111940000Y-110690000D01*
X112960000Y-109220000D02*
X111940000Y-109220000D01*
X105480000Y-109220000D02*
X106500000Y-109220000D01*
X111040000Y-110690000D02*
X111040000Y-107750000D01*
X110920000Y-110690000D02*
X110920000Y-107750000D01*
X111160000Y-110690000D02*
X111160000Y-107750000D01*
%TO.C,D4*%
X126400000Y-110690000D02*
X126400000Y-107750000D01*
X126160000Y-110690000D02*
X126160000Y-107750000D01*
X126280000Y-110690000D02*
X126280000Y-107750000D01*
X120720000Y-109220000D02*
X121740000Y-109220000D01*
X128200000Y-109220000D02*
X127180000Y-109220000D01*
X121740000Y-110690000D02*
X127180000Y-110690000D01*
X121740000Y-107750000D02*
X121740000Y-110690000D01*
X127180000Y-107750000D02*
X121740000Y-107750000D01*
X127180000Y-110690000D02*
X127180000Y-107750000D01*
%TO.C,J1*%
X75420000Y-95510000D02*
X75420000Y-93510000D01*
X73180000Y-95510000D02*
X75420000Y-95510000D01*
X72203000Y-79010000D02*
X72253000Y-79060000D01*
X69770000Y-76577000D02*
X69794000Y-76602000D01*
X72445000Y-78818000D02*
X72470000Y-78842000D01*
X69987000Y-76360000D02*
X70037000Y-76409000D01*
X72203000Y-84010000D02*
X72253000Y-84060000D01*
X69770000Y-81577000D02*
X69794000Y-81602000D01*
X72445000Y-83818000D02*
X72470000Y-83842000D01*
X69987000Y-81360000D02*
X70037000Y-81409000D01*
X72203000Y-89010000D02*
X72253000Y-89060000D01*
X69770000Y-86577000D02*
X69794000Y-86602000D01*
X72445000Y-88818000D02*
X72470000Y-88842000D01*
X69987000Y-86360000D02*
X70037000Y-86409000D01*
X64560000Y-75149000D02*
X75180000Y-75149000D01*
X64560000Y-95270000D02*
X75180000Y-95270000D01*
X75180000Y-95270000D02*
X75180000Y-75149000D01*
X64560000Y-95270000D02*
X64560000Y-75149000D01*
X68120000Y-95270000D02*
X68120000Y-75149000D01*
X69120000Y-95270000D02*
X69120000Y-75149000D01*
X73120000Y-95270000D02*
X73120000Y-75149000D01*
X72900000Y-77710000D02*
G75*
G03*
X72900000Y-77710000I-1780000J0D01*
G01*
X72900000Y-82710000D02*
G75*
G03*
X72900000Y-82710000I-1780000J0D01*
G01*
X72900000Y-87710000D02*
G75*
G03*
X72900000Y-87710000I-1780000J0D01*
G01*
X72758499Y-92014499D02*
G75*
G02*
X72900000Y-92710000I-1638499J-695501D01*
G01*
X70424484Y-91070795D02*
G75*
G02*
X71816000Y-91071000I695516J-1639205D01*
G01*
X69480795Y-93405516D02*
G75*
G02*
X69481000Y-92014000I1639205J695516D01*
G01*
X71815516Y-94349205D02*
G75*
G02*
X70424000Y-94349000I-695516J1639205D01*
G01*
X72900389Y-92679186D02*
G75*
G02*
X72759000Y-93406000I-1780389J-30814D01*
G01*
%TO.C,R1*%
X145130000Y-77470000D02*
X141970000Y-77470000D01*
X146970000Y-77470000D02*
G75*
G03*
X146970000Y-77470000I-920000J0D01*
G01*
%TO.C,R2*%
X145130000Y-72390000D02*
X141970000Y-72390000D01*
X146970000Y-72390000D02*
G75*
G03*
X146970000Y-72390000I-920000J0D01*
G01*
%TO.C,R3*%
X141890000Y-82550000D02*
G75*
G03*
X141890000Y-82550000I-920000J0D01*
G01*
X141890000Y-82550000D02*
X145050000Y-82550000D01*
%TO.C,R5*%
X145130000Y-92710000D02*
X141970000Y-92710000D01*
X146970000Y-92710000D02*
G75*
G03*
X146970000Y-92710000I-920000J0D01*
G01*
%TO.C,R6*%
X146970000Y-97790000D02*
G75*
G03*
X146970000Y-97790000I-920000J0D01*
G01*
X145130000Y-97790000D02*
X141970000Y-97790000D01*
%TO.C,R7*%
X141890000Y-87630000D02*
G75*
G03*
X141890000Y-87630000I-920000J0D01*
G01*
X141890000Y-87630000D02*
X145050000Y-87630000D01*
%TO.C,U1*%
X154900000Y-62270000D02*
X165140000Y-62270000D01*
X165140000Y-60730000D02*
X165140000Y-65471000D01*
X154900000Y-60730000D02*
X154900000Y-65471000D01*
X154900000Y-65471000D02*
X165140000Y-65471000D01*
X154900000Y-60730000D02*
X165140000Y-60730000D01*
%TO.C,U2*%
X165140000Y-110720000D02*
X154900000Y-110720000D01*
X165140000Y-105979000D02*
X154900000Y-105979000D01*
X165140000Y-110720000D02*
X165140000Y-105979000D01*
X154900000Y-110720000D02*
X154900000Y-105979000D01*
X165140000Y-109180000D02*
X154900000Y-109180000D01*
%TO.C,U3*%
X177188500Y-79843000D02*
X177188500Y-90083000D01*
X178728500Y-90083000D02*
X173987500Y-90083000D01*
X178728500Y-79843000D02*
X173987500Y-79843000D01*
X173987500Y-79843000D02*
X173987500Y-90083000D01*
X178728500Y-79843000D02*
X178728500Y-90083000D01*
%TO.C,J2*%
D10*
X202652380Y-82883333D02*
X203366666Y-82883333D01*
X203509523Y-82930952D01*
X203604761Y-83026190D01*
X203652380Y-83169047D01*
X203652380Y-83264285D01*
X202747619Y-82454761D02*
X202700000Y-82407142D01*
X202652380Y-82311904D01*
X202652380Y-82073809D01*
X202700000Y-81978571D01*
X202747619Y-81930952D01*
X202842857Y-81883333D01*
X202938095Y-81883333D01*
X203080952Y-81930952D01*
X203652380Y-82502380D01*
X203652380Y-81883333D01*
%TO.C,RV4*%
X197524761Y-55592380D02*
X197191428Y-55116190D01*
X196953333Y-55592380D02*
X196953333Y-54592380D01*
X197334285Y-54592380D01*
X197429523Y-54640000D01*
X197477142Y-54687619D01*
X197524761Y-54782857D01*
X197524761Y-54925714D01*
X197477142Y-55020952D01*
X197429523Y-55068571D01*
X197334285Y-55116190D01*
X196953333Y-55116190D01*
X197810476Y-54592380D02*
X198143809Y-55592380D01*
X198477142Y-54592380D01*
X199239047Y-54925714D02*
X199239047Y-55592380D01*
X199000952Y-54544761D02*
X198762857Y-55259047D01*
X199381904Y-55259047D01*
%TO.C,RV8*%
X197524761Y-112952380D02*
X197191428Y-112476190D01*
X196953333Y-112952380D02*
X196953333Y-111952380D01*
X197334285Y-111952380D01*
X197429523Y-112000000D01*
X197477142Y-112047619D01*
X197524761Y-112142857D01*
X197524761Y-112285714D01*
X197477142Y-112380952D01*
X197429523Y-112428571D01*
X197334285Y-112476190D01*
X196953333Y-112476190D01*
X197810476Y-111952380D02*
X198143809Y-112952380D01*
X198477142Y-111952380D01*
X198953333Y-112380952D02*
X198858095Y-112333333D01*
X198810476Y-112285714D01*
X198762857Y-112190476D01*
X198762857Y-112142857D01*
X198810476Y-112047619D01*
X198858095Y-112000000D01*
X198953333Y-111952380D01*
X199143809Y-111952380D01*
X199239047Y-112000000D01*
X199286666Y-112047619D01*
X199334285Y-112142857D01*
X199334285Y-112190476D01*
X199286666Y-112285714D01*
X199239047Y-112333333D01*
X199143809Y-112380952D01*
X198953333Y-112380952D01*
X198858095Y-112428571D01*
X198810476Y-112476190D01*
X198762857Y-112571428D01*
X198762857Y-112761904D01*
X198810476Y-112857142D01*
X198858095Y-112904761D01*
X198953333Y-112952380D01*
X199143809Y-112952380D01*
X199239047Y-112904761D01*
X199286666Y-112857142D01*
X199334285Y-112761904D01*
X199334285Y-112571428D01*
X199286666Y-112476190D01*
X199239047Y-112428571D01*
X199143809Y-112380952D01*
%TO.C,M3*%
X173180476Y-110942380D02*
X173180476Y-109942380D01*
X173513809Y-110656666D01*
X173847142Y-109942380D01*
X173847142Y-110942380D01*
X174228095Y-109942380D02*
X174847142Y-109942380D01*
X174513809Y-110323333D01*
X174656666Y-110323333D01*
X174751904Y-110370952D01*
X174799523Y-110418571D01*
X174847142Y-110513809D01*
X174847142Y-110751904D01*
X174799523Y-110847142D01*
X174751904Y-110894761D01*
X174656666Y-110942380D01*
X174370952Y-110942380D01*
X174275714Y-110894761D01*
X174228095Y-110847142D01*
X173180476Y-57602380D02*
X173180476Y-56602380D01*
X173513809Y-57316666D01*
X173847142Y-56602380D01*
X173847142Y-57602380D01*
X174228095Y-56602380D02*
X174847142Y-56602380D01*
X174513809Y-56983333D01*
X174656666Y-56983333D01*
X174751904Y-57030952D01*
X174799523Y-57078571D01*
X174847142Y-57173809D01*
X174847142Y-57411904D01*
X174799523Y-57507142D01*
X174751904Y-57554761D01*
X174656666Y-57602380D01*
X174370952Y-57602380D01*
X174275714Y-57554761D01*
X174228095Y-57507142D01*
X71580476Y-110942380D02*
X71580476Y-109942380D01*
X71913809Y-110656666D01*
X72247142Y-109942380D01*
X72247142Y-110942380D01*
X72628095Y-109942380D02*
X73247142Y-109942380D01*
X72913809Y-110323333D01*
X73056666Y-110323333D01*
X73151904Y-110370952D01*
X73199523Y-110418571D01*
X73247142Y-110513809D01*
X73247142Y-110751904D01*
X73199523Y-110847142D01*
X73151904Y-110894761D01*
X73056666Y-110942380D01*
X72770952Y-110942380D01*
X72675714Y-110894761D01*
X72628095Y-110847142D01*
X71580476Y-57602380D02*
X71580476Y-56602380D01*
X71913809Y-57316666D01*
X72247142Y-56602380D01*
X72247142Y-57602380D01*
X72628095Y-56602380D02*
X73247142Y-56602380D01*
X72913809Y-56983333D01*
X73056666Y-56983333D01*
X73151904Y-57030952D01*
X73199523Y-57078571D01*
X73247142Y-57173809D01*
X73247142Y-57411904D01*
X73199523Y-57507142D01*
X73151904Y-57554761D01*
X73056666Y-57602380D01*
X72770952Y-57602380D01*
X72675714Y-57554761D01*
X72628095Y-57507142D01*
%TO.C,BR1*%
X86848571Y-86174761D02*
X86896190Y-86031904D01*
X86943809Y-85984285D01*
X87039047Y-85936666D01*
X87181904Y-85936666D01*
X87277142Y-85984285D01*
X87324761Y-86031904D01*
X87372380Y-86127142D01*
X87372380Y-86508095D01*
X86372380Y-86508095D01*
X86372380Y-86174761D01*
X86420000Y-86079523D01*
X86467619Y-86031904D01*
X86562857Y-85984285D01*
X86658095Y-85984285D01*
X86753333Y-86031904D01*
X86800952Y-86079523D01*
X86848571Y-86174761D01*
X86848571Y-86508095D01*
X87372380Y-84936666D02*
X86896190Y-85270000D01*
X87372380Y-85508095D02*
X86372380Y-85508095D01*
X86372380Y-85127142D01*
X86420000Y-85031904D01*
X86467619Y-84984285D01*
X86562857Y-84936666D01*
X86705714Y-84936666D01*
X86800952Y-84984285D01*
X86848571Y-85031904D01*
X86896190Y-85127142D01*
X86896190Y-85508095D01*
X87372380Y-83984285D02*
X87372380Y-84555714D01*
X87372380Y-84270000D02*
X86372380Y-84270000D01*
X86515238Y-84365238D01*
X86610476Y-84460476D01*
X86658095Y-84555714D01*
%TO.C,C1*%
X153483333Y-74697142D02*
X153435714Y-74744761D01*
X153292857Y-74792380D01*
X153197619Y-74792380D01*
X153054761Y-74744761D01*
X152959523Y-74649523D01*
X152911904Y-74554285D01*
X152864285Y-74363809D01*
X152864285Y-74220952D01*
X152911904Y-74030476D01*
X152959523Y-73935238D01*
X153054761Y-73840000D01*
X153197619Y-73792380D01*
X153292857Y-73792380D01*
X153435714Y-73840000D01*
X153483333Y-73887619D01*
X154435714Y-74792380D02*
X153864285Y-74792380D01*
X154150000Y-74792380D02*
X154150000Y-73792380D01*
X154054761Y-73935238D01*
X153959523Y-74030476D01*
X153864285Y-74078095D01*
%TO.C,C2*%
X131913333Y-81002142D02*
X131865714Y-81049761D01*
X131722857Y-81097380D01*
X131627619Y-81097380D01*
X131484761Y-81049761D01*
X131389523Y-80954523D01*
X131341904Y-80859285D01*
X131294285Y-80668809D01*
X131294285Y-80525952D01*
X131341904Y-80335476D01*
X131389523Y-80240238D01*
X131484761Y-80145000D01*
X131627619Y-80097380D01*
X131722857Y-80097380D01*
X131865714Y-80145000D01*
X131913333Y-80192619D01*
X132294285Y-80192619D02*
X132341904Y-80145000D01*
X132437142Y-80097380D01*
X132675238Y-80097380D01*
X132770476Y-80145000D01*
X132818095Y-80192619D01*
X132865714Y-80287857D01*
X132865714Y-80383095D01*
X132818095Y-80525952D01*
X132246666Y-81097380D01*
X132865714Y-81097380D01*
%TO.C,C3*%
X143073333Y-61377142D02*
X143025714Y-61424761D01*
X142882857Y-61472380D01*
X142787619Y-61472380D01*
X142644761Y-61424761D01*
X142549523Y-61329523D01*
X142501904Y-61234285D01*
X142454285Y-61043809D01*
X142454285Y-60900952D01*
X142501904Y-60710476D01*
X142549523Y-60615238D01*
X142644761Y-60520000D01*
X142787619Y-60472380D01*
X142882857Y-60472380D01*
X143025714Y-60520000D01*
X143073333Y-60567619D01*
X143406666Y-60472380D02*
X144025714Y-60472380D01*
X143692380Y-60853333D01*
X143835238Y-60853333D01*
X143930476Y-60900952D01*
X143978095Y-60948571D01*
X144025714Y-61043809D01*
X144025714Y-61281904D01*
X143978095Y-61377142D01*
X143930476Y-61424761D01*
X143835238Y-61472380D01*
X143549523Y-61472380D01*
X143454285Y-61424761D01*
X143406666Y-61377142D01*
%TO.C,C4*%
X97623333Y-63857142D02*
X97575714Y-63904761D01*
X97432857Y-63952380D01*
X97337619Y-63952380D01*
X97194761Y-63904761D01*
X97099523Y-63809523D01*
X97051904Y-63714285D01*
X97004285Y-63523809D01*
X97004285Y-63380952D01*
X97051904Y-63190476D01*
X97099523Y-63095238D01*
X97194761Y-63000000D01*
X97337619Y-62952380D01*
X97432857Y-62952380D01*
X97575714Y-63000000D01*
X97623333Y-63047619D01*
X98480476Y-63285714D02*
X98480476Y-63952380D01*
X98242380Y-62904761D02*
X98004285Y-63619047D01*
X98623333Y-63619047D01*
%TO.C,C5*%
X119213333Y-63857142D02*
X119165714Y-63904761D01*
X119022857Y-63952380D01*
X118927619Y-63952380D01*
X118784761Y-63904761D01*
X118689523Y-63809523D01*
X118641904Y-63714285D01*
X118594285Y-63523809D01*
X118594285Y-63380952D01*
X118641904Y-63190476D01*
X118689523Y-63095238D01*
X118784761Y-63000000D01*
X118927619Y-62952380D01*
X119022857Y-62952380D01*
X119165714Y-63000000D01*
X119213333Y-63047619D01*
X120118095Y-62952380D02*
X119641904Y-62952380D01*
X119594285Y-63428571D01*
X119641904Y-63380952D01*
X119737142Y-63333333D01*
X119975238Y-63333333D01*
X120070476Y-63380952D01*
X120118095Y-63428571D01*
X120165714Y-63523809D01*
X120165714Y-63761904D01*
X120118095Y-63857142D01*
X120070476Y-63904761D01*
X119975238Y-63952380D01*
X119737142Y-63952380D01*
X119641904Y-63904761D01*
X119594285Y-63857142D01*
%TO.C,C6*%
X97623333Y-86717142D02*
X97575714Y-86764761D01*
X97432857Y-86812380D01*
X97337619Y-86812380D01*
X97194761Y-86764761D01*
X97099523Y-86669523D01*
X97051904Y-86574285D01*
X97004285Y-86383809D01*
X97004285Y-86240952D01*
X97051904Y-86050476D01*
X97099523Y-85955238D01*
X97194761Y-85860000D01*
X97337619Y-85812380D01*
X97432857Y-85812380D01*
X97575714Y-85860000D01*
X97623333Y-85907619D01*
X98480476Y-85812380D02*
X98290000Y-85812380D01*
X98194761Y-85860000D01*
X98147142Y-85907619D01*
X98051904Y-86050476D01*
X98004285Y-86240952D01*
X98004285Y-86621904D01*
X98051904Y-86717142D01*
X98099523Y-86764761D01*
X98194761Y-86812380D01*
X98385238Y-86812380D01*
X98480476Y-86764761D01*
X98528095Y-86717142D01*
X98575714Y-86621904D01*
X98575714Y-86383809D01*
X98528095Y-86288571D01*
X98480476Y-86240952D01*
X98385238Y-86193333D01*
X98194761Y-86193333D01*
X98099523Y-86240952D01*
X98051904Y-86288571D01*
X98004285Y-86383809D01*
%TO.C,C7*%
X119213333Y-86717142D02*
X119165714Y-86764761D01*
X119022857Y-86812380D01*
X118927619Y-86812380D01*
X118784761Y-86764761D01*
X118689523Y-86669523D01*
X118641904Y-86574285D01*
X118594285Y-86383809D01*
X118594285Y-86240952D01*
X118641904Y-86050476D01*
X118689523Y-85955238D01*
X118784761Y-85860000D01*
X118927619Y-85812380D01*
X119022857Y-85812380D01*
X119165714Y-85860000D01*
X119213333Y-85907619D01*
X119546666Y-85812380D02*
X120213333Y-85812380D01*
X119784761Y-86812380D01*
%TO.C,C8*%
X131933333Y-86082142D02*
X131885714Y-86129761D01*
X131742857Y-86177380D01*
X131647619Y-86177380D01*
X131504761Y-86129761D01*
X131409523Y-86034523D01*
X131361904Y-85939285D01*
X131314285Y-85748809D01*
X131314285Y-85605952D01*
X131361904Y-85415476D01*
X131409523Y-85320238D01*
X131504761Y-85225000D01*
X131647619Y-85177380D01*
X131742857Y-85177380D01*
X131885714Y-85225000D01*
X131933333Y-85272619D01*
X132504761Y-85605952D02*
X132409523Y-85558333D01*
X132361904Y-85510714D01*
X132314285Y-85415476D01*
X132314285Y-85367857D01*
X132361904Y-85272619D01*
X132409523Y-85225000D01*
X132504761Y-85177380D01*
X132695238Y-85177380D01*
X132790476Y-85225000D01*
X132838095Y-85272619D01*
X132885714Y-85367857D01*
X132885714Y-85415476D01*
X132838095Y-85510714D01*
X132790476Y-85558333D01*
X132695238Y-85605952D01*
X132504761Y-85605952D01*
X132409523Y-85653571D01*
X132361904Y-85701190D01*
X132314285Y-85796428D01*
X132314285Y-85986904D01*
X132361904Y-86082142D01*
X132409523Y-86129761D01*
X132504761Y-86177380D01*
X132695238Y-86177380D01*
X132790476Y-86129761D01*
X132838095Y-86082142D01*
X132885714Y-85986904D01*
X132885714Y-85796428D01*
X132838095Y-85701190D01*
X132790476Y-85653571D01*
X132695238Y-85605952D01*
%TO.C,C9*%
X153523333Y-96197142D02*
X153475714Y-96244761D01*
X153332857Y-96292380D01*
X153237619Y-96292380D01*
X153094761Y-96244761D01*
X152999523Y-96149523D01*
X152951904Y-96054285D01*
X152904285Y-95863809D01*
X152904285Y-95720952D01*
X152951904Y-95530476D01*
X152999523Y-95435238D01*
X153094761Y-95340000D01*
X153237619Y-95292380D01*
X153332857Y-95292380D01*
X153475714Y-95340000D01*
X153523333Y-95387619D01*
X153999523Y-96292380D02*
X154190000Y-96292380D01*
X154285238Y-96244761D01*
X154332857Y-96197142D01*
X154428095Y-96054285D01*
X154475714Y-95863809D01*
X154475714Y-95482857D01*
X154428095Y-95387619D01*
X154380476Y-95340000D01*
X154285238Y-95292380D01*
X154094761Y-95292380D01*
X153999523Y-95340000D01*
X153951904Y-95387619D01*
X153904285Y-95482857D01*
X153904285Y-95720952D01*
X153951904Y-95816190D01*
X153999523Y-95863809D01*
X154094761Y-95911428D01*
X154285238Y-95911428D01*
X154380476Y-95863809D01*
X154428095Y-95816190D01*
X154475714Y-95720952D01*
%TO.C,C10*%
X143137142Y-109517142D02*
X143089523Y-109564761D01*
X142946666Y-109612380D01*
X142851428Y-109612380D01*
X142708571Y-109564761D01*
X142613333Y-109469523D01*
X142565714Y-109374285D01*
X142518095Y-109183809D01*
X142518095Y-109040952D01*
X142565714Y-108850476D01*
X142613333Y-108755238D01*
X142708571Y-108660000D01*
X142851428Y-108612380D01*
X142946666Y-108612380D01*
X143089523Y-108660000D01*
X143137142Y-108707619D01*
X144089523Y-109612380D02*
X143518095Y-109612380D01*
X143803809Y-109612380D02*
X143803809Y-108612380D01*
X143708571Y-108755238D01*
X143613333Y-108850476D01*
X143518095Y-108898095D01*
X144708571Y-108612380D02*
X144803809Y-108612380D01*
X144899047Y-108660000D01*
X144946666Y-108707619D01*
X144994285Y-108802857D01*
X145041904Y-108993333D01*
X145041904Y-109231428D01*
X144994285Y-109421904D01*
X144946666Y-109517142D01*
X144899047Y-109564761D01*
X144803809Y-109612380D01*
X144708571Y-109612380D01*
X144613333Y-109564761D01*
X144565714Y-109517142D01*
X144518095Y-109421904D01*
X144470476Y-109231428D01*
X144470476Y-108993333D01*
X144518095Y-108802857D01*
X144565714Y-108707619D01*
X144613333Y-108660000D01*
X144708571Y-108612380D01*
%TO.C,C11*%
X162187142Y-75287142D02*
X162139523Y-75334761D01*
X161996666Y-75382380D01*
X161901428Y-75382380D01*
X161758571Y-75334761D01*
X161663333Y-75239523D01*
X161615714Y-75144285D01*
X161568095Y-74953809D01*
X161568095Y-74810952D01*
X161615714Y-74620476D01*
X161663333Y-74525238D01*
X161758571Y-74430000D01*
X161901428Y-74382380D01*
X161996666Y-74382380D01*
X162139523Y-74430000D01*
X162187142Y-74477619D01*
X163139523Y-75382380D02*
X162568095Y-75382380D01*
X162853809Y-75382380D02*
X162853809Y-74382380D01*
X162758571Y-74525238D01*
X162663333Y-74620476D01*
X162568095Y-74668095D01*
X164091904Y-75382380D02*
X163520476Y-75382380D01*
X163806190Y-75382380D02*
X163806190Y-74382380D01*
X163710952Y-74525238D01*
X163615714Y-74620476D01*
X163520476Y-74668095D01*
%TO.C,C12*%
X161917142Y-95607142D02*
X161869523Y-95654761D01*
X161726666Y-95702380D01*
X161631428Y-95702380D01*
X161488571Y-95654761D01*
X161393333Y-95559523D01*
X161345714Y-95464285D01*
X161298095Y-95273809D01*
X161298095Y-95130952D01*
X161345714Y-94940476D01*
X161393333Y-94845238D01*
X161488571Y-94750000D01*
X161631428Y-94702380D01*
X161726666Y-94702380D01*
X161869523Y-94750000D01*
X161917142Y-94797619D01*
X162869523Y-95702380D02*
X162298095Y-95702380D01*
X162583809Y-95702380D02*
X162583809Y-94702380D01*
X162488571Y-94845238D01*
X162393333Y-94940476D01*
X162298095Y-94988095D01*
X163250476Y-94797619D02*
X163298095Y-94750000D01*
X163393333Y-94702380D01*
X163631428Y-94702380D01*
X163726666Y-94750000D01*
X163774285Y-94797619D01*
X163821904Y-94892857D01*
X163821904Y-94988095D01*
X163774285Y-95130952D01*
X163202857Y-95702380D01*
X163821904Y-95702380D01*
%TO.C,D1*%
X107211904Y-58942380D02*
X107211904Y-57942380D01*
X107450000Y-57942380D01*
X107592857Y-57990000D01*
X107688095Y-58085238D01*
X107735714Y-58180476D01*
X107783333Y-58370952D01*
X107783333Y-58513809D01*
X107735714Y-58704285D01*
X107688095Y-58799523D01*
X107592857Y-58894761D01*
X107450000Y-58942380D01*
X107211904Y-58942380D01*
X108735714Y-58942380D02*
X108164285Y-58942380D01*
X108450000Y-58942380D02*
X108450000Y-57942380D01*
X108354761Y-58085238D01*
X108259523Y-58180476D01*
X108164285Y-58228095D01*
X102608095Y-59312380D02*
X102608095Y-58312380D01*
X103179523Y-59312380D02*
X102750952Y-58740952D01*
X103179523Y-58312380D02*
X102608095Y-58883809D01*
%TO.C,D2*%
X135002380Y-66778095D02*
X134002380Y-66778095D01*
X134002380Y-66540000D01*
X134050000Y-66397142D01*
X134145238Y-66301904D01*
X134240476Y-66254285D01*
X134430952Y-66206666D01*
X134573809Y-66206666D01*
X134764285Y-66254285D01*
X134859523Y-66301904D01*
X134954761Y-66397142D01*
X135002380Y-66540000D01*
X135002380Y-66778095D01*
X134097619Y-65825714D02*
X134050000Y-65778095D01*
X134002380Y-65682857D01*
X134002380Y-65444761D01*
X134050000Y-65349523D01*
X134097619Y-65301904D01*
X134192857Y-65254285D01*
X134288095Y-65254285D01*
X134430952Y-65301904D01*
X135002380Y-65873333D01*
X135002380Y-65254285D01*
X134632380Y-61221904D02*
X133632380Y-61221904D01*
X134632380Y-60650476D02*
X134060952Y-61079047D01*
X133632380Y-60650476D02*
X134203809Y-61221904D01*
%TO.C,D3*%
X108481904Y-112142380D02*
X108481904Y-111142380D01*
X108720000Y-111142380D01*
X108862857Y-111190000D01*
X108958095Y-111285238D01*
X109005714Y-111380476D01*
X109053333Y-111570952D01*
X109053333Y-111713809D01*
X109005714Y-111904285D01*
X108958095Y-111999523D01*
X108862857Y-112094761D01*
X108720000Y-112142380D01*
X108481904Y-112142380D01*
X109386666Y-111142380D02*
X110005714Y-111142380D01*
X109672380Y-111523333D01*
X109815238Y-111523333D01*
X109910476Y-111570952D01*
X109958095Y-111618571D01*
X110005714Y-111713809D01*
X110005714Y-111951904D01*
X109958095Y-112047142D01*
X109910476Y-112094761D01*
X109815238Y-112142380D01*
X109529523Y-112142380D01*
X109434285Y-112094761D01*
X109386666Y-112047142D01*
X114038095Y-111772380D02*
X114038095Y-110772380D01*
X114609523Y-111772380D02*
X114180952Y-111200952D01*
X114609523Y-110772380D02*
X114038095Y-111343809D01*
%TO.C,D4*%
X123721904Y-112142380D02*
X123721904Y-111142380D01*
X123960000Y-111142380D01*
X124102857Y-111190000D01*
X124198095Y-111285238D01*
X124245714Y-111380476D01*
X124293333Y-111570952D01*
X124293333Y-111713809D01*
X124245714Y-111904285D01*
X124198095Y-111999523D01*
X124102857Y-112094761D01*
X123960000Y-112142380D01*
X123721904Y-112142380D01*
X125150476Y-111475714D02*
X125150476Y-112142380D01*
X124912380Y-111094761D02*
X124674285Y-111809047D01*
X125293333Y-111809047D01*
X129278095Y-111772380D02*
X129278095Y-110772380D01*
X129849523Y-111772380D02*
X129420952Y-111200952D01*
X129849523Y-110772380D02*
X129278095Y-111343809D01*
%TO.C,R1*%
X143343333Y-76017380D02*
X143010000Y-75541190D01*
X142771904Y-76017380D02*
X142771904Y-75017380D01*
X143152857Y-75017380D01*
X143248095Y-75065000D01*
X143295714Y-75112619D01*
X143343333Y-75207857D01*
X143343333Y-75350714D01*
X143295714Y-75445952D01*
X143248095Y-75493571D01*
X143152857Y-75541190D01*
X142771904Y-75541190D01*
X144295714Y-76017380D02*
X143724285Y-76017380D01*
X144010000Y-76017380D02*
X144010000Y-75017380D01*
X143914761Y-75160238D01*
X143819523Y-75255476D01*
X143724285Y-75303095D01*
%TO.C,R2*%
X143343333Y-70937380D02*
X143010000Y-70461190D01*
X142771904Y-70937380D02*
X142771904Y-69937380D01*
X143152857Y-69937380D01*
X143248095Y-69985000D01*
X143295714Y-70032619D01*
X143343333Y-70127857D01*
X143343333Y-70270714D01*
X143295714Y-70365952D01*
X143248095Y-70413571D01*
X143152857Y-70461190D01*
X142771904Y-70461190D01*
X143724285Y-70032619D02*
X143771904Y-69985000D01*
X143867142Y-69937380D01*
X144105238Y-69937380D01*
X144200476Y-69985000D01*
X144248095Y-70032619D01*
X144295714Y-70127857D01*
X144295714Y-70223095D01*
X144248095Y-70365952D01*
X143676666Y-70937380D01*
X144295714Y-70937380D01*
%TO.C,R3*%
X143343333Y-81082380D02*
X143010000Y-80606190D01*
X142771904Y-81082380D02*
X142771904Y-80082380D01*
X143152857Y-80082380D01*
X143248095Y-80130000D01*
X143295714Y-80177619D01*
X143343333Y-80272857D01*
X143343333Y-80415714D01*
X143295714Y-80510952D01*
X143248095Y-80558571D01*
X143152857Y-80606190D01*
X142771904Y-80606190D01*
X143676666Y-80082380D02*
X144295714Y-80082380D01*
X143962380Y-80463333D01*
X144105238Y-80463333D01*
X144200476Y-80510952D01*
X144248095Y-80558571D01*
X144295714Y-80653809D01*
X144295714Y-80891904D01*
X144248095Y-80987142D01*
X144200476Y-81034761D01*
X144105238Y-81082380D01*
X143819523Y-81082380D01*
X143724285Y-81034761D01*
X143676666Y-80987142D01*
%TO.C,R5*%
X143343333Y-91257380D02*
X143010000Y-90781190D01*
X142771904Y-91257380D02*
X142771904Y-90257380D01*
X143152857Y-90257380D01*
X143248095Y-90305000D01*
X143295714Y-90352619D01*
X143343333Y-90447857D01*
X143343333Y-90590714D01*
X143295714Y-90685952D01*
X143248095Y-90733571D01*
X143152857Y-90781190D01*
X142771904Y-90781190D01*
X144248095Y-90257380D02*
X143771904Y-90257380D01*
X143724285Y-90733571D01*
X143771904Y-90685952D01*
X143867142Y-90638333D01*
X144105238Y-90638333D01*
X144200476Y-90685952D01*
X144248095Y-90733571D01*
X144295714Y-90828809D01*
X144295714Y-91066904D01*
X144248095Y-91162142D01*
X144200476Y-91209761D01*
X144105238Y-91257380D01*
X143867142Y-91257380D01*
X143771904Y-91209761D01*
X143724285Y-91162142D01*
%TO.C,R6*%
X143343333Y-96337380D02*
X143010000Y-95861190D01*
X142771904Y-96337380D02*
X142771904Y-95337380D01*
X143152857Y-95337380D01*
X143248095Y-95385000D01*
X143295714Y-95432619D01*
X143343333Y-95527857D01*
X143343333Y-95670714D01*
X143295714Y-95765952D01*
X143248095Y-95813571D01*
X143152857Y-95861190D01*
X142771904Y-95861190D01*
X144200476Y-95337380D02*
X144010000Y-95337380D01*
X143914761Y-95385000D01*
X143867142Y-95432619D01*
X143771904Y-95575476D01*
X143724285Y-95765952D01*
X143724285Y-96146904D01*
X143771904Y-96242142D01*
X143819523Y-96289761D01*
X143914761Y-96337380D01*
X144105238Y-96337380D01*
X144200476Y-96289761D01*
X144248095Y-96242142D01*
X144295714Y-96146904D01*
X144295714Y-95908809D01*
X144248095Y-95813571D01*
X144200476Y-95765952D01*
X144105238Y-95718333D01*
X143914761Y-95718333D01*
X143819523Y-95765952D01*
X143771904Y-95813571D01*
X143724285Y-95908809D01*
%TO.C,R7*%
X143343333Y-86162380D02*
X143010000Y-85686190D01*
X142771904Y-86162380D02*
X142771904Y-85162380D01*
X143152857Y-85162380D01*
X143248095Y-85210000D01*
X143295714Y-85257619D01*
X143343333Y-85352857D01*
X143343333Y-85495714D01*
X143295714Y-85590952D01*
X143248095Y-85638571D01*
X143152857Y-85686190D01*
X142771904Y-85686190D01*
X143676666Y-85162380D02*
X144343333Y-85162380D01*
X143914761Y-86162380D01*
%TO.C,U1*%
X159258095Y-59182380D02*
X159258095Y-59991904D01*
X159305714Y-60087142D01*
X159353333Y-60134761D01*
X159448571Y-60182380D01*
X159639047Y-60182380D01*
X159734285Y-60134761D01*
X159781904Y-60087142D01*
X159829523Y-59991904D01*
X159829523Y-59182380D01*
X160829523Y-60182380D02*
X160258095Y-60182380D01*
X160543809Y-60182380D02*
X160543809Y-59182380D01*
X160448571Y-59325238D01*
X160353333Y-59420476D01*
X160258095Y-59468095D01*
%TO.C,U2*%
X159258095Y-111172380D02*
X159258095Y-111981904D01*
X159305714Y-112077142D01*
X159353333Y-112124761D01*
X159448571Y-112172380D01*
X159639047Y-112172380D01*
X159734285Y-112124761D01*
X159781904Y-112077142D01*
X159829523Y-111981904D01*
X159829523Y-111172380D01*
X160258095Y-111267619D02*
X160305714Y-111220000D01*
X160400952Y-111172380D01*
X160639047Y-111172380D01*
X160734285Y-111220000D01*
X160781904Y-111267619D01*
X160829523Y-111362857D01*
X160829523Y-111458095D01*
X160781904Y-111600952D01*
X160210476Y-112172380D01*
X160829523Y-112172380D01*
%TO.C,U3*%
X179180880Y-85724904D02*
X179990404Y-85724904D01*
X180085642Y-85677285D01*
X180133261Y-85629666D01*
X180180880Y-85534428D01*
X180180880Y-85343952D01*
X180133261Y-85248714D01*
X180085642Y-85201095D01*
X179990404Y-85153476D01*
X179180880Y-85153476D01*
X179180880Y-84772523D02*
X179180880Y-84153476D01*
X179561833Y-84486809D01*
X179561833Y-84343952D01*
X179609452Y-84248714D01*
X179657071Y-84201095D01*
X179752309Y-84153476D01*
X179990404Y-84153476D01*
X180085642Y-84201095D01*
X180133261Y-84248714D01*
X180180880Y-84343952D01*
X180180880Y-84629666D01*
X180133261Y-84724904D01*
X180085642Y-84772523D01*
%TD*%
M02*
