%TF.GenerationSoftware,KiCad,Pcbnew,(5.1.10)-1*%
%TF.CreationDate,2021-09-17T22:04:39-04:00*%
%TF.ProjectId,Power Supply,506f7765-7220-4537-9570-706c792e6b69,rev?*%
%TF.SameCoordinates,Original*%
%TF.FileFunction,Soldermask,Top*%
%TF.FilePolarity,Negative*%
%FSLAX46Y46*%
G04 Gerber Fmt 4.6, Leading zero omitted, Abs format (unit mm)*
G04 Created by KiCad (PCBNEW (5.1.10)-1) date 2021-09-17 22:04:39*
%MOMM*%
%LPD*%
G01*
G04 APERTURE LIST*
%ADD10C,1.700000*%
%ADD11C,1.440000*%
%ADD12C,3.200000*%
%ADD13C,2.800000*%
%ADD14R,2.800000X2.800000*%
%ADD15R,1.600000X1.600000*%
%ADD16C,1.600000*%
%ADD17R,2.400000X2.400000*%
%ADD18C,2.400000*%
%ADD19O,2.200000X2.200000*%
%ADD20R,2.200000X2.200000*%
%ADD21C,1.400000*%
%ADD22O,1.400000X1.400000*%
%ADD23R,1.905000X2.000000*%
%ADD24O,1.905000X2.000000*%
%ADD25R,2.000000X1.905000*%
%ADD26O,2.000000X1.905000*%
G04 APERTURE END LIST*
%TO.C,J2*%
G36*
G01*
X197700000Y-92110000D02*
X197700000Y-93310000D01*
G75*
G02*
X197450000Y-93560000I-250000J0D01*
G01*
X196250000Y-93560000D01*
G75*
G02*
X196000000Y-93310000I0J250000D01*
G01*
X196000000Y-92110000D01*
G75*
G02*
X196250000Y-91860000I250000J0D01*
G01*
X197450000Y-91860000D01*
G75*
G02*
X197700000Y-92110000I0J-250000D01*
G01*
G37*
D10*
X196850000Y-90170000D03*
X196850000Y-87630000D03*
X196850000Y-85090000D03*
X196850000Y-82550000D03*
X196850000Y-80010000D03*
X196850000Y-77470000D03*
X196850000Y-74930000D03*
X194310000Y-92710000D03*
X194310000Y-90170000D03*
X194310000Y-87630000D03*
X194310000Y-85090000D03*
X194310000Y-82550000D03*
X194310000Y-80010000D03*
X194310000Y-77470000D03*
X194310000Y-74930000D03*
%TD*%
D11*
%TO.C,RV4*%
X198120000Y-57150000D03*
X198120000Y-59690000D03*
X198120000Y-62230000D03*
%TD*%
%TO.C,RV8*%
X198120000Y-105410000D03*
X198120000Y-107950000D03*
X198120000Y-110490000D03*
%TD*%
D12*
%TO.C,M3*%
X179070000Y-107950000D03*
%TD*%
%TO.C,M3*%
X179070000Y-59690000D03*
%TD*%
%TO.C,M3*%
X67310000Y-107950000D03*
%TD*%
%TO.C,M3*%
X67310000Y-59690000D03*
%TD*%
D13*
%TO.C,BR1*%
X83820000Y-92710000D03*
X83820000Y-87630000D03*
X83820000Y-82550000D03*
D14*
X83820000Y-77470000D03*
%TD*%
D15*
%TO.C,C1*%
X152400000Y-78740000D03*
D16*
X154900000Y-78740000D03*
%TD*%
%TO.C,C2*%
X130850000Y-82550000D03*
X133350000Y-82550000D03*
%TD*%
D15*
%TO.C,C3*%
X142240000Y-64770000D03*
D16*
X144240000Y-64770000D03*
%TD*%
D17*
%TO.C,C4*%
X97790000Y-77470000D03*
D18*
X97790000Y-69970000D03*
%TD*%
D17*
%TO.C,C5*%
X119380000Y-77470000D03*
D18*
X119380000Y-69970000D03*
%TD*%
%TO.C,C6*%
X97790000Y-92830000D03*
D17*
X97790000Y-100330000D03*
%TD*%
D18*
%TO.C,C7*%
X119380000Y-92830000D03*
D17*
X119380000Y-100330000D03*
%TD*%
D16*
%TO.C,C8*%
X133350000Y-87630000D03*
X130850000Y-87630000D03*
%TD*%
%TO.C,C9*%
X152440000Y-91440000D03*
D15*
X154940000Y-91440000D03*
%TD*%
D16*
%TO.C,C10*%
X142780000Y-105410000D03*
D15*
X144780000Y-105410000D03*
%TD*%
%TO.C,C11*%
X163830000Y-78740000D03*
D16*
X161830000Y-78740000D03*
%TD*%
%TO.C,C12*%
X163290000Y-91440000D03*
D15*
X161290000Y-91440000D03*
%TD*%
D19*
%TO.C,D1*%
X113030000Y-60960000D03*
D20*
X102870000Y-60960000D03*
%TD*%
%TO.C,D2*%
X132080000Y-60960000D03*
D19*
X132080000Y-71120000D03*
%TD*%
%TO.C,D3*%
X104140000Y-109220000D03*
D20*
X114300000Y-109220000D03*
%TD*%
%TO.C,D4*%
X129540000Y-109220000D03*
D19*
X119380000Y-109220000D03*
%TD*%
D14*
%TO.C,J1*%
X71120000Y-92710000D03*
D13*
X71120000Y-87710000D03*
X71120000Y-82710000D03*
X71120000Y-77710000D03*
%TD*%
D21*
%TO.C,R1*%
X146050000Y-77470000D03*
D22*
X140970000Y-77470000D03*
%TD*%
D21*
%TO.C,R2*%
X146050000Y-72390000D03*
D22*
X140970000Y-72390000D03*
%TD*%
%TO.C,R3*%
X146050000Y-82550000D03*
D21*
X140970000Y-82550000D03*
%TD*%
%TO.C,R5*%
X146050000Y-92710000D03*
D22*
X140970000Y-92710000D03*
%TD*%
%TO.C,R6*%
X140970000Y-97790000D03*
D21*
X146050000Y-97790000D03*
%TD*%
D22*
%TO.C,R7*%
X146050000Y-87630000D03*
D21*
X140970000Y-87630000D03*
%TD*%
D23*
%TO.C,U1*%
X157480000Y-63500000D03*
D24*
X160020000Y-63500000D03*
X162560000Y-63500000D03*
%TD*%
%TO.C,U2*%
X157480000Y-107950000D03*
X160020000Y-107950000D03*
D23*
X162560000Y-107950000D03*
%TD*%
D25*
%TO.C,U3*%
X175958500Y-82423000D03*
D26*
X175958500Y-84963000D03*
X175958500Y-87503000D03*
%TD*%
M02*
