%TF.GenerationSoftware,KiCad,Pcbnew,(5.1.10)-1*%
%TF.CreationDate,2021-09-17T22:04:39-04:00*%
%TF.ProjectId,Power Supply,506f7765-7220-4537-9570-706c792e6b69,rev?*%
%TF.SameCoordinates,Original*%
%TF.FileFunction,Copper,L1,Top*%
%TF.FilePolarity,Positive*%
%FSLAX46Y46*%
G04 Gerber Fmt 4.6, Leading zero omitted, Abs format (unit mm)*
G04 Created by KiCad (PCBNEW (5.1.10)-1) date 2021-09-17 22:04:39*
%MOMM*%
%LPD*%
G01*
G04 APERTURE LIST*
%TA.AperFunction,ComponentPad*%
%ADD10C,1.700000*%
%TD*%
%TA.AperFunction,ComponentPad*%
%ADD11C,1.440000*%
%TD*%
%TA.AperFunction,ComponentPad*%
%ADD12C,2.800000*%
%TD*%
%TA.AperFunction,ComponentPad*%
%ADD13R,2.800000X2.800000*%
%TD*%
%TA.AperFunction,ComponentPad*%
%ADD14R,1.600000X1.600000*%
%TD*%
%TA.AperFunction,ComponentPad*%
%ADD15C,1.600000*%
%TD*%
%TA.AperFunction,ComponentPad*%
%ADD16R,2.400000X2.400000*%
%TD*%
%TA.AperFunction,ComponentPad*%
%ADD17C,2.400000*%
%TD*%
%TA.AperFunction,ComponentPad*%
%ADD18O,2.200000X2.200000*%
%TD*%
%TA.AperFunction,ComponentPad*%
%ADD19R,2.200000X2.200000*%
%TD*%
%TA.AperFunction,ComponentPad*%
%ADD20C,1.400000*%
%TD*%
%TA.AperFunction,ComponentPad*%
%ADD21O,1.400000X1.400000*%
%TD*%
%TA.AperFunction,ComponentPad*%
%ADD22R,1.905000X2.000000*%
%TD*%
%TA.AperFunction,ComponentPad*%
%ADD23O,1.905000X2.000000*%
%TD*%
%TA.AperFunction,ComponentPad*%
%ADD24R,2.000000X1.905000*%
%TD*%
%TA.AperFunction,ComponentPad*%
%ADD25O,2.000000X1.905000*%
%TD*%
%TA.AperFunction,Conductor*%
%ADD26C,2.540000*%
%TD*%
%TA.AperFunction,Conductor*%
%ADD27C,2.000000*%
%TD*%
%TA.AperFunction,Conductor*%
%ADD28C,1.500000*%
%TD*%
%TA.AperFunction,Conductor*%
%ADD29C,0.254000*%
%TD*%
%TA.AperFunction,Conductor*%
%ADD30C,0.100000*%
%TD*%
G04 APERTURE END LIST*
%TO.P,J2,1*%
%TO.N,Net-(C9-Pad2)*%
%TA.AperFunction,ComponentPad*%
G36*
G01*
X197700000Y-92110000D02*
X197700000Y-93310000D01*
G75*
G02*
X197450000Y-93560000I-250000J0D01*
G01*
X196250000Y-93560000D01*
G75*
G02*
X196000000Y-93310000I0J250000D01*
G01*
X196000000Y-92110000D01*
G75*
G02*
X196250000Y-91860000I250000J0D01*
G01*
X197450000Y-91860000D01*
G75*
G02*
X197700000Y-92110000I0J-250000D01*
G01*
G37*
%TD.AperFunction*%
D10*
%TO.P,J2,3*%
%TO.N,GND*%
X196850000Y-90170000D03*
%TO.P,J2,5*%
X196850000Y-87630000D03*
%TO.P,J2,7*%
X196850000Y-85090000D03*
%TO.P,J2,9*%
%TO.N,Net-(C1-Pad1)*%
X196850000Y-82550000D03*
%TO.P,J2,11*%
%TO.N,Net-(C12-Pad1)*%
X196850000Y-80010000D03*
%TO.P,J2,13*%
%TO.N,Net-(J2-Pad13)*%
X196850000Y-77470000D03*
%TO.P,J2,15*%
%TO.N,Net-(J2-Pad15)*%
X196850000Y-74930000D03*
%TO.P,J2,2*%
%TO.N,Net-(C9-Pad2)*%
X194310000Y-92710000D03*
%TO.P,J2,4*%
%TO.N,GND*%
X194310000Y-90170000D03*
%TO.P,J2,6*%
X194310000Y-87630000D03*
%TO.P,J2,8*%
X194310000Y-85090000D03*
%TO.P,J2,10*%
%TO.N,Net-(C1-Pad1)*%
X194310000Y-82550000D03*
%TO.P,J2,12*%
%TO.N,Net-(C12-Pad1)*%
X194310000Y-80010000D03*
%TO.P,J2,14*%
%TO.N,Net-(J2-Pad13)*%
X194310000Y-77470000D03*
%TO.P,J2,16*%
%TO.N,Net-(J2-Pad15)*%
X194310000Y-74930000D03*
%TD*%
D11*
%TO.P,RV4,1*%
%TO.N,Net-(R3-Pad2)*%
X198120000Y-57150000D03*
%TO.P,RV4,2*%
X198120000Y-59690000D03*
%TO.P,RV4,3*%
%TO.N,GND*%
X198120000Y-62230000D03*
%TD*%
%TO.P,RV8,3*%
%TO.N,GND*%
X198120000Y-105410000D03*
%TO.P,RV8,2*%
%TO.N,Net-(R7-Pad1)*%
X198120000Y-107950000D03*
%TO.P,RV8,1*%
X198120000Y-110490000D03*
%TD*%
D12*
%TO.P,BR1,4*%
%TO.N,Net-(BR1-Pad4)*%
X83820000Y-92710000D03*
%TO.P,BR1,3*%
%TO.N,Net-(BR1-Pad3)*%
X83820000Y-87630000D03*
%TO.P,BR1,2*%
%TO.N,Net-(BR1-Pad2)*%
X83820000Y-82550000D03*
D13*
%TO.P,BR1,1*%
%TO.N,Net-(BR1-Pad1)*%
X83820000Y-77470000D03*
%TD*%
D14*
%TO.P,C1,1*%
%TO.N,Net-(C1-Pad1)*%
X152400000Y-78740000D03*
D15*
%TO.P,C1,2*%
%TO.N,GND*%
X154900000Y-78740000D03*
%TD*%
%TO.P,C2,2*%
%TO.N,GND*%
X130850000Y-82550000D03*
%TO.P,C2,1*%
%TO.N,Net-(BR1-Pad1)*%
X133350000Y-82550000D03*
%TD*%
D14*
%TO.P,C3,1*%
%TO.N,Net-(C3-Pad1)*%
X142240000Y-64770000D03*
D15*
%TO.P,C3,2*%
%TO.N,GND*%
X144240000Y-64770000D03*
%TD*%
D16*
%TO.P,C4,1*%
%TO.N,Net-(BR1-Pad1)*%
X97790000Y-77470000D03*
D17*
%TO.P,C4,2*%
%TO.N,GND*%
X97790000Y-69970000D03*
%TD*%
D16*
%TO.P,C5,1*%
%TO.N,Net-(BR1-Pad1)*%
X119380000Y-77470000D03*
D17*
%TO.P,C5,2*%
%TO.N,GND*%
X119380000Y-69970000D03*
%TD*%
%TO.P,C6,2*%
%TO.N,Net-(BR1-Pad4)*%
X97790000Y-92830000D03*
D16*
%TO.P,C6,1*%
%TO.N,GND*%
X97790000Y-100330000D03*
%TD*%
D17*
%TO.P,C7,2*%
%TO.N,Net-(BR1-Pad4)*%
X119380000Y-92830000D03*
D16*
%TO.P,C7,1*%
%TO.N,GND*%
X119380000Y-100330000D03*
%TD*%
D15*
%TO.P,C8,1*%
%TO.N,GND*%
X133350000Y-87630000D03*
%TO.P,C8,2*%
%TO.N,Net-(BR1-Pad4)*%
X130850000Y-87630000D03*
%TD*%
%TO.P,C9,2*%
%TO.N,Net-(C9-Pad2)*%
X152440000Y-91440000D03*
D14*
%TO.P,C9,1*%
%TO.N,GND*%
X154940000Y-91440000D03*
%TD*%
D15*
%TO.P,C10,2*%
%TO.N,Net-(C10-Pad2)*%
X142780000Y-105410000D03*
D14*
%TO.P,C10,1*%
%TO.N,GND*%
X144780000Y-105410000D03*
%TD*%
%TO.P,C11,1*%
%TO.N,Net-(BR1-Pad1)*%
X163830000Y-78740000D03*
D15*
%TO.P,C11,2*%
%TO.N,GND*%
X161830000Y-78740000D03*
%TD*%
%TO.P,C12,2*%
%TO.N,GND*%
X163290000Y-91440000D03*
D14*
%TO.P,C12,1*%
%TO.N,Net-(C12-Pad1)*%
X161290000Y-91440000D03*
%TD*%
D18*
%TO.P,D1,2*%
%TO.N,Net-(C1-Pad1)*%
X113030000Y-60960000D03*
D19*
%TO.P,D1,1*%
%TO.N,Net-(BR1-Pad1)*%
X102870000Y-60960000D03*
%TD*%
%TO.P,D2,1*%
%TO.N,Net-(C1-Pad1)*%
X132080000Y-60960000D03*
D18*
%TO.P,D2,2*%
%TO.N,Net-(C3-Pad1)*%
X132080000Y-71120000D03*
%TD*%
%TO.P,D3,2*%
%TO.N,Net-(BR1-Pad4)*%
X104140000Y-109220000D03*
D19*
%TO.P,D3,1*%
%TO.N,Net-(C9-Pad2)*%
X114300000Y-109220000D03*
%TD*%
%TO.P,D4,1*%
%TO.N,Net-(C10-Pad2)*%
X129540000Y-109220000D03*
D18*
%TO.P,D4,2*%
%TO.N,Net-(C9-Pad2)*%
X119380000Y-109220000D03*
%TD*%
D13*
%TO.P,J1,1*%
%TO.N,Net-(BR1-Pad3)*%
X71120000Y-92710000D03*
D12*
%TO.P,J1,2*%
%TO.N,GND*%
X71120000Y-87710000D03*
%TO.P,J1,3*%
%TO.N,Net-(BR1-Pad2)*%
X71120000Y-82710000D03*
%TO.P,J1,4*%
%TO.N,GND*%
X71120000Y-77710000D03*
%TD*%
D20*
%TO.P,R1,1*%
%TO.N,Net-(C1-Pad1)*%
X146050000Y-77470000D03*
D21*
%TO.P,R1,2*%
%TO.N,Net-(C3-Pad1)*%
X140970000Y-77470000D03*
%TD*%
D20*
%TO.P,R2,1*%
%TO.N,Net-(C1-Pad1)*%
X146050000Y-72390000D03*
D21*
%TO.P,R2,2*%
%TO.N,GND*%
X140970000Y-72390000D03*
%TD*%
%TO.P,R3,2*%
%TO.N,Net-(R3-Pad2)*%
X146050000Y-82550000D03*
D20*
%TO.P,R3,1*%
%TO.N,Net-(C3-Pad1)*%
X140970000Y-82550000D03*
%TD*%
%TO.P,R5,1*%
%TO.N,Net-(C10-Pad2)*%
X146050000Y-92710000D03*
D21*
%TO.P,R5,2*%
%TO.N,Net-(C9-Pad2)*%
X140970000Y-92710000D03*
%TD*%
%TO.P,R6,2*%
%TO.N,Net-(C9-Pad2)*%
X140970000Y-97790000D03*
D20*
%TO.P,R6,1*%
%TO.N,GND*%
X146050000Y-97790000D03*
%TD*%
D21*
%TO.P,R7,2*%
%TO.N,Net-(C10-Pad2)*%
X146050000Y-87630000D03*
D20*
%TO.P,R7,1*%
%TO.N,Net-(R7-Pad1)*%
X140970000Y-87630000D03*
%TD*%
D22*
%TO.P,U1,1*%
%TO.N,Net-(C3-Pad1)*%
X157480000Y-63500000D03*
D23*
%TO.P,U1,2*%
%TO.N,Net-(C1-Pad1)*%
X160020000Y-63500000D03*
%TO.P,U1,3*%
%TO.N,Net-(BR1-Pad1)*%
X162560000Y-63500000D03*
%TD*%
%TO.P,U2,3*%
%TO.N,Net-(C9-Pad2)*%
X157480000Y-107950000D03*
%TO.P,U2,2*%
%TO.N,Net-(BR1-Pad4)*%
X160020000Y-107950000D03*
D22*
%TO.P,U2,1*%
%TO.N,Net-(C10-Pad2)*%
X162560000Y-107950000D03*
%TD*%
D24*
%TO.P,U3,1*%
%TO.N,Net-(BR1-Pad1)*%
X175958500Y-82423000D03*
D25*
%TO.P,U3,2*%
%TO.N,GND*%
X175958500Y-84963000D03*
%TO.P,U3,3*%
%TO.N,Net-(C12-Pad1)*%
X175958500Y-87503000D03*
%TD*%
D26*
%TO.N,Net-(BR1-Pad1)*%
X102870000Y-72390000D02*
X102870000Y-60960000D01*
X97790000Y-77470000D02*
X102870000Y-72390000D01*
X133350000Y-81418630D02*
X133350000Y-82550000D01*
X129401370Y-77470000D02*
X133350000Y-81418630D01*
X119380000Y-77470000D02*
X129401370Y-77470000D01*
D27*
X135890000Y-85090000D02*
X133350000Y-82550000D01*
D28*
X175958500Y-82423000D02*
X165925500Y-72390000D01*
X165925500Y-72390000D02*
X162560000Y-72390000D01*
X158750000Y-76200000D02*
X158750000Y-85090000D01*
X162560000Y-72390000D02*
X158750000Y-76200000D01*
D27*
X158750000Y-85090000D02*
X135890000Y-85090000D01*
X163830000Y-82550000D02*
X163830000Y-78740000D01*
X161290000Y-85090000D02*
X163830000Y-82550000D01*
X158750000Y-85090000D02*
X161290000Y-85090000D01*
D28*
%TO.N,GND*%
X161830000Y-77429998D02*
X161830000Y-78740000D01*
X163694998Y-75565000D02*
X161830000Y-77429998D01*
X165100000Y-75565000D02*
X163694998Y-75565000D01*
X167005000Y-77470000D02*
X165100000Y-75565000D01*
X167005000Y-87725000D02*
X167005000Y-77470000D01*
X163290000Y-91440000D02*
X167005000Y-87725000D01*
X144780000Y-105410000D02*
X144780000Y-104775000D01*
X146050000Y-103505000D02*
X146050000Y-97790000D01*
X144780000Y-104775000D02*
X146050000Y-103505000D01*
%TO.N,Net-(C3-Pad1)*%
X142240000Y-64770000D02*
X142240000Y-62865000D01*
X156845000Y-62865000D02*
X157480000Y-63500000D01*
X142240000Y-62865000D02*
X156845000Y-62865000D01*
%TO.N,Net-(C9-Pad2)*%
X140970000Y-97790000D02*
X130810000Y-97790000D01*
D26*
X150800001Y-89800001D02*
X152440000Y-91440000D01*
X143879999Y-89800001D02*
X150800001Y-89800001D01*
X140970000Y-92710000D02*
X143879999Y-89800001D01*
X152440000Y-102910000D02*
X157480000Y-107950000D01*
X152440000Y-91440000D02*
X152440000Y-102910000D01*
X157480000Y-104410000D02*
X157480000Y-107950000D01*
X169180000Y-92710000D02*
X157480000Y-104410000D01*
X194310000Y-92710000D02*
X169180000Y-92710000D01*
X119380000Y-109220000D02*
X130810000Y-97790000D01*
X130810000Y-97790000D02*
X140559990Y-97790000D01*
D28*
%TO.N,Net-(C10-Pad2)*%
X142780000Y-105410000D02*
X142780000Y-102330000D01*
X142780000Y-102330000D02*
X143510000Y-101600000D01*
X143510000Y-95250000D02*
X146050000Y-92710000D01*
X143510000Y-101600000D02*
X143510000Y-95250000D01*
%TO.N,Net-(C12-Pad1)*%
X161290000Y-91440000D02*
X161290000Y-92710000D01*
X162560000Y-93980000D02*
X163830000Y-93980000D01*
X161290000Y-92710000D02*
X162560000Y-93980000D01*
X170307000Y-87503000D02*
X175958500Y-87503000D01*
X163830000Y-93980000D02*
X170307000Y-87503000D01*
X175958500Y-87503000D02*
X180467000Y-87503000D01*
X187960000Y-80010000D02*
X194310000Y-80010000D01*
X180467000Y-87503000D02*
X187960000Y-80010000D01*
%TD*%
D29*
%TO.N,GND*%
X202540000Y-113640000D02*
X61620000Y-113640000D01*
X61620000Y-107729872D01*
X65075000Y-107729872D01*
X65075000Y-108170128D01*
X65160890Y-108601925D01*
X65329369Y-109008669D01*
X65573962Y-109374729D01*
X65885271Y-109686038D01*
X66251331Y-109930631D01*
X66658075Y-110099110D01*
X67089872Y-110185000D01*
X67530128Y-110185000D01*
X67961925Y-110099110D01*
X68368669Y-109930631D01*
X68734729Y-109686038D01*
X69046038Y-109374729D01*
X69263604Y-109049117D01*
X102405000Y-109049117D01*
X102405000Y-109390883D01*
X102471675Y-109726081D01*
X102602463Y-110041831D01*
X102792337Y-110325998D01*
X103034002Y-110567663D01*
X103318169Y-110757537D01*
X103633919Y-110888325D01*
X103969117Y-110955000D01*
X104310883Y-110955000D01*
X104646081Y-110888325D01*
X104961831Y-110757537D01*
X105245998Y-110567663D01*
X105487663Y-110325998D01*
X105677537Y-110041831D01*
X105808325Y-109726081D01*
X105875000Y-109390883D01*
X105875000Y-109049117D01*
X105808325Y-108713919D01*
X105677537Y-108398169D01*
X105491671Y-108120000D01*
X112561928Y-108120000D01*
X112561928Y-110320000D01*
X112574188Y-110444482D01*
X112610498Y-110564180D01*
X112669463Y-110674494D01*
X112748815Y-110771185D01*
X112845506Y-110850537D01*
X112955820Y-110909502D01*
X113075518Y-110945812D01*
X113200000Y-110958072D01*
X115400000Y-110958072D01*
X115524482Y-110945812D01*
X115644180Y-110909502D01*
X115754494Y-110850537D01*
X115851185Y-110771185D01*
X115930537Y-110674494D01*
X115989502Y-110564180D01*
X116025812Y-110444482D01*
X116038072Y-110320000D01*
X116038072Y-108120000D01*
X116025812Y-107995518D01*
X115989502Y-107875820D01*
X115930537Y-107765506D01*
X115851185Y-107668815D01*
X115754494Y-107589463D01*
X115644180Y-107530498D01*
X115524482Y-107494188D01*
X115400000Y-107481928D01*
X113200000Y-107481928D01*
X113075518Y-107494188D01*
X112955820Y-107530498D01*
X112845506Y-107589463D01*
X112748815Y-107668815D01*
X112669463Y-107765506D01*
X112610498Y-107875820D01*
X112574188Y-107995518D01*
X112561928Y-108120000D01*
X105491671Y-108120000D01*
X105487663Y-108114002D01*
X105245998Y-107872337D01*
X104961831Y-107682463D01*
X104646081Y-107551675D01*
X104310883Y-107485000D01*
X103969117Y-107485000D01*
X103633919Y-107551675D01*
X103318169Y-107682463D01*
X103034002Y-107872337D01*
X102792337Y-108114002D01*
X102602463Y-108398169D01*
X102471675Y-108713919D01*
X102405000Y-109049117D01*
X69263604Y-109049117D01*
X69290631Y-109008669D01*
X69459110Y-108601925D01*
X69545000Y-108170128D01*
X69545000Y-107729872D01*
X69459110Y-107298075D01*
X69290631Y-106891331D01*
X69046038Y-106525271D01*
X68734729Y-106213962D01*
X68368669Y-105969369D01*
X67961925Y-105800890D01*
X67530128Y-105715000D01*
X67089872Y-105715000D01*
X66658075Y-105800890D01*
X66251331Y-105969369D01*
X65885271Y-106213962D01*
X65573962Y-106525271D01*
X65329369Y-106891331D01*
X65160890Y-107298075D01*
X65075000Y-107729872D01*
X61620000Y-107729872D01*
X61620000Y-101530000D01*
X95951928Y-101530000D01*
X95964188Y-101654482D01*
X96000498Y-101774180D01*
X96059463Y-101884494D01*
X96138815Y-101981185D01*
X96235506Y-102060537D01*
X96345820Y-102119502D01*
X96465518Y-102155812D01*
X96590000Y-102168072D01*
X97504250Y-102165000D01*
X97663000Y-102006250D01*
X97663000Y-100457000D01*
X97917000Y-100457000D01*
X97917000Y-102006250D01*
X98075750Y-102165000D01*
X98990000Y-102168072D01*
X99114482Y-102155812D01*
X99234180Y-102119502D01*
X99344494Y-102060537D01*
X99441185Y-101981185D01*
X99520537Y-101884494D01*
X99579502Y-101774180D01*
X99615812Y-101654482D01*
X99628072Y-101530000D01*
X117541928Y-101530000D01*
X117554188Y-101654482D01*
X117590498Y-101774180D01*
X117649463Y-101884494D01*
X117728815Y-101981185D01*
X117825506Y-102060537D01*
X117935820Y-102119502D01*
X118055518Y-102155812D01*
X118180000Y-102168072D01*
X119094250Y-102165000D01*
X119253000Y-102006250D01*
X119253000Y-100457000D01*
X119507000Y-100457000D01*
X119507000Y-102006250D01*
X119665750Y-102165000D01*
X120580000Y-102168072D01*
X120704482Y-102155812D01*
X120824180Y-102119502D01*
X120934494Y-102060537D01*
X121031185Y-101981185D01*
X121110537Y-101884494D01*
X121169502Y-101774180D01*
X121205812Y-101654482D01*
X121218072Y-101530000D01*
X121215000Y-100615750D01*
X121056250Y-100457000D01*
X119507000Y-100457000D01*
X119253000Y-100457000D01*
X117703750Y-100457000D01*
X117545000Y-100615750D01*
X117541928Y-101530000D01*
X99628072Y-101530000D01*
X99625000Y-100615750D01*
X99466250Y-100457000D01*
X97917000Y-100457000D01*
X97663000Y-100457000D01*
X96113750Y-100457000D01*
X95955000Y-100615750D01*
X95951928Y-101530000D01*
X61620000Y-101530000D01*
X61620000Y-99130000D01*
X95951928Y-99130000D01*
X95955000Y-100044250D01*
X96113750Y-100203000D01*
X97663000Y-100203000D01*
X97663000Y-98653750D01*
X97917000Y-98653750D01*
X97917000Y-100203000D01*
X99466250Y-100203000D01*
X99625000Y-100044250D01*
X99628072Y-99130000D01*
X117541928Y-99130000D01*
X117545000Y-100044250D01*
X117703750Y-100203000D01*
X119253000Y-100203000D01*
X119253000Y-98653750D01*
X119507000Y-98653750D01*
X119507000Y-100203000D01*
X121056250Y-100203000D01*
X121215000Y-100044250D01*
X121218072Y-99130000D01*
X121205812Y-99005518D01*
X121169502Y-98885820D01*
X121110537Y-98775506D01*
X121031185Y-98678815D01*
X120934494Y-98599463D01*
X120824180Y-98540498D01*
X120704482Y-98504188D01*
X120580000Y-98491928D01*
X119665750Y-98495000D01*
X119507000Y-98653750D01*
X119253000Y-98653750D01*
X119094250Y-98495000D01*
X118180000Y-98491928D01*
X118055518Y-98504188D01*
X117935820Y-98540498D01*
X117825506Y-98599463D01*
X117728815Y-98678815D01*
X117649463Y-98775506D01*
X117590498Y-98885820D01*
X117554188Y-99005518D01*
X117541928Y-99130000D01*
X99628072Y-99130000D01*
X99615812Y-99005518D01*
X99579502Y-98885820D01*
X99520537Y-98775506D01*
X99441185Y-98678815D01*
X99344494Y-98599463D01*
X99234180Y-98540498D01*
X99114482Y-98504188D01*
X98990000Y-98491928D01*
X98075750Y-98495000D01*
X97917000Y-98653750D01*
X97663000Y-98653750D01*
X97504250Y-98495000D01*
X96590000Y-98491928D01*
X96465518Y-98504188D01*
X96345820Y-98540498D01*
X96235506Y-98599463D01*
X96138815Y-98678815D01*
X96059463Y-98775506D01*
X96000498Y-98885820D01*
X95964188Y-99005518D01*
X95951928Y-99130000D01*
X61620000Y-99130000D01*
X61620000Y-91310000D01*
X69081928Y-91310000D01*
X69081928Y-94110000D01*
X69094188Y-94234482D01*
X69130498Y-94354180D01*
X69189463Y-94464494D01*
X69268815Y-94561185D01*
X69365506Y-94640537D01*
X69475820Y-94699502D01*
X69595518Y-94735812D01*
X69720000Y-94748072D01*
X72520000Y-94748072D01*
X72644482Y-94735812D01*
X72764180Y-94699502D01*
X72874494Y-94640537D01*
X72971185Y-94561185D01*
X73050537Y-94464494D01*
X73109502Y-94354180D01*
X73145812Y-94234482D01*
X73158072Y-94110000D01*
X73158072Y-92509570D01*
X81785000Y-92509570D01*
X81785000Y-92910430D01*
X81863204Y-93303587D01*
X82016607Y-93673934D01*
X82239313Y-94007237D01*
X82522763Y-94290687D01*
X82856066Y-94513393D01*
X83226413Y-94666796D01*
X83619570Y-94745000D01*
X84020430Y-94745000D01*
X84413587Y-94666796D01*
X84783934Y-94513393D01*
X85117237Y-94290687D01*
X85400687Y-94007237D01*
X85623393Y-93673934D01*
X85776796Y-93303587D01*
X85855000Y-92910430D01*
X85855000Y-92649268D01*
X95955000Y-92649268D01*
X95955000Y-93010732D01*
X96025518Y-93365250D01*
X96163844Y-93699199D01*
X96364662Y-93999744D01*
X96620256Y-94255338D01*
X96920801Y-94456156D01*
X97254750Y-94594482D01*
X97609268Y-94665000D01*
X97970732Y-94665000D01*
X98325250Y-94594482D01*
X98659199Y-94456156D01*
X98959744Y-94255338D01*
X99215338Y-93999744D01*
X99416156Y-93699199D01*
X99554482Y-93365250D01*
X99625000Y-93010732D01*
X99625000Y-92649268D01*
X117545000Y-92649268D01*
X117545000Y-93010732D01*
X117615518Y-93365250D01*
X117753844Y-93699199D01*
X117954662Y-93999744D01*
X118210256Y-94255338D01*
X118510801Y-94456156D01*
X118844750Y-94594482D01*
X119199268Y-94665000D01*
X119560732Y-94665000D01*
X119915250Y-94594482D01*
X120249199Y-94456156D01*
X120549744Y-94255338D01*
X120805338Y-93999744D01*
X121006156Y-93699199D01*
X121144482Y-93365250D01*
X121215000Y-93010732D01*
X121215000Y-92649268D01*
X121144482Y-92294750D01*
X121006156Y-91960801D01*
X120805338Y-91660256D01*
X120549744Y-91404662D01*
X120249199Y-91203844D01*
X119915250Y-91065518D01*
X119560732Y-90995000D01*
X119199268Y-90995000D01*
X118844750Y-91065518D01*
X118510801Y-91203844D01*
X118210256Y-91404662D01*
X117954662Y-91660256D01*
X117753844Y-91960801D01*
X117615518Y-92294750D01*
X117545000Y-92649268D01*
X99625000Y-92649268D01*
X99554482Y-92294750D01*
X99416156Y-91960801D01*
X99215338Y-91660256D01*
X98959744Y-91404662D01*
X98659199Y-91203844D01*
X98325250Y-91065518D01*
X97970732Y-90995000D01*
X97609268Y-90995000D01*
X97254750Y-91065518D01*
X96920801Y-91203844D01*
X96620256Y-91404662D01*
X96364662Y-91660256D01*
X96163844Y-91960801D01*
X96025518Y-92294750D01*
X95955000Y-92649268D01*
X85855000Y-92649268D01*
X85855000Y-92509570D01*
X85776796Y-92116413D01*
X85623393Y-91746066D01*
X85400687Y-91412763D01*
X85117237Y-91129313D01*
X84783934Y-90906607D01*
X84413587Y-90753204D01*
X84020430Y-90675000D01*
X83619570Y-90675000D01*
X83226413Y-90753204D01*
X82856066Y-90906607D01*
X82522763Y-91129313D01*
X82239313Y-91412763D01*
X82016607Y-91746066D01*
X81863204Y-92116413D01*
X81785000Y-92509570D01*
X73158072Y-92509570D01*
X73158072Y-91310000D01*
X73145812Y-91185518D01*
X73109502Y-91065820D01*
X73050537Y-90955506D01*
X72971185Y-90858815D01*
X72874494Y-90779463D01*
X72764180Y-90720498D01*
X72644482Y-90684188D01*
X72520000Y-90671928D01*
X69720000Y-90671928D01*
X69595518Y-90684188D01*
X69475820Y-90720498D01*
X69365506Y-90779463D01*
X69268815Y-90858815D01*
X69189463Y-90955506D01*
X69130498Y-91065820D01*
X69094188Y-91185518D01*
X69081928Y-91310000D01*
X61620000Y-91310000D01*
X61620000Y-89130447D01*
X69879158Y-89130447D01*
X70023135Y-89435770D01*
X70380892Y-89616597D01*
X70767053Y-89724155D01*
X71166777Y-89754310D01*
X71564704Y-89705904D01*
X71945540Y-89580795D01*
X72216865Y-89435770D01*
X72360842Y-89130447D01*
X71120000Y-87889605D01*
X69879158Y-89130447D01*
X61620000Y-89130447D01*
X61620000Y-87756777D01*
X69075690Y-87756777D01*
X69124096Y-88154704D01*
X69249205Y-88535540D01*
X69394230Y-88806865D01*
X69699553Y-88950842D01*
X70940395Y-87710000D01*
X71299605Y-87710000D01*
X72540447Y-88950842D01*
X72845770Y-88806865D01*
X73026597Y-88449108D01*
X73134155Y-88062947D01*
X73164310Y-87663223D01*
X73135888Y-87429570D01*
X81785000Y-87429570D01*
X81785000Y-87830430D01*
X81863204Y-88223587D01*
X82016607Y-88593934D01*
X82239313Y-88927237D01*
X82522763Y-89210687D01*
X82856066Y-89433393D01*
X83226413Y-89586796D01*
X83619570Y-89665000D01*
X84020430Y-89665000D01*
X84413587Y-89586796D01*
X84783934Y-89433393D01*
X85117237Y-89210687D01*
X85400687Y-88927237D01*
X85623393Y-88593934D01*
X85776796Y-88223587D01*
X85855000Y-87830430D01*
X85855000Y-87488665D01*
X129415000Y-87488665D01*
X129415000Y-87771335D01*
X129470147Y-88048574D01*
X129578320Y-88309727D01*
X129735363Y-88544759D01*
X129935241Y-88744637D01*
X130170273Y-88901680D01*
X130431426Y-89009853D01*
X130708665Y-89065000D01*
X130991335Y-89065000D01*
X131268574Y-89009853D01*
X131529727Y-88901680D01*
X131764759Y-88744637D01*
X131886694Y-88622702D01*
X132536903Y-88622702D01*
X132608486Y-88866671D01*
X132863996Y-88987571D01*
X133138184Y-89056300D01*
X133420512Y-89070217D01*
X133700130Y-89028787D01*
X133966292Y-88933603D01*
X134091514Y-88866671D01*
X134163097Y-88622702D01*
X133350000Y-87809605D01*
X132536903Y-88622702D01*
X131886694Y-88622702D01*
X131964637Y-88544759D01*
X132098692Y-88344131D01*
X132113329Y-88371514D01*
X132357298Y-88443097D01*
X133170395Y-87630000D01*
X133529605Y-87630000D01*
X134342702Y-88443097D01*
X134586671Y-88371514D01*
X134707571Y-88116004D01*
X134776300Y-87841816D01*
X134790217Y-87559488D01*
X134748787Y-87279870D01*
X134653603Y-87013708D01*
X134586671Y-86888486D01*
X134342702Y-86816903D01*
X133529605Y-87630000D01*
X133170395Y-87630000D01*
X132357298Y-86816903D01*
X132113329Y-86888486D01*
X132099676Y-86917341D01*
X131964637Y-86715241D01*
X131886694Y-86637298D01*
X132536903Y-86637298D01*
X133350000Y-87450395D01*
X134163097Y-86637298D01*
X134091514Y-86393329D01*
X133836004Y-86272429D01*
X133561816Y-86203700D01*
X133279488Y-86189783D01*
X132999870Y-86231213D01*
X132733708Y-86326397D01*
X132608486Y-86393329D01*
X132536903Y-86637298D01*
X131886694Y-86637298D01*
X131764759Y-86515363D01*
X131529727Y-86358320D01*
X131268574Y-86250147D01*
X130991335Y-86195000D01*
X130708665Y-86195000D01*
X130431426Y-86250147D01*
X130170273Y-86358320D01*
X129935241Y-86515363D01*
X129735363Y-86715241D01*
X129578320Y-86950273D01*
X129470147Y-87211426D01*
X129415000Y-87488665D01*
X85855000Y-87488665D01*
X85855000Y-87429570D01*
X85776796Y-87036413D01*
X85623393Y-86666066D01*
X85400687Y-86332763D01*
X85117237Y-86049313D01*
X84783934Y-85826607D01*
X84413587Y-85673204D01*
X84020430Y-85595000D01*
X83619570Y-85595000D01*
X83226413Y-85673204D01*
X82856066Y-85826607D01*
X82522763Y-86049313D01*
X82239313Y-86332763D01*
X82016607Y-86666066D01*
X81863204Y-87036413D01*
X81785000Y-87429570D01*
X73135888Y-87429570D01*
X73115904Y-87265296D01*
X72990795Y-86884460D01*
X72845770Y-86613135D01*
X72540447Y-86469158D01*
X71299605Y-87710000D01*
X70940395Y-87710000D01*
X69699553Y-86469158D01*
X69394230Y-86613135D01*
X69213403Y-86970892D01*
X69105845Y-87357053D01*
X69075690Y-87756777D01*
X61620000Y-87756777D01*
X61620000Y-86289553D01*
X69879158Y-86289553D01*
X71120000Y-87530395D01*
X72360842Y-86289553D01*
X72216865Y-85984230D01*
X71859108Y-85803403D01*
X71472947Y-85695845D01*
X71073223Y-85665690D01*
X70675296Y-85714096D01*
X70294460Y-85839205D01*
X70023135Y-85984230D01*
X69879158Y-86289553D01*
X61620000Y-86289553D01*
X61620000Y-82509570D01*
X69085000Y-82509570D01*
X69085000Y-82910430D01*
X69163204Y-83303587D01*
X69316607Y-83673934D01*
X69539313Y-84007237D01*
X69822763Y-84290687D01*
X70156066Y-84513393D01*
X70526413Y-84666796D01*
X70919570Y-84745000D01*
X71320430Y-84745000D01*
X71713587Y-84666796D01*
X72083934Y-84513393D01*
X72417237Y-84290687D01*
X72700687Y-84007237D01*
X72923393Y-83673934D01*
X73076796Y-83303587D01*
X73155000Y-82910430D01*
X73155000Y-82509570D01*
X73123174Y-82349570D01*
X81785000Y-82349570D01*
X81785000Y-82750430D01*
X81863204Y-83143587D01*
X82016607Y-83513934D01*
X82239313Y-83847237D01*
X82522763Y-84130687D01*
X82856066Y-84353393D01*
X83226413Y-84506796D01*
X83619570Y-84585000D01*
X84020430Y-84585000D01*
X84413587Y-84506796D01*
X84783934Y-84353393D01*
X85117237Y-84130687D01*
X85400687Y-83847237D01*
X85623393Y-83513934D01*
X85776796Y-83143587D01*
X85855000Y-82750430D01*
X85855000Y-82620512D01*
X129409783Y-82620512D01*
X129451213Y-82900130D01*
X129546397Y-83166292D01*
X129613329Y-83291514D01*
X129857298Y-83363097D01*
X130670395Y-82550000D01*
X129857298Y-81736903D01*
X129613329Y-81808486D01*
X129492429Y-82063996D01*
X129423700Y-82338184D01*
X129409783Y-82620512D01*
X85855000Y-82620512D01*
X85855000Y-82349570D01*
X85776796Y-81956413D01*
X85623393Y-81586066D01*
X85400687Y-81252763D01*
X85117237Y-80969313D01*
X84783934Y-80746607D01*
X84413587Y-80593204D01*
X84020430Y-80515000D01*
X83619570Y-80515000D01*
X83226413Y-80593204D01*
X82856066Y-80746607D01*
X82522763Y-80969313D01*
X82239313Y-81252763D01*
X82016607Y-81586066D01*
X81863204Y-81956413D01*
X81785000Y-82349570D01*
X73123174Y-82349570D01*
X73076796Y-82116413D01*
X72923393Y-81746066D01*
X72700687Y-81412763D01*
X72417237Y-81129313D01*
X72083934Y-80906607D01*
X71713587Y-80753204D01*
X71320430Y-80675000D01*
X70919570Y-80675000D01*
X70526413Y-80753204D01*
X70156066Y-80906607D01*
X69822763Y-81129313D01*
X69539313Y-81412763D01*
X69316607Y-81746066D01*
X69163204Y-82116413D01*
X69085000Y-82509570D01*
X61620000Y-82509570D01*
X61620000Y-79130447D01*
X69879158Y-79130447D01*
X70023135Y-79435770D01*
X70380892Y-79616597D01*
X70767053Y-79724155D01*
X71166777Y-79754310D01*
X71564704Y-79705904D01*
X71945540Y-79580795D01*
X72216865Y-79435770D01*
X72360842Y-79130447D01*
X71120000Y-77889605D01*
X69879158Y-79130447D01*
X61620000Y-79130447D01*
X61620000Y-77756777D01*
X69075690Y-77756777D01*
X69124096Y-78154704D01*
X69249205Y-78535540D01*
X69394230Y-78806865D01*
X69699553Y-78950842D01*
X70940395Y-77710000D01*
X71299605Y-77710000D01*
X72540447Y-78950842D01*
X72845770Y-78806865D01*
X73026597Y-78449108D01*
X73134155Y-78062947D01*
X73164310Y-77663223D01*
X73115904Y-77265296D01*
X72990795Y-76884460D01*
X72845770Y-76613135D01*
X72540447Y-76469158D01*
X71299605Y-77710000D01*
X70940395Y-77710000D01*
X69699553Y-76469158D01*
X69394230Y-76613135D01*
X69213403Y-76970892D01*
X69105845Y-77357053D01*
X69075690Y-77756777D01*
X61620000Y-77756777D01*
X61620000Y-76289553D01*
X69879158Y-76289553D01*
X71120000Y-77530395D01*
X72360842Y-76289553D01*
X72257311Y-76070000D01*
X81781928Y-76070000D01*
X81781928Y-78870000D01*
X81794188Y-78994482D01*
X81830498Y-79114180D01*
X81889463Y-79224494D01*
X81968815Y-79321185D01*
X82065506Y-79400537D01*
X82175820Y-79459502D01*
X82295518Y-79495812D01*
X82420000Y-79508072D01*
X85220000Y-79508072D01*
X85344482Y-79495812D01*
X85464180Y-79459502D01*
X85574494Y-79400537D01*
X85671185Y-79321185D01*
X85750537Y-79224494D01*
X85809502Y-79114180D01*
X85845812Y-78994482D01*
X85858072Y-78870000D01*
X85858072Y-77470000D01*
X95875783Y-77470000D01*
X95912565Y-77843445D01*
X95951928Y-77973207D01*
X95951928Y-78670000D01*
X95964188Y-78794482D01*
X96000498Y-78914180D01*
X96059463Y-79024494D01*
X96138815Y-79121185D01*
X96235506Y-79200537D01*
X96345820Y-79259502D01*
X96465518Y-79295812D01*
X96590000Y-79308072D01*
X97286793Y-79308072D01*
X97416555Y-79347435D01*
X97790000Y-79384217D01*
X98163445Y-79347435D01*
X98293207Y-79308072D01*
X98990000Y-79308072D01*
X99114482Y-79295812D01*
X99234180Y-79259502D01*
X99344494Y-79200537D01*
X99441185Y-79121185D01*
X99520537Y-79024494D01*
X99579502Y-78914180D01*
X99615812Y-78794482D01*
X99628072Y-78670000D01*
X99628072Y-78326003D01*
X100484075Y-77470000D01*
X117465783Y-77470000D01*
X117502564Y-77843445D01*
X117541928Y-77973211D01*
X117541928Y-78670000D01*
X117554188Y-78794482D01*
X117590498Y-78914180D01*
X117649463Y-79024494D01*
X117728815Y-79121185D01*
X117825506Y-79200537D01*
X117935820Y-79259502D01*
X118055518Y-79295812D01*
X118180000Y-79308072D01*
X118876789Y-79308072D01*
X119006555Y-79347436D01*
X119286418Y-79375000D01*
X128612295Y-79375000D01*
X130417842Y-81180548D01*
X130233708Y-81246397D01*
X130108486Y-81313329D01*
X130036903Y-81557298D01*
X130850000Y-82370395D01*
X130864143Y-82356253D01*
X131043748Y-82535858D01*
X131029605Y-82550000D01*
X131043748Y-82564143D01*
X130864143Y-82743748D01*
X130850000Y-82729605D01*
X130036903Y-83542702D01*
X130108486Y-83786671D01*
X130363996Y-83907571D01*
X130638184Y-83976300D01*
X130920512Y-83990217D01*
X131200130Y-83948787D01*
X131466292Y-83853603D01*
X131591514Y-83786671D01*
X131663097Y-83542704D01*
X131779370Y-83658977D01*
X131788353Y-83649994D01*
X131996445Y-83903556D01*
X132286519Y-84141613D01*
X132617462Y-84318506D01*
X132888480Y-84400718D01*
X134677080Y-86189319D01*
X134728286Y-86251714D01*
X134977248Y-86456031D01*
X135261285Y-86607852D01*
X135569484Y-86701343D01*
X135809678Y-86725000D01*
X135809680Y-86725000D01*
X135889999Y-86732911D01*
X135970319Y-86725000D01*
X139987025Y-86725000D01*
X139933038Y-86778987D01*
X139786939Y-86997641D01*
X139686304Y-87240595D01*
X139635000Y-87498514D01*
X139635000Y-87761486D01*
X139686304Y-88019405D01*
X139786939Y-88262359D01*
X139933038Y-88481013D01*
X140118987Y-88666962D01*
X140337641Y-88813061D01*
X140580595Y-88913696D01*
X140838514Y-88965000D01*
X141101486Y-88965000D01*
X141359405Y-88913696D01*
X141602359Y-88813061D01*
X141821013Y-88666962D01*
X142006962Y-88481013D01*
X142153061Y-88262359D01*
X142253696Y-88019405D01*
X142305000Y-87761486D01*
X142305000Y-87498514D01*
X142253696Y-87240595D01*
X142153061Y-86997641D01*
X142006962Y-86778987D01*
X141952975Y-86725000D01*
X145067025Y-86725000D01*
X145013038Y-86778987D01*
X144866939Y-86997641D01*
X144766304Y-87240595D01*
X144715000Y-87498514D01*
X144715000Y-87761486D01*
X144741558Y-87895001D01*
X143973578Y-87895001D01*
X143879998Y-87885784D01*
X143786418Y-87895001D01*
X143786417Y-87895001D01*
X143506554Y-87922565D01*
X143147460Y-88031495D01*
X143088618Y-88062947D01*
X142816516Y-88208388D01*
X142733902Y-88276188D01*
X142526443Y-88446445D01*
X142466783Y-88519141D01*
X139556790Y-91429135D01*
X139378387Y-91646518D01*
X139201495Y-91977461D01*
X139092565Y-92336555D01*
X139055783Y-92710000D01*
X139092565Y-93083445D01*
X139201495Y-93442539D01*
X139378387Y-93773482D01*
X139616445Y-94063555D01*
X139906518Y-94301613D01*
X140237461Y-94478505D01*
X140596555Y-94587435D01*
X140970000Y-94624217D01*
X141343445Y-94587435D01*
X141702539Y-94478505D01*
X142033482Y-94301613D01*
X142250865Y-94123210D01*
X144669075Y-91705001D01*
X145096314Y-91705001D01*
X142578765Y-94222550D01*
X142525920Y-94265919D01*
X142482551Y-94318764D01*
X142482548Y-94318767D01*
X142352844Y-94476812D01*
X142224236Y-94717420D01*
X142145040Y-94978493D01*
X142118300Y-95250000D01*
X142125001Y-95318039D01*
X142125001Y-96694103D01*
X141913546Y-96436444D01*
X141623472Y-96198387D01*
X141292529Y-96021494D01*
X140933435Y-95912564D01*
X140653572Y-95885000D01*
X130903579Y-95885000D01*
X130809999Y-95875783D01*
X130716419Y-95885000D01*
X130716418Y-95885000D01*
X130436555Y-95912564D01*
X130077461Y-96021494D01*
X129923410Y-96103836D01*
X129746517Y-96198387D01*
X129650177Y-96277452D01*
X129456444Y-96436444D01*
X129396784Y-96509140D01*
X117966790Y-107939135D01*
X117788387Y-108156518D01*
X117611495Y-108487461D01*
X117502565Y-108846555D01*
X117465783Y-109220000D01*
X117502565Y-109593445D01*
X117611495Y-109952539D01*
X117788387Y-110283482D01*
X118026445Y-110573555D01*
X118316518Y-110811613D01*
X118647461Y-110988505D01*
X119006555Y-111097435D01*
X119380000Y-111134217D01*
X119753445Y-111097435D01*
X120112539Y-110988505D01*
X120443482Y-110811613D01*
X120660865Y-110633210D01*
X123174075Y-108120000D01*
X127801928Y-108120000D01*
X127801928Y-110320000D01*
X127814188Y-110444482D01*
X127850498Y-110564180D01*
X127909463Y-110674494D01*
X127988815Y-110771185D01*
X128085506Y-110850537D01*
X128195820Y-110909502D01*
X128315518Y-110945812D01*
X128440000Y-110958072D01*
X130640000Y-110958072D01*
X130764482Y-110945812D01*
X130884180Y-110909502D01*
X130994494Y-110850537D01*
X131091185Y-110771185D01*
X131170537Y-110674494D01*
X131229502Y-110564180D01*
X131265812Y-110444482D01*
X131278072Y-110320000D01*
X131278072Y-108120000D01*
X131265812Y-107995518D01*
X131229502Y-107875820D01*
X131170537Y-107765506D01*
X131091185Y-107668815D01*
X130994494Y-107589463D01*
X130884180Y-107530498D01*
X130764482Y-107494188D01*
X130640000Y-107481928D01*
X128440000Y-107481928D01*
X128315518Y-107494188D01*
X128195820Y-107530498D01*
X128085506Y-107589463D01*
X127988815Y-107668815D01*
X127909463Y-107765506D01*
X127850498Y-107875820D01*
X127814188Y-107995518D01*
X127801928Y-108120000D01*
X123174075Y-108120000D01*
X131599076Y-99695000D01*
X140653572Y-99695000D01*
X140933435Y-99667436D01*
X141292529Y-99558506D01*
X141623472Y-99381613D01*
X141913546Y-99143556D01*
X142125000Y-98885897D01*
X142125000Y-101026315D01*
X141848765Y-101302550D01*
X141795920Y-101345919D01*
X141752551Y-101398764D01*
X141752548Y-101398767D01*
X141622844Y-101556812D01*
X141494236Y-101797420D01*
X141415040Y-102058493D01*
X141388300Y-102330000D01*
X141395001Y-102398039D01*
X141395000Y-105017301D01*
X141345000Y-105268665D01*
X141345000Y-105551335D01*
X141400147Y-105828574D01*
X141508320Y-106089727D01*
X141665363Y-106324759D01*
X141865241Y-106524637D01*
X142100273Y-106681680D01*
X142361426Y-106789853D01*
X142638665Y-106845000D01*
X142921335Y-106845000D01*
X143198574Y-106789853D01*
X143459727Y-106681680D01*
X143515210Y-106644607D01*
X143528815Y-106661185D01*
X143625506Y-106740537D01*
X143735820Y-106799502D01*
X143855518Y-106835812D01*
X143980000Y-106848072D01*
X144494250Y-106845000D01*
X144653000Y-106686250D01*
X144653000Y-105537000D01*
X144907000Y-105537000D01*
X144907000Y-106686250D01*
X145065750Y-106845000D01*
X145580000Y-106848072D01*
X145704482Y-106835812D01*
X145824180Y-106799502D01*
X145934494Y-106740537D01*
X146031185Y-106661185D01*
X146110537Y-106564494D01*
X146169502Y-106454180D01*
X146205812Y-106334482D01*
X146218072Y-106210000D01*
X146215000Y-105695750D01*
X146056250Y-105537000D01*
X144907000Y-105537000D01*
X144653000Y-105537000D01*
X144633000Y-105537000D01*
X144633000Y-105283000D01*
X144653000Y-105283000D01*
X144653000Y-104133750D01*
X144907000Y-104133750D01*
X144907000Y-105283000D01*
X146056250Y-105283000D01*
X146215000Y-105124250D01*
X146218072Y-104610000D01*
X146205812Y-104485518D01*
X146169502Y-104365820D01*
X146110537Y-104255506D01*
X146031185Y-104158815D01*
X145934494Y-104079463D01*
X145824180Y-104020498D01*
X145704482Y-103984188D01*
X145580000Y-103971928D01*
X145065750Y-103975000D01*
X144907000Y-104133750D01*
X144653000Y-104133750D01*
X144494250Y-103975000D01*
X144165000Y-103973033D01*
X144165000Y-102903685D01*
X144441235Y-102627450D01*
X144494080Y-102584081D01*
X144667157Y-102373188D01*
X144795764Y-102132581D01*
X144841690Y-101981185D01*
X144874960Y-101871508D01*
X144884546Y-101774180D01*
X144895000Y-101668037D01*
X144895000Y-101668029D01*
X144901700Y-101600000D01*
X144895000Y-101531971D01*
X144895000Y-98711269D01*
X145308336Y-98711269D01*
X145367797Y-98945037D01*
X145606242Y-99055934D01*
X145861740Y-99118183D01*
X146124473Y-99129390D01*
X146384344Y-99089125D01*
X146631366Y-98998935D01*
X146732203Y-98945037D01*
X146791664Y-98711269D01*
X146050000Y-97969605D01*
X145308336Y-98711269D01*
X144895000Y-98711269D01*
X144895000Y-98472212D01*
X145128731Y-98531664D01*
X145870395Y-97790000D01*
X146229605Y-97790000D01*
X146971269Y-98531664D01*
X147205037Y-98472203D01*
X147315934Y-98233758D01*
X147378183Y-97978260D01*
X147389390Y-97715527D01*
X147349125Y-97455656D01*
X147258935Y-97208634D01*
X147205037Y-97107797D01*
X146971269Y-97048336D01*
X146229605Y-97790000D01*
X145870395Y-97790000D01*
X145128731Y-97048336D01*
X144895000Y-97107788D01*
X144895000Y-96868731D01*
X145308336Y-96868731D01*
X146050000Y-97610395D01*
X146791664Y-96868731D01*
X146732203Y-96634963D01*
X146493758Y-96524066D01*
X146238260Y-96461817D01*
X145975527Y-96450610D01*
X145715656Y-96490875D01*
X145468634Y-96581065D01*
X145367797Y-96634963D01*
X145308336Y-96868731D01*
X144895000Y-96868731D01*
X144895000Y-95823685D01*
X147077451Y-93641234D01*
X147207156Y-93483189D01*
X147335763Y-93242582D01*
X147414959Y-92981508D01*
X147441700Y-92710001D01*
X147414959Y-92438494D01*
X147335763Y-92177420D01*
X147207156Y-91936813D01*
X147034080Y-91725920D01*
X147008590Y-91705001D01*
X150010925Y-91705001D01*
X150535000Y-92229076D01*
X150535001Y-102816410D01*
X150525783Y-102910000D01*
X150562565Y-103283445D01*
X150671495Y-103642539D01*
X150848387Y-103973482D01*
X150921188Y-104062189D01*
X151086445Y-104263556D01*
X151159140Y-104323215D01*
X156066794Y-109230871D01*
X156126445Y-109303556D01*
X156199129Y-109363206D01*
X156199133Y-109363210D01*
X156416517Y-109541612D01*
X156512060Y-109592681D01*
X156747462Y-109718506D01*
X157106556Y-109827436D01*
X157439200Y-109860199D01*
X157479999Y-109864217D01*
X157480000Y-109864217D01*
X157853445Y-109827436D01*
X158212539Y-109718506D01*
X158543482Y-109541613D01*
X158833556Y-109303556D01*
X158944427Y-109168459D01*
X159133765Y-109323845D01*
X159409551Y-109471255D01*
X159708796Y-109562030D01*
X160020000Y-109592681D01*
X160331203Y-109562030D01*
X160630448Y-109471255D01*
X160906234Y-109323845D01*
X161032095Y-109220553D01*
X161076963Y-109304494D01*
X161156315Y-109401185D01*
X161253006Y-109480537D01*
X161363320Y-109539502D01*
X161483018Y-109575812D01*
X161607500Y-109588072D01*
X163512500Y-109588072D01*
X163636982Y-109575812D01*
X163756680Y-109539502D01*
X163866994Y-109480537D01*
X163963685Y-109401185D01*
X164043037Y-109304494D01*
X164102002Y-109194180D01*
X164138312Y-109074482D01*
X164150572Y-108950000D01*
X164150572Y-107729872D01*
X176835000Y-107729872D01*
X176835000Y-108170128D01*
X176920890Y-108601925D01*
X177089369Y-109008669D01*
X177333962Y-109374729D01*
X177645271Y-109686038D01*
X178011331Y-109930631D01*
X178418075Y-110099110D01*
X178849872Y-110185000D01*
X179290128Y-110185000D01*
X179721925Y-110099110D01*
X180128669Y-109930631D01*
X180494729Y-109686038D01*
X180806038Y-109374729D01*
X181050631Y-109008669D01*
X181219110Y-108601925D01*
X181305000Y-108170128D01*
X181305000Y-107816544D01*
X196765000Y-107816544D01*
X196765000Y-108083456D01*
X196817072Y-108345239D01*
X196919215Y-108591833D01*
X197067503Y-108813762D01*
X197256238Y-109002497D01*
X197478167Y-109150785D01*
X197645266Y-109220000D01*
X197478167Y-109289215D01*
X197256238Y-109437503D01*
X197067503Y-109626238D01*
X196919215Y-109848167D01*
X196817072Y-110094761D01*
X196765000Y-110356544D01*
X196765000Y-110623456D01*
X196817072Y-110885239D01*
X196919215Y-111131833D01*
X197067503Y-111353762D01*
X197256238Y-111542497D01*
X197478167Y-111690785D01*
X197724761Y-111792928D01*
X197986544Y-111845000D01*
X198253456Y-111845000D01*
X198515239Y-111792928D01*
X198761833Y-111690785D01*
X198983762Y-111542497D01*
X199172497Y-111353762D01*
X199320785Y-111131833D01*
X199422928Y-110885239D01*
X199475000Y-110623456D01*
X199475000Y-110356544D01*
X199422928Y-110094761D01*
X199320785Y-109848167D01*
X199172497Y-109626238D01*
X198983762Y-109437503D01*
X198761833Y-109289215D01*
X198594734Y-109220000D01*
X198761833Y-109150785D01*
X198983762Y-109002497D01*
X199172497Y-108813762D01*
X199320785Y-108591833D01*
X199422928Y-108345239D01*
X199475000Y-108083456D01*
X199475000Y-107816544D01*
X199422928Y-107554761D01*
X199320785Y-107308167D01*
X199172497Y-107086238D01*
X198983762Y-106897503D01*
X198761833Y-106749215D01*
X198593676Y-106679562D01*
X198708353Y-106637875D01*
X198814068Y-106581368D01*
X198875955Y-106345560D01*
X198120000Y-105589605D01*
X197364045Y-106345560D01*
X197425932Y-106581368D01*
X197641007Y-106681764D01*
X197478167Y-106749215D01*
X197256238Y-106897503D01*
X197067503Y-107086238D01*
X196919215Y-107308167D01*
X196817072Y-107554761D01*
X196765000Y-107816544D01*
X181305000Y-107816544D01*
X181305000Y-107729872D01*
X181219110Y-107298075D01*
X181050631Y-106891331D01*
X180806038Y-106525271D01*
X180494729Y-106213962D01*
X180128669Y-105969369D01*
X179721925Y-105800890D01*
X179290128Y-105715000D01*
X178849872Y-105715000D01*
X178418075Y-105800890D01*
X178011331Y-105969369D01*
X177645271Y-106213962D01*
X177333962Y-106525271D01*
X177089369Y-106891331D01*
X176920890Y-107298075D01*
X176835000Y-107729872D01*
X164150572Y-107729872D01*
X164150572Y-106950000D01*
X164138312Y-106825518D01*
X164102002Y-106705820D01*
X164043037Y-106595506D01*
X163963685Y-106498815D01*
X163866994Y-106419463D01*
X163756680Y-106360498D01*
X163636982Y-106324188D01*
X163512500Y-106311928D01*
X161607500Y-106311928D01*
X161483018Y-106324188D01*
X161363320Y-106360498D01*
X161253006Y-106419463D01*
X161156315Y-106498815D01*
X161076963Y-106595506D01*
X161032095Y-106679446D01*
X160906235Y-106576155D01*
X160630449Y-106428745D01*
X160331204Y-106337970D01*
X160020000Y-106307319D01*
X159708797Y-106337970D01*
X159409552Y-106428745D01*
X159385000Y-106441868D01*
X159385000Y-105483680D01*
X196760439Y-105483680D01*
X196800937Y-105747501D01*
X196892125Y-105998353D01*
X196948632Y-106104068D01*
X197184440Y-106165955D01*
X197940395Y-105410000D01*
X198299605Y-105410000D01*
X199055560Y-106165955D01*
X199291368Y-106104068D01*
X199404266Y-105862210D01*
X199467811Y-105602973D01*
X199479561Y-105336320D01*
X199439063Y-105072499D01*
X199347875Y-104821647D01*
X199291368Y-104715932D01*
X199055560Y-104654045D01*
X198299605Y-105410000D01*
X197940395Y-105410000D01*
X197184440Y-104654045D01*
X196948632Y-104715932D01*
X196835734Y-104957790D01*
X196772189Y-105217027D01*
X196760439Y-105483680D01*
X159385000Y-105483680D01*
X159385000Y-105199075D01*
X160109635Y-104474440D01*
X197364045Y-104474440D01*
X198120000Y-105230395D01*
X198875955Y-104474440D01*
X198814068Y-104238632D01*
X198572210Y-104125734D01*
X198312973Y-104062189D01*
X198046320Y-104050439D01*
X197782499Y-104090937D01*
X197531647Y-104182125D01*
X197425932Y-104238632D01*
X197364045Y-104474440D01*
X160109635Y-104474440D01*
X169969077Y-94615000D01*
X194403582Y-94615000D01*
X194683445Y-94587436D01*
X195042539Y-94478506D01*
X195373482Y-94301613D01*
X195663556Y-94063556D01*
X195708437Y-94008868D01*
X195756614Y-94048405D01*
X195910150Y-94130472D01*
X196076746Y-94181008D01*
X196250000Y-94198072D01*
X197450000Y-94198072D01*
X197623254Y-94181008D01*
X197789850Y-94130472D01*
X197943386Y-94048405D01*
X198077962Y-93937962D01*
X198188405Y-93803386D01*
X198270472Y-93649850D01*
X198321008Y-93483254D01*
X198338072Y-93310000D01*
X198338072Y-92110000D01*
X198321008Y-91936746D01*
X198270472Y-91770150D01*
X198188405Y-91616614D01*
X198077962Y-91482038D01*
X197943386Y-91371595D01*
X197789850Y-91289528D01*
X197680707Y-91256420D01*
X197698792Y-91198397D01*
X196850000Y-90349605D01*
X196001208Y-91198397D01*
X196019293Y-91256420D01*
X195910150Y-91289528D01*
X195756614Y-91371595D01*
X195708437Y-91411132D01*
X195663556Y-91356444D01*
X195427051Y-91162349D01*
X195454504Y-91134896D01*
X195338399Y-91018791D01*
X195580000Y-90943486D01*
X195821603Y-91018792D01*
X196670395Y-90170000D01*
X197029605Y-90170000D01*
X197878397Y-91018792D01*
X198127472Y-90941157D01*
X198253371Y-90677117D01*
X198325339Y-90393589D01*
X198340611Y-90101469D01*
X198298599Y-89811981D01*
X198200919Y-89536253D01*
X198127472Y-89398843D01*
X197878397Y-89321208D01*
X197029605Y-90170000D01*
X196670395Y-90170000D01*
X195821603Y-89321208D01*
X195580000Y-89396514D01*
X195338397Y-89321208D01*
X194489605Y-90170000D01*
X194503748Y-90184143D01*
X194324143Y-90363748D01*
X194310000Y-90349605D01*
X194295858Y-90363748D01*
X194116253Y-90184143D01*
X194130395Y-90170000D01*
X193281603Y-89321208D01*
X193032528Y-89398843D01*
X192906629Y-89662883D01*
X192834661Y-89946411D01*
X192819389Y-90238531D01*
X192861401Y-90528019D01*
X192959081Y-90803747D01*
X192959751Y-90805000D01*
X169273580Y-90805000D01*
X169180000Y-90795783D01*
X169086420Y-90805000D01*
X169086418Y-90805000D01*
X168950277Y-90818409D01*
X170880686Y-88888000D01*
X175134501Y-88888000D01*
X175300551Y-88976755D01*
X175599796Y-89067530D01*
X175833014Y-89090500D01*
X176083986Y-89090500D01*
X176317204Y-89067530D01*
X176616449Y-88976755D01*
X176782499Y-88888000D01*
X180398971Y-88888000D01*
X180467000Y-88894700D01*
X180535029Y-88888000D01*
X180535037Y-88888000D01*
X180738507Y-88867960D01*
X180999581Y-88788764D01*
X181240188Y-88660157D01*
X181242332Y-88658397D01*
X193461208Y-88658397D01*
X193536514Y-88900000D01*
X193461208Y-89141603D01*
X194310000Y-89990395D01*
X195158792Y-89141603D01*
X195083486Y-88900000D01*
X195158792Y-88658397D01*
X196001208Y-88658397D01*
X196076514Y-88900000D01*
X196001208Y-89141603D01*
X196850000Y-89990395D01*
X197698792Y-89141603D01*
X197623486Y-88900000D01*
X197698792Y-88658397D01*
X196850000Y-87809605D01*
X196001208Y-88658397D01*
X195158792Y-88658397D01*
X194310000Y-87809605D01*
X193461208Y-88658397D01*
X181242332Y-88658397D01*
X181451081Y-88487081D01*
X181494454Y-88434231D01*
X182230154Y-87698531D01*
X192819389Y-87698531D01*
X192861401Y-87988019D01*
X192959081Y-88263747D01*
X193032528Y-88401157D01*
X193281603Y-88478792D01*
X194130395Y-87630000D01*
X194489605Y-87630000D01*
X195338397Y-88478792D01*
X195580000Y-88403486D01*
X195821603Y-88478792D01*
X196670395Y-87630000D01*
X197029605Y-87630000D01*
X197878397Y-88478792D01*
X198127472Y-88401157D01*
X198253371Y-88137117D01*
X198325339Y-87853589D01*
X198340611Y-87561469D01*
X198298599Y-87271981D01*
X198200919Y-86996253D01*
X198127472Y-86858843D01*
X197878397Y-86781208D01*
X197029605Y-87630000D01*
X196670395Y-87630000D01*
X195821603Y-86781208D01*
X195580000Y-86856514D01*
X195338397Y-86781208D01*
X194489605Y-87630000D01*
X194130395Y-87630000D01*
X193281603Y-86781208D01*
X193032528Y-86858843D01*
X192906629Y-87122883D01*
X192834661Y-87406411D01*
X192819389Y-87698531D01*
X182230154Y-87698531D01*
X183810288Y-86118397D01*
X193461208Y-86118397D01*
X193536514Y-86360000D01*
X193461208Y-86601603D01*
X194310000Y-87450395D01*
X195158792Y-86601603D01*
X195083486Y-86360000D01*
X195158792Y-86118397D01*
X196001208Y-86118397D01*
X196076514Y-86360000D01*
X196001208Y-86601603D01*
X196850000Y-87450395D01*
X197698792Y-86601603D01*
X197623486Y-86360000D01*
X197698792Y-86118397D01*
X196850000Y-85269605D01*
X196001208Y-86118397D01*
X195158792Y-86118397D01*
X194310000Y-85269605D01*
X193461208Y-86118397D01*
X183810288Y-86118397D01*
X184770154Y-85158531D01*
X192819389Y-85158531D01*
X192861401Y-85448019D01*
X192959081Y-85723747D01*
X193032528Y-85861157D01*
X193281603Y-85938792D01*
X194130395Y-85090000D01*
X194489605Y-85090000D01*
X195338397Y-85938792D01*
X195580000Y-85863486D01*
X195821603Y-85938792D01*
X196670395Y-85090000D01*
X197029605Y-85090000D01*
X197878397Y-85938792D01*
X198127472Y-85861157D01*
X198253371Y-85597117D01*
X198325339Y-85313589D01*
X198340611Y-85021469D01*
X198298599Y-84731981D01*
X198200919Y-84456253D01*
X198127472Y-84318843D01*
X197878397Y-84241208D01*
X197029605Y-85090000D01*
X196670395Y-85090000D01*
X195821603Y-84241208D01*
X195580000Y-84316514D01*
X195338397Y-84241208D01*
X194489605Y-85090000D01*
X194130395Y-85090000D01*
X193281603Y-84241208D01*
X193032528Y-84318843D01*
X192906629Y-84582883D01*
X192834661Y-84866411D01*
X192819389Y-85158531D01*
X184770154Y-85158531D01*
X188533686Y-81395000D01*
X193365650Y-81395000D01*
X193363368Y-81396525D01*
X193156525Y-81603368D01*
X192994010Y-81846589D01*
X192882068Y-82116842D01*
X192825000Y-82403740D01*
X192825000Y-82696260D01*
X192882068Y-82983158D01*
X192994010Y-83253411D01*
X193156525Y-83496632D01*
X193363368Y-83703475D01*
X193536729Y-83819311D01*
X193461208Y-84061603D01*
X194310000Y-84910395D01*
X195158792Y-84061603D01*
X195083271Y-83819311D01*
X195256632Y-83703475D01*
X195463475Y-83496632D01*
X195580000Y-83322240D01*
X195696525Y-83496632D01*
X195903368Y-83703475D01*
X196076729Y-83819311D01*
X196001208Y-84061603D01*
X196850000Y-84910395D01*
X197698792Y-84061603D01*
X197623271Y-83819311D01*
X197796632Y-83703475D01*
X198003475Y-83496632D01*
X198165990Y-83253411D01*
X198277932Y-82983158D01*
X198335000Y-82696260D01*
X198335000Y-82403740D01*
X198277932Y-82116842D01*
X198165990Y-81846589D01*
X198003475Y-81603368D01*
X197796632Y-81396525D01*
X197622240Y-81280000D01*
X197796632Y-81163475D01*
X198003475Y-80956632D01*
X198165990Y-80713411D01*
X198277932Y-80443158D01*
X198335000Y-80156260D01*
X198335000Y-79863740D01*
X198277932Y-79576842D01*
X198165990Y-79306589D01*
X198003475Y-79063368D01*
X197796632Y-78856525D01*
X197622240Y-78740000D01*
X197796632Y-78623475D01*
X198003475Y-78416632D01*
X198165990Y-78173411D01*
X198277932Y-77903158D01*
X198335000Y-77616260D01*
X198335000Y-77323740D01*
X198277932Y-77036842D01*
X198165990Y-76766589D01*
X198003475Y-76523368D01*
X197796632Y-76316525D01*
X197622240Y-76200000D01*
X197796632Y-76083475D01*
X198003475Y-75876632D01*
X198165990Y-75633411D01*
X198277932Y-75363158D01*
X198335000Y-75076260D01*
X198335000Y-74783740D01*
X198277932Y-74496842D01*
X198165990Y-74226589D01*
X198003475Y-73983368D01*
X197796632Y-73776525D01*
X197553411Y-73614010D01*
X197283158Y-73502068D01*
X196996260Y-73445000D01*
X196703740Y-73445000D01*
X196416842Y-73502068D01*
X196146589Y-73614010D01*
X195903368Y-73776525D01*
X195696525Y-73983368D01*
X195580000Y-74157760D01*
X195463475Y-73983368D01*
X195256632Y-73776525D01*
X195013411Y-73614010D01*
X194743158Y-73502068D01*
X194456260Y-73445000D01*
X194163740Y-73445000D01*
X193876842Y-73502068D01*
X193606589Y-73614010D01*
X193363368Y-73776525D01*
X193156525Y-73983368D01*
X192994010Y-74226589D01*
X192882068Y-74496842D01*
X192825000Y-74783740D01*
X192825000Y-75076260D01*
X192882068Y-75363158D01*
X192994010Y-75633411D01*
X193156525Y-75876632D01*
X193363368Y-76083475D01*
X193537760Y-76200000D01*
X193363368Y-76316525D01*
X193156525Y-76523368D01*
X192994010Y-76766589D01*
X192882068Y-77036842D01*
X192825000Y-77323740D01*
X192825000Y-77616260D01*
X192882068Y-77903158D01*
X192994010Y-78173411D01*
X193156525Y-78416632D01*
X193363368Y-78623475D01*
X193365650Y-78625000D01*
X188028026Y-78625000D01*
X187959999Y-78618300D01*
X187891972Y-78625000D01*
X187891963Y-78625000D01*
X187688493Y-78645040D01*
X187427419Y-78724236D01*
X187186812Y-78852843D01*
X187165906Y-78870000D01*
X187028766Y-78982548D01*
X187028764Y-78982550D01*
X186975919Y-79025919D01*
X186932550Y-79078764D01*
X179893315Y-86118000D01*
X177085511Y-86118000D01*
X177139815Y-86072437D01*
X177334469Y-85829923D01*
X177478071Y-85554094D01*
X177549063Y-85335980D01*
X177429094Y-85090000D01*
X176085500Y-85090000D01*
X176085500Y-85110000D01*
X175831500Y-85110000D01*
X175831500Y-85090000D01*
X174487906Y-85090000D01*
X174367937Y-85335980D01*
X174438929Y-85554094D01*
X174582531Y-85829923D01*
X174777185Y-86072437D01*
X174831489Y-86118000D01*
X170375026Y-86118000D01*
X170306999Y-86111300D01*
X170238972Y-86118000D01*
X170238963Y-86118000D01*
X170035493Y-86138040D01*
X169774419Y-86217236D01*
X169533812Y-86345843D01*
X169518609Y-86358320D01*
X169375766Y-86475548D01*
X169375764Y-86475550D01*
X169322919Y-86518919D01*
X169279550Y-86571764D01*
X164698163Y-91153152D01*
X164688787Y-91089870D01*
X164593603Y-90823708D01*
X164526671Y-90698486D01*
X164282702Y-90626903D01*
X163469605Y-91440000D01*
X163483748Y-91454143D01*
X163304143Y-91633748D01*
X163290000Y-91619605D01*
X163275858Y-91633748D01*
X163096253Y-91454143D01*
X163110395Y-91440000D01*
X163096253Y-91425858D01*
X163275858Y-91246253D01*
X163290000Y-91260395D01*
X164103097Y-90447298D01*
X164031514Y-90203329D01*
X163776004Y-90082429D01*
X163501816Y-90013700D01*
X163219488Y-89999783D01*
X162939870Y-90041213D01*
X162673708Y-90136397D01*
X162551691Y-90201616D01*
X162541185Y-90188815D01*
X162444494Y-90109463D01*
X162334180Y-90050498D01*
X162214482Y-90014188D01*
X162090000Y-90001928D01*
X160490000Y-90001928D01*
X160365518Y-90014188D01*
X160245820Y-90050498D01*
X160135506Y-90109463D01*
X160038815Y-90188815D01*
X159959463Y-90285506D01*
X159900498Y-90395820D01*
X159864188Y-90515518D01*
X159851928Y-90640000D01*
X159851928Y-92240000D01*
X159864188Y-92364482D01*
X159900498Y-92484180D01*
X159905000Y-92492603D01*
X159905000Y-92641971D01*
X159898300Y-92710000D01*
X159905000Y-92778029D01*
X159905000Y-92778037D01*
X159925040Y-92981507D01*
X160004236Y-93242581D01*
X160132844Y-93483188D01*
X160262548Y-93641233D01*
X160262549Y-93641234D01*
X160305920Y-93694081D01*
X160358764Y-93737449D01*
X161532550Y-94911236D01*
X161575919Y-94964081D01*
X161628764Y-95007450D01*
X161628766Y-95007452D01*
X161741099Y-95099641D01*
X161786812Y-95137157D01*
X162027419Y-95265764D01*
X162288493Y-95344960D01*
X162491963Y-95365000D01*
X162491972Y-95365000D01*
X162559999Y-95371700D01*
X162628026Y-95365000D01*
X163761971Y-95365000D01*
X163824742Y-95371182D01*
X156199145Y-102996780D01*
X156126444Y-103056444D01*
X155888387Y-103346518D01*
X155777691Y-103553615D01*
X154345000Y-102120925D01*
X154345000Y-92876847D01*
X154654250Y-92875000D01*
X154813000Y-92716250D01*
X154813000Y-91567000D01*
X155067000Y-91567000D01*
X155067000Y-92716250D01*
X155225750Y-92875000D01*
X155740000Y-92878072D01*
X155864482Y-92865812D01*
X155984180Y-92829502D01*
X156094494Y-92770537D01*
X156191185Y-92691185D01*
X156270537Y-92594494D01*
X156329502Y-92484180D01*
X156365812Y-92364482D01*
X156378072Y-92240000D01*
X156375000Y-91725750D01*
X156216250Y-91567000D01*
X155067000Y-91567000D01*
X154813000Y-91567000D01*
X154793000Y-91567000D01*
X154793000Y-91313000D01*
X154813000Y-91313000D01*
X154813000Y-90163750D01*
X155067000Y-90163750D01*
X155067000Y-91313000D01*
X156216250Y-91313000D01*
X156375000Y-91154250D01*
X156378072Y-90640000D01*
X156365812Y-90515518D01*
X156329502Y-90395820D01*
X156270537Y-90285506D01*
X156191185Y-90188815D01*
X156094494Y-90109463D01*
X155984180Y-90050498D01*
X155864482Y-90014188D01*
X155740000Y-90001928D01*
X155225750Y-90005000D01*
X155067000Y-90163750D01*
X154813000Y-90163750D01*
X154654250Y-90005000D01*
X154140000Y-90001928D01*
X154015518Y-90014188D01*
X153895820Y-90050498D01*
X153804232Y-90099453D01*
X153793556Y-90086444D01*
X153720865Y-90026788D01*
X152213220Y-88519145D01*
X152153557Y-88446445D01*
X151863483Y-88208388D01*
X151532540Y-88031495D01*
X151173446Y-87922565D01*
X150893583Y-87895001D01*
X150893581Y-87895001D01*
X150800001Y-87885784D01*
X150706421Y-87895001D01*
X147358442Y-87895001D01*
X147385000Y-87761486D01*
X147385000Y-87498514D01*
X147333696Y-87240595D01*
X147233061Y-86997641D01*
X147086962Y-86778987D01*
X147032975Y-86725000D01*
X161209681Y-86725000D01*
X161290000Y-86732911D01*
X161370319Y-86725000D01*
X161370322Y-86725000D01*
X161610516Y-86701343D01*
X161918715Y-86607852D01*
X162202752Y-86456031D01*
X162451714Y-86251714D01*
X162502925Y-86189313D01*
X164929320Y-83762919D01*
X164991714Y-83711714D01*
X165196031Y-83462752D01*
X165347852Y-83178715D01*
X165441343Y-82870516D01*
X165465000Y-82630322D01*
X165465000Y-82630320D01*
X165472911Y-82550001D01*
X165465000Y-82469681D01*
X165465000Y-78659678D01*
X165441343Y-78419484D01*
X165347852Y-78111285D01*
X165268072Y-77962027D01*
X165268072Y-77940000D01*
X165255812Y-77815518D01*
X165219502Y-77695820D01*
X165160537Y-77585506D01*
X165081185Y-77488815D01*
X164984494Y-77409463D01*
X164874180Y-77350498D01*
X164754482Y-77314188D01*
X164630000Y-77301928D01*
X164607973Y-77301928D01*
X164458715Y-77222148D01*
X164150516Y-77128657D01*
X163830000Y-77097089D01*
X163509485Y-77128657D01*
X163201286Y-77222148D01*
X163052028Y-77301928D01*
X163030000Y-77301928D01*
X162905518Y-77314188D01*
X162785820Y-77350498D01*
X162675506Y-77409463D01*
X162578815Y-77488815D01*
X162568193Y-77501758D01*
X162316004Y-77382429D01*
X162041816Y-77313700D01*
X161759488Y-77299783D01*
X161479870Y-77341213D01*
X161213708Y-77436397D01*
X161088486Y-77503329D01*
X161016903Y-77747298D01*
X161830000Y-78560395D01*
X161844143Y-78546253D01*
X162023748Y-78725858D01*
X162009605Y-78740000D01*
X162023748Y-78754143D01*
X161844143Y-78933748D01*
X161830000Y-78919605D01*
X161016903Y-79732702D01*
X161088486Y-79976671D01*
X161343996Y-80097571D01*
X161618184Y-80166300D01*
X161900512Y-80180217D01*
X162180130Y-80138787D01*
X162195001Y-80133469D01*
X162195000Y-81872761D01*
X160612762Y-83455000D01*
X160135000Y-83455000D01*
X160135000Y-78810512D01*
X160389783Y-78810512D01*
X160431213Y-79090130D01*
X160526397Y-79356292D01*
X160593329Y-79481514D01*
X160837298Y-79553097D01*
X161650395Y-78740000D01*
X160837298Y-77926903D01*
X160593329Y-77998486D01*
X160472429Y-78253996D01*
X160403700Y-78528184D01*
X160389783Y-78810512D01*
X160135000Y-78810512D01*
X160135000Y-76773685D01*
X163133686Y-73775000D01*
X165351815Y-73775000D01*
X174320428Y-82743614D01*
X174320428Y-83375500D01*
X174332688Y-83499982D01*
X174368998Y-83619680D01*
X174427963Y-83729994D01*
X174507315Y-83826685D01*
X174604006Y-83906037D01*
X174695719Y-83955059D01*
X174582531Y-84096077D01*
X174438929Y-84371906D01*
X174367937Y-84590020D01*
X174487906Y-84836000D01*
X175831500Y-84836000D01*
X175831500Y-84816000D01*
X176085500Y-84816000D01*
X176085500Y-84836000D01*
X177429094Y-84836000D01*
X177549063Y-84590020D01*
X177478071Y-84371906D01*
X177334469Y-84096077D01*
X177221281Y-83955059D01*
X177312994Y-83906037D01*
X177409685Y-83826685D01*
X177489037Y-83729994D01*
X177548002Y-83619680D01*
X177584312Y-83499982D01*
X177596572Y-83375500D01*
X177596572Y-81470500D01*
X177584312Y-81346018D01*
X177548002Y-81226320D01*
X177489037Y-81116006D01*
X177409685Y-81019315D01*
X177312994Y-80939963D01*
X177202680Y-80880998D01*
X177082982Y-80844688D01*
X176958500Y-80832428D01*
X176326614Y-80832428D01*
X166952954Y-71458769D01*
X166909581Y-71405919D01*
X166698688Y-71232843D01*
X166458081Y-71104236D01*
X166197007Y-71025040D01*
X165993537Y-71005000D01*
X165993529Y-71005000D01*
X165925500Y-70998300D01*
X165857471Y-71005000D01*
X162628029Y-71005000D01*
X162560000Y-70998300D01*
X162491971Y-71005000D01*
X162491963Y-71005000D01*
X162288493Y-71025040D01*
X162027419Y-71104236D01*
X161786812Y-71232843D01*
X161628766Y-71362548D01*
X161628764Y-71362550D01*
X161575919Y-71405919D01*
X161532550Y-71458764D01*
X157818765Y-75172550D01*
X157765919Y-75215920D01*
X157592843Y-75426813D01*
X157523907Y-75555783D01*
X157464236Y-75667420D01*
X157412126Y-75839205D01*
X157385040Y-75928494D01*
X157365000Y-76131964D01*
X157365000Y-76131971D01*
X157358300Y-76200000D01*
X157365000Y-76268029D01*
X157365001Y-83455000D01*
X147032975Y-83455000D01*
X147086962Y-83401013D01*
X147233061Y-83182359D01*
X147333696Y-82939405D01*
X147385000Y-82681486D01*
X147385000Y-82418514D01*
X147333696Y-82160595D01*
X147233061Y-81917641D01*
X147086962Y-81698987D01*
X146901013Y-81513038D01*
X146682359Y-81366939D01*
X146439405Y-81266304D01*
X146181486Y-81215000D01*
X145918514Y-81215000D01*
X145660595Y-81266304D01*
X145417641Y-81366939D01*
X145198987Y-81513038D01*
X145013038Y-81698987D01*
X144866939Y-81917641D01*
X144766304Y-82160595D01*
X144715000Y-82418514D01*
X144715000Y-82681486D01*
X144766304Y-82939405D01*
X144866939Y-83182359D01*
X145013038Y-83401013D01*
X145067025Y-83455000D01*
X141952975Y-83455000D01*
X142006962Y-83401013D01*
X142153061Y-83182359D01*
X142253696Y-82939405D01*
X142305000Y-82681486D01*
X142305000Y-82418514D01*
X142253696Y-82160595D01*
X142153061Y-81917641D01*
X142006962Y-81698987D01*
X141821013Y-81513038D01*
X141602359Y-81366939D01*
X141359405Y-81266304D01*
X141101486Y-81215000D01*
X140838514Y-81215000D01*
X140580595Y-81266304D01*
X140337641Y-81366939D01*
X140118987Y-81513038D01*
X139933038Y-81698987D01*
X139786939Y-81917641D01*
X139686304Y-82160595D01*
X139635000Y-82418514D01*
X139635000Y-82681486D01*
X139686304Y-82939405D01*
X139786939Y-83182359D01*
X139933038Y-83401013D01*
X139987025Y-83455000D01*
X136567239Y-83455000D01*
X135255000Y-82142762D01*
X135255000Y-81512209D01*
X135264217Y-81418629D01*
X135252116Y-81295764D01*
X135227436Y-81045185D01*
X135118506Y-80686091D01*
X135027056Y-80515000D01*
X134941613Y-80355147D01*
X134778390Y-80156260D01*
X134703556Y-80065074D01*
X134630866Y-80005419D01*
X131963960Y-77338514D01*
X139635000Y-77338514D01*
X139635000Y-77601486D01*
X139686304Y-77859405D01*
X139786939Y-78102359D01*
X139933038Y-78321013D01*
X140118987Y-78506962D01*
X140337641Y-78653061D01*
X140580595Y-78753696D01*
X140838514Y-78805000D01*
X141101486Y-78805000D01*
X141359405Y-78753696D01*
X141602359Y-78653061D01*
X141821013Y-78506962D01*
X142006962Y-78321013D01*
X142153061Y-78102359D01*
X142253696Y-77859405D01*
X142305000Y-77601486D01*
X142305000Y-77338514D01*
X144715000Y-77338514D01*
X144715000Y-77601486D01*
X144766304Y-77859405D01*
X144866939Y-78102359D01*
X145013038Y-78321013D01*
X145198987Y-78506962D01*
X145417641Y-78653061D01*
X145660595Y-78753696D01*
X145918514Y-78805000D01*
X146181486Y-78805000D01*
X146439405Y-78753696D01*
X146682359Y-78653061D01*
X146901013Y-78506962D01*
X147086962Y-78321013D01*
X147233061Y-78102359D01*
X147300312Y-77940000D01*
X150961928Y-77940000D01*
X150961928Y-79540000D01*
X150974188Y-79664482D01*
X151010498Y-79784180D01*
X151069463Y-79894494D01*
X151148815Y-79991185D01*
X151245506Y-80070537D01*
X151355820Y-80129502D01*
X151475518Y-80165812D01*
X151600000Y-80178072D01*
X153200000Y-80178072D01*
X153324482Y-80165812D01*
X153444180Y-80129502D01*
X153554494Y-80070537D01*
X153651185Y-79991185D01*
X153730537Y-79894494D01*
X153789502Y-79784180D01*
X153805117Y-79732702D01*
X154086903Y-79732702D01*
X154158486Y-79976671D01*
X154413996Y-80097571D01*
X154688184Y-80166300D01*
X154970512Y-80180217D01*
X155250130Y-80138787D01*
X155516292Y-80043603D01*
X155641514Y-79976671D01*
X155713097Y-79732702D01*
X154900000Y-78919605D01*
X154086903Y-79732702D01*
X153805117Y-79732702D01*
X153825812Y-79664482D01*
X153838072Y-79540000D01*
X153838072Y-79532785D01*
X153907298Y-79553097D01*
X154720395Y-78740000D01*
X155079605Y-78740000D01*
X155892702Y-79553097D01*
X156136671Y-79481514D01*
X156257571Y-79226004D01*
X156326300Y-78951816D01*
X156340217Y-78669488D01*
X156298787Y-78389870D01*
X156203603Y-78123708D01*
X156136671Y-77998486D01*
X155892702Y-77926903D01*
X155079605Y-78740000D01*
X154720395Y-78740000D01*
X153907298Y-77926903D01*
X153838072Y-77947215D01*
X153838072Y-77940000D01*
X153825812Y-77815518D01*
X153805118Y-77747298D01*
X154086903Y-77747298D01*
X154900000Y-78560395D01*
X155713097Y-77747298D01*
X155641514Y-77503329D01*
X155386004Y-77382429D01*
X155111816Y-77313700D01*
X154829488Y-77299783D01*
X154549870Y-77341213D01*
X154283708Y-77436397D01*
X154158486Y-77503329D01*
X154086903Y-77747298D01*
X153805118Y-77747298D01*
X153789502Y-77695820D01*
X153730537Y-77585506D01*
X153651185Y-77488815D01*
X153554494Y-77409463D01*
X153444180Y-77350498D01*
X153324482Y-77314188D01*
X153200000Y-77301928D01*
X151600000Y-77301928D01*
X151475518Y-77314188D01*
X151355820Y-77350498D01*
X151245506Y-77409463D01*
X151148815Y-77488815D01*
X151069463Y-77585506D01*
X151010498Y-77695820D01*
X150974188Y-77815518D01*
X150961928Y-77940000D01*
X147300312Y-77940000D01*
X147333696Y-77859405D01*
X147385000Y-77601486D01*
X147385000Y-77338514D01*
X147333696Y-77080595D01*
X147233061Y-76837641D01*
X147086962Y-76618987D01*
X146901013Y-76433038D01*
X146682359Y-76286939D01*
X146439405Y-76186304D01*
X146181486Y-76135000D01*
X145918514Y-76135000D01*
X145660595Y-76186304D01*
X145417641Y-76286939D01*
X145198987Y-76433038D01*
X145013038Y-76618987D01*
X144866939Y-76837641D01*
X144766304Y-77080595D01*
X144715000Y-77338514D01*
X142305000Y-77338514D01*
X142253696Y-77080595D01*
X142153061Y-76837641D01*
X142006962Y-76618987D01*
X141821013Y-76433038D01*
X141602359Y-76286939D01*
X141359405Y-76186304D01*
X141101486Y-76135000D01*
X140838514Y-76135000D01*
X140580595Y-76186304D01*
X140337641Y-76286939D01*
X140118987Y-76433038D01*
X139933038Y-76618987D01*
X139786939Y-76837641D01*
X139686304Y-77080595D01*
X139635000Y-77338514D01*
X131963960Y-77338514D01*
X130814590Y-76189145D01*
X130754926Y-76116444D01*
X130464852Y-75878387D01*
X130133909Y-75701494D01*
X129774815Y-75592564D01*
X129494952Y-75565000D01*
X129494950Y-75565000D01*
X129401370Y-75555783D01*
X129307790Y-75565000D01*
X119286418Y-75565000D01*
X119006555Y-75592564D01*
X118876789Y-75631928D01*
X118180000Y-75631928D01*
X118055518Y-75644188D01*
X117935820Y-75680498D01*
X117825506Y-75739463D01*
X117728815Y-75818815D01*
X117649463Y-75915506D01*
X117590498Y-76025820D01*
X117554188Y-76145518D01*
X117541928Y-76270000D01*
X117541928Y-76966789D01*
X117502564Y-77096555D01*
X117465783Y-77470000D01*
X100484075Y-77470000D01*
X104150860Y-73803216D01*
X104223556Y-73743556D01*
X104458924Y-73456759D01*
X104461613Y-73453483D01*
X104575180Y-73241013D01*
X104638506Y-73122539D01*
X104747436Y-72763445D01*
X104775000Y-72483582D01*
X104775000Y-72483580D01*
X104784217Y-72390000D01*
X104775000Y-72296420D01*
X104775000Y-71247980D01*
X118281626Y-71247980D01*
X118401514Y-71532836D01*
X118725210Y-71693699D01*
X119074069Y-71788322D01*
X119434684Y-71813067D01*
X119793198Y-71766985D01*
X120135833Y-71651846D01*
X120358486Y-71532836D01*
X120478374Y-71247980D01*
X119380000Y-70149605D01*
X118281626Y-71247980D01*
X104775000Y-71247980D01*
X104775000Y-70024684D01*
X117536933Y-70024684D01*
X117583015Y-70383198D01*
X117698154Y-70725833D01*
X117817164Y-70948486D01*
X118102020Y-71068374D01*
X119200395Y-69970000D01*
X119559605Y-69970000D01*
X120657980Y-71068374D01*
X120941336Y-70949117D01*
X130345000Y-70949117D01*
X130345000Y-71290883D01*
X130411675Y-71626081D01*
X130542463Y-71941831D01*
X130732337Y-72225998D01*
X130974002Y-72467663D01*
X131258169Y-72657537D01*
X131573919Y-72788325D01*
X131909117Y-72855000D01*
X132250883Y-72855000D01*
X132586081Y-72788325D01*
X132742995Y-72723329D01*
X139677284Y-72723329D01*
X139709953Y-72831044D01*
X139820208Y-73068392D01*
X139974649Y-73279670D01*
X140167340Y-73456759D01*
X140390877Y-73592853D01*
X140636670Y-73682722D01*
X140843000Y-73560201D01*
X140843000Y-72517000D01*
X141097000Y-72517000D01*
X141097000Y-73560201D01*
X141303330Y-73682722D01*
X141549123Y-73592853D01*
X141772660Y-73456759D01*
X141965351Y-73279670D01*
X142119792Y-73068392D01*
X142230047Y-72831044D01*
X142262716Y-72723329D01*
X142139374Y-72517000D01*
X141097000Y-72517000D01*
X140843000Y-72517000D01*
X139800626Y-72517000D01*
X139677284Y-72723329D01*
X132742995Y-72723329D01*
X132901831Y-72657537D01*
X133185998Y-72467663D01*
X133427663Y-72225998D01*
X133540803Y-72056671D01*
X139677284Y-72056671D01*
X139800626Y-72263000D01*
X140843000Y-72263000D01*
X140843000Y-71219799D01*
X141097000Y-71219799D01*
X141097000Y-72263000D01*
X142139374Y-72263000D01*
X142142055Y-72258514D01*
X144715000Y-72258514D01*
X144715000Y-72521486D01*
X144766304Y-72779405D01*
X144866939Y-73022359D01*
X145013038Y-73241013D01*
X145198987Y-73426962D01*
X145417641Y-73573061D01*
X145660595Y-73673696D01*
X145918514Y-73725000D01*
X146181486Y-73725000D01*
X146439405Y-73673696D01*
X146682359Y-73573061D01*
X146901013Y-73426962D01*
X147086962Y-73241013D01*
X147233061Y-73022359D01*
X147333696Y-72779405D01*
X147385000Y-72521486D01*
X147385000Y-72258514D01*
X147333696Y-72000595D01*
X147233061Y-71757641D01*
X147086962Y-71538987D01*
X146901013Y-71353038D01*
X146682359Y-71206939D01*
X146439405Y-71106304D01*
X146181486Y-71055000D01*
X145918514Y-71055000D01*
X145660595Y-71106304D01*
X145417641Y-71206939D01*
X145198987Y-71353038D01*
X145013038Y-71538987D01*
X144866939Y-71757641D01*
X144766304Y-72000595D01*
X144715000Y-72258514D01*
X142142055Y-72258514D01*
X142262716Y-72056671D01*
X142230047Y-71948956D01*
X142119792Y-71711608D01*
X141965351Y-71500330D01*
X141772660Y-71323241D01*
X141549123Y-71187147D01*
X141303330Y-71097278D01*
X141097000Y-71219799D01*
X140843000Y-71219799D01*
X140636670Y-71097278D01*
X140390877Y-71187147D01*
X140167340Y-71323241D01*
X139974649Y-71500330D01*
X139820208Y-71711608D01*
X139709953Y-71948956D01*
X139677284Y-72056671D01*
X133540803Y-72056671D01*
X133617537Y-71941831D01*
X133748325Y-71626081D01*
X133815000Y-71290883D01*
X133815000Y-70949117D01*
X133748325Y-70613919D01*
X133617537Y-70298169D01*
X133427663Y-70014002D01*
X133185998Y-69772337D01*
X132901831Y-69582463D01*
X132586081Y-69451675D01*
X132250883Y-69385000D01*
X131909117Y-69385000D01*
X131573919Y-69451675D01*
X131258169Y-69582463D01*
X130974002Y-69772337D01*
X130732337Y-70014002D01*
X130542463Y-70298169D01*
X130411675Y-70613919D01*
X130345000Y-70949117D01*
X120941336Y-70949117D01*
X120942836Y-70948486D01*
X121103699Y-70624790D01*
X121198322Y-70275931D01*
X121223067Y-69915316D01*
X121176985Y-69556802D01*
X121061846Y-69214167D01*
X120942836Y-68991514D01*
X120657980Y-68871626D01*
X119559605Y-69970000D01*
X119200395Y-69970000D01*
X118102020Y-68871626D01*
X117817164Y-68991514D01*
X117656301Y-69315210D01*
X117561678Y-69664069D01*
X117536933Y-70024684D01*
X104775000Y-70024684D01*
X104775000Y-68692020D01*
X118281626Y-68692020D01*
X119380000Y-69790395D01*
X120478374Y-68692020D01*
X120358486Y-68407164D01*
X120034790Y-68246301D01*
X119685931Y-68151678D01*
X119325316Y-68126933D01*
X118966802Y-68173015D01*
X118624167Y-68288154D01*
X118401514Y-68407164D01*
X118281626Y-68692020D01*
X104775000Y-68692020D01*
X104775000Y-63970000D01*
X140801928Y-63970000D01*
X140801928Y-65570000D01*
X140814188Y-65694482D01*
X140850498Y-65814180D01*
X140909463Y-65924494D01*
X140988815Y-66021185D01*
X141085506Y-66100537D01*
X141195820Y-66159502D01*
X141315518Y-66195812D01*
X141440000Y-66208072D01*
X143040000Y-66208072D01*
X143164482Y-66195812D01*
X143284180Y-66159502D01*
X143394494Y-66100537D01*
X143491185Y-66021185D01*
X143501807Y-66008242D01*
X143753996Y-66127571D01*
X144028184Y-66196300D01*
X144310512Y-66210217D01*
X144590130Y-66168787D01*
X144856292Y-66073603D01*
X144981514Y-66006671D01*
X145053097Y-65762702D01*
X144240000Y-64949605D01*
X144225858Y-64963748D01*
X144046253Y-64784143D01*
X144060395Y-64770000D01*
X144046253Y-64755858D01*
X144225858Y-64576253D01*
X144240000Y-64590395D01*
X144254143Y-64576253D01*
X144433748Y-64755858D01*
X144419605Y-64770000D01*
X145232702Y-65583097D01*
X145476671Y-65511514D01*
X145597571Y-65256004D01*
X145666300Y-64981816D01*
X145680217Y-64699488D01*
X145638787Y-64419870D01*
X145578039Y-64250000D01*
X155889428Y-64250000D01*
X155889428Y-64500000D01*
X155901688Y-64624482D01*
X155937998Y-64744180D01*
X155996963Y-64854494D01*
X156076315Y-64951185D01*
X156173006Y-65030537D01*
X156283320Y-65089502D01*
X156403018Y-65125812D01*
X156527500Y-65138072D01*
X158432500Y-65138072D01*
X158556982Y-65125812D01*
X158676680Y-65089502D01*
X158786994Y-65030537D01*
X158883685Y-64951185D01*
X158963037Y-64854494D01*
X159007905Y-64770553D01*
X159133766Y-64873845D01*
X159409552Y-65021255D01*
X159708797Y-65112030D01*
X160020000Y-65142681D01*
X160331204Y-65112030D01*
X160630449Y-65021255D01*
X160906235Y-64873845D01*
X161147963Y-64675463D01*
X161290000Y-64502391D01*
X161432037Y-64675463D01*
X161673766Y-64873845D01*
X161949552Y-65021255D01*
X162248797Y-65112030D01*
X162560000Y-65142681D01*
X162871204Y-65112030D01*
X163170449Y-65021255D01*
X163446235Y-64873845D01*
X163687963Y-64675463D01*
X163886345Y-64433734D01*
X164033755Y-64157948D01*
X164124530Y-63858703D01*
X164147500Y-63625485D01*
X164147500Y-63374514D01*
X164126920Y-63165560D01*
X197364045Y-63165560D01*
X197425932Y-63401368D01*
X197667790Y-63514266D01*
X197927027Y-63577811D01*
X198193680Y-63589561D01*
X198457501Y-63549063D01*
X198708353Y-63457875D01*
X198814068Y-63401368D01*
X198875955Y-63165560D01*
X198120000Y-62409605D01*
X197364045Y-63165560D01*
X164126920Y-63165560D01*
X164124530Y-63141296D01*
X164033755Y-62842051D01*
X163886345Y-62566265D01*
X163687963Y-62324537D01*
X163662549Y-62303680D01*
X196760439Y-62303680D01*
X196800937Y-62567501D01*
X196892125Y-62818353D01*
X196948632Y-62924068D01*
X197184440Y-62985955D01*
X197940395Y-62230000D01*
X198299605Y-62230000D01*
X199055560Y-62985955D01*
X199291368Y-62924068D01*
X199404266Y-62682210D01*
X199467811Y-62422973D01*
X199479561Y-62156320D01*
X199439063Y-61892499D01*
X199347875Y-61641647D01*
X199291368Y-61535932D01*
X199055560Y-61474045D01*
X198299605Y-62230000D01*
X197940395Y-62230000D01*
X197184440Y-61474045D01*
X196948632Y-61535932D01*
X196835734Y-61777790D01*
X196772189Y-62037027D01*
X196760439Y-62303680D01*
X163662549Y-62303680D01*
X163446234Y-62126155D01*
X163170448Y-61978745D01*
X162871203Y-61887970D01*
X162560000Y-61857319D01*
X162248796Y-61887970D01*
X161949551Y-61978745D01*
X161673765Y-62126155D01*
X161432037Y-62324537D01*
X161290000Y-62497609D01*
X161147963Y-62324537D01*
X160906234Y-62126155D01*
X160630448Y-61978745D01*
X160331203Y-61887970D01*
X160020000Y-61857319D01*
X159708796Y-61887970D01*
X159409551Y-61978745D01*
X159133765Y-62126155D01*
X159007905Y-62229446D01*
X158963037Y-62145506D01*
X158883685Y-62048815D01*
X158786994Y-61969463D01*
X158676680Y-61910498D01*
X158556982Y-61874188D01*
X158432500Y-61861928D01*
X157805940Y-61861928D01*
X157618188Y-61707843D01*
X157377581Y-61579236D01*
X157116507Y-61500040D01*
X156913037Y-61480000D01*
X156913029Y-61480000D01*
X156845000Y-61473300D01*
X156776971Y-61480000D01*
X142308037Y-61480000D01*
X142240000Y-61473299D01*
X142171964Y-61480000D01*
X142171963Y-61480000D01*
X141968493Y-61500040D01*
X141707419Y-61579236D01*
X141466812Y-61707843D01*
X141255919Y-61880919D01*
X141082843Y-62091812D01*
X140954236Y-62332419D01*
X140875040Y-62593493D01*
X140848299Y-62865000D01*
X140855001Y-62933046D01*
X140855001Y-63717396D01*
X140850498Y-63725820D01*
X140814188Y-63845518D01*
X140801928Y-63970000D01*
X104775000Y-63970000D01*
X104775000Y-60866418D01*
X104767387Y-60789117D01*
X111295000Y-60789117D01*
X111295000Y-61130883D01*
X111361675Y-61466081D01*
X111492463Y-61781831D01*
X111682337Y-62065998D01*
X111924002Y-62307663D01*
X112208169Y-62497537D01*
X112523919Y-62628325D01*
X112859117Y-62695000D01*
X113200883Y-62695000D01*
X113536081Y-62628325D01*
X113851831Y-62497537D01*
X114135998Y-62307663D01*
X114377663Y-62065998D01*
X114567537Y-61781831D01*
X114698325Y-61466081D01*
X114765000Y-61130883D01*
X114765000Y-60789117D01*
X114698325Y-60453919D01*
X114567537Y-60138169D01*
X114381671Y-59860000D01*
X130341928Y-59860000D01*
X130341928Y-62060000D01*
X130354188Y-62184482D01*
X130390498Y-62304180D01*
X130449463Y-62414494D01*
X130528815Y-62511185D01*
X130625506Y-62590537D01*
X130735820Y-62649502D01*
X130855518Y-62685812D01*
X130980000Y-62698072D01*
X133180000Y-62698072D01*
X133304482Y-62685812D01*
X133424180Y-62649502D01*
X133534494Y-62590537D01*
X133631185Y-62511185D01*
X133710537Y-62414494D01*
X133769502Y-62304180D01*
X133805812Y-62184482D01*
X133818072Y-62060000D01*
X133818072Y-59860000D01*
X133805812Y-59735518D01*
X133769502Y-59615820D01*
X133710537Y-59505506D01*
X133681294Y-59469872D01*
X176835000Y-59469872D01*
X176835000Y-59910128D01*
X176920890Y-60341925D01*
X177089369Y-60748669D01*
X177333962Y-61114729D01*
X177645271Y-61426038D01*
X178011331Y-61670631D01*
X178418075Y-61839110D01*
X178849872Y-61925000D01*
X179290128Y-61925000D01*
X179721925Y-61839110D01*
X180128669Y-61670631D01*
X180494729Y-61426038D01*
X180806038Y-61114729D01*
X181050631Y-60748669D01*
X181219110Y-60341925D01*
X181305000Y-59910128D01*
X181305000Y-59469872D01*
X181219110Y-59038075D01*
X181050631Y-58631331D01*
X180806038Y-58265271D01*
X180494729Y-57953962D01*
X180128669Y-57709369D01*
X179721925Y-57540890D01*
X179290128Y-57455000D01*
X178849872Y-57455000D01*
X178418075Y-57540890D01*
X178011331Y-57709369D01*
X177645271Y-57953962D01*
X177333962Y-58265271D01*
X177089369Y-58631331D01*
X176920890Y-59038075D01*
X176835000Y-59469872D01*
X133681294Y-59469872D01*
X133631185Y-59408815D01*
X133534494Y-59329463D01*
X133424180Y-59270498D01*
X133304482Y-59234188D01*
X133180000Y-59221928D01*
X130980000Y-59221928D01*
X130855518Y-59234188D01*
X130735820Y-59270498D01*
X130625506Y-59329463D01*
X130528815Y-59408815D01*
X130449463Y-59505506D01*
X130390498Y-59615820D01*
X130354188Y-59735518D01*
X130341928Y-59860000D01*
X114381671Y-59860000D01*
X114377663Y-59854002D01*
X114135998Y-59612337D01*
X113851831Y-59422463D01*
X113536081Y-59291675D01*
X113200883Y-59225000D01*
X112859117Y-59225000D01*
X112523919Y-59291675D01*
X112208169Y-59422463D01*
X111924002Y-59612337D01*
X111682337Y-59854002D01*
X111492463Y-60138169D01*
X111361675Y-60453919D01*
X111295000Y-60789117D01*
X104767387Y-60789117D01*
X104747436Y-60586555D01*
X104638506Y-60227461D01*
X104608072Y-60170523D01*
X104608072Y-59860000D01*
X104595812Y-59735518D01*
X104559502Y-59615820D01*
X104500537Y-59505506D01*
X104421185Y-59408815D01*
X104324494Y-59329463D01*
X104214180Y-59270498D01*
X104094482Y-59234188D01*
X103970000Y-59221928D01*
X103659477Y-59221928D01*
X103602539Y-59191494D01*
X103243445Y-59082564D01*
X102870000Y-59045783D01*
X102496556Y-59082564D01*
X102137462Y-59191494D01*
X102080524Y-59221928D01*
X101770000Y-59221928D01*
X101645518Y-59234188D01*
X101525820Y-59270498D01*
X101415506Y-59329463D01*
X101318815Y-59408815D01*
X101239463Y-59505506D01*
X101180498Y-59615820D01*
X101144188Y-59735518D01*
X101131928Y-59860000D01*
X101131928Y-60170525D01*
X101101495Y-60227461D01*
X100992565Y-60586555D01*
X100965001Y-60866418D01*
X100965000Y-71600924D01*
X96933997Y-75631928D01*
X96590000Y-75631928D01*
X96465518Y-75644188D01*
X96345820Y-75680498D01*
X96235506Y-75739463D01*
X96138815Y-75818815D01*
X96059463Y-75915506D01*
X96000498Y-76025820D01*
X95964188Y-76145518D01*
X95951928Y-76270000D01*
X95951928Y-76966793D01*
X95912565Y-77096555D01*
X95875783Y-77470000D01*
X85858072Y-77470000D01*
X85858072Y-76070000D01*
X85845812Y-75945518D01*
X85809502Y-75825820D01*
X85750537Y-75715506D01*
X85671185Y-75618815D01*
X85574494Y-75539463D01*
X85464180Y-75480498D01*
X85344482Y-75444188D01*
X85220000Y-75431928D01*
X82420000Y-75431928D01*
X82295518Y-75444188D01*
X82175820Y-75480498D01*
X82065506Y-75539463D01*
X81968815Y-75618815D01*
X81889463Y-75715506D01*
X81830498Y-75825820D01*
X81794188Y-75945518D01*
X81781928Y-76070000D01*
X72257311Y-76070000D01*
X72216865Y-75984230D01*
X71859108Y-75803403D01*
X71472947Y-75695845D01*
X71073223Y-75665690D01*
X70675296Y-75714096D01*
X70294460Y-75839205D01*
X70023135Y-75984230D01*
X69879158Y-76289553D01*
X61620000Y-76289553D01*
X61620000Y-71247980D01*
X96691626Y-71247980D01*
X96811514Y-71532836D01*
X97135210Y-71693699D01*
X97484069Y-71788322D01*
X97844684Y-71813067D01*
X98203198Y-71766985D01*
X98545833Y-71651846D01*
X98768486Y-71532836D01*
X98888374Y-71247980D01*
X97790000Y-70149605D01*
X96691626Y-71247980D01*
X61620000Y-71247980D01*
X61620000Y-70024684D01*
X95946933Y-70024684D01*
X95993015Y-70383198D01*
X96108154Y-70725833D01*
X96227164Y-70948486D01*
X96512020Y-71068374D01*
X97610395Y-69970000D01*
X97969605Y-69970000D01*
X99067980Y-71068374D01*
X99352836Y-70948486D01*
X99513699Y-70624790D01*
X99608322Y-70275931D01*
X99633067Y-69915316D01*
X99586985Y-69556802D01*
X99471846Y-69214167D01*
X99352836Y-68991514D01*
X99067980Y-68871626D01*
X97969605Y-69970000D01*
X97610395Y-69970000D01*
X96512020Y-68871626D01*
X96227164Y-68991514D01*
X96066301Y-69315210D01*
X95971678Y-69664069D01*
X95946933Y-70024684D01*
X61620000Y-70024684D01*
X61620000Y-68692020D01*
X96691626Y-68692020D01*
X97790000Y-69790395D01*
X98888374Y-68692020D01*
X98768486Y-68407164D01*
X98444790Y-68246301D01*
X98095931Y-68151678D01*
X97735316Y-68126933D01*
X97376802Y-68173015D01*
X97034167Y-68288154D01*
X96811514Y-68407164D01*
X96691626Y-68692020D01*
X61620000Y-68692020D01*
X61620000Y-59469872D01*
X65075000Y-59469872D01*
X65075000Y-59910128D01*
X65160890Y-60341925D01*
X65329369Y-60748669D01*
X65573962Y-61114729D01*
X65885271Y-61426038D01*
X66251331Y-61670631D01*
X66658075Y-61839110D01*
X67089872Y-61925000D01*
X67530128Y-61925000D01*
X67961925Y-61839110D01*
X68368669Y-61670631D01*
X68734729Y-61426038D01*
X69046038Y-61114729D01*
X69290631Y-60748669D01*
X69459110Y-60341925D01*
X69545000Y-59910128D01*
X69545000Y-59469872D01*
X69459110Y-59038075D01*
X69290631Y-58631331D01*
X69046038Y-58265271D01*
X68734729Y-57953962D01*
X68368669Y-57709369D01*
X67961925Y-57540890D01*
X67530128Y-57455000D01*
X67089872Y-57455000D01*
X66658075Y-57540890D01*
X66251331Y-57709369D01*
X65885271Y-57953962D01*
X65573962Y-58265271D01*
X65329369Y-58631331D01*
X65160890Y-59038075D01*
X65075000Y-59469872D01*
X61620000Y-59469872D01*
X61620000Y-57016544D01*
X196765000Y-57016544D01*
X196765000Y-57283456D01*
X196817072Y-57545239D01*
X196919215Y-57791833D01*
X197067503Y-58013762D01*
X197256238Y-58202497D01*
X197478167Y-58350785D01*
X197645266Y-58420000D01*
X197478167Y-58489215D01*
X197256238Y-58637503D01*
X197067503Y-58826238D01*
X196919215Y-59048167D01*
X196817072Y-59294761D01*
X196765000Y-59556544D01*
X196765000Y-59823456D01*
X196817072Y-60085239D01*
X196919215Y-60331833D01*
X197067503Y-60553762D01*
X197256238Y-60742497D01*
X197478167Y-60890785D01*
X197646324Y-60960438D01*
X197531647Y-61002125D01*
X197425932Y-61058632D01*
X197364045Y-61294440D01*
X198120000Y-62050395D01*
X198875955Y-61294440D01*
X198814068Y-61058632D01*
X198598993Y-60958236D01*
X198761833Y-60890785D01*
X198983762Y-60742497D01*
X199172497Y-60553762D01*
X199320785Y-60331833D01*
X199422928Y-60085239D01*
X199475000Y-59823456D01*
X199475000Y-59556544D01*
X199422928Y-59294761D01*
X199320785Y-59048167D01*
X199172497Y-58826238D01*
X198983762Y-58637503D01*
X198761833Y-58489215D01*
X198594734Y-58420000D01*
X198761833Y-58350785D01*
X198983762Y-58202497D01*
X199172497Y-58013762D01*
X199320785Y-57791833D01*
X199422928Y-57545239D01*
X199475000Y-57283456D01*
X199475000Y-57016544D01*
X199422928Y-56754761D01*
X199320785Y-56508167D01*
X199172497Y-56286238D01*
X198983762Y-56097503D01*
X198761833Y-55949215D01*
X198515239Y-55847072D01*
X198253456Y-55795000D01*
X197986544Y-55795000D01*
X197724761Y-55847072D01*
X197478167Y-55949215D01*
X197256238Y-56097503D01*
X197067503Y-56286238D01*
X196919215Y-56508167D01*
X196817072Y-56754761D01*
X196765000Y-57016544D01*
X61620000Y-57016544D01*
X61620000Y-54000000D01*
X202540001Y-54000000D01*
X202540000Y-113640000D01*
%TA.AperFunction,Conductor*%
D30*
G36*
X202540000Y-113640000D02*
G01*
X61620000Y-113640000D01*
X61620000Y-107729872D01*
X65075000Y-107729872D01*
X65075000Y-108170128D01*
X65160890Y-108601925D01*
X65329369Y-109008669D01*
X65573962Y-109374729D01*
X65885271Y-109686038D01*
X66251331Y-109930631D01*
X66658075Y-110099110D01*
X67089872Y-110185000D01*
X67530128Y-110185000D01*
X67961925Y-110099110D01*
X68368669Y-109930631D01*
X68734729Y-109686038D01*
X69046038Y-109374729D01*
X69263604Y-109049117D01*
X102405000Y-109049117D01*
X102405000Y-109390883D01*
X102471675Y-109726081D01*
X102602463Y-110041831D01*
X102792337Y-110325998D01*
X103034002Y-110567663D01*
X103318169Y-110757537D01*
X103633919Y-110888325D01*
X103969117Y-110955000D01*
X104310883Y-110955000D01*
X104646081Y-110888325D01*
X104961831Y-110757537D01*
X105245998Y-110567663D01*
X105487663Y-110325998D01*
X105677537Y-110041831D01*
X105808325Y-109726081D01*
X105875000Y-109390883D01*
X105875000Y-109049117D01*
X105808325Y-108713919D01*
X105677537Y-108398169D01*
X105491671Y-108120000D01*
X112561928Y-108120000D01*
X112561928Y-110320000D01*
X112574188Y-110444482D01*
X112610498Y-110564180D01*
X112669463Y-110674494D01*
X112748815Y-110771185D01*
X112845506Y-110850537D01*
X112955820Y-110909502D01*
X113075518Y-110945812D01*
X113200000Y-110958072D01*
X115400000Y-110958072D01*
X115524482Y-110945812D01*
X115644180Y-110909502D01*
X115754494Y-110850537D01*
X115851185Y-110771185D01*
X115930537Y-110674494D01*
X115989502Y-110564180D01*
X116025812Y-110444482D01*
X116038072Y-110320000D01*
X116038072Y-108120000D01*
X116025812Y-107995518D01*
X115989502Y-107875820D01*
X115930537Y-107765506D01*
X115851185Y-107668815D01*
X115754494Y-107589463D01*
X115644180Y-107530498D01*
X115524482Y-107494188D01*
X115400000Y-107481928D01*
X113200000Y-107481928D01*
X113075518Y-107494188D01*
X112955820Y-107530498D01*
X112845506Y-107589463D01*
X112748815Y-107668815D01*
X112669463Y-107765506D01*
X112610498Y-107875820D01*
X112574188Y-107995518D01*
X112561928Y-108120000D01*
X105491671Y-108120000D01*
X105487663Y-108114002D01*
X105245998Y-107872337D01*
X104961831Y-107682463D01*
X104646081Y-107551675D01*
X104310883Y-107485000D01*
X103969117Y-107485000D01*
X103633919Y-107551675D01*
X103318169Y-107682463D01*
X103034002Y-107872337D01*
X102792337Y-108114002D01*
X102602463Y-108398169D01*
X102471675Y-108713919D01*
X102405000Y-109049117D01*
X69263604Y-109049117D01*
X69290631Y-109008669D01*
X69459110Y-108601925D01*
X69545000Y-108170128D01*
X69545000Y-107729872D01*
X69459110Y-107298075D01*
X69290631Y-106891331D01*
X69046038Y-106525271D01*
X68734729Y-106213962D01*
X68368669Y-105969369D01*
X67961925Y-105800890D01*
X67530128Y-105715000D01*
X67089872Y-105715000D01*
X66658075Y-105800890D01*
X66251331Y-105969369D01*
X65885271Y-106213962D01*
X65573962Y-106525271D01*
X65329369Y-106891331D01*
X65160890Y-107298075D01*
X65075000Y-107729872D01*
X61620000Y-107729872D01*
X61620000Y-101530000D01*
X95951928Y-101530000D01*
X95964188Y-101654482D01*
X96000498Y-101774180D01*
X96059463Y-101884494D01*
X96138815Y-101981185D01*
X96235506Y-102060537D01*
X96345820Y-102119502D01*
X96465518Y-102155812D01*
X96590000Y-102168072D01*
X97504250Y-102165000D01*
X97663000Y-102006250D01*
X97663000Y-100457000D01*
X97917000Y-100457000D01*
X97917000Y-102006250D01*
X98075750Y-102165000D01*
X98990000Y-102168072D01*
X99114482Y-102155812D01*
X99234180Y-102119502D01*
X99344494Y-102060537D01*
X99441185Y-101981185D01*
X99520537Y-101884494D01*
X99579502Y-101774180D01*
X99615812Y-101654482D01*
X99628072Y-101530000D01*
X117541928Y-101530000D01*
X117554188Y-101654482D01*
X117590498Y-101774180D01*
X117649463Y-101884494D01*
X117728815Y-101981185D01*
X117825506Y-102060537D01*
X117935820Y-102119502D01*
X118055518Y-102155812D01*
X118180000Y-102168072D01*
X119094250Y-102165000D01*
X119253000Y-102006250D01*
X119253000Y-100457000D01*
X119507000Y-100457000D01*
X119507000Y-102006250D01*
X119665750Y-102165000D01*
X120580000Y-102168072D01*
X120704482Y-102155812D01*
X120824180Y-102119502D01*
X120934494Y-102060537D01*
X121031185Y-101981185D01*
X121110537Y-101884494D01*
X121169502Y-101774180D01*
X121205812Y-101654482D01*
X121218072Y-101530000D01*
X121215000Y-100615750D01*
X121056250Y-100457000D01*
X119507000Y-100457000D01*
X119253000Y-100457000D01*
X117703750Y-100457000D01*
X117545000Y-100615750D01*
X117541928Y-101530000D01*
X99628072Y-101530000D01*
X99625000Y-100615750D01*
X99466250Y-100457000D01*
X97917000Y-100457000D01*
X97663000Y-100457000D01*
X96113750Y-100457000D01*
X95955000Y-100615750D01*
X95951928Y-101530000D01*
X61620000Y-101530000D01*
X61620000Y-99130000D01*
X95951928Y-99130000D01*
X95955000Y-100044250D01*
X96113750Y-100203000D01*
X97663000Y-100203000D01*
X97663000Y-98653750D01*
X97917000Y-98653750D01*
X97917000Y-100203000D01*
X99466250Y-100203000D01*
X99625000Y-100044250D01*
X99628072Y-99130000D01*
X117541928Y-99130000D01*
X117545000Y-100044250D01*
X117703750Y-100203000D01*
X119253000Y-100203000D01*
X119253000Y-98653750D01*
X119507000Y-98653750D01*
X119507000Y-100203000D01*
X121056250Y-100203000D01*
X121215000Y-100044250D01*
X121218072Y-99130000D01*
X121205812Y-99005518D01*
X121169502Y-98885820D01*
X121110537Y-98775506D01*
X121031185Y-98678815D01*
X120934494Y-98599463D01*
X120824180Y-98540498D01*
X120704482Y-98504188D01*
X120580000Y-98491928D01*
X119665750Y-98495000D01*
X119507000Y-98653750D01*
X119253000Y-98653750D01*
X119094250Y-98495000D01*
X118180000Y-98491928D01*
X118055518Y-98504188D01*
X117935820Y-98540498D01*
X117825506Y-98599463D01*
X117728815Y-98678815D01*
X117649463Y-98775506D01*
X117590498Y-98885820D01*
X117554188Y-99005518D01*
X117541928Y-99130000D01*
X99628072Y-99130000D01*
X99615812Y-99005518D01*
X99579502Y-98885820D01*
X99520537Y-98775506D01*
X99441185Y-98678815D01*
X99344494Y-98599463D01*
X99234180Y-98540498D01*
X99114482Y-98504188D01*
X98990000Y-98491928D01*
X98075750Y-98495000D01*
X97917000Y-98653750D01*
X97663000Y-98653750D01*
X97504250Y-98495000D01*
X96590000Y-98491928D01*
X96465518Y-98504188D01*
X96345820Y-98540498D01*
X96235506Y-98599463D01*
X96138815Y-98678815D01*
X96059463Y-98775506D01*
X96000498Y-98885820D01*
X95964188Y-99005518D01*
X95951928Y-99130000D01*
X61620000Y-99130000D01*
X61620000Y-91310000D01*
X69081928Y-91310000D01*
X69081928Y-94110000D01*
X69094188Y-94234482D01*
X69130498Y-94354180D01*
X69189463Y-94464494D01*
X69268815Y-94561185D01*
X69365506Y-94640537D01*
X69475820Y-94699502D01*
X69595518Y-94735812D01*
X69720000Y-94748072D01*
X72520000Y-94748072D01*
X72644482Y-94735812D01*
X72764180Y-94699502D01*
X72874494Y-94640537D01*
X72971185Y-94561185D01*
X73050537Y-94464494D01*
X73109502Y-94354180D01*
X73145812Y-94234482D01*
X73158072Y-94110000D01*
X73158072Y-92509570D01*
X81785000Y-92509570D01*
X81785000Y-92910430D01*
X81863204Y-93303587D01*
X82016607Y-93673934D01*
X82239313Y-94007237D01*
X82522763Y-94290687D01*
X82856066Y-94513393D01*
X83226413Y-94666796D01*
X83619570Y-94745000D01*
X84020430Y-94745000D01*
X84413587Y-94666796D01*
X84783934Y-94513393D01*
X85117237Y-94290687D01*
X85400687Y-94007237D01*
X85623393Y-93673934D01*
X85776796Y-93303587D01*
X85855000Y-92910430D01*
X85855000Y-92649268D01*
X95955000Y-92649268D01*
X95955000Y-93010732D01*
X96025518Y-93365250D01*
X96163844Y-93699199D01*
X96364662Y-93999744D01*
X96620256Y-94255338D01*
X96920801Y-94456156D01*
X97254750Y-94594482D01*
X97609268Y-94665000D01*
X97970732Y-94665000D01*
X98325250Y-94594482D01*
X98659199Y-94456156D01*
X98959744Y-94255338D01*
X99215338Y-93999744D01*
X99416156Y-93699199D01*
X99554482Y-93365250D01*
X99625000Y-93010732D01*
X99625000Y-92649268D01*
X117545000Y-92649268D01*
X117545000Y-93010732D01*
X117615518Y-93365250D01*
X117753844Y-93699199D01*
X117954662Y-93999744D01*
X118210256Y-94255338D01*
X118510801Y-94456156D01*
X118844750Y-94594482D01*
X119199268Y-94665000D01*
X119560732Y-94665000D01*
X119915250Y-94594482D01*
X120249199Y-94456156D01*
X120549744Y-94255338D01*
X120805338Y-93999744D01*
X121006156Y-93699199D01*
X121144482Y-93365250D01*
X121215000Y-93010732D01*
X121215000Y-92649268D01*
X121144482Y-92294750D01*
X121006156Y-91960801D01*
X120805338Y-91660256D01*
X120549744Y-91404662D01*
X120249199Y-91203844D01*
X119915250Y-91065518D01*
X119560732Y-90995000D01*
X119199268Y-90995000D01*
X118844750Y-91065518D01*
X118510801Y-91203844D01*
X118210256Y-91404662D01*
X117954662Y-91660256D01*
X117753844Y-91960801D01*
X117615518Y-92294750D01*
X117545000Y-92649268D01*
X99625000Y-92649268D01*
X99554482Y-92294750D01*
X99416156Y-91960801D01*
X99215338Y-91660256D01*
X98959744Y-91404662D01*
X98659199Y-91203844D01*
X98325250Y-91065518D01*
X97970732Y-90995000D01*
X97609268Y-90995000D01*
X97254750Y-91065518D01*
X96920801Y-91203844D01*
X96620256Y-91404662D01*
X96364662Y-91660256D01*
X96163844Y-91960801D01*
X96025518Y-92294750D01*
X95955000Y-92649268D01*
X85855000Y-92649268D01*
X85855000Y-92509570D01*
X85776796Y-92116413D01*
X85623393Y-91746066D01*
X85400687Y-91412763D01*
X85117237Y-91129313D01*
X84783934Y-90906607D01*
X84413587Y-90753204D01*
X84020430Y-90675000D01*
X83619570Y-90675000D01*
X83226413Y-90753204D01*
X82856066Y-90906607D01*
X82522763Y-91129313D01*
X82239313Y-91412763D01*
X82016607Y-91746066D01*
X81863204Y-92116413D01*
X81785000Y-92509570D01*
X73158072Y-92509570D01*
X73158072Y-91310000D01*
X73145812Y-91185518D01*
X73109502Y-91065820D01*
X73050537Y-90955506D01*
X72971185Y-90858815D01*
X72874494Y-90779463D01*
X72764180Y-90720498D01*
X72644482Y-90684188D01*
X72520000Y-90671928D01*
X69720000Y-90671928D01*
X69595518Y-90684188D01*
X69475820Y-90720498D01*
X69365506Y-90779463D01*
X69268815Y-90858815D01*
X69189463Y-90955506D01*
X69130498Y-91065820D01*
X69094188Y-91185518D01*
X69081928Y-91310000D01*
X61620000Y-91310000D01*
X61620000Y-89130447D01*
X69879158Y-89130447D01*
X70023135Y-89435770D01*
X70380892Y-89616597D01*
X70767053Y-89724155D01*
X71166777Y-89754310D01*
X71564704Y-89705904D01*
X71945540Y-89580795D01*
X72216865Y-89435770D01*
X72360842Y-89130447D01*
X71120000Y-87889605D01*
X69879158Y-89130447D01*
X61620000Y-89130447D01*
X61620000Y-87756777D01*
X69075690Y-87756777D01*
X69124096Y-88154704D01*
X69249205Y-88535540D01*
X69394230Y-88806865D01*
X69699553Y-88950842D01*
X70940395Y-87710000D01*
X71299605Y-87710000D01*
X72540447Y-88950842D01*
X72845770Y-88806865D01*
X73026597Y-88449108D01*
X73134155Y-88062947D01*
X73164310Y-87663223D01*
X73135888Y-87429570D01*
X81785000Y-87429570D01*
X81785000Y-87830430D01*
X81863204Y-88223587D01*
X82016607Y-88593934D01*
X82239313Y-88927237D01*
X82522763Y-89210687D01*
X82856066Y-89433393D01*
X83226413Y-89586796D01*
X83619570Y-89665000D01*
X84020430Y-89665000D01*
X84413587Y-89586796D01*
X84783934Y-89433393D01*
X85117237Y-89210687D01*
X85400687Y-88927237D01*
X85623393Y-88593934D01*
X85776796Y-88223587D01*
X85855000Y-87830430D01*
X85855000Y-87488665D01*
X129415000Y-87488665D01*
X129415000Y-87771335D01*
X129470147Y-88048574D01*
X129578320Y-88309727D01*
X129735363Y-88544759D01*
X129935241Y-88744637D01*
X130170273Y-88901680D01*
X130431426Y-89009853D01*
X130708665Y-89065000D01*
X130991335Y-89065000D01*
X131268574Y-89009853D01*
X131529727Y-88901680D01*
X131764759Y-88744637D01*
X131886694Y-88622702D01*
X132536903Y-88622702D01*
X132608486Y-88866671D01*
X132863996Y-88987571D01*
X133138184Y-89056300D01*
X133420512Y-89070217D01*
X133700130Y-89028787D01*
X133966292Y-88933603D01*
X134091514Y-88866671D01*
X134163097Y-88622702D01*
X133350000Y-87809605D01*
X132536903Y-88622702D01*
X131886694Y-88622702D01*
X131964637Y-88544759D01*
X132098692Y-88344131D01*
X132113329Y-88371514D01*
X132357298Y-88443097D01*
X133170395Y-87630000D01*
X133529605Y-87630000D01*
X134342702Y-88443097D01*
X134586671Y-88371514D01*
X134707571Y-88116004D01*
X134776300Y-87841816D01*
X134790217Y-87559488D01*
X134748787Y-87279870D01*
X134653603Y-87013708D01*
X134586671Y-86888486D01*
X134342702Y-86816903D01*
X133529605Y-87630000D01*
X133170395Y-87630000D01*
X132357298Y-86816903D01*
X132113329Y-86888486D01*
X132099676Y-86917341D01*
X131964637Y-86715241D01*
X131886694Y-86637298D01*
X132536903Y-86637298D01*
X133350000Y-87450395D01*
X134163097Y-86637298D01*
X134091514Y-86393329D01*
X133836004Y-86272429D01*
X133561816Y-86203700D01*
X133279488Y-86189783D01*
X132999870Y-86231213D01*
X132733708Y-86326397D01*
X132608486Y-86393329D01*
X132536903Y-86637298D01*
X131886694Y-86637298D01*
X131764759Y-86515363D01*
X131529727Y-86358320D01*
X131268574Y-86250147D01*
X130991335Y-86195000D01*
X130708665Y-86195000D01*
X130431426Y-86250147D01*
X130170273Y-86358320D01*
X129935241Y-86515363D01*
X129735363Y-86715241D01*
X129578320Y-86950273D01*
X129470147Y-87211426D01*
X129415000Y-87488665D01*
X85855000Y-87488665D01*
X85855000Y-87429570D01*
X85776796Y-87036413D01*
X85623393Y-86666066D01*
X85400687Y-86332763D01*
X85117237Y-86049313D01*
X84783934Y-85826607D01*
X84413587Y-85673204D01*
X84020430Y-85595000D01*
X83619570Y-85595000D01*
X83226413Y-85673204D01*
X82856066Y-85826607D01*
X82522763Y-86049313D01*
X82239313Y-86332763D01*
X82016607Y-86666066D01*
X81863204Y-87036413D01*
X81785000Y-87429570D01*
X73135888Y-87429570D01*
X73115904Y-87265296D01*
X72990795Y-86884460D01*
X72845770Y-86613135D01*
X72540447Y-86469158D01*
X71299605Y-87710000D01*
X70940395Y-87710000D01*
X69699553Y-86469158D01*
X69394230Y-86613135D01*
X69213403Y-86970892D01*
X69105845Y-87357053D01*
X69075690Y-87756777D01*
X61620000Y-87756777D01*
X61620000Y-86289553D01*
X69879158Y-86289553D01*
X71120000Y-87530395D01*
X72360842Y-86289553D01*
X72216865Y-85984230D01*
X71859108Y-85803403D01*
X71472947Y-85695845D01*
X71073223Y-85665690D01*
X70675296Y-85714096D01*
X70294460Y-85839205D01*
X70023135Y-85984230D01*
X69879158Y-86289553D01*
X61620000Y-86289553D01*
X61620000Y-82509570D01*
X69085000Y-82509570D01*
X69085000Y-82910430D01*
X69163204Y-83303587D01*
X69316607Y-83673934D01*
X69539313Y-84007237D01*
X69822763Y-84290687D01*
X70156066Y-84513393D01*
X70526413Y-84666796D01*
X70919570Y-84745000D01*
X71320430Y-84745000D01*
X71713587Y-84666796D01*
X72083934Y-84513393D01*
X72417237Y-84290687D01*
X72700687Y-84007237D01*
X72923393Y-83673934D01*
X73076796Y-83303587D01*
X73155000Y-82910430D01*
X73155000Y-82509570D01*
X73123174Y-82349570D01*
X81785000Y-82349570D01*
X81785000Y-82750430D01*
X81863204Y-83143587D01*
X82016607Y-83513934D01*
X82239313Y-83847237D01*
X82522763Y-84130687D01*
X82856066Y-84353393D01*
X83226413Y-84506796D01*
X83619570Y-84585000D01*
X84020430Y-84585000D01*
X84413587Y-84506796D01*
X84783934Y-84353393D01*
X85117237Y-84130687D01*
X85400687Y-83847237D01*
X85623393Y-83513934D01*
X85776796Y-83143587D01*
X85855000Y-82750430D01*
X85855000Y-82620512D01*
X129409783Y-82620512D01*
X129451213Y-82900130D01*
X129546397Y-83166292D01*
X129613329Y-83291514D01*
X129857298Y-83363097D01*
X130670395Y-82550000D01*
X129857298Y-81736903D01*
X129613329Y-81808486D01*
X129492429Y-82063996D01*
X129423700Y-82338184D01*
X129409783Y-82620512D01*
X85855000Y-82620512D01*
X85855000Y-82349570D01*
X85776796Y-81956413D01*
X85623393Y-81586066D01*
X85400687Y-81252763D01*
X85117237Y-80969313D01*
X84783934Y-80746607D01*
X84413587Y-80593204D01*
X84020430Y-80515000D01*
X83619570Y-80515000D01*
X83226413Y-80593204D01*
X82856066Y-80746607D01*
X82522763Y-80969313D01*
X82239313Y-81252763D01*
X82016607Y-81586066D01*
X81863204Y-81956413D01*
X81785000Y-82349570D01*
X73123174Y-82349570D01*
X73076796Y-82116413D01*
X72923393Y-81746066D01*
X72700687Y-81412763D01*
X72417237Y-81129313D01*
X72083934Y-80906607D01*
X71713587Y-80753204D01*
X71320430Y-80675000D01*
X70919570Y-80675000D01*
X70526413Y-80753204D01*
X70156066Y-80906607D01*
X69822763Y-81129313D01*
X69539313Y-81412763D01*
X69316607Y-81746066D01*
X69163204Y-82116413D01*
X69085000Y-82509570D01*
X61620000Y-82509570D01*
X61620000Y-79130447D01*
X69879158Y-79130447D01*
X70023135Y-79435770D01*
X70380892Y-79616597D01*
X70767053Y-79724155D01*
X71166777Y-79754310D01*
X71564704Y-79705904D01*
X71945540Y-79580795D01*
X72216865Y-79435770D01*
X72360842Y-79130447D01*
X71120000Y-77889605D01*
X69879158Y-79130447D01*
X61620000Y-79130447D01*
X61620000Y-77756777D01*
X69075690Y-77756777D01*
X69124096Y-78154704D01*
X69249205Y-78535540D01*
X69394230Y-78806865D01*
X69699553Y-78950842D01*
X70940395Y-77710000D01*
X71299605Y-77710000D01*
X72540447Y-78950842D01*
X72845770Y-78806865D01*
X73026597Y-78449108D01*
X73134155Y-78062947D01*
X73164310Y-77663223D01*
X73115904Y-77265296D01*
X72990795Y-76884460D01*
X72845770Y-76613135D01*
X72540447Y-76469158D01*
X71299605Y-77710000D01*
X70940395Y-77710000D01*
X69699553Y-76469158D01*
X69394230Y-76613135D01*
X69213403Y-76970892D01*
X69105845Y-77357053D01*
X69075690Y-77756777D01*
X61620000Y-77756777D01*
X61620000Y-76289553D01*
X69879158Y-76289553D01*
X71120000Y-77530395D01*
X72360842Y-76289553D01*
X72257311Y-76070000D01*
X81781928Y-76070000D01*
X81781928Y-78870000D01*
X81794188Y-78994482D01*
X81830498Y-79114180D01*
X81889463Y-79224494D01*
X81968815Y-79321185D01*
X82065506Y-79400537D01*
X82175820Y-79459502D01*
X82295518Y-79495812D01*
X82420000Y-79508072D01*
X85220000Y-79508072D01*
X85344482Y-79495812D01*
X85464180Y-79459502D01*
X85574494Y-79400537D01*
X85671185Y-79321185D01*
X85750537Y-79224494D01*
X85809502Y-79114180D01*
X85845812Y-78994482D01*
X85858072Y-78870000D01*
X85858072Y-77470000D01*
X95875783Y-77470000D01*
X95912565Y-77843445D01*
X95951928Y-77973207D01*
X95951928Y-78670000D01*
X95964188Y-78794482D01*
X96000498Y-78914180D01*
X96059463Y-79024494D01*
X96138815Y-79121185D01*
X96235506Y-79200537D01*
X96345820Y-79259502D01*
X96465518Y-79295812D01*
X96590000Y-79308072D01*
X97286793Y-79308072D01*
X97416555Y-79347435D01*
X97790000Y-79384217D01*
X98163445Y-79347435D01*
X98293207Y-79308072D01*
X98990000Y-79308072D01*
X99114482Y-79295812D01*
X99234180Y-79259502D01*
X99344494Y-79200537D01*
X99441185Y-79121185D01*
X99520537Y-79024494D01*
X99579502Y-78914180D01*
X99615812Y-78794482D01*
X99628072Y-78670000D01*
X99628072Y-78326003D01*
X100484075Y-77470000D01*
X117465783Y-77470000D01*
X117502564Y-77843445D01*
X117541928Y-77973211D01*
X117541928Y-78670000D01*
X117554188Y-78794482D01*
X117590498Y-78914180D01*
X117649463Y-79024494D01*
X117728815Y-79121185D01*
X117825506Y-79200537D01*
X117935820Y-79259502D01*
X118055518Y-79295812D01*
X118180000Y-79308072D01*
X118876789Y-79308072D01*
X119006555Y-79347436D01*
X119286418Y-79375000D01*
X128612295Y-79375000D01*
X130417842Y-81180548D01*
X130233708Y-81246397D01*
X130108486Y-81313329D01*
X130036903Y-81557298D01*
X130850000Y-82370395D01*
X130864143Y-82356253D01*
X131043748Y-82535858D01*
X131029605Y-82550000D01*
X131043748Y-82564143D01*
X130864143Y-82743748D01*
X130850000Y-82729605D01*
X130036903Y-83542702D01*
X130108486Y-83786671D01*
X130363996Y-83907571D01*
X130638184Y-83976300D01*
X130920512Y-83990217D01*
X131200130Y-83948787D01*
X131466292Y-83853603D01*
X131591514Y-83786671D01*
X131663097Y-83542704D01*
X131779370Y-83658977D01*
X131788353Y-83649994D01*
X131996445Y-83903556D01*
X132286519Y-84141613D01*
X132617462Y-84318506D01*
X132888480Y-84400718D01*
X134677080Y-86189319D01*
X134728286Y-86251714D01*
X134977248Y-86456031D01*
X135261285Y-86607852D01*
X135569484Y-86701343D01*
X135809678Y-86725000D01*
X135809680Y-86725000D01*
X135889999Y-86732911D01*
X135970319Y-86725000D01*
X139987025Y-86725000D01*
X139933038Y-86778987D01*
X139786939Y-86997641D01*
X139686304Y-87240595D01*
X139635000Y-87498514D01*
X139635000Y-87761486D01*
X139686304Y-88019405D01*
X139786939Y-88262359D01*
X139933038Y-88481013D01*
X140118987Y-88666962D01*
X140337641Y-88813061D01*
X140580595Y-88913696D01*
X140838514Y-88965000D01*
X141101486Y-88965000D01*
X141359405Y-88913696D01*
X141602359Y-88813061D01*
X141821013Y-88666962D01*
X142006962Y-88481013D01*
X142153061Y-88262359D01*
X142253696Y-88019405D01*
X142305000Y-87761486D01*
X142305000Y-87498514D01*
X142253696Y-87240595D01*
X142153061Y-86997641D01*
X142006962Y-86778987D01*
X141952975Y-86725000D01*
X145067025Y-86725000D01*
X145013038Y-86778987D01*
X144866939Y-86997641D01*
X144766304Y-87240595D01*
X144715000Y-87498514D01*
X144715000Y-87761486D01*
X144741558Y-87895001D01*
X143973578Y-87895001D01*
X143879998Y-87885784D01*
X143786418Y-87895001D01*
X143786417Y-87895001D01*
X143506554Y-87922565D01*
X143147460Y-88031495D01*
X143088618Y-88062947D01*
X142816516Y-88208388D01*
X142733902Y-88276188D01*
X142526443Y-88446445D01*
X142466783Y-88519141D01*
X139556790Y-91429135D01*
X139378387Y-91646518D01*
X139201495Y-91977461D01*
X139092565Y-92336555D01*
X139055783Y-92710000D01*
X139092565Y-93083445D01*
X139201495Y-93442539D01*
X139378387Y-93773482D01*
X139616445Y-94063555D01*
X139906518Y-94301613D01*
X140237461Y-94478505D01*
X140596555Y-94587435D01*
X140970000Y-94624217D01*
X141343445Y-94587435D01*
X141702539Y-94478505D01*
X142033482Y-94301613D01*
X142250865Y-94123210D01*
X144669075Y-91705001D01*
X145096314Y-91705001D01*
X142578765Y-94222550D01*
X142525920Y-94265919D01*
X142482551Y-94318764D01*
X142482548Y-94318767D01*
X142352844Y-94476812D01*
X142224236Y-94717420D01*
X142145040Y-94978493D01*
X142118300Y-95250000D01*
X142125001Y-95318039D01*
X142125001Y-96694103D01*
X141913546Y-96436444D01*
X141623472Y-96198387D01*
X141292529Y-96021494D01*
X140933435Y-95912564D01*
X140653572Y-95885000D01*
X130903579Y-95885000D01*
X130809999Y-95875783D01*
X130716419Y-95885000D01*
X130716418Y-95885000D01*
X130436555Y-95912564D01*
X130077461Y-96021494D01*
X129923410Y-96103836D01*
X129746517Y-96198387D01*
X129650177Y-96277452D01*
X129456444Y-96436444D01*
X129396784Y-96509140D01*
X117966790Y-107939135D01*
X117788387Y-108156518D01*
X117611495Y-108487461D01*
X117502565Y-108846555D01*
X117465783Y-109220000D01*
X117502565Y-109593445D01*
X117611495Y-109952539D01*
X117788387Y-110283482D01*
X118026445Y-110573555D01*
X118316518Y-110811613D01*
X118647461Y-110988505D01*
X119006555Y-111097435D01*
X119380000Y-111134217D01*
X119753445Y-111097435D01*
X120112539Y-110988505D01*
X120443482Y-110811613D01*
X120660865Y-110633210D01*
X123174075Y-108120000D01*
X127801928Y-108120000D01*
X127801928Y-110320000D01*
X127814188Y-110444482D01*
X127850498Y-110564180D01*
X127909463Y-110674494D01*
X127988815Y-110771185D01*
X128085506Y-110850537D01*
X128195820Y-110909502D01*
X128315518Y-110945812D01*
X128440000Y-110958072D01*
X130640000Y-110958072D01*
X130764482Y-110945812D01*
X130884180Y-110909502D01*
X130994494Y-110850537D01*
X131091185Y-110771185D01*
X131170537Y-110674494D01*
X131229502Y-110564180D01*
X131265812Y-110444482D01*
X131278072Y-110320000D01*
X131278072Y-108120000D01*
X131265812Y-107995518D01*
X131229502Y-107875820D01*
X131170537Y-107765506D01*
X131091185Y-107668815D01*
X130994494Y-107589463D01*
X130884180Y-107530498D01*
X130764482Y-107494188D01*
X130640000Y-107481928D01*
X128440000Y-107481928D01*
X128315518Y-107494188D01*
X128195820Y-107530498D01*
X128085506Y-107589463D01*
X127988815Y-107668815D01*
X127909463Y-107765506D01*
X127850498Y-107875820D01*
X127814188Y-107995518D01*
X127801928Y-108120000D01*
X123174075Y-108120000D01*
X131599076Y-99695000D01*
X140653572Y-99695000D01*
X140933435Y-99667436D01*
X141292529Y-99558506D01*
X141623472Y-99381613D01*
X141913546Y-99143556D01*
X142125000Y-98885897D01*
X142125000Y-101026315D01*
X141848765Y-101302550D01*
X141795920Y-101345919D01*
X141752551Y-101398764D01*
X141752548Y-101398767D01*
X141622844Y-101556812D01*
X141494236Y-101797420D01*
X141415040Y-102058493D01*
X141388300Y-102330000D01*
X141395001Y-102398039D01*
X141395000Y-105017301D01*
X141345000Y-105268665D01*
X141345000Y-105551335D01*
X141400147Y-105828574D01*
X141508320Y-106089727D01*
X141665363Y-106324759D01*
X141865241Y-106524637D01*
X142100273Y-106681680D01*
X142361426Y-106789853D01*
X142638665Y-106845000D01*
X142921335Y-106845000D01*
X143198574Y-106789853D01*
X143459727Y-106681680D01*
X143515210Y-106644607D01*
X143528815Y-106661185D01*
X143625506Y-106740537D01*
X143735820Y-106799502D01*
X143855518Y-106835812D01*
X143980000Y-106848072D01*
X144494250Y-106845000D01*
X144653000Y-106686250D01*
X144653000Y-105537000D01*
X144907000Y-105537000D01*
X144907000Y-106686250D01*
X145065750Y-106845000D01*
X145580000Y-106848072D01*
X145704482Y-106835812D01*
X145824180Y-106799502D01*
X145934494Y-106740537D01*
X146031185Y-106661185D01*
X146110537Y-106564494D01*
X146169502Y-106454180D01*
X146205812Y-106334482D01*
X146218072Y-106210000D01*
X146215000Y-105695750D01*
X146056250Y-105537000D01*
X144907000Y-105537000D01*
X144653000Y-105537000D01*
X144633000Y-105537000D01*
X144633000Y-105283000D01*
X144653000Y-105283000D01*
X144653000Y-104133750D01*
X144907000Y-104133750D01*
X144907000Y-105283000D01*
X146056250Y-105283000D01*
X146215000Y-105124250D01*
X146218072Y-104610000D01*
X146205812Y-104485518D01*
X146169502Y-104365820D01*
X146110537Y-104255506D01*
X146031185Y-104158815D01*
X145934494Y-104079463D01*
X145824180Y-104020498D01*
X145704482Y-103984188D01*
X145580000Y-103971928D01*
X145065750Y-103975000D01*
X144907000Y-104133750D01*
X144653000Y-104133750D01*
X144494250Y-103975000D01*
X144165000Y-103973033D01*
X144165000Y-102903685D01*
X144441235Y-102627450D01*
X144494080Y-102584081D01*
X144667157Y-102373188D01*
X144795764Y-102132581D01*
X144841690Y-101981185D01*
X144874960Y-101871508D01*
X144884546Y-101774180D01*
X144895000Y-101668037D01*
X144895000Y-101668029D01*
X144901700Y-101600000D01*
X144895000Y-101531971D01*
X144895000Y-98711269D01*
X145308336Y-98711269D01*
X145367797Y-98945037D01*
X145606242Y-99055934D01*
X145861740Y-99118183D01*
X146124473Y-99129390D01*
X146384344Y-99089125D01*
X146631366Y-98998935D01*
X146732203Y-98945037D01*
X146791664Y-98711269D01*
X146050000Y-97969605D01*
X145308336Y-98711269D01*
X144895000Y-98711269D01*
X144895000Y-98472212D01*
X145128731Y-98531664D01*
X145870395Y-97790000D01*
X146229605Y-97790000D01*
X146971269Y-98531664D01*
X147205037Y-98472203D01*
X147315934Y-98233758D01*
X147378183Y-97978260D01*
X147389390Y-97715527D01*
X147349125Y-97455656D01*
X147258935Y-97208634D01*
X147205037Y-97107797D01*
X146971269Y-97048336D01*
X146229605Y-97790000D01*
X145870395Y-97790000D01*
X145128731Y-97048336D01*
X144895000Y-97107788D01*
X144895000Y-96868731D01*
X145308336Y-96868731D01*
X146050000Y-97610395D01*
X146791664Y-96868731D01*
X146732203Y-96634963D01*
X146493758Y-96524066D01*
X146238260Y-96461817D01*
X145975527Y-96450610D01*
X145715656Y-96490875D01*
X145468634Y-96581065D01*
X145367797Y-96634963D01*
X145308336Y-96868731D01*
X144895000Y-96868731D01*
X144895000Y-95823685D01*
X147077451Y-93641234D01*
X147207156Y-93483189D01*
X147335763Y-93242582D01*
X147414959Y-92981508D01*
X147441700Y-92710001D01*
X147414959Y-92438494D01*
X147335763Y-92177420D01*
X147207156Y-91936813D01*
X147034080Y-91725920D01*
X147008590Y-91705001D01*
X150010925Y-91705001D01*
X150535000Y-92229076D01*
X150535001Y-102816410D01*
X150525783Y-102910000D01*
X150562565Y-103283445D01*
X150671495Y-103642539D01*
X150848387Y-103973482D01*
X150921188Y-104062189D01*
X151086445Y-104263556D01*
X151159140Y-104323215D01*
X156066794Y-109230871D01*
X156126445Y-109303556D01*
X156199129Y-109363206D01*
X156199133Y-109363210D01*
X156416517Y-109541612D01*
X156512060Y-109592681D01*
X156747462Y-109718506D01*
X157106556Y-109827436D01*
X157439200Y-109860199D01*
X157479999Y-109864217D01*
X157480000Y-109864217D01*
X157853445Y-109827436D01*
X158212539Y-109718506D01*
X158543482Y-109541613D01*
X158833556Y-109303556D01*
X158944427Y-109168459D01*
X159133765Y-109323845D01*
X159409551Y-109471255D01*
X159708796Y-109562030D01*
X160020000Y-109592681D01*
X160331203Y-109562030D01*
X160630448Y-109471255D01*
X160906234Y-109323845D01*
X161032095Y-109220553D01*
X161076963Y-109304494D01*
X161156315Y-109401185D01*
X161253006Y-109480537D01*
X161363320Y-109539502D01*
X161483018Y-109575812D01*
X161607500Y-109588072D01*
X163512500Y-109588072D01*
X163636982Y-109575812D01*
X163756680Y-109539502D01*
X163866994Y-109480537D01*
X163963685Y-109401185D01*
X164043037Y-109304494D01*
X164102002Y-109194180D01*
X164138312Y-109074482D01*
X164150572Y-108950000D01*
X164150572Y-107729872D01*
X176835000Y-107729872D01*
X176835000Y-108170128D01*
X176920890Y-108601925D01*
X177089369Y-109008669D01*
X177333962Y-109374729D01*
X177645271Y-109686038D01*
X178011331Y-109930631D01*
X178418075Y-110099110D01*
X178849872Y-110185000D01*
X179290128Y-110185000D01*
X179721925Y-110099110D01*
X180128669Y-109930631D01*
X180494729Y-109686038D01*
X180806038Y-109374729D01*
X181050631Y-109008669D01*
X181219110Y-108601925D01*
X181305000Y-108170128D01*
X181305000Y-107816544D01*
X196765000Y-107816544D01*
X196765000Y-108083456D01*
X196817072Y-108345239D01*
X196919215Y-108591833D01*
X197067503Y-108813762D01*
X197256238Y-109002497D01*
X197478167Y-109150785D01*
X197645266Y-109220000D01*
X197478167Y-109289215D01*
X197256238Y-109437503D01*
X197067503Y-109626238D01*
X196919215Y-109848167D01*
X196817072Y-110094761D01*
X196765000Y-110356544D01*
X196765000Y-110623456D01*
X196817072Y-110885239D01*
X196919215Y-111131833D01*
X197067503Y-111353762D01*
X197256238Y-111542497D01*
X197478167Y-111690785D01*
X197724761Y-111792928D01*
X197986544Y-111845000D01*
X198253456Y-111845000D01*
X198515239Y-111792928D01*
X198761833Y-111690785D01*
X198983762Y-111542497D01*
X199172497Y-111353762D01*
X199320785Y-111131833D01*
X199422928Y-110885239D01*
X199475000Y-110623456D01*
X199475000Y-110356544D01*
X199422928Y-110094761D01*
X199320785Y-109848167D01*
X199172497Y-109626238D01*
X198983762Y-109437503D01*
X198761833Y-109289215D01*
X198594734Y-109220000D01*
X198761833Y-109150785D01*
X198983762Y-109002497D01*
X199172497Y-108813762D01*
X199320785Y-108591833D01*
X199422928Y-108345239D01*
X199475000Y-108083456D01*
X199475000Y-107816544D01*
X199422928Y-107554761D01*
X199320785Y-107308167D01*
X199172497Y-107086238D01*
X198983762Y-106897503D01*
X198761833Y-106749215D01*
X198593676Y-106679562D01*
X198708353Y-106637875D01*
X198814068Y-106581368D01*
X198875955Y-106345560D01*
X198120000Y-105589605D01*
X197364045Y-106345560D01*
X197425932Y-106581368D01*
X197641007Y-106681764D01*
X197478167Y-106749215D01*
X197256238Y-106897503D01*
X197067503Y-107086238D01*
X196919215Y-107308167D01*
X196817072Y-107554761D01*
X196765000Y-107816544D01*
X181305000Y-107816544D01*
X181305000Y-107729872D01*
X181219110Y-107298075D01*
X181050631Y-106891331D01*
X180806038Y-106525271D01*
X180494729Y-106213962D01*
X180128669Y-105969369D01*
X179721925Y-105800890D01*
X179290128Y-105715000D01*
X178849872Y-105715000D01*
X178418075Y-105800890D01*
X178011331Y-105969369D01*
X177645271Y-106213962D01*
X177333962Y-106525271D01*
X177089369Y-106891331D01*
X176920890Y-107298075D01*
X176835000Y-107729872D01*
X164150572Y-107729872D01*
X164150572Y-106950000D01*
X164138312Y-106825518D01*
X164102002Y-106705820D01*
X164043037Y-106595506D01*
X163963685Y-106498815D01*
X163866994Y-106419463D01*
X163756680Y-106360498D01*
X163636982Y-106324188D01*
X163512500Y-106311928D01*
X161607500Y-106311928D01*
X161483018Y-106324188D01*
X161363320Y-106360498D01*
X161253006Y-106419463D01*
X161156315Y-106498815D01*
X161076963Y-106595506D01*
X161032095Y-106679446D01*
X160906235Y-106576155D01*
X160630449Y-106428745D01*
X160331204Y-106337970D01*
X160020000Y-106307319D01*
X159708797Y-106337970D01*
X159409552Y-106428745D01*
X159385000Y-106441868D01*
X159385000Y-105483680D01*
X196760439Y-105483680D01*
X196800937Y-105747501D01*
X196892125Y-105998353D01*
X196948632Y-106104068D01*
X197184440Y-106165955D01*
X197940395Y-105410000D01*
X198299605Y-105410000D01*
X199055560Y-106165955D01*
X199291368Y-106104068D01*
X199404266Y-105862210D01*
X199467811Y-105602973D01*
X199479561Y-105336320D01*
X199439063Y-105072499D01*
X199347875Y-104821647D01*
X199291368Y-104715932D01*
X199055560Y-104654045D01*
X198299605Y-105410000D01*
X197940395Y-105410000D01*
X197184440Y-104654045D01*
X196948632Y-104715932D01*
X196835734Y-104957790D01*
X196772189Y-105217027D01*
X196760439Y-105483680D01*
X159385000Y-105483680D01*
X159385000Y-105199075D01*
X160109635Y-104474440D01*
X197364045Y-104474440D01*
X198120000Y-105230395D01*
X198875955Y-104474440D01*
X198814068Y-104238632D01*
X198572210Y-104125734D01*
X198312973Y-104062189D01*
X198046320Y-104050439D01*
X197782499Y-104090937D01*
X197531647Y-104182125D01*
X197425932Y-104238632D01*
X197364045Y-104474440D01*
X160109635Y-104474440D01*
X169969077Y-94615000D01*
X194403582Y-94615000D01*
X194683445Y-94587436D01*
X195042539Y-94478506D01*
X195373482Y-94301613D01*
X195663556Y-94063556D01*
X195708437Y-94008868D01*
X195756614Y-94048405D01*
X195910150Y-94130472D01*
X196076746Y-94181008D01*
X196250000Y-94198072D01*
X197450000Y-94198072D01*
X197623254Y-94181008D01*
X197789850Y-94130472D01*
X197943386Y-94048405D01*
X198077962Y-93937962D01*
X198188405Y-93803386D01*
X198270472Y-93649850D01*
X198321008Y-93483254D01*
X198338072Y-93310000D01*
X198338072Y-92110000D01*
X198321008Y-91936746D01*
X198270472Y-91770150D01*
X198188405Y-91616614D01*
X198077962Y-91482038D01*
X197943386Y-91371595D01*
X197789850Y-91289528D01*
X197680707Y-91256420D01*
X197698792Y-91198397D01*
X196850000Y-90349605D01*
X196001208Y-91198397D01*
X196019293Y-91256420D01*
X195910150Y-91289528D01*
X195756614Y-91371595D01*
X195708437Y-91411132D01*
X195663556Y-91356444D01*
X195427051Y-91162349D01*
X195454504Y-91134896D01*
X195338399Y-91018791D01*
X195580000Y-90943486D01*
X195821603Y-91018792D01*
X196670395Y-90170000D01*
X197029605Y-90170000D01*
X197878397Y-91018792D01*
X198127472Y-90941157D01*
X198253371Y-90677117D01*
X198325339Y-90393589D01*
X198340611Y-90101469D01*
X198298599Y-89811981D01*
X198200919Y-89536253D01*
X198127472Y-89398843D01*
X197878397Y-89321208D01*
X197029605Y-90170000D01*
X196670395Y-90170000D01*
X195821603Y-89321208D01*
X195580000Y-89396514D01*
X195338397Y-89321208D01*
X194489605Y-90170000D01*
X194503748Y-90184143D01*
X194324143Y-90363748D01*
X194310000Y-90349605D01*
X194295858Y-90363748D01*
X194116253Y-90184143D01*
X194130395Y-90170000D01*
X193281603Y-89321208D01*
X193032528Y-89398843D01*
X192906629Y-89662883D01*
X192834661Y-89946411D01*
X192819389Y-90238531D01*
X192861401Y-90528019D01*
X192959081Y-90803747D01*
X192959751Y-90805000D01*
X169273580Y-90805000D01*
X169180000Y-90795783D01*
X169086420Y-90805000D01*
X169086418Y-90805000D01*
X168950277Y-90818409D01*
X170880686Y-88888000D01*
X175134501Y-88888000D01*
X175300551Y-88976755D01*
X175599796Y-89067530D01*
X175833014Y-89090500D01*
X176083986Y-89090500D01*
X176317204Y-89067530D01*
X176616449Y-88976755D01*
X176782499Y-88888000D01*
X180398971Y-88888000D01*
X180467000Y-88894700D01*
X180535029Y-88888000D01*
X180535037Y-88888000D01*
X180738507Y-88867960D01*
X180999581Y-88788764D01*
X181240188Y-88660157D01*
X181242332Y-88658397D01*
X193461208Y-88658397D01*
X193536514Y-88900000D01*
X193461208Y-89141603D01*
X194310000Y-89990395D01*
X195158792Y-89141603D01*
X195083486Y-88900000D01*
X195158792Y-88658397D01*
X196001208Y-88658397D01*
X196076514Y-88900000D01*
X196001208Y-89141603D01*
X196850000Y-89990395D01*
X197698792Y-89141603D01*
X197623486Y-88900000D01*
X197698792Y-88658397D01*
X196850000Y-87809605D01*
X196001208Y-88658397D01*
X195158792Y-88658397D01*
X194310000Y-87809605D01*
X193461208Y-88658397D01*
X181242332Y-88658397D01*
X181451081Y-88487081D01*
X181494454Y-88434231D01*
X182230154Y-87698531D01*
X192819389Y-87698531D01*
X192861401Y-87988019D01*
X192959081Y-88263747D01*
X193032528Y-88401157D01*
X193281603Y-88478792D01*
X194130395Y-87630000D01*
X194489605Y-87630000D01*
X195338397Y-88478792D01*
X195580000Y-88403486D01*
X195821603Y-88478792D01*
X196670395Y-87630000D01*
X197029605Y-87630000D01*
X197878397Y-88478792D01*
X198127472Y-88401157D01*
X198253371Y-88137117D01*
X198325339Y-87853589D01*
X198340611Y-87561469D01*
X198298599Y-87271981D01*
X198200919Y-86996253D01*
X198127472Y-86858843D01*
X197878397Y-86781208D01*
X197029605Y-87630000D01*
X196670395Y-87630000D01*
X195821603Y-86781208D01*
X195580000Y-86856514D01*
X195338397Y-86781208D01*
X194489605Y-87630000D01*
X194130395Y-87630000D01*
X193281603Y-86781208D01*
X193032528Y-86858843D01*
X192906629Y-87122883D01*
X192834661Y-87406411D01*
X192819389Y-87698531D01*
X182230154Y-87698531D01*
X183810288Y-86118397D01*
X193461208Y-86118397D01*
X193536514Y-86360000D01*
X193461208Y-86601603D01*
X194310000Y-87450395D01*
X195158792Y-86601603D01*
X195083486Y-86360000D01*
X195158792Y-86118397D01*
X196001208Y-86118397D01*
X196076514Y-86360000D01*
X196001208Y-86601603D01*
X196850000Y-87450395D01*
X197698792Y-86601603D01*
X197623486Y-86360000D01*
X197698792Y-86118397D01*
X196850000Y-85269605D01*
X196001208Y-86118397D01*
X195158792Y-86118397D01*
X194310000Y-85269605D01*
X193461208Y-86118397D01*
X183810288Y-86118397D01*
X184770154Y-85158531D01*
X192819389Y-85158531D01*
X192861401Y-85448019D01*
X192959081Y-85723747D01*
X193032528Y-85861157D01*
X193281603Y-85938792D01*
X194130395Y-85090000D01*
X194489605Y-85090000D01*
X195338397Y-85938792D01*
X195580000Y-85863486D01*
X195821603Y-85938792D01*
X196670395Y-85090000D01*
X197029605Y-85090000D01*
X197878397Y-85938792D01*
X198127472Y-85861157D01*
X198253371Y-85597117D01*
X198325339Y-85313589D01*
X198340611Y-85021469D01*
X198298599Y-84731981D01*
X198200919Y-84456253D01*
X198127472Y-84318843D01*
X197878397Y-84241208D01*
X197029605Y-85090000D01*
X196670395Y-85090000D01*
X195821603Y-84241208D01*
X195580000Y-84316514D01*
X195338397Y-84241208D01*
X194489605Y-85090000D01*
X194130395Y-85090000D01*
X193281603Y-84241208D01*
X193032528Y-84318843D01*
X192906629Y-84582883D01*
X192834661Y-84866411D01*
X192819389Y-85158531D01*
X184770154Y-85158531D01*
X188533686Y-81395000D01*
X193365650Y-81395000D01*
X193363368Y-81396525D01*
X193156525Y-81603368D01*
X192994010Y-81846589D01*
X192882068Y-82116842D01*
X192825000Y-82403740D01*
X192825000Y-82696260D01*
X192882068Y-82983158D01*
X192994010Y-83253411D01*
X193156525Y-83496632D01*
X193363368Y-83703475D01*
X193536729Y-83819311D01*
X193461208Y-84061603D01*
X194310000Y-84910395D01*
X195158792Y-84061603D01*
X195083271Y-83819311D01*
X195256632Y-83703475D01*
X195463475Y-83496632D01*
X195580000Y-83322240D01*
X195696525Y-83496632D01*
X195903368Y-83703475D01*
X196076729Y-83819311D01*
X196001208Y-84061603D01*
X196850000Y-84910395D01*
X197698792Y-84061603D01*
X197623271Y-83819311D01*
X197796632Y-83703475D01*
X198003475Y-83496632D01*
X198165990Y-83253411D01*
X198277932Y-82983158D01*
X198335000Y-82696260D01*
X198335000Y-82403740D01*
X198277932Y-82116842D01*
X198165990Y-81846589D01*
X198003475Y-81603368D01*
X197796632Y-81396525D01*
X197622240Y-81280000D01*
X197796632Y-81163475D01*
X198003475Y-80956632D01*
X198165990Y-80713411D01*
X198277932Y-80443158D01*
X198335000Y-80156260D01*
X198335000Y-79863740D01*
X198277932Y-79576842D01*
X198165990Y-79306589D01*
X198003475Y-79063368D01*
X197796632Y-78856525D01*
X197622240Y-78740000D01*
X197796632Y-78623475D01*
X198003475Y-78416632D01*
X198165990Y-78173411D01*
X198277932Y-77903158D01*
X198335000Y-77616260D01*
X198335000Y-77323740D01*
X198277932Y-77036842D01*
X198165990Y-76766589D01*
X198003475Y-76523368D01*
X197796632Y-76316525D01*
X197622240Y-76200000D01*
X197796632Y-76083475D01*
X198003475Y-75876632D01*
X198165990Y-75633411D01*
X198277932Y-75363158D01*
X198335000Y-75076260D01*
X198335000Y-74783740D01*
X198277932Y-74496842D01*
X198165990Y-74226589D01*
X198003475Y-73983368D01*
X197796632Y-73776525D01*
X197553411Y-73614010D01*
X197283158Y-73502068D01*
X196996260Y-73445000D01*
X196703740Y-73445000D01*
X196416842Y-73502068D01*
X196146589Y-73614010D01*
X195903368Y-73776525D01*
X195696525Y-73983368D01*
X195580000Y-74157760D01*
X195463475Y-73983368D01*
X195256632Y-73776525D01*
X195013411Y-73614010D01*
X194743158Y-73502068D01*
X194456260Y-73445000D01*
X194163740Y-73445000D01*
X193876842Y-73502068D01*
X193606589Y-73614010D01*
X193363368Y-73776525D01*
X193156525Y-73983368D01*
X192994010Y-74226589D01*
X192882068Y-74496842D01*
X192825000Y-74783740D01*
X192825000Y-75076260D01*
X192882068Y-75363158D01*
X192994010Y-75633411D01*
X193156525Y-75876632D01*
X193363368Y-76083475D01*
X193537760Y-76200000D01*
X193363368Y-76316525D01*
X193156525Y-76523368D01*
X192994010Y-76766589D01*
X192882068Y-77036842D01*
X192825000Y-77323740D01*
X192825000Y-77616260D01*
X192882068Y-77903158D01*
X192994010Y-78173411D01*
X193156525Y-78416632D01*
X193363368Y-78623475D01*
X193365650Y-78625000D01*
X188028026Y-78625000D01*
X187959999Y-78618300D01*
X187891972Y-78625000D01*
X187891963Y-78625000D01*
X187688493Y-78645040D01*
X187427419Y-78724236D01*
X187186812Y-78852843D01*
X187165906Y-78870000D01*
X187028766Y-78982548D01*
X187028764Y-78982550D01*
X186975919Y-79025919D01*
X186932550Y-79078764D01*
X179893315Y-86118000D01*
X177085511Y-86118000D01*
X177139815Y-86072437D01*
X177334469Y-85829923D01*
X177478071Y-85554094D01*
X177549063Y-85335980D01*
X177429094Y-85090000D01*
X176085500Y-85090000D01*
X176085500Y-85110000D01*
X175831500Y-85110000D01*
X175831500Y-85090000D01*
X174487906Y-85090000D01*
X174367937Y-85335980D01*
X174438929Y-85554094D01*
X174582531Y-85829923D01*
X174777185Y-86072437D01*
X174831489Y-86118000D01*
X170375026Y-86118000D01*
X170306999Y-86111300D01*
X170238972Y-86118000D01*
X170238963Y-86118000D01*
X170035493Y-86138040D01*
X169774419Y-86217236D01*
X169533812Y-86345843D01*
X169518609Y-86358320D01*
X169375766Y-86475548D01*
X169375764Y-86475550D01*
X169322919Y-86518919D01*
X169279550Y-86571764D01*
X164698163Y-91153152D01*
X164688787Y-91089870D01*
X164593603Y-90823708D01*
X164526671Y-90698486D01*
X164282702Y-90626903D01*
X163469605Y-91440000D01*
X163483748Y-91454143D01*
X163304143Y-91633748D01*
X163290000Y-91619605D01*
X163275858Y-91633748D01*
X163096253Y-91454143D01*
X163110395Y-91440000D01*
X163096253Y-91425858D01*
X163275858Y-91246253D01*
X163290000Y-91260395D01*
X164103097Y-90447298D01*
X164031514Y-90203329D01*
X163776004Y-90082429D01*
X163501816Y-90013700D01*
X163219488Y-89999783D01*
X162939870Y-90041213D01*
X162673708Y-90136397D01*
X162551691Y-90201616D01*
X162541185Y-90188815D01*
X162444494Y-90109463D01*
X162334180Y-90050498D01*
X162214482Y-90014188D01*
X162090000Y-90001928D01*
X160490000Y-90001928D01*
X160365518Y-90014188D01*
X160245820Y-90050498D01*
X160135506Y-90109463D01*
X160038815Y-90188815D01*
X159959463Y-90285506D01*
X159900498Y-90395820D01*
X159864188Y-90515518D01*
X159851928Y-90640000D01*
X159851928Y-92240000D01*
X159864188Y-92364482D01*
X159900498Y-92484180D01*
X159905000Y-92492603D01*
X159905000Y-92641971D01*
X159898300Y-92710000D01*
X159905000Y-92778029D01*
X159905000Y-92778037D01*
X159925040Y-92981507D01*
X160004236Y-93242581D01*
X160132844Y-93483188D01*
X160262548Y-93641233D01*
X160262549Y-93641234D01*
X160305920Y-93694081D01*
X160358764Y-93737449D01*
X161532550Y-94911236D01*
X161575919Y-94964081D01*
X161628764Y-95007450D01*
X161628766Y-95007452D01*
X161741099Y-95099641D01*
X161786812Y-95137157D01*
X162027419Y-95265764D01*
X162288493Y-95344960D01*
X162491963Y-95365000D01*
X162491972Y-95365000D01*
X162559999Y-95371700D01*
X162628026Y-95365000D01*
X163761971Y-95365000D01*
X163824742Y-95371182D01*
X156199145Y-102996780D01*
X156126444Y-103056444D01*
X155888387Y-103346518D01*
X155777691Y-103553615D01*
X154345000Y-102120925D01*
X154345000Y-92876847D01*
X154654250Y-92875000D01*
X154813000Y-92716250D01*
X154813000Y-91567000D01*
X155067000Y-91567000D01*
X155067000Y-92716250D01*
X155225750Y-92875000D01*
X155740000Y-92878072D01*
X155864482Y-92865812D01*
X155984180Y-92829502D01*
X156094494Y-92770537D01*
X156191185Y-92691185D01*
X156270537Y-92594494D01*
X156329502Y-92484180D01*
X156365812Y-92364482D01*
X156378072Y-92240000D01*
X156375000Y-91725750D01*
X156216250Y-91567000D01*
X155067000Y-91567000D01*
X154813000Y-91567000D01*
X154793000Y-91567000D01*
X154793000Y-91313000D01*
X154813000Y-91313000D01*
X154813000Y-90163750D01*
X155067000Y-90163750D01*
X155067000Y-91313000D01*
X156216250Y-91313000D01*
X156375000Y-91154250D01*
X156378072Y-90640000D01*
X156365812Y-90515518D01*
X156329502Y-90395820D01*
X156270537Y-90285506D01*
X156191185Y-90188815D01*
X156094494Y-90109463D01*
X155984180Y-90050498D01*
X155864482Y-90014188D01*
X155740000Y-90001928D01*
X155225750Y-90005000D01*
X155067000Y-90163750D01*
X154813000Y-90163750D01*
X154654250Y-90005000D01*
X154140000Y-90001928D01*
X154015518Y-90014188D01*
X153895820Y-90050498D01*
X153804232Y-90099453D01*
X153793556Y-90086444D01*
X153720865Y-90026788D01*
X152213220Y-88519145D01*
X152153557Y-88446445D01*
X151863483Y-88208388D01*
X151532540Y-88031495D01*
X151173446Y-87922565D01*
X150893583Y-87895001D01*
X150893581Y-87895001D01*
X150800001Y-87885784D01*
X150706421Y-87895001D01*
X147358442Y-87895001D01*
X147385000Y-87761486D01*
X147385000Y-87498514D01*
X147333696Y-87240595D01*
X147233061Y-86997641D01*
X147086962Y-86778987D01*
X147032975Y-86725000D01*
X161209681Y-86725000D01*
X161290000Y-86732911D01*
X161370319Y-86725000D01*
X161370322Y-86725000D01*
X161610516Y-86701343D01*
X161918715Y-86607852D01*
X162202752Y-86456031D01*
X162451714Y-86251714D01*
X162502925Y-86189313D01*
X164929320Y-83762919D01*
X164991714Y-83711714D01*
X165196031Y-83462752D01*
X165347852Y-83178715D01*
X165441343Y-82870516D01*
X165465000Y-82630322D01*
X165465000Y-82630320D01*
X165472911Y-82550001D01*
X165465000Y-82469681D01*
X165465000Y-78659678D01*
X165441343Y-78419484D01*
X165347852Y-78111285D01*
X165268072Y-77962027D01*
X165268072Y-77940000D01*
X165255812Y-77815518D01*
X165219502Y-77695820D01*
X165160537Y-77585506D01*
X165081185Y-77488815D01*
X164984494Y-77409463D01*
X164874180Y-77350498D01*
X164754482Y-77314188D01*
X164630000Y-77301928D01*
X164607973Y-77301928D01*
X164458715Y-77222148D01*
X164150516Y-77128657D01*
X163830000Y-77097089D01*
X163509485Y-77128657D01*
X163201286Y-77222148D01*
X163052028Y-77301928D01*
X163030000Y-77301928D01*
X162905518Y-77314188D01*
X162785820Y-77350498D01*
X162675506Y-77409463D01*
X162578815Y-77488815D01*
X162568193Y-77501758D01*
X162316004Y-77382429D01*
X162041816Y-77313700D01*
X161759488Y-77299783D01*
X161479870Y-77341213D01*
X161213708Y-77436397D01*
X161088486Y-77503329D01*
X161016903Y-77747298D01*
X161830000Y-78560395D01*
X161844143Y-78546253D01*
X162023748Y-78725858D01*
X162009605Y-78740000D01*
X162023748Y-78754143D01*
X161844143Y-78933748D01*
X161830000Y-78919605D01*
X161016903Y-79732702D01*
X161088486Y-79976671D01*
X161343996Y-80097571D01*
X161618184Y-80166300D01*
X161900512Y-80180217D01*
X162180130Y-80138787D01*
X162195001Y-80133469D01*
X162195000Y-81872761D01*
X160612762Y-83455000D01*
X160135000Y-83455000D01*
X160135000Y-78810512D01*
X160389783Y-78810512D01*
X160431213Y-79090130D01*
X160526397Y-79356292D01*
X160593329Y-79481514D01*
X160837298Y-79553097D01*
X161650395Y-78740000D01*
X160837298Y-77926903D01*
X160593329Y-77998486D01*
X160472429Y-78253996D01*
X160403700Y-78528184D01*
X160389783Y-78810512D01*
X160135000Y-78810512D01*
X160135000Y-76773685D01*
X163133686Y-73775000D01*
X165351815Y-73775000D01*
X174320428Y-82743614D01*
X174320428Y-83375500D01*
X174332688Y-83499982D01*
X174368998Y-83619680D01*
X174427963Y-83729994D01*
X174507315Y-83826685D01*
X174604006Y-83906037D01*
X174695719Y-83955059D01*
X174582531Y-84096077D01*
X174438929Y-84371906D01*
X174367937Y-84590020D01*
X174487906Y-84836000D01*
X175831500Y-84836000D01*
X175831500Y-84816000D01*
X176085500Y-84816000D01*
X176085500Y-84836000D01*
X177429094Y-84836000D01*
X177549063Y-84590020D01*
X177478071Y-84371906D01*
X177334469Y-84096077D01*
X177221281Y-83955059D01*
X177312994Y-83906037D01*
X177409685Y-83826685D01*
X177489037Y-83729994D01*
X177548002Y-83619680D01*
X177584312Y-83499982D01*
X177596572Y-83375500D01*
X177596572Y-81470500D01*
X177584312Y-81346018D01*
X177548002Y-81226320D01*
X177489037Y-81116006D01*
X177409685Y-81019315D01*
X177312994Y-80939963D01*
X177202680Y-80880998D01*
X177082982Y-80844688D01*
X176958500Y-80832428D01*
X176326614Y-80832428D01*
X166952954Y-71458769D01*
X166909581Y-71405919D01*
X166698688Y-71232843D01*
X166458081Y-71104236D01*
X166197007Y-71025040D01*
X165993537Y-71005000D01*
X165993529Y-71005000D01*
X165925500Y-70998300D01*
X165857471Y-71005000D01*
X162628029Y-71005000D01*
X162560000Y-70998300D01*
X162491971Y-71005000D01*
X162491963Y-71005000D01*
X162288493Y-71025040D01*
X162027419Y-71104236D01*
X161786812Y-71232843D01*
X161628766Y-71362548D01*
X161628764Y-71362550D01*
X161575919Y-71405919D01*
X161532550Y-71458764D01*
X157818765Y-75172550D01*
X157765919Y-75215920D01*
X157592843Y-75426813D01*
X157523907Y-75555783D01*
X157464236Y-75667420D01*
X157412126Y-75839205D01*
X157385040Y-75928494D01*
X157365000Y-76131964D01*
X157365000Y-76131971D01*
X157358300Y-76200000D01*
X157365000Y-76268029D01*
X157365001Y-83455000D01*
X147032975Y-83455000D01*
X147086962Y-83401013D01*
X147233061Y-83182359D01*
X147333696Y-82939405D01*
X147385000Y-82681486D01*
X147385000Y-82418514D01*
X147333696Y-82160595D01*
X147233061Y-81917641D01*
X147086962Y-81698987D01*
X146901013Y-81513038D01*
X146682359Y-81366939D01*
X146439405Y-81266304D01*
X146181486Y-81215000D01*
X145918514Y-81215000D01*
X145660595Y-81266304D01*
X145417641Y-81366939D01*
X145198987Y-81513038D01*
X145013038Y-81698987D01*
X144866939Y-81917641D01*
X144766304Y-82160595D01*
X144715000Y-82418514D01*
X144715000Y-82681486D01*
X144766304Y-82939405D01*
X144866939Y-83182359D01*
X145013038Y-83401013D01*
X145067025Y-83455000D01*
X141952975Y-83455000D01*
X142006962Y-83401013D01*
X142153061Y-83182359D01*
X142253696Y-82939405D01*
X142305000Y-82681486D01*
X142305000Y-82418514D01*
X142253696Y-82160595D01*
X142153061Y-81917641D01*
X142006962Y-81698987D01*
X141821013Y-81513038D01*
X141602359Y-81366939D01*
X141359405Y-81266304D01*
X141101486Y-81215000D01*
X140838514Y-81215000D01*
X140580595Y-81266304D01*
X140337641Y-81366939D01*
X140118987Y-81513038D01*
X139933038Y-81698987D01*
X139786939Y-81917641D01*
X139686304Y-82160595D01*
X139635000Y-82418514D01*
X139635000Y-82681486D01*
X139686304Y-82939405D01*
X139786939Y-83182359D01*
X139933038Y-83401013D01*
X139987025Y-83455000D01*
X136567239Y-83455000D01*
X135255000Y-82142762D01*
X135255000Y-81512209D01*
X135264217Y-81418629D01*
X135252116Y-81295764D01*
X135227436Y-81045185D01*
X135118506Y-80686091D01*
X135027056Y-80515000D01*
X134941613Y-80355147D01*
X134778390Y-80156260D01*
X134703556Y-80065074D01*
X134630866Y-80005419D01*
X131963960Y-77338514D01*
X139635000Y-77338514D01*
X139635000Y-77601486D01*
X139686304Y-77859405D01*
X139786939Y-78102359D01*
X139933038Y-78321013D01*
X140118987Y-78506962D01*
X140337641Y-78653061D01*
X140580595Y-78753696D01*
X140838514Y-78805000D01*
X141101486Y-78805000D01*
X141359405Y-78753696D01*
X141602359Y-78653061D01*
X141821013Y-78506962D01*
X142006962Y-78321013D01*
X142153061Y-78102359D01*
X142253696Y-77859405D01*
X142305000Y-77601486D01*
X142305000Y-77338514D01*
X144715000Y-77338514D01*
X144715000Y-77601486D01*
X144766304Y-77859405D01*
X144866939Y-78102359D01*
X145013038Y-78321013D01*
X145198987Y-78506962D01*
X145417641Y-78653061D01*
X145660595Y-78753696D01*
X145918514Y-78805000D01*
X146181486Y-78805000D01*
X146439405Y-78753696D01*
X146682359Y-78653061D01*
X146901013Y-78506962D01*
X147086962Y-78321013D01*
X147233061Y-78102359D01*
X147300312Y-77940000D01*
X150961928Y-77940000D01*
X150961928Y-79540000D01*
X150974188Y-79664482D01*
X151010498Y-79784180D01*
X151069463Y-79894494D01*
X151148815Y-79991185D01*
X151245506Y-80070537D01*
X151355820Y-80129502D01*
X151475518Y-80165812D01*
X151600000Y-80178072D01*
X153200000Y-80178072D01*
X153324482Y-80165812D01*
X153444180Y-80129502D01*
X153554494Y-80070537D01*
X153651185Y-79991185D01*
X153730537Y-79894494D01*
X153789502Y-79784180D01*
X153805117Y-79732702D01*
X154086903Y-79732702D01*
X154158486Y-79976671D01*
X154413996Y-80097571D01*
X154688184Y-80166300D01*
X154970512Y-80180217D01*
X155250130Y-80138787D01*
X155516292Y-80043603D01*
X155641514Y-79976671D01*
X155713097Y-79732702D01*
X154900000Y-78919605D01*
X154086903Y-79732702D01*
X153805117Y-79732702D01*
X153825812Y-79664482D01*
X153838072Y-79540000D01*
X153838072Y-79532785D01*
X153907298Y-79553097D01*
X154720395Y-78740000D01*
X155079605Y-78740000D01*
X155892702Y-79553097D01*
X156136671Y-79481514D01*
X156257571Y-79226004D01*
X156326300Y-78951816D01*
X156340217Y-78669488D01*
X156298787Y-78389870D01*
X156203603Y-78123708D01*
X156136671Y-77998486D01*
X155892702Y-77926903D01*
X155079605Y-78740000D01*
X154720395Y-78740000D01*
X153907298Y-77926903D01*
X153838072Y-77947215D01*
X153838072Y-77940000D01*
X153825812Y-77815518D01*
X153805118Y-77747298D01*
X154086903Y-77747298D01*
X154900000Y-78560395D01*
X155713097Y-77747298D01*
X155641514Y-77503329D01*
X155386004Y-77382429D01*
X155111816Y-77313700D01*
X154829488Y-77299783D01*
X154549870Y-77341213D01*
X154283708Y-77436397D01*
X154158486Y-77503329D01*
X154086903Y-77747298D01*
X153805118Y-77747298D01*
X153789502Y-77695820D01*
X153730537Y-77585506D01*
X153651185Y-77488815D01*
X153554494Y-77409463D01*
X153444180Y-77350498D01*
X153324482Y-77314188D01*
X153200000Y-77301928D01*
X151600000Y-77301928D01*
X151475518Y-77314188D01*
X151355820Y-77350498D01*
X151245506Y-77409463D01*
X151148815Y-77488815D01*
X151069463Y-77585506D01*
X151010498Y-77695820D01*
X150974188Y-77815518D01*
X150961928Y-77940000D01*
X147300312Y-77940000D01*
X147333696Y-77859405D01*
X147385000Y-77601486D01*
X147385000Y-77338514D01*
X147333696Y-77080595D01*
X147233061Y-76837641D01*
X147086962Y-76618987D01*
X146901013Y-76433038D01*
X146682359Y-76286939D01*
X146439405Y-76186304D01*
X146181486Y-76135000D01*
X145918514Y-76135000D01*
X145660595Y-76186304D01*
X145417641Y-76286939D01*
X145198987Y-76433038D01*
X145013038Y-76618987D01*
X144866939Y-76837641D01*
X144766304Y-77080595D01*
X144715000Y-77338514D01*
X142305000Y-77338514D01*
X142253696Y-77080595D01*
X142153061Y-76837641D01*
X142006962Y-76618987D01*
X141821013Y-76433038D01*
X141602359Y-76286939D01*
X141359405Y-76186304D01*
X141101486Y-76135000D01*
X140838514Y-76135000D01*
X140580595Y-76186304D01*
X140337641Y-76286939D01*
X140118987Y-76433038D01*
X139933038Y-76618987D01*
X139786939Y-76837641D01*
X139686304Y-77080595D01*
X139635000Y-77338514D01*
X131963960Y-77338514D01*
X130814590Y-76189145D01*
X130754926Y-76116444D01*
X130464852Y-75878387D01*
X130133909Y-75701494D01*
X129774815Y-75592564D01*
X129494952Y-75565000D01*
X129494950Y-75565000D01*
X129401370Y-75555783D01*
X129307790Y-75565000D01*
X119286418Y-75565000D01*
X119006555Y-75592564D01*
X118876789Y-75631928D01*
X118180000Y-75631928D01*
X118055518Y-75644188D01*
X117935820Y-75680498D01*
X117825506Y-75739463D01*
X117728815Y-75818815D01*
X117649463Y-75915506D01*
X117590498Y-76025820D01*
X117554188Y-76145518D01*
X117541928Y-76270000D01*
X117541928Y-76966789D01*
X117502564Y-77096555D01*
X117465783Y-77470000D01*
X100484075Y-77470000D01*
X104150860Y-73803216D01*
X104223556Y-73743556D01*
X104458924Y-73456759D01*
X104461613Y-73453483D01*
X104575180Y-73241013D01*
X104638506Y-73122539D01*
X104747436Y-72763445D01*
X104775000Y-72483582D01*
X104775000Y-72483580D01*
X104784217Y-72390000D01*
X104775000Y-72296420D01*
X104775000Y-71247980D01*
X118281626Y-71247980D01*
X118401514Y-71532836D01*
X118725210Y-71693699D01*
X119074069Y-71788322D01*
X119434684Y-71813067D01*
X119793198Y-71766985D01*
X120135833Y-71651846D01*
X120358486Y-71532836D01*
X120478374Y-71247980D01*
X119380000Y-70149605D01*
X118281626Y-71247980D01*
X104775000Y-71247980D01*
X104775000Y-70024684D01*
X117536933Y-70024684D01*
X117583015Y-70383198D01*
X117698154Y-70725833D01*
X117817164Y-70948486D01*
X118102020Y-71068374D01*
X119200395Y-69970000D01*
X119559605Y-69970000D01*
X120657980Y-71068374D01*
X120941336Y-70949117D01*
X130345000Y-70949117D01*
X130345000Y-71290883D01*
X130411675Y-71626081D01*
X130542463Y-71941831D01*
X130732337Y-72225998D01*
X130974002Y-72467663D01*
X131258169Y-72657537D01*
X131573919Y-72788325D01*
X131909117Y-72855000D01*
X132250883Y-72855000D01*
X132586081Y-72788325D01*
X132742995Y-72723329D01*
X139677284Y-72723329D01*
X139709953Y-72831044D01*
X139820208Y-73068392D01*
X139974649Y-73279670D01*
X140167340Y-73456759D01*
X140390877Y-73592853D01*
X140636670Y-73682722D01*
X140843000Y-73560201D01*
X140843000Y-72517000D01*
X141097000Y-72517000D01*
X141097000Y-73560201D01*
X141303330Y-73682722D01*
X141549123Y-73592853D01*
X141772660Y-73456759D01*
X141965351Y-73279670D01*
X142119792Y-73068392D01*
X142230047Y-72831044D01*
X142262716Y-72723329D01*
X142139374Y-72517000D01*
X141097000Y-72517000D01*
X140843000Y-72517000D01*
X139800626Y-72517000D01*
X139677284Y-72723329D01*
X132742995Y-72723329D01*
X132901831Y-72657537D01*
X133185998Y-72467663D01*
X133427663Y-72225998D01*
X133540803Y-72056671D01*
X139677284Y-72056671D01*
X139800626Y-72263000D01*
X140843000Y-72263000D01*
X140843000Y-71219799D01*
X141097000Y-71219799D01*
X141097000Y-72263000D01*
X142139374Y-72263000D01*
X142142055Y-72258514D01*
X144715000Y-72258514D01*
X144715000Y-72521486D01*
X144766304Y-72779405D01*
X144866939Y-73022359D01*
X145013038Y-73241013D01*
X145198987Y-73426962D01*
X145417641Y-73573061D01*
X145660595Y-73673696D01*
X145918514Y-73725000D01*
X146181486Y-73725000D01*
X146439405Y-73673696D01*
X146682359Y-73573061D01*
X146901013Y-73426962D01*
X147086962Y-73241013D01*
X147233061Y-73022359D01*
X147333696Y-72779405D01*
X147385000Y-72521486D01*
X147385000Y-72258514D01*
X147333696Y-72000595D01*
X147233061Y-71757641D01*
X147086962Y-71538987D01*
X146901013Y-71353038D01*
X146682359Y-71206939D01*
X146439405Y-71106304D01*
X146181486Y-71055000D01*
X145918514Y-71055000D01*
X145660595Y-71106304D01*
X145417641Y-71206939D01*
X145198987Y-71353038D01*
X145013038Y-71538987D01*
X144866939Y-71757641D01*
X144766304Y-72000595D01*
X144715000Y-72258514D01*
X142142055Y-72258514D01*
X142262716Y-72056671D01*
X142230047Y-71948956D01*
X142119792Y-71711608D01*
X141965351Y-71500330D01*
X141772660Y-71323241D01*
X141549123Y-71187147D01*
X141303330Y-71097278D01*
X141097000Y-71219799D01*
X140843000Y-71219799D01*
X140636670Y-71097278D01*
X140390877Y-71187147D01*
X140167340Y-71323241D01*
X139974649Y-71500330D01*
X139820208Y-71711608D01*
X139709953Y-71948956D01*
X139677284Y-72056671D01*
X133540803Y-72056671D01*
X133617537Y-71941831D01*
X133748325Y-71626081D01*
X133815000Y-71290883D01*
X133815000Y-70949117D01*
X133748325Y-70613919D01*
X133617537Y-70298169D01*
X133427663Y-70014002D01*
X133185998Y-69772337D01*
X132901831Y-69582463D01*
X132586081Y-69451675D01*
X132250883Y-69385000D01*
X131909117Y-69385000D01*
X131573919Y-69451675D01*
X131258169Y-69582463D01*
X130974002Y-69772337D01*
X130732337Y-70014002D01*
X130542463Y-70298169D01*
X130411675Y-70613919D01*
X130345000Y-70949117D01*
X120941336Y-70949117D01*
X120942836Y-70948486D01*
X121103699Y-70624790D01*
X121198322Y-70275931D01*
X121223067Y-69915316D01*
X121176985Y-69556802D01*
X121061846Y-69214167D01*
X120942836Y-68991514D01*
X120657980Y-68871626D01*
X119559605Y-69970000D01*
X119200395Y-69970000D01*
X118102020Y-68871626D01*
X117817164Y-68991514D01*
X117656301Y-69315210D01*
X117561678Y-69664069D01*
X117536933Y-70024684D01*
X104775000Y-70024684D01*
X104775000Y-68692020D01*
X118281626Y-68692020D01*
X119380000Y-69790395D01*
X120478374Y-68692020D01*
X120358486Y-68407164D01*
X120034790Y-68246301D01*
X119685931Y-68151678D01*
X119325316Y-68126933D01*
X118966802Y-68173015D01*
X118624167Y-68288154D01*
X118401514Y-68407164D01*
X118281626Y-68692020D01*
X104775000Y-68692020D01*
X104775000Y-63970000D01*
X140801928Y-63970000D01*
X140801928Y-65570000D01*
X140814188Y-65694482D01*
X140850498Y-65814180D01*
X140909463Y-65924494D01*
X140988815Y-66021185D01*
X141085506Y-66100537D01*
X141195820Y-66159502D01*
X141315518Y-66195812D01*
X141440000Y-66208072D01*
X143040000Y-66208072D01*
X143164482Y-66195812D01*
X143284180Y-66159502D01*
X143394494Y-66100537D01*
X143491185Y-66021185D01*
X143501807Y-66008242D01*
X143753996Y-66127571D01*
X144028184Y-66196300D01*
X144310512Y-66210217D01*
X144590130Y-66168787D01*
X144856292Y-66073603D01*
X144981514Y-66006671D01*
X145053097Y-65762702D01*
X144240000Y-64949605D01*
X144225858Y-64963748D01*
X144046253Y-64784143D01*
X144060395Y-64770000D01*
X144046253Y-64755858D01*
X144225858Y-64576253D01*
X144240000Y-64590395D01*
X144254143Y-64576253D01*
X144433748Y-64755858D01*
X144419605Y-64770000D01*
X145232702Y-65583097D01*
X145476671Y-65511514D01*
X145597571Y-65256004D01*
X145666300Y-64981816D01*
X145680217Y-64699488D01*
X145638787Y-64419870D01*
X145578039Y-64250000D01*
X155889428Y-64250000D01*
X155889428Y-64500000D01*
X155901688Y-64624482D01*
X155937998Y-64744180D01*
X155996963Y-64854494D01*
X156076315Y-64951185D01*
X156173006Y-65030537D01*
X156283320Y-65089502D01*
X156403018Y-65125812D01*
X156527500Y-65138072D01*
X158432500Y-65138072D01*
X158556982Y-65125812D01*
X158676680Y-65089502D01*
X158786994Y-65030537D01*
X158883685Y-64951185D01*
X158963037Y-64854494D01*
X159007905Y-64770553D01*
X159133766Y-64873845D01*
X159409552Y-65021255D01*
X159708797Y-65112030D01*
X160020000Y-65142681D01*
X160331204Y-65112030D01*
X160630449Y-65021255D01*
X160906235Y-64873845D01*
X161147963Y-64675463D01*
X161290000Y-64502391D01*
X161432037Y-64675463D01*
X161673766Y-64873845D01*
X161949552Y-65021255D01*
X162248797Y-65112030D01*
X162560000Y-65142681D01*
X162871204Y-65112030D01*
X163170449Y-65021255D01*
X163446235Y-64873845D01*
X163687963Y-64675463D01*
X163886345Y-64433734D01*
X164033755Y-64157948D01*
X164124530Y-63858703D01*
X164147500Y-63625485D01*
X164147500Y-63374514D01*
X164126920Y-63165560D01*
X197364045Y-63165560D01*
X197425932Y-63401368D01*
X197667790Y-63514266D01*
X197927027Y-63577811D01*
X198193680Y-63589561D01*
X198457501Y-63549063D01*
X198708353Y-63457875D01*
X198814068Y-63401368D01*
X198875955Y-63165560D01*
X198120000Y-62409605D01*
X197364045Y-63165560D01*
X164126920Y-63165560D01*
X164124530Y-63141296D01*
X164033755Y-62842051D01*
X163886345Y-62566265D01*
X163687963Y-62324537D01*
X163662549Y-62303680D01*
X196760439Y-62303680D01*
X196800937Y-62567501D01*
X196892125Y-62818353D01*
X196948632Y-62924068D01*
X197184440Y-62985955D01*
X197940395Y-62230000D01*
X198299605Y-62230000D01*
X199055560Y-62985955D01*
X199291368Y-62924068D01*
X199404266Y-62682210D01*
X199467811Y-62422973D01*
X199479561Y-62156320D01*
X199439063Y-61892499D01*
X199347875Y-61641647D01*
X199291368Y-61535932D01*
X199055560Y-61474045D01*
X198299605Y-62230000D01*
X197940395Y-62230000D01*
X197184440Y-61474045D01*
X196948632Y-61535932D01*
X196835734Y-61777790D01*
X196772189Y-62037027D01*
X196760439Y-62303680D01*
X163662549Y-62303680D01*
X163446234Y-62126155D01*
X163170448Y-61978745D01*
X162871203Y-61887970D01*
X162560000Y-61857319D01*
X162248796Y-61887970D01*
X161949551Y-61978745D01*
X161673765Y-62126155D01*
X161432037Y-62324537D01*
X161290000Y-62497609D01*
X161147963Y-62324537D01*
X160906234Y-62126155D01*
X160630448Y-61978745D01*
X160331203Y-61887970D01*
X160020000Y-61857319D01*
X159708796Y-61887970D01*
X159409551Y-61978745D01*
X159133765Y-62126155D01*
X159007905Y-62229446D01*
X158963037Y-62145506D01*
X158883685Y-62048815D01*
X158786994Y-61969463D01*
X158676680Y-61910498D01*
X158556982Y-61874188D01*
X158432500Y-61861928D01*
X157805940Y-61861928D01*
X157618188Y-61707843D01*
X157377581Y-61579236D01*
X157116507Y-61500040D01*
X156913037Y-61480000D01*
X156913029Y-61480000D01*
X156845000Y-61473300D01*
X156776971Y-61480000D01*
X142308037Y-61480000D01*
X142240000Y-61473299D01*
X142171964Y-61480000D01*
X142171963Y-61480000D01*
X141968493Y-61500040D01*
X141707419Y-61579236D01*
X141466812Y-61707843D01*
X141255919Y-61880919D01*
X141082843Y-62091812D01*
X140954236Y-62332419D01*
X140875040Y-62593493D01*
X140848299Y-62865000D01*
X140855001Y-62933046D01*
X140855001Y-63717396D01*
X140850498Y-63725820D01*
X140814188Y-63845518D01*
X140801928Y-63970000D01*
X104775000Y-63970000D01*
X104775000Y-60866418D01*
X104767387Y-60789117D01*
X111295000Y-60789117D01*
X111295000Y-61130883D01*
X111361675Y-61466081D01*
X111492463Y-61781831D01*
X111682337Y-62065998D01*
X111924002Y-62307663D01*
X112208169Y-62497537D01*
X112523919Y-62628325D01*
X112859117Y-62695000D01*
X113200883Y-62695000D01*
X113536081Y-62628325D01*
X113851831Y-62497537D01*
X114135998Y-62307663D01*
X114377663Y-62065998D01*
X114567537Y-61781831D01*
X114698325Y-61466081D01*
X114765000Y-61130883D01*
X114765000Y-60789117D01*
X114698325Y-60453919D01*
X114567537Y-60138169D01*
X114381671Y-59860000D01*
X130341928Y-59860000D01*
X130341928Y-62060000D01*
X130354188Y-62184482D01*
X130390498Y-62304180D01*
X130449463Y-62414494D01*
X130528815Y-62511185D01*
X130625506Y-62590537D01*
X130735820Y-62649502D01*
X130855518Y-62685812D01*
X130980000Y-62698072D01*
X133180000Y-62698072D01*
X133304482Y-62685812D01*
X133424180Y-62649502D01*
X133534494Y-62590537D01*
X133631185Y-62511185D01*
X133710537Y-62414494D01*
X133769502Y-62304180D01*
X133805812Y-62184482D01*
X133818072Y-62060000D01*
X133818072Y-59860000D01*
X133805812Y-59735518D01*
X133769502Y-59615820D01*
X133710537Y-59505506D01*
X133681294Y-59469872D01*
X176835000Y-59469872D01*
X176835000Y-59910128D01*
X176920890Y-60341925D01*
X177089369Y-60748669D01*
X177333962Y-61114729D01*
X177645271Y-61426038D01*
X178011331Y-61670631D01*
X178418075Y-61839110D01*
X178849872Y-61925000D01*
X179290128Y-61925000D01*
X179721925Y-61839110D01*
X180128669Y-61670631D01*
X180494729Y-61426038D01*
X180806038Y-61114729D01*
X181050631Y-60748669D01*
X181219110Y-60341925D01*
X181305000Y-59910128D01*
X181305000Y-59469872D01*
X181219110Y-59038075D01*
X181050631Y-58631331D01*
X180806038Y-58265271D01*
X180494729Y-57953962D01*
X180128669Y-57709369D01*
X179721925Y-57540890D01*
X179290128Y-57455000D01*
X178849872Y-57455000D01*
X178418075Y-57540890D01*
X178011331Y-57709369D01*
X177645271Y-57953962D01*
X177333962Y-58265271D01*
X177089369Y-58631331D01*
X176920890Y-59038075D01*
X176835000Y-59469872D01*
X133681294Y-59469872D01*
X133631185Y-59408815D01*
X133534494Y-59329463D01*
X133424180Y-59270498D01*
X133304482Y-59234188D01*
X133180000Y-59221928D01*
X130980000Y-59221928D01*
X130855518Y-59234188D01*
X130735820Y-59270498D01*
X130625506Y-59329463D01*
X130528815Y-59408815D01*
X130449463Y-59505506D01*
X130390498Y-59615820D01*
X130354188Y-59735518D01*
X130341928Y-59860000D01*
X114381671Y-59860000D01*
X114377663Y-59854002D01*
X114135998Y-59612337D01*
X113851831Y-59422463D01*
X113536081Y-59291675D01*
X113200883Y-59225000D01*
X112859117Y-59225000D01*
X112523919Y-59291675D01*
X112208169Y-59422463D01*
X111924002Y-59612337D01*
X111682337Y-59854002D01*
X111492463Y-60138169D01*
X111361675Y-60453919D01*
X111295000Y-60789117D01*
X104767387Y-60789117D01*
X104747436Y-60586555D01*
X104638506Y-60227461D01*
X104608072Y-60170523D01*
X104608072Y-59860000D01*
X104595812Y-59735518D01*
X104559502Y-59615820D01*
X104500537Y-59505506D01*
X104421185Y-59408815D01*
X104324494Y-59329463D01*
X104214180Y-59270498D01*
X104094482Y-59234188D01*
X103970000Y-59221928D01*
X103659477Y-59221928D01*
X103602539Y-59191494D01*
X103243445Y-59082564D01*
X102870000Y-59045783D01*
X102496556Y-59082564D01*
X102137462Y-59191494D01*
X102080524Y-59221928D01*
X101770000Y-59221928D01*
X101645518Y-59234188D01*
X101525820Y-59270498D01*
X101415506Y-59329463D01*
X101318815Y-59408815D01*
X101239463Y-59505506D01*
X101180498Y-59615820D01*
X101144188Y-59735518D01*
X101131928Y-59860000D01*
X101131928Y-60170525D01*
X101101495Y-60227461D01*
X100992565Y-60586555D01*
X100965001Y-60866418D01*
X100965000Y-71600924D01*
X96933997Y-75631928D01*
X96590000Y-75631928D01*
X96465518Y-75644188D01*
X96345820Y-75680498D01*
X96235506Y-75739463D01*
X96138815Y-75818815D01*
X96059463Y-75915506D01*
X96000498Y-76025820D01*
X95964188Y-76145518D01*
X95951928Y-76270000D01*
X95951928Y-76966793D01*
X95912565Y-77096555D01*
X95875783Y-77470000D01*
X85858072Y-77470000D01*
X85858072Y-76070000D01*
X85845812Y-75945518D01*
X85809502Y-75825820D01*
X85750537Y-75715506D01*
X85671185Y-75618815D01*
X85574494Y-75539463D01*
X85464180Y-75480498D01*
X85344482Y-75444188D01*
X85220000Y-75431928D01*
X82420000Y-75431928D01*
X82295518Y-75444188D01*
X82175820Y-75480498D01*
X82065506Y-75539463D01*
X81968815Y-75618815D01*
X81889463Y-75715506D01*
X81830498Y-75825820D01*
X81794188Y-75945518D01*
X81781928Y-76070000D01*
X72257311Y-76070000D01*
X72216865Y-75984230D01*
X71859108Y-75803403D01*
X71472947Y-75695845D01*
X71073223Y-75665690D01*
X70675296Y-75714096D01*
X70294460Y-75839205D01*
X70023135Y-75984230D01*
X69879158Y-76289553D01*
X61620000Y-76289553D01*
X61620000Y-71247980D01*
X96691626Y-71247980D01*
X96811514Y-71532836D01*
X97135210Y-71693699D01*
X97484069Y-71788322D01*
X97844684Y-71813067D01*
X98203198Y-71766985D01*
X98545833Y-71651846D01*
X98768486Y-71532836D01*
X98888374Y-71247980D01*
X97790000Y-70149605D01*
X96691626Y-71247980D01*
X61620000Y-71247980D01*
X61620000Y-70024684D01*
X95946933Y-70024684D01*
X95993015Y-70383198D01*
X96108154Y-70725833D01*
X96227164Y-70948486D01*
X96512020Y-71068374D01*
X97610395Y-69970000D01*
X97969605Y-69970000D01*
X99067980Y-71068374D01*
X99352836Y-70948486D01*
X99513699Y-70624790D01*
X99608322Y-70275931D01*
X99633067Y-69915316D01*
X99586985Y-69556802D01*
X99471846Y-69214167D01*
X99352836Y-68991514D01*
X99067980Y-68871626D01*
X97969605Y-69970000D01*
X97610395Y-69970000D01*
X96512020Y-68871626D01*
X96227164Y-68991514D01*
X96066301Y-69315210D01*
X95971678Y-69664069D01*
X95946933Y-70024684D01*
X61620000Y-70024684D01*
X61620000Y-68692020D01*
X96691626Y-68692020D01*
X97790000Y-69790395D01*
X98888374Y-68692020D01*
X98768486Y-68407164D01*
X98444790Y-68246301D01*
X98095931Y-68151678D01*
X97735316Y-68126933D01*
X97376802Y-68173015D01*
X97034167Y-68288154D01*
X96811514Y-68407164D01*
X96691626Y-68692020D01*
X61620000Y-68692020D01*
X61620000Y-59469872D01*
X65075000Y-59469872D01*
X65075000Y-59910128D01*
X65160890Y-60341925D01*
X65329369Y-60748669D01*
X65573962Y-61114729D01*
X65885271Y-61426038D01*
X66251331Y-61670631D01*
X66658075Y-61839110D01*
X67089872Y-61925000D01*
X67530128Y-61925000D01*
X67961925Y-61839110D01*
X68368669Y-61670631D01*
X68734729Y-61426038D01*
X69046038Y-61114729D01*
X69290631Y-60748669D01*
X69459110Y-60341925D01*
X69545000Y-59910128D01*
X69545000Y-59469872D01*
X69459110Y-59038075D01*
X69290631Y-58631331D01*
X69046038Y-58265271D01*
X68734729Y-57953962D01*
X68368669Y-57709369D01*
X67961925Y-57540890D01*
X67530128Y-57455000D01*
X67089872Y-57455000D01*
X66658075Y-57540890D01*
X66251331Y-57709369D01*
X65885271Y-57953962D01*
X65573962Y-58265271D01*
X65329369Y-58631331D01*
X65160890Y-59038075D01*
X65075000Y-59469872D01*
X61620000Y-59469872D01*
X61620000Y-57016544D01*
X196765000Y-57016544D01*
X196765000Y-57283456D01*
X196817072Y-57545239D01*
X196919215Y-57791833D01*
X197067503Y-58013762D01*
X197256238Y-58202497D01*
X197478167Y-58350785D01*
X197645266Y-58420000D01*
X197478167Y-58489215D01*
X197256238Y-58637503D01*
X197067503Y-58826238D01*
X196919215Y-59048167D01*
X196817072Y-59294761D01*
X196765000Y-59556544D01*
X196765000Y-59823456D01*
X196817072Y-60085239D01*
X196919215Y-60331833D01*
X197067503Y-60553762D01*
X197256238Y-60742497D01*
X197478167Y-60890785D01*
X197646324Y-60960438D01*
X197531647Y-61002125D01*
X197425932Y-61058632D01*
X197364045Y-61294440D01*
X198120000Y-62050395D01*
X198875955Y-61294440D01*
X198814068Y-61058632D01*
X198598993Y-60958236D01*
X198761833Y-60890785D01*
X198983762Y-60742497D01*
X199172497Y-60553762D01*
X199320785Y-60331833D01*
X199422928Y-60085239D01*
X199475000Y-59823456D01*
X199475000Y-59556544D01*
X199422928Y-59294761D01*
X199320785Y-59048167D01*
X199172497Y-58826238D01*
X198983762Y-58637503D01*
X198761833Y-58489215D01*
X198594734Y-58420000D01*
X198761833Y-58350785D01*
X198983762Y-58202497D01*
X199172497Y-58013762D01*
X199320785Y-57791833D01*
X199422928Y-57545239D01*
X199475000Y-57283456D01*
X199475000Y-57016544D01*
X199422928Y-56754761D01*
X199320785Y-56508167D01*
X199172497Y-56286238D01*
X198983762Y-56097503D01*
X198761833Y-55949215D01*
X198515239Y-55847072D01*
X198253456Y-55795000D01*
X197986544Y-55795000D01*
X197724761Y-55847072D01*
X197478167Y-55949215D01*
X197256238Y-56097503D01*
X197067503Y-56286238D01*
X196919215Y-56508167D01*
X196817072Y-56754761D01*
X196765000Y-57016544D01*
X61620000Y-57016544D01*
X61620000Y-54000000D01*
X202540001Y-54000000D01*
X202540000Y-113640000D01*
G37*
%TD.AperFunction*%
%TD*%
M02*
