%TF.GenerationSoftware,KiCad,Pcbnew,(5.1.10)-1*%
%TF.CreationDate,2021-09-17T22:04:39-04:00*%
%TF.ProjectId,Power Supply,506f7765-7220-4537-9570-706c792e6b69,rev?*%
%TF.SameCoordinates,Original*%
%TF.FileFunction,Copper,L2,Bot*%
%TF.FilePolarity,Positive*%
%FSLAX46Y46*%
G04 Gerber Fmt 4.6, Leading zero omitted, Abs format (unit mm)*
G04 Created by KiCad (PCBNEW (5.1.10)-1) date 2021-09-17 22:04:39*
%MOMM*%
%LPD*%
G01*
G04 APERTURE LIST*
%TA.AperFunction,ComponentPad*%
%ADD10C,1.700000*%
%TD*%
%TA.AperFunction,ComponentPad*%
%ADD11C,1.440000*%
%TD*%
%TA.AperFunction,ComponentPad*%
%ADD12C,2.800000*%
%TD*%
%TA.AperFunction,ComponentPad*%
%ADD13R,2.800000X2.800000*%
%TD*%
%TA.AperFunction,ComponentPad*%
%ADD14R,1.600000X1.600000*%
%TD*%
%TA.AperFunction,ComponentPad*%
%ADD15C,1.600000*%
%TD*%
%TA.AperFunction,ComponentPad*%
%ADD16R,2.400000X2.400000*%
%TD*%
%TA.AperFunction,ComponentPad*%
%ADD17C,2.400000*%
%TD*%
%TA.AperFunction,ComponentPad*%
%ADD18O,2.200000X2.200000*%
%TD*%
%TA.AperFunction,ComponentPad*%
%ADD19R,2.200000X2.200000*%
%TD*%
%TA.AperFunction,ComponentPad*%
%ADD20C,1.400000*%
%TD*%
%TA.AperFunction,ComponentPad*%
%ADD21O,1.400000X1.400000*%
%TD*%
%TA.AperFunction,ComponentPad*%
%ADD22R,1.905000X2.000000*%
%TD*%
%TA.AperFunction,ComponentPad*%
%ADD23O,1.905000X2.000000*%
%TD*%
%TA.AperFunction,ComponentPad*%
%ADD24R,2.000000X1.905000*%
%TD*%
%TA.AperFunction,ComponentPad*%
%ADD25O,2.000000X1.905000*%
%TD*%
%TA.AperFunction,Conductor*%
%ADD26C,2.540000*%
%TD*%
%TA.AperFunction,Conductor*%
%ADD27C,1.500000*%
%TD*%
%TA.AperFunction,Conductor*%
%ADD28C,1.000000*%
%TD*%
%TA.AperFunction,Conductor*%
%ADD29C,0.254000*%
%TD*%
%TA.AperFunction,Conductor*%
%ADD30C,0.100000*%
%TD*%
G04 APERTURE END LIST*
%TO.P,J2,1*%
%TO.N,Net-(C9-Pad2)*%
%TA.AperFunction,ComponentPad*%
G36*
G01*
X197700000Y-92110000D02*
X197700000Y-93310000D01*
G75*
G02*
X197450000Y-93560000I-250000J0D01*
G01*
X196250000Y-93560000D01*
G75*
G02*
X196000000Y-93310000I0J250000D01*
G01*
X196000000Y-92110000D01*
G75*
G02*
X196250000Y-91860000I250000J0D01*
G01*
X197450000Y-91860000D01*
G75*
G02*
X197700000Y-92110000I0J-250000D01*
G01*
G37*
%TD.AperFunction*%
D10*
%TO.P,J2,3*%
%TO.N,GND*%
X196850000Y-90170000D03*
%TO.P,J2,5*%
X196850000Y-87630000D03*
%TO.P,J2,7*%
X196850000Y-85090000D03*
%TO.P,J2,9*%
%TO.N,Net-(C1-Pad1)*%
X196850000Y-82550000D03*
%TO.P,J2,11*%
%TO.N,Net-(C12-Pad1)*%
X196850000Y-80010000D03*
%TO.P,J2,13*%
%TO.N,Net-(J2-Pad13)*%
X196850000Y-77470000D03*
%TO.P,J2,15*%
%TO.N,Net-(J2-Pad15)*%
X196850000Y-74930000D03*
%TO.P,J2,2*%
%TO.N,Net-(C9-Pad2)*%
X194310000Y-92710000D03*
%TO.P,J2,4*%
%TO.N,GND*%
X194310000Y-90170000D03*
%TO.P,J2,6*%
X194310000Y-87630000D03*
%TO.P,J2,8*%
X194310000Y-85090000D03*
%TO.P,J2,10*%
%TO.N,Net-(C1-Pad1)*%
X194310000Y-82550000D03*
%TO.P,J2,12*%
%TO.N,Net-(C12-Pad1)*%
X194310000Y-80010000D03*
%TO.P,J2,14*%
%TO.N,Net-(J2-Pad13)*%
X194310000Y-77470000D03*
%TO.P,J2,16*%
%TO.N,Net-(J2-Pad15)*%
X194310000Y-74930000D03*
%TD*%
D11*
%TO.P,RV4,1*%
%TO.N,Net-(R3-Pad2)*%
X198120000Y-57150000D03*
%TO.P,RV4,2*%
X198120000Y-59690000D03*
%TO.P,RV4,3*%
%TO.N,GND*%
X198120000Y-62230000D03*
%TD*%
%TO.P,RV8,3*%
%TO.N,GND*%
X198120000Y-105410000D03*
%TO.P,RV8,2*%
%TO.N,Net-(R7-Pad1)*%
X198120000Y-107950000D03*
%TO.P,RV8,1*%
X198120000Y-110490000D03*
%TD*%
D12*
%TO.P,BR1,4*%
%TO.N,Net-(BR1-Pad4)*%
X83820000Y-92710000D03*
%TO.P,BR1,3*%
%TO.N,Net-(BR1-Pad3)*%
X83820000Y-87630000D03*
%TO.P,BR1,2*%
%TO.N,Net-(BR1-Pad2)*%
X83820000Y-82550000D03*
D13*
%TO.P,BR1,1*%
%TO.N,Net-(BR1-Pad1)*%
X83820000Y-77470000D03*
%TD*%
D14*
%TO.P,C1,1*%
%TO.N,Net-(C1-Pad1)*%
X152400000Y-78740000D03*
D15*
%TO.P,C1,2*%
%TO.N,GND*%
X154900000Y-78740000D03*
%TD*%
%TO.P,C2,2*%
%TO.N,GND*%
X130850000Y-82550000D03*
%TO.P,C2,1*%
%TO.N,Net-(BR1-Pad1)*%
X133350000Y-82550000D03*
%TD*%
D14*
%TO.P,C3,1*%
%TO.N,Net-(C3-Pad1)*%
X142240000Y-64770000D03*
D15*
%TO.P,C3,2*%
%TO.N,GND*%
X144240000Y-64770000D03*
%TD*%
D16*
%TO.P,C4,1*%
%TO.N,Net-(BR1-Pad1)*%
X97790000Y-77470000D03*
D17*
%TO.P,C4,2*%
%TO.N,GND*%
X97790000Y-69970000D03*
%TD*%
D16*
%TO.P,C5,1*%
%TO.N,Net-(BR1-Pad1)*%
X119380000Y-77470000D03*
D17*
%TO.P,C5,2*%
%TO.N,GND*%
X119380000Y-69970000D03*
%TD*%
%TO.P,C6,2*%
%TO.N,Net-(BR1-Pad4)*%
X97790000Y-92830000D03*
D16*
%TO.P,C6,1*%
%TO.N,GND*%
X97790000Y-100330000D03*
%TD*%
D17*
%TO.P,C7,2*%
%TO.N,Net-(BR1-Pad4)*%
X119380000Y-92830000D03*
D16*
%TO.P,C7,1*%
%TO.N,GND*%
X119380000Y-100330000D03*
%TD*%
D15*
%TO.P,C8,1*%
%TO.N,GND*%
X133350000Y-87630000D03*
%TO.P,C8,2*%
%TO.N,Net-(BR1-Pad4)*%
X130850000Y-87630000D03*
%TD*%
%TO.P,C9,2*%
%TO.N,Net-(C9-Pad2)*%
X152440000Y-91440000D03*
D14*
%TO.P,C9,1*%
%TO.N,GND*%
X154940000Y-91440000D03*
%TD*%
D15*
%TO.P,C10,2*%
%TO.N,Net-(C10-Pad2)*%
X142780000Y-105410000D03*
D14*
%TO.P,C10,1*%
%TO.N,GND*%
X144780000Y-105410000D03*
%TD*%
%TO.P,C11,1*%
%TO.N,Net-(BR1-Pad1)*%
X163830000Y-78740000D03*
D15*
%TO.P,C11,2*%
%TO.N,GND*%
X161830000Y-78740000D03*
%TD*%
%TO.P,C12,2*%
%TO.N,GND*%
X163290000Y-91440000D03*
D14*
%TO.P,C12,1*%
%TO.N,Net-(C12-Pad1)*%
X161290000Y-91440000D03*
%TD*%
D18*
%TO.P,D1,2*%
%TO.N,Net-(C1-Pad1)*%
X113030000Y-60960000D03*
D19*
%TO.P,D1,1*%
%TO.N,Net-(BR1-Pad1)*%
X102870000Y-60960000D03*
%TD*%
%TO.P,D2,1*%
%TO.N,Net-(C1-Pad1)*%
X132080000Y-60960000D03*
D18*
%TO.P,D2,2*%
%TO.N,Net-(C3-Pad1)*%
X132080000Y-71120000D03*
%TD*%
%TO.P,D3,2*%
%TO.N,Net-(BR1-Pad4)*%
X104140000Y-109220000D03*
D19*
%TO.P,D3,1*%
%TO.N,Net-(C9-Pad2)*%
X114300000Y-109220000D03*
%TD*%
%TO.P,D4,1*%
%TO.N,Net-(C10-Pad2)*%
X129540000Y-109220000D03*
D18*
%TO.P,D4,2*%
%TO.N,Net-(C9-Pad2)*%
X119380000Y-109220000D03*
%TD*%
D13*
%TO.P,J1,1*%
%TO.N,Net-(BR1-Pad3)*%
X71120000Y-92710000D03*
D12*
%TO.P,J1,2*%
%TO.N,GND*%
X71120000Y-87710000D03*
%TO.P,J1,3*%
%TO.N,Net-(BR1-Pad2)*%
X71120000Y-82710000D03*
%TO.P,J1,4*%
%TO.N,GND*%
X71120000Y-77710000D03*
%TD*%
D20*
%TO.P,R1,1*%
%TO.N,Net-(C1-Pad1)*%
X146050000Y-77470000D03*
D21*
%TO.P,R1,2*%
%TO.N,Net-(C3-Pad1)*%
X140970000Y-77470000D03*
%TD*%
D20*
%TO.P,R2,1*%
%TO.N,Net-(C1-Pad1)*%
X146050000Y-72390000D03*
D21*
%TO.P,R2,2*%
%TO.N,GND*%
X140970000Y-72390000D03*
%TD*%
%TO.P,R3,2*%
%TO.N,Net-(R3-Pad2)*%
X146050000Y-82550000D03*
D20*
%TO.P,R3,1*%
%TO.N,Net-(C3-Pad1)*%
X140970000Y-82550000D03*
%TD*%
%TO.P,R5,1*%
%TO.N,Net-(C10-Pad2)*%
X146050000Y-92710000D03*
D21*
%TO.P,R5,2*%
%TO.N,Net-(C9-Pad2)*%
X140970000Y-92710000D03*
%TD*%
%TO.P,R6,2*%
%TO.N,Net-(C9-Pad2)*%
X140970000Y-97790000D03*
D20*
%TO.P,R6,1*%
%TO.N,GND*%
X146050000Y-97790000D03*
%TD*%
D21*
%TO.P,R7,2*%
%TO.N,Net-(C10-Pad2)*%
X146050000Y-87630000D03*
D20*
%TO.P,R7,1*%
%TO.N,Net-(R7-Pad1)*%
X140970000Y-87630000D03*
%TD*%
D22*
%TO.P,U1,1*%
%TO.N,Net-(C3-Pad1)*%
X157480000Y-63500000D03*
D23*
%TO.P,U1,2*%
%TO.N,Net-(C1-Pad1)*%
X160020000Y-63500000D03*
%TO.P,U1,3*%
%TO.N,Net-(BR1-Pad1)*%
X162560000Y-63500000D03*
%TD*%
%TO.P,U2,3*%
%TO.N,Net-(C9-Pad2)*%
X157480000Y-107950000D03*
%TO.P,U2,2*%
%TO.N,Net-(BR1-Pad4)*%
X160020000Y-107950000D03*
D22*
%TO.P,U2,1*%
%TO.N,Net-(C10-Pad2)*%
X162560000Y-107950000D03*
%TD*%
D24*
%TO.P,U3,1*%
%TO.N,Net-(BR1-Pad1)*%
X175958500Y-82423000D03*
D25*
%TO.P,U3,2*%
%TO.N,GND*%
X175958500Y-84963000D03*
%TO.P,U3,3*%
%TO.N,Net-(C12-Pad1)*%
X175958500Y-87503000D03*
%TD*%
D26*
%TO.N,Net-(BR1-Pad4)*%
X119380000Y-92830000D02*
X97790000Y-92830000D01*
X83940000Y-92830000D02*
X83820000Y-92710000D01*
X97790000Y-92830000D02*
X83940000Y-92830000D01*
X100330000Y-109220000D02*
X83820000Y-92710000D01*
X104140000Y-109220000D02*
X100330000Y-109220000D01*
D27*
X104140000Y-109220000D02*
X107950000Y-105410000D01*
X130850000Y-87630000D02*
X130850000Y-99020000D01*
X124460000Y-105410000D02*
X107950000Y-105410000D01*
X157440000Y-102870000D02*
X127000000Y-102870000D01*
X160020000Y-105450000D02*
X157440000Y-102870000D01*
X160020000Y-107950000D02*
X160020000Y-105450000D01*
X127000000Y-102870000D02*
X124460000Y-105410000D01*
X130850000Y-99020000D02*
X127000000Y-102870000D01*
D26*
%TO.N,Net-(BR1-Pad3)*%
X76200000Y-87630000D02*
X71120000Y-92710000D01*
X83820000Y-87630000D02*
X76200000Y-87630000D01*
%TO.N,Net-(BR1-Pad2)*%
X83660000Y-82710000D02*
X83820000Y-82550000D01*
X71120000Y-82710000D02*
X83660000Y-82710000D01*
%TO.N,Net-(BR1-Pad1)*%
X97790000Y-77470000D02*
X119380000Y-77470000D01*
X83820000Y-77470000D02*
X92710000Y-77470000D01*
X92710000Y-77470000D02*
X97790000Y-77470000D01*
D27*
X163830000Y-64770000D02*
X162560000Y-63500000D01*
X163830000Y-78740000D02*
X163830000Y-64770000D01*
%TO.N,Net-(C1-Pad1)*%
X157440000Y-68580000D02*
X149860000Y-68580000D01*
X160020000Y-66000000D02*
X157440000Y-68580000D01*
X160020000Y-63500000D02*
X160020000Y-66000000D01*
X146050000Y-77470000D02*
X146050000Y-72390000D01*
X146050000Y-72390000D02*
X149860000Y-68580000D01*
X143020002Y-60960000D02*
X132080000Y-60960000D01*
X149860000Y-67799998D02*
X143020002Y-60960000D01*
X149860000Y-68580000D02*
X149860000Y-67799998D01*
X132080000Y-60960000D02*
X113030000Y-60960000D01*
X146050000Y-77470000D02*
X152400000Y-77470000D01*
X152400000Y-77470000D02*
X152400000Y-78740000D01*
X194310000Y-82550000D02*
X196850000Y-82550000D01*
X198052081Y-82550000D02*
X200660000Y-79942081D01*
X196850000Y-82550000D02*
X198052081Y-82550000D01*
X165570010Y-55449990D02*
X160020000Y-61000000D01*
X198824167Y-55449990D02*
X165570010Y-55449990D01*
X160020000Y-61000000D02*
X160020000Y-63500000D01*
X200660000Y-57285823D02*
X198824167Y-55449990D01*
X200660000Y-79942081D02*
X200660000Y-57285823D01*
D26*
%TO.N,GND*%
X78860000Y-69970000D02*
X97790000Y-69970000D01*
X71120000Y-77710000D02*
X78860000Y-69970000D01*
X97790000Y-69970000D02*
X119380000Y-69970000D01*
X119380000Y-69970000D02*
X126880000Y-77470000D01*
X97790000Y-100330000D02*
X119380000Y-100330000D01*
D28*
X143510000Y-80010000D02*
X143740001Y-80240001D01*
D26*
X71120000Y-87710000D02*
X64850000Y-87710000D01*
X64850000Y-87710000D02*
X64770000Y-87630000D01*
X64770000Y-87630000D02*
X64770000Y-77470000D01*
X70880000Y-77470000D02*
X71120000Y-77710000D01*
X64770000Y-77470000D02*
X70880000Y-77470000D01*
D27*
X144240000Y-69120000D02*
X140970000Y-72390000D01*
X144240000Y-64770000D02*
X144240000Y-69120000D01*
X143510000Y-74930000D02*
X143510000Y-76200000D01*
X140970000Y-72390000D02*
X143510000Y-74930000D01*
X143510000Y-76200000D02*
X143510000Y-80010000D01*
X154900000Y-79871370D02*
X154900000Y-78740000D01*
X154281369Y-80490001D02*
X154900000Y-79871370D01*
X143990001Y-80490001D02*
X154281369Y-80490001D01*
X143740001Y-80240001D02*
X143990001Y-80490001D01*
X154900000Y-78740000D02*
X161830000Y-78740000D01*
X148590000Y-97790000D02*
X154940000Y-91440000D01*
X146050000Y-97790000D02*
X148590000Y-97790000D01*
X156690001Y-89689999D02*
X154940000Y-91440000D01*
X162850001Y-89689999D02*
X156690001Y-89689999D01*
X163290000Y-90129998D02*
X162850001Y-89689999D01*
X163290000Y-91440000D02*
X163290000Y-90129998D01*
X128270000Y-82550000D02*
X126880000Y-83940000D01*
X130850000Y-82550000D02*
X128270000Y-82550000D01*
D26*
X126880000Y-77470000D02*
X126880000Y-83940000D01*
D27*
X133350000Y-85050000D02*
X130850000Y-82550000D01*
X133350000Y-87630000D02*
X133350000Y-85050000D01*
D26*
X119380000Y-100330000D02*
X124460000Y-100330000D01*
X126880000Y-97910000D02*
X126880000Y-83940000D01*
X124460000Y-100330000D02*
X126880000Y-97910000D01*
D27*
X133350000Y-85050000D02*
X143470000Y-85050000D01*
X143740001Y-84779999D02*
X143740001Y-80240001D01*
X143470000Y-85050000D02*
X143740001Y-84779999D01*
X196850000Y-90170000D02*
X196850000Y-87630000D01*
X196850000Y-87630000D02*
X196850000Y-85090000D01*
X196850000Y-85090000D02*
X194310000Y-85090000D01*
X194310000Y-85090000D02*
X194310000Y-87630000D01*
X194310000Y-87630000D02*
X194310000Y-90170000D01*
X194310000Y-90170000D02*
X196850000Y-90170000D01*
X196850000Y-90170000D02*
X194310000Y-87630000D01*
X194310000Y-90170000D02*
X196850000Y-87630000D01*
X196850000Y-87630000D02*
X194310000Y-85090000D01*
X194310000Y-87630000D02*
X196850000Y-85090000D01*
X196850000Y-87630000D02*
X194310000Y-87630000D01*
X198052081Y-90170000D02*
X200660000Y-92777919D01*
X196850000Y-90170000D02*
X198052081Y-90170000D01*
X200660000Y-102870000D02*
X198120000Y-105410000D01*
X200660000Y-92777919D02*
X200660000Y-102870000D01*
X179030000Y-83820000D02*
X180300000Y-85090000D01*
X179030000Y-83820000D02*
X179030000Y-78780000D01*
X179030000Y-78780000D02*
X178990000Y-78740000D01*
X174639998Y-78780000D02*
X163290000Y-90129998D01*
X179030000Y-78780000D02*
X174639998Y-78780000D01*
X198120000Y-62230000D02*
X189230000Y-62230000D01*
X189230000Y-62230000D02*
X189230000Y-85090000D01*
X189230000Y-85090000D02*
X194310000Y-85090000D01*
X180300000Y-85090000D02*
X189230000Y-85090000D01*
X180173000Y-84963000D02*
X180300000Y-85090000D01*
X175958500Y-84963000D02*
X180173000Y-84963000D01*
%TO.N,Net-(C3-Pad1)*%
X138430000Y-64770000D02*
X132080000Y-71120000D01*
X142240000Y-64770000D02*
X138430000Y-64770000D01*
X138430000Y-77470000D02*
X132080000Y-71120000D01*
X140970000Y-77470000D02*
X138430000Y-77470000D01*
X140970000Y-82550000D02*
X140970000Y-77470000D01*
D26*
%TO.N,Net-(C9-Pad2)*%
X114300000Y-109220000D02*
X119380000Y-109220000D01*
D27*
X140970000Y-92710000D02*
X140970000Y-97790000D01*
X194310000Y-92710000D02*
X196850000Y-92710000D01*
%TO.N,Net-(C10-Pad2)*%
X146050000Y-87630000D02*
X146050000Y-92710000D01*
X162560000Y-107950000D02*
X162560000Y-109220000D01*
X142780000Y-106541370D02*
X142780000Y-105410000D01*
X146138640Y-109900010D02*
X142780000Y-106541370D01*
X161879990Y-109900010D02*
X146138640Y-109900010D01*
X162560000Y-109220000D02*
X161879990Y-109900010D01*
X133350000Y-105410000D02*
X129540000Y-109220000D01*
X142780000Y-105410000D02*
X133350000Y-105410000D01*
%TO.N,Net-(C12-Pad1)*%
X194310000Y-80010000D02*
X196850000Y-80010000D01*
%TO.N,Net-(J2-Pad13)*%
X194310000Y-77470000D02*
X196850000Y-77470000D01*
%TO.N,Net-(J2-Pad15)*%
X194310000Y-74930000D02*
X196850000Y-74930000D01*
%TO.N,Net-(R3-Pad2)*%
X198120000Y-57150000D02*
X198120000Y-59690000D01*
X146050000Y-82550000D02*
X165100000Y-82550000D01*
X187960000Y-59690000D02*
X198120000Y-59690000D01*
X165100000Y-82550000D02*
X187960000Y-59690000D01*
%TO.N,Net-(R7-Pad1)*%
X137160000Y-91440000D02*
X140970000Y-87630000D01*
X137160000Y-100330000D02*
X137160000Y-91440000D01*
X198120000Y-110490000D02*
X198120000Y-107950000D01*
X187960000Y-100330000D02*
X198120000Y-110490000D01*
X137160000Y-100330000D02*
X187960000Y-100330000D01*
%TD*%
D29*
%TO.N,GND*%
X202540000Y-113640000D02*
X61620000Y-113640000D01*
X61620000Y-107729872D01*
X65075000Y-107729872D01*
X65075000Y-108170128D01*
X65160890Y-108601925D01*
X65329369Y-109008669D01*
X65573962Y-109374729D01*
X65885271Y-109686038D01*
X66251331Y-109930631D01*
X66658075Y-110099110D01*
X67089872Y-110185000D01*
X67530128Y-110185000D01*
X67961925Y-110099110D01*
X68368669Y-109930631D01*
X68734729Y-109686038D01*
X69046038Y-109374729D01*
X69290631Y-109008669D01*
X69459110Y-108601925D01*
X69545000Y-108170128D01*
X69545000Y-107729872D01*
X69459110Y-107298075D01*
X69290631Y-106891331D01*
X69046038Y-106525271D01*
X68734729Y-106213962D01*
X68368669Y-105969369D01*
X67961925Y-105800890D01*
X67530128Y-105715000D01*
X67089872Y-105715000D01*
X66658075Y-105800890D01*
X66251331Y-105969369D01*
X65885271Y-106213962D01*
X65573962Y-106525271D01*
X65329369Y-106891331D01*
X65160890Y-107298075D01*
X65075000Y-107729872D01*
X61620000Y-107729872D01*
X61620000Y-91310000D01*
X69081928Y-91310000D01*
X69081928Y-94110000D01*
X69094188Y-94234482D01*
X69130498Y-94354180D01*
X69189463Y-94464494D01*
X69268815Y-94561185D01*
X69365506Y-94640537D01*
X69475820Y-94699502D01*
X69595518Y-94735812D01*
X69720000Y-94748072D01*
X72520000Y-94748072D01*
X72644482Y-94735812D01*
X72764180Y-94699502D01*
X72874494Y-94640537D01*
X72971185Y-94561185D01*
X73050537Y-94464494D01*
X73109502Y-94354180D01*
X73145812Y-94234482D01*
X73158072Y-94110000D01*
X73158072Y-93366003D01*
X74014505Y-92509570D01*
X81785000Y-92509570D01*
X81785000Y-92910430D01*
X81863204Y-93303587D01*
X82016607Y-93673934D01*
X82239313Y-94007237D01*
X82522763Y-94290687D01*
X82856066Y-94513393D01*
X82981115Y-94565190D01*
X98916784Y-110500860D01*
X98976444Y-110573556D01*
X99099438Y-110674494D01*
X99266517Y-110811613D01*
X99404262Y-110885239D01*
X99597461Y-110988506D01*
X99956555Y-111097436D01*
X100236418Y-111125000D01*
X100236420Y-111125000D01*
X100330000Y-111134217D01*
X100423580Y-111125000D01*
X104233582Y-111125000D01*
X104513445Y-111097436D01*
X104872539Y-110988506D01*
X105203482Y-110811613D01*
X105493556Y-110573556D01*
X105731613Y-110283482D01*
X105908506Y-109952539D01*
X106017436Y-109593445D01*
X106049359Y-109269326D01*
X106098685Y-109220000D01*
X112385783Y-109220000D01*
X112422564Y-109593445D01*
X112531494Y-109952539D01*
X112561928Y-110009477D01*
X112561928Y-110320000D01*
X112574188Y-110444482D01*
X112610498Y-110564180D01*
X112669463Y-110674494D01*
X112748815Y-110771185D01*
X112845506Y-110850537D01*
X112955820Y-110909502D01*
X113075518Y-110945812D01*
X113200000Y-110958072D01*
X113510523Y-110958072D01*
X113567461Y-110988506D01*
X113926555Y-111097436D01*
X114206418Y-111125000D01*
X119473582Y-111125000D01*
X119753445Y-111097436D01*
X120112539Y-110988506D01*
X120443482Y-110811613D01*
X120733556Y-110573556D01*
X120971613Y-110283482D01*
X121148506Y-109952539D01*
X121257436Y-109593445D01*
X121294217Y-109220000D01*
X121257436Y-108846555D01*
X121148506Y-108487461D01*
X120971613Y-108156518D01*
X120733556Y-107866444D01*
X120443482Y-107628387D01*
X120112539Y-107451494D01*
X119753445Y-107342564D01*
X119473582Y-107315000D01*
X114206418Y-107315000D01*
X113926555Y-107342564D01*
X113567461Y-107451494D01*
X113510523Y-107481928D01*
X113200000Y-107481928D01*
X113075518Y-107494188D01*
X112955820Y-107530498D01*
X112845506Y-107589463D01*
X112748815Y-107668815D01*
X112669463Y-107765506D01*
X112610498Y-107875820D01*
X112574188Y-107995518D01*
X112561928Y-108120000D01*
X112561928Y-108430523D01*
X112531494Y-108487461D01*
X112422564Y-108846555D01*
X112385783Y-109220000D01*
X106098685Y-109220000D01*
X108523686Y-106795000D01*
X124391971Y-106795000D01*
X124460000Y-106801700D01*
X124528029Y-106795000D01*
X124528037Y-106795000D01*
X124731507Y-106774960D01*
X124992581Y-106695764D01*
X125233188Y-106567157D01*
X125444081Y-106394081D01*
X125487454Y-106341231D01*
X127573685Y-104255000D01*
X132574184Y-104255000D01*
X132418766Y-104382548D01*
X132418764Y-104382550D01*
X132365919Y-104425919D01*
X132322550Y-104478764D01*
X129319387Y-107481928D01*
X128440000Y-107481928D01*
X128315518Y-107494188D01*
X128195820Y-107530498D01*
X128085506Y-107589463D01*
X127988815Y-107668815D01*
X127909463Y-107765506D01*
X127850498Y-107875820D01*
X127814188Y-107995518D01*
X127801928Y-108120000D01*
X127801928Y-110320000D01*
X127814188Y-110444482D01*
X127850498Y-110564180D01*
X127909463Y-110674494D01*
X127988815Y-110771185D01*
X128085506Y-110850537D01*
X128195820Y-110909502D01*
X128315518Y-110945812D01*
X128440000Y-110958072D01*
X130640000Y-110958072D01*
X130764482Y-110945812D01*
X130884180Y-110909502D01*
X130994494Y-110850537D01*
X131091185Y-110771185D01*
X131170537Y-110674494D01*
X131229502Y-110564180D01*
X131265812Y-110444482D01*
X131278072Y-110320000D01*
X131278072Y-109440613D01*
X133923686Y-106795000D01*
X141413279Y-106795000D01*
X141415040Y-106812877D01*
X141438839Y-106891331D01*
X141494236Y-107073950D01*
X141619428Y-107308167D01*
X141622844Y-107314558D01*
X141735225Y-107451494D01*
X141795919Y-107525450D01*
X141848765Y-107568820D01*
X145111190Y-110831246D01*
X145154559Y-110884091D01*
X145207404Y-110927460D01*
X145207406Y-110927462D01*
X145319739Y-111019651D01*
X145365452Y-111057167D01*
X145606059Y-111185774D01*
X145867133Y-111264970D01*
X146070603Y-111285010D01*
X146070612Y-111285010D01*
X146138639Y-111291710D01*
X146206666Y-111285010D01*
X161811961Y-111285010D01*
X161879990Y-111291710D01*
X161948019Y-111285010D01*
X161948027Y-111285010D01*
X162151497Y-111264970D01*
X162412571Y-111185774D01*
X162653178Y-111057167D01*
X162864071Y-110884091D01*
X162907444Y-110831241D01*
X163491233Y-110247452D01*
X163544081Y-110204081D01*
X163717157Y-109993188D01*
X163845764Y-109752581D01*
X163924960Y-109491507D01*
X163931233Y-109427818D01*
X163963685Y-109401185D01*
X164043037Y-109304494D01*
X164102002Y-109194180D01*
X164138312Y-109074482D01*
X164150572Y-108950000D01*
X164150572Y-107729872D01*
X176835000Y-107729872D01*
X176835000Y-108170128D01*
X176920890Y-108601925D01*
X177089369Y-109008669D01*
X177333962Y-109374729D01*
X177645271Y-109686038D01*
X178011331Y-109930631D01*
X178418075Y-110099110D01*
X178849872Y-110185000D01*
X179290128Y-110185000D01*
X179721925Y-110099110D01*
X180128669Y-109930631D01*
X180494729Y-109686038D01*
X180806038Y-109374729D01*
X181050631Y-109008669D01*
X181219110Y-108601925D01*
X181305000Y-108170128D01*
X181305000Y-107729872D01*
X181219110Y-107298075D01*
X181050631Y-106891331D01*
X180806038Y-106525271D01*
X180494729Y-106213962D01*
X180128669Y-105969369D01*
X179721925Y-105800890D01*
X179290128Y-105715000D01*
X178849872Y-105715000D01*
X178418075Y-105800890D01*
X178011331Y-105969369D01*
X177645271Y-106213962D01*
X177333962Y-106525271D01*
X177089369Y-106891331D01*
X176920890Y-107298075D01*
X176835000Y-107729872D01*
X164150572Y-107729872D01*
X164150572Y-106950000D01*
X164138312Y-106825518D01*
X164102002Y-106705820D01*
X164043037Y-106595506D01*
X163963685Y-106498815D01*
X163866994Y-106419463D01*
X163756680Y-106360498D01*
X163636982Y-106324188D01*
X163512500Y-106311928D01*
X161607500Y-106311928D01*
X161483018Y-106324188D01*
X161405000Y-106347855D01*
X161405000Y-105518029D01*
X161411700Y-105450000D01*
X161405000Y-105381971D01*
X161405000Y-105381963D01*
X161384960Y-105178493D01*
X161305764Y-104917419D01*
X161177157Y-104676812D01*
X161004081Y-104465919D01*
X160951236Y-104422550D01*
X158467452Y-101938767D01*
X158424081Y-101885919D01*
X158215816Y-101715000D01*
X187386315Y-101715000D01*
X197092555Y-111421241D01*
X197135919Y-111474080D01*
X197188759Y-111517445D01*
X197188766Y-111517452D01*
X197346812Y-111647157D01*
X197587419Y-111775764D01*
X197848493Y-111854960D01*
X198120000Y-111881701D01*
X198367164Y-111857358D01*
X198391507Y-111854960D01*
X198652580Y-111775764D01*
X198893188Y-111647157D01*
X199104081Y-111474081D01*
X199277157Y-111263188D01*
X199277158Y-111263187D01*
X199405764Y-111022581D01*
X199484960Y-110761507D01*
X199505000Y-110558037D01*
X199505000Y-110558029D01*
X199511700Y-110490000D01*
X199505000Y-110421971D01*
X199505000Y-107881963D01*
X199484960Y-107678493D01*
X199405764Y-107417419D01*
X199277157Y-107176812D01*
X199104081Y-106965919D01*
X198893188Y-106792843D01*
X198652581Y-106664236D01*
X198643453Y-106661467D01*
X198708353Y-106637875D01*
X198814068Y-106581368D01*
X198875955Y-106345560D01*
X198120000Y-105589605D01*
X197364045Y-106345560D01*
X197425932Y-106581368D01*
X197597141Y-106661287D01*
X197587420Y-106664236D01*
X197346813Y-106792843D01*
X197135920Y-106965919D01*
X196962844Y-107176812D01*
X196894103Y-107305417D01*
X195072366Y-105483680D01*
X196760439Y-105483680D01*
X196800937Y-105747501D01*
X196892125Y-105998353D01*
X196948632Y-106104068D01*
X197184440Y-106165955D01*
X197940395Y-105410000D01*
X198299605Y-105410000D01*
X199055560Y-106165955D01*
X199291368Y-106104068D01*
X199404266Y-105862210D01*
X199467811Y-105602973D01*
X199479561Y-105336320D01*
X199439063Y-105072499D01*
X199347875Y-104821647D01*
X199291368Y-104715932D01*
X199055560Y-104654045D01*
X198299605Y-105410000D01*
X197940395Y-105410000D01*
X197184440Y-104654045D01*
X196948632Y-104715932D01*
X196835734Y-104957790D01*
X196772189Y-105217027D01*
X196760439Y-105483680D01*
X195072366Y-105483680D01*
X194063126Y-104474440D01*
X197364045Y-104474440D01*
X198120000Y-105230395D01*
X198875955Y-104474440D01*
X198814068Y-104238632D01*
X198572210Y-104125734D01*
X198312973Y-104062189D01*
X198046320Y-104050439D01*
X197782499Y-104090937D01*
X197531647Y-104182125D01*
X197425932Y-104238632D01*
X197364045Y-104474440D01*
X194063126Y-104474440D01*
X188987454Y-99398769D01*
X188944081Y-99345919D01*
X188733188Y-99172843D01*
X188492581Y-99044236D01*
X188231507Y-98965040D01*
X188028037Y-98945000D01*
X188028029Y-98945000D01*
X187960000Y-98938300D01*
X187891971Y-98945000D01*
X146732212Y-98945000D01*
X146791664Y-98711269D01*
X146050000Y-97969605D01*
X145308336Y-98711269D01*
X145367788Y-98945000D01*
X141745816Y-98945000D01*
X141954081Y-98774081D01*
X142127157Y-98563188D01*
X142255764Y-98322581D01*
X142334960Y-98061507D01*
X142354366Y-97864473D01*
X144710610Y-97864473D01*
X144750875Y-98124344D01*
X144841065Y-98371366D01*
X144894963Y-98472203D01*
X145128731Y-98531664D01*
X145870395Y-97790000D01*
X146229605Y-97790000D01*
X146971269Y-98531664D01*
X147205037Y-98472203D01*
X147315934Y-98233758D01*
X147378183Y-97978260D01*
X147389390Y-97715527D01*
X147349125Y-97455656D01*
X147258935Y-97208634D01*
X147205037Y-97107797D01*
X146971269Y-97048336D01*
X146229605Y-97790000D01*
X145870395Y-97790000D01*
X145128731Y-97048336D01*
X144894963Y-97107797D01*
X144784066Y-97346242D01*
X144721817Y-97601740D01*
X144710610Y-97864473D01*
X142354366Y-97864473D01*
X142355000Y-97858037D01*
X142355000Y-96868731D01*
X145308336Y-96868731D01*
X146050000Y-97610395D01*
X146791664Y-96868731D01*
X146732203Y-96634963D01*
X146493758Y-96524066D01*
X146238260Y-96461817D01*
X145975527Y-96450610D01*
X145715656Y-96490875D01*
X145468634Y-96581065D01*
X145367797Y-96634963D01*
X145308336Y-96868731D01*
X142355000Y-96868731D01*
X142355000Y-92641963D01*
X142334960Y-92438493D01*
X142255764Y-92177419D01*
X142127157Y-91936812D01*
X141954080Y-91725919D01*
X141743187Y-91552843D01*
X141502580Y-91424236D01*
X141241506Y-91345040D01*
X140970000Y-91318299D01*
X140698493Y-91345040D01*
X140437419Y-91424236D01*
X140196812Y-91552843D01*
X139985919Y-91725920D01*
X139812843Y-91936813D01*
X139684236Y-92177420D01*
X139605040Y-92438494D01*
X139585000Y-92641964D01*
X139585001Y-97858037D01*
X139605041Y-98061507D01*
X139684237Y-98322581D01*
X139812844Y-98563188D01*
X139985920Y-98774081D01*
X140194185Y-98945000D01*
X138545000Y-98945000D01*
X138545000Y-92013685D01*
X141997452Y-88561234D01*
X142127157Y-88403188D01*
X142255764Y-88162581D01*
X142334960Y-87901507D01*
X142361700Y-87630000D01*
X142355000Y-87561964D01*
X144665000Y-87561964D01*
X144665001Y-92778037D01*
X144685041Y-92981507D01*
X144764237Y-93242581D01*
X144892844Y-93483188D01*
X145065920Y-93694081D01*
X145276813Y-93867157D01*
X145517420Y-93995764D01*
X145778494Y-94074960D01*
X146050000Y-94101701D01*
X146321507Y-94074960D01*
X146582581Y-93995764D01*
X146823188Y-93867157D01*
X147034081Y-93694081D01*
X147207157Y-93483188D01*
X147335764Y-93242581D01*
X147414960Y-92981507D01*
X147435000Y-92778037D01*
X147435000Y-91298665D01*
X151005000Y-91298665D01*
X151005000Y-91581335D01*
X151060147Y-91858574D01*
X151168320Y-92119727D01*
X151325363Y-92354759D01*
X151525241Y-92554637D01*
X151760273Y-92711680D01*
X152021426Y-92819853D01*
X152298665Y-92875000D01*
X152581335Y-92875000D01*
X152858574Y-92819853D01*
X153119727Y-92711680D01*
X153354759Y-92554637D01*
X153521339Y-92388057D01*
X153550498Y-92484180D01*
X153609463Y-92594494D01*
X153688815Y-92691185D01*
X153785506Y-92770537D01*
X153895820Y-92829502D01*
X154015518Y-92865812D01*
X154140000Y-92878072D01*
X154654250Y-92875000D01*
X154813000Y-92716250D01*
X154813000Y-91567000D01*
X155067000Y-91567000D01*
X155067000Y-92716250D01*
X155225750Y-92875000D01*
X155740000Y-92878072D01*
X155864482Y-92865812D01*
X155984180Y-92829502D01*
X156094494Y-92770537D01*
X156191185Y-92691185D01*
X156270537Y-92594494D01*
X156329502Y-92484180D01*
X156365812Y-92364482D01*
X156378072Y-92240000D01*
X156375000Y-91725750D01*
X156216250Y-91567000D01*
X155067000Y-91567000D01*
X154813000Y-91567000D01*
X154793000Y-91567000D01*
X154793000Y-91313000D01*
X154813000Y-91313000D01*
X154813000Y-90163750D01*
X155067000Y-90163750D01*
X155067000Y-91313000D01*
X156216250Y-91313000D01*
X156375000Y-91154250D01*
X156378072Y-90640000D01*
X159851928Y-90640000D01*
X159851928Y-92240000D01*
X159864188Y-92364482D01*
X159900498Y-92484180D01*
X159959463Y-92594494D01*
X160038815Y-92691185D01*
X160135506Y-92770537D01*
X160245820Y-92829502D01*
X160365518Y-92865812D01*
X160490000Y-92878072D01*
X162090000Y-92878072D01*
X162214482Y-92865812D01*
X162334180Y-92829502D01*
X162444494Y-92770537D01*
X162541185Y-92691185D01*
X162551807Y-92678242D01*
X162803996Y-92797571D01*
X163078184Y-92866300D01*
X163360512Y-92880217D01*
X163640130Y-92838787D01*
X163906292Y-92743603D01*
X164031514Y-92676671D01*
X164064649Y-92563740D01*
X192825000Y-92563740D01*
X192825000Y-92856260D01*
X192882068Y-93143158D01*
X192994010Y-93413411D01*
X193156525Y-93656632D01*
X193363368Y-93863475D01*
X193606589Y-94025990D01*
X193876842Y-94137932D01*
X194163740Y-94195000D01*
X194456260Y-94195000D01*
X194743158Y-94137932D01*
X194846805Y-94095000D01*
X195843787Y-94095000D01*
X195910150Y-94130472D01*
X196076746Y-94181008D01*
X196250000Y-94198072D01*
X197450000Y-94198072D01*
X197623254Y-94181008D01*
X197789850Y-94130472D01*
X197943386Y-94048405D01*
X198077962Y-93937962D01*
X198188405Y-93803386D01*
X198270472Y-93649850D01*
X198321008Y-93483254D01*
X198338072Y-93310000D01*
X198338072Y-92110000D01*
X198321008Y-91936746D01*
X198270472Y-91770150D01*
X198188405Y-91616614D01*
X198077962Y-91482038D01*
X197943386Y-91371595D01*
X197789850Y-91289528D01*
X197680707Y-91256420D01*
X197698792Y-91198397D01*
X196850000Y-90349605D01*
X196001208Y-91198397D01*
X196019293Y-91256420D01*
X195910150Y-91289528D01*
X195843787Y-91325000D01*
X195119331Y-91325000D01*
X195158792Y-91198397D01*
X194310000Y-90349605D01*
X193461208Y-91198397D01*
X193536729Y-91440689D01*
X193363368Y-91556525D01*
X193156525Y-91763368D01*
X192994010Y-92006589D01*
X192882068Y-92276842D01*
X192825000Y-92563740D01*
X164064649Y-92563740D01*
X164103097Y-92432702D01*
X163290000Y-91619605D01*
X163275858Y-91633748D01*
X163096253Y-91454143D01*
X163110395Y-91440000D01*
X163469605Y-91440000D01*
X164282702Y-92253097D01*
X164526671Y-92181514D01*
X164647571Y-91926004D01*
X164716300Y-91651816D01*
X164730217Y-91369488D01*
X164688787Y-91089870D01*
X164593603Y-90823708D01*
X164526671Y-90698486D01*
X164282702Y-90626903D01*
X163469605Y-91440000D01*
X163110395Y-91440000D01*
X163096253Y-91425858D01*
X163275858Y-91246253D01*
X163290000Y-91260395D01*
X164103097Y-90447298D01*
X164041843Y-90238531D01*
X192819389Y-90238531D01*
X192861401Y-90528019D01*
X192959081Y-90803747D01*
X193032528Y-90941157D01*
X193281603Y-91018792D01*
X194130395Y-90170000D01*
X194489605Y-90170000D01*
X195338397Y-91018792D01*
X195580000Y-90943486D01*
X195821603Y-91018792D01*
X196670395Y-90170000D01*
X197029605Y-90170000D01*
X197878397Y-91018792D01*
X198127472Y-90941157D01*
X198253371Y-90677117D01*
X198325339Y-90393589D01*
X198340611Y-90101469D01*
X198298599Y-89811981D01*
X198200919Y-89536253D01*
X198127472Y-89398843D01*
X197878397Y-89321208D01*
X197029605Y-90170000D01*
X196670395Y-90170000D01*
X195821603Y-89321208D01*
X195580000Y-89396514D01*
X195338397Y-89321208D01*
X194489605Y-90170000D01*
X194130395Y-90170000D01*
X193281603Y-89321208D01*
X193032528Y-89398843D01*
X192906629Y-89662883D01*
X192834661Y-89946411D01*
X192819389Y-90238531D01*
X164041843Y-90238531D01*
X164031514Y-90203329D01*
X163776004Y-90082429D01*
X163501816Y-90013700D01*
X163219488Y-89999783D01*
X162939870Y-90041213D01*
X162673708Y-90136397D01*
X162551691Y-90201616D01*
X162541185Y-90188815D01*
X162444494Y-90109463D01*
X162334180Y-90050498D01*
X162214482Y-90014188D01*
X162090000Y-90001928D01*
X160490000Y-90001928D01*
X160365518Y-90014188D01*
X160245820Y-90050498D01*
X160135506Y-90109463D01*
X160038815Y-90188815D01*
X159959463Y-90285506D01*
X159900498Y-90395820D01*
X159864188Y-90515518D01*
X159851928Y-90640000D01*
X156378072Y-90640000D01*
X156365812Y-90515518D01*
X156329502Y-90395820D01*
X156270537Y-90285506D01*
X156191185Y-90188815D01*
X156094494Y-90109463D01*
X155984180Y-90050498D01*
X155864482Y-90014188D01*
X155740000Y-90001928D01*
X155225750Y-90005000D01*
X155067000Y-90163750D01*
X154813000Y-90163750D01*
X154654250Y-90005000D01*
X154140000Y-90001928D01*
X154015518Y-90014188D01*
X153895820Y-90050498D01*
X153785506Y-90109463D01*
X153688815Y-90188815D01*
X153609463Y-90285506D01*
X153550498Y-90395820D01*
X153521339Y-90491943D01*
X153354759Y-90325363D01*
X153119727Y-90168320D01*
X152858574Y-90060147D01*
X152581335Y-90005000D01*
X152298665Y-90005000D01*
X152021426Y-90060147D01*
X151760273Y-90168320D01*
X151525241Y-90325363D01*
X151325363Y-90525241D01*
X151168320Y-90760273D01*
X151060147Y-91021426D01*
X151005000Y-91298665D01*
X147435000Y-91298665D01*
X147435000Y-87561963D01*
X147429193Y-87503000D01*
X174315819Y-87503000D01*
X174346470Y-87814204D01*
X174437245Y-88113449D01*
X174584655Y-88389235D01*
X174783037Y-88630963D01*
X175024765Y-88829345D01*
X175300551Y-88976755D01*
X175599796Y-89067530D01*
X175833014Y-89090500D01*
X176083986Y-89090500D01*
X176317204Y-89067530D01*
X176616449Y-88976755D01*
X176892235Y-88829345D01*
X177100534Y-88658397D01*
X193461208Y-88658397D01*
X193536514Y-88900000D01*
X193461208Y-89141603D01*
X194310000Y-89990395D01*
X195158792Y-89141603D01*
X195083486Y-88900000D01*
X195158792Y-88658397D01*
X196001208Y-88658397D01*
X196076514Y-88900000D01*
X196001208Y-89141603D01*
X196850000Y-89990395D01*
X197698792Y-89141603D01*
X197623486Y-88900000D01*
X197698792Y-88658397D01*
X196850000Y-87809605D01*
X196001208Y-88658397D01*
X195158792Y-88658397D01*
X194310000Y-87809605D01*
X193461208Y-88658397D01*
X177100534Y-88658397D01*
X177133963Y-88630963D01*
X177332345Y-88389235D01*
X177479755Y-88113449D01*
X177570530Y-87814204D01*
X177581922Y-87698531D01*
X192819389Y-87698531D01*
X192861401Y-87988019D01*
X192959081Y-88263747D01*
X193032528Y-88401157D01*
X193281603Y-88478792D01*
X194130395Y-87630000D01*
X194489605Y-87630000D01*
X195338397Y-88478792D01*
X195580000Y-88403486D01*
X195821603Y-88478792D01*
X196670395Y-87630000D01*
X197029605Y-87630000D01*
X197878397Y-88478792D01*
X198127472Y-88401157D01*
X198253371Y-88137117D01*
X198325339Y-87853589D01*
X198340611Y-87561469D01*
X198298599Y-87271981D01*
X198200919Y-86996253D01*
X198127472Y-86858843D01*
X197878397Y-86781208D01*
X197029605Y-87630000D01*
X196670395Y-87630000D01*
X195821603Y-86781208D01*
X195580000Y-86856514D01*
X195338397Y-86781208D01*
X194489605Y-87630000D01*
X194130395Y-87630000D01*
X193281603Y-86781208D01*
X193032528Y-86858843D01*
X192906629Y-87122883D01*
X192834661Y-87406411D01*
X192819389Y-87698531D01*
X177581922Y-87698531D01*
X177601181Y-87503000D01*
X177570530Y-87191796D01*
X177479755Y-86892551D01*
X177332345Y-86616765D01*
X177133963Y-86375037D01*
X176954601Y-86227837D01*
X177085037Y-86118397D01*
X193461208Y-86118397D01*
X193536514Y-86360000D01*
X193461208Y-86601603D01*
X194310000Y-87450395D01*
X195158792Y-86601603D01*
X195083486Y-86360000D01*
X195158792Y-86118397D01*
X196001208Y-86118397D01*
X196076514Y-86360000D01*
X196001208Y-86601603D01*
X196850000Y-87450395D01*
X197698792Y-86601603D01*
X197623486Y-86360000D01*
X197698792Y-86118397D01*
X196850000Y-85269605D01*
X196001208Y-86118397D01*
X195158792Y-86118397D01*
X194310000Y-85269605D01*
X193461208Y-86118397D01*
X177085037Y-86118397D01*
X177139815Y-86072437D01*
X177334469Y-85829923D01*
X177478071Y-85554094D01*
X177549063Y-85335980D01*
X177462518Y-85158531D01*
X192819389Y-85158531D01*
X192861401Y-85448019D01*
X192959081Y-85723747D01*
X193032528Y-85861157D01*
X193281603Y-85938792D01*
X194130395Y-85090000D01*
X194489605Y-85090000D01*
X195338397Y-85938792D01*
X195580000Y-85863486D01*
X195821603Y-85938792D01*
X196670395Y-85090000D01*
X197029605Y-85090000D01*
X197878397Y-85938792D01*
X198127472Y-85861157D01*
X198253371Y-85597117D01*
X198325339Y-85313589D01*
X198340611Y-85021469D01*
X198298599Y-84731981D01*
X198200919Y-84456253D01*
X198127472Y-84318843D01*
X197878397Y-84241208D01*
X197029605Y-85090000D01*
X196670395Y-85090000D01*
X195821603Y-84241208D01*
X195580000Y-84316514D01*
X195338397Y-84241208D01*
X194489605Y-85090000D01*
X194130395Y-85090000D01*
X193281603Y-84241208D01*
X193032528Y-84318843D01*
X192906629Y-84582883D01*
X192834661Y-84866411D01*
X192819389Y-85158531D01*
X177462518Y-85158531D01*
X177429094Y-85090000D01*
X176085500Y-85090000D01*
X176085500Y-85110000D01*
X175831500Y-85110000D01*
X175831500Y-85090000D01*
X174487906Y-85090000D01*
X174367937Y-85335980D01*
X174438929Y-85554094D01*
X174582531Y-85829923D01*
X174777185Y-86072437D01*
X174962399Y-86227837D01*
X174783037Y-86375037D01*
X174584655Y-86616765D01*
X174437245Y-86892551D01*
X174346470Y-87191796D01*
X174315819Y-87503000D01*
X147429193Y-87503000D01*
X147414960Y-87358493D01*
X147335764Y-87097419D01*
X147207157Y-86856812D01*
X147034080Y-86645919D01*
X146823187Y-86472843D01*
X146582580Y-86344236D01*
X146321506Y-86265040D01*
X146050000Y-86238299D01*
X145778493Y-86265040D01*
X145517419Y-86344236D01*
X145276812Y-86472843D01*
X145065919Y-86645920D01*
X144892843Y-86856813D01*
X144764236Y-87097420D01*
X144685040Y-87358494D01*
X144665000Y-87561964D01*
X142355000Y-87561964D01*
X142334960Y-87358493D01*
X142255764Y-87097419D01*
X142127157Y-86856812D01*
X141954081Y-86645919D01*
X141743188Y-86472843D01*
X141502581Y-86344236D01*
X141241507Y-86265040D01*
X140970000Y-86238300D01*
X140698493Y-86265040D01*
X140437419Y-86344236D01*
X140196812Y-86472843D01*
X140038766Y-86602548D01*
X136228764Y-90412551D01*
X136175920Y-90455919D01*
X136132551Y-90508764D01*
X136132548Y-90508767D01*
X136002844Y-90666812D01*
X135874236Y-90907420D01*
X135795040Y-91168493D01*
X135768300Y-91440000D01*
X135775001Y-91508039D01*
X135775000Y-100261963D01*
X135768299Y-100330000D01*
X135795040Y-100601507D01*
X135874236Y-100862581D01*
X136002843Y-101103188D01*
X136175919Y-101314081D01*
X136376020Y-101478300D01*
X136384184Y-101485000D01*
X130343686Y-101485000D01*
X131781236Y-100047450D01*
X131834081Y-100004081D01*
X132007157Y-99793188D01*
X132135764Y-99552581D01*
X132214960Y-99291507D01*
X132235000Y-99088037D01*
X132235000Y-99088028D01*
X132241700Y-99020001D01*
X132235000Y-98951974D01*
X132235000Y-88622702D01*
X132536903Y-88622702D01*
X132608486Y-88866671D01*
X132863996Y-88987571D01*
X133138184Y-89056300D01*
X133420512Y-89070217D01*
X133700130Y-89028787D01*
X133966292Y-88933603D01*
X134091514Y-88866671D01*
X134163097Y-88622702D01*
X133350000Y-87809605D01*
X132536903Y-88622702D01*
X132235000Y-88622702D01*
X132235000Y-88407214D01*
X132357298Y-88443097D01*
X133170395Y-87630000D01*
X133529605Y-87630000D01*
X134342702Y-88443097D01*
X134586671Y-88371514D01*
X134707571Y-88116004D01*
X134776300Y-87841816D01*
X134790217Y-87559488D01*
X134748787Y-87279870D01*
X134653603Y-87013708D01*
X134586671Y-86888486D01*
X134342702Y-86816903D01*
X133529605Y-87630000D01*
X133170395Y-87630000D01*
X132357298Y-86816903D01*
X132113329Y-86888486D01*
X132099676Y-86917341D01*
X131964637Y-86715241D01*
X131886694Y-86637298D01*
X132536903Y-86637298D01*
X133350000Y-87450395D01*
X134163097Y-86637298D01*
X134091514Y-86393329D01*
X133836004Y-86272429D01*
X133561816Y-86203700D01*
X133279488Y-86189783D01*
X132999870Y-86231213D01*
X132733708Y-86326397D01*
X132608486Y-86393329D01*
X132536903Y-86637298D01*
X131886694Y-86637298D01*
X131764759Y-86515363D01*
X131529727Y-86358320D01*
X131268574Y-86250147D01*
X130991335Y-86195000D01*
X130708665Y-86195000D01*
X130431426Y-86250147D01*
X130170273Y-86358320D01*
X129935241Y-86515363D01*
X129735363Y-86715241D01*
X129578320Y-86950273D01*
X129470147Y-87211426D01*
X129415000Y-87488665D01*
X129415000Y-87771335D01*
X129465000Y-88022699D01*
X129465001Y-98446313D01*
X126068769Y-101842546D01*
X126015919Y-101885919D01*
X125972548Y-101938767D01*
X123886315Y-104025000D01*
X108018029Y-104025000D01*
X107950000Y-104018300D01*
X107881971Y-104025000D01*
X107881963Y-104025000D01*
X107678493Y-104045040D01*
X107417419Y-104124236D01*
X107176812Y-104252843D01*
X107018766Y-104382548D01*
X107018764Y-104382550D01*
X106965919Y-104425919D01*
X106922550Y-104478764D01*
X104086315Y-107315000D01*
X101119076Y-107315000D01*
X95334076Y-101530000D01*
X95951928Y-101530000D01*
X95964188Y-101654482D01*
X96000498Y-101774180D01*
X96059463Y-101884494D01*
X96138815Y-101981185D01*
X96235506Y-102060537D01*
X96345820Y-102119502D01*
X96465518Y-102155812D01*
X96590000Y-102168072D01*
X97504250Y-102165000D01*
X97663000Y-102006250D01*
X97663000Y-100457000D01*
X97917000Y-100457000D01*
X97917000Y-102006250D01*
X98075750Y-102165000D01*
X98990000Y-102168072D01*
X99114482Y-102155812D01*
X99234180Y-102119502D01*
X99344494Y-102060537D01*
X99441185Y-101981185D01*
X99520537Y-101884494D01*
X99579502Y-101774180D01*
X99615812Y-101654482D01*
X99628072Y-101530000D01*
X117541928Y-101530000D01*
X117554188Y-101654482D01*
X117590498Y-101774180D01*
X117649463Y-101884494D01*
X117728815Y-101981185D01*
X117825506Y-102060537D01*
X117935820Y-102119502D01*
X118055518Y-102155812D01*
X118180000Y-102168072D01*
X119094250Y-102165000D01*
X119253000Y-102006250D01*
X119253000Y-100457000D01*
X119507000Y-100457000D01*
X119507000Y-102006250D01*
X119665750Y-102165000D01*
X120580000Y-102168072D01*
X120704482Y-102155812D01*
X120824180Y-102119502D01*
X120934494Y-102060537D01*
X121031185Y-101981185D01*
X121110537Y-101884494D01*
X121169502Y-101774180D01*
X121205812Y-101654482D01*
X121218072Y-101530000D01*
X121215000Y-100615750D01*
X121056250Y-100457000D01*
X119507000Y-100457000D01*
X119253000Y-100457000D01*
X117703750Y-100457000D01*
X117545000Y-100615750D01*
X117541928Y-101530000D01*
X99628072Y-101530000D01*
X99625000Y-100615750D01*
X99466250Y-100457000D01*
X97917000Y-100457000D01*
X97663000Y-100457000D01*
X96113750Y-100457000D01*
X95955000Y-100615750D01*
X95951928Y-101530000D01*
X95334076Y-101530000D01*
X92934076Y-99130000D01*
X95951928Y-99130000D01*
X95955000Y-100044250D01*
X96113750Y-100203000D01*
X97663000Y-100203000D01*
X97663000Y-98653750D01*
X97917000Y-98653750D01*
X97917000Y-100203000D01*
X99466250Y-100203000D01*
X99625000Y-100044250D01*
X99628072Y-99130000D01*
X117541928Y-99130000D01*
X117545000Y-100044250D01*
X117703750Y-100203000D01*
X119253000Y-100203000D01*
X119253000Y-98653750D01*
X119507000Y-98653750D01*
X119507000Y-100203000D01*
X121056250Y-100203000D01*
X121215000Y-100044250D01*
X121218072Y-99130000D01*
X121205812Y-99005518D01*
X121169502Y-98885820D01*
X121110537Y-98775506D01*
X121031185Y-98678815D01*
X120934494Y-98599463D01*
X120824180Y-98540498D01*
X120704482Y-98504188D01*
X120580000Y-98491928D01*
X119665750Y-98495000D01*
X119507000Y-98653750D01*
X119253000Y-98653750D01*
X119094250Y-98495000D01*
X118180000Y-98491928D01*
X118055518Y-98504188D01*
X117935820Y-98540498D01*
X117825506Y-98599463D01*
X117728815Y-98678815D01*
X117649463Y-98775506D01*
X117590498Y-98885820D01*
X117554188Y-99005518D01*
X117541928Y-99130000D01*
X99628072Y-99130000D01*
X99615812Y-99005518D01*
X99579502Y-98885820D01*
X99520537Y-98775506D01*
X99441185Y-98678815D01*
X99344494Y-98599463D01*
X99234180Y-98540498D01*
X99114482Y-98504188D01*
X98990000Y-98491928D01*
X98075750Y-98495000D01*
X97917000Y-98653750D01*
X97663000Y-98653750D01*
X97504250Y-98495000D01*
X96590000Y-98491928D01*
X96465518Y-98504188D01*
X96345820Y-98540498D01*
X96235506Y-98599463D01*
X96138815Y-98678815D01*
X96059463Y-98775506D01*
X96000498Y-98885820D01*
X95964188Y-99005518D01*
X95951928Y-99130000D01*
X92934076Y-99130000D01*
X88539075Y-94735000D01*
X119473582Y-94735000D01*
X119753445Y-94707436D01*
X120112539Y-94598506D01*
X120443482Y-94421613D01*
X120733556Y-94183556D01*
X120971613Y-93893482D01*
X121148506Y-93562539D01*
X121257436Y-93203445D01*
X121294217Y-92830000D01*
X121257436Y-92456555D01*
X121148506Y-92097461D01*
X120971613Y-91766518D01*
X120733556Y-91476444D01*
X120443482Y-91238387D01*
X120112539Y-91061494D01*
X119753445Y-90952564D01*
X119473582Y-90925000D01*
X84811461Y-90925000D01*
X84783934Y-90906607D01*
X84413587Y-90753204D01*
X84020430Y-90675000D01*
X83619570Y-90675000D01*
X83226413Y-90753204D01*
X82856066Y-90906607D01*
X82522763Y-91129313D01*
X82239313Y-91412763D01*
X82016607Y-91746066D01*
X81863204Y-92116413D01*
X81785000Y-92509570D01*
X74014505Y-92509570D01*
X76989076Y-89535000D01*
X83101367Y-89535000D01*
X83226413Y-89586796D01*
X83619570Y-89665000D01*
X84020430Y-89665000D01*
X84413587Y-89586796D01*
X84783934Y-89433393D01*
X85117237Y-89210687D01*
X85400687Y-88927237D01*
X85623393Y-88593934D01*
X85776796Y-88223587D01*
X85855000Y-87830430D01*
X85855000Y-87429570D01*
X85776796Y-87036413D01*
X85623393Y-86666066D01*
X85400687Y-86332763D01*
X85117237Y-86049313D01*
X84783934Y-85826607D01*
X84413587Y-85673204D01*
X84020430Y-85595000D01*
X83619570Y-85595000D01*
X83226413Y-85673204D01*
X83101367Y-85725000D01*
X76293580Y-85725000D01*
X76200000Y-85715783D01*
X76106420Y-85725000D01*
X76106418Y-85725000D01*
X75826555Y-85752564D01*
X75467461Y-85861494D01*
X75366423Y-85915500D01*
X75136517Y-86038387D01*
X75039025Y-86118397D01*
X74846444Y-86276444D01*
X74786784Y-86349140D01*
X73139147Y-87996778D01*
X73164310Y-87663223D01*
X73115904Y-87265296D01*
X72990795Y-86884460D01*
X72845770Y-86613135D01*
X72540447Y-86469158D01*
X71299605Y-87710000D01*
X71313748Y-87724143D01*
X71134143Y-87903748D01*
X71120000Y-87889605D01*
X69879158Y-89130447D01*
X70023135Y-89435770D01*
X70380892Y-89616597D01*
X70767053Y-89724155D01*
X71166777Y-89754310D01*
X71411368Y-89724557D01*
X70463997Y-90671928D01*
X69720000Y-90671928D01*
X69595518Y-90684188D01*
X69475820Y-90720498D01*
X69365506Y-90779463D01*
X69268815Y-90858815D01*
X69189463Y-90955506D01*
X69130498Y-91065820D01*
X69094188Y-91185518D01*
X69081928Y-91310000D01*
X61620000Y-91310000D01*
X61620000Y-87756777D01*
X69075690Y-87756777D01*
X69124096Y-88154704D01*
X69249205Y-88535540D01*
X69394230Y-88806865D01*
X69699553Y-88950842D01*
X70940395Y-87710000D01*
X69699553Y-86469158D01*
X69394230Y-86613135D01*
X69213403Y-86970892D01*
X69105845Y-87357053D01*
X69075690Y-87756777D01*
X61620000Y-87756777D01*
X61620000Y-86289553D01*
X69879158Y-86289553D01*
X71120000Y-87530395D01*
X72360842Y-86289553D01*
X72216865Y-85984230D01*
X71859108Y-85803403D01*
X71472947Y-85695845D01*
X71073223Y-85665690D01*
X70675296Y-85714096D01*
X70294460Y-85839205D01*
X70023135Y-85984230D01*
X69879158Y-86289553D01*
X61620000Y-86289553D01*
X61620000Y-82509570D01*
X69085000Y-82509570D01*
X69085000Y-82910430D01*
X69163204Y-83303587D01*
X69316607Y-83673934D01*
X69539313Y-84007237D01*
X69822763Y-84290687D01*
X70156066Y-84513393D01*
X70526413Y-84666796D01*
X70919570Y-84745000D01*
X71320430Y-84745000D01*
X71713587Y-84666796D01*
X71838633Y-84615000D01*
X83566420Y-84615000D01*
X83660000Y-84624217D01*
X83753580Y-84615000D01*
X83753582Y-84615000D01*
X84033445Y-84587436D01*
X84081560Y-84572840D01*
X84413587Y-84506796D01*
X84783934Y-84353393D01*
X85117237Y-84130687D01*
X85400687Y-83847237D01*
X85604170Y-83542702D01*
X130036903Y-83542702D01*
X130108486Y-83786671D01*
X130363996Y-83907571D01*
X130638184Y-83976300D01*
X130920512Y-83990217D01*
X131200130Y-83948787D01*
X131466292Y-83853603D01*
X131591514Y-83786671D01*
X131663097Y-83542702D01*
X130850000Y-82729605D01*
X130036903Y-83542702D01*
X85604170Y-83542702D01*
X85623393Y-83513934D01*
X85776796Y-83143587D01*
X85855000Y-82750430D01*
X85855000Y-82620512D01*
X129409783Y-82620512D01*
X129451213Y-82900130D01*
X129546397Y-83166292D01*
X129613329Y-83291514D01*
X129857298Y-83363097D01*
X130670395Y-82550000D01*
X131029605Y-82550000D01*
X131842702Y-83363097D01*
X132086671Y-83291514D01*
X132100324Y-83262659D01*
X132235363Y-83464759D01*
X132435241Y-83664637D01*
X132670273Y-83821680D01*
X132931426Y-83929853D01*
X133208665Y-83985000D01*
X133491335Y-83985000D01*
X133768574Y-83929853D01*
X134029727Y-83821680D01*
X134264759Y-83664637D01*
X134464637Y-83464759D01*
X134621680Y-83229727D01*
X134729853Y-82968574D01*
X134785000Y-82691335D01*
X134785000Y-82408665D01*
X134729853Y-82131426D01*
X134621680Y-81870273D01*
X134464637Y-81635241D01*
X134264759Y-81435363D01*
X134029727Y-81278320D01*
X133768574Y-81170147D01*
X133491335Y-81115000D01*
X133208665Y-81115000D01*
X132931426Y-81170147D01*
X132670273Y-81278320D01*
X132435241Y-81435363D01*
X132235363Y-81635241D01*
X132101308Y-81835869D01*
X132086671Y-81808486D01*
X131842702Y-81736903D01*
X131029605Y-82550000D01*
X130670395Y-82550000D01*
X129857298Y-81736903D01*
X129613329Y-81808486D01*
X129492429Y-82063996D01*
X129423700Y-82338184D01*
X129409783Y-82620512D01*
X85855000Y-82620512D01*
X85855000Y-82349570D01*
X85776796Y-81956413D01*
X85623393Y-81586066D01*
X85604171Y-81557298D01*
X130036903Y-81557298D01*
X130850000Y-82370395D01*
X131663097Y-81557298D01*
X131591514Y-81313329D01*
X131336004Y-81192429D01*
X131061816Y-81123700D01*
X130779488Y-81109783D01*
X130499870Y-81151213D01*
X130233708Y-81246397D01*
X130108486Y-81313329D01*
X130036903Y-81557298D01*
X85604171Y-81557298D01*
X85400687Y-81252763D01*
X85117237Y-80969313D01*
X84783934Y-80746607D01*
X84413587Y-80593204D01*
X84020430Y-80515000D01*
X83619570Y-80515000D01*
X83226413Y-80593204D01*
X82856066Y-80746607D01*
X82768675Y-80805000D01*
X71838633Y-80805000D01*
X71713587Y-80753204D01*
X71320430Y-80675000D01*
X70919570Y-80675000D01*
X70526413Y-80753204D01*
X70156066Y-80906607D01*
X69822763Y-81129313D01*
X69539313Y-81412763D01*
X69316607Y-81746066D01*
X69163204Y-82116413D01*
X69085000Y-82509570D01*
X61620000Y-82509570D01*
X61620000Y-79130447D01*
X69879158Y-79130447D01*
X70023135Y-79435770D01*
X70380892Y-79616597D01*
X70767053Y-79724155D01*
X71166777Y-79754310D01*
X71564704Y-79705904D01*
X71945540Y-79580795D01*
X72216865Y-79435770D01*
X72360842Y-79130447D01*
X71120000Y-77889605D01*
X69879158Y-79130447D01*
X61620000Y-79130447D01*
X61620000Y-77756777D01*
X69075690Y-77756777D01*
X69124096Y-78154704D01*
X69249205Y-78535540D01*
X69394230Y-78806865D01*
X69699553Y-78950842D01*
X70940395Y-77710000D01*
X71299605Y-77710000D01*
X72540447Y-78950842D01*
X72845770Y-78806865D01*
X73026597Y-78449108D01*
X73134155Y-78062947D01*
X73164310Y-77663223D01*
X73115904Y-77265296D01*
X72990795Y-76884460D01*
X72845770Y-76613135D01*
X72540447Y-76469158D01*
X71299605Y-77710000D01*
X70940395Y-77710000D01*
X69699553Y-76469158D01*
X69394230Y-76613135D01*
X69213403Y-76970892D01*
X69105845Y-77357053D01*
X69075690Y-77756777D01*
X61620000Y-77756777D01*
X61620000Y-76289553D01*
X69879158Y-76289553D01*
X71120000Y-77530395D01*
X72360842Y-76289553D01*
X72257311Y-76070000D01*
X81781928Y-76070000D01*
X81781928Y-78870000D01*
X81794188Y-78994482D01*
X81830498Y-79114180D01*
X81889463Y-79224494D01*
X81968815Y-79321185D01*
X82065506Y-79400537D01*
X82175820Y-79459502D01*
X82295518Y-79495812D01*
X82420000Y-79508072D01*
X85220000Y-79508072D01*
X85344482Y-79495812D01*
X85464180Y-79459502D01*
X85574494Y-79400537D01*
X85605611Y-79375000D01*
X119473582Y-79375000D01*
X119753445Y-79347436D01*
X119883211Y-79308072D01*
X120580000Y-79308072D01*
X120704482Y-79295812D01*
X120824180Y-79259502D01*
X120934494Y-79200537D01*
X121031185Y-79121185D01*
X121110537Y-79024494D01*
X121169502Y-78914180D01*
X121205812Y-78794482D01*
X121218072Y-78670000D01*
X121218072Y-77973211D01*
X121257436Y-77843445D01*
X121294217Y-77470000D01*
X121257436Y-77096555D01*
X121218072Y-76966789D01*
X121218072Y-76270000D01*
X121205812Y-76145518D01*
X121169502Y-76025820D01*
X121110537Y-75915506D01*
X121031185Y-75818815D01*
X120934494Y-75739463D01*
X120824180Y-75680498D01*
X120704482Y-75644188D01*
X120580000Y-75631928D01*
X119883211Y-75631928D01*
X119753445Y-75592564D01*
X119473582Y-75565000D01*
X85605611Y-75565000D01*
X85574494Y-75539463D01*
X85464180Y-75480498D01*
X85344482Y-75444188D01*
X85220000Y-75431928D01*
X82420000Y-75431928D01*
X82295518Y-75444188D01*
X82175820Y-75480498D01*
X82065506Y-75539463D01*
X81968815Y-75618815D01*
X81889463Y-75715506D01*
X81830498Y-75825820D01*
X81794188Y-75945518D01*
X81781928Y-76070000D01*
X72257311Y-76070000D01*
X72216865Y-75984230D01*
X71859108Y-75803403D01*
X71472947Y-75695845D01*
X71073223Y-75665690D01*
X70675296Y-75714096D01*
X70294460Y-75839205D01*
X70023135Y-75984230D01*
X69879158Y-76289553D01*
X61620000Y-76289553D01*
X61620000Y-71247980D01*
X96691626Y-71247980D01*
X96811514Y-71532836D01*
X97135210Y-71693699D01*
X97484069Y-71788322D01*
X97844684Y-71813067D01*
X98203198Y-71766985D01*
X98545833Y-71651846D01*
X98768486Y-71532836D01*
X98888374Y-71247980D01*
X118281626Y-71247980D01*
X118401514Y-71532836D01*
X118725210Y-71693699D01*
X119074069Y-71788322D01*
X119434684Y-71813067D01*
X119793198Y-71766985D01*
X120135833Y-71651846D01*
X120358486Y-71532836D01*
X120478374Y-71247980D01*
X119380000Y-70149605D01*
X118281626Y-71247980D01*
X98888374Y-71247980D01*
X97790000Y-70149605D01*
X96691626Y-71247980D01*
X61620000Y-71247980D01*
X61620000Y-70024684D01*
X95946933Y-70024684D01*
X95993015Y-70383198D01*
X96108154Y-70725833D01*
X96227164Y-70948486D01*
X96512020Y-71068374D01*
X97610395Y-69970000D01*
X97969605Y-69970000D01*
X99067980Y-71068374D01*
X99352836Y-70948486D01*
X99513699Y-70624790D01*
X99608322Y-70275931D01*
X99625562Y-70024684D01*
X117536933Y-70024684D01*
X117583015Y-70383198D01*
X117698154Y-70725833D01*
X117817164Y-70948486D01*
X118102020Y-71068374D01*
X119200395Y-69970000D01*
X119559605Y-69970000D01*
X120657980Y-71068374D01*
X120942836Y-70948486D01*
X121103699Y-70624790D01*
X121198322Y-70275931D01*
X121223067Y-69915316D01*
X121176985Y-69556802D01*
X121061846Y-69214167D01*
X120942836Y-68991514D01*
X120657980Y-68871626D01*
X119559605Y-69970000D01*
X119200395Y-69970000D01*
X118102020Y-68871626D01*
X117817164Y-68991514D01*
X117656301Y-69315210D01*
X117561678Y-69664069D01*
X117536933Y-70024684D01*
X99625562Y-70024684D01*
X99633067Y-69915316D01*
X99586985Y-69556802D01*
X99471846Y-69214167D01*
X99352836Y-68991514D01*
X99067980Y-68871626D01*
X97969605Y-69970000D01*
X97610395Y-69970000D01*
X96512020Y-68871626D01*
X96227164Y-68991514D01*
X96066301Y-69315210D01*
X95971678Y-69664069D01*
X95946933Y-70024684D01*
X61620000Y-70024684D01*
X61620000Y-68692020D01*
X96691626Y-68692020D01*
X97790000Y-69790395D01*
X98888374Y-68692020D01*
X118281626Y-68692020D01*
X119380000Y-69790395D01*
X120478374Y-68692020D01*
X120358486Y-68407164D01*
X120034790Y-68246301D01*
X119685931Y-68151678D01*
X119325316Y-68126933D01*
X118966802Y-68173015D01*
X118624167Y-68288154D01*
X118401514Y-68407164D01*
X118281626Y-68692020D01*
X98888374Y-68692020D01*
X98768486Y-68407164D01*
X98444790Y-68246301D01*
X98095931Y-68151678D01*
X97735316Y-68126933D01*
X97376802Y-68173015D01*
X97034167Y-68288154D01*
X96811514Y-68407164D01*
X96691626Y-68692020D01*
X61620000Y-68692020D01*
X61620000Y-59469872D01*
X65075000Y-59469872D01*
X65075000Y-59910128D01*
X65160890Y-60341925D01*
X65329369Y-60748669D01*
X65573962Y-61114729D01*
X65885271Y-61426038D01*
X66251331Y-61670631D01*
X66658075Y-61839110D01*
X67089872Y-61925000D01*
X67530128Y-61925000D01*
X67961925Y-61839110D01*
X68368669Y-61670631D01*
X68734729Y-61426038D01*
X69046038Y-61114729D01*
X69290631Y-60748669D01*
X69459110Y-60341925D01*
X69545000Y-59910128D01*
X69545000Y-59860000D01*
X101131928Y-59860000D01*
X101131928Y-62060000D01*
X101144188Y-62184482D01*
X101180498Y-62304180D01*
X101239463Y-62414494D01*
X101318815Y-62511185D01*
X101415506Y-62590537D01*
X101525820Y-62649502D01*
X101645518Y-62685812D01*
X101770000Y-62698072D01*
X103970000Y-62698072D01*
X104094482Y-62685812D01*
X104214180Y-62649502D01*
X104324494Y-62590537D01*
X104421185Y-62511185D01*
X104500537Y-62414494D01*
X104559502Y-62304180D01*
X104595812Y-62184482D01*
X104608072Y-62060000D01*
X104608072Y-60789117D01*
X111295000Y-60789117D01*
X111295000Y-61130883D01*
X111361675Y-61466081D01*
X111492463Y-61781831D01*
X111682337Y-62065998D01*
X111924002Y-62307663D01*
X112208169Y-62497537D01*
X112523919Y-62628325D01*
X112859117Y-62695000D01*
X113200883Y-62695000D01*
X113536081Y-62628325D01*
X113851831Y-62497537D01*
X114080119Y-62345000D01*
X130412317Y-62345000D01*
X130449463Y-62414494D01*
X130528815Y-62511185D01*
X130625506Y-62590537D01*
X130735820Y-62649502D01*
X130855518Y-62685812D01*
X130980000Y-62698072D01*
X133180000Y-62698072D01*
X133304482Y-62685812D01*
X133424180Y-62649502D01*
X133534494Y-62590537D01*
X133631185Y-62511185D01*
X133710537Y-62414494D01*
X133747683Y-62345000D01*
X142446317Y-62345000D01*
X143587218Y-63485901D01*
X143501691Y-63531616D01*
X143491185Y-63518815D01*
X143394494Y-63439463D01*
X143284180Y-63380498D01*
X143164482Y-63344188D01*
X143040000Y-63331928D01*
X141440000Y-63331928D01*
X141315518Y-63344188D01*
X141195820Y-63380498D01*
X141187397Y-63385000D01*
X138498026Y-63385000D01*
X138429999Y-63378300D01*
X138361972Y-63385000D01*
X138361963Y-63385000D01*
X138158493Y-63405040D01*
X137897419Y-63484236D01*
X137656812Y-63612843D01*
X137656810Y-63612844D01*
X137656811Y-63612844D01*
X137498766Y-63742548D01*
X137498764Y-63742550D01*
X137445919Y-63785919D01*
X137402550Y-63838764D01*
X131843204Y-69398111D01*
X131573919Y-69451675D01*
X131258169Y-69582463D01*
X130974002Y-69772337D01*
X130732337Y-70014002D01*
X130542463Y-70298169D01*
X130411675Y-70613919D01*
X130345000Y-70949117D01*
X130345000Y-71290883D01*
X130411675Y-71626081D01*
X130542463Y-71941831D01*
X130732337Y-72225998D01*
X130974002Y-72467663D01*
X131258169Y-72657537D01*
X131573919Y-72788325D01*
X131843204Y-72841889D01*
X137402550Y-78401236D01*
X137445919Y-78454081D01*
X137498764Y-78497450D01*
X137498766Y-78497452D01*
X137595844Y-78577122D01*
X137656812Y-78627157D01*
X137897419Y-78755764D01*
X138158493Y-78834960D01*
X138361963Y-78855000D01*
X138361972Y-78855000D01*
X138429999Y-78861700D01*
X138498026Y-78855000D01*
X139585001Y-78855000D01*
X139585000Y-82618036D01*
X139605040Y-82821506D01*
X139684236Y-83082580D01*
X139812843Y-83323187D01*
X139985919Y-83534080D01*
X140196812Y-83707157D01*
X140437419Y-83835764D01*
X140698493Y-83914960D01*
X140970000Y-83941701D01*
X141241506Y-83914960D01*
X141502580Y-83835764D01*
X141743187Y-83707157D01*
X141954080Y-83534081D01*
X142127157Y-83323188D01*
X142255764Y-83082581D01*
X142334960Y-82821507D01*
X142355000Y-82618037D01*
X142355000Y-77538036D01*
X142361701Y-77470000D01*
X142341540Y-77265296D01*
X142334960Y-77198493D01*
X142255764Y-76937419D01*
X142127157Y-76696812D01*
X141954081Y-76485919D01*
X141743188Y-76312843D01*
X141502581Y-76184236D01*
X141241507Y-76105040D01*
X140970000Y-76078299D01*
X140901964Y-76085000D01*
X139003686Y-76085000D01*
X135642015Y-72723329D01*
X139677284Y-72723329D01*
X139709953Y-72831044D01*
X139820208Y-73068392D01*
X139974649Y-73279670D01*
X140167340Y-73456759D01*
X140390877Y-73592853D01*
X140636670Y-73682722D01*
X140843000Y-73560201D01*
X140843000Y-72517000D01*
X141097000Y-72517000D01*
X141097000Y-73560201D01*
X141303330Y-73682722D01*
X141549123Y-73592853D01*
X141772660Y-73456759D01*
X141965351Y-73279670D01*
X142119792Y-73068392D01*
X142230047Y-72831044D01*
X142262716Y-72723329D01*
X142139374Y-72517000D01*
X141097000Y-72517000D01*
X140843000Y-72517000D01*
X139800626Y-72517000D01*
X139677284Y-72723329D01*
X135642015Y-72723329D01*
X134975357Y-72056671D01*
X139677284Y-72056671D01*
X139800626Y-72263000D01*
X140843000Y-72263000D01*
X140843000Y-71219799D01*
X141097000Y-71219799D01*
X141097000Y-72263000D01*
X142139374Y-72263000D01*
X142262716Y-72056671D01*
X142230047Y-71948956D01*
X142119792Y-71711608D01*
X141965351Y-71500330D01*
X141772660Y-71323241D01*
X141549123Y-71187147D01*
X141303330Y-71097278D01*
X141097000Y-71219799D01*
X140843000Y-71219799D01*
X140636670Y-71097278D01*
X140390877Y-71187147D01*
X140167340Y-71323241D01*
X139974649Y-71500330D01*
X139820208Y-71711608D01*
X139709953Y-71948956D01*
X139677284Y-72056671D01*
X134975357Y-72056671D01*
X134038685Y-71120000D01*
X139003686Y-66155000D01*
X141187397Y-66155000D01*
X141195820Y-66159502D01*
X141315518Y-66195812D01*
X141440000Y-66208072D01*
X143040000Y-66208072D01*
X143164482Y-66195812D01*
X143284180Y-66159502D01*
X143394494Y-66100537D01*
X143491185Y-66021185D01*
X143501807Y-66008242D01*
X143753996Y-66127571D01*
X144028184Y-66196300D01*
X144310512Y-66210217D01*
X144590130Y-66168787D01*
X144856292Y-66073603D01*
X144981514Y-66006671D01*
X145053097Y-65762702D01*
X144240000Y-64949605D01*
X144225858Y-64963748D01*
X144046253Y-64784143D01*
X144060395Y-64770000D01*
X144046253Y-64755858D01*
X144225858Y-64576253D01*
X144240000Y-64590395D01*
X144254143Y-64576253D01*
X144433748Y-64755858D01*
X144419605Y-64770000D01*
X145232702Y-65583097D01*
X145476671Y-65511514D01*
X145520404Y-65419088D01*
X148291315Y-68189999D01*
X145118764Y-71362551D01*
X145065920Y-71405919D01*
X145022551Y-71458764D01*
X145022548Y-71458767D01*
X144892844Y-71616812D01*
X144764236Y-71857420D01*
X144685040Y-72118493D01*
X144658300Y-72390000D01*
X144665001Y-72458039D01*
X144665000Y-77401963D01*
X144658299Y-77470000D01*
X144685040Y-77741507D01*
X144764236Y-78002581D01*
X144892843Y-78243188D01*
X145065919Y-78454081D01*
X145274184Y-78625000D01*
X145276812Y-78627157D01*
X145517419Y-78755764D01*
X145778493Y-78834960D01*
X146050000Y-78861701D01*
X146118036Y-78855000D01*
X150961928Y-78855000D01*
X150961928Y-79540000D01*
X150974188Y-79664482D01*
X151010498Y-79784180D01*
X151069463Y-79894494D01*
X151148815Y-79991185D01*
X151245506Y-80070537D01*
X151355820Y-80129502D01*
X151475518Y-80165812D01*
X151600000Y-80178072D01*
X153200000Y-80178072D01*
X153324482Y-80165812D01*
X153444180Y-80129502D01*
X153554494Y-80070537D01*
X153651185Y-79991185D01*
X153730537Y-79894494D01*
X153789502Y-79784180D01*
X153805117Y-79732702D01*
X154086903Y-79732702D01*
X154158486Y-79976671D01*
X154413996Y-80097571D01*
X154688184Y-80166300D01*
X154970512Y-80180217D01*
X155250130Y-80138787D01*
X155516292Y-80043603D01*
X155641514Y-79976671D01*
X155713097Y-79732702D01*
X154900000Y-78919605D01*
X154086903Y-79732702D01*
X153805117Y-79732702D01*
X153825812Y-79664482D01*
X153838072Y-79540000D01*
X153838072Y-79532785D01*
X153907298Y-79553097D01*
X154720395Y-78740000D01*
X155079605Y-78740000D01*
X155892702Y-79553097D01*
X156136671Y-79481514D01*
X156257571Y-79226004D01*
X156326300Y-78951816D01*
X156333265Y-78810512D01*
X160389783Y-78810512D01*
X160431213Y-79090130D01*
X160526397Y-79356292D01*
X160593329Y-79481514D01*
X160837298Y-79553097D01*
X161650395Y-78740000D01*
X160837298Y-77926903D01*
X160593329Y-77998486D01*
X160472429Y-78253996D01*
X160403700Y-78528184D01*
X160389783Y-78810512D01*
X156333265Y-78810512D01*
X156340217Y-78669488D01*
X156298787Y-78389870D01*
X156203603Y-78123708D01*
X156136671Y-77998486D01*
X155892702Y-77926903D01*
X155079605Y-78740000D01*
X154720395Y-78740000D01*
X153907298Y-77926903D01*
X153838072Y-77947215D01*
X153838072Y-77940000D01*
X153825812Y-77815518D01*
X153805118Y-77747298D01*
X154086903Y-77747298D01*
X154900000Y-78560395D01*
X155713097Y-77747298D01*
X155641514Y-77503329D01*
X155386004Y-77382429D01*
X155111816Y-77313700D01*
X154829488Y-77299783D01*
X154549870Y-77341213D01*
X154283708Y-77436397D01*
X154158486Y-77503329D01*
X154086903Y-77747298D01*
X153805118Y-77747298D01*
X153789502Y-77695820D01*
X153785000Y-77687397D01*
X153785000Y-77538036D01*
X153791701Y-77470000D01*
X153771540Y-77265296D01*
X153764960Y-77198493D01*
X153685764Y-76937419D01*
X153557157Y-76696812D01*
X153493287Y-76618987D01*
X153384081Y-76485919D01*
X153173188Y-76312843D01*
X152932581Y-76184236D01*
X152671507Y-76105040D01*
X152468037Y-76085000D01*
X152468036Y-76085000D01*
X152400000Y-76078299D01*
X152331963Y-76085000D01*
X147435000Y-76085000D01*
X147435000Y-72963685D01*
X150433686Y-69965000D01*
X157371971Y-69965000D01*
X157440000Y-69971700D01*
X157508029Y-69965000D01*
X157508037Y-69965000D01*
X157711507Y-69944960D01*
X157972581Y-69865764D01*
X158213188Y-69737157D01*
X158424081Y-69564081D01*
X158467454Y-69511231D01*
X160951236Y-67027450D01*
X161004081Y-66984081D01*
X161177157Y-66773188D01*
X161305764Y-66532581D01*
X161384960Y-66271507D01*
X161405000Y-66068037D01*
X161405000Y-66068029D01*
X161411700Y-66000000D01*
X161405000Y-65931971D01*
X161405000Y-64642518D01*
X161432037Y-64675463D01*
X161673766Y-64873845D01*
X161949552Y-65021255D01*
X162197907Y-65096593D01*
X162445001Y-65343687D01*
X162445000Y-77443466D01*
X162316004Y-77382429D01*
X162041816Y-77313700D01*
X161759488Y-77299783D01*
X161479870Y-77341213D01*
X161213708Y-77436397D01*
X161088486Y-77503329D01*
X161016903Y-77747298D01*
X161830000Y-78560395D01*
X161844143Y-78546253D01*
X162023748Y-78725858D01*
X162009605Y-78740000D01*
X162023748Y-78754143D01*
X161844143Y-78933748D01*
X161830000Y-78919605D01*
X161016903Y-79732702D01*
X161088486Y-79976671D01*
X161343996Y-80097571D01*
X161618184Y-80166300D01*
X161900512Y-80180217D01*
X162180130Y-80138787D01*
X162446292Y-80043603D01*
X162568309Y-79978384D01*
X162578815Y-79991185D01*
X162675506Y-80070537D01*
X162785820Y-80129502D01*
X162905518Y-80165812D01*
X163030000Y-80178072D01*
X164630000Y-80178072D01*
X164754482Y-80165812D01*
X164874180Y-80129502D01*
X164984494Y-80070537D01*
X165081185Y-79991185D01*
X165160537Y-79894494D01*
X165219502Y-79784180D01*
X165255812Y-79664482D01*
X165268072Y-79540000D01*
X165268072Y-77940000D01*
X165255812Y-77815518D01*
X165219502Y-77695820D01*
X165215000Y-77687397D01*
X165215000Y-64838026D01*
X165221700Y-64769999D01*
X165215000Y-64701972D01*
X165215000Y-64701963D01*
X165194960Y-64498493D01*
X165115764Y-64237419D01*
X164987157Y-63996812D01*
X164949641Y-63951099D01*
X164857452Y-63838766D01*
X164857450Y-63838764D01*
X164814081Y-63785919D01*
X164761236Y-63742550D01*
X164109093Y-63090408D01*
X164033755Y-62842051D01*
X163886345Y-62566265D01*
X163687963Y-62324537D01*
X163446234Y-62126155D01*
X163170448Y-61978745D01*
X162871203Y-61887970D01*
X162560000Y-61857319D01*
X162248796Y-61887970D01*
X161949551Y-61978745D01*
X161673765Y-62126155D01*
X161432037Y-62324537D01*
X161405000Y-62357482D01*
X161405000Y-61573685D01*
X163508813Y-59469872D01*
X176835000Y-59469872D01*
X176835000Y-59910128D01*
X176920890Y-60341925D01*
X177089369Y-60748669D01*
X177333962Y-61114729D01*
X177645271Y-61426038D01*
X178011331Y-61670631D01*
X178418075Y-61839110D01*
X178849872Y-61925000D01*
X179290128Y-61925000D01*
X179721925Y-61839110D01*
X180128669Y-61670631D01*
X180494729Y-61426038D01*
X180806038Y-61114729D01*
X181050631Y-60748669D01*
X181219110Y-60341925D01*
X181305000Y-59910128D01*
X181305000Y-59469872D01*
X181219110Y-59038075D01*
X181050631Y-58631331D01*
X180806038Y-58265271D01*
X180494729Y-57953962D01*
X180128669Y-57709369D01*
X179721925Y-57540890D01*
X179290128Y-57455000D01*
X178849872Y-57455000D01*
X178418075Y-57540890D01*
X178011331Y-57709369D01*
X177645271Y-57953962D01*
X177333962Y-58265271D01*
X177089369Y-58631331D01*
X176920890Y-59038075D01*
X176835000Y-59469872D01*
X163508813Y-59469872D01*
X166143696Y-56834990D01*
X196768237Y-56834990D01*
X196755040Y-56878494D01*
X196735000Y-57081964D01*
X196735000Y-58305000D01*
X188028028Y-58305000D01*
X187959999Y-58298300D01*
X187891970Y-58305000D01*
X187891963Y-58305000D01*
X187714099Y-58322518D01*
X187688492Y-58325040D01*
X187603623Y-58350785D01*
X187427419Y-58404236D01*
X187186812Y-58532843D01*
X187186810Y-58532844D01*
X187186811Y-58532844D01*
X187028766Y-58662548D01*
X187028764Y-58662550D01*
X186975919Y-58705919D01*
X186932550Y-58758764D01*
X164526315Y-81165000D01*
X145981963Y-81165000D01*
X145778493Y-81185040D01*
X145517419Y-81264236D01*
X145276812Y-81392843D01*
X145065919Y-81565919D01*
X144892843Y-81776812D01*
X144764236Y-82017419D01*
X144685040Y-82278493D01*
X144658299Y-82550000D01*
X144685040Y-82821507D01*
X144764236Y-83082581D01*
X144892843Y-83323188D01*
X145065919Y-83534081D01*
X145276812Y-83707157D01*
X145517419Y-83835764D01*
X145778493Y-83914960D01*
X145981963Y-83935000D01*
X165031971Y-83935000D01*
X165100000Y-83941700D01*
X165168029Y-83935000D01*
X165168037Y-83935000D01*
X165371507Y-83914960D01*
X165632581Y-83835764D01*
X165873188Y-83707157D01*
X166084081Y-83534081D01*
X166127454Y-83481231D01*
X168138185Y-81470500D01*
X174320428Y-81470500D01*
X174320428Y-83375500D01*
X174332688Y-83499982D01*
X174368998Y-83619680D01*
X174427963Y-83729994D01*
X174507315Y-83826685D01*
X174604006Y-83906037D01*
X174695719Y-83955059D01*
X174582531Y-84096077D01*
X174438929Y-84371906D01*
X174367937Y-84590020D01*
X174487906Y-84836000D01*
X175831500Y-84836000D01*
X175831500Y-84816000D01*
X176085500Y-84816000D01*
X176085500Y-84836000D01*
X177429094Y-84836000D01*
X177549063Y-84590020D01*
X177478071Y-84371906D01*
X177334469Y-84096077D01*
X177221281Y-83955059D01*
X177312994Y-83906037D01*
X177409685Y-83826685D01*
X177489037Y-83729994D01*
X177548002Y-83619680D01*
X177584312Y-83499982D01*
X177596572Y-83375500D01*
X177596572Y-81470500D01*
X177584312Y-81346018D01*
X177548002Y-81226320D01*
X177489037Y-81116006D01*
X177409685Y-81019315D01*
X177312994Y-80939963D01*
X177202680Y-80880998D01*
X177082982Y-80844688D01*
X176958500Y-80832428D01*
X174958500Y-80832428D01*
X174834018Y-80844688D01*
X174714320Y-80880998D01*
X174604006Y-80939963D01*
X174507315Y-81019315D01*
X174427963Y-81116006D01*
X174368998Y-81226320D01*
X174332688Y-81346018D01*
X174320428Y-81470500D01*
X168138185Y-81470500D01*
X186443125Y-63165560D01*
X197364045Y-63165560D01*
X197425932Y-63401368D01*
X197667790Y-63514266D01*
X197927027Y-63577811D01*
X198193680Y-63589561D01*
X198457501Y-63549063D01*
X198708353Y-63457875D01*
X198814068Y-63401368D01*
X198875955Y-63165560D01*
X198120000Y-62409605D01*
X197364045Y-63165560D01*
X186443125Y-63165560D01*
X187305005Y-62303680D01*
X196760439Y-62303680D01*
X196800937Y-62567501D01*
X196892125Y-62818353D01*
X196948632Y-62924068D01*
X197184440Y-62985955D01*
X197940395Y-62230000D01*
X197184440Y-61474045D01*
X196948632Y-61535932D01*
X196835734Y-61777790D01*
X196772189Y-62037027D01*
X196760439Y-62303680D01*
X187305005Y-62303680D01*
X188533686Y-61075000D01*
X197421636Y-61075000D01*
X197364045Y-61294440D01*
X198120000Y-62050395D01*
X198875955Y-61294440D01*
X198814068Y-61058632D01*
X198642860Y-60978713D01*
X198652581Y-60975764D01*
X198893188Y-60847157D01*
X199104081Y-60674081D01*
X199275001Y-60465815D01*
X199275001Y-61531636D01*
X199055560Y-61474045D01*
X198299605Y-62230000D01*
X199055560Y-62985955D01*
X199275001Y-62928364D01*
X199275000Y-79368395D01*
X198297224Y-80346172D01*
X198335000Y-80156260D01*
X198335000Y-79863740D01*
X198277932Y-79576842D01*
X198165990Y-79306589D01*
X198003475Y-79063368D01*
X197796632Y-78856525D01*
X197622240Y-78740000D01*
X197796632Y-78623475D01*
X198003475Y-78416632D01*
X198165990Y-78173411D01*
X198277932Y-77903158D01*
X198335000Y-77616260D01*
X198335000Y-77323740D01*
X198277932Y-77036842D01*
X198165990Y-76766589D01*
X198003475Y-76523368D01*
X197796632Y-76316525D01*
X197622240Y-76200000D01*
X197796632Y-76083475D01*
X198003475Y-75876632D01*
X198165990Y-75633411D01*
X198277932Y-75363158D01*
X198335000Y-75076260D01*
X198335000Y-74783740D01*
X198277932Y-74496842D01*
X198165990Y-74226589D01*
X198003475Y-73983368D01*
X197796632Y-73776525D01*
X197553411Y-73614010D01*
X197283158Y-73502068D01*
X196996260Y-73445000D01*
X196703740Y-73445000D01*
X196416842Y-73502068D01*
X196313195Y-73545000D01*
X194846805Y-73545000D01*
X194743158Y-73502068D01*
X194456260Y-73445000D01*
X194163740Y-73445000D01*
X193876842Y-73502068D01*
X193606589Y-73614010D01*
X193363368Y-73776525D01*
X193156525Y-73983368D01*
X192994010Y-74226589D01*
X192882068Y-74496842D01*
X192825000Y-74783740D01*
X192825000Y-75076260D01*
X192882068Y-75363158D01*
X192994010Y-75633411D01*
X193156525Y-75876632D01*
X193363368Y-76083475D01*
X193537760Y-76200000D01*
X193363368Y-76316525D01*
X193156525Y-76523368D01*
X192994010Y-76766589D01*
X192882068Y-77036842D01*
X192825000Y-77323740D01*
X192825000Y-77616260D01*
X192882068Y-77903158D01*
X192994010Y-78173411D01*
X193156525Y-78416632D01*
X193363368Y-78623475D01*
X193537760Y-78740000D01*
X193363368Y-78856525D01*
X193156525Y-79063368D01*
X192994010Y-79306589D01*
X192882068Y-79576842D01*
X192825000Y-79863740D01*
X192825000Y-80156260D01*
X192882068Y-80443158D01*
X192994010Y-80713411D01*
X193156525Y-80956632D01*
X193363368Y-81163475D01*
X193537760Y-81280000D01*
X193363368Y-81396525D01*
X193156525Y-81603368D01*
X192994010Y-81846589D01*
X192882068Y-82116842D01*
X192825000Y-82403740D01*
X192825000Y-82696260D01*
X192882068Y-82983158D01*
X192994010Y-83253411D01*
X193156525Y-83496632D01*
X193363368Y-83703475D01*
X193536729Y-83819311D01*
X193461208Y-84061603D01*
X194310000Y-84910395D01*
X195158792Y-84061603D01*
X195119331Y-83935000D01*
X196040669Y-83935000D01*
X196001208Y-84061603D01*
X196850000Y-84910395D01*
X197698792Y-84061603D01*
X197659331Y-83935000D01*
X197984052Y-83935000D01*
X198052081Y-83941700D01*
X198120110Y-83935000D01*
X198120118Y-83935000D01*
X198323588Y-83914960D01*
X198584662Y-83835764D01*
X198825269Y-83707157D01*
X199036162Y-83534081D01*
X199079535Y-83481231D01*
X201591241Y-80969526D01*
X201644080Y-80926162D01*
X201687445Y-80873322D01*
X201687452Y-80873315D01*
X201817156Y-80715270D01*
X201817157Y-80715269D01*
X201945764Y-80474662D01*
X202024960Y-80213588D01*
X202045000Y-80010118D01*
X202045000Y-80010109D01*
X202051700Y-79942082D01*
X202045000Y-79874055D01*
X202045000Y-57353852D01*
X202051700Y-57285823D01*
X202045000Y-57217794D01*
X202045000Y-57217786D01*
X202027265Y-57037715D01*
X202024960Y-57014315D01*
X201945764Y-56753242D01*
X201936416Y-56735754D01*
X201817157Y-56512635D01*
X201727125Y-56402931D01*
X201687452Y-56354589D01*
X201687450Y-56354587D01*
X201644081Y-56301742D01*
X201591236Y-56258373D01*
X199851621Y-54518759D01*
X199808248Y-54465909D01*
X199597355Y-54292833D01*
X199356748Y-54164226D01*
X199095674Y-54085030D01*
X198892204Y-54064990D01*
X198892196Y-54064990D01*
X198824167Y-54058290D01*
X198756138Y-54064990D01*
X165638036Y-54064990D01*
X165570009Y-54058290D01*
X165501982Y-54064990D01*
X165501973Y-54064990D01*
X165298503Y-54085030D01*
X165037429Y-54164226D01*
X164796822Y-54292833D01*
X164796820Y-54292834D01*
X164796821Y-54292834D01*
X164638776Y-54422538D01*
X164638774Y-54422540D01*
X164585929Y-54465909D01*
X164542560Y-54518754D01*
X159088765Y-59972550D01*
X159035919Y-60015920D01*
X158862843Y-60226813D01*
X158734236Y-60467420D01*
X158655040Y-60728494D01*
X158635000Y-60931964D01*
X158635000Y-60931971D01*
X158628300Y-61000000D01*
X158635000Y-61068030D01*
X158635000Y-61897855D01*
X158556982Y-61874188D01*
X158432500Y-61861928D01*
X156527500Y-61861928D01*
X156403018Y-61874188D01*
X156283320Y-61910498D01*
X156173006Y-61969463D01*
X156076315Y-62048815D01*
X155996963Y-62145506D01*
X155937998Y-62255820D01*
X155901688Y-62375518D01*
X155889428Y-62500000D01*
X155889428Y-64500000D01*
X155901688Y-64624482D01*
X155937998Y-64744180D01*
X155996963Y-64854494D01*
X156076315Y-64951185D01*
X156173006Y-65030537D01*
X156283320Y-65089502D01*
X156403018Y-65125812D01*
X156527500Y-65138072D01*
X158432500Y-65138072D01*
X158556982Y-65125812D01*
X158635001Y-65102145D01*
X158635001Y-65426313D01*
X156866315Y-67195000D01*
X151107056Y-67195000D01*
X151017157Y-67026810D01*
X150844081Y-66815917D01*
X150791236Y-66772548D01*
X144047456Y-60028769D01*
X144004083Y-59975919D01*
X143793190Y-59802843D01*
X143552583Y-59674236D01*
X143291509Y-59595040D01*
X143088039Y-59575000D01*
X143088031Y-59575000D01*
X143020002Y-59568300D01*
X142951973Y-59575000D01*
X133747683Y-59575000D01*
X133710537Y-59505506D01*
X133631185Y-59408815D01*
X133534494Y-59329463D01*
X133424180Y-59270498D01*
X133304482Y-59234188D01*
X133180000Y-59221928D01*
X130980000Y-59221928D01*
X130855518Y-59234188D01*
X130735820Y-59270498D01*
X130625506Y-59329463D01*
X130528815Y-59408815D01*
X130449463Y-59505506D01*
X130412317Y-59575000D01*
X114080119Y-59575000D01*
X113851831Y-59422463D01*
X113536081Y-59291675D01*
X113200883Y-59225000D01*
X112859117Y-59225000D01*
X112523919Y-59291675D01*
X112208169Y-59422463D01*
X111924002Y-59612337D01*
X111682337Y-59854002D01*
X111492463Y-60138169D01*
X111361675Y-60453919D01*
X111295000Y-60789117D01*
X104608072Y-60789117D01*
X104608072Y-59860000D01*
X104595812Y-59735518D01*
X104559502Y-59615820D01*
X104500537Y-59505506D01*
X104421185Y-59408815D01*
X104324494Y-59329463D01*
X104214180Y-59270498D01*
X104094482Y-59234188D01*
X103970000Y-59221928D01*
X101770000Y-59221928D01*
X101645518Y-59234188D01*
X101525820Y-59270498D01*
X101415506Y-59329463D01*
X101318815Y-59408815D01*
X101239463Y-59505506D01*
X101180498Y-59615820D01*
X101144188Y-59735518D01*
X101131928Y-59860000D01*
X69545000Y-59860000D01*
X69545000Y-59469872D01*
X69459110Y-59038075D01*
X69290631Y-58631331D01*
X69046038Y-58265271D01*
X68734729Y-57953962D01*
X68368669Y-57709369D01*
X67961925Y-57540890D01*
X67530128Y-57455000D01*
X67089872Y-57455000D01*
X66658075Y-57540890D01*
X66251331Y-57709369D01*
X65885271Y-57953962D01*
X65573962Y-58265271D01*
X65329369Y-58631331D01*
X65160890Y-59038075D01*
X65075000Y-59469872D01*
X61620000Y-59469872D01*
X61620000Y-54000000D01*
X202540001Y-54000000D01*
X202540000Y-113640000D01*
%TA.AperFunction,Conductor*%
D30*
G36*
X202540000Y-113640000D02*
G01*
X61620000Y-113640000D01*
X61620000Y-107729872D01*
X65075000Y-107729872D01*
X65075000Y-108170128D01*
X65160890Y-108601925D01*
X65329369Y-109008669D01*
X65573962Y-109374729D01*
X65885271Y-109686038D01*
X66251331Y-109930631D01*
X66658075Y-110099110D01*
X67089872Y-110185000D01*
X67530128Y-110185000D01*
X67961925Y-110099110D01*
X68368669Y-109930631D01*
X68734729Y-109686038D01*
X69046038Y-109374729D01*
X69290631Y-109008669D01*
X69459110Y-108601925D01*
X69545000Y-108170128D01*
X69545000Y-107729872D01*
X69459110Y-107298075D01*
X69290631Y-106891331D01*
X69046038Y-106525271D01*
X68734729Y-106213962D01*
X68368669Y-105969369D01*
X67961925Y-105800890D01*
X67530128Y-105715000D01*
X67089872Y-105715000D01*
X66658075Y-105800890D01*
X66251331Y-105969369D01*
X65885271Y-106213962D01*
X65573962Y-106525271D01*
X65329369Y-106891331D01*
X65160890Y-107298075D01*
X65075000Y-107729872D01*
X61620000Y-107729872D01*
X61620000Y-91310000D01*
X69081928Y-91310000D01*
X69081928Y-94110000D01*
X69094188Y-94234482D01*
X69130498Y-94354180D01*
X69189463Y-94464494D01*
X69268815Y-94561185D01*
X69365506Y-94640537D01*
X69475820Y-94699502D01*
X69595518Y-94735812D01*
X69720000Y-94748072D01*
X72520000Y-94748072D01*
X72644482Y-94735812D01*
X72764180Y-94699502D01*
X72874494Y-94640537D01*
X72971185Y-94561185D01*
X73050537Y-94464494D01*
X73109502Y-94354180D01*
X73145812Y-94234482D01*
X73158072Y-94110000D01*
X73158072Y-93366003D01*
X74014505Y-92509570D01*
X81785000Y-92509570D01*
X81785000Y-92910430D01*
X81863204Y-93303587D01*
X82016607Y-93673934D01*
X82239313Y-94007237D01*
X82522763Y-94290687D01*
X82856066Y-94513393D01*
X82981115Y-94565190D01*
X98916784Y-110500860D01*
X98976444Y-110573556D01*
X99099438Y-110674494D01*
X99266517Y-110811613D01*
X99404262Y-110885239D01*
X99597461Y-110988506D01*
X99956555Y-111097436D01*
X100236418Y-111125000D01*
X100236420Y-111125000D01*
X100330000Y-111134217D01*
X100423580Y-111125000D01*
X104233582Y-111125000D01*
X104513445Y-111097436D01*
X104872539Y-110988506D01*
X105203482Y-110811613D01*
X105493556Y-110573556D01*
X105731613Y-110283482D01*
X105908506Y-109952539D01*
X106017436Y-109593445D01*
X106049359Y-109269326D01*
X106098685Y-109220000D01*
X112385783Y-109220000D01*
X112422564Y-109593445D01*
X112531494Y-109952539D01*
X112561928Y-110009477D01*
X112561928Y-110320000D01*
X112574188Y-110444482D01*
X112610498Y-110564180D01*
X112669463Y-110674494D01*
X112748815Y-110771185D01*
X112845506Y-110850537D01*
X112955820Y-110909502D01*
X113075518Y-110945812D01*
X113200000Y-110958072D01*
X113510523Y-110958072D01*
X113567461Y-110988506D01*
X113926555Y-111097436D01*
X114206418Y-111125000D01*
X119473582Y-111125000D01*
X119753445Y-111097436D01*
X120112539Y-110988506D01*
X120443482Y-110811613D01*
X120733556Y-110573556D01*
X120971613Y-110283482D01*
X121148506Y-109952539D01*
X121257436Y-109593445D01*
X121294217Y-109220000D01*
X121257436Y-108846555D01*
X121148506Y-108487461D01*
X120971613Y-108156518D01*
X120733556Y-107866444D01*
X120443482Y-107628387D01*
X120112539Y-107451494D01*
X119753445Y-107342564D01*
X119473582Y-107315000D01*
X114206418Y-107315000D01*
X113926555Y-107342564D01*
X113567461Y-107451494D01*
X113510523Y-107481928D01*
X113200000Y-107481928D01*
X113075518Y-107494188D01*
X112955820Y-107530498D01*
X112845506Y-107589463D01*
X112748815Y-107668815D01*
X112669463Y-107765506D01*
X112610498Y-107875820D01*
X112574188Y-107995518D01*
X112561928Y-108120000D01*
X112561928Y-108430523D01*
X112531494Y-108487461D01*
X112422564Y-108846555D01*
X112385783Y-109220000D01*
X106098685Y-109220000D01*
X108523686Y-106795000D01*
X124391971Y-106795000D01*
X124460000Y-106801700D01*
X124528029Y-106795000D01*
X124528037Y-106795000D01*
X124731507Y-106774960D01*
X124992581Y-106695764D01*
X125233188Y-106567157D01*
X125444081Y-106394081D01*
X125487454Y-106341231D01*
X127573685Y-104255000D01*
X132574184Y-104255000D01*
X132418766Y-104382548D01*
X132418764Y-104382550D01*
X132365919Y-104425919D01*
X132322550Y-104478764D01*
X129319387Y-107481928D01*
X128440000Y-107481928D01*
X128315518Y-107494188D01*
X128195820Y-107530498D01*
X128085506Y-107589463D01*
X127988815Y-107668815D01*
X127909463Y-107765506D01*
X127850498Y-107875820D01*
X127814188Y-107995518D01*
X127801928Y-108120000D01*
X127801928Y-110320000D01*
X127814188Y-110444482D01*
X127850498Y-110564180D01*
X127909463Y-110674494D01*
X127988815Y-110771185D01*
X128085506Y-110850537D01*
X128195820Y-110909502D01*
X128315518Y-110945812D01*
X128440000Y-110958072D01*
X130640000Y-110958072D01*
X130764482Y-110945812D01*
X130884180Y-110909502D01*
X130994494Y-110850537D01*
X131091185Y-110771185D01*
X131170537Y-110674494D01*
X131229502Y-110564180D01*
X131265812Y-110444482D01*
X131278072Y-110320000D01*
X131278072Y-109440613D01*
X133923686Y-106795000D01*
X141413279Y-106795000D01*
X141415040Y-106812877D01*
X141438839Y-106891331D01*
X141494236Y-107073950D01*
X141619428Y-107308167D01*
X141622844Y-107314558D01*
X141735225Y-107451494D01*
X141795919Y-107525450D01*
X141848765Y-107568820D01*
X145111190Y-110831246D01*
X145154559Y-110884091D01*
X145207404Y-110927460D01*
X145207406Y-110927462D01*
X145319739Y-111019651D01*
X145365452Y-111057167D01*
X145606059Y-111185774D01*
X145867133Y-111264970D01*
X146070603Y-111285010D01*
X146070612Y-111285010D01*
X146138639Y-111291710D01*
X146206666Y-111285010D01*
X161811961Y-111285010D01*
X161879990Y-111291710D01*
X161948019Y-111285010D01*
X161948027Y-111285010D01*
X162151497Y-111264970D01*
X162412571Y-111185774D01*
X162653178Y-111057167D01*
X162864071Y-110884091D01*
X162907444Y-110831241D01*
X163491233Y-110247452D01*
X163544081Y-110204081D01*
X163717157Y-109993188D01*
X163845764Y-109752581D01*
X163924960Y-109491507D01*
X163931233Y-109427818D01*
X163963685Y-109401185D01*
X164043037Y-109304494D01*
X164102002Y-109194180D01*
X164138312Y-109074482D01*
X164150572Y-108950000D01*
X164150572Y-107729872D01*
X176835000Y-107729872D01*
X176835000Y-108170128D01*
X176920890Y-108601925D01*
X177089369Y-109008669D01*
X177333962Y-109374729D01*
X177645271Y-109686038D01*
X178011331Y-109930631D01*
X178418075Y-110099110D01*
X178849872Y-110185000D01*
X179290128Y-110185000D01*
X179721925Y-110099110D01*
X180128669Y-109930631D01*
X180494729Y-109686038D01*
X180806038Y-109374729D01*
X181050631Y-109008669D01*
X181219110Y-108601925D01*
X181305000Y-108170128D01*
X181305000Y-107729872D01*
X181219110Y-107298075D01*
X181050631Y-106891331D01*
X180806038Y-106525271D01*
X180494729Y-106213962D01*
X180128669Y-105969369D01*
X179721925Y-105800890D01*
X179290128Y-105715000D01*
X178849872Y-105715000D01*
X178418075Y-105800890D01*
X178011331Y-105969369D01*
X177645271Y-106213962D01*
X177333962Y-106525271D01*
X177089369Y-106891331D01*
X176920890Y-107298075D01*
X176835000Y-107729872D01*
X164150572Y-107729872D01*
X164150572Y-106950000D01*
X164138312Y-106825518D01*
X164102002Y-106705820D01*
X164043037Y-106595506D01*
X163963685Y-106498815D01*
X163866994Y-106419463D01*
X163756680Y-106360498D01*
X163636982Y-106324188D01*
X163512500Y-106311928D01*
X161607500Y-106311928D01*
X161483018Y-106324188D01*
X161405000Y-106347855D01*
X161405000Y-105518029D01*
X161411700Y-105450000D01*
X161405000Y-105381971D01*
X161405000Y-105381963D01*
X161384960Y-105178493D01*
X161305764Y-104917419D01*
X161177157Y-104676812D01*
X161004081Y-104465919D01*
X160951236Y-104422550D01*
X158467452Y-101938767D01*
X158424081Y-101885919D01*
X158215816Y-101715000D01*
X187386315Y-101715000D01*
X197092555Y-111421241D01*
X197135919Y-111474080D01*
X197188759Y-111517445D01*
X197188766Y-111517452D01*
X197346812Y-111647157D01*
X197587419Y-111775764D01*
X197848493Y-111854960D01*
X198120000Y-111881701D01*
X198367164Y-111857358D01*
X198391507Y-111854960D01*
X198652580Y-111775764D01*
X198893188Y-111647157D01*
X199104081Y-111474081D01*
X199277157Y-111263188D01*
X199277158Y-111263187D01*
X199405764Y-111022581D01*
X199484960Y-110761507D01*
X199505000Y-110558037D01*
X199505000Y-110558029D01*
X199511700Y-110490000D01*
X199505000Y-110421971D01*
X199505000Y-107881963D01*
X199484960Y-107678493D01*
X199405764Y-107417419D01*
X199277157Y-107176812D01*
X199104081Y-106965919D01*
X198893188Y-106792843D01*
X198652581Y-106664236D01*
X198643453Y-106661467D01*
X198708353Y-106637875D01*
X198814068Y-106581368D01*
X198875955Y-106345560D01*
X198120000Y-105589605D01*
X197364045Y-106345560D01*
X197425932Y-106581368D01*
X197597141Y-106661287D01*
X197587420Y-106664236D01*
X197346813Y-106792843D01*
X197135920Y-106965919D01*
X196962844Y-107176812D01*
X196894103Y-107305417D01*
X195072366Y-105483680D01*
X196760439Y-105483680D01*
X196800937Y-105747501D01*
X196892125Y-105998353D01*
X196948632Y-106104068D01*
X197184440Y-106165955D01*
X197940395Y-105410000D01*
X198299605Y-105410000D01*
X199055560Y-106165955D01*
X199291368Y-106104068D01*
X199404266Y-105862210D01*
X199467811Y-105602973D01*
X199479561Y-105336320D01*
X199439063Y-105072499D01*
X199347875Y-104821647D01*
X199291368Y-104715932D01*
X199055560Y-104654045D01*
X198299605Y-105410000D01*
X197940395Y-105410000D01*
X197184440Y-104654045D01*
X196948632Y-104715932D01*
X196835734Y-104957790D01*
X196772189Y-105217027D01*
X196760439Y-105483680D01*
X195072366Y-105483680D01*
X194063126Y-104474440D01*
X197364045Y-104474440D01*
X198120000Y-105230395D01*
X198875955Y-104474440D01*
X198814068Y-104238632D01*
X198572210Y-104125734D01*
X198312973Y-104062189D01*
X198046320Y-104050439D01*
X197782499Y-104090937D01*
X197531647Y-104182125D01*
X197425932Y-104238632D01*
X197364045Y-104474440D01*
X194063126Y-104474440D01*
X188987454Y-99398769D01*
X188944081Y-99345919D01*
X188733188Y-99172843D01*
X188492581Y-99044236D01*
X188231507Y-98965040D01*
X188028037Y-98945000D01*
X188028029Y-98945000D01*
X187960000Y-98938300D01*
X187891971Y-98945000D01*
X146732212Y-98945000D01*
X146791664Y-98711269D01*
X146050000Y-97969605D01*
X145308336Y-98711269D01*
X145367788Y-98945000D01*
X141745816Y-98945000D01*
X141954081Y-98774081D01*
X142127157Y-98563188D01*
X142255764Y-98322581D01*
X142334960Y-98061507D01*
X142354366Y-97864473D01*
X144710610Y-97864473D01*
X144750875Y-98124344D01*
X144841065Y-98371366D01*
X144894963Y-98472203D01*
X145128731Y-98531664D01*
X145870395Y-97790000D01*
X146229605Y-97790000D01*
X146971269Y-98531664D01*
X147205037Y-98472203D01*
X147315934Y-98233758D01*
X147378183Y-97978260D01*
X147389390Y-97715527D01*
X147349125Y-97455656D01*
X147258935Y-97208634D01*
X147205037Y-97107797D01*
X146971269Y-97048336D01*
X146229605Y-97790000D01*
X145870395Y-97790000D01*
X145128731Y-97048336D01*
X144894963Y-97107797D01*
X144784066Y-97346242D01*
X144721817Y-97601740D01*
X144710610Y-97864473D01*
X142354366Y-97864473D01*
X142355000Y-97858037D01*
X142355000Y-96868731D01*
X145308336Y-96868731D01*
X146050000Y-97610395D01*
X146791664Y-96868731D01*
X146732203Y-96634963D01*
X146493758Y-96524066D01*
X146238260Y-96461817D01*
X145975527Y-96450610D01*
X145715656Y-96490875D01*
X145468634Y-96581065D01*
X145367797Y-96634963D01*
X145308336Y-96868731D01*
X142355000Y-96868731D01*
X142355000Y-92641963D01*
X142334960Y-92438493D01*
X142255764Y-92177419D01*
X142127157Y-91936812D01*
X141954080Y-91725919D01*
X141743187Y-91552843D01*
X141502580Y-91424236D01*
X141241506Y-91345040D01*
X140970000Y-91318299D01*
X140698493Y-91345040D01*
X140437419Y-91424236D01*
X140196812Y-91552843D01*
X139985919Y-91725920D01*
X139812843Y-91936813D01*
X139684236Y-92177420D01*
X139605040Y-92438494D01*
X139585000Y-92641964D01*
X139585001Y-97858037D01*
X139605041Y-98061507D01*
X139684237Y-98322581D01*
X139812844Y-98563188D01*
X139985920Y-98774081D01*
X140194185Y-98945000D01*
X138545000Y-98945000D01*
X138545000Y-92013685D01*
X141997452Y-88561234D01*
X142127157Y-88403188D01*
X142255764Y-88162581D01*
X142334960Y-87901507D01*
X142361700Y-87630000D01*
X142355000Y-87561964D01*
X144665000Y-87561964D01*
X144665001Y-92778037D01*
X144685041Y-92981507D01*
X144764237Y-93242581D01*
X144892844Y-93483188D01*
X145065920Y-93694081D01*
X145276813Y-93867157D01*
X145517420Y-93995764D01*
X145778494Y-94074960D01*
X146050000Y-94101701D01*
X146321507Y-94074960D01*
X146582581Y-93995764D01*
X146823188Y-93867157D01*
X147034081Y-93694081D01*
X147207157Y-93483188D01*
X147335764Y-93242581D01*
X147414960Y-92981507D01*
X147435000Y-92778037D01*
X147435000Y-91298665D01*
X151005000Y-91298665D01*
X151005000Y-91581335D01*
X151060147Y-91858574D01*
X151168320Y-92119727D01*
X151325363Y-92354759D01*
X151525241Y-92554637D01*
X151760273Y-92711680D01*
X152021426Y-92819853D01*
X152298665Y-92875000D01*
X152581335Y-92875000D01*
X152858574Y-92819853D01*
X153119727Y-92711680D01*
X153354759Y-92554637D01*
X153521339Y-92388057D01*
X153550498Y-92484180D01*
X153609463Y-92594494D01*
X153688815Y-92691185D01*
X153785506Y-92770537D01*
X153895820Y-92829502D01*
X154015518Y-92865812D01*
X154140000Y-92878072D01*
X154654250Y-92875000D01*
X154813000Y-92716250D01*
X154813000Y-91567000D01*
X155067000Y-91567000D01*
X155067000Y-92716250D01*
X155225750Y-92875000D01*
X155740000Y-92878072D01*
X155864482Y-92865812D01*
X155984180Y-92829502D01*
X156094494Y-92770537D01*
X156191185Y-92691185D01*
X156270537Y-92594494D01*
X156329502Y-92484180D01*
X156365812Y-92364482D01*
X156378072Y-92240000D01*
X156375000Y-91725750D01*
X156216250Y-91567000D01*
X155067000Y-91567000D01*
X154813000Y-91567000D01*
X154793000Y-91567000D01*
X154793000Y-91313000D01*
X154813000Y-91313000D01*
X154813000Y-90163750D01*
X155067000Y-90163750D01*
X155067000Y-91313000D01*
X156216250Y-91313000D01*
X156375000Y-91154250D01*
X156378072Y-90640000D01*
X159851928Y-90640000D01*
X159851928Y-92240000D01*
X159864188Y-92364482D01*
X159900498Y-92484180D01*
X159959463Y-92594494D01*
X160038815Y-92691185D01*
X160135506Y-92770537D01*
X160245820Y-92829502D01*
X160365518Y-92865812D01*
X160490000Y-92878072D01*
X162090000Y-92878072D01*
X162214482Y-92865812D01*
X162334180Y-92829502D01*
X162444494Y-92770537D01*
X162541185Y-92691185D01*
X162551807Y-92678242D01*
X162803996Y-92797571D01*
X163078184Y-92866300D01*
X163360512Y-92880217D01*
X163640130Y-92838787D01*
X163906292Y-92743603D01*
X164031514Y-92676671D01*
X164064649Y-92563740D01*
X192825000Y-92563740D01*
X192825000Y-92856260D01*
X192882068Y-93143158D01*
X192994010Y-93413411D01*
X193156525Y-93656632D01*
X193363368Y-93863475D01*
X193606589Y-94025990D01*
X193876842Y-94137932D01*
X194163740Y-94195000D01*
X194456260Y-94195000D01*
X194743158Y-94137932D01*
X194846805Y-94095000D01*
X195843787Y-94095000D01*
X195910150Y-94130472D01*
X196076746Y-94181008D01*
X196250000Y-94198072D01*
X197450000Y-94198072D01*
X197623254Y-94181008D01*
X197789850Y-94130472D01*
X197943386Y-94048405D01*
X198077962Y-93937962D01*
X198188405Y-93803386D01*
X198270472Y-93649850D01*
X198321008Y-93483254D01*
X198338072Y-93310000D01*
X198338072Y-92110000D01*
X198321008Y-91936746D01*
X198270472Y-91770150D01*
X198188405Y-91616614D01*
X198077962Y-91482038D01*
X197943386Y-91371595D01*
X197789850Y-91289528D01*
X197680707Y-91256420D01*
X197698792Y-91198397D01*
X196850000Y-90349605D01*
X196001208Y-91198397D01*
X196019293Y-91256420D01*
X195910150Y-91289528D01*
X195843787Y-91325000D01*
X195119331Y-91325000D01*
X195158792Y-91198397D01*
X194310000Y-90349605D01*
X193461208Y-91198397D01*
X193536729Y-91440689D01*
X193363368Y-91556525D01*
X193156525Y-91763368D01*
X192994010Y-92006589D01*
X192882068Y-92276842D01*
X192825000Y-92563740D01*
X164064649Y-92563740D01*
X164103097Y-92432702D01*
X163290000Y-91619605D01*
X163275858Y-91633748D01*
X163096253Y-91454143D01*
X163110395Y-91440000D01*
X163469605Y-91440000D01*
X164282702Y-92253097D01*
X164526671Y-92181514D01*
X164647571Y-91926004D01*
X164716300Y-91651816D01*
X164730217Y-91369488D01*
X164688787Y-91089870D01*
X164593603Y-90823708D01*
X164526671Y-90698486D01*
X164282702Y-90626903D01*
X163469605Y-91440000D01*
X163110395Y-91440000D01*
X163096253Y-91425858D01*
X163275858Y-91246253D01*
X163290000Y-91260395D01*
X164103097Y-90447298D01*
X164041843Y-90238531D01*
X192819389Y-90238531D01*
X192861401Y-90528019D01*
X192959081Y-90803747D01*
X193032528Y-90941157D01*
X193281603Y-91018792D01*
X194130395Y-90170000D01*
X194489605Y-90170000D01*
X195338397Y-91018792D01*
X195580000Y-90943486D01*
X195821603Y-91018792D01*
X196670395Y-90170000D01*
X197029605Y-90170000D01*
X197878397Y-91018792D01*
X198127472Y-90941157D01*
X198253371Y-90677117D01*
X198325339Y-90393589D01*
X198340611Y-90101469D01*
X198298599Y-89811981D01*
X198200919Y-89536253D01*
X198127472Y-89398843D01*
X197878397Y-89321208D01*
X197029605Y-90170000D01*
X196670395Y-90170000D01*
X195821603Y-89321208D01*
X195580000Y-89396514D01*
X195338397Y-89321208D01*
X194489605Y-90170000D01*
X194130395Y-90170000D01*
X193281603Y-89321208D01*
X193032528Y-89398843D01*
X192906629Y-89662883D01*
X192834661Y-89946411D01*
X192819389Y-90238531D01*
X164041843Y-90238531D01*
X164031514Y-90203329D01*
X163776004Y-90082429D01*
X163501816Y-90013700D01*
X163219488Y-89999783D01*
X162939870Y-90041213D01*
X162673708Y-90136397D01*
X162551691Y-90201616D01*
X162541185Y-90188815D01*
X162444494Y-90109463D01*
X162334180Y-90050498D01*
X162214482Y-90014188D01*
X162090000Y-90001928D01*
X160490000Y-90001928D01*
X160365518Y-90014188D01*
X160245820Y-90050498D01*
X160135506Y-90109463D01*
X160038815Y-90188815D01*
X159959463Y-90285506D01*
X159900498Y-90395820D01*
X159864188Y-90515518D01*
X159851928Y-90640000D01*
X156378072Y-90640000D01*
X156365812Y-90515518D01*
X156329502Y-90395820D01*
X156270537Y-90285506D01*
X156191185Y-90188815D01*
X156094494Y-90109463D01*
X155984180Y-90050498D01*
X155864482Y-90014188D01*
X155740000Y-90001928D01*
X155225750Y-90005000D01*
X155067000Y-90163750D01*
X154813000Y-90163750D01*
X154654250Y-90005000D01*
X154140000Y-90001928D01*
X154015518Y-90014188D01*
X153895820Y-90050498D01*
X153785506Y-90109463D01*
X153688815Y-90188815D01*
X153609463Y-90285506D01*
X153550498Y-90395820D01*
X153521339Y-90491943D01*
X153354759Y-90325363D01*
X153119727Y-90168320D01*
X152858574Y-90060147D01*
X152581335Y-90005000D01*
X152298665Y-90005000D01*
X152021426Y-90060147D01*
X151760273Y-90168320D01*
X151525241Y-90325363D01*
X151325363Y-90525241D01*
X151168320Y-90760273D01*
X151060147Y-91021426D01*
X151005000Y-91298665D01*
X147435000Y-91298665D01*
X147435000Y-87561963D01*
X147429193Y-87503000D01*
X174315819Y-87503000D01*
X174346470Y-87814204D01*
X174437245Y-88113449D01*
X174584655Y-88389235D01*
X174783037Y-88630963D01*
X175024765Y-88829345D01*
X175300551Y-88976755D01*
X175599796Y-89067530D01*
X175833014Y-89090500D01*
X176083986Y-89090500D01*
X176317204Y-89067530D01*
X176616449Y-88976755D01*
X176892235Y-88829345D01*
X177100534Y-88658397D01*
X193461208Y-88658397D01*
X193536514Y-88900000D01*
X193461208Y-89141603D01*
X194310000Y-89990395D01*
X195158792Y-89141603D01*
X195083486Y-88900000D01*
X195158792Y-88658397D01*
X196001208Y-88658397D01*
X196076514Y-88900000D01*
X196001208Y-89141603D01*
X196850000Y-89990395D01*
X197698792Y-89141603D01*
X197623486Y-88900000D01*
X197698792Y-88658397D01*
X196850000Y-87809605D01*
X196001208Y-88658397D01*
X195158792Y-88658397D01*
X194310000Y-87809605D01*
X193461208Y-88658397D01*
X177100534Y-88658397D01*
X177133963Y-88630963D01*
X177332345Y-88389235D01*
X177479755Y-88113449D01*
X177570530Y-87814204D01*
X177581922Y-87698531D01*
X192819389Y-87698531D01*
X192861401Y-87988019D01*
X192959081Y-88263747D01*
X193032528Y-88401157D01*
X193281603Y-88478792D01*
X194130395Y-87630000D01*
X194489605Y-87630000D01*
X195338397Y-88478792D01*
X195580000Y-88403486D01*
X195821603Y-88478792D01*
X196670395Y-87630000D01*
X197029605Y-87630000D01*
X197878397Y-88478792D01*
X198127472Y-88401157D01*
X198253371Y-88137117D01*
X198325339Y-87853589D01*
X198340611Y-87561469D01*
X198298599Y-87271981D01*
X198200919Y-86996253D01*
X198127472Y-86858843D01*
X197878397Y-86781208D01*
X197029605Y-87630000D01*
X196670395Y-87630000D01*
X195821603Y-86781208D01*
X195580000Y-86856514D01*
X195338397Y-86781208D01*
X194489605Y-87630000D01*
X194130395Y-87630000D01*
X193281603Y-86781208D01*
X193032528Y-86858843D01*
X192906629Y-87122883D01*
X192834661Y-87406411D01*
X192819389Y-87698531D01*
X177581922Y-87698531D01*
X177601181Y-87503000D01*
X177570530Y-87191796D01*
X177479755Y-86892551D01*
X177332345Y-86616765D01*
X177133963Y-86375037D01*
X176954601Y-86227837D01*
X177085037Y-86118397D01*
X193461208Y-86118397D01*
X193536514Y-86360000D01*
X193461208Y-86601603D01*
X194310000Y-87450395D01*
X195158792Y-86601603D01*
X195083486Y-86360000D01*
X195158792Y-86118397D01*
X196001208Y-86118397D01*
X196076514Y-86360000D01*
X196001208Y-86601603D01*
X196850000Y-87450395D01*
X197698792Y-86601603D01*
X197623486Y-86360000D01*
X197698792Y-86118397D01*
X196850000Y-85269605D01*
X196001208Y-86118397D01*
X195158792Y-86118397D01*
X194310000Y-85269605D01*
X193461208Y-86118397D01*
X177085037Y-86118397D01*
X177139815Y-86072437D01*
X177334469Y-85829923D01*
X177478071Y-85554094D01*
X177549063Y-85335980D01*
X177462518Y-85158531D01*
X192819389Y-85158531D01*
X192861401Y-85448019D01*
X192959081Y-85723747D01*
X193032528Y-85861157D01*
X193281603Y-85938792D01*
X194130395Y-85090000D01*
X194489605Y-85090000D01*
X195338397Y-85938792D01*
X195580000Y-85863486D01*
X195821603Y-85938792D01*
X196670395Y-85090000D01*
X197029605Y-85090000D01*
X197878397Y-85938792D01*
X198127472Y-85861157D01*
X198253371Y-85597117D01*
X198325339Y-85313589D01*
X198340611Y-85021469D01*
X198298599Y-84731981D01*
X198200919Y-84456253D01*
X198127472Y-84318843D01*
X197878397Y-84241208D01*
X197029605Y-85090000D01*
X196670395Y-85090000D01*
X195821603Y-84241208D01*
X195580000Y-84316514D01*
X195338397Y-84241208D01*
X194489605Y-85090000D01*
X194130395Y-85090000D01*
X193281603Y-84241208D01*
X193032528Y-84318843D01*
X192906629Y-84582883D01*
X192834661Y-84866411D01*
X192819389Y-85158531D01*
X177462518Y-85158531D01*
X177429094Y-85090000D01*
X176085500Y-85090000D01*
X176085500Y-85110000D01*
X175831500Y-85110000D01*
X175831500Y-85090000D01*
X174487906Y-85090000D01*
X174367937Y-85335980D01*
X174438929Y-85554094D01*
X174582531Y-85829923D01*
X174777185Y-86072437D01*
X174962399Y-86227837D01*
X174783037Y-86375037D01*
X174584655Y-86616765D01*
X174437245Y-86892551D01*
X174346470Y-87191796D01*
X174315819Y-87503000D01*
X147429193Y-87503000D01*
X147414960Y-87358493D01*
X147335764Y-87097419D01*
X147207157Y-86856812D01*
X147034080Y-86645919D01*
X146823187Y-86472843D01*
X146582580Y-86344236D01*
X146321506Y-86265040D01*
X146050000Y-86238299D01*
X145778493Y-86265040D01*
X145517419Y-86344236D01*
X145276812Y-86472843D01*
X145065919Y-86645920D01*
X144892843Y-86856813D01*
X144764236Y-87097420D01*
X144685040Y-87358494D01*
X144665000Y-87561964D01*
X142355000Y-87561964D01*
X142334960Y-87358493D01*
X142255764Y-87097419D01*
X142127157Y-86856812D01*
X141954081Y-86645919D01*
X141743188Y-86472843D01*
X141502581Y-86344236D01*
X141241507Y-86265040D01*
X140970000Y-86238300D01*
X140698493Y-86265040D01*
X140437419Y-86344236D01*
X140196812Y-86472843D01*
X140038766Y-86602548D01*
X136228764Y-90412551D01*
X136175920Y-90455919D01*
X136132551Y-90508764D01*
X136132548Y-90508767D01*
X136002844Y-90666812D01*
X135874236Y-90907420D01*
X135795040Y-91168493D01*
X135768300Y-91440000D01*
X135775001Y-91508039D01*
X135775000Y-100261963D01*
X135768299Y-100330000D01*
X135795040Y-100601507D01*
X135874236Y-100862581D01*
X136002843Y-101103188D01*
X136175919Y-101314081D01*
X136376020Y-101478300D01*
X136384184Y-101485000D01*
X130343686Y-101485000D01*
X131781236Y-100047450D01*
X131834081Y-100004081D01*
X132007157Y-99793188D01*
X132135764Y-99552581D01*
X132214960Y-99291507D01*
X132235000Y-99088037D01*
X132235000Y-99088028D01*
X132241700Y-99020001D01*
X132235000Y-98951974D01*
X132235000Y-88622702D01*
X132536903Y-88622702D01*
X132608486Y-88866671D01*
X132863996Y-88987571D01*
X133138184Y-89056300D01*
X133420512Y-89070217D01*
X133700130Y-89028787D01*
X133966292Y-88933603D01*
X134091514Y-88866671D01*
X134163097Y-88622702D01*
X133350000Y-87809605D01*
X132536903Y-88622702D01*
X132235000Y-88622702D01*
X132235000Y-88407214D01*
X132357298Y-88443097D01*
X133170395Y-87630000D01*
X133529605Y-87630000D01*
X134342702Y-88443097D01*
X134586671Y-88371514D01*
X134707571Y-88116004D01*
X134776300Y-87841816D01*
X134790217Y-87559488D01*
X134748787Y-87279870D01*
X134653603Y-87013708D01*
X134586671Y-86888486D01*
X134342702Y-86816903D01*
X133529605Y-87630000D01*
X133170395Y-87630000D01*
X132357298Y-86816903D01*
X132113329Y-86888486D01*
X132099676Y-86917341D01*
X131964637Y-86715241D01*
X131886694Y-86637298D01*
X132536903Y-86637298D01*
X133350000Y-87450395D01*
X134163097Y-86637298D01*
X134091514Y-86393329D01*
X133836004Y-86272429D01*
X133561816Y-86203700D01*
X133279488Y-86189783D01*
X132999870Y-86231213D01*
X132733708Y-86326397D01*
X132608486Y-86393329D01*
X132536903Y-86637298D01*
X131886694Y-86637298D01*
X131764759Y-86515363D01*
X131529727Y-86358320D01*
X131268574Y-86250147D01*
X130991335Y-86195000D01*
X130708665Y-86195000D01*
X130431426Y-86250147D01*
X130170273Y-86358320D01*
X129935241Y-86515363D01*
X129735363Y-86715241D01*
X129578320Y-86950273D01*
X129470147Y-87211426D01*
X129415000Y-87488665D01*
X129415000Y-87771335D01*
X129465000Y-88022699D01*
X129465001Y-98446313D01*
X126068769Y-101842546D01*
X126015919Y-101885919D01*
X125972548Y-101938767D01*
X123886315Y-104025000D01*
X108018029Y-104025000D01*
X107950000Y-104018300D01*
X107881971Y-104025000D01*
X107881963Y-104025000D01*
X107678493Y-104045040D01*
X107417419Y-104124236D01*
X107176812Y-104252843D01*
X107018766Y-104382548D01*
X107018764Y-104382550D01*
X106965919Y-104425919D01*
X106922550Y-104478764D01*
X104086315Y-107315000D01*
X101119076Y-107315000D01*
X95334076Y-101530000D01*
X95951928Y-101530000D01*
X95964188Y-101654482D01*
X96000498Y-101774180D01*
X96059463Y-101884494D01*
X96138815Y-101981185D01*
X96235506Y-102060537D01*
X96345820Y-102119502D01*
X96465518Y-102155812D01*
X96590000Y-102168072D01*
X97504250Y-102165000D01*
X97663000Y-102006250D01*
X97663000Y-100457000D01*
X97917000Y-100457000D01*
X97917000Y-102006250D01*
X98075750Y-102165000D01*
X98990000Y-102168072D01*
X99114482Y-102155812D01*
X99234180Y-102119502D01*
X99344494Y-102060537D01*
X99441185Y-101981185D01*
X99520537Y-101884494D01*
X99579502Y-101774180D01*
X99615812Y-101654482D01*
X99628072Y-101530000D01*
X117541928Y-101530000D01*
X117554188Y-101654482D01*
X117590498Y-101774180D01*
X117649463Y-101884494D01*
X117728815Y-101981185D01*
X117825506Y-102060537D01*
X117935820Y-102119502D01*
X118055518Y-102155812D01*
X118180000Y-102168072D01*
X119094250Y-102165000D01*
X119253000Y-102006250D01*
X119253000Y-100457000D01*
X119507000Y-100457000D01*
X119507000Y-102006250D01*
X119665750Y-102165000D01*
X120580000Y-102168072D01*
X120704482Y-102155812D01*
X120824180Y-102119502D01*
X120934494Y-102060537D01*
X121031185Y-101981185D01*
X121110537Y-101884494D01*
X121169502Y-101774180D01*
X121205812Y-101654482D01*
X121218072Y-101530000D01*
X121215000Y-100615750D01*
X121056250Y-100457000D01*
X119507000Y-100457000D01*
X119253000Y-100457000D01*
X117703750Y-100457000D01*
X117545000Y-100615750D01*
X117541928Y-101530000D01*
X99628072Y-101530000D01*
X99625000Y-100615750D01*
X99466250Y-100457000D01*
X97917000Y-100457000D01*
X97663000Y-100457000D01*
X96113750Y-100457000D01*
X95955000Y-100615750D01*
X95951928Y-101530000D01*
X95334076Y-101530000D01*
X92934076Y-99130000D01*
X95951928Y-99130000D01*
X95955000Y-100044250D01*
X96113750Y-100203000D01*
X97663000Y-100203000D01*
X97663000Y-98653750D01*
X97917000Y-98653750D01*
X97917000Y-100203000D01*
X99466250Y-100203000D01*
X99625000Y-100044250D01*
X99628072Y-99130000D01*
X117541928Y-99130000D01*
X117545000Y-100044250D01*
X117703750Y-100203000D01*
X119253000Y-100203000D01*
X119253000Y-98653750D01*
X119507000Y-98653750D01*
X119507000Y-100203000D01*
X121056250Y-100203000D01*
X121215000Y-100044250D01*
X121218072Y-99130000D01*
X121205812Y-99005518D01*
X121169502Y-98885820D01*
X121110537Y-98775506D01*
X121031185Y-98678815D01*
X120934494Y-98599463D01*
X120824180Y-98540498D01*
X120704482Y-98504188D01*
X120580000Y-98491928D01*
X119665750Y-98495000D01*
X119507000Y-98653750D01*
X119253000Y-98653750D01*
X119094250Y-98495000D01*
X118180000Y-98491928D01*
X118055518Y-98504188D01*
X117935820Y-98540498D01*
X117825506Y-98599463D01*
X117728815Y-98678815D01*
X117649463Y-98775506D01*
X117590498Y-98885820D01*
X117554188Y-99005518D01*
X117541928Y-99130000D01*
X99628072Y-99130000D01*
X99615812Y-99005518D01*
X99579502Y-98885820D01*
X99520537Y-98775506D01*
X99441185Y-98678815D01*
X99344494Y-98599463D01*
X99234180Y-98540498D01*
X99114482Y-98504188D01*
X98990000Y-98491928D01*
X98075750Y-98495000D01*
X97917000Y-98653750D01*
X97663000Y-98653750D01*
X97504250Y-98495000D01*
X96590000Y-98491928D01*
X96465518Y-98504188D01*
X96345820Y-98540498D01*
X96235506Y-98599463D01*
X96138815Y-98678815D01*
X96059463Y-98775506D01*
X96000498Y-98885820D01*
X95964188Y-99005518D01*
X95951928Y-99130000D01*
X92934076Y-99130000D01*
X88539075Y-94735000D01*
X119473582Y-94735000D01*
X119753445Y-94707436D01*
X120112539Y-94598506D01*
X120443482Y-94421613D01*
X120733556Y-94183556D01*
X120971613Y-93893482D01*
X121148506Y-93562539D01*
X121257436Y-93203445D01*
X121294217Y-92830000D01*
X121257436Y-92456555D01*
X121148506Y-92097461D01*
X120971613Y-91766518D01*
X120733556Y-91476444D01*
X120443482Y-91238387D01*
X120112539Y-91061494D01*
X119753445Y-90952564D01*
X119473582Y-90925000D01*
X84811461Y-90925000D01*
X84783934Y-90906607D01*
X84413587Y-90753204D01*
X84020430Y-90675000D01*
X83619570Y-90675000D01*
X83226413Y-90753204D01*
X82856066Y-90906607D01*
X82522763Y-91129313D01*
X82239313Y-91412763D01*
X82016607Y-91746066D01*
X81863204Y-92116413D01*
X81785000Y-92509570D01*
X74014505Y-92509570D01*
X76989076Y-89535000D01*
X83101367Y-89535000D01*
X83226413Y-89586796D01*
X83619570Y-89665000D01*
X84020430Y-89665000D01*
X84413587Y-89586796D01*
X84783934Y-89433393D01*
X85117237Y-89210687D01*
X85400687Y-88927237D01*
X85623393Y-88593934D01*
X85776796Y-88223587D01*
X85855000Y-87830430D01*
X85855000Y-87429570D01*
X85776796Y-87036413D01*
X85623393Y-86666066D01*
X85400687Y-86332763D01*
X85117237Y-86049313D01*
X84783934Y-85826607D01*
X84413587Y-85673204D01*
X84020430Y-85595000D01*
X83619570Y-85595000D01*
X83226413Y-85673204D01*
X83101367Y-85725000D01*
X76293580Y-85725000D01*
X76200000Y-85715783D01*
X76106420Y-85725000D01*
X76106418Y-85725000D01*
X75826555Y-85752564D01*
X75467461Y-85861494D01*
X75366423Y-85915500D01*
X75136517Y-86038387D01*
X75039025Y-86118397D01*
X74846444Y-86276444D01*
X74786784Y-86349140D01*
X73139147Y-87996778D01*
X73164310Y-87663223D01*
X73115904Y-87265296D01*
X72990795Y-86884460D01*
X72845770Y-86613135D01*
X72540447Y-86469158D01*
X71299605Y-87710000D01*
X71313748Y-87724143D01*
X71134143Y-87903748D01*
X71120000Y-87889605D01*
X69879158Y-89130447D01*
X70023135Y-89435770D01*
X70380892Y-89616597D01*
X70767053Y-89724155D01*
X71166777Y-89754310D01*
X71411368Y-89724557D01*
X70463997Y-90671928D01*
X69720000Y-90671928D01*
X69595518Y-90684188D01*
X69475820Y-90720498D01*
X69365506Y-90779463D01*
X69268815Y-90858815D01*
X69189463Y-90955506D01*
X69130498Y-91065820D01*
X69094188Y-91185518D01*
X69081928Y-91310000D01*
X61620000Y-91310000D01*
X61620000Y-87756777D01*
X69075690Y-87756777D01*
X69124096Y-88154704D01*
X69249205Y-88535540D01*
X69394230Y-88806865D01*
X69699553Y-88950842D01*
X70940395Y-87710000D01*
X69699553Y-86469158D01*
X69394230Y-86613135D01*
X69213403Y-86970892D01*
X69105845Y-87357053D01*
X69075690Y-87756777D01*
X61620000Y-87756777D01*
X61620000Y-86289553D01*
X69879158Y-86289553D01*
X71120000Y-87530395D01*
X72360842Y-86289553D01*
X72216865Y-85984230D01*
X71859108Y-85803403D01*
X71472947Y-85695845D01*
X71073223Y-85665690D01*
X70675296Y-85714096D01*
X70294460Y-85839205D01*
X70023135Y-85984230D01*
X69879158Y-86289553D01*
X61620000Y-86289553D01*
X61620000Y-82509570D01*
X69085000Y-82509570D01*
X69085000Y-82910430D01*
X69163204Y-83303587D01*
X69316607Y-83673934D01*
X69539313Y-84007237D01*
X69822763Y-84290687D01*
X70156066Y-84513393D01*
X70526413Y-84666796D01*
X70919570Y-84745000D01*
X71320430Y-84745000D01*
X71713587Y-84666796D01*
X71838633Y-84615000D01*
X83566420Y-84615000D01*
X83660000Y-84624217D01*
X83753580Y-84615000D01*
X83753582Y-84615000D01*
X84033445Y-84587436D01*
X84081560Y-84572840D01*
X84413587Y-84506796D01*
X84783934Y-84353393D01*
X85117237Y-84130687D01*
X85400687Y-83847237D01*
X85604170Y-83542702D01*
X130036903Y-83542702D01*
X130108486Y-83786671D01*
X130363996Y-83907571D01*
X130638184Y-83976300D01*
X130920512Y-83990217D01*
X131200130Y-83948787D01*
X131466292Y-83853603D01*
X131591514Y-83786671D01*
X131663097Y-83542702D01*
X130850000Y-82729605D01*
X130036903Y-83542702D01*
X85604170Y-83542702D01*
X85623393Y-83513934D01*
X85776796Y-83143587D01*
X85855000Y-82750430D01*
X85855000Y-82620512D01*
X129409783Y-82620512D01*
X129451213Y-82900130D01*
X129546397Y-83166292D01*
X129613329Y-83291514D01*
X129857298Y-83363097D01*
X130670395Y-82550000D01*
X131029605Y-82550000D01*
X131842702Y-83363097D01*
X132086671Y-83291514D01*
X132100324Y-83262659D01*
X132235363Y-83464759D01*
X132435241Y-83664637D01*
X132670273Y-83821680D01*
X132931426Y-83929853D01*
X133208665Y-83985000D01*
X133491335Y-83985000D01*
X133768574Y-83929853D01*
X134029727Y-83821680D01*
X134264759Y-83664637D01*
X134464637Y-83464759D01*
X134621680Y-83229727D01*
X134729853Y-82968574D01*
X134785000Y-82691335D01*
X134785000Y-82408665D01*
X134729853Y-82131426D01*
X134621680Y-81870273D01*
X134464637Y-81635241D01*
X134264759Y-81435363D01*
X134029727Y-81278320D01*
X133768574Y-81170147D01*
X133491335Y-81115000D01*
X133208665Y-81115000D01*
X132931426Y-81170147D01*
X132670273Y-81278320D01*
X132435241Y-81435363D01*
X132235363Y-81635241D01*
X132101308Y-81835869D01*
X132086671Y-81808486D01*
X131842702Y-81736903D01*
X131029605Y-82550000D01*
X130670395Y-82550000D01*
X129857298Y-81736903D01*
X129613329Y-81808486D01*
X129492429Y-82063996D01*
X129423700Y-82338184D01*
X129409783Y-82620512D01*
X85855000Y-82620512D01*
X85855000Y-82349570D01*
X85776796Y-81956413D01*
X85623393Y-81586066D01*
X85604171Y-81557298D01*
X130036903Y-81557298D01*
X130850000Y-82370395D01*
X131663097Y-81557298D01*
X131591514Y-81313329D01*
X131336004Y-81192429D01*
X131061816Y-81123700D01*
X130779488Y-81109783D01*
X130499870Y-81151213D01*
X130233708Y-81246397D01*
X130108486Y-81313329D01*
X130036903Y-81557298D01*
X85604171Y-81557298D01*
X85400687Y-81252763D01*
X85117237Y-80969313D01*
X84783934Y-80746607D01*
X84413587Y-80593204D01*
X84020430Y-80515000D01*
X83619570Y-80515000D01*
X83226413Y-80593204D01*
X82856066Y-80746607D01*
X82768675Y-80805000D01*
X71838633Y-80805000D01*
X71713587Y-80753204D01*
X71320430Y-80675000D01*
X70919570Y-80675000D01*
X70526413Y-80753204D01*
X70156066Y-80906607D01*
X69822763Y-81129313D01*
X69539313Y-81412763D01*
X69316607Y-81746066D01*
X69163204Y-82116413D01*
X69085000Y-82509570D01*
X61620000Y-82509570D01*
X61620000Y-79130447D01*
X69879158Y-79130447D01*
X70023135Y-79435770D01*
X70380892Y-79616597D01*
X70767053Y-79724155D01*
X71166777Y-79754310D01*
X71564704Y-79705904D01*
X71945540Y-79580795D01*
X72216865Y-79435770D01*
X72360842Y-79130447D01*
X71120000Y-77889605D01*
X69879158Y-79130447D01*
X61620000Y-79130447D01*
X61620000Y-77756777D01*
X69075690Y-77756777D01*
X69124096Y-78154704D01*
X69249205Y-78535540D01*
X69394230Y-78806865D01*
X69699553Y-78950842D01*
X70940395Y-77710000D01*
X71299605Y-77710000D01*
X72540447Y-78950842D01*
X72845770Y-78806865D01*
X73026597Y-78449108D01*
X73134155Y-78062947D01*
X73164310Y-77663223D01*
X73115904Y-77265296D01*
X72990795Y-76884460D01*
X72845770Y-76613135D01*
X72540447Y-76469158D01*
X71299605Y-77710000D01*
X70940395Y-77710000D01*
X69699553Y-76469158D01*
X69394230Y-76613135D01*
X69213403Y-76970892D01*
X69105845Y-77357053D01*
X69075690Y-77756777D01*
X61620000Y-77756777D01*
X61620000Y-76289553D01*
X69879158Y-76289553D01*
X71120000Y-77530395D01*
X72360842Y-76289553D01*
X72257311Y-76070000D01*
X81781928Y-76070000D01*
X81781928Y-78870000D01*
X81794188Y-78994482D01*
X81830498Y-79114180D01*
X81889463Y-79224494D01*
X81968815Y-79321185D01*
X82065506Y-79400537D01*
X82175820Y-79459502D01*
X82295518Y-79495812D01*
X82420000Y-79508072D01*
X85220000Y-79508072D01*
X85344482Y-79495812D01*
X85464180Y-79459502D01*
X85574494Y-79400537D01*
X85605611Y-79375000D01*
X119473582Y-79375000D01*
X119753445Y-79347436D01*
X119883211Y-79308072D01*
X120580000Y-79308072D01*
X120704482Y-79295812D01*
X120824180Y-79259502D01*
X120934494Y-79200537D01*
X121031185Y-79121185D01*
X121110537Y-79024494D01*
X121169502Y-78914180D01*
X121205812Y-78794482D01*
X121218072Y-78670000D01*
X121218072Y-77973211D01*
X121257436Y-77843445D01*
X121294217Y-77470000D01*
X121257436Y-77096555D01*
X121218072Y-76966789D01*
X121218072Y-76270000D01*
X121205812Y-76145518D01*
X121169502Y-76025820D01*
X121110537Y-75915506D01*
X121031185Y-75818815D01*
X120934494Y-75739463D01*
X120824180Y-75680498D01*
X120704482Y-75644188D01*
X120580000Y-75631928D01*
X119883211Y-75631928D01*
X119753445Y-75592564D01*
X119473582Y-75565000D01*
X85605611Y-75565000D01*
X85574494Y-75539463D01*
X85464180Y-75480498D01*
X85344482Y-75444188D01*
X85220000Y-75431928D01*
X82420000Y-75431928D01*
X82295518Y-75444188D01*
X82175820Y-75480498D01*
X82065506Y-75539463D01*
X81968815Y-75618815D01*
X81889463Y-75715506D01*
X81830498Y-75825820D01*
X81794188Y-75945518D01*
X81781928Y-76070000D01*
X72257311Y-76070000D01*
X72216865Y-75984230D01*
X71859108Y-75803403D01*
X71472947Y-75695845D01*
X71073223Y-75665690D01*
X70675296Y-75714096D01*
X70294460Y-75839205D01*
X70023135Y-75984230D01*
X69879158Y-76289553D01*
X61620000Y-76289553D01*
X61620000Y-71247980D01*
X96691626Y-71247980D01*
X96811514Y-71532836D01*
X97135210Y-71693699D01*
X97484069Y-71788322D01*
X97844684Y-71813067D01*
X98203198Y-71766985D01*
X98545833Y-71651846D01*
X98768486Y-71532836D01*
X98888374Y-71247980D01*
X118281626Y-71247980D01*
X118401514Y-71532836D01*
X118725210Y-71693699D01*
X119074069Y-71788322D01*
X119434684Y-71813067D01*
X119793198Y-71766985D01*
X120135833Y-71651846D01*
X120358486Y-71532836D01*
X120478374Y-71247980D01*
X119380000Y-70149605D01*
X118281626Y-71247980D01*
X98888374Y-71247980D01*
X97790000Y-70149605D01*
X96691626Y-71247980D01*
X61620000Y-71247980D01*
X61620000Y-70024684D01*
X95946933Y-70024684D01*
X95993015Y-70383198D01*
X96108154Y-70725833D01*
X96227164Y-70948486D01*
X96512020Y-71068374D01*
X97610395Y-69970000D01*
X97969605Y-69970000D01*
X99067980Y-71068374D01*
X99352836Y-70948486D01*
X99513699Y-70624790D01*
X99608322Y-70275931D01*
X99625562Y-70024684D01*
X117536933Y-70024684D01*
X117583015Y-70383198D01*
X117698154Y-70725833D01*
X117817164Y-70948486D01*
X118102020Y-71068374D01*
X119200395Y-69970000D01*
X119559605Y-69970000D01*
X120657980Y-71068374D01*
X120942836Y-70948486D01*
X121103699Y-70624790D01*
X121198322Y-70275931D01*
X121223067Y-69915316D01*
X121176985Y-69556802D01*
X121061846Y-69214167D01*
X120942836Y-68991514D01*
X120657980Y-68871626D01*
X119559605Y-69970000D01*
X119200395Y-69970000D01*
X118102020Y-68871626D01*
X117817164Y-68991514D01*
X117656301Y-69315210D01*
X117561678Y-69664069D01*
X117536933Y-70024684D01*
X99625562Y-70024684D01*
X99633067Y-69915316D01*
X99586985Y-69556802D01*
X99471846Y-69214167D01*
X99352836Y-68991514D01*
X99067980Y-68871626D01*
X97969605Y-69970000D01*
X97610395Y-69970000D01*
X96512020Y-68871626D01*
X96227164Y-68991514D01*
X96066301Y-69315210D01*
X95971678Y-69664069D01*
X95946933Y-70024684D01*
X61620000Y-70024684D01*
X61620000Y-68692020D01*
X96691626Y-68692020D01*
X97790000Y-69790395D01*
X98888374Y-68692020D01*
X118281626Y-68692020D01*
X119380000Y-69790395D01*
X120478374Y-68692020D01*
X120358486Y-68407164D01*
X120034790Y-68246301D01*
X119685931Y-68151678D01*
X119325316Y-68126933D01*
X118966802Y-68173015D01*
X118624167Y-68288154D01*
X118401514Y-68407164D01*
X118281626Y-68692020D01*
X98888374Y-68692020D01*
X98768486Y-68407164D01*
X98444790Y-68246301D01*
X98095931Y-68151678D01*
X97735316Y-68126933D01*
X97376802Y-68173015D01*
X97034167Y-68288154D01*
X96811514Y-68407164D01*
X96691626Y-68692020D01*
X61620000Y-68692020D01*
X61620000Y-59469872D01*
X65075000Y-59469872D01*
X65075000Y-59910128D01*
X65160890Y-60341925D01*
X65329369Y-60748669D01*
X65573962Y-61114729D01*
X65885271Y-61426038D01*
X66251331Y-61670631D01*
X66658075Y-61839110D01*
X67089872Y-61925000D01*
X67530128Y-61925000D01*
X67961925Y-61839110D01*
X68368669Y-61670631D01*
X68734729Y-61426038D01*
X69046038Y-61114729D01*
X69290631Y-60748669D01*
X69459110Y-60341925D01*
X69545000Y-59910128D01*
X69545000Y-59860000D01*
X101131928Y-59860000D01*
X101131928Y-62060000D01*
X101144188Y-62184482D01*
X101180498Y-62304180D01*
X101239463Y-62414494D01*
X101318815Y-62511185D01*
X101415506Y-62590537D01*
X101525820Y-62649502D01*
X101645518Y-62685812D01*
X101770000Y-62698072D01*
X103970000Y-62698072D01*
X104094482Y-62685812D01*
X104214180Y-62649502D01*
X104324494Y-62590537D01*
X104421185Y-62511185D01*
X104500537Y-62414494D01*
X104559502Y-62304180D01*
X104595812Y-62184482D01*
X104608072Y-62060000D01*
X104608072Y-60789117D01*
X111295000Y-60789117D01*
X111295000Y-61130883D01*
X111361675Y-61466081D01*
X111492463Y-61781831D01*
X111682337Y-62065998D01*
X111924002Y-62307663D01*
X112208169Y-62497537D01*
X112523919Y-62628325D01*
X112859117Y-62695000D01*
X113200883Y-62695000D01*
X113536081Y-62628325D01*
X113851831Y-62497537D01*
X114080119Y-62345000D01*
X130412317Y-62345000D01*
X130449463Y-62414494D01*
X130528815Y-62511185D01*
X130625506Y-62590537D01*
X130735820Y-62649502D01*
X130855518Y-62685812D01*
X130980000Y-62698072D01*
X133180000Y-62698072D01*
X133304482Y-62685812D01*
X133424180Y-62649502D01*
X133534494Y-62590537D01*
X133631185Y-62511185D01*
X133710537Y-62414494D01*
X133747683Y-62345000D01*
X142446317Y-62345000D01*
X143587218Y-63485901D01*
X143501691Y-63531616D01*
X143491185Y-63518815D01*
X143394494Y-63439463D01*
X143284180Y-63380498D01*
X143164482Y-63344188D01*
X143040000Y-63331928D01*
X141440000Y-63331928D01*
X141315518Y-63344188D01*
X141195820Y-63380498D01*
X141187397Y-63385000D01*
X138498026Y-63385000D01*
X138429999Y-63378300D01*
X138361972Y-63385000D01*
X138361963Y-63385000D01*
X138158493Y-63405040D01*
X137897419Y-63484236D01*
X137656812Y-63612843D01*
X137656810Y-63612844D01*
X137656811Y-63612844D01*
X137498766Y-63742548D01*
X137498764Y-63742550D01*
X137445919Y-63785919D01*
X137402550Y-63838764D01*
X131843204Y-69398111D01*
X131573919Y-69451675D01*
X131258169Y-69582463D01*
X130974002Y-69772337D01*
X130732337Y-70014002D01*
X130542463Y-70298169D01*
X130411675Y-70613919D01*
X130345000Y-70949117D01*
X130345000Y-71290883D01*
X130411675Y-71626081D01*
X130542463Y-71941831D01*
X130732337Y-72225998D01*
X130974002Y-72467663D01*
X131258169Y-72657537D01*
X131573919Y-72788325D01*
X131843204Y-72841889D01*
X137402550Y-78401236D01*
X137445919Y-78454081D01*
X137498764Y-78497450D01*
X137498766Y-78497452D01*
X137595844Y-78577122D01*
X137656812Y-78627157D01*
X137897419Y-78755764D01*
X138158493Y-78834960D01*
X138361963Y-78855000D01*
X138361972Y-78855000D01*
X138429999Y-78861700D01*
X138498026Y-78855000D01*
X139585001Y-78855000D01*
X139585000Y-82618036D01*
X139605040Y-82821506D01*
X139684236Y-83082580D01*
X139812843Y-83323187D01*
X139985919Y-83534080D01*
X140196812Y-83707157D01*
X140437419Y-83835764D01*
X140698493Y-83914960D01*
X140970000Y-83941701D01*
X141241506Y-83914960D01*
X141502580Y-83835764D01*
X141743187Y-83707157D01*
X141954080Y-83534081D01*
X142127157Y-83323188D01*
X142255764Y-83082581D01*
X142334960Y-82821507D01*
X142355000Y-82618037D01*
X142355000Y-77538036D01*
X142361701Y-77470000D01*
X142341540Y-77265296D01*
X142334960Y-77198493D01*
X142255764Y-76937419D01*
X142127157Y-76696812D01*
X141954081Y-76485919D01*
X141743188Y-76312843D01*
X141502581Y-76184236D01*
X141241507Y-76105040D01*
X140970000Y-76078299D01*
X140901964Y-76085000D01*
X139003686Y-76085000D01*
X135642015Y-72723329D01*
X139677284Y-72723329D01*
X139709953Y-72831044D01*
X139820208Y-73068392D01*
X139974649Y-73279670D01*
X140167340Y-73456759D01*
X140390877Y-73592853D01*
X140636670Y-73682722D01*
X140843000Y-73560201D01*
X140843000Y-72517000D01*
X141097000Y-72517000D01*
X141097000Y-73560201D01*
X141303330Y-73682722D01*
X141549123Y-73592853D01*
X141772660Y-73456759D01*
X141965351Y-73279670D01*
X142119792Y-73068392D01*
X142230047Y-72831044D01*
X142262716Y-72723329D01*
X142139374Y-72517000D01*
X141097000Y-72517000D01*
X140843000Y-72517000D01*
X139800626Y-72517000D01*
X139677284Y-72723329D01*
X135642015Y-72723329D01*
X134975357Y-72056671D01*
X139677284Y-72056671D01*
X139800626Y-72263000D01*
X140843000Y-72263000D01*
X140843000Y-71219799D01*
X141097000Y-71219799D01*
X141097000Y-72263000D01*
X142139374Y-72263000D01*
X142262716Y-72056671D01*
X142230047Y-71948956D01*
X142119792Y-71711608D01*
X141965351Y-71500330D01*
X141772660Y-71323241D01*
X141549123Y-71187147D01*
X141303330Y-71097278D01*
X141097000Y-71219799D01*
X140843000Y-71219799D01*
X140636670Y-71097278D01*
X140390877Y-71187147D01*
X140167340Y-71323241D01*
X139974649Y-71500330D01*
X139820208Y-71711608D01*
X139709953Y-71948956D01*
X139677284Y-72056671D01*
X134975357Y-72056671D01*
X134038685Y-71120000D01*
X139003686Y-66155000D01*
X141187397Y-66155000D01*
X141195820Y-66159502D01*
X141315518Y-66195812D01*
X141440000Y-66208072D01*
X143040000Y-66208072D01*
X143164482Y-66195812D01*
X143284180Y-66159502D01*
X143394494Y-66100537D01*
X143491185Y-66021185D01*
X143501807Y-66008242D01*
X143753996Y-66127571D01*
X144028184Y-66196300D01*
X144310512Y-66210217D01*
X144590130Y-66168787D01*
X144856292Y-66073603D01*
X144981514Y-66006671D01*
X145053097Y-65762702D01*
X144240000Y-64949605D01*
X144225858Y-64963748D01*
X144046253Y-64784143D01*
X144060395Y-64770000D01*
X144046253Y-64755858D01*
X144225858Y-64576253D01*
X144240000Y-64590395D01*
X144254143Y-64576253D01*
X144433748Y-64755858D01*
X144419605Y-64770000D01*
X145232702Y-65583097D01*
X145476671Y-65511514D01*
X145520404Y-65419088D01*
X148291315Y-68189999D01*
X145118764Y-71362551D01*
X145065920Y-71405919D01*
X145022551Y-71458764D01*
X145022548Y-71458767D01*
X144892844Y-71616812D01*
X144764236Y-71857420D01*
X144685040Y-72118493D01*
X144658300Y-72390000D01*
X144665001Y-72458039D01*
X144665000Y-77401963D01*
X144658299Y-77470000D01*
X144685040Y-77741507D01*
X144764236Y-78002581D01*
X144892843Y-78243188D01*
X145065919Y-78454081D01*
X145274184Y-78625000D01*
X145276812Y-78627157D01*
X145517419Y-78755764D01*
X145778493Y-78834960D01*
X146050000Y-78861701D01*
X146118036Y-78855000D01*
X150961928Y-78855000D01*
X150961928Y-79540000D01*
X150974188Y-79664482D01*
X151010498Y-79784180D01*
X151069463Y-79894494D01*
X151148815Y-79991185D01*
X151245506Y-80070537D01*
X151355820Y-80129502D01*
X151475518Y-80165812D01*
X151600000Y-80178072D01*
X153200000Y-80178072D01*
X153324482Y-80165812D01*
X153444180Y-80129502D01*
X153554494Y-80070537D01*
X153651185Y-79991185D01*
X153730537Y-79894494D01*
X153789502Y-79784180D01*
X153805117Y-79732702D01*
X154086903Y-79732702D01*
X154158486Y-79976671D01*
X154413996Y-80097571D01*
X154688184Y-80166300D01*
X154970512Y-80180217D01*
X155250130Y-80138787D01*
X155516292Y-80043603D01*
X155641514Y-79976671D01*
X155713097Y-79732702D01*
X154900000Y-78919605D01*
X154086903Y-79732702D01*
X153805117Y-79732702D01*
X153825812Y-79664482D01*
X153838072Y-79540000D01*
X153838072Y-79532785D01*
X153907298Y-79553097D01*
X154720395Y-78740000D01*
X155079605Y-78740000D01*
X155892702Y-79553097D01*
X156136671Y-79481514D01*
X156257571Y-79226004D01*
X156326300Y-78951816D01*
X156333265Y-78810512D01*
X160389783Y-78810512D01*
X160431213Y-79090130D01*
X160526397Y-79356292D01*
X160593329Y-79481514D01*
X160837298Y-79553097D01*
X161650395Y-78740000D01*
X160837298Y-77926903D01*
X160593329Y-77998486D01*
X160472429Y-78253996D01*
X160403700Y-78528184D01*
X160389783Y-78810512D01*
X156333265Y-78810512D01*
X156340217Y-78669488D01*
X156298787Y-78389870D01*
X156203603Y-78123708D01*
X156136671Y-77998486D01*
X155892702Y-77926903D01*
X155079605Y-78740000D01*
X154720395Y-78740000D01*
X153907298Y-77926903D01*
X153838072Y-77947215D01*
X153838072Y-77940000D01*
X153825812Y-77815518D01*
X153805118Y-77747298D01*
X154086903Y-77747298D01*
X154900000Y-78560395D01*
X155713097Y-77747298D01*
X155641514Y-77503329D01*
X155386004Y-77382429D01*
X155111816Y-77313700D01*
X154829488Y-77299783D01*
X154549870Y-77341213D01*
X154283708Y-77436397D01*
X154158486Y-77503329D01*
X154086903Y-77747298D01*
X153805118Y-77747298D01*
X153789502Y-77695820D01*
X153785000Y-77687397D01*
X153785000Y-77538036D01*
X153791701Y-77470000D01*
X153771540Y-77265296D01*
X153764960Y-77198493D01*
X153685764Y-76937419D01*
X153557157Y-76696812D01*
X153493287Y-76618987D01*
X153384081Y-76485919D01*
X153173188Y-76312843D01*
X152932581Y-76184236D01*
X152671507Y-76105040D01*
X152468037Y-76085000D01*
X152468036Y-76085000D01*
X152400000Y-76078299D01*
X152331963Y-76085000D01*
X147435000Y-76085000D01*
X147435000Y-72963685D01*
X150433686Y-69965000D01*
X157371971Y-69965000D01*
X157440000Y-69971700D01*
X157508029Y-69965000D01*
X157508037Y-69965000D01*
X157711507Y-69944960D01*
X157972581Y-69865764D01*
X158213188Y-69737157D01*
X158424081Y-69564081D01*
X158467454Y-69511231D01*
X160951236Y-67027450D01*
X161004081Y-66984081D01*
X161177157Y-66773188D01*
X161305764Y-66532581D01*
X161384960Y-66271507D01*
X161405000Y-66068037D01*
X161405000Y-66068029D01*
X161411700Y-66000000D01*
X161405000Y-65931971D01*
X161405000Y-64642518D01*
X161432037Y-64675463D01*
X161673766Y-64873845D01*
X161949552Y-65021255D01*
X162197907Y-65096593D01*
X162445001Y-65343687D01*
X162445000Y-77443466D01*
X162316004Y-77382429D01*
X162041816Y-77313700D01*
X161759488Y-77299783D01*
X161479870Y-77341213D01*
X161213708Y-77436397D01*
X161088486Y-77503329D01*
X161016903Y-77747298D01*
X161830000Y-78560395D01*
X161844143Y-78546253D01*
X162023748Y-78725858D01*
X162009605Y-78740000D01*
X162023748Y-78754143D01*
X161844143Y-78933748D01*
X161830000Y-78919605D01*
X161016903Y-79732702D01*
X161088486Y-79976671D01*
X161343996Y-80097571D01*
X161618184Y-80166300D01*
X161900512Y-80180217D01*
X162180130Y-80138787D01*
X162446292Y-80043603D01*
X162568309Y-79978384D01*
X162578815Y-79991185D01*
X162675506Y-80070537D01*
X162785820Y-80129502D01*
X162905518Y-80165812D01*
X163030000Y-80178072D01*
X164630000Y-80178072D01*
X164754482Y-80165812D01*
X164874180Y-80129502D01*
X164984494Y-80070537D01*
X165081185Y-79991185D01*
X165160537Y-79894494D01*
X165219502Y-79784180D01*
X165255812Y-79664482D01*
X165268072Y-79540000D01*
X165268072Y-77940000D01*
X165255812Y-77815518D01*
X165219502Y-77695820D01*
X165215000Y-77687397D01*
X165215000Y-64838026D01*
X165221700Y-64769999D01*
X165215000Y-64701972D01*
X165215000Y-64701963D01*
X165194960Y-64498493D01*
X165115764Y-64237419D01*
X164987157Y-63996812D01*
X164949641Y-63951099D01*
X164857452Y-63838766D01*
X164857450Y-63838764D01*
X164814081Y-63785919D01*
X164761236Y-63742550D01*
X164109093Y-63090408D01*
X164033755Y-62842051D01*
X163886345Y-62566265D01*
X163687963Y-62324537D01*
X163446234Y-62126155D01*
X163170448Y-61978745D01*
X162871203Y-61887970D01*
X162560000Y-61857319D01*
X162248796Y-61887970D01*
X161949551Y-61978745D01*
X161673765Y-62126155D01*
X161432037Y-62324537D01*
X161405000Y-62357482D01*
X161405000Y-61573685D01*
X163508813Y-59469872D01*
X176835000Y-59469872D01*
X176835000Y-59910128D01*
X176920890Y-60341925D01*
X177089369Y-60748669D01*
X177333962Y-61114729D01*
X177645271Y-61426038D01*
X178011331Y-61670631D01*
X178418075Y-61839110D01*
X178849872Y-61925000D01*
X179290128Y-61925000D01*
X179721925Y-61839110D01*
X180128669Y-61670631D01*
X180494729Y-61426038D01*
X180806038Y-61114729D01*
X181050631Y-60748669D01*
X181219110Y-60341925D01*
X181305000Y-59910128D01*
X181305000Y-59469872D01*
X181219110Y-59038075D01*
X181050631Y-58631331D01*
X180806038Y-58265271D01*
X180494729Y-57953962D01*
X180128669Y-57709369D01*
X179721925Y-57540890D01*
X179290128Y-57455000D01*
X178849872Y-57455000D01*
X178418075Y-57540890D01*
X178011331Y-57709369D01*
X177645271Y-57953962D01*
X177333962Y-58265271D01*
X177089369Y-58631331D01*
X176920890Y-59038075D01*
X176835000Y-59469872D01*
X163508813Y-59469872D01*
X166143696Y-56834990D01*
X196768237Y-56834990D01*
X196755040Y-56878494D01*
X196735000Y-57081964D01*
X196735000Y-58305000D01*
X188028028Y-58305000D01*
X187959999Y-58298300D01*
X187891970Y-58305000D01*
X187891963Y-58305000D01*
X187714099Y-58322518D01*
X187688492Y-58325040D01*
X187603623Y-58350785D01*
X187427419Y-58404236D01*
X187186812Y-58532843D01*
X187186810Y-58532844D01*
X187186811Y-58532844D01*
X187028766Y-58662548D01*
X187028764Y-58662550D01*
X186975919Y-58705919D01*
X186932550Y-58758764D01*
X164526315Y-81165000D01*
X145981963Y-81165000D01*
X145778493Y-81185040D01*
X145517419Y-81264236D01*
X145276812Y-81392843D01*
X145065919Y-81565919D01*
X144892843Y-81776812D01*
X144764236Y-82017419D01*
X144685040Y-82278493D01*
X144658299Y-82550000D01*
X144685040Y-82821507D01*
X144764236Y-83082581D01*
X144892843Y-83323188D01*
X145065919Y-83534081D01*
X145276812Y-83707157D01*
X145517419Y-83835764D01*
X145778493Y-83914960D01*
X145981963Y-83935000D01*
X165031971Y-83935000D01*
X165100000Y-83941700D01*
X165168029Y-83935000D01*
X165168037Y-83935000D01*
X165371507Y-83914960D01*
X165632581Y-83835764D01*
X165873188Y-83707157D01*
X166084081Y-83534081D01*
X166127454Y-83481231D01*
X168138185Y-81470500D01*
X174320428Y-81470500D01*
X174320428Y-83375500D01*
X174332688Y-83499982D01*
X174368998Y-83619680D01*
X174427963Y-83729994D01*
X174507315Y-83826685D01*
X174604006Y-83906037D01*
X174695719Y-83955059D01*
X174582531Y-84096077D01*
X174438929Y-84371906D01*
X174367937Y-84590020D01*
X174487906Y-84836000D01*
X175831500Y-84836000D01*
X175831500Y-84816000D01*
X176085500Y-84816000D01*
X176085500Y-84836000D01*
X177429094Y-84836000D01*
X177549063Y-84590020D01*
X177478071Y-84371906D01*
X177334469Y-84096077D01*
X177221281Y-83955059D01*
X177312994Y-83906037D01*
X177409685Y-83826685D01*
X177489037Y-83729994D01*
X177548002Y-83619680D01*
X177584312Y-83499982D01*
X177596572Y-83375500D01*
X177596572Y-81470500D01*
X177584312Y-81346018D01*
X177548002Y-81226320D01*
X177489037Y-81116006D01*
X177409685Y-81019315D01*
X177312994Y-80939963D01*
X177202680Y-80880998D01*
X177082982Y-80844688D01*
X176958500Y-80832428D01*
X174958500Y-80832428D01*
X174834018Y-80844688D01*
X174714320Y-80880998D01*
X174604006Y-80939963D01*
X174507315Y-81019315D01*
X174427963Y-81116006D01*
X174368998Y-81226320D01*
X174332688Y-81346018D01*
X174320428Y-81470500D01*
X168138185Y-81470500D01*
X186443125Y-63165560D01*
X197364045Y-63165560D01*
X197425932Y-63401368D01*
X197667790Y-63514266D01*
X197927027Y-63577811D01*
X198193680Y-63589561D01*
X198457501Y-63549063D01*
X198708353Y-63457875D01*
X198814068Y-63401368D01*
X198875955Y-63165560D01*
X198120000Y-62409605D01*
X197364045Y-63165560D01*
X186443125Y-63165560D01*
X187305005Y-62303680D01*
X196760439Y-62303680D01*
X196800937Y-62567501D01*
X196892125Y-62818353D01*
X196948632Y-62924068D01*
X197184440Y-62985955D01*
X197940395Y-62230000D01*
X197184440Y-61474045D01*
X196948632Y-61535932D01*
X196835734Y-61777790D01*
X196772189Y-62037027D01*
X196760439Y-62303680D01*
X187305005Y-62303680D01*
X188533686Y-61075000D01*
X197421636Y-61075000D01*
X197364045Y-61294440D01*
X198120000Y-62050395D01*
X198875955Y-61294440D01*
X198814068Y-61058632D01*
X198642860Y-60978713D01*
X198652581Y-60975764D01*
X198893188Y-60847157D01*
X199104081Y-60674081D01*
X199275001Y-60465815D01*
X199275001Y-61531636D01*
X199055560Y-61474045D01*
X198299605Y-62230000D01*
X199055560Y-62985955D01*
X199275001Y-62928364D01*
X199275000Y-79368395D01*
X198297224Y-80346172D01*
X198335000Y-80156260D01*
X198335000Y-79863740D01*
X198277932Y-79576842D01*
X198165990Y-79306589D01*
X198003475Y-79063368D01*
X197796632Y-78856525D01*
X197622240Y-78740000D01*
X197796632Y-78623475D01*
X198003475Y-78416632D01*
X198165990Y-78173411D01*
X198277932Y-77903158D01*
X198335000Y-77616260D01*
X198335000Y-77323740D01*
X198277932Y-77036842D01*
X198165990Y-76766589D01*
X198003475Y-76523368D01*
X197796632Y-76316525D01*
X197622240Y-76200000D01*
X197796632Y-76083475D01*
X198003475Y-75876632D01*
X198165990Y-75633411D01*
X198277932Y-75363158D01*
X198335000Y-75076260D01*
X198335000Y-74783740D01*
X198277932Y-74496842D01*
X198165990Y-74226589D01*
X198003475Y-73983368D01*
X197796632Y-73776525D01*
X197553411Y-73614010D01*
X197283158Y-73502068D01*
X196996260Y-73445000D01*
X196703740Y-73445000D01*
X196416842Y-73502068D01*
X196313195Y-73545000D01*
X194846805Y-73545000D01*
X194743158Y-73502068D01*
X194456260Y-73445000D01*
X194163740Y-73445000D01*
X193876842Y-73502068D01*
X193606589Y-73614010D01*
X193363368Y-73776525D01*
X193156525Y-73983368D01*
X192994010Y-74226589D01*
X192882068Y-74496842D01*
X192825000Y-74783740D01*
X192825000Y-75076260D01*
X192882068Y-75363158D01*
X192994010Y-75633411D01*
X193156525Y-75876632D01*
X193363368Y-76083475D01*
X193537760Y-76200000D01*
X193363368Y-76316525D01*
X193156525Y-76523368D01*
X192994010Y-76766589D01*
X192882068Y-77036842D01*
X192825000Y-77323740D01*
X192825000Y-77616260D01*
X192882068Y-77903158D01*
X192994010Y-78173411D01*
X193156525Y-78416632D01*
X193363368Y-78623475D01*
X193537760Y-78740000D01*
X193363368Y-78856525D01*
X193156525Y-79063368D01*
X192994010Y-79306589D01*
X192882068Y-79576842D01*
X192825000Y-79863740D01*
X192825000Y-80156260D01*
X192882068Y-80443158D01*
X192994010Y-80713411D01*
X193156525Y-80956632D01*
X193363368Y-81163475D01*
X193537760Y-81280000D01*
X193363368Y-81396525D01*
X193156525Y-81603368D01*
X192994010Y-81846589D01*
X192882068Y-82116842D01*
X192825000Y-82403740D01*
X192825000Y-82696260D01*
X192882068Y-82983158D01*
X192994010Y-83253411D01*
X193156525Y-83496632D01*
X193363368Y-83703475D01*
X193536729Y-83819311D01*
X193461208Y-84061603D01*
X194310000Y-84910395D01*
X195158792Y-84061603D01*
X195119331Y-83935000D01*
X196040669Y-83935000D01*
X196001208Y-84061603D01*
X196850000Y-84910395D01*
X197698792Y-84061603D01*
X197659331Y-83935000D01*
X197984052Y-83935000D01*
X198052081Y-83941700D01*
X198120110Y-83935000D01*
X198120118Y-83935000D01*
X198323588Y-83914960D01*
X198584662Y-83835764D01*
X198825269Y-83707157D01*
X199036162Y-83534081D01*
X199079535Y-83481231D01*
X201591241Y-80969526D01*
X201644080Y-80926162D01*
X201687445Y-80873322D01*
X201687452Y-80873315D01*
X201817156Y-80715270D01*
X201817157Y-80715269D01*
X201945764Y-80474662D01*
X202024960Y-80213588D01*
X202045000Y-80010118D01*
X202045000Y-80010109D01*
X202051700Y-79942082D01*
X202045000Y-79874055D01*
X202045000Y-57353852D01*
X202051700Y-57285823D01*
X202045000Y-57217794D01*
X202045000Y-57217786D01*
X202027265Y-57037715D01*
X202024960Y-57014315D01*
X201945764Y-56753242D01*
X201936416Y-56735754D01*
X201817157Y-56512635D01*
X201727125Y-56402931D01*
X201687452Y-56354589D01*
X201687450Y-56354587D01*
X201644081Y-56301742D01*
X201591236Y-56258373D01*
X199851621Y-54518759D01*
X199808248Y-54465909D01*
X199597355Y-54292833D01*
X199356748Y-54164226D01*
X199095674Y-54085030D01*
X198892204Y-54064990D01*
X198892196Y-54064990D01*
X198824167Y-54058290D01*
X198756138Y-54064990D01*
X165638036Y-54064990D01*
X165570009Y-54058290D01*
X165501982Y-54064990D01*
X165501973Y-54064990D01*
X165298503Y-54085030D01*
X165037429Y-54164226D01*
X164796822Y-54292833D01*
X164796820Y-54292834D01*
X164796821Y-54292834D01*
X164638776Y-54422538D01*
X164638774Y-54422540D01*
X164585929Y-54465909D01*
X164542560Y-54518754D01*
X159088765Y-59972550D01*
X159035919Y-60015920D01*
X158862843Y-60226813D01*
X158734236Y-60467420D01*
X158655040Y-60728494D01*
X158635000Y-60931964D01*
X158635000Y-60931971D01*
X158628300Y-61000000D01*
X158635000Y-61068030D01*
X158635000Y-61897855D01*
X158556982Y-61874188D01*
X158432500Y-61861928D01*
X156527500Y-61861928D01*
X156403018Y-61874188D01*
X156283320Y-61910498D01*
X156173006Y-61969463D01*
X156076315Y-62048815D01*
X155996963Y-62145506D01*
X155937998Y-62255820D01*
X155901688Y-62375518D01*
X155889428Y-62500000D01*
X155889428Y-64500000D01*
X155901688Y-64624482D01*
X155937998Y-64744180D01*
X155996963Y-64854494D01*
X156076315Y-64951185D01*
X156173006Y-65030537D01*
X156283320Y-65089502D01*
X156403018Y-65125812D01*
X156527500Y-65138072D01*
X158432500Y-65138072D01*
X158556982Y-65125812D01*
X158635001Y-65102145D01*
X158635001Y-65426313D01*
X156866315Y-67195000D01*
X151107056Y-67195000D01*
X151017157Y-67026810D01*
X150844081Y-66815917D01*
X150791236Y-66772548D01*
X144047456Y-60028769D01*
X144004083Y-59975919D01*
X143793190Y-59802843D01*
X143552583Y-59674236D01*
X143291509Y-59595040D01*
X143088039Y-59575000D01*
X143088031Y-59575000D01*
X143020002Y-59568300D01*
X142951973Y-59575000D01*
X133747683Y-59575000D01*
X133710537Y-59505506D01*
X133631185Y-59408815D01*
X133534494Y-59329463D01*
X133424180Y-59270498D01*
X133304482Y-59234188D01*
X133180000Y-59221928D01*
X130980000Y-59221928D01*
X130855518Y-59234188D01*
X130735820Y-59270498D01*
X130625506Y-59329463D01*
X130528815Y-59408815D01*
X130449463Y-59505506D01*
X130412317Y-59575000D01*
X114080119Y-59575000D01*
X113851831Y-59422463D01*
X113536081Y-59291675D01*
X113200883Y-59225000D01*
X112859117Y-59225000D01*
X112523919Y-59291675D01*
X112208169Y-59422463D01*
X111924002Y-59612337D01*
X111682337Y-59854002D01*
X111492463Y-60138169D01*
X111361675Y-60453919D01*
X111295000Y-60789117D01*
X104608072Y-60789117D01*
X104608072Y-59860000D01*
X104595812Y-59735518D01*
X104559502Y-59615820D01*
X104500537Y-59505506D01*
X104421185Y-59408815D01*
X104324494Y-59329463D01*
X104214180Y-59270498D01*
X104094482Y-59234188D01*
X103970000Y-59221928D01*
X101770000Y-59221928D01*
X101645518Y-59234188D01*
X101525820Y-59270498D01*
X101415506Y-59329463D01*
X101318815Y-59408815D01*
X101239463Y-59505506D01*
X101180498Y-59615820D01*
X101144188Y-59735518D01*
X101131928Y-59860000D01*
X69545000Y-59860000D01*
X69545000Y-59469872D01*
X69459110Y-59038075D01*
X69290631Y-58631331D01*
X69046038Y-58265271D01*
X68734729Y-57953962D01*
X68368669Y-57709369D01*
X67961925Y-57540890D01*
X67530128Y-57455000D01*
X67089872Y-57455000D01*
X66658075Y-57540890D01*
X66251331Y-57709369D01*
X65885271Y-57953962D01*
X65573962Y-58265271D01*
X65329369Y-58631331D01*
X65160890Y-59038075D01*
X65075000Y-59469872D01*
X61620000Y-59469872D01*
X61620000Y-54000000D01*
X202540001Y-54000000D01*
X202540000Y-113640000D01*
G37*
%TD.AperFunction*%
D29*
X158635001Y-106023687D02*
X158635000Y-106807482D01*
X158607963Y-106774537D01*
X158366235Y-106576155D01*
X158090449Y-106428745D01*
X157791204Y-106337970D01*
X157480000Y-106307319D01*
X157168797Y-106337970D01*
X156869552Y-106428745D01*
X156593766Y-106576155D01*
X156352037Y-106774537D01*
X156153655Y-107016265D01*
X156006245Y-107292051D01*
X155915470Y-107591296D01*
X155892500Y-107824514D01*
X155892500Y-108075485D01*
X155915470Y-108308703D01*
X155978053Y-108515010D01*
X146712326Y-108515010D01*
X144907002Y-106709687D01*
X144907002Y-106686252D01*
X145065750Y-106845000D01*
X145580000Y-106848072D01*
X145704482Y-106835812D01*
X145824180Y-106799502D01*
X145934494Y-106740537D01*
X146031185Y-106661185D01*
X146110537Y-106564494D01*
X146169502Y-106454180D01*
X146205812Y-106334482D01*
X146218072Y-106210000D01*
X146215000Y-105695750D01*
X146056250Y-105537000D01*
X144907000Y-105537000D01*
X144907000Y-105557000D01*
X144653000Y-105557000D01*
X144653000Y-105537000D01*
X144633000Y-105537000D01*
X144633000Y-105283000D01*
X144653000Y-105283000D01*
X144653000Y-105263000D01*
X144907000Y-105263000D01*
X144907000Y-105283000D01*
X146056250Y-105283000D01*
X146215000Y-105124250D01*
X146218072Y-104610000D01*
X146205812Y-104485518D01*
X146169502Y-104365820D01*
X146110537Y-104255506D01*
X146110122Y-104255000D01*
X156866315Y-104255000D01*
X158635001Y-106023687D01*
%TA.AperFunction,Conductor*%
D30*
G36*
X158635001Y-106023687D02*
G01*
X158635000Y-106807482D01*
X158607963Y-106774537D01*
X158366235Y-106576155D01*
X158090449Y-106428745D01*
X157791204Y-106337970D01*
X157480000Y-106307319D01*
X157168797Y-106337970D01*
X156869552Y-106428745D01*
X156593766Y-106576155D01*
X156352037Y-106774537D01*
X156153655Y-107016265D01*
X156006245Y-107292051D01*
X155915470Y-107591296D01*
X155892500Y-107824514D01*
X155892500Y-108075485D01*
X155915470Y-108308703D01*
X155978053Y-108515010D01*
X146712326Y-108515010D01*
X144907002Y-106709687D01*
X144907002Y-106686252D01*
X145065750Y-106845000D01*
X145580000Y-106848072D01*
X145704482Y-106835812D01*
X145824180Y-106799502D01*
X145934494Y-106740537D01*
X146031185Y-106661185D01*
X146110537Y-106564494D01*
X146169502Y-106454180D01*
X146205812Y-106334482D01*
X146218072Y-106210000D01*
X146215000Y-105695750D01*
X146056250Y-105537000D01*
X144907000Y-105537000D01*
X144907000Y-105557000D01*
X144653000Y-105557000D01*
X144653000Y-105537000D01*
X144633000Y-105537000D01*
X144633000Y-105283000D01*
X144653000Y-105283000D01*
X144653000Y-105263000D01*
X144907000Y-105263000D01*
X144907000Y-105283000D01*
X146056250Y-105283000D01*
X146215000Y-105124250D01*
X146218072Y-104610000D01*
X146205812Y-104485518D01*
X146169502Y-104365820D01*
X146110537Y-104255506D01*
X146110122Y-104255000D01*
X156866315Y-104255000D01*
X158635001Y-106023687D01*
G37*
%TD.AperFunction*%
%TD*%
M02*
