G04 #@! TF.GenerationSoftware,KiCad,Pcbnew,(5.1.10)-1*
G04 #@! TF.CreationDate,2022-02-04T18:39:41-05:00*
G04 #@! TF.ProjectId,Utility_board,5574696c-6974-4795-9f62-6f6172642e6b,rev?*
G04 #@! TF.SameCoordinates,Original*
G04 #@! TF.FileFunction,Soldermask,Top*
G04 #@! TF.FilePolarity,Negative*
%FSLAX46Y46*%
G04 Gerber Fmt 4.6, Leading zero omitted, Abs format (unit mm)*
G04 Created by KiCad (PCBNEW (5.1.10)-1) date 2022-02-04 18:39:41*
%MOMM*%
%LPD*%
G01*
G04 APERTURE LIST*
%ADD10C,1.400000*%
%ADD11O,1.400000X1.400000*%
%ADD12O,2.500000X4.000000*%
%ADD13R,1.050000X1.500000*%
%ADD14O,1.050000X1.500000*%
%ADD15C,1.600000*%
%ADD16R,1.600000X1.600000*%
%ADD17O,1.500000X1.500000*%
%ADD18R,1.500000X1.500000*%
%ADD19C,1.800000*%
%ADD20R,1.800000X1.800000*%
%ADD21C,1.700000*%
%ADD22O,1.600000X1.600000*%
%ADD23C,3.240000*%
%ADD24O,4.000000X2.500000*%
G04 APERTURE END LIST*
D10*
X427583600Y-79656940D03*
D11*
X427583600Y-87276940D03*
D12*
X35869000Y-73152000D03*
X44069000Y-73152000D03*
X47069000Y-73152000D03*
D13*
X293497000Y-86360000D03*
D14*
X290957000Y-86360000D03*
X292227000Y-86360000D03*
D15*
X211662000Y-47879000D03*
X216662000Y-47879000D03*
X313944000Y-48133000D03*
X308944000Y-48133000D03*
X35600000Y-44577000D03*
D16*
X38100000Y-44577000D03*
D15*
X56094000Y-44577000D03*
D16*
X53594000Y-44577000D03*
X47879000Y-44577000D03*
D15*
X50379000Y-44577000D03*
X314198000Y-79375000D03*
X309198000Y-79375000D03*
X230712000Y-60198000D03*
X235712000Y-60198000D03*
X52404000Y-66802000D03*
X57404000Y-66802000D03*
X230839000Y-79629000D03*
X235839000Y-79629000D03*
X333248000Y-61849000D03*
X328248000Y-61849000D03*
X309071000Y-59563000D03*
X314071000Y-59563000D03*
X159004000Y-64944000D03*
X159004000Y-59944000D03*
X333248000Y-78867000D03*
X328248000Y-78867000D03*
X110871000Y-33655000D03*
X110871000Y-38655000D03*
X110871000Y-52705000D03*
X110871000Y-57705000D03*
X211027000Y-62738000D03*
X216027000Y-62738000D03*
X57404000Y-52197000D03*
X52404000Y-52197000D03*
X216281000Y-81788000D03*
X211281000Y-81788000D03*
X144145000Y-60024000D03*
X144145000Y-65024000D03*
X77771000Y-33655000D03*
X72771000Y-33655000D03*
X70231000Y-33655000D03*
X65231000Y-33655000D03*
D17*
X209296000Y-45339000D03*
D18*
X216916000Y-45339000D03*
X313944000Y-43053000D03*
D17*
X306324000Y-43053000D03*
X238125000Y-45339000D03*
D18*
X230505000Y-45339000D03*
X328168000Y-45593000D03*
D17*
X335788000Y-45593000D03*
D19*
X266192000Y-86741000D03*
D20*
X263652000Y-86741000D03*
X299720000Y-86360000D03*
D19*
X297180000Y-86360000D03*
X247396000Y-71501000D03*
D20*
X244856000Y-71501000D03*
X279908000Y-71501000D03*
D19*
X282448000Y-71501000D03*
D20*
X50419000Y-73152000D03*
D19*
X52959000Y-73152000D03*
X76454000Y-73152000D03*
D20*
X73914000Y-73152000D03*
D19*
X52959000Y-88392000D03*
D20*
X50419000Y-88392000D03*
X73914000Y-88392000D03*
D19*
X76454000Y-88392000D03*
G36*
G01*
X58512000Y-35267000D02*
X57312000Y-35267000D01*
G75*
G02*
X57062000Y-35017000I0J250000D01*
G01*
X57062000Y-33817000D01*
G75*
G02*
X57312000Y-33567000I250000J0D01*
G01*
X58512000Y-33567000D01*
G75*
G02*
X58762000Y-33817000I0J-250000D01*
G01*
X58762000Y-35017000D01*
G75*
G02*
X58512000Y-35267000I-250000J0D01*
G01*
G37*
D21*
X55372000Y-34417000D03*
X52832000Y-34417000D03*
X50292000Y-34417000D03*
X47752000Y-34417000D03*
X45212000Y-34417000D03*
X42672000Y-34417000D03*
X40132000Y-34417000D03*
X57912000Y-31877000D03*
X55372000Y-31877000D03*
X52832000Y-31877000D03*
X50292000Y-31877000D03*
X47752000Y-31877000D03*
X45212000Y-31877000D03*
X42672000Y-31877000D03*
X40132000Y-31877000D03*
D13*
X269748000Y-86741000D03*
D14*
X272288000Y-86741000D03*
X271018000Y-86741000D03*
X252222000Y-71501000D03*
X253492000Y-71501000D03*
D13*
X250952000Y-71501000D03*
X286004000Y-71501000D03*
D14*
X288544000Y-71501000D03*
X287274000Y-71501000D03*
X51689000Y-79502000D03*
X50419000Y-79502000D03*
D13*
X52959000Y-79502000D03*
D14*
X75184000Y-79502000D03*
X73914000Y-79502000D03*
D13*
X76454000Y-79502000D03*
D14*
X51689000Y-94742000D03*
X50419000Y-94742000D03*
D13*
X52959000Y-94742000D03*
X76454000Y-94742000D03*
D14*
X73914000Y-94742000D03*
X75184000Y-94742000D03*
D10*
X230759000Y-76835000D03*
D11*
X238379000Y-76835000D03*
X238379000Y-74295000D03*
D10*
X230759000Y-74295000D03*
D11*
X335788000Y-76327000D03*
D10*
X328168000Y-76327000D03*
X328168000Y-71247000D03*
D11*
X335788000Y-71247000D03*
X238252000Y-54102000D03*
D10*
X230632000Y-54102000D03*
D11*
X238252000Y-57150000D03*
D10*
X230632000Y-57150000D03*
X328168000Y-57023000D03*
D11*
X335788000Y-57023000D03*
X335788000Y-54483000D03*
D10*
X328168000Y-54483000D03*
X230632000Y-71501000D03*
D11*
X238252000Y-71501000D03*
X335788000Y-73787000D03*
D10*
X328168000Y-73787000D03*
D11*
X238252000Y-48514000D03*
D10*
X230632000Y-48514000D03*
X328168000Y-51943000D03*
D11*
X335788000Y-51943000D03*
D10*
X230632000Y-82423000D03*
D11*
X238252000Y-82423000D03*
X335788000Y-84455000D03*
D10*
X328168000Y-84455000D03*
D11*
X230632000Y-51308000D03*
D10*
X238252000Y-51308000D03*
X216408000Y-84709000D03*
D11*
X208788000Y-84709000D03*
D10*
X328168000Y-64643000D03*
D11*
X335788000Y-64643000D03*
X306832000Y-84201000D03*
D10*
X314452000Y-84201000D03*
D11*
X208534000Y-65659000D03*
D10*
X216154000Y-65659000D03*
X314198000Y-64643000D03*
D11*
X306578000Y-64643000D03*
X216408000Y-87376000D03*
D10*
X208788000Y-87376000D03*
X314452000Y-86995000D03*
D11*
X306832000Y-86995000D03*
D10*
X216154000Y-68453000D03*
D11*
X208534000Y-68453000D03*
X306578000Y-67183000D03*
D10*
X314198000Y-67183000D03*
D11*
X238252000Y-87503000D03*
D10*
X230632000Y-87503000D03*
X335788000Y-81661000D03*
D11*
X328168000Y-81661000D03*
D10*
X230632000Y-68453000D03*
D11*
X238252000Y-68453000D03*
X335788000Y-67183000D03*
D10*
X328168000Y-67183000D03*
D11*
X230632000Y-90043000D03*
D10*
X238252000Y-90043000D03*
X335788000Y-87249000D03*
D11*
X328168000Y-87249000D03*
D10*
X238252000Y-62865000D03*
D11*
X230632000Y-62865000D03*
X230632000Y-84963000D03*
D10*
X238252000Y-84963000D03*
X208788000Y-89789000D03*
D11*
X216408000Y-89789000D03*
X328168000Y-37973000D03*
D10*
X335788000Y-37973000D03*
D11*
X306324000Y-37719000D03*
D10*
X313944000Y-37719000D03*
D11*
X306324000Y-45593000D03*
D10*
X313944000Y-45593000D03*
D11*
X230632000Y-65405000D03*
D10*
X238252000Y-65405000D03*
X230505000Y-42672000D03*
D11*
X238125000Y-42672000D03*
D10*
X328168000Y-40513000D03*
D11*
X335788000Y-40513000D03*
D10*
X328168000Y-48133000D03*
D11*
X335788000Y-48133000D03*
D10*
X216916000Y-42799000D03*
D11*
X209296000Y-42799000D03*
X306324000Y-40513000D03*
D10*
X313944000Y-40513000D03*
X230505000Y-40005000D03*
D11*
X238125000Y-40005000D03*
X264668000Y-92329000D03*
D10*
X272288000Y-92329000D03*
X328168000Y-43053000D03*
D11*
X335788000Y-43053000D03*
D10*
X290957000Y-91948000D03*
D11*
X298577000Y-91948000D03*
D10*
X253492000Y-77089000D03*
D11*
X245872000Y-77089000D03*
X280924000Y-77089000D03*
D10*
X288544000Y-77089000D03*
D11*
X216916000Y-35179000D03*
D10*
X209296000Y-35179000D03*
X314452000Y-74549000D03*
D11*
X306832000Y-74549000D03*
X230505000Y-35179000D03*
D10*
X238125000Y-35179000D03*
D11*
X335788000Y-35433000D03*
D10*
X328168000Y-35433000D03*
X216408000Y-71755000D03*
D11*
X208788000Y-71755000D03*
X306832000Y-71882000D03*
D10*
X314452000Y-71882000D03*
X216408000Y-55118000D03*
D11*
X208788000Y-55118000D03*
D10*
X314198000Y-51943000D03*
D11*
X306578000Y-51943000D03*
X154686000Y-31623000D03*
D10*
X154686000Y-39243000D03*
D11*
X150876000Y-42291000D03*
D10*
X150876000Y-49911000D03*
X151511000Y-75819000D03*
D11*
X151511000Y-83439000D03*
D10*
X151511000Y-87376000D03*
D11*
X151511000Y-94996000D03*
X147066000Y-31623000D03*
D10*
X147066000Y-39243000D03*
D11*
X147066000Y-49911000D03*
D10*
X147066000Y-42291000D03*
X147701000Y-83439000D03*
D11*
X147701000Y-75819000D03*
X147701000Y-87376000D03*
D10*
X147701000Y-94996000D03*
X150749000Y-31623000D03*
D11*
X150749000Y-39243000D03*
D10*
X154686000Y-42291000D03*
D11*
X154686000Y-49911000D03*
X155321000Y-75819000D03*
D10*
X155321000Y-83439000D03*
X155321000Y-94996000D03*
D11*
X155321000Y-87376000D03*
X77724000Y-49022000D03*
D10*
X70104000Y-49022000D03*
X66294000Y-40132000D03*
D11*
X66294000Y-47752000D03*
X35814000Y-79502000D03*
D10*
X43434000Y-79502000D03*
D11*
X35814000Y-82042000D03*
D10*
X43434000Y-82042000D03*
X66929000Y-79502000D03*
D11*
X59309000Y-79502000D03*
X59309000Y-82042000D03*
D10*
X66929000Y-82042000D03*
D11*
X35814000Y-94742000D03*
D10*
X43434000Y-94742000D03*
X56134000Y-92202000D03*
D11*
X56134000Y-84582000D03*
D10*
X66929000Y-94742000D03*
D11*
X59309000Y-94742000D03*
X69977000Y-83439000D03*
D10*
X77597000Y-83439000D03*
D22*
X219837000Y-55118000D03*
X227457000Y-70358000D03*
X219837000Y-57658000D03*
X227457000Y-67818000D03*
X219837000Y-60198000D03*
X227457000Y-65278000D03*
X219837000Y-62738000D03*
X227457000Y-62738000D03*
X219837000Y-65278000D03*
X227457000Y-60198000D03*
X219837000Y-67818000D03*
X227457000Y-57658000D03*
X219837000Y-70358000D03*
D16*
X227457000Y-55118000D03*
X227457000Y-74549000D03*
D22*
X219837000Y-89789000D03*
X227457000Y-77089000D03*
X219837000Y-87249000D03*
X227457000Y-79629000D03*
X219837000Y-84709000D03*
X227457000Y-82169000D03*
X219837000Y-82169000D03*
X227457000Y-84709000D03*
X219837000Y-79629000D03*
X227457000Y-87249000D03*
X219837000Y-77089000D03*
X227457000Y-89789000D03*
X219837000Y-74549000D03*
X317373000Y-51943000D03*
X324993000Y-67183000D03*
X317373000Y-54483000D03*
X324993000Y-64643000D03*
X317373000Y-57023000D03*
X324993000Y-62103000D03*
X317373000Y-59563000D03*
X324993000Y-59563000D03*
X317373000Y-62103000D03*
X324993000Y-57023000D03*
X317373000Y-64643000D03*
X324993000Y-54483000D03*
X317373000Y-67183000D03*
D16*
X324993000Y-51943000D03*
X324993000Y-71882000D03*
D22*
X317373000Y-87122000D03*
X324993000Y-74422000D03*
X317373000Y-84582000D03*
X324993000Y-76962000D03*
X317373000Y-82042000D03*
X324993000Y-79502000D03*
X317373000Y-79502000D03*
X324993000Y-82042000D03*
X317373000Y-76962000D03*
X324993000Y-84582000D03*
X317373000Y-74422000D03*
X324993000Y-87122000D03*
X317373000Y-71882000D03*
D16*
X103251000Y-41910000D03*
D22*
X118491000Y-49530000D03*
X105791000Y-41910000D03*
X115951000Y-49530000D03*
X108331000Y-41910000D03*
X113411000Y-49530000D03*
X110871000Y-41910000D03*
X110871000Y-49530000D03*
X113411000Y-41910000D03*
X108331000Y-49530000D03*
X115951000Y-41910000D03*
X105791000Y-49530000D03*
X118491000Y-41910000D03*
X103251000Y-49530000D03*
D16*
X147574000Y-70104000D03*
D22*
X155194000Y-54864000D03*
X147574000Y-67564000D03*
X155194000Y-57404000D03*
X147574000Y-65024000D03*
X155194000Y-59944000D03*
X147574000Y-62484000D03*
X155194000Y-62484000D03*
X147574000Y-59944000D03*
X155194000Y-65024000D03*
X147574000Y-57404000D03*
X155194000Y-67564000D03*
X147574000Y-54864000D03*
X155194000Y-70104000D03*
D16*
X49784000Y-55372000D03*
D22*
X65024000Y-62992000D03*
X52324000Y-55372000D03*
X62484000Y-62992000D03*
X54864000Y-55372000D03*
X59944000Y-62992000D03*
X57404000Y-55372000D03*
X57404000Y-62992000D03*
X59944000Y-55372000D03*
X54864000Y-62992000D03*
X62484000Y-55372000D03*
X52324000Y-62992000D03*
X65024000Y-55372000D03*
X49784000Y-62992000D03*
X219837000Y-32639000D03*
X227457000Y-47879000D03*
X219837000Y-35179000D03*
X227457000Y-45339000D03*
X219837000Y-37719000D03*
X227457000Y-42799000D03*
X219837000Y-40259000D03*
X227457000Y-40259000D03*
X219837000Y-42799000D03*
X227457000Y-37719000D03*
X219837000Y-45339000D03*
X227457000Y-35179000D03*
X219837000Y-47879000D03*
D16*
X227457000Y-32639000D03*
D22*
X317500000Y-32893000D03*
X325120000Y-48133000D03*
X317500000Y-35433000D03*
X325120000Y-45593000D03*
X317500000Y-37973000D03*
X325120000Y-43053000D03*
X317500000Y-40513000D03*
X325120000Y-40513000D03*
X317500000Y-43053000D03*
X325120000Y-37973000D03*
X317500000Y-45593000D03*
X325120000Y-35433000D03*
X317500000Y-48133000D03*
D16*
X325120000Y-32893000D03*
D12*
X270957000Y-44577000D03*
X267957000Y-44577000D03*
X259757000Y-44577000D03*
X302332000Y-44577000D03*
X294132000Y-44577000D03*
X291132000Y-44577000D03*
X253457000Y-44831000D03*
X250457000Y-44831000D03*
X242257000Y-44831000D03*
X285568000Y-44577000D03*
X277368000Y-44577000D03*
X274368000Y-44577000D03*
X259757000Y-33295000D03*
X267957000Y-33295000D03*
X270957000Y-33295000D03*
X302332000Y-33401000D03*
X294132000Y-33401000D03*
X291132000Y-33401000D03*
X242257000Y-33295000D03*
X250457000Y-33295000D03*
X253457000Y-33295000D03*
X274368000Y-33401000D03*
X277368000Y-33401000D03*
X285568000Y-33401000D03*
X259757000Y-56211000D03*
X267957000Y-56211000D03*
X270957000Y-56211000D03*
X291132000Y-56261000D03*
X294132000Y-56261000D03*
X302332000Y-56261000D03*
X253457000Y-56211000D03*
X250457000Y-56211000D03*
X242257000Y-56211000D03*
X274368000Y-56261000D03*
X277368000Y-56261000D03*
X285568000Y-56261000D03*
X126001000Y-33295000D03*
X123001000Y-33295000D03*
X114801000Y-33295000D03*
X91766000Y-33540000D03*
X83566000Y-33540000D03*
X80566000Y-33540000D03*
X107006000Y-33380000D03*
X98806000Y-33380000D03*
X95806000Y-33380000D03*
X129801000Y-33295000D03*
X138001000Y-33295000D03*
X141001000Y-33295000D03*
X114801000Y-57700000D03*
X123001000Y-57700000D03*
X126001000Y-57700000D03*
X126001000Y-68930000D03*
X123001000Y-68930000D03*
X114801000Y-68930000D03*
X114801000Y-80160000D03*
X123001000Y-80160000D03*
X126001000Y-80160000D03*
X81291000Y-91525000D03*
X84291000Y-91525000D03*
X92491000Y-91525000D03*
X92491000Y-80455000D03*
X84291000Y-80455000D03*
X81291000Y-80455000D03*
X81291000Y-69065000D03*
X84291000Y-69065000D03*
X92491000Y-69065000D03*
X96136000Y-91525000D03*
X99136000Y-91525000D03*
X107336000Y-91525000D03*
X107336000Y-80295000D03*
X99136000Y-80295000D03*
X96136000Y-80295000D03*
X96136000Y-69065000D03*
X99136000Y-69065000D03*
X107336000Y-69065000D03*
X126001000Y-91390000D03*
X123001000Y-91390000D03*
X114801000Y-91390000D03*
X141001000Y-57700000D03*
X138001000Y-57700000D03*
X129801000Y-57700000D03*
X129801000Y-68930000D03*
X138001000Y-68930000D03*
X141001000Y-68930000D03*
X141001000Y-80160000D03*
X138001000Y-80160000D03*
X129801000Y-80160000D03*
X92491000Y-57835000D03*
X84291000Y-57835000D03*
X81291000Y-57835000D03*
X96136000Y-57835000D03*
X99136000Y-57835000D03*
X107336000Y-57835000D03*
X129801000Y-91390000D03*
X138001000Y-91390000D03*
X141001000Y-91390000D03*
X170386000Y-35306000D03*
X167386000Y-35306000D03*
X159186000Y-35306000D03*
X159186000Y-52959000D03*
X167386000Y-52959000D03*
X170386000Y-52959000D03*
X170386000Y-71755000D03*
X167386000Y-71755000D03*
X159186000Y-71755000D03*
X171021000Y-89281000D03*
X168021000Y-89281000D03*
X159821000Y-89281000D03*
X205311000Y-35306000D03*
X202311000Y-35306000D03*
X194111000Y-35306000D03*
X194111000Y-53721000D03*
X202311000Y-53721000D03*
X205311000Y-53721000D03*
X194111000Y-70866000D03*
X202311000Y-70866000D03*
X205311000Y-70866000D03*
X194111000Y-89281000D03*
X202311000Y-89281000D03*
X205311000Y-89281000D03*
D16*
X77724000Y-37592000D03*
D22*
X70104000Y-45212000D03*
X77724000Y-40132000D03*
X70104000Y-42672000D03*
X77724000Y-42672000D03*
X70104000Y-40132000D03*
X77724000Y-45212000D03*
X70104000Y-37592000D03*
D12*
X70564000Y-73152000D03*
X67564000Y-73152000D03*
X59364000Y-73152000D03*
X35869000Y-88392000D03*
X44069000Y-88392000D03*
X47069000Y-88392000D03*
X70564000Y-88392000D03*
X67564000Y-88392000D03*
X59364000Y-88392000D03*
D16*
X70104000Y-68707000D03*
D22*
X77724000Y-53467000D03*
X70104000Y-66167000D03*
X77724000Y-56007000D03*
X70104000Y-63627000D03*
X77724000Y-58547000D03*
X70104000Y-61087000D03*
X77724000Y-61087000D03*
X70104000Y-58547000D03*
X77724000Y-63627000D03*
X70104000Y-56007000D03*
X77724000Y-66167000D03*
X70104000Y-53467000D03*
X77724000Y-68707000D03*
D20*
X175006000Y-34671000D03*
D19*
X175006000Y-37171000D03*
X175006000Y-39671000D03*
D23*
X182506000Y-41971000D03*
X182506000Y-32371000D03*
X182506000Y-48881000D03*
X182506000Y-58481000D03*
D19*
X175006000Y-56181000D03*
X175006000Y-53681000D03*
D20*
X175006000Y-51181000D03*
D23*
X182506000Y-66026000D03*
X182506000Y-75626000D03*
D19*
X175006000Y-73326000D03*
X175006000Y-70826000D03*
D20*
X175006000Y-68326000D03*
X175006000Y-85471000D03*
D19*
X175006000Y-87971000D03*
X175006000Y-90471000D03*
D23*
X182506000Y-92771000D03*
X182506000Y-83171000D03*
D20*
X38227000Y-63881000D03*
D19*
X40727000Y-63881000D03*
X43227000Y-63881000D03*
D23*
X45527000Y-56381000D03*
X35927000Y-56381000D03*
D20*
X266827000Y-65532000D03*
D19*
X264327000Y-65532000D03*
X261827000Y-65532000D03*
D23*
X259527000Y-73032000D03*
X269127000Y-73032000D03*
D20*
X301117000Y-65532000D03*
D19*
X298617000Y-65532000D03*
X296117000Y-65532000D03*
D23*
X293817000Y-73032000D03*
X303417000Y-73032000D03*
X251347000Y-88272000D03*
X241747000Y-88272000D03*
D19*
X244047000Y-80772000D03*
X246547000Y-80772000D03*
D20*
X249047000Y-80772000D03*
D23*
X286272000Y-88272000D03*
X276672000Y-88272000D03*
D19*
X278972000Y-80772000D03*
X281472000Y-80772000D03*
D20*
X283972000Y-80772000D03*
D10*
X60579000Y-47752000D03*
D11*
X60579000Y-40132000D03*
D10*
X45085000Y-47752000D03*
D11*
X45085000Y-40132000D03*
X41275000Y-40132000D03*
D10*
X41275000Y-47752000D03*
D15*
X231584500Y-37592000D03*
X236584500Y-37592000D03*
X421744140Y-94447360D03*
X416744140Y-94447360D03*
X413480240Y-77536040D03*
X418480240Y-77536040D03*
X308737000Y-32893000D03*
X313737000Y-32893000D03*
X399986500Y-51625500D03*
X399986500Y-46625500D03*
X356298500Y-46498500D03*
X356298500Y-51498500D03*
X361188000Y-51498500D03*
X361188000Y-46498500D03*
X394970000Y-46625500D03*
X394970000Y-51625500D03*
X410423360Y-83794600D03*
X410423360Y-88794600D03*
X427609000Y-89899480D03*
X427609000Y-94899480D03*
D11*
X403352000Y-72707500D03*
D10*
X403352000Y-80327500D03*
D11*
X399224500Y-72707500D03*
D10*
X399224500Y-80327500D03*
X349694500Y-68516500D03*
D11*
X349694500Y-60896500D03*
X345313000Y-60896500D03*
D10*
X345313000Y-68516500D03*
X364744000Y-80327500D03*
D11*
X364744000Y-72707500D03*
X360426000Y-72707500D03*
D10*
X360426000Y-80327500D03*
D11*
X384302000Y-60896500D03*
D10*
X384302000Y-68516500D03*
X379793500Y-68516500D03*
D11*
X379793500Y-60896500D03*
D10*
X407416000Y-72707500D03*
D11*
X407416000Y-80327500D03*
X395033500Y-80327500D03*
D10*
X395033500Y-72707500D03*
D11*
X353758500Y-68516500D03*
D10*
X353758500Y-60896500D03*
X340550500Y-60896500D03*
D11*
X340550500Y-68516500D03*
X368998500Y-80327500D03*
D10*
X368998500Y-72707500D03*
X355663500Y-72707500D03*
D11*
X355663500Y-80327500D03*
X388747000Y-68453000D03*
D10*
X388747000Y-60833000D03*
X375539000Y-60896500D03*
D11*
X375539000Y-68516500D03*
X410446220Y-53578760D03*
D10*
X410446220Y-45958760D03*
D11*
X414990280Y-46192440D03*
D10*
X414990280Y-53812440D03*
X419138100Y-65057020D03*
D11*
X419138100Y-57437020D03*
D20*
X404290500Y-58667000D03*
D19*
X401790500Y-58667000D03*
X399290500Y-58667000D03*
D23*
X396990500Y-66167000D03*
X406590500Y-66167000D03*
X349313500Y-53022500D03*
X339713500Y-53022500D03*
D19*
X342013500Y-45522500D03*
X344513500Y-45522500D03*
D20*
X347013500Y-45522500D03*
D23*
X368184500Y-66103500D03*
X358584500Y-66103500D03*
D19*
X360884500Y-58603500D03*
X363384500Y-58603500D03*
D20*
X365884500Y-58603500D03*
D23*
X387742500Y-53213000D03*
X378142500Y-53213000D03*
D19*
X380442500Y-45713000D03*
X382942500Y-45713000D03*
D20*
X385442500Y-45713000D03*
X404227000Y-84892500D03*
D19*
X401727000Y-84892500D03*
X399227000Y-84892500D03*
D23*
X396927000Y-92392500D03*
X406527000Y-92392500D03*
X349200500Y-79318500D03*
X339600500Y-79318500D03*
D19*
X341900500Y-71818500D03*
X344400500Y-71818500D03*
D20*
X346900500Y-71818500D03*
X365950500Y-84963000D03*
D19*
X363450500Y-84963000D03*
X360950500Y-84963000D03*
D23*
X358650500Y-92463000D03*
X368250500Y-92463000D03*
D20*
X385445000Y-71628000D03*
D19*
X382945000Y-71628000D03*
X380445000Y-71628000D03*
D23*
X378145000Y-79128000D03*
X387745000Y-79128000D03*
D24*
X402526500Y-42418000D03*
X402526500Y-39418000D03*
X402526500Y-31218000D03*
X344678000Y-31154500D03*
X344678000Y-39354500D03*
X344678000Y-42354500D03*
X363855000Y-42354500D03*
X363855000Y-39354500D03*
X363855000Y-31154500D03*
X382905000Y-42481500D03*
X382905000Y-39481500D03*
X382905000Y-31281500D03*
D15*
X210693000Y-32258000D03*
X215693000Y-32258000D03*
X334391000Y-32766000D03*
X329391000Y-32766000D03*
D19*
X423100500Y-43521000D03*
X425600500Y-43521000D03*
X428100500Y-43521000D03*
D23*
X420850500Y-33521000D03*
X430350500Y-33521000D03*
D19*
X428100500Y-41021000D03*
X425600500Y-41021000D03*
D20*
X423100500Y-41021000D03*
G36*
G01*
X424691440Y-70002960D02*
X424691440Y-68802960D01*
G75*
G02*
X424941440Y-68552960I250000J0D01*
G01*
X426141440Y-68552960D01*
G75*
G02*
X426391440Y-68802960I0J-250000D01*
G01*
X426391440Y-70002960D01*
G75*
G02*
X426141440Y-70252960I-250000J0D01*
G01*
X424941440Y-70252960D01*
G75*
G02*
X424691440Y-70002960I0J250000D01*
G01*
G37*
D21*
X425541440Y-66862960D03*
X425541440Y-64322960D03*
X425541440Y-61782960D03*
X425541440Y-59242960D03*
X425541440Y-56702960D03*
X425541440Y-54162960D03*
X425541440Y-51622960D03*
X428081440Y-69402960D03*
X428081440Y-66862960D03*
X428081440Y-64322960D03*
X428081440Y-61782960D03*
X428081440Y-59242960D03*
X428081440Y-56702960D03*
X428081440Y-54162960D03*
X428081440Y-51622960D03*
D10*
X128478280Y-49565560D03*
D11*
X128478280Y-41945560D03*
X89179400Y-41945560D03*
D10*
X89179400Y-49565560D03*
X96641920Y-49367440D03*
D11*
X96641920Y-41747440D03*
X134741920Y-41945560D03*
D10*
X134741920Y-49565560D03*
D16*
X422894760Y-82453480D03*
D22*
X415274760Y-90073480D03*
X422894760Y-84993480D03*
X415274760Y-87533480D03*
X422894760Y-87533480D03*
X415274760Y-84993480D03*
X422894760Y-90073480D03*
X415274760Y-82453480D03*
D11*
X43662600Y-66522600D03*
D10*
X36042600Y-66522600D03*
X67259200Y-66344800D03*
D11*
X59639200Y-66344800D03*
D10*
X46761400Y-84785200D03*
D11*
X46761400Y-77165200D03*
X56184800Y-74218800D03*
D10*
X56184800Y-81838800D03*
M02*
