G04 #@! TF.GenerationSoftware,KiCad,Pcbnew,(5.1.10)-1*
G04 #@! TF.CreationDate,2022-02-04T18:39:41-05:00*
G04 #@! TF.ProjectId,Utility_board,5574696c-6974-4795-9f62-6f6172642e6b,rev?*
G04 #@! TF.SameCoordinates,Original*
G04 #@! TF.FileFunction,Legend,Top*
G04 #@! TF.FilePolarity,Positive*
%FSLAX46Y46*%
G04 Gerber Fmt 4.6, Leading zero omitted, Abs format (unit mm)*
G04 Created by KiCad (PCBNEW (5.1.10)-1) date 2022-02-04 18:39:41*
%MOMM*%
%LPD*%
G01*
G04 APERTURE LIST*
%ADD10C,0.120000*%
%ADD11C,0.150000*%
%ADD12C,1.400000*%
%ADD13O,1.400000X1.400000*%
%ADD14O,2.500000X4.000000*%
%ADD15R,1.050000X1.500000*%
%ADD16O,1.050000X1.500000*%
%ADD17C,1.600000*%
%ADD18R,1.600000X1.600000*%
%ADD19O,1.500000X1.500000*%
%ADD20R,1.500000X1.500000*%
%ADD21C,1.800000*%
%ADD22R,1.800000X1.800000*%
%ADD23C,1.700000*%
%ADD24O,1.600000X1.600000*%
%ADD25C,3.240000*%
%ADD26O,4.000000X2.500000*%
G04 APERTURE END LIST*
D10*
X42055051Y-73152000D02*
G75*
G03*
X42055051Y-73152000I-1796051J0D01*
G01*
X33909000Y-68072000D02*
X33909000Y-78232000D01*
X33909000Y-78232000D02*
X45339000Y-78232000D01*
X45339000Y-78232000D02*
X45339000Y-68072000D01*
X45339000Y-68072000D02*
X33909000Y-68072000D01*
X42798999Y-75691999D02*
G75*
G02*
X37719001Y-75691999I-2539999J2539999D01*
G01*
X37719001Y-70612001D02*
G75*
G02*
X42798999Y-70612001I2539999J-2539999D01*
G01*
X262362000Y-85196000D02*
X262362000Y-88286000D01*
X267422000Y-86741000D02*
G75*
G03*
X267422000Y-86741000I-2500000J0D01*
G01*
X267912000Y-86740538D02*
G75*
G02*
X262362000Y-88285830I-2990000J-462D01*
G01*
X267912000Y-86741462D02*
G75*
G03*
X262362000Y-85196170I-2990000J462D01*
G01*
X300950000Y-86360000D02*
G75*
G03*
X300950000Y-86360000I-2500000J0D01*
G01*
X301010000Y-87905000D02*
X301010000Y-84815000D01*
X295460000Y-86359538D02*
G75*
G03*
X301010000Y-87904830I2990000J-462D01*
G01*
X295460000Y-86360462D02*
G75*
G02*
X301010000Y-84815170I2990000J462D01*
G01*
X243566000Y-69956000D02*
X243566000Y-73046000D01*
X248626000Y-71501000D02*
G75*
G03*
X248626000Y-71501000I-2500000J0D01*
G01*
X249116000Y-71500538D02*
G75*
G02*
X243566000Y-73045830I-2990000J-462D01*
G01*
X249116000Y-71501462D02*
G75*
G03*
X243566000Y-69956170I-2990000J462D01*
G01*
X283678000Y-71501000D02*
G75*
G03*
X283678000Y-71501000I-2500000J0D01*
G01*
X278618000Y-69956000D02*
X278618000Y-73046000D01*
X284168000Y-71501462D02*
G75*
G03*
X278618000Y-69956170I-2990000J462D01*
G01*
X284168000Y-71500538D02*
G75*
G02*
X278618000Y-73045830I-2990000J-462D01*
G01*
X54189000Y-73152000D02*
G75*
G03*
X54189000Y-73152000I-2500000J0D01*
G01*
X49129000Y-71607000D02*
X49129000Y-74697000D01*
X54679000Y-73152462D02*
G75*
G03*
X49129000Y-71607170I-2990000J462D01*
G01*
X54679000Y-73151538D02*
G75*
G02*
X49129000Y-74696830I-2990000J-462D01*
G01*
X72624000Y-71607000D02*
X72624000Y-74697000D01*
X77684000Y-73152000D02*
G75*
G03*
X77684000Y-73152000I-2500000J0D01*
G01*
X78174000Y-73151538D02*
G75*
G02*
X72624000Y-74696830I-2990000J-462D01*
G01*
X78174000Y-73152462D02*
G75*
G03*
X72624000Y-71607170I-2990000J462D01*
G01*
X49129000Y-86847000D02*
X49129000Y-89937000D01*
X54189000Y-88392000D02*
G75*
G03*
X54189000Y-88392000I-2500000J0D01*
G01*
X54679000Y-88391538D02*
G75*
G02*
X49129000Y-89936830I-2990000J-462D01*
G01*
X54679000Y-88392462D02*
G75*
G03*
X49129000Y-86847170I-2990000J462D01*
G01*
X77684000Y-88392000D02*
G75*
G03*
X77684000Y-88392000I-2500000J0D01*
G01*
X72624000Y-86847000D02*
X72624000Y-89937000D01*
X78174000Y-88392462D02*
G75*
G03*
X72624000Y-86847170I-2990000J462D01*
G01*
X78174000Y-88391538D02*
G75*
G02*
X72624000Y-89936830I-2990000J-462D01*
G01*
X269227000Y-39497000D02*
X257797000Y-39497000D01*
X269227000Y-49657000D02*
X269227000Y-39497000D01*
X257797000Y-49657000D02*
X269227000Y-49657000D01*
X257797000Y-39497000D02*
X257797000Y-49657000D01*
X265943051Y-44577000D02*
G75*
G03*
X265943051Y-44577000I-1796051J0D01*
G01*
X261607001Y-42037001D02*
G75*
G02*
X266686999Y-42037001I2539999J-2539999D01*
G01*
X266686999Y-47116999D02*
G75*
G02*
X261607001Y-47116999I-2539999J2539999D01*
G01*
X299738051Y-44577000D02*
G75*
G03*
X299738051Y-44577000I-1796051J0D01*
G01*
X304292000Y-49657000D02*
X304292000Y-39497000D01*
X304292000Y-39497000D02*
X292862000Y-39497000D01*
X292862000Y-39497000D02*
X292862000Y-49657000D01*
X292862000Y-49657000D02*
X304292000Y-49657000D01*
X295402001Y-42037001D02*
G75*
G02*
X300481999Y-42037001I2539999J-2539999D01*
G01*
X300481999Y-47116999D02*
G75*
G02*
X295402001Y-47116999I-2539999J2539999D01*
G01*
X251727000Y-39751000D02*
X240297000Y-39751000D01*
X251727000Y-49911000D02*
X251727000Y-39751000D01*
X240297000Y-49911000D02*
X251727000Y-49911000D01*
X240297000Y-39751000D02*
X240297000Y-49911000D01*
X248443051Y-44831000D02*
G75*
G03*
X248443051Y-44831000I-1796051J0D01*
G01*
X244107001Y-42291001D02*
G75*
G02*
X249186999Y-42291001I2539999J-2539999D01*
G01*
X249186999Y-47370999D02*
G75*
G02*
X244107001Y-47370999I-2539999J2539999D01*
G01*
X282974051Y-44577000D02*
G75*
G03*
X282974051Y-44577000I-1796051J0D01*
G01*
X287528000Y-49657000D02*
X287528000Y-39497000D01*
X287528000Y-39497000D02*
X276098000Y-39497000D01*
X276098000Y-39497000D02*
X276098000Y-49657000D01*
X276098000Y-49657000D02*
X287528000Y-49657000D01*
X278638001Y-42037001D02*
G75*
G02*
X283717999Y-42037001I2539999J-2539999D01*
G01*
X283717999Y-47116999D02*
G75*
G02*
X278638001Y-47116999I-2539999J2539999D01*
G01*
X265943051Y-33295000D02*
G75*
G03*
X265943051Y-33295000I-1796051J0D01*
G01*
X257797000Y-28215000D02*
X257797000Y-38375000D01*
X257797000Y-38375000D02*
X269227000Y-38375000D01*
X269227000Y-38375000D02*
X269227000Y-28215000D01*
X269227000Y-28215000D02*
X257797000Y-28215000D01*
X266686999Y-35834999D02*
G75*
G02*
X261607001Y-35834999I-2539999J2539999D01*
G01*
X261607001Y-30755001D02*
G75*
G02*
X266686999Y-30755001I2539999J-2539999D01*
G01*
X299738051Y-33401000D02*
G75*
G03*
X299738051Y-33401000I-1796051J0D01*
G01*
X304292000Y-38481000D02*
X304292000Y-28321000D01*
X304292000Y-28321000D02*
X292862000Y-28321000D01*
X292862000Y-28321000D02*
X292862000Y-38481000D01*
X292862000Y-38481000D02*
X304292000Y-38481000D01*
X295402001Y-30861001D02*
G75*
G02*
X300481999Y-30861001I2539999J-2539999D01*
G01*
X300481999Y-35940999D02*
G75*
G02*
X295402001Y-35940999I-2539999J2539999D01*
G01*
X248443051Y-33295000D02*
G75*
G03*
X248443051Y-33295000I-1796051J0D01*
G01*
X240297000Y-28215000D02*
X240297000Y-38375000D01*
X240297000Y-38375000D02*
X251727000Y-38375000D01*
X251727000Y-38375000D02*
X251727000Y-28215000D01*
X251727000Y-28215000D02*
X240297000Y-28215000D01*
X249186999Y-35834999D02*
G75*
G02*
X244107001Y-35834999I-2539999J2539999D01*
G01*
X244107001Y-30755001D02*
G75*
G02*
X249186999Y-30755001I2539999J-2539999D01*
G01*
X276098000Y-38481000D02*
X287528000Y-38481000D01*
X276098000Y-28321000D02*
X276098000Y-38481000D01*
X287528000Y-28321000D02*
X276098000Y-28321000D01*
X287528000Y-38481000D02*
X287528000Y-28321000D01*
X282974051Y-33401000D02*
G75*
G03*
X282974051Y-33401000I-1796051J0D01*
G01*
X283717999Y-35940999D02*
G75*
G02*
X278638001Y-35940999I-2539999J2539999D01*
G01*
X278638001Y-30861001D02*
G75*
G02*
X283717999Y-30861001I2539999J-2539999D01*
G01*
X265943051Y-56211000D02*
G75*
G03*
X265943051Y-56211000I-1796051J0D01*
G01*
X257797000Y-51131000D02*
X257797000Y-61291000D01*
X257797000Y-61291000D02*
X269227000Y-61291000D01*
X269227000Y-61291000D02*
X269227000Y-51131000D01*
X269227000Y-51131000D02*
X257797000Y-51131000D01*
X266686999Y-58750999D02*
G75*
G02*
X261607001Y-58750999I-2539999J2539999D01*
G01*
X261607001Y-53671001D02*
G75*
G02*
X266686999Y-53671001I2539999J-2539999D01*
G01*
X292862000Y-61341000D02*
X304292000Y-61341000D01*
X292862000Y-51181000D02*
X292862000Y-61341000D01*
X304292000Y-51181000D02*
X292862000Y-51181000D01*
X304292000Y-61341000D02*
X304292000Y-51181000D01*
X299738051Y-56261000D02*
G75*
G03*
X299738051Y-56261000I-1796051J0D01*
G01*
X300481999Y-58800999D02*
G75*
G02*
X295402001Y-58800999I-2539999J2539999D01*
G01*
X295402001Y-53721001D02*
G75*
G02*
X300481999Y-53721001I2539999J-2539999D01*
G01*
X251727000Y-51131000D02*
X240297000Y-51131000D01*
X251727000Y-61291000D02*
X251727000Y-51131000D01*
X240297000Y-61291000D02*
X251727000Y-61291000D01*
X240297000Y-51131000D02*
X240297000Y-61291000D01*
X248443051Y-56211000D02*
G75*
G03*
X248443051Y-56211000I-1796051J0D01*
G01*
X244107001Y-53671001D02*
G75*
G02*
X249186999Y-53671001I2539999J-2539999D01*
G01*
X249186999Y-58750999D02*
G75*
G02*
X244107001Y-58750999I-2539999J2539999D01*
G01*
X276098000Y-61341000D02*
X287528000Y-61341000D01*
X276098000Y-51181000D02*
X276098000Y-61341000D01*
X287528000Y-51181000D02*
X276098000Y-51181000D01*
X287528000Y-61341000D02*
X287528000Y-51181000D01*
X282974051Y-56261000D02*
G75*
G03*
X282974051Y-56261000I-1796051J0D01*
G01*
X283717999Y-58800999D02*
G75*
G02*
X278638001Y-58800999I-2539999J2539999D01*
G01*
X278638001Y-53721001D02*
G75*
G02*
X283717999Y-53721001I2539999J-2539999D01*
G01*
X124271000Y-28215000D02*
X112841000Y-28215000D01*
X124271000Y-38375000D02*
X124271000Y-28215000D01*
X112841000Y-38375000D02*
X124271000Y-38375000D01*
X112841000Y-28215000D02*
X112841000Y-38375000D01*
X120987051Y-33295000D02*
G75*
G03*
X120987051Y-33295000I-1796051J0D01*
G01*
X116651001Y-30755001D02*
G75*
G02*
X121730999Y-30755001I2539999J-2539999D01*
G01*
X121730999Y-35834999D02*
G75*
G02*
X116651001Y-35834999I-2539999J2539999D01*
G01*
X89172051Y-33540000D02*
G75*
G03*
X89172051Y-33540000I-1796051J0D01*
G01*
X93726000Y-38620000D02*
X93726000Y-28460000D01*
X93726000Y-28460000D02*
X82296000Y-28460000D01*
X82296000Y-28460000D02*
X82296000Y-38620000D01*
X82296000Y-38620000D02*
X93726000Y-38620000D01*
X84836001Y-31000001D02*
G75*
G02*
X89915999Y-31000001I2539999J-2539999D01*
G01*
X89915999Y-36079999D02*
G75*
G02*
X84836001Y-36079999I-2539999J2539999D01*
G01*
X104412051Y-33380000D02*
G75*
G03*
X104412051Y-33380000I-1796051J0D01*
G01*
X108966000Y-38460000D02*
X108966000Y-28300000D01*
X108966000Y-28300000D02*
X97536000Y-28300000D01*
X97536000Y-28300000D02*
X97536000Y-38460000D01*
X97536000Y-38460000D02*
X108966000Y-38460000D01*
X100076001Y-30840001D02*
G75*
G02*
X105155999Y-30840001I2539999J-2539999D01*
G01*
X105155999Y-35919999D02*
G75*
G02*
X100076001Y-35919999I-2539999J2539999D01*
G01*
X135987051Y-33295000D02*
G75*
G03*
X135987051Y-33295000I-1796051J0D01*
G01*
X127841000Y-28215000D02*
X127841000Y-38375000D01*
X127841000Y-38375000D02*
X139271000Y-38375000D01*
X139271000Y-38375000D02*
X139271000Y-28215000D01*
X139271000Y-28215000D02*
X127841000Y-28215000D01*
X136730999Y-35834999D02*
G75*
G02*
X131651001Y-35834999I-2539999J2539999D01*
G01*
X131651001Y-30755001D02*
G75*
G02*
X136730999Y-30755001I2539999J-2539999D01*
G01*
X120987051Y-57700000D02*
G75*
G03*
X120987051Y-57700000I-1796051J0D01*
G01*
X112841000Y-52620000D02*
X112841000Y-62780000D01*
X112841000Y-62780000D02*
X124271000Y-62780000D01*
X124271000Y-62780000D02*
X124271000Y-52620000D01*
X124271000Y-52620000D02*
X112841000Y-52620000D01*
X121730999Y-60239999D02*
G75*
G02*
X116651001Y-60239999I-2539999J2539999D01*
G01*
X116651001Y-55160001D02*
G75*
G02*
X121730999Y-55160001I2539999J-2539999D01*
G01*
X124271000Y-63850000D02*
X112841000Y-63850000D01*
X124271000Y-74010000D02*
X124271000Y-63850000D01*
X112841000Y-74010000D02*
X124271000Y-74010000D01*
X112841000Y-63850000D02*
X112841000Y-74010000D01*
X120987051Y-68930000D02*
G75*
G03*
X120987051Y-68930000I-1796051J0D01*
G01*
X116651001Y-66390001D02*
G75*
G02*
X121730999Y-66390001I2539999J-2539999D01*
G01*
X121730999Y-71469999D02*
G75*
G02*
X116651001Y-71469999I-2539999J2539999D01*
G01*
X120987051Y-80160000D02*
G75*
G03*
X120987051Y-80160000I-1796051J0D01*
G01*
X112841000Y-75080000D02*
X112841000Y-85240000D01*
X112841000Y-85240000D02*
X124271000Y-85240000D01*
X124271000Y-85240000D02*
X124271000Y-75080000D01*
X124271000Y-75080000D02*
X112841000Y-75080000D01*
X121730999Y-82699999D02*
G75*
G02*
X116651001Y-82699999I-2539999J2539999D01*
G01*
X116651001Y-77620001D02*
G75*
G02*
X121730999Y-77620001I2539999J-2539999D01*
G01*
X83021000Y-96605000D02*
X94451000Y-96605000D01*
X83021000Y-86445000D02*
X83021000Y-96605000D01*
X94451000Y-86445000D02*
X83021000Y-86445000D01*
X94451000Y-96605000D02*
X94451000Y-86445000D01*
X89897051Y-91525000D02*
G75*
G03*
X89897051Y-91525000I-1796051J0D01*
G01*
X90640999Y-94064999D02*
G75*
G02*
X85561001Y-94064999I-2539999J2539999D01*
G01*
X85561001Y-88985001D02*
G75*
G02*
X90640999Y-88985001I2539999J-2539999D01*
G01*
X89897051Y-80455000D02*
G75*
G03*
X89897051Y-80455000I-1796051J0D01*
G01*
X94451000Y-85535000D02*
X94451000Y-75375000D01*
X94451000Y-75375000D02*
X83021000Y-75375000D01*
X83021000Y-75375000D02*
X83021000Y-85535000D01*
X83021000Y-85535000D02*
X94451000Y-85535000D01*
X85561001Y-77915001D02*
G75*
G02*
X90640999Y-77915001I2539999J-2539999D01*
G01*
X90640999Y-82994999D02*
G75*
G02*
X85561001Y-82994999I-2539999J2539999D01*
G01*
X83021000Y-74145000D02*
X94451000Y-74145000D01*
X83021000Y-63985000D02*
X83021000Y-74145000D01*
X94451000Y-63985000D02*
X83021000Y-63985000D01*
X94451000Y-74145000D02*
X94451000Y-63985000D01*
X89897051Y-69065000D02*
G75*
G03*
X89897051Y-69065000I-1796051J0D01*
G01*
X90640999Y-71604999D02*
G75*
G02*
X85561001Y-71604999I-2539999J2539999D01*
G01*
X85561001Y-66525001D02*
G75*
G02*
X90640999Y-66525001I2539999J-2539999D01*
G01*
X97866000Y-96605000D02*
X109296000Y-96605000D01*
X97866000Y-86445000D02*
X97866000Y-96605000D01*
X109296000Y-86445000D02*
X97866000Y-86445000D01*
X109296000Y-96605000D02*
X109296000Y-86445000D01*
X104742051Y-91525000D02*
G75*
G03*
X104742051Y-91525000I-1796051J0D01*
G01*
X105485999Y-94064999D02*
G75*
G02*
X100406001Y-94064999I-2539999J2539999D01*
G01*
X100406001Y-88985001D02*
G75*
G02*
X105485999Y-88985001I2539999J-2539999D01*
G01*
X104742051Y-80295000D02*
G75*
G03*
X104742051Y-80295000I-1796051J0D01*
G01*
X109296000Y-85375000D02*
X109296000Y-75215000D01*
X109296000Y-75215000D02*
X97866000Y-75215000D01*
X97866000Y-75215000D02*
X97866000Y-85375000D01*
X97866000Y-85375000D02*
X109296000Y-85375000D01*
X100406001Y-77755001D02*
G75*
G02*
X105485999Y-77755001I2539999J-2539999D01*
G01*
X105485999Y-82834999D02*
G75*
G02*
X100406001Y-82834999I-2539999J2539999D01*
G01*
X97866000Y-74145000D02*
X109296000Y-74145000D01*
X97866000Y-63985000D02*
X97866000Y-74145000D01*
X109296000Y-63985000D02*
X97866000Y-63985000D01*
X109296000Y-74145000D02*
X109296000Y-63985000D01*
X104742051Y-69065000D02*
G75*
G03*
X104742051Y-69065000I-1796051J0D01*
G01*
X105485999Y-71604999D02*
G75*
G02*
X100406001Y-71604999I-2539999J2539999D01*
G01*
X100406001Y-66525001D02*
G75*
G02*
X105485999Y-66525001I2539999J-2539999D01*
G01*
X124271000Y-86310000D02*
X112841000Y-86310000D01*
X124271000Y-96470000D02*
X124271000Y-86310000D01*
X112841000Y-96470000D02*
X124271000Y-96470000D01*
X112841000Y-86310000D02*
X112841000Y-96470000D01*
X120987051Y-91390000D02*
G75*
G03*
X120987051Y-91390000I-1796051J0D01*
G01*
X116651001Y-88850001D02*
G75*
G02*
X121730999Y-88850001I2539999J-2539999D01*
G01*
X121730999Y-93929999D02*
G75*
G02*
X116651001Y-93929999I-2539999J2539999D01*
G01*
X139271000Y-52620000D02*
X127841000Y-52620000D01*
X139271000Y-62780000D02*
X139271000Y-52620000D01*
X127841000Y-62780000D02*
X139271000Y-62780000D01*
X127841000Y-52620000D02*
X127841000Y-62780000D01*
X135987051Y-57700000D02*
G75*
G03*
X135987051Y-57700000I-1796051J0D01*
G01*
X131651001Y-55160001D02*
G75*
G02*
X136730999Y-55160001I2539999J-2539999D01*
G01*
X136730999Y-60239999D02*
G75*
G02*
X131651001Y-60239999I-2539999J2539999D01*
G01*
X135987051Y-68930000D02*
G75*
G03*
X135987051Y-68930000I-1796051J0D01*
G01*
X127841000Y-63850000D02*
X127841000Y-74010000D01*
X127841000Y-74010000D02*
X139271000Y-74010000D01*
X139271000Y-74010000D02*
X139271000Y-63850000D01*
X139271000Y-63850000D02*
X127841000Y-63850000D01*
X136730999Y-71469999D02*
G75*
G02*
X131651001Y-71469999I-2539999J2539999D01*
G01*
X131651001Y-66390001D02*
G75*
G02*
X136730999Y-66390001I2539999J-2539999D01*
G01*
X139271000Y-75080000D02*
X127841000Y-75080000D01*
X139271000Y-85240000D02*
X139271000Y-75080000D01*
X127841000Y-85240000D02*
X139271000Y-85240000D01*
X127841000Y-75080000D02*
X127841000Y-85240000D01*
X135987051Y-80160000D02*
G75*
G03*
X135987051Y-80160000I-1796051J0D01*
G01*
X131651001Y-77620001D02*
G75*
G02*
X136730999Y-77620001I2539999J-2539999D01*
G01*
X136730999Y-82699999D02*
G75*
G02*
X131651001Y-82699999I-2539999J2539999D01*
G01*
X89897051Y-57835000D02*
G75*
G03*
X89897051Y-57835000I-1796051J0D01*
G01*
X94451000Y-62915000D02*
X94451000Y-52755000D01*
X94451000Y-52755000D02*
X83021000Y-52755000D01*
X83021000Y-52755000D02*
X83021000Y-62915000D01*
X83021000Y-62915000D02*
X94451000Y-62915000D01*
X85561001Y-55295001D02*
G75*
G02*
X90640999Y-55295001I2539999J-2539999D01*
G01*
X90640999Y-60374999D02*
G75*
G02*
X85561001Y-60374999I-2539999J2539999D01*
G01*
X97866000Y-62915000D02*
X109296000Y-62915000D01*
X97866000Y-52755000D02*
X97866000Y-62915000D01*
X109296000Y-52755000D02*
X97866000Y-52755000D01*
X109296000Y-62915000D02*
X109296000Y-52755000D01*
X104742051Y-57835000D02*
G75*
G03*
X104742051Y-57835000I-1796051J0D01*
G01*
X105485999Y-60374999D02*
G75*
G02*
X100406001Y-60374999I-2539999J2539999D01*
G01*
X100406001Y-55295001D02*
G75*
G02*
X105485999Y-55295001I2539999J-2539999D01*
G01*
X135987051Y-91390000D02*
G75*
G03*
X135987051Y-91390000I-1796051J0D01*
G01*
X127841000Y-86310000D02*
X127841000Y-96470000D01*
X127841000Y-96470000D02*
X139271000Y-96470000D01*
X139271000Y-96470000D02*
X139271000Y-86310000D01*
X139271000Y-86310000D02*
X127841000Y-86310000D01*
X136730999Y-93929999D02*
G75*
G02*
X131651001Y-93929999I-2539999J2539999D01*
G01*
X131651001Y-88850001D02*
G75*
G02*
X136730999Y-88850001I2539999J-2539999D01*
G01*
X168656000Y-30226000D02*
X157226000Y-30226000D01*
X168656000Y-40386000D02*
X168656000Y-30226000D01*
X157226000Y-40386000D02*
X168656000Y-40386000D01*
X157226000Y-30226000D02*
X157226000Y-40386000D01*
X165372051Y-35306000D02*
G75*
G03*
X165372051Y-35306000I-1796051J0D01*
G01*
X161036001Y-32766001D02*
G75*
G02*
X166115999Y-32766001I2539999J-2539999D01*
G01*
X166115999Y-37845999D02*
G75*
G02*
X161036001Y-37845999I-2539999J2539999D01*
G01*
X165372051Y-52959000D02*
G75*
G03*
X165372051Y-52959000I-1796051J0D01*
G01*
X157226000Y-47879000D02*
X157226000Y-58039000D01*
X157226000Y-58039000D02*
X168656000Y-58039000D01*
X168656000Y-58039000D02*
X168656000Y-47879000D01*
X168656000Y-47879000D02*
X157226000Y-47879000D01*
X166115999Y-55498999D02*
G75*
G02*
X161036001Y-55498999I-2539999J2539999D01*
G01*
X161036001Y-50419001D02*
G75*
G02*
X166115999Y-50419001I2539999J-2539999D01*
G01*
X168656000Y-66675000D02*
X157226000Y-66675000D01*
X168656000Y-76835000D02*
X168656000Y-66675000D01*
X157226000Y-76835000D02*
X168656000Y-76835000D01*
X157226000Y-66675000D02*
X157226000Y-76835000D01*
X165372051Y-71755000D02*
G75*
G03*
X165372051Y-71755000I-1796051J0D01*
G01*
X161036001Y-69215001D02*
G75*
G02*
X166115999Y-69215001I2539999J-2539999D01*
G01*
X166115999Y-74294999D02*
G75*
G02*
X161036001Y-74294999I-2539999J2539999D01*
G01*
X169291000Y-84201000D02*
X157861000Y-84201000D01*
X169291000Y-94361000D02*
X169291000Y-84201000D01*
X157861000Y-94361000D02*
X169291000Y-94361000D01*
X157861000Y-84201000D02*
X157861000Y-94361000D01*
X166007051Y-89281000D02*
G75*
G03*
X166007051Y-89281000I-1796051J0D01*
G01*
X161671001Y-86741001D02*
G75*
G02*
X166750999Y-86741001I2539999J-2539999D01*
G01*
X166750999Y-91820999D02*
G75*
G02*
X161671001Y-91820999I-2539999J2539999D01*
G01*
X203581000Y-30226000D02*
X192151000Y-30226000D01*
X203581000Y-40386000D02*
X203581000Y-30226000D01*
X192151000Y-40386000D02*
X203581000Y-40386000D01*
X192151000Y-30226000D02*
X192151000Y-40386000D01*
X200297051Y-35306000D02*
G75*
G03*
X200297051Y-35306000I-1796051J0D01*
G01*
X195961001Y-32766001D02*
G75*
G02*
X201040999Y-32766001I2539999J-2539999D01*
G01*
X201040999Y-37845999D02*
G75*
G02*
X195961001Y-37845999I-2539999J2539999D01*
G01*
X200297051Y-53721000D02*
G75*
G03*
X200297051Y-53721000I-1796051J0D01*
G01*
X192151000Y-48641000D02*
X192151000Y-58801000D01*
X192151000Y-58801000D02*
X203581000Y-58801000D01*
X203581000Y-58801000D02*
X203581000Y-48641000D01*
X203581000Y-48641000D02*
X192151000Y-48641000D01*
X201040999Y-56260999D02*
G75*
G02*
X195961001Y-56260999I-2539999J2539999D01*
G01*
X195961001Y-51181001D02*
G75*
G02*
X201040999Y-51181001I2539999J-2539999D01*
G01*
X200297051Y-70866000D02*
G75*
G03*
X200297051Y-70866000I-1796051J0D01*
G01*
X192151000Y-65786000D02*
X192151000Y-75946000D01*
X192151000Y-75946000D02*
X203581000Y-75946000D01*
X203581000Y-75946000D02*
X203581000Y-65786000D01*
X203581000Y-65786000D02*
X192151000Y-65786000D01*
X201040999Y-73405999D02*
G75*
G02*
X195961001Y-73405999I-2539999J2539999D01*
G01*
X195961001Y-68326001D02*
G75*
G02*
X201040999Y-68326001I2539999J-2539999D01*
G01*
X200297051Y-89281000D02*
G75*
G03*
X200297051Y-89281000I-1796051J0D01*
G01*
X192151000Y-84201000D02*
X192151000Y-94361000D01*
X192151000Y-94361000D02*
X203581000Y-94361000D01*
X203581000Y-94361000D02*
X203581000Y-84201000D01*
X203581000Y-84201000D02*
X192151000Y-84201000D01*
X201040999Y-91820999D02*
G75*
G02*
X195961001Y-91820999I-2539999J2539999D01*
G01*
X195961001Y-86741001D02*
G75*
G02*
X201040999Y-86741001I2539999J-2539999D01*
G01*
X68834000Y-68072000D02*
X57404000Y-68072000D01*
X68834000Y-78232000D02*
X68834000Y-68072000D01*
X57404000Y-78232000D02*
X68834000Y-78232000D01*
X57404000Y-68072000D02*
X57404000Y-78232000D01*
X65550051Y-73152000D02*
G75*
G03*
X65550051Y-73152000I-1796051J0D01*
G01*
X61214001Y-70612001D02*
G75*
G02*
X66293999Y-70612001I2539999J-2539999D01*
G01*
X66293999Y-75691999D02*
G75*
G02*
X61214001Y-75691999I-2539999J2539999D01*
G01*
X42055051Y-88392000D02*
G75*
G03*
X42055051Y-88392000I-1796051J0D01*
G01*
X33909000Y-83312000D02*
X33909000Y-93472000D01*
X33909000Y-93472000D02*
X45339000Y-93472000D01*
X45339000Y-93472000D02*
X45339000Y-83312000D01*
X45339000Y-83312000D02*
X33909000Y-83312000D01*
X42798999Y-90931999D02*
G75*
G02*
X37719001Y-90931999I-2539999J2539999D01*
G01*
X37719001Y-85852001D02*
G75*
G02*
X42798999Y-85852001I2539999J-2539999D01*
G01*
X68834000Y-83312000D02*
X57404000Y-83312000D01*
X68834000Y-93472000D02*
X68834000Y-83312000D01*
X57404000Y-93472000D02*
X68834000Y-93472000D01*
X57404000Y-83312000D02*
X57404000Y-93472000D01*
X65550051Y-88392000D02*
G75*
G03*
X65550051Y-88392000I-1796051J0D01*
G01*
X61214001Y-85852001D02*
G75*
G02*
X66293999Y-85852001I2539999J-2539999D01*
G01*
X66293999Y-90931999D02*
G75*
G02*
X61214001Y-90931999I-2539999J2539999D01*
G01*
X187476000Y-42041000D02*
X187476000Y-32301000D01*
X175886000Y-42041000D02*
X175886000Y-40551000D01*
X184416000Y-42041000D02*
X187476000Y-42041000D01*
X175886000Y-32291000D02*
X180606000Y-32291000D01*
X184416000Y-32301000D02*
X187476000Y-32301000D01*
X175886000Y-42041000D02*
X180606000Y-42041000D01*
X175886000Y-33481000D02*
X175886000Y-32301000D01*
X175886000Y-36381000D02*
X175886000Y-35851000D01*
X175886000Y-38831000D02*
X175886000Y-38001000D01*
X175886000Y-55341000D02*
X175886000Y-54511000D01*
X175886000Y-52891000D02*
X175886000Y-52361000D01*
X175886000Y-49991000D02*
X175886000Y-48811000D01*
X175886000Y-58551000D02*
X180606000Y-58551000D01*
X184416000Y-48811000D02*
X187476000Y-48811000D01*
X175886000Y-48801000D02*
X180606000Y-48801000D01*
X184416000Y-58551000D02*
X187476000Y-58551000D01*
X175886000Y-58551000D02*
X175886000Y-57061000D01*
X187476000Y-58551000D02*
X187476000Y-48811000D01*
X175886000Y-72486000D02*
X175886000Y-71656000D01*
X175886000Y-70036000D02*
X175886000Y-69506000D01*
X175886000Y-67136000D02*
X175886000Y-65956000D01*
X175886000Y-75696000D02*
X180606000Y-75696000D01*
X184416000Y-65956000D02*
X187476000Y-65956000D01*
X175886000Y-65946000D02*
X180606000Y-65946000D01*
X184416000Y-75696000D02*
X187476000Y-75696000D01*
X175886000Y-75696000D02*
X175886000Y-74206000D01*
X187476000Y-75696000D02*
X187476000Y-65956000D01*
X187476000Y-92841000D02*
X187476000Y-83101000D01*
X175886000Y-92841000D02*
X175886000Y-91351000D01*
X184416000Y-92841000D02*
X187476000Y-92841000D01*
X175886000Y-83091000D02*
X180606000Y-83091000D01*
X184416000Y-83101000D02*
X187476000Y-83101000D01*
X175886000Y-92841000D02*
X180606000Y-92841000D01*
X175886000Y-84281000D02*
X175886000Y-83101000D01*
X175886000Y-87181000D02*
X175886000Y-86651000D01*
X175886000Y-89631000D02*
X175886000Y-88801000D01*
X45597000Y-51411000D02*
X35857000Y-51411000D01*
X45597000Y-63001000D02*
X44107000Y-63001000D01*
X45597000Y-54471000D02*
X45597000Y-51411000D01*
X35847000Y-63001000D02*
X35847000Y-58281000D01*
X35857000Y-54471000D02*
X35857000Y-51411000D01*
X45597000Y-63001000D02*
X45597000Y-58281000D01*
X37037000Y-63001000D02*
X35857000Y-63001000D01*
X39937000Y-63001000D02*
X39407000Y-63001000D01*
X42387000Y-63001000D02*
X41557000Y-63001000D01*
X259457000Y-78002000D02*
X269197000Y-78002000D01*
X259457000Y-66412000D02*
X260947000Y-66412000D01*
X259457000Y-74942000D02*
X259457000Y-78002000D01*
X269207000Y-66412000D02*
X269207000Y-71132000D01*
X269197000Y-74942000D02*
X269197000Y-78002000D01*
X259457000Y-66412000D02*
X259457000Y-71132000D01*
X268017000Y-66412000D02*
X269197000Y-66412000D01*
X265117000Y-66412000D02*
X265647000Y-66412000D01*
X262667000Y-66412000D02*
X263497000Y-66412000D01*
X293747000Y-78002000D02*
X303487000Y-78002000D01*
X293747000Y-66412000D02*
X295237000Y-66412000D01*
X293747000Y-74942000D02*
X293747000Y-78002000D01*
X303497000Y-66412000D02*
X303497000Y-71132000D01*
X303487000Y-74942000D02*
X303487000Y-78002000D01*
X293747000Y-66412000D02*
X293747000Y-71132000D01*
X302307000Y-66412000D02*
X303487000Y-66412000D01*
X299407000Y-66412000D02*
X299937000Y-66412000D01*
X296957000Y-66412000D02*
X297787000Y-66412000D01*
X244887000Y-81652000D02*
X245717000Y-81652000D01*
X247337000Y-81652000D02*
X247867000Y-81652000D01*
X250237000Y-81652000D02*
X251417000Y-81652000D01*
X241677000Y-81652000D02*
X241677000Y-86372000D01*
X251417000Y-90182000D02*
X251417000Y-93242000D01*
X251427000Y-81652000D02*
X251427000Y-86372000D01*
X241677000Y-90182000D02*
X241677000Y-93242000D01*
X241677000Y-81652000D02*
X243167000Y-81652000D01*
X241677000Y-93242000D02*
X251417000Y-93242000D01*
X279812000Y-81652000D02*
X280642000Y-81652000D01*
X282262000Y-81652000D02*
X282792000Y-81652000D01*
X285162000Y-81652000D02*
X286342000Y-81652000D01*
X276602000Y-81652000D02*
X276602000Y-86372000D01*
X286342000Y-90182000D02*
X286342000Y-93242000D01*
X286352000Y-81652000D02*
X286352000Y-86372000D01*
X276602000Y-90182000D02*
X276602000Y-93242000D01*
X276602000Y-81652000D02*
X278092000Y-81652000D01*
X276602000Y-93242000D02*
X286342000Y-93242000D01*
X396920500Y-71137000D02*
X406660500Y-71137000D01*
X396920500Y-59547000D02*
X398410500Y-59547000D01*
X396920500Y-68077000D02*
X396920500Y-71137000D01*
X406670500Y-59547000D02*
X406670500Y-64267000D01*
X406660500Y-68077000D02*
X406660500Y-71137000D01*
X396920500Y-59547000D02*
X396920500Y-64267000D01*
X405480500Y-59547000D02*
X406660500Y-59547000D01*
X402580500Y-59547000D02*
X403110500Y-59547000D01*
X400130500Y-59547000D02*
X400960500Y-59547000D01*
X342853500Y-46402500D02*
X343683500Y-46402500D01*
X345303500Y-46402500D02*
X345833500Y-46402500D01*
X348203500Y-46402500D02*
X349383500Y-46402500D01*
X339643500Y-46402500D02*
X339643500Y-51122500D01*
X349383500Y-54932500D02*
X349383500Y-57992500D01*
X349393500Y-46402500D02*
X349393500Y-51122500D01*
X339643500Y-54932500D02*
X339643500Y-57992500D01*
X339643500Y-46402500D02*
X341133500Y-46402500D01*
X339643500Y-57992500D02*
X349383500Y-57992500D01*
X361724500Y-59483500D02*
X362554500Y-59483500D01*
X364174500Y-59483500D02*
X364704500Y-59483500D01*
X367074500Y-59483500D02*
X368254500Y-59483500D01*
X358514500Y-59483500D02*
X358514500Y-64203500D01*
X368254500Y-68013500D02*
X368254500Y-71073500D01*
X368264500Y-59483500D02*
X368264500Y-64203500D01*
X358514500Y-68013500D02*
X358514500Y-71073500D01*
X358514500Y-59483500D02*
X360004500Y-59483500D01*
X358514500Y-71073500D02*
X368254500Y-71073500D01*
X381282500Y-46593000D02*
X382112500Y-46593000D01*
X383732500Y-46593000D02*
X384262500Y-46593000D01*
X386632500Y-46593000D02*
X387812500Y-46593000D01*
X378072500Y-46593000D02*
X378072500Y-51313000D01*
X387812500Y-55123000D02*
X387812500Y-58183000D01*
X387822500Y-46593000D02*
X387822500Y-51313000D01*
X378072500Y-55123000D02*
X378072500Y-58183000D01*
X378072500Y-46593000D02*
X379562500Y-46593000D01*
X378072500Y-58183000D02*
X387812500Y-58183000D01*
X396857000Y-97362500D02*
X406597000Y-97362500D01*
X396857000Y-85772500D02*
X398347000Y-85772500D01*
X396857000Y-94302500D02*
X396857000Y-97362500D01*
X406607000Y-85772500D02*
X406607000Y-90492500D01*
X406597000Y-94302500D02*
X406597000Y-97362500D01*
X396857000Y-85772500D02*
X396857000Y-90492500D01*
X405417000Y-85772500D02*
X406597000Y-85772500D01*
X402517000Y-85772500D02*
X403047000Y-85772500D01*
X400067000Y-85772500D02*
X400897000Y-85772500D01*
X342740500Y-72698500D02*
X343570500Y-72698500D01*
X345190500Y-72698500D02*
X345720500Y-72698500D01*
X348090500Y-72698500D02*
X349270500Y-72698500D01*
X339530500Y-72698500D02*
X339530500Y-77418500D01*
X349270500Y-81228500D02*
X349270500Y-84288500D01*
X349280500Y-72698500D02*
X349280500Y-77418500D01*
X339530500Y-81228500D02*
X339530500Y-84288500D01*
X339530500Y-72698500D02*
X341020500Y-72698500D01*
X339530500Y-84288500D02*
X349270500Y-84288500D01*
X358580500Y-97433000D02*
X368320500Y-97433000D01*
X358580500Y-85843000D02*
X360070500Y-85843000D01*
X358580500Y-94373000D02*
X358580500Y-97433000D01*
X368330500Y-85843000D02*
X368330500Y-90563000D01*
X368320500Y-94373000D02*
X368320500Y-97433000D01*
X358580500Y-85843000D02*
X358580500Y-90563000D01*
X367140500Y-85843000D02*
X368320500Y-85843000D01*
X364240500Y-85843000D02*
X364770500Y-85843000D01*
X361790500Y-85843000D02*
X362620500Y-85843000D01*
X378075000Y-84098000D02*
X387815000Y-84098000D01*
X378075000Y-72508000D02*
X379565000Y-72508000D01*
X378075000Y-81038000D02*
X378075000Y-84098000D01*
X387825000Y-72508000D02*
X387825000Y-77228000D01*
X387815000Y-81038000D02*
X387815000Y-84098000D01*
X378075000Y-72508000D02*
X378075000Y-77228000D01*
X386635000Y-72508000D02*
X387815000Y-72508000D01*
X383735000Y-72508000D02*
X384265000Y-72508000D01*
X381285000Y-72508000D02*
X382115000Y-72508000D01*
X407606500Y-40688000D02*
X407606500Y-29258000D01*
X397446500Y-40688000D02*
X407606500Y-40688000D01*
X397446500Y-29258000D02*
X397446500Y-40688000D01*
X407606500Y-29258000D02*
X397446500Y-29258000D01*
X404322551Y-35608000D02*
G75*
G03*
X404322551Y-35608000I-1796051J0D01*
G01*
X405066499Y-33068001D02*
G75*
G02*
X405066499Y-38147999I-2539999J-2539999D01*
G01*
X399986501Y-38147999D02*
G75*
G02*
X399986501Y-33068001I2539999J2539999D01*
G01*
X346474051Y-35544500D02*
G75*
G03*
X346474051Y-35544500I-1796051J0D01*
G01*
X349758000Y-29194500D02*
X339598000Y-29194500D01*
X339598000Y-29194500D02*
X339598000Y-40624500D01*
X339598000Y-40624500D02*
X349758000Y-40624500D01*
X349758000Y-40624500D02*
X349758000Y-29194500D01*
X342138001Y-38084499D02*
G75*
G02*
X342138001Y-33004501I2539999J2539999D01*
G01*
X347217999Y-33004501D02*
G75*
G02*
X347217999Y-38084499I-2539999J-2539999D01*
G01*
X368935000Y-40624500D02*
X368935000Y-29194500D01*
X358775000Y-40624500D02*
X368935000Y-40624500D01*
X358775000Y-29194500D02*
X358775000Y-40624500D01*
X368935000Y-29194500D02*
X358775000Y-29194500D01*
X365651051Y-35544500D02*
G75*
G03*
X365651051Y-35544500I-1796051J0D01*
G01*
X366394999Y-33004501D02*
G75*
G02*
X366394999Y-38084499I-2539999J-2539999D01*
G01*
X361315001Y-38084499D02*
G75*
G02*
X361315001Y-33004501I2539999J2539999D01*
G01*
X387985000Y-40751500D02*
X387985000Y-29321500D01*
X377825000Y-40751500D02*
X387985000Y-40751500D01*
X377825000Y-29321500D02*
X377825000Y-40751500D01*
X387985000Y-29321500D02*
X377825000Y-29321500D01*
X384701051Y-35671500D02*
G75*
G03*
X384701051Y-35671500I-1796051J0D01*
G01*
X385444999Y-33131501D02*
G75*
G02*
X385444999Y-38211499I-2539999J-2539999D01*
G01*
X380365001Y-38211499D02*
G75*
G02*
X380365001Y-33131501I2539999J2539999D01*
G01*
X427260500Y-40141000D02*
X426430500Y-40141000D01*
X424810500Y-40141000D02*
X424280500Y-40141000D01*
X421910500Y-40141000D02*
X420730500Y-40141000D01*
X430470500Y-40141000D02*
X430470500Y-35421000D01*
X420730500Y-31611000D02*
X420730500Y-28551000D01*
X420730500Y-40141000D02*
X420730500Y-35421000D01*
X430470500Y-31611000D02*
X430470500Y-28551000D01*
X430470500Y-40141000D02*
X428980500Y-40141000D01*
X430470500Y-28551000D02*
X420730500Y-28551000D01*
X128478280Y-42885560D02*
X128478280Y-43835560D01*
X128478280Y-48625560D02*
X128478280Y-47675560D01*
X127558280Y-43835560D02*
X127558280Y-47675560D01*
X129398280Y-43835560D02*
X127558280Y-43835560D01*
X129398280Y-47675560D02*
X129398280Y-43835560D01*
X127558280Y-47675560D02*
X129398280Y-47675560D01*
X88259400Y-47675560D02*
X90099400Y-47675560D01*
X90099400Y-47675560D02*
X90099400Y-43835560D01*
X90099400Y-43835560D02*
X88259400Y-43835560D01*
X88259400Y-43835560D02*
X88259400Y-47675560D01*
X89179400Y-48625560D02*
X89179400Y-47675560D01*
X89179400Y-42885560D02*
X89179400Y-43835560D01*
X96641920Y-42687440D02*
X96641920Y-43637440D01*
X96641920Y-48427440D02*
X96641920Y-47477440D01*
X95721920Y-43637440D02*
X95721920Y-47477440D01*
X97561920Y-43637440D02*
X95721920Y-43637440D01*
X97561920Y-47477440D02*
X97561920Y-43637440D01*
X95721920Y-47477440D02*
X97561920Y-47477440D01*
X133821920Y-47675560D02*
X135661920Y-47675560D01*
X135661920Y-47675560D02*
X135661920Y-43835560D01*
X135661920Y-43835560D02*
X133821920Y-43835560D01*
X133821920Y-43835560D02*
X133821920Y-47675560D01*
X134741920Y-48625560D02*
X134741920Y-47675560D01*
X134741920Y-42885560D02*
X134741920Y-43835560D01*
D11*
X39020904Y-78954380D02*
X39020904Y-79763904D01*
X39068523Y-79859142D01*
X39116142Y-79906761D01*
X39211380Y-79954380D01*
X39401857Y-79954380D01*
X39497095Y-79906761D01*
X39544714Y-79859142D01*
X39592333Y-79763904D01*
X39592333Y-78954380D01*
X40544714Y-78954380D02*
X40068523Y-78954380D01*
X40020904Y-79430571D01*
X40068523Y-79382952D01*
X40163761Y-79335333D01*
X40401857Y-79335333D01*
X40497095Y-79382952D01*
X40544714Y-79430571D01*
X40592333Y-79525809D01*
X40592333Y-79763904D01*
X40544714Y-79859142D01*
X40497095Y-79906761D01*
X40401857Y-79954380D01*
X40163761Y-79954380D01*
X40068523Y-79906761D01*
X40020904Y-79859142D01*
X40925666Y-78954380D02*
X41592333Y-78954380D01*
X41163761Y-79954380D01*
X264183904Y-83233380D02*
X264183904Y-82233380D01*
X264422000Y-82233380D01*
X264564857Y-82281000D01*
X264660095Y-82376238D01*
X264707714Y-82471476D01*
X264755333Y-82661952D01*
X264755333Y-82804809D01*
X264707714Y-82995285D01*
X264660095Y-83090523D01*
X264564857Y-83185761D01*
X264422000Y-83233380D01*
X264183904Y-83233380D01*
X265660095Y-82233380D02*
X265183904Y-82233380D01*
X265136285Y-82709571D01*
X265183904Y-82661952D01*
X265279142Y-82614333D01*
X265517238Y-82614333D01*
X265612476Y-82661952D01*
X265660095Y-82709571D01*
X265707714Y-82804809D01*
X265707714Y-83042904D01*
X265660095Y-83138142D01*
X265612476Y-83185761D01*
X265517238Y-83233380D01*
X265279142Y-83233380D01*
X265183904Y-83185761D01*
X265136285Y-83138142D01*
X297711904Y-90772380D02*
X297711904Y-89772380D01*
X297950000Y-89772380D01*
X298092857Y-89820000D01*
X298188095Y-89915238D01*
X298235714Y-90010476D01*
X298283333Y-90200952D01*
X298283333Y-90343809D01*
X298235714Y-90534285D01*
X298188095Y-90629523D01*
X298092857Y-90724761D01*
X297950000Y-90772380D01*
X297711904Y-90772380D01*
X299140476Y-89772380D02*
X298950000Y-89772380D01*
X298854761Y-89820000D01*
X298807142Y-89867619D01*
X298711904Y-90010476D01*
X298664285Y-90200952D01*
X298664285Y-90581904D01*
X298711904Y-90677142D01*
X298759523Y-90724761D01*
X298854761Y-90772380D01*
X299045238Y-90772380D01*
X299140476Y-90724761D01*
X299188095Y-90677142D01*
X299235714Y-90581904D01*
X299235714Y-90343809D01*
X299188095Y-90248571D01*
X299140476Y-90200952D01*
X299045238Y-90153333D01*
X298854761Y-90153333D01*
X298759523Y-90200952D01*
X298711904Y-90248571D01*
X298664285Y-90343809D01*
X245387904Y-67993380D02*
X245387904Y-66993380D01*
X245626000Y-66993380D01*
X245768857Y-67041000D01*
X245864095Y-67136238D01*
X245911714Y-67231476D01*
X245959333Y-67421952D01*
X245959333Y-67564809D01*
X245911714Y-67755285D01*
X245864095Y-67850523D01*
X245768857Y-67945761D01*
X245626000Y-67993380D01*
X245387904Y-67993380D01*
X246292666Y-66993380D02*
X246959333Y-66993380D01*
X246530761Y-67993380D01*
X280439904Y-67993380D02*
X280439904Y-66993380D01*
X280678000Y-66993380D01*
X280820857Y-67041000D01*
X280916095Y-67136238D01*
X280963714Y-67231476D01*
X281011333Y-67421952D01*
X281011333Y-67564809D01*
X280963714Y-67755285D01*
X280916095Y-67850523D01*
X280820857Y-67945761D01*
X280678000Y-67993380D01*
X280439904Y-67993380D01*
X281582761Y-67421952D02*
X281487523Y-67374333D01*
X281439904Y-67326714D01*
X281392285Y-67231476D01*
X281392285Y-67183857D01*
X281439904Y-67088619D01*
X281487523Y-67041000D01*
X281582761Y-66993380D01*
X281773238Y-66993380D01*
X281868476Y-67041000D01*
X281916095Y-67088619D01*
X281963714Y-67183857D01*
X281963714Y-67231476D01*
X281916095Y-67326714D01*
X281868476Y-67374333D01*
X281773238Y-67421952D01*
X281582761Y-67421952D01*
X281487523Y-67469571D01*
X281439904Y-67517190D01*
X281392285Y-67612428D01*
X281392285Y-67802904D01*
X281439904Y-67898142D01*
X281487523Y-67945761D01*
X281582761Y-67993380D01*
X281773238Y-67993380D01*
X281868476Y-67945761D01*
X281916095Y-67898142D01*
X281963714Y-67802904D01*
X281963714Y-67612428D01*
X281916095Y-67517190D01*
X281868476Y-67469571D01*
X281773238Y-67421952D01*
X50950904Y-69644380D02*
X50950904Y-68644380D01*
X51189000Y-68644380D01*
X51331857Y-68692000D01*
X51427095Y-68787238D01*
X51474714Y-68882476D01*
X51522333Y-69072952D01*
X51522333Y-69215809D01*
X51474714Y-69406285D01*
X51427095Y-69501523D01*
X51331857Y-69596761D01*
X51189000Y-69644380D01*
X50950904Y-69644380D01*
X51998523Y-69644380D02*
X52189000Y-69644380D01*
X52284238Y-69596761D01*
X52331857Y-69549142D01*
X52427095Y-69406285D01*
X52474714Y-69215809D01*
X52474714Y-68834857D01*
X52427095Y-68739619D01*
X52379476Y-68692000D01*
X52284238Y-68644380D01*
X52093761Y-68644380D01*
X51998523Y-68692000D01*
X51950904Y-68739619D01*
X51903285Y-68834857D01*
X51903285Y-69072952D01*
X51950904Y-69168190D01*
X51998523Y-69215809D01*
X52093761Y-69263428D01*
X52284238Y-69263428D01*
X52379476Y-69215809D01*
X52427095Y-69168190D01*
X52474714Y-69072952D01*
X73969714Y-69644380D02*
X73969714Y-68644380D01*
X74207809Y-68644380D01*
X74350666Y-68692000D01*
X74445904Y-68787238D01*
X74493523Y-68882476D01*
X74541142Y-69072952D01*
X74541142Y-69215809D01*
X74493523Y-69406285D01*
X74445904Y-69501523D01*
X74350666Y-69596761D01*
X74207809Y-69644380D01*
X73969714Y-69644380D01*
X75493523Y-69644380D02*
X74922095Y-69644380D01*
X75207809Y-69644380D02*
X75207809Y-68644380D01*
X75112571Y-68787238D01*
X75017333Y-68882476D01*
X74922095Y-68930095D01*
X76112571Y-68644380D02*
X76207809Y-68644380D01*
X76303047Y-68692000D01*
X76350666Y-68739619D01*
X76398285Y-68834857D01*
X76445904Y-69025333D01*
X76445904Y-69263428D01*
X76398285Y-69453904D01*
X76350666Y-69549142D01*
X76303047Y-69596761D01*
X76207809Y-69644380D01*
X76112571Y-69644380D01*
X76017333Y-69596761D01*
X75969714Y-69549142D01*
X75922095Y-69453904D01*
X75874476Y-69263428D01*
X75874476Y-69025333D01*
X75922095Y-68834857D01*
X75969714Y-68739619D01*
X76017333Y-68692000D01*
X76112571Y-68644380D01*
X50474714Y-84884380D02*
X50474714Y-83884380D01*
X50712809Y-83884380D01*
X50855666Y-83932000D01*
X50950904Y-84027238D01*
X50998523Y-84122476D01*
X51046142Y-84312952D01*
X51046142Y-84455809D01*
X50998523Y-84646285D01*
X50950904Y-84741523D01*
X50855666Y-84836761D01*
X50712809Y-84884380D01*
X50474714Y-84884380D01*
X51998523Y-84884380D02*
X51427095Y-84884380D01*
X51712809Y-84884380D02*
X51712809Y-83884380D01*
X51617571Y-84027238D01*
X51522333Y-84122476D01*
X51427095Y-84170095D01*
X52950904Y-84884380D02*
X52379476Y-84884380D01*
X52665190Y-84884380D02*
X52665190Y-83884380D01*
X52569952Y-84027238D01*
X52474714Y-84122476D01*
X52379476Y-84170095D01*
X73969714Y-84884380D02*
X73969714Y-83884380D01*
X74207809Y-83884380D01*
X74350666Y-83932000D01*
X74445904Y-84027238D01*
X74493523Y-84122476D01*
X74541142Y-84312952D01*
X74541142Y-84455809D01*
X74493523Y-84646285D01*
X74445904Y-84741523D01*
X74350666Y-84836761D01*
X74207809Y-84884380D01*
X73969714Y-84884380D01*
X75493523Y-84884380D02*
X74922095Y-84884380D01*
X75207809Y-84884380D02*
X75207809Y-83884380D01*
X75112571Y-84027238D01*
X75017333Y-84122476D01*
X74922095Y-84170095D01*
X75874476Y-83979619D02*
X75922095Y-83932000D01*
X76017333Y-83884380D01*
X76255428Y-83884380D01*
X76350666Y-83932000D01*
X76398285Y-83979619D01*
X76445904Y-84074857D01*
X76445904Y-84170095D01*
X76398285Y-84312952D01*
X75826857Y-84884380D01*
X76445904Y-84884380D01*
X269652904Y-48220380D02*
X269652904Y-49029904D01*
X269700523Y-49125142D01*
X269748142Y-49172761D01*
X269843380Y-49220380D01*
X270033857Y-49220380D01*
X270129095Y-49172761D01*
X270176714Y-49125142D01*
X270224333Y-49029904D01*
X270224333Y-48220380D01*
X271224333Y-49220380D02*
X270652904Y-49220380D01*
X270938619Y-49220380D02*
X270938619Y-48220380D01*
X270843380Y-48363238D01*
X270748142Y-48458476D01*
X270652904Y-48506095D01*
X272176714Y-49220380D02*
X271605285Y-49220380D01*
X271891000Y-49220380D02*
X271891000Y-48220380D01*
X271795761Y-48363238D01*
X271700523Y-48458476D01*
X271605285Y-48506095D01*
X304704904Y-48601380D02*
X304704904Y-49410904D01*
X304752523Y-49506142D01*
X304800142Y-49553761D01*
X304895380Y-49601380D01*
X305085857Y-49601380D01*
X305181095Y-49553761D01*
X305228714Y-49506142D01*
X305276333Y-49410904D01*
X305276333Y-48601380D01*
X306276333Y-49601380D02*
X305704904Y-49601380D01*
X305990619Y-49601380D02*
X305990619Y-48601380D01*
X305895380Y-48744238D01*
X305800142Y-48839476D01*
X305704904Y-48887095D01*
X306657285Y-48696619D02*
X306704904Y-48649000D01*
X306800142Y-48601380D01*
X307038238Y-48601380D01*
X307133476Y-48649000D01*
X307181095Y-48696619D01*
X307228714Y-48791857D01*
X307228714Y-48887095D01*
X307181095Y-49029952D01*
X306609666Y-49601380D01*
X307228714Y-49601380D01*
X252380904Y-48728380D02*
X252380904Y-49537904D01*
X252428523Y-49633142D01*
X252476142Y-49680761D01*
X252571380Y-49728380D01*
X252761857Y-49728380D01*
X252857095Y-49680761D01*
X252904714Y-49633142D01*
X252952333Y-49537904D01*
X252952333Y-48728380D01*
X253952333Y-49728380D02*
X253380904Y-49728380D01*
X253666619Y-49728380D02*
X253666619Y-48728380D01*
X253571380Y-48871238D01*
X253476142Y-48966476D01*
X253380904Y-49014095D01*
X254285666Y-48728380D02*
X254904714Y-48728380D01*
X254571380Y-49109333D01*
X254714238Y-49109333D01*
X254809476Y-49156952D01*
X254857095Y-49204571D01*
X254904714Y-49299809D01*
X254904714Y-49537904D01*
X254857095Y-49633142D01*
X254809476Y-49680761D01*
X254714238Y-49728380D01*
X254428523Y-49728380D01*
X254333285Y-49680761D01*
X254285666Y-49633142D01*
X288321904Y-48609380D02*
X288321904Y-49418904D01*
X288369523Y-49514142D01*
X288417142Y-49561761D01*
X288512380Y-49609380D01*
X288702857Y-49609380D01*
X288798095Y-49561761D01*
X288845714Y-49514142D01*
X288893333Y-49418904D01*
X288893333Y-48609380D01*
X289893333Y-49609380D02*
X289321904Y-49609380D01*
X289607619Y-49609380D02*
X289607619Y-48609380D01*
X289512380Y-48752238D01*
X289417142Y-48847476D01*
X289321904Y-48895095D01*
X290750476Y-48942714D02*
X290750476Y-49609380D01*
X290512380Y-48561761D02*
X290274285Y-49276047D01*
X290893333Y-49276047D01*
X269652904Y-37171380D02*
X269652904Y-37980904D01*
X269700523Y-38076142D01*
X269748142Y-38123761D01*
X269843380Y-38171380D01*
X270033857Y-38171380D01*
X270129095Y-38123761D01*
X270176714Y-38076142D01*
X270224333Y-37980904D01*
X270224333Y-37171380D01*
X271224333Y-38171380D02*
X270652904Y-38171380D01*
X270938619Y-38171380D02*
X270938619Y-37171380D01*
X270843380Y-37314238D01*
X270748142Y-37409476D01*
X270652904Y-37457095D01*
X272129095Y-37171380D02*
X271652904Y-37171380D01*
X271605285Y-37647571D01*
X271652904Y-37599952D01*
X271748142Y-37552333D01*
X271986238Y-37552333D01*
X272081476Y-37599952D01*
X272129095Y-37647571D01*
X272176714Y-37742809D01*
X272176714Y-37980904D01*
X272129095Y-38076142D01*
X272081476Y-38123761D01*
X271986238Y-38171380D01*
X271748142Y-38171380D01*
X271652904Y-38123761D01*
X271605285Y-38076142D01*
X304704904Y-28408380D02*
X304704904Y-29217904D01*
X304752523Y-29313142D01*
X304800142Y-29360761D01*
X304895380Y-29408380D01*
X305085857Y-29408380D01*
X305181095Y-29360761D01*
X305228714Y-29313142D01*
X305276333Y-29217904D01*
X305276333Y-28408380D01*
X306276333Y-29408380D02*
X305704904Y-29408380D01*
X305990619Y-29408380D02*
X305990619Y-28408380D01*
X305895380Y-28551238D01*
X305800142Y-28646476D01*
X305704904Y-28694095D01*
X307133476Y-28408380D02*
X306943000Y-28408380D01*
X306847761Y-28456000D01*
X306800142Y-28503619D01*
X306704904Y-28646476D01*
X306657285Y-28836952D01*
X306657285Y-29217904D01*
X306704904Y-29313142D01*
X306752523Y-29360761D01*
X306847761Y-29408380D01*
X307038238Y-29408380D01*
X307133476Y-29360761D01*
X307181095Y-29313142D01*
X307228714Y-29217904D01*
X307228714Y-28979809D01*
X307181095Y-28884571D01*
X307133476Y-28836952D01*
X307038238Y-28789333D01*
X306847761Y-28789333D01*
X306752523Y-28836952D01*
X306704904Y-28884571D01*
X306657285Y-28979809D01*
X252380904Y-37171380D02*
X252380904Y-37980904D01*
X252428523Y-38076142D01*
X252476142Y-38123761D01*
X252571380Y-38171380D01*
X252761857Y-38171380D01*
X252857095Y-38123761D01*
X252904714Y-38076142D01*
X252952333Y-37980904D01*
X252952333Y-37171380D01*
X253952333Y-38171380D02*
X253380904Y-38171380D01*
X253666619Y-38171380D02*
X253666619Y-37171380D01*
X253571380Y-37314238D01*
X253476142Y-37409476D01*
X253380904Y-37457095D01*
X254285666Y-37171380D02*
X254952333Y-37171380D01*
X254523761Y-38171380D01*
X288321904Y-37433380D02*
X288321904Y-38242904D01*
X288369523Y-38338142D01*
X288417142Y-38385761D01*
X288512380Y-38433380D01*
X288702857Y-38433380D01*
X288798095Y-38385761D01*
X288845714Y-38338142D01*
X288893333Y-38242904D01*
X288893333Y-37433380D01*
X289893333Y-38433380D02*
X289321904Y-38433380D01*
X289607619Y-38433380D02*
X289607619Y-37433380D01*
X289512380Y-37576238D01*
X289417142Y-37671476D01*
X289321904Y-37719095D01*
X290464761Y-37861952D02*
X290369523Y-37814333D01*
X290321904Y-37766714D01*
X290274285Y-37671476D01*
X290274285Y-37623857D01*
X290321904Y-37528619D01*
X290369523Y-37481000D01*
X290464761Y-37433380D01*
X290655238Y-37433380D01*
X290750476Y-37481000D01*
X290798095Y-37528619D01*
X290845714Y-37623857D01*
X290845714Y-37671476D01*
X290798095Y-37766714D01*
X290750476Y-37814333D01*
X290655238Y-37861952D01*
X290464761Y-37861952D01*
X290369523Y-37909571D01*
X290321904Y-37957190D01*
X290274285Y-38052428D01*
X290274285Y-38242904D01*
X290321904Y-38338142D01*
X290369523Y-38385761D01*
X290464761Y-38433380D01*
X290655238Y-38433380D01*
X290750476Y-38385761D01*
X290798095Y-38338142D01*
X290845714Y-38242904D01*
X290845714Y-38052428D01*
X290798095Y-37957190D01*
X290750476Y-37909571D01*
X290655238Y-37861952D01*
X269652904Y-60158380D02*
X269652904Y-60967904D01*
X269700523Y-61063142D01*
X269748142Y-61110761D01*
X269843380Y-61158380D01*
X270033857Y-61158380D01*
X270129095Y-61110761D01*
X270176714Y-61063142D01*
X270224333Y-60967904D01*
X270224333Y-60158380D01*
X271224333Y-61158380D02*
X270652904Y-61158380D01*
X270938619Y-61158380D02*
X270938619Y-60158380D01*
X270843380Y-60301238D01*
X270748142Y-60396476D01*
X270652904Y-60444095D01*
X271700523Y-61158380D02*
X271891000Y-61158380D01*
X271986238Y-61110761D01*
X272033857Y-61063142D01*
X272129095Y-60920285D01*
X272176714Y-60729809D01*
X272176714Y-60348857D01*
X272129095Y-60253619D01*
X272081476Y-60206000D01*
X271986238Y-60158380D01*
X271795761Y-60158380D01*
X271700523Y-60206000D01*
X271652904Y-60253619D01*
X271605285Y-60348857D01*
X271605285Y-60586952D01*
X271652904Y-60682190D01*
X271700523Y-60729809D01*
X271795761Y-60777428D01*
X271986238Y-60777428D01*
X272081476Y-60729809D01*
X272129095Y-60682190D01*
X272176714Y-60586952D01*
X304704904Y-60158380D02*
X304704904Y-60967904D01*
X304752523Y-61063142D01*
X304800142Y-61110761D01*
X304895380Y-61158380D01*
X305085857Y-61158380D01*
X305181095Y-61110761D01*
X305228714Y-61063142D01*
X305276333Y-60967904D01*
X305276333Y-60158380D01*
X305704904Y-60253619D02*
X305752523Y-60206000D01*
X305847761Y-60158380D01*
X306085857Y-60158380D01*
X306181095Y-60206000D01*
X306228714Y-60253619D01*
X306276333Y-60348857D01*
X306276333Y-60444095D01*
X306228714Y-60586952D01*
X305657285Y-61158380D01*
X306276333Y-61158380D01*
X306895380Y-60158380D02*
X306990619Y-60158380D01*
X307085857Y-60206000D01*
X307133476Y-60253619D01*
X307181095Y-60348857D01*
X307228714Y-60539333D01*
X307228714Y-60777428D01*
X307181095Y-60967904D01*
X307133476Y-61063142D01*
X307085857Y-61110761D01*
X306990619Y-61158380D01*
X306895380Y-61158380D01*
X306800142Y-61110761D01*
X306752523Y-61063142D01*
X306704904Y-60967904D01*
X306657285Y-60777428D01*
X306657285Y-60539333D01*
X306704904Y-60348857D01*
X306752523Y-60253619D01*
X306800142Y-60206000D01*
X306895380Y-60158380D01*
X252126904Y-60285380D02*
X252126904Y-61094904D01*
X252174523Y-61190142D01*
X252222142Y-61237761D01*
X252317380Y-61285380D01*
X252507857Y-61285380D01*
X252603095Y-61237761D01*
X252650714Y-61190142D01*
X252698333Y-61094904D01*
X252698333Y-60285380D01*
X253126904Y-60380619D02*
X253174523Y-60333000D01*
X253269761Y-60285380D01*
X253507857Y-60285380D01*
X253603095Y-60333000D01*
X253650714Y-60380619D01*
X253698333Y-60475857D01*
X253698333Y-60571095D01*
X253650714Y-60713952D01*
X253079285Y-61285380D01*
X253698333Y-61285380D01*
X254650714Y-61285380D02*
X254079285Y-61285380D01*
X254365000Y-61285380D02*
X254365000Y-60285380D01*
X254269761Y-60428238D01*
X254174523Y-60523476D01*
X254079285Y-60571095D01*
X288321904Y-60293380D02*
X288321904Y-61102904D01*
X288369523Y-61198142D01*
X288417142Y-61245761D01*
X288512380Y-61293380D01*
X288702857Y-61293380D01*
X288798095Y-61245761D01*
X288845714Y-61198142D01*
X288893333Y-61102904D01*
X288893333Y-60293380D01*
X289321904Y-60388619D02*
X289369523Y-60341000D01*
X289464761Y-60293380D01*
X289702857Y-60293380D01*
X289798095Y-60341000D01*
X289845714Y-60388619D01*
X289893333Y-60483857D01*
X289893333Y-60579095D01*
X289845714Y-60721952D01*
X289274285Y-61293380D01*
X289893333Y-61293380D01*
X290274285Y-60388619D02*
X290321904Y-60341000D01*
X290417142Y-60293380D01*
X290655238Y-60293380D01*
X290750476Y-60341000D01*
X290798095Y-60388619D01*
X290845714Y-60483857D01*
X290845714Y-60579095D01*
X290798095Y-60721952D01*
X290226666Y-61293380D01*
X290845714Y-61293380D01*
X117887904Y-39457380D02*
X117887904Y-40266904D01*
X117935523Y-40362142D01*
X117983142Y-40409761D01*
X118078380Y-40457380D01*
X118268857Y-40457380D01*
X118364095Y-40409761D01*
X118411714Y-40362142D01*
X118459333Y-40266904D01*
X118459333Y-39457380D01*
X118887904Y-39552619D02*
X118935523Y-39505000D01*
X119030761Y-39457380D01*
X119268857Y-39457380D01*
X119364095Y-39505000D01*
X119411714Y-39552619D01*
X119459333Y-39647857D01*
X119459333Y-39743095D01*
X119411714Y-39885952D01*
X118840285Y-40457380D01*
X119459333Y-40457380D01*
X119792666Y-39457380D02*
X120411714Y-39457380D01*
X120078380Y-39838333D01*
X120221238Y-39838333D01*
X120316476Y-39885952D01*
X120364095Y-39933571D01*
X120411714Y-40028809D01*
X120411714Y-40266904D01*
X120364095Y-40362142D01*
X120316476Y-40409761D01*
X120221238Y-40457380D01*
X119935523Y-40457380D01*
X119840285Y-40409761D01*
X119792666Y-40362142D01*
X87407904Y-39711380D02*
X87407904Y-40520904D01*
X87455523Y-40616142D01*
X87503142Y-40663761D01*
X87598380Y-40711380D01*
X87788857Y-40711380D01*
X87884095Y-40663761D01*
X87931714Y-40616142D01*
X87979333Y-40520904D01*
X87979333Y-39711380D01*
X88407904Y-39806619D02*
X88455523Y-39759000D01*
X88550761Y-39711380D01*
X88788857Y-39711380D01*
X88884095Y-39759000D01*
X88931714Y-39806619D01*
X88979333Y-39901857D01*
X88979333Y-39997095D01*
X88931714Y-40139952D01*
X88360285Y-40711380D01*
X88979333Y-40711380D01*
X89836476Y-40044714D02*
X89836476Y-40711380D01*
X89598380Y-39663761D02*
X89360285Y-40378047D01*
X89979333Y-40378047D01*
X102520904Y-39330380D02*
X102520904Y-40139904D01*
X102568523Y-40235142D01*
X102616142Y-40282761D01*
X102711380Y-40330380D01*
X102901857Y-40330380D01*
X102997095Y-40282761D01*
X103044714Y-40235142D01*
X103092333Y-40139904D01*
X103092333Y-39330380D01*
X103520904Y-39425619D02*
X103568523Y-39378000D01*
X103663761Y-39330380D01*
X103901857Y-39330380D01*
X103997095Y-39378000D01*
X104044714Y-39425619D01*
X104092333Y-39520857D01*
X104092333Y-39616095D01*
X104044714Y-39758952D01*
X103473285Y-40330380D01*
X104092333Y-40330380D01*
X104997095Y-39330380D02*
X104520904Y-39330380D01*
X104473285Y-39806571D01*
X104520904Y-39758952D01*
X104616142Y-39711333D01*
X104854238Y-39711333D01*
X104949476Y-39758952D01*
X104997095Y-39806571D01*
X105044714Y-39901809D01*
X105044714Y-40139904D01*
X104997095Y-40235142D01*
X104949476Y-40282761D01*
X104854238Y-40330380D01*
X104616142Y-40330380D01*
X104520904Y-40282761D01*
X104473285Y-40235142D01*
X133127904Y-39457380D02*
X133127904Y-40266904D01*
X133175523Y-40362142D01*
X133223142Y-40409761D01*
X133318380Y-40457380D01*
X133508857Y-40457380D01*
X133604095Y-40409761D01*
X133651714Y-40362142D01*
X133699333Y-40266904D01*
X133699333Y-39457380D01*
X134127904Y-39552619D02*
X134175523Y-39505000D01*
X134270761Y-39457380D01*
X134508857Y-39457380D01*
X134604095Y-39505000D01*
X134651714Y-39552619D01*
X134699333Y-39647857D01*
X134699333Y-39743095D01*
X134651714Y-39885952D01*
X134080285Y-40457380D01*
X134699333Y-40457380D01*
X135556476Y-39457380D02*
X135366000Y-39457380D01*
X135270761Y-39505000D01*
X135223142Y-39552619D01*
X135127904Y-39695476D01*
X135080285Y-39885952D01*
X135080285Y-40266904D01*
X135127904Y-40362142D01*
X135175523Y-40409761D01*
X135270761Y-40457380D01*
X135461238Y-40457380D01*
X135556476Y-40409761D01*
X135604095Y-40362142D01*
X135651714Y-40266904D01*
X135651714Y-40028809D01*
X135604095Y-39933571D01*
X135556476Y-39885952D01*
X135461238Y-39838333D01*
X135270761Y-39838333D01*
X135175523Y-39885952D01*
X135127904Y-39933571D01*
X135080285Y-40028809D01*
X124872904Y-61428380D02*
X124872904Y-62237904D01*
X124920523Y-62333142D01*
X124968142Y-62380761D01*
X125063380Y-62428380D01*
X125253857Y-62428380D01*
X125349095Y-62380761D01*
X125396714Y-62333142D01*
X125444333Y-62237904D01*
X125444333Y-61428380D01*
X125872904Y-61523619D02*
X125920523Y-61476000D01*
X126015761Y-61428380D01*
X126253857Y-61428380D01*
X126349095Y-61476000D01*
X126396714Y-61523619D01*
X126444333Y-61618857D01*
X126444333Y-61714095D01*
X126396714Y-61856952D01*
X125825285Y-62428380D01*
X126444333Y-62428380D01*
X126777666Y-61428380D02*
X127444333Y-61428380D01*
X127015761Y-62428380D01*
X124745904Y-72858380D02*
X124745904Y-73667904D01*
X124793523Y-73763142D01*
X124841142Y-73810761D01*
X124936380Y-73858380D01*
X125126857Y-73858380D01*
X125222095Y-73810761D01*
X125269714Y-73763142D01*
X125317333Y-73667904D01*
X125317333Y-72858380D01*
X125745904Y-72953619D02*
X125793523Y-72906000D01*
X125888761Y-72858380D01*
X126126857Y-72858380D01*
X126222095Y-72906000D01*
X126269714Y-72953619D01*
X126317333Y-73048857D01*
X126317333Y-73144095D01*
X126269714Y-73286952D01*
X125698285Y-73858380D01*
X126317333Y-73858380D01*
X126888761Y-73286952D02*
X126793523Y-73239333D01*
X126745904Y-73191714D01*
X126698285Y-73096476D01*
X126698285Y-73048857D01*
X126745904Y-72953619D01*
X126793523Y-72906000D01*
X126888761Y-72858380D01*
X127079238Y-72858380D01*
X127174476Y-72906000D01*
X127222095Y-72953619D01*
X127269714Y-73048857D01*
X127269714Y-73096476D01*
X127222095Y-73191714D01*
X127174476Y-73239333D01*
X127079238Y-73286952D01*
X126888761Y-73286952D01*
X126793523Y-73334571D01*
X126745904Y-73382190D01*
X126698285Y-73477428D01*
X126698285Y-73667904D01*
X126745904Y-73763142D01*
X126793523Y-73810761D01*
X126888761Y-73858380D01*
X127079238Y-73858380D01*
X127174476Y-73810761D01*
X127222095Y-73763142D01*
X127269714Y-73667904D01*
X127269714Y-73477428D01*
X127222095Y-73382190D01*
X127174476Y-73334571D01*
X127079238Y-73286952D01*
X124872904Y-83907380D02*
X124872904Y-84716904D01*
X124920523Y-84812142D01*
X124968142Y-84859761D01*
X125063380Y-84907380D01*
X125253857Y-84907380D01*
X125349095Y-84859761D01*
X125396714Y-84812142D01*
X125444333Y-84716904D01*
X125444333Y-83907380D01*
X125872904Y-84002619D02*
X125920523Y-83955000D01*
X126015761Y-83907380D01*
X126253857Y-83907380D01*
X126349095Y-83955000D01*
X126396714Y-84002619D01*
X126444333Y-84097857D01*
X126444333Y-84193095D01*
X126396714Y-84335952D01*
X125825285Y-84907380D01*
X126444333Y-84907380D01*
X126920523Y-84907380D02*
X127111000Y-84907380D01*
X127206238Y-84859761D01*
X127253857Y-84812142D01*
X127349095Y-84669285D01*
X127396714Y-84478809D01*
X127396714Y-84097857D01*
X127349095Y-84002619D01*
X127301476Y-83955000D01*
X127206238Y-83907380D01*
X127015761Y-83907380D01*
X126920523Y-83955000D01*
X126872904Y-84002619D01*
X126825285Y-84097857D01*
X126825285Y-84335952D01*
X126872904Y-84431190D01*
X126920523Y-84478809D01*
X127015761Y-84526428D01*
X127206238Y-84526428D01*
X127301476Y-84478809D01*
X127349095Y-84431190D01*
X127396714Y-84335952D01*
X94900904Y-95083380D02*
X94900904Y-95892904D01*
X94948523Y-95988142D01*
X94996142Y-96035761D01*
X95091380Y-96083380D01*
X95281857Y-96083380D01*
X95377095Y-96035761D01*
X95424714Y-95988142D01*
X95472333Y-95892904D01*
X95472333Y-95083380D01*
X95853285Y-95083380D02*
X96472333Y-95083380D01*
X96139000Y-95464333D01*
X96281857Y-95464333D01*
X96377095Y-95511952D01*
X96424714Y-95559571D01*
X96472333Y-95654809D01*
X96472333Y-95892904D01*
X96424714Y-95988142D01*
X96377095Y-96035761D01*
X96281857Y-96083380D01*
X95996142Y-96083380D01*
X95900904Y-96035761D01*
X95853285Y-95988142D01*
X97091380Y-95083380D02*
X97186619Y-95083380D01*
X97281857Y-95131000D01*
X97329476Y-95178619D01*
X97377095Y-95273857D01*
X97424714Y-95464333D01*
X97424714Y-95702428D01*
X97377095Y-95892904D01*
X97329476Y-95988142D01*
X97281857Y-96035761D01*
X97186619Y-96083380D01*
X97091380Y-96083380D01*
X96996142Y-96035761D01*
X96948523Y-95988142D01*
X96900904Y-95892904D01*
X96853285Y-95702428D01*
X96853285Y-95464333D01*
X96900904Y-95273857D01*
X96948523Y-95178619D01*
X96996142Y-95131000D01*
X97091380Y-95083380D01*
X95027904Y-84161380D02*
X95027904Y-84970904D01*
X95075523Y-85066142D01*
X95123142Y-85113761D01*
X95218380Y-85161380D01*
X95408857Y-85161380D01*
X95504095Y-85113761D01*
X95551714Y-85066142D01*
X95599333Y-84970904D01*
X95599333Y-84161380D01*
X95980285Y-84161380D02*
X96599333Y-84161380D01*
X96266000Y-84542333D01*
X96408857Y-84542333D01*
X96504095Y-84589952D01*
X96551714Y-84637571D01*
X96599333Y-84732809D01*
X96599333Y-84970904D01*
X96551714Y-85066142D01*
X96504095Y-85113761D01*
X96408857Y-85161380D01*
X96123142Y-85161380D01*
X96027904Y-85113761D01*
X95980285Y-85066142D01*
X97551714Y-85161380D02*
X96980285Y-85161380D01*
X97266000Y-85161380D02*
X97266000Y-84161380D01*
X97170761Y-84304238D01*
X97075523Y-84399476D01*
X96980285Y-84447095D01*
X94900904Y-72604380D02*
X94900904Y-73413904D01*
X94948523Y-73509142D01*
X94996142Y-73556761D01*
X95091380Y-73604380D01*
X95281857Y-73604380D01*
X95377095Y-73556761D01*
X95424714Y-73509142D01*
X95472333Y-73413904D01*
X95472333Y-72604380D01*
X95853285Y-72604380D02*
X96472333Y-72604380D01*
X96139000Y-72985333D01*
X96281857Y-72985333D01*
X96377095Y-73032952D01*
X96424714Y-73080571D01*
X96472333Y-73175809D01*
X96472333Y-73413904D01*
X96424714Y-73509142D01*
X96377095Y-73556761D01*
X96281857Y-73604380D01*
X95996142Y-73604380D01*
X95900904Y-73556761D01*
X95853285Y-73509142D01*
X96853285Y-72699619D02*
X96900904Y-72652000D01*
X96996142Y-72604380D01*
X97234238Y-72604380D01*
X97329476Y-72652000D01*
X97377095Y-72699619D01*
X97424714Y-72794857D01*
X97424714Y-72890095D01*
X97377095Y-73032952D01*
X96805666Y-73604380D01*
X97424714Y-73604380D01*
X109886904Y-94702380D02*
X109886904Y-95511904D01*
X109934523Y-95607142D01*
X109982142Y-95654761D01*
X110077380Y-95702380D01*
X110267857Y-95702380D01*
X110363095Y-95654761D01*
X110410714Y-95607142D01*
X110458333Y-95511904D01*
X110458333Y-94702380D01*
X110839285Y-94702380D02*
X111458333Y-94702380D01*
X111125000Y-95083333D01*
X111267857Y-95083333D01*
X111363095Y-95130952D01*
X111410714Y-95178571D01*
X111458333Y-95273809D01*
X111458333Y-95511904D01*
X111410714Y-95607142D01*
X111363095Y-95654761D01*
X111267857Y-95702380D01*
X110982142Y-95702380D01*
X110886904Y-95654761D01*
X110839285Y-95607142D01*
X111791666Y-94702380D02*
X112410714Y-94702380D01*
X112077380Y-95083333D01*
X112220238Y-95083333D01*
X112315476Y-95130952D01*
X112363095Y-95178571D01*
X112410714Y-95273809D01*
X112410714Y-95511904D01*
X112363095Y-95607142D01*
X112315476Y-95654761D01*
X112220238Y-95702380D01*
X111934523Y-95702380D01*
X111839285Y-95654761D01*
X111791666Y-95607142D01*
X110013904Y-83653380D02*
X110013904Y-84462904D01*
X110061523Y-84558142D01*
X110109142Y-84605761D01*
X110204380Y-84653380D01*
X110394857Y-84653380D01*
X110490095Y-84605761D01*
X110537714Y-84558142D01*
X110585333Y-84462904D01*
X110585333Y-83653380D01*
X110966285Y-83653380D02*
X111585333Y-83653380D01*
X111252000Y-84034333D01*
X111394857Y-84034333D01*
X111490095Y-84081952D01*
X111537714Y-84129571D01*
X111585333Y-84224809D01*
X111585333Y-84462904D01*
X111537714Y-84558142D01*
X111490095Y-84605761D01*
X111394857Y-84653380D01*
X111109142Y-84653380D01*
X111013904Y-84605761D01*
X110966285Y-84558142D01*
X112442476Y-83986714D02*
X112442476Y-84653380D01*
X112204380Y-83605761D02*
X111966285Y-84320047D01*
X112585333Y-84320047D01*
X110140904Y-72604380D02*
X110140904Y-73413904D01*
X110188523Y-73509142D01*
X110236142Y-73556761D01*
X110331380Y-73604380D01*
X110521857Y-73604380D01*
X110617095Y-73556761D01*
X110664714Y-73509142D01*
X110712333Y-73413904D01*
X110712333Y-72604380D01*
X111093285Y-72604380D02*
X111712333Y-72604380D01*
X111379000Y-72985333D01*
X111521857Y-72985333D01*
X111617095Y-73032952D01*
X111664714Y-73080571D01*
X111712333Y-73175809D01*
X111712333Y-73413904D01*
X111664714Y-73509142D01*
X111617095Y-73556761D01*
X111521857Y-73604380D01*
X111236142Y-73604380D01*
X111140904Y-73556761D01*
X111093285Y-73509142D01*
X112617095Y-72604380D02*
X112140904Y-72604380D01*
X112093285Y-73080571D01*
X112140904Y-73032952D01*
X112236142Y-72985333D01*
X112474238Y-72985333D01*
X112569476Y-73032952D01*
X112617095Y-73080571D01*
X112664714Y-73175809D01*
X112664714Y-73413904D01*
X112617095Y-73509142D01*
X112569476Y-73556761D01*
X112474238Y-73604380D01*
X112236142Y-73604380D01*
X112140904Y-73556761D01*
X112093285Y-73509142D01*
X124745904Y-95210380D02*
X124745904Y-96019904D01*
X124793523Y-96115142D01*
X124841142Y-96162761D01*
X124936380Y-96210380D01*
X125126857Y-96210380D01*
X125222095Y-96162761D01*
X125269714Y-96115142D01*
X125317333Y-96019904D01*
X125317333Y-95210380D01*
X125698285Y-95210380D02*
X126317333Y-95210380D01*
X125984000Y-95591333D01*
X126126857Y-95591333D01*
X126222095Y-95638952D01*
X126269714Y-95686571D01*
X126317333Y-95781809D01*
X126317333Y-96019904D01*
X126269714Y-96115142D01*
X126222095Y-96162761D01*
X126126857Y-96210380D01*
X125841142Y-96210380D01*
X125745904Y-96162761D01*
X125698285Y-96115142D01*
X127174476Y-95210380D02*
X126984000Y-95210380D01*
X126888761Y-95258000D01*
X126841142Y-95305619D01*
X126745904Y-95448476D01*
X126698285Y-95638952D01*
X126698285Y-96019904D01*
X126745904Y-96115142D01*
X126793523Y-96162761D01*
X126888761Y-96210380D01*
X127079238Y-96210380D01*
X127174476Y-96162761D01*
X127222095Y-96115142D01*
X127269714Y-96019904D01*
X127269714Y-95781809D01*
X127222095Y-95686571D01*
X127174476Y-95638952D01*
X127079238Y-95591333D01*
X126888761Y-95591333D01*
X126793523Y-95638952D01*
X126745904Y-95686571D01*
X126698285Y-95781809D01*
X140620904Y-61682380D02*
X140620904Y-62491904D01*
X140668523Y-62587142D01*
X140716142Y-62634761D01*
X140811380Y-62682380D01*
X141001857Y-62682380D01*
X141097095Y-62634761D01*
X141144714Y-62587142D01*
X141192333Y-62491904D01*
X141192333Y-61682380D01*
X141573285Y-61682380D02*
X142192333Y-61682380D01*
X141859000Y-62063333D01*
X142001857Y-62063333D01*
X142097095Y-62110952D01*
X142144714Y-62158571D01*
X142192333Y-62253809D01*
X142192333Y-62491904D01*
X142144714Y-62587142D01*
X142097095Y-62634761D01*
X142001857Y-62682380D01*
X141716142Y-62682380D01*
X141620904Y-62634761D01*
X141573285Y-62587142D01*
X142525666Y-61682380D02*
X143192333Y-61682380D01*
X142763761Y-62682380D01*
X140620904Y-72858380D02*
X140620904Y-73667904D01*
X140668523Y-73763142D01*
X140716142Y-73810761D01*
X140811380Y-73858380D01*
X141001857Y-73858380D01*
X141097095Y-73810761D01*
X141144714Y-73763142D01*
X141192333Y-73667904D01*
X141192333Y-72858380D01*
X141573285Y-72858380D02*
X142192333Y-72858380D01*
X141859000Y-73239333D01*
X142001857Y-73239333D01*
X142097095Y-73286952D01*
X142144714Y-73334571D01*
X142192333Y-73429809D01*
X142192333Y-73667904D01*
X142144714Y-73763142D01*
X142097095Y-73810761D01*
X142001857Y-73858380D01*
X141716142Y-73858380D01*
X141620904Y-73810761D01*
X141573285Y-73763142D01*
X142763761Y-73286952D02*
X142668523Y-73239333D01*
X142620904Y-73191714D01*
X142573285Y-73096476D01*
X142573285Y-73048857D01*
X142620904Y-72953619D01*
X142668523Y-72906000D01*
X142763761Y-72858380D01*
X142954238Y-72858380D01*
X143049476Y-72906000D01*
X143097095Y-72953619D01*
X143144714Y-73048857D01*
X143144714Y-73096476D01*
X143097095Y-73191714D01*
X143049476Y-73239333D01*
X142954238Y-73286952D01*
X142763761Y-73286952D01*
X142668523Y-73334571D01*
X142620904Y-73382190D01*
X142573285Y-73477428D01*
X142573285Y-73667904D01*
X142620904Y-73763142D01*
X142668523Y-73810761D01*
X142763761Y-73858380D01*
X142954238Y-73858380D01*
X143049476Y-73810761D01*
X143097095Y-73763142D01*
X143144714Y-73667904D01*
X143144714Y-73477428D01*
X143097095Y-73382190D01*
X143049476Y-73334571D01*
X142954238Y-73286952D01*
X140366904Y-84034380D02*
X140366904Y-84843904D01*
X140414523Y-84939142D01*
X140462142Y-84986761D01*
X140557380Y-85034380D01*
X140747857Y-85034380D01*
X140843095Y-84986761D01*
X140890714Y-84939142D01*
X140938333Y-84843904D01*
X140938333Y-84034380D01*
X141319285Y-84034380D02*
X141938333Y-84034380D01*
X141605000Y-84415333D01*
X141747857Y-84415333D01*
X141843095Y-84462952D01*
X141890714Y-84510571D01*
X141938333Y-84605809D01*
X141938333Y-84843904D01*
X141890714Y-84939142D01*
X141843095Y-84986761D01*
X141747857Y-85034380D01*
X141462142Y-85034380D01*
X141366904Y-84986761D01*
X141319285Y-84939142D01*
X142414523Y-85034380D02*
X142605000Y-85034380D01*
X142700238Y-84986761D01*
X142747857Y-84939142D01*
X142843095Y-84796285D01*
X142890714Y-84605809D01*
X142890714Y-84224857D01*
X142843095Y-84129619D01*
X142795476Y-84082000D01*
X142700238Y-84034380D01*
X142509761Y-84034380D01*
X142414523Y-84082000D01*
X142366904Y-84129619D01*
X142319285Y-84224857D01*
X142319285Y-84462952D01*
X142366904Y-84558190D01*
X142414523Y-84605809D01*
X142509761Y-84653428D01*
X142700238Y-84653428D01*
X142795476Y-84605809D01*
X142843095Y-84558190D01*
X142890714Y-84462952D01*
X94773904Y-61428380D02*
X94773904Y-62237904D01*
X94821523Y-62333142D01*
X94869142Y-62380761D01*
X94964380Y-62428380D01*
X95154857Y-62428380D01*
X95250095Y-62380761D01*
X95297714Y-62333142D01*
X95345333Y-62237904D01*
X95345333Y-61428380D01*
X96250095Y-61761714D02*
X96250095Y-62428380D01*
X96012000Y-61380761D02*
X95773904Y-62095047D01*
X96392952Y-62095047D01*
X96964380Y-61428380D02*
X97059619Y-61428380D01*
X97154857Y-61476000D01*
X97202476Y-61523619D01*
X97250095Y-61618857D01*
X97297714Y-61809333D01*
X97297714Y-62047428D01*
X97250095Y-62237904D01*
X97202476Y-62333142D01*
X97154857Y-62380761D01*
X97059619Y-62428380D01*
X96964380Y-62428380D01*
X96869142Y-62380761D01*
X96821523Y-62333142D01*
X96773904Y-62237904D01*
X96726285Y-62047428D01*
X96726285Y-61809333D01*
X96773904Y-61618857D01*
X96821523Y-61523619D01*
X96869142Y-61476000D01*
X96964380Y-61428380D01*
X109886904Y-61047380D02*
X109886904Y-61856904D01*
X109934523Y-61952142D01*
X109982142Y-61999761D01*
X110077380Y-62047380D01*
X110267857Y-62047380D01*
X110363095Y-61999761D01*
X110410714Y-61952142D01*
X110458333Y-61856904D01*
X110458333Y-61047380D01*
X111363095Y-61380714D02*
X111363095Y-62047380D01*
X111125000Y-60999761D02*
X110886904Y-61714047D01*
X111505952Y-61714047D01*
X112410714Y-62047380D02*
X111839285Y-62047380D01*
X112125000Y-62047380D02*
X112125000Y-61047380D01*
X112029761Y-61190238D01*
X111934523Y-61285476D01*
X111839285Y-61333095D01*
X140493904Y-95337380D02*
X140493904Y-96146904D01*
X140541523Y-96242142D01*
X140589142Y-96289761D01*
X140684380Y-96337380D01*
X140874857Y-96337380D01*
X140970095Y-96289761D01*
X141017714Y-96242142D01*
X141065333Y-96146904D01*
X141065333Y-95337380D01*
X141970095Y-95670714D02*
X141970095Y-96337380D01*
X141732000Y-95289761D02*
X141493904Y-96004047D01*
X142112952Y-96004047D01*
X142446285Y-95432619D02*
X142493904Y-95385000D01*
X142589142Y-95337380D01*
X142827238Y-95337380D01*
X142922476Y-95385000D01*
X142970095Y-95432619D01*
X143017714Y-95527857D01*
X143017714Y-95623095D01*
X142970095Y-95765952D01*
X142398666Y-96337380D01*
X143017714Y-96337380D01*
X162591904Y-41235380D02*
X162591904Y-42044904D01*
X162639523Y-42140142D01*
X162687142Y-42187761D01*
X162782380Y-42235380D01*
X162972857Y-42235380D01*
X163068095Y-42187761D01*
X163115714Y-42140142D01*
X163163333Y-42044904D01*
X163163333Y-41235380D01*
X164068095Y-41568714D02*
X164068095Y-42235380D01*
X163830000Y-41187761D02*
X163591904Y-41902047D01*
X164210952Y-41902047D01*
X165020476Y-41568714D02*
X165020476Y-42235380D01*
X164782380Y-41187761D02*
X164544285Y-41902047D01*
X165163333Y-41902047D01*
X162464904Y-59015380D02*
X162464904Y-59824904D01*
X162512523Y-59920142D01*
X162560142Y-59967761D01*
X162655380Y-60015380D01*
X162845857Y-60015380D01*
X162941095Y-59967761D01*
X162988714Y-59920142D01*
X163036333Y-59824904D01*
X163036333Y-59015380D01*
X163941095Y-59348714D02*
X163941095Y-60015380D01*
X163703000Y-58967761D02*
X163464904Y-59682047D01*
X164083952Y-59682047D01*
X164941095Y-59015380D02*
X164464904Y-59015380D01*
X164417285Y-59491571D01*
X164464904Y-59443952D01*
X164560142Y-59396333D01*
X164798238Y-59396333D01*
X164893476Y-59443952D01*
X164941095Y-59491571D01*
X164988714Y-59586809D01*
X164988714Y-59824904D01*
X164941095Y-59920142D01*
X164893476Y-59967761D01*
X164798238Y-60015380D01*
X164560142Y-60015380D01*
X164464904Y-59967761D01*
X164417285Y-59920142D01*
X162591904Y-77684380D02*
X162591904Y-78493904D01*
X162639523Y-78589142D01*
X162687142Y-78636761D01*
X162782380Y-78684380D01*
X162972857Y-78684380D01*
X163068095Y-78636761D01*
X163115714Y-78589142D01*
X163163333Y-78493904D01*
X163163333Y-77684380D01*
X164068095Y-78017714D02*
X164068095Y-78684380D01*
X163830000Y-77636761D02*
X163591904Y-78351047D01*
X164210952Y-78351047D01*
X165020476Y-77684380D02*
X164830000Y-77684380D01*
X164734761Y-77732000D01*
X164687142Y-77779619D01*
X164591904Y-77922476D01*
X164544285Y-78112952D01*
X164544285Y-78493904D01*
X164591904Y-78589142D01*
X164639523Y-78636761D01*
X164734761Y-78684380D01*
X164925238Y-78684380D01*
X165020476Y-78636761D01*
X165068095Y-78589142D01*
X165115714Y-78493904D01*
X165115714Y-78255809D01*
X165068095Y-78160571D01*
X165020476Y-78112952D01*
X164925238Y-78065333D01*
X164734761Y-78065333D01*
X164639523Y-78112952D01*
X164591904Y-78160571D01*
X164544285Y-78255809D01*
X163099904Y-95210380D02*
X163099904Y-96019904D01*
X163147523Y-96115142D01*
X163195142Y-96162761D01*
X163290380Y-96210380D01*
X163480857Y-96210380D01*
X163576095Y-96162761D01*
X163623714Y-96115142D01*
X163671333Y-96019904D01*
X163671333Y-95210380D01*
X164576095Y-95543714D02*
X164576095Y-96210380D01*
X164338000Y-95162761D02*
X164099904Y-95877047D01*
X164718952Y-95877047D01*
X165004666Y-95210380D02*
X165671333Y-95210380D01*
X165242761Y-96210380D01*
X196881904Y-41235380D02*
X196881904Y-42044904D01*
X196929523Y-42140142D01*
X196977142Y-42187761D01*
X197072380Y-42235380D01*
X197262857Y-42235380D01*
X197358095Y-42187761D01*
X197405714Y-42140142D01*
X197453333Y-42044904D01*
X197453333Y-41235380D01*
X198358095Y-41568714D02*
X198358095Y-42235380D01*
X198120000Y-41187761D02*
X197881904Y-41902047D01*
X198500952Y-41902047D01*
X199024761Y-41663952D02*
X198929523Y-41616333D01*
X198881904Y-41568714D01*
X198834285Y-41473476D01*
X198834285Y-41425857D01*
X198881904Y-41330619D01*
X198929523Y-41283000D01*
X199024761Y-41235380D01*
X199215238Y-41235380D01*
X199310476Y-41283000D01*
X199358095Y-41330619D01*
X199405714Y-41425857D01*
X199405714Y-41473476D01*
X199358095Y-41568714D01*
X199310476Y-41616333D01*
X199215238Y-41663952D01*
X199024761Y-41663952D01*
X198929523Y-41711571D01*
X198881904Y-41759190D01*
X198834285Y-41854428D01*
X198834285Y-42044904D01*
X198881904Y-42140142D01*
X198929523Y-42187761D01*
X199024761Y-42235380D01*
X199215238Y-42235380D01*
X199310476Y-42187761D01*
X199358095Y-42140142D01*
X199405714Y-42044904D01*
X199405714Y-41854428D01*
X199358095Y-41759190D01*
X199310476Y-41711571D01*
X199215238Y-41663952D01*
X196881904Y-59777380D02*
X196881904Y-60586904D01*
X196929523Y-60682142D01*
X196977142Y-60729761D01*
X197072380Y-60777380D01*
X197262857Y-60777380D01*
X197358095Y-60729761D01*
X197405714Y-60682142D01*
X197453333Y-60586904D01*
X197453333Y-59777380D01*
X198358095Y-60110714D02*
X198358095Y-60777380D01*
X198120000Y-59729761D02*
X197881904Y-60444047D01*
X198500952Y-60444047D01*
X198929523Y-60777380D02*
X199120000Y-60777380D01*
X199215238Y-60729761D01*
X199262857Y-60682142D01*
X199358095Y-60539285D01*
X199405714Y-60348809D01*
X199405714Y-59967857D01*
X199358095Y-59872619D01*
X199310476Y-59825000D01*
X199215238Y-59777380D01*
X199024761Y-59777380D01*
X198929523Y-59825000D01*
X198881904Y-59872619D01*
X198834285Y-59967857D01*
X198834285Y-60205952D01*
X198881904Y-60301190D01*
X198929523Y-60348809D01*
X199024761Y-60396428D01*
X199215238Y-60396428D01*
X199310476Y-60348809D01*
X199358095Y-60301190D01*
X199405714Y-60205952D01*
X196881904Y-76922380D02*
X196881904Y-77731904D01*
X196929523Y-77827142D01*
X196977142Y-77874761D01*
X197072380Y-77922380D01*
X197262857Y-77922380D01*
X197358095Y-77874761D01*
X197405714Y-77827142D01*
X197453333Y-77731904D01*
X197453333Y-76922380D01*
X198405714Y-76922380D02*
X197929523Y-76922380D01*
X197881904Y-77398571D01*
X197929523Y-77350952D01*
X198024761Y-77303333D01*
X198262857Y-77303333D01*
X198358095Y-77350952D01*
X198405714Y-77398571D01*
X198453333Y-77493809D01*
X198453333Y-77731904D01*
X198405714Y-77827142D01*
X198358095Y-77874761D01*
X198262857Y-77922380D01*
X198024761Y-77922380D01*
X197929523Y-77874761D01*
X197881904Y-77827142D01*
X199072380Y-76922380D02*
X199167619Y-76922380D01*
X199262857Y-76970000D01*
X199310476Y-77017619D01*
X199358095Y-77112857D01*
X199405714Y-77303333D01*
X199405714Y-77541428D01*
X199358095Y-77731904D01*
X199310476Y-77827142D01*
X199262857Y-77874761D01*
X199167619Y-77922380D01*
X199072380Y-77922380D01*
X198977142Y-77874761D01*
X198929523Y-77827142D01*
X198881904Y-77731904D01*
X198834285Y-77541428D01*
X198834285Y-77303333D01*
X198881904Y-77112857D01*
X198929523Y-77017619D01*
X198977142Y-76970000D01*
X199072380Y-76922380D01*
X196881904Y-95337380D02*
X196881904Y-96146904D01*
X196929523Y-96242142D01*
X196977142Y-96289761D01*
X197072380Y-96337380D01*
X197262857Y-96337380D01*
X197358095Y-96289761D01*
X197405714Y-96242142D01*
X197453333Y-96146904D01*
X197453333Y-95337380D01*
X198405714Y-95337380D02*
X197929523Y-95337380D01*
X197881904Y-95813571D01*
X197929523Y-95765952D01*
X198024761Y-95718333D01*
X198262857Y-95718333D01*
X198358095Y-95765952D01*
X198405714Y-95813571D01*
X198453333Y-95908809D01*
X198453333Y-96146904D01*
X198405714Y-96242142D01*
X198358095Y-96289761D01*
X198262857Y-96337380D01*
X198024761Y-96337380D01*
X197929523Y-96289761D01*
X197881904Y-96242142D01*
X199405714Y-96337380D02*
X198834285Y-96337380D01*
X199120000Y-96337380D02*
X199120000Y-95337380D01*
X199024761Y-95480238D01*
X198929523Y-95575476D01*
X198834285Y-95623095D01*
X62388904Y-79081380D02*
X62388904Y-79890904D01*
X62436523Y-79986142D01*
X62484142Y-80033761D01*
X62579380Y-80081380D01*
X62769857Y-80081380D01*
X62865095Y-80033761D01*
X62912714Y-79986142D01*
X62960333Y-79890904D01*
X62960333Y-79081380D01*
X63912714Y-79081380D02*
X63436523Y-79081380D01*
X63388904Y-79557571D01*
X63436523Y-79509952D01*
X63531761Y-79462333D01*
X63769857Y-79462333D01*
X63865095Y-79509952D01*
X63912714Y-79557571D01*
X63960333Y-79652809D01*
X63960333Y-79890904D01*
X63912714Y-79986142D01*
X63865095Y-80033761D01*
X63769857Y-80081380D01*
X63531761Y-80081380D01*
X63436523Y-80033761D01*
X63388904Y-79986142D01*
X64531761Y-79509952D02*
X64436523Y-79462333D01*
X64388904Y-79414714D01*
X64341285Y-79319476D01*
X64341285Y-79271857D01*
X64388904Y-79176619D01*
X64436523Y-79129000D01*
X64531761Y-79081380D01*
X64722238Y-79081380D01*
X64817476Y-79129000D01*
X64865095Y-79176619D01*
X64912714Y-79271857D01*
X64912714Y-79319476D01*
X64865095Y-79414714D01*
X64817476Y-79462333D01*
X64722238Y-79509952D01*
X64531761Y-79509952D01*
X64436523Y-79557571D01*
X64388904Y-79605190D01*
X64341285Y-79700428D01*
X64341285Y-79890904D01*
X64388904Y-79986142D01*
X64436523Y-80033761D01*
X64531761Y-80081380D01*
X64722238Y-80081380D01*
X64817476Y-80033761D01*
X64865095Y-79986142D01*
X64912714Y-79890904D01*
X64912714Y-79700428D01*
X64865095Y-79605190D01*
X64817476Y-79557571D01*
X64722238Y-79509952D01*
X39020904Y-94067380D02*
X39020904Y-94876904D01*
X39068523Y-94972142D01*
X39116142Y-95019761D01*
X39211380Y-95067380D01*
X39401857Y-95067380D01*
X39497095Y-95019761D01*
X39544714Y-94972142D01*
X39592333Y-94876904D01*
X39592333Y-94067380D01*
X40544714Y-94067380D02*
X40068523Y-94067380D01*
X40020904Y-94543571D01*
X40068523Y-94495952D01*
X40163761Y-94448333D01*
X40401857Y-94448333D01*
X40497095Y-94495952D01*
X40544714Y-94543571D01*
X40592333Y-94638809D01*
X40592333Y-94876904D01*
X40544714Y-94972142D01*
X40497095Y-95019761D01*
X40401857Y-95067380D01*
X40163761Y-95067380D01*
X40068523Y-95019761D01*
X40020904Y-94972142D01*
X41068523Y-95067380D02*
X41259000Y-95067380D01*
X41354238Y-95019761D01*
X41401857Y-94972142D01*
X41497095Y-94829285D01*
X41544714Y-94638809D01*
X41544714Y-94257857D01*
X41497095Y-94162619D01*
X41449476Y-94115000D01*
X41354238Y-94067380D01*
X41163761Y-94067380D01*
X41068523Y-94115000D01*
X41020904Y-94162619D01*
X40973285Y-94257857D01*
X40973285Y-94495952D01*
X41020904Y-94591190D01*
X41068523Y-94638809D01*
X41163761Y-94686428D01*
X41354238Y-94686428D01*
X41449476Y-94638809D01*
X41497095Y-94591190D01*
X41544714Y-94495952D01*
X62515904Y-94194380D02*
X62515904Y-95003904D01*
X62563523Y-95099142D01*
X62611142Y-95146761D01*
X62706380Y-95194380D01*
X62896857Y-95194380D01*
X62992095Y-95146761D01*
X63039714Y-95099142D01*
X63087333Y-95003904D01*
X63087333Y-94194380D01*
X63992095Y-94194380D02*
X63801619Y-94194380D01*
X63706380Y-94242000D01*
X63658761Y-94289619D01*
X63563523Y-94432476D01*
X63515904Y-94622952D01*
X63515904Y-95003904D01*
X63563523Y-95099142D01*
X63611142Y-95146761D01*
X63706380Y-95194380D01*
X63896857Y-95194380D01*
X63992095Y-95146761D01*
X64039714Y-95099142D01*
X64087333Y-95003904D01*
X64087333Y-94765809D01*
X64039714Y-94670571D01*
X63992095Y-94622952D01*
X63896857Y-94575333D01*
X63706380Y-94575333D01*
X63611142Y-94622952D01*
X63563523Y-94670571D01*
X63515904Y-94765809D01*
X64706380Y-94194380D02*
X64801619Y-94194380D01*
X64896857Y-94242000D01*
X64944476Y-94289619D01*
X64992095Y-94384857D01*
X65039714Y-94575333D01*
X65039714Y-94813428D01*
X64992095Y-95003904D01*
X64944476Y-95099142D01*
X64896857Y-95146761D01*
X64801619Y-95194380D01*
X64706380Y-95194380D01*
X64611142Y-95146761D01*
X64563523Y-95099142D01*
X64515904Y-95003904D01*
X64468285Y-94813428D01*
X64468285Y-94575333D01*
X64515904Y-94384857D01*
X64563523Y-94289619D01*
X64611142Y-94242000D01*
X64706380Y-94194380D01*
X182030761Y-45664380D02*
X181697428Y-45188190D01*
X181459333Y-45664380D02*
X181459333Y-44664380D01*
X181840285Y-44664380D01*
X181935523Y-44712000D01*
X181983142Y-44759619D01*
X182030761Y-44854857D01*
X182030761Y-44997714D01*
X181983142Y-45092952D01*
X181935523Y-45140571D01*
X181840285Y-45188190D01*
X181459333Y-45188190D01*
X182316476Y-44664380D02*
X182649809Y-45664380D01*
X182983142Y-44664380D01*
X183792666Y-44664380D02*
X183316476Y-44664380D01*
X183268857Y-45140571D01*
X183316476Y-45092952D01*
X183411714Y-45045333D01*
X183649809Y-45045333D01*
X183745047Y-45092952D01*
X183792666Y-45140571D01*
X183840285Y-45235809D01*
X183840285Y-45473904D01*
X183792666Y-45569142D01*
X183745047Y-45616761D01*
X183649809Y-45664380D01*
X183411714Y-45664380D01*
X183316476Y-45616761D01*
X183268857Y-45569142D01*
X182157761Y-62047380D02*
X181824428Y-61571190D01*
X181586333Y-62047380D02*
X181586333Y-61047380D01*
X181967285Y-61047380D01*
X182062523Y-61095000D01*
X182110142Y-61142619D01*
X182157761Y-61237857D01*
X182157761Y-61380714D01*
X182110142Y-61475952D01*
X182062523Y-61523571D01*
X181967285Y-61571190D01*
X181586333Y-61571190D01*
X182443476Y-61047380D02*
X182776809Y-62047380D01*
X183110142Y-61047380D01*
X183872047Y-61047380D02*
X183681571Y-61047380D01*
X183586333Y-61095000D01*
X183538714Y-61142619D01*
X183443476Y-61285476D01*
X183395857Y-61475952D01*
X183395857Y-61856904D01*
X183443476Y-61952142D01*
X183491095Y-61999761D01*
X183586333Y-62047380D01*
X183776809Y-62047380D01*
X183872047Y-61999761D01*
X183919666Y-61952142D01*
X183967285Y-61856904D01*
X183967285Y-61618809D01*
X183919666Y-61523571D01*
X183872047Y-61475952D01*
X183776809Y-61428333D01*
X183586333Y-61428333D01*
X183491095Y-61475952D01*
X183443476Y-61523571D01*
X183395857Y-61618809D01*
X182157761Y-79319380D02*
X181824428Y-78843190D01*
X181586333Y-79319380D02*
X181586333Y-78319380D01*
X181967285Y-78319380D01*
X182062523Y-78367000D01*
X182110142Y-78414619D01*
X182157761Y-78509857D01*
X182157761Y-78652714D01*
X182110142Y-78747952D01*
X182062523Y-78795571D01*
X181967285Y-78843190D01*
X181586333Y-78843190D01*
X182443476Y-78319380D02*
X182776809Y-79319380D01*
X183110142Y-78319380D01*
X183348238Y-78319380D02*
X184014904Y-78319380D01*
X183586333Y-79319380D01*
X182157761Y-96464380D02*
X181824428Y-95988190D01*
X181586333Y-96464380D02*
X181586333Y-95464380D01*
X181967285Y-95464380D01*
X182062523Y-95512000D01*
X182110142Y-95559619D01*
X182157761Y-95654857D01*
X182157761Y-95797714D01*
X182110142Y-95892952D01*
X182062523Y-95940571D01*
X181967285Y-95988190D01*
X181586333Y-95988190D01*
X182443476Y-95464380D02*
X182776809Y-96464380D01*
X183110142Y-95464380D01*
X183586333Y-95892952D02*
X183491095Y-95845333D01*
X183443476Y-95797714D01*
X183395857Y-95702476D01*
X183395857Y-95654857D01*
X183443476Y-95559619D01*
X183491095Y-95512000D01*
X183586333Y-95464380D01*
X183776809Y-95464380D01*
X183872047Y-95512000D01*
X183919666Y-95559619D01*
X183967285Y-95654857D01*
X183967285Y-95702476D01*
X183919666Y-95797714D01*
X183872047Y-95845333D01*
X183776809Y-95892952D01*
X183586333Y-95892952D01*
X183491095Y-95940571D01*
X183443476Y-95988190D01*
X183395857Y-96083428D01*
X183395857Y-96273904D01*
X183443476Y-96369142D01*
X183491095Y-96416761D01*
X183586333Y-96464380D01*
X183776809Y-96464380D01*
X183872047Y-96416761D01*
X183919666Y-96369142D01*
X183967285Y-96273904D01*
X183967285Y-96083428D01*
X183919666Y-95988190D01*
X183872047Y-95940571D01*
X183776809Y-95892952D01*
X40076571Y-50998380D02*
X39743238Y-50522190D01*
X39505142Y-50998380D02*
X39505142Y-49998380D01*
X39886095Y-49998380D01*
X39981333Y-50046000D01*
X40028952Y-50093619D01*
X40076571Y-50188857D01*
X40076571Y-50331714D01*
X40028952Y-50426952D01*
X39981333Y-50474571D01*
X39886095Y-50522190D01*
X39505142Y-50522190D01*
X40362285Y-49998380D02*
X40695619Y-50998380D01*
X41028952Y-49998380D01*
X41886095Y-50998380D02*
X41314666Y-50998380D01*
X41600380Y-50998380D02*
X41600380Y-49998380D01*
X41505142Y-50141238D01*
X41409904Y-50236476D01*
X41314666Y-50284095D01*
X42790857Y-49998380D02*
X42314666Y-49998380D01*
X42267047Y-50474571D01*
X42314666Y-50426952D01*
X42409904Y-50379333D01*
X42648000Y-50379333D01*
X42743238Y-50426952D01*
X42790857Y-50474571D01*
X42838476Y-50569809D01*
X42838476Y-50807904D01*
X42790857Y-50903142D01*
X42743238Y-50950761D01*
X42648000Y-50998380D01*
X42409904Y-50998380D01*
X42314666Y-50950761D01*
X42267047Y-50903142D01*
X263945761Y-80081380D02*
X263612428Y-79605190D01*
X263374333Y-80081380D02*
X263374333Y-79081380D01*
X263755285Y-79081380D01*
X263850523Y-79129000D01*
X263898142Y-79176619D01*
X263945761Y-79271857D01*
X263945761Y-79414714D01*
X263898142Y-79509952D01*
X263850523Y-79557571D01*
X263755285Y-79605190D01*
X263374333Y-79605190D01*
X264231476Y-79081380D02*
X264564809Y-80081380D01*
X264898142Y-79081380D01*
X265755285Y-80081380D02*
X265183857Y-80081380D01*
X265469571Y-80081380D02*
X265469571Y-79081380D01*
X265374333Y-79224238D01*
X265279095Y-79319476D01*
X265183857Y-79367095D01*
X297473761Y-79827380D02*
X297140428Y-79351190D01*
X296902333Y-79827380D02*
X296902333Y-78827380D01*
X297283285Y-78827380D01*
X297378523Y-78875000D01*
X297426142Y-78922619D01*
X297473761Y-79017857D01*
X297473761Y-79160714D01*
X297426142Y-79255952D01*
X297378523Y-79303571D01*
X297283285Y-79351190D01*
X296902333Y-79351190D01*
X297759476Y-78827380D02*
X298092809Y-79827380D01*
X298426142Y-78827380D01*
X298711857Y-78922619D02*
X298759476Y-78875000D01*
X298854714Y-78827380D01*
X299092809Y-78827380D01*
X299188047Y-78875000D01*
X299235666Y-78922619D01*
X299283285Y-79017857D01*
X299283285Y-79113095D01*
X299235666Y-79255952D01*
X298664238Y-79827380D01*
X299283285Y-79827380D01*
X246165761Y-95194380D02*
X245832428Y-94718190D01*
X245594333Y-95194380D02*
X245594333Y-94194380D01*
X245975285Y-94194380D01*
X246070523Y-94242000D01*
X246118142Y-94289619D01*
X246165761Y-94384857D01*
X246165761Y-94527714D01*
X246118142Y-94622952D01*
X246070523Y-94670571D01*
X245975285Y-94718190D01*
X245594333Y-94718190D01*
X246451476Y-94194380D02*
X246784809Y-95194380D01*
X247118142Y-94194380D01*
X247356238Y-94194380D02*
X247975285Y-94194380D01*
X247641952Y-94575333D01*
X247784809Y-94575333D01*
X247880047Y-94622952D01*
X247927666Y-94670571D01*
X247975285Y-94765809D01*
X247975285Y-95003904D01*
X247927666Y-95099142D01*
X247880047Y-95146761D01*
X247784809Y-95194380D01*
X247499095Y-95194380D01*
X247403857Y-95146761D01*
X247356238Y-95099142D01*
X281090761Y-95575380D02*
X280757428Y-95099190D01*
X280519333Y-95575380D02*
X280519333Y-94575380D01*
X280900285Y-94575380D01*
X280995523Y-94623000D01*
X281043142Y-94670619D01*
X281090761Y-94765857D01*
X281090761Y-94908714D01*
X281043142Y-95003952D01*
X280995523Y-95051571D01*
X280900285Y-95099190D01*
X280519333Y-95099190D01*
X281376476Y-94575380D02*
X281709809Y-95575380D01*
X282043142Y-94575380D01*
X282805047Y-94908714D02*
X282805047Y-95575380D01*
X282566952Y-94527761D02*
X282328857Y-95242047D01*
X282947904Y-95242047D01*
X400978761Y-57030880D02*
X400645428Y-56554690D01*
X400407333Y-57030880D02*
X400407333Y-56030880D01*
X400788285Y-56030880D01*
X400883523Y-56078500D01*
X400931142Y-56126119D01*
X400978761Y-56221357D01*
X400978761Y-56364214D01*
X400931142Y-56459452D01*
X400883523Y-56507071D01*
X400788285Y-56554690D01*
X400407333Y-56554690D01*
X401264476Y-56030880D02*
X401597809Y-57030880D01*
X401931142Y-56030880D01*
X402312095Y-57030880D02*
X402502571Y-57030880D01*
X402597809Y-56983261D01*
X402645428Y-56935642D01*
X402740666Y-56792785D01*
X402788285Y-56602309D01*
X402788285Y-56221357D01*
X402740666Y-56126119D01*
X402693047Y-56078500D01*
X402597809Y-56030880D01*
X402407333Y-56030880D01*
X402312095Y-56078500D01*
X402264476Y-56126119D01*
X402216857Y-56221357D01*
X402216857Y-56459452D01*
X402264476Y-56554690D01*
X402312095Y-56602309D01*
X402407333Y-56649928D01*
X402597809Y-56649928D01*
X402693047Y-56602309D01*
X402740666Y-56554690D01*
X402788285Y-56459452D01*
X343924071Y-59443880D02*
X343590738Y-58967690D01*
X343352642Y-59443880D02*
X343352642Y-58443880D01*
X343733595Y-58443880D01*
X343828833Y-58491500D01*
X343876452Y-58539119D01*
X343924071Y-58634357D01*
X343924071Y-58777214D01*
X343876452Y-58872452D01*
X343828833Y-58920071D01*
X343733595Y-58967690D01*
X343352642Y-58967690D01*
X344209785Y-58443880D02*
X344543119Y-59443880D01*
X344876452Y-58443880D01*
X345733595Y-59443880D02*
X345162166Y-59443880D01*
X345447880Y-59443880D02*
X345447880Y-58443880D01*
X345352642Y-58586738D01*
X345257404Y-58681976D01*
X345162166Y-58729595D01*
X346114547Y-58539119D02*
X346162166Y-58491500D01*
X346257404Y-58443880D01*
X346495500Y-58443880D01*
X346590738Y-58491500D01*
X346638357Y-58539119D01*
X346685976Y-58634357D01*
X346685976Y-58729595D01*
X346638357Y-58872452D01*
X346066928Y-59443880D01*
X346685976Y-59443880D01*
X361894571Y-56967380D02*
X361561238Y-56491190D01*
X361323142Y-56967380D02*
X361323142Y-55967380D01*
X361704095Y-55967380D01*
X361799333Y-56015000D01*
X361846952Y-56062619D01*
X361894571Y-56157857D01*
X361894571Y-56300714D01*
X361846952Y-56395952D01*
X361799333Y-56443571D01*
X361704095Y-56491190D01*
X361323142Y-56491190D01*
X362180285Y-55967380D02*
X362513619Y-56967380D01*
X362846952Y-55967380D01*
X363704095Y-56967380D02*
X363132666Y-56967380D01*
X363418380Y-56967380D02*
X363418380Y-55967380D01*
X363323142Y-56110238D01*
X363227904Y-56205476D01*
X363132666Y-56253095D01*
X364037428Y-55967380D02*
X364656476Y-55967380D01*
X364323142Y-56348333D01*
X364466000Y-56348333D01*
X364561238Y-56395952D01*
X364608857Y-56443571D01*
X364656476Y-56538809D01*
X364656476Y-56776904D01*
X364608857Y-56872142D01*
X364561238Y-56919761D01*
X364466000Y-56967380D01*
X364180285Y-56967380D01*
X364085047Y-56919761D01*
X364037428Y-56872142D01*
X381706571Y-59697880D02*
X381373238Y-59221690D01*
X381135142Y-59697880D02*
X381135142Y-58697880D01*
X381516095Y-58697880D01*
X381611333Y-58745500D01*
X381658952Y-58793119D01*
X381706571Y-58888357D01*
X381706571Y-59031214D01*
X381658952Y-59126452D01*
X381611333Y-59174071D01*
X381516095Y-59221690D01*
X381135142Y-59221690D01*
X381992285Y-58697880D02*
X382325619Y-59697880D01*
X382658952Y-58697880D01*
X383516095Y-59697880D02*
X382944666Y-59697880D01*
X383230380Y-59697880D02*
X383230380Y-58697880D01*
X383135142Y-58840738D01*
X383039904Y-58935976D01*
X382944666Y-58983595D01*
X384373238Y-59031214D02*
X384373238Y-59697880D01*
X384135142Y-58650261D02*
X383897047Y-59364547D01*
X384516095Y-59364547D01*
X400629571Y-83129380D02*
X400296238Y-82653190D01*
X400058142Y-83129380D02*
X400058142Y-82129380D01*
X400439095Y-82129380D01*
X400534333Y-82177000D01*
X400581952Y-82224619D01*
X400629571Y-82319857D01*
X400629571Y-82462714D01*
X400581952Y-82557952D01*
X400534333Y-82605571D01*
X400439095Y-82653190D01*
X400058142Y-82653190D01*
X400915285Y-82129380D02*
X401248619Y-83129380D01*
X401581952Y-82129380D01*
X402439095Y-83129380D02*
X401867666Y-83129380D01*
X402153380Y-83129380D02*
X402153380Y-82129380D01*
X402058142Y-82272238D01*
X401962904Y-82367476D01*
X401867666Y-82415095D01*
X403296238Y-82129380D02*
X403105761Y-82129380D01*
X403010523Y-82177000D01*
X402962904Y-82224619D01*
X402867666Y-82367476D01*
X402820047Y-82557952D01*
X402820047Y-82938904D01*
X402867666Y-83034142D01*
X402915285Y-83081761D01*
X403010523Y-83129380D01*
X403201000Y-83129380D01*
X403296238Y-83081761D01*
X403343857Y-83034142D01*
X403391476Y-82938904D01*
X403391476Y-82700809D01*
X403343857Y-82605571D01*
X403296238Y-82557952D01*
X403201000Y-82510333D01*
X403010523Y-82510333D01*
X402915285Y-82557952D01*
X402867666Y-82605571D01*
X402820047Y-82700809D01*
X343225571Y-85796380D02*
X342892238Y-85320190D01*
X342654142Y-85796380D02*
X342654142Y-84796380D01*
X343035095Y-84796380D01*
X343130333Y-84844000D01*
X343177952Y-84891619D01*
X343225571Y-84986857D01*
X343225571Y-85129714D01*
X343177952Y-85224952D01*
X343130333Y-85272571D01*
X343035095Y-85320190D01*
X342654142Y-85320190D01*
X343511285Y-84796380D02*
X343844619Y-85796380D01*
X344177952Y-84796380D01*
X345035095Y-85796380D02*
X344463666Y-85796380D01*
X344749380Y-85796380D02*
X344749380Y-84796380D01*
X344654142Y-84939238D01*
X344558904Y-85034476D01*
X344463666Y-85082095D01*
X345511285Y-85796380D02*
X345701761Y-85796380D01*
X345797000Y-85748761D01*
X345844619Y-85701142D01*
X345939857Y-85558285D01*
X345987476Y-85367809D01*
X345987476Y-84986857D01*
X345939857Y-84891619D01*
X345892238Y-84844000D01*
X345797000Y-84796380D01*
X345606523Y-84796380D01*
X345511285Y-84844000D01*
X345463666Y-84891619D01*
X345416047Y-84986857D01*
X345416047Y-85224952D01*
X345463666Y-85320190D01*
X345511285Y-85367809D01*
X345606523Y-85415428D01*
X345797000Y-85415428D01*
X345892238Y-85367809D01*
X345939857Y-85320190D01*
X345987476Y-85224952D01*
X362148571Y-83192880D02*
X361815238Y-82716690D01*
X361577142Y-83192880D02*
X361577142Y-82192880D01*
X361958095Y-82192880D01*
X362053333Y-82240500D01*
X362100952Y-82288119D01*
X362148571Y-82383357D01*
X362148571Y-82526214D01*
X362100952Y-82621452D01*
X362053333Y-82669071D01*
X361958095Y-82716690D01*
X361577142Y-82716690D01*
X362434285Y-82192880D02*
X362767619Y-83192880D01*
X363100952Y-82192880D01*
X363386666Y-82288119D02*
X363434285Y-82240500D01*
X363529523Y-82192880D01*
X363767619Y-82192880D01*
X363862857Y-82240500D01*
X363910476Y-82288119D01*
X363958095Y-82383357D01*
X363958095Y-82478595D01*
X363910476Y-82621452D01*
X363339047Y-83192880D01*
X363958095Y-83192880D01*
X364577142Y-82192880D02*
X364672380Y-82192880D01*
X364767619Y-82240500D01*
X364815238Y-82288119D01*
X364862857Y-82383357D01*
X364910476Y-82573833D01*
X364910476Y-82811928D01*
X364862857Y-83002404D01*
X364815238Y-83097642D01*
X364767619Y-83145261D01*
X364672380Y-83192880D01*
X364577142Y-83192880D01*
X364481904Y-83145261D01*
X364434285Y-83097642D01*
X364386666Y-83002404D01*
X364339047Y-82811928D01*
X364339047Y-82573833D01*
X364386666Y-82383357D01*
X364434285Y-82288119D01*
X364481904Y-82240500D01*
X364577142Y-82192880D01*
X381706571Y-85732880D02*
X381373238Y-85256690D01*
X381135142Y-85732880D02*
X381135142Y-84732880D01*
X381516095Y-84732880D01*
X381611333Y-84780500D01*
X381658952Y-84828119D01*
X381706571Y-84923357D01*
X381706571Y-85066214D01*
X381658952Y-85161452D01*
X381611333Y-85209071D01*
X381516095Y-85256690D01*
X381135142Y-85256690D01*
X381992285Y-84732880D02*
X382325619Y-85732880D01*
X382658952Y-84732880D01*
X382944666Y-84828119D02*
X382992285Y-84780500D01*
X383087523Y-84732880D01*
X383325619Y-84732880D01*
X383420857Y-84780500D01*
X383468476Y-84828119D01*
X383516095Y-84923357D01*
X383516095Y-85018595D01*
X383468476Y-85161452D01*
X382897047Y-85732880D01*
X383516095Y-85732880D01*
X384468476Y-85732880D02*
X383897047Y-85732880D01*
X384182761Y-85732880D02*
X384182761Y-84732880D01*
X384087523Y-84875738D01*
X383992285Y-84970976D01*
X383897047Y-85018595D01*
X408209904Y-39647880D02*
X408209904Y-40457404D01*
X408257523Y-40552642D01*
X408305142Y-40600261D01*
X408400380Y-40647880D01*
X408590857Y-40647880D01*
X408686095Y-40600261D01*
X408733714Y-40552642D01*
X408781333Y-40457404D01*
X408781333Y-39647880D01*
X409686095Y-39981214D02*
X409686095Y-40647880D01*
X409448000Y-39600261D02*
X409209904Y-40314547D01*
X409828952Y-40314547D01*
X410114666Y-39647880D02*
X410733714Y-39647880D01*
X410400380Y-40028833D01*
X410543238Y-40028833D01*
X410638476Y-40076452D01*
X410686095Y-40124071D01*
X410733714Y-40219309D01*
X410733714Y-40457404D01*
X410686095Y-40552642D01*
X410638476Y-40600261D01*
X410543238Y-40647880D01*
X410257523Y-40647880D01*
X410162285Y-40600261D01*
X410114666Y-40552642D01*
X350361404Y-39330380D02*
X350361404Y-40139904D01*
X350409023Y-40235142D01*
X350456642Y-40282761D01*
X350551880Y-40330380D01*
X350742357Y-40330380D01*
X350837595Y-40282761D01*
X350885214Y-40235142D01*
X350932833Y-40139904D01*
X350932833Y-39330380D01*
X351885214Y-39330380D02*
X351409023Y-39330380D01*
X351361404Y-39806571D01*
X351409023Y-39758952D01*
X351504261Y-39711333D01*
X351742357Y-39711333D01*
X351837595Y-39758952D01*
X351885214Y-39806571D01*
X351932833Y-39901809D01*
X351932833Y-40139904D01*
X351885214Y-40235142D01*
X351837595Y-40282761D01*
X351742357Y-40330380D01*
X351504261Y-40330380D01*
X351409023Y-40282761D01*
X351361404Y-40235142D01*
X352789976Y-39663714D02*
X352789976Y-40330380D01*
X352551880Y-39282761D02*
X352313785Y-39997047D01*
X352932833Y-39997047D01*
X369736904Y-39457380D02*
X369736904Y-40266904D01*
X369784523Y-40362142D01*
X369832142Y-40409761D01*
X369927380Y-40457380D01*
X370117857Y-40457380D01*
X370213095Y-40409761D01*
X370260714Y-40362142D01*
X370308333Y-40266904D01*
X370308333Y-39457380D01*
X371260714Y-39457380D02*
X370784523Y-39457380D01*
X370736904Y-39933571D01*
X370784523Y-39885952D01*
X370879761Y-39838333D01*
X371117857Y-39838333D01*
X371213095Y-39885952D01*
X371260714Y-39933571D01*
X371308333Y-40028809D01*
X371308333Y-40266904D01*
X371260714Y-40362142D01*
X371213095Y-40409761D01*
X371117857Y-40457380D01*
X370879761Y-40457380D01*
X370784523Y-40409761D01*
X370736904Y-40362142D01*
X372213095Y-39457380D02*
X371736904Y-39457380D01*
X371689285Y-39933571D01*
X371736904Y-39885952D01*
X371832142Y-39838333D01*
X372070238Y-39838333D01*
X372165476Y-39885952D01*
X372213095Y-39933571D01*
X372260714Y-40028809D01*
X372260714Y-40266904D01*
X372213095Y-40362142D01*
X372165476Y-40409761D01*
X372070238Y-40457380D01*
X371832142Y-40457380D01*
X371736904Y-40409761D01*
X371689285Y-40362142D01*
X388588404Y-39584380D02*
X388588404Y-40393904D01*
X388636023Y-40489142D01*
X388683642Y-40536761D01*
X388778880Y-40584380D01*
X388969357Y-40584380D01*
X389064595Y-40536761D01*
X389112214Y-40489142D01*
X389159833Y-40393904D01*
X389159833Y-39584380D01*
X390064595Y-39584380D02*
X389874119Y-39584380D01*
X389778880Y-39632000D01*
X389731261Y-39679619D01*
X389636023Y-39822476D01*
X389588404Y-40012952D01*
X389588404Y-40393904D01*
X389636023Y-40489142D01*
X389683642Y-40536761D01*
X389778880Y-40584380D01*
X389969357Y-40584380D01*
X390064595Y-40536761D01*
X390112214Y-40489142D01*
X390159833Y-40393904D01*
X390159833Y-40155809D01*
X390112214Y-40060571D01*
X390064595Y-40012952D01*
X389969357Y-39965333D01*
X389778880Y-39965333D01*
X389683642Y-40012952D01*
X389636023Y-40060571D01*
X389588404Y-40155809D01*
X391112214Y-40584380D02*
X390540785Y-40584380D01*
X390826500Y-40584380D02*
X390826500Y-39584380D01*
X390731261Y-39727238D01*
X390636023Y-39822476D01*
X390540785Y-39870095D01*
X417266571Y-39822380D02*
X416933238Y-39346190D01*
X416695142Y-39822380D02*
X416695142Y-38822380D01*
X417076095Y-38822380D01*
X417171333Y-38870000D01*
X417218952Y-38917619D01*
X417266571Y-39012857D01*
X417266571Y-39155714D01*
X417218952Y-39250952D01*
X417171333Y-39298571D01*
X417076095Y-39346190D01*
X416695142Y-39346190D01*
X417552285Y-38822380D02*
X417885619Y-39822380D01*
X418218952Y-38822380D01*
X418504666Y-38917619D02*
X418552285Y-38870000D01*
X418647523Y-38822380D01*
X418885619Y-38822380D01*
X418980857Y-38870000D01*
X419028476Y-38917619D01*
X419076095Y-39012857D01*
X419076095Y-39108095D01*
X419028476Y-39250952D01*
X418457047Y-39822380D01*
X419076095Y-39822380D01*
X419457047Y-38917619D02*
X419504666Y-38870000D01*
X419599904Y-38822380D01*
X419838000Y-38822380D01*
X419933238Y-38870000D01*
X419980857Y-38917619D01*
X420028476Y-39012857D01*
X420028476Y-39108095D01*
X419980857Y-39250952D01*
X419409428Y-39822380D01*
X420028476Y-39822380D01*
X127010660Y-46398417D02*
X126534470Y-46731750D01*
X127010660Y-46969845D02*
X126010660Y-46969845D01*
X126010660Y-46588893D01*
X126058280Y-46493655D01*
X126105899Y-46446036D01*
X126201137Y-46398417D01*
X126343994Y-46398417D01*
X126439232Y-46446036D01*
X126486851Y-46493655D01*
X126534470Y-46588893D01*
X126534470Y-46969845D01*
X126010660Y-45541274D02*
X126010660Y-45731750D01*
X126058280Y-45826988D01*
X126105899Y-45874607D01*
X126248756Y-45969845D01*
X126439232Y-46017464D01*
X126820184Y-46017464D01*
X126915422Y-45969845D01*
X126963041Y-45922226D01*
X127010660Y-45826988D01*
X127010660Y-45636512D01*
X126963041Y-45541274D01*
X126915422Y-45493655D01*
X126820184Y-45446036D01*
X126582089Y-45446036D01*
X126486851Y-45493655D01*
X126439232Y-45541274D01*
X126391613Y-45636512D01*
X126391613Y-45826988D01*
X126439232Y-45922226D01*
X126486851Y-45969845D01*
X126582089Y-46017464D01*
X126010660Y-45112702D02*
X126010660Y-44493655D01*
X126391613Y-44826988D01*
X126391613Y-44684131D01*
X126439232Y-44588893D01*
X126486851Y-44541274D01*
X126582089Y-44493655D01*
X126820184Y-44493655D01*
X126915422Y-44541274D01*
X126963041Y-44588893D01*
X127010660Y-44684131D01*
X127010660Y-44969845D01*
X126963041Y-45065083D01*
X126915422Y-45112702D01*
X87711780Y-46398417D02*
X87235590Y-46731750D01*
X87711780Y-46969845D02*
X86711780Y-46969845D01*
X86711780Y-46588893D01*
X86759400Y-46493655D01*
X86807019Y-46446036D01*
X86902257Y-46398417D01*
X87045114Y-46398417D01*
X87140352Y-46446036D01*
X87187971Y-46493655D01*
X87235590Y-46588893D01*
X87235590Y-46969845D01*
X86711780Y-45541274D02*
X86711780Y-45731750D01*
X86759400Y-45826988D01*
X86807019Y-45874607D01*
X86949876Y-45969845D01*
X87140352Y-46017464D01*
X87521304Y-46017464D01*
X87616542Y-45969845D01*
X87664161Y-45922226D01*
X87711780Y-45826988D01*
X87711780Y-45636512D01*
X87664161Y-45541274D01*
X87616542Y-45493655D01*
X87521304Y-45446036D01*
X87283209Y-45446036D01*
X87187971Y-45493655D01*
X87140352Y-45541274D01*
X87092733Y-45636512D01*
X87092733Y-45826988D01*
X87140352Y-45922226D01*
X87187971Y-45969845D01*
X87283209Y-46017464D01*
X87045114Y-44588893D02*
X87711780Y-44588893D01*
X86664161Y-44826988D02*
X87378447Y-45065083D01*
X87378447Y-44446036D01*
X95174300Y-46200297D02*
X94698110Y-46533630D01*
X95174300Y-46771725D02*
X94174300Y-46771725D01*
X94174300Y-46390773D01*
X94221920Y-46295535D01*
X94269539Y-46247916D01*
X94364777Y-46200297D01*
X94507634Y-46200297D01*
X94602872Y-46247916D01*
X94650491Y-46295535D01*
X94698110Y-46390773D01*
X94698110Y-46771725D01*
X94174300Y-45866963D02*
X94174300Y-45200297D01*
X95174300Y-45628868D01*
X94174300Y-44343154D02*
X94174300Y-44819344D01*
X94650491Y-44866963D01*
X94602872Y-44819344D01*
X94555253Y-44724106D01*
X94555253Y-44486011D01*
X94602872Y-44390773D01*
X94650491Y-44343154D01*
X94745729Y-44295535D01*
X94983824Y-44295535D01*
X95079062Y-44343154D01*
X95126681Y-44390773D01*
X95174300Y-44486011D01*
X95174300Y-44724106D01*
X95126681Y-44819344D01*
X95079062Y-44866963D01*
X133274300Y-46398417D02*
X132798110Y-46731750D01*
X133274300Y-46969845D02*
X132274300Y-46969845D01*
X132274300Y-46588893D01*
X132321920Y-46493655D01*
X132369539Y-46446036D01*
X132464777Y-46398417D01*
X132607634Y-46398417D01*
X132702872Y-46446036D01*
X132750491Y-46493655D01*
X132798110Y-46588893D01*
X132798110Y-46969845D01*
X132274300Y-46065083D02*
X132274300Y-45398417D01*
X133274300Y-45826988D01*
X132274300Y-44588893D02*
X132274300Y-44779369D01*
X132321920Y-44874607D01*
X132369539Y-44922226D01*
X132512396Y-45017464D01*
X132702872Y-45065083D01*
X133083824Y-45065083D01*
X133179062Y-45017464D01*
X133226681Y-44969845D01*
X133274300Y-44874607D01*
X133274300Y-44684131D01*
X133226681Y-44588893D01*
X133179062Y-44541274D01*
X133083824Y-44493655D01*
X132845729Y-44493655D01*
X132750491Y-44541274D01*
X132702872Y-44588893D01*
X132655253Y-44684131D01*
X132655253Y-44874607D01*
X132702872Y-44969845D01*
X132750491Y-45017464D01*
X132845729Y-45065083D01*
%LPC*%
D12*
X427583600Y-79656940D03*
D13*
X427583600Y-87276940D03*
D14*
X35869000Y-73152000D03*
X44069000Y-73152000D03*
X47069000Y-73152000D03*
D15*
X293497000Y-86360000D03*
D16*
X290957000Y-86360000D03*
X292227000Y-86360000D03*
D17*
X211662000Y-47879000D03*
X216662000Y-47879000D03*
X313944000Y-48133000D03*
X308944000Y-48133000D03*
X35600000Y-44577000D03*
D18*
X38100000Y-44577000D03*
D17*
X56094000Y-44577000D03*
D18*
X53594000Y-44577000D03*
X47879000Y-44577000D03*
D17*
X50379000Y-44577000D03*
X314198000Y-79375000D03*
X309198000Y-79375000D03*
X230712000Y-60198000D03*
X235712000Y-60198000D03*
X52404000Y-66802000D03*
X57404000Y-66802000D03*
X230839000Y-79629000D03*
X235839000Y-79629000D03*
X333248000Y-61849000D03*
X328248000Y-61849000D03*
X309071000Y-59563000D03*
X314071000Y-59563000D03*
X159004000Y-64944000D03*
X159004000Y-59944000D03*
X333248000Y-78867000D03*
X328248000Y-78867000D03*
X110871000Y-33655000D03*
X110871000Y-38655000D03*
X110871000Y-52705000D03*
X110871000Y-57705000D03*
X211027000Y-62738000D03*
X216027000Y-62738000D03*
X57404000Y-52197000D03*
X52404000Y-52197000D03*
X216281000Y-81788000D03*
X211281000Y-81788000D03*
X144145000Y-60024000D03*
X144145000Y-65024000D03*
X77771000Y-33655000D03*
X72771000Y-33655000D03*
X70231000Y-33655000D03*
X65231000Y-33655000D03*
D19*
X209296000Y-45339000D03*
D20*
X216916000Y-45339000D03*
X313944000Y-43053000D03*
D19*
X306324000Y-43053000D03*
X238125000Y-45339000D03*
D20*
X230505000Y-45339000D03*
X328168000Y-45593000D03*
D19*
X335788000Y-45593000D03*
D21*
X266192000Y-86741000D03*
D22*
X263652000Y-86741000D03*
X299720000Y-86360000D03*
D21*
X297180000Y-86360000D03*
X247396000Y-71501000D03*
D22*
X244856000Y-71501000D03*
X279908000Y-71501000D03*
D21*
X282448000Y-71501000D03*
D22*
X50419000Y-73152000D03*
D21*
X52959000Y-73152000D03*
X76454000Y-73152000D03*
D22*
X73914000Y-73152000D03*
D21*
X52959000Y-88392000D03*
D22*
X50419000Y-88392000D03*
X73914000Y-88392000D03*
D21*
X76454000Y-88392000D03*
G36*
G01*
X58512000Y-35267000D02*
X57312000Y-35267000D01*
G75*
G02*
X57062000Y-35017000I0J250000D01*
G01*
X57062000Y-33817000D01*
G75*
G02*
X57312000Y-33567000I250000J0D01*
G01*
X58512000Y-33567000D01*
G75*
G02*
X58762000Y-33817000I0J-250000D01*
G01*
X58762000Y-35017000D01*
G75*
G02*
X58512000Y-35267000I-250000J0D01*
G01*
G37*
D23*
X55372000Y-34417000D03*
X52832000Y-34417000D03*
X50292000Y-34417000D03*
X47752000Y-34417000D03*
X45212000Y-34417000D03*
X42672000Y-34417000D03*
X40132000Y-34417000D03*
X57912000Y-31877000D03*
X55372000Y-31877000D03*
X52832000Y-31877000D03*
X50292000Y-31877000D03*
X47752000Y-31877000D03*
X45212000Y-31877000D03*
X42672000Y-31877000D03*
X40132000Y-31877000D03*
D15*
X269748000Y-86741000D03*
D16*
X272288000Y-86741000D03*
X271018000Y-86741000D03*
X252222000Y-71501000D03*
X253492000Y-71501000D03*
D15*
X250952000Y-71501000D03*
X286004000Y-71501000D03*
D16*
X288544000Y-71501000D03*
X287274000Y-71501000D03*
X51689000Y-79502000D03*
X50419000Y-79502000D03*
D15*
X52959000Y-79502000D03*
D16*
X75184000Y-79502000D03*
X73914000Y-79502000D03*
D15*
X76454000Y-79502000D03*
D16*
X51689000Y-94742000D03*
X50419000Y-94742000D03*
D15*
X52959000Y-94742000D03*
X76454000Y-94742000D03*
D16*
X73914000Y-94742000D03*
X75184000Y-94742000D03*
D12*
X230759000Y-76835000D03*
D13*
X238379000Y-76835000D03*
X238379000Y-74295000D03*
D12*
X230759000Y-74295000D03*
D13*
X335788000Y-76327000D03*
D12*
X328168000Y-76327000D03*
X328168000Y-71247000D03*
D13*
X335788000Y-71247000D03*
X238252000Y-54102000D03*
D12*
X230632000Y-54102000D03*
D13*
X238252000Y-57150000D03*
D12*
X230632000Y-57150000D03*
X328168000Y-57023000D03*
D13*
X335788000Y-57023000D03*
X335788000Y-54483000D03*
D12*
X328168000Y-54483000D03*
X230632000Y-71501000D03*
D13*
X238252000Y-71501000D03*
X335788000Y-73787000D03*
D12*
X328168000Y-73787000D03*
D13*
X238252000Y-48514000D03*
D12*
X230632000Y-48514000D03*
X328168000Y-51943000D03*
D13*
X335788000Y-51943000D03*
D12*
X230632000Y-82423000D03*
D13*
X238252000Y-82423000D03*
X335788000Y-84455000D03*
D12*
X328168000Y-84455000D03*
D13*
X230632000Y-51308000D03*
D12*
X238252000Y-51308000D03*
X216408000Y-84709000D03*
D13*
X208788000Y-84709000D03*
D12*
X328168000Y-64643000D03*
D13*
X335788000Y-64643000D03*
X306832000Y-84201000D03*
D12*
X314452000Y-84201000D03*
D13*
X208534000Y-65659000D03*
D12*
X216154000Y-65659000D03*
X314198000Y-64643000D03*
D13*
X306578000Y-64643000D03*
X216408000Y-87376000D03*
D12*
X208788000Y-87376000D03*
X314452000Y-86995000D03*
D13*
X306832000Y-86995000D03*
D12*
X216154000Y-68453000D03*
D13*
X208534000Y-68453000D03*
X306578000Y-67183000D03*
D12*
X314198000Y-67183000D03*
D13*
X238252000Y-87503000D03*
D12*
X230632000Y-87503000D03*
X335788000Y-81661000D03*
D13*
X328168000Y-81661000D03*
D12*
X230632000Y-68453000D03*
D13*
X238252000Y-68453000D03*
X335788000Y-67183000D03*
D12*
X328168000Y-67183000D03*
D13*
X230632000Y-90043000D03*
D12*
X238252000Y-90043000D03*
X335788000Y-87249000D03*
D13*
X328168000Y-87249000D03*
D12*
X238252000Y-62865000D03*
D13*
X230632000Y-62865000D03*
X230632000Y-84963000D03*
D12*
X238252000Y-84963000D03*
X208788000Y-89789000D03*
D13*
X216408000Y-89789000D03*
X328168000Y-37973000D03*
D12*
X335788000Y-37973000D03*
D13*
X306324000Y-37719000D03*
D12*
X313944000Y-37719000D03*
D13*
X306324000Y-45593000D03*
D12*
X313944000Y-45593000D03*
D13*
X230632000Y-65405000D03*
D12*
X238252000Y-65405000D03*
X230505000Y-42672000D03*
D13*
X238125000Y-42672000D03*
D12*
X328168000Y-40513000D03*
D13*
X335788000Y-40513000D03*
D12*
X328168000Y-48133000D03*
D13*
X335788000Y-48133000D03*
D12*
X216916000Y-42799000D03*
D13*
X209296000Y-42799000D03*
X306324000Y-40513000D03*
D12*
X313944000Y-40513000D03*
X230505000Y-40005000D03*
D13*
X238125000Y-40005000D03*
X264668000Y-92329000D03*
D12*
X272288000Y-92329000D03*
X328168000Y-43053000D03*
D13*
X335788000Y-43053000D03*
D12*
X290957000Y-91948000D03*
D13*
X298577000Y-91948000D03*
D12*
X253492000Y-77089000D03*
D13*
X245872000Y-77089000D03*
X280924000Y-77089000D03*
D12*
X288544000Y-77089000D03*
D13*
X216916000Y-35179000D03*
D12*
X209296000Y-35179000D03*
X314452000Y-74549000D03*
D13*
X306832000Y-74549000D03*
X230505000Y-35179000D03*
D12*
X238125000Y-35179000D03*
D13*
X335788000Y-35433000D03*
D12*
X328168000Y-35433000D03*
X216408000Y-71755000D03*
D13*
X208788000Y-71755000D03*
X306832000Y-71882000D03*
D12*
X314452000Y-71882000D03*
X216408000Y-55118000D03*
D13*
X208788000Y-55118000D03*
D12*
X314198000Y-51943000D03*
D13*
X306578000Y-51943000D03*
X154686000Y-31623000D03*
D12*
X154686000Y-39243000D03*
D13*
X150876000Y-42291000D03*
D12*
X150876000Y-49911000D03*
X151511000Y-75819000D03*
D13*
X151511000Y-83439000D03*
D12*
X151511000Y-87376000D03*
D13*
X151511000Y-94996000D03*
X147066000Y-31623000D03*
D12*
X147066000Y-39243000D03*
D13*
X147066000Y-49911000D03*
D12*
X147066000Y-42291000D03*
X147701000Y-83439000D03*
D13*
X147701000Y-75819000D03*
X147701000Y-87376000D03*
D12*
X147701000Y-94996000D03*
X150749000Y-31623000D03*
D13*
X150749000Y-39243000D03*
D12*
X154686000Y-42291000D03*
D13*
X154686000Y-49911000D03*
X155321000Y-75819000D03*
D12*
X155321000Y-83439000D03*
X155321000Y-94996000D03*
D13*
X155321000Y-87376000D03*
X77724000Y-49022000D03*
D12*
X70104000Y-49022000D03*
X66294000Y-40132000D03*
D13*
X66294000Y-47752000D03*
X35814000Y-79502000D03*
D12*
X43434000Y-79502000D03*
D13*
X35814000Y-82042000D03*
D12*
X43434000Y-82042000D03*
X66929000Y-79502000D03*
D13*
X59309000Y-79502000D03*
X59309000Y-82042000D03*
D12*
X66929000Y-82042000D03*
D13*
X35814000Y-94742000D03*
D12*
X43434000Y-94742000D03*
X56134000Y-92202000D03*
D13*
X56134000Y-84582000D03*
D12*
X66929000Y-94742000D03*
D13*
X59309000Y-94742000D03*
X69977000Y-83439000D03*
D12*
X77597000Y-83439000D03*
D24*
X219837000Y-55118000D03*
X227457000Y-70358000D03*
X219837000Y-57658000D03*
X227457000Y-67818000D03*
X219837000Y-60198000D03*
X227457000Y-65278000D03*
X219837000Y-62738000D03*
X227457000Y-62738000D03*
X219837000Y-65278000D03*
X227457000Y-60198000D03*
X219837000Y-67818000D03*
X227457000Y-57658000D03*
X219837000Y-70358000D03*
D18*
X227457000Y-55118000D03*
X227457000Y-74549000D03*
D24*
X219837000Y-89789000D03*
X227457000Y-77089000D03*
X219837000Y-87249000D03*
X227457000Y-79629000D03*
X219837000Y-84709000D03*
X227457000Y-82169000D03*
X219837000Y-82169000D03*
X227457000Y-84709000D03*
X219837000Y-79629000D03*
X227457000Y-87249000D03*
X219837000Y-77089000D03*
X227457000Y-89789000D03*
X219837000Y-74549000D03*
X317373000Y-51943000D03*
X324993000Y-67183000D03*
X317373000Y-54483000D03*
X324993000Y-64643000D03*
X317373000Y-57023000D03*
X324993000Y-62103000D03*
X317373000Y-59563000D03*
X324993000Y-59563000D03*
X317373000Y-62103000D03*
X324993000Y-57023000D03*
X317373000Y-64643000D03*
X324993000Y-54483000D03*
X317373000Y-67183000D03*
D18*
X324993000Y-51943000D03*
X324993000Y-71882000D03*
D24*
X317373000Y-87122000D03*
X324993000Y-74422000D03*
X317373000Y-84582000D03*
X324993000Y-76962000D03*
X317373000Y-82042000D03*
X324993000Y-79502000D03*
X317373000Y-79502000D03*
X324993000Y-82042000D03*
X317373000Y-76962000D03*
X324993000Y-84582000D03*
X317373000Y-74422000D03*
X324993000Y-87122000D03*
X317373000Y-71882000D03*
D18*
X103251000Y-41910000D03*
D24*
X118491000Y-49530000D03*
X105791000Y-41910000D03*
X115951000Y-49530000D03*
X108331000Y-41910000D03*
X113411000Y-49530000D03*
X110871000Y-41910000D03*
X110871000Y-49530000D03*
X113411000Y-41910000D03*
X108331000Y-49530000D03*
X115951000Y-41910000D03*
X105791000Y-49530000D03*
X118491000Y-41910000D03*
X103251000Y-49530000D03*
D18*
X147574000Y-70104000D03*
D24*
X155194000Y-54864000D03*
X147574000Y-67564000D03*
X155194000Y-57404000D03*
X147574000Y-65024000D03*
X155194000Y-59944000D03*
X147574000Y-62484000D03*
X155194000Y-62484000D03*
X147574000Y-59944000D03*
X155194000Y-65024000D03*
X147574000Y-57404000D03*
X155194000Y-67564000D03*
X147574000Y-54864000D03*
X155194000Y-70104000D03*
D18*
X49784000Y-55372000D03*
D24*
X65024000Y-62992000D03*
X52324000Y-55372000D03*
X62484000Y-62992000D03*
X54864000Y-55372000D03*
X59944000Y-62992000D03*
X57404000Y-55372000D03*
X57404000Y-62992000D03*
X59944000Y-55372000D03*
X54864000Y-62992000D03*
X62484000Y-55372000D03*
X52324000Y-62992000D03*
X65024000Y-55372000D03*
X49784000Y-62992000D03*
X219837000Y-32639000D03*
X227457000Y-47879000D03*
X219837000Y-35179000D03*
X227457000Y-45339000D03*
X219837000Y-37719000D03*
X227457000Y-42799000D03*
X219837000Y-40259000D03*
X227457000Y-40259000D03*
X219837000Y-42799000D03*
X227457000Y-37719000D03*
X219837000Y-45339000D03*
X227457000Y-35179000D03*
X219837000Y-47879000D03*
D18*
X227457000Y-32639000D03*
D24*
X317500000Y-32893000D03*
X325120000Y-48133000D03*
X317500000Y-35433000D03*
X325120000Y-45593000D03*
X317500000Y-37973000D03*
X325120000Y-43053000D03*
X317500000Y-40513000D03*
X325120000Y-40513000D03*
X317500000Y-43053000D03*
X325120000Y-37973000D03*
X317500000Y-45593000D03*
X325120000Y-35433000D03*
X317500000Y-48133000D03*
D18*
X325120000Y-32893000D03*
D14*
X270957000Y-44577000D03*
X267957000Y-44577000D03*
X259757000Y-44577000D03*
X302332000Y-44577000D03*
X294132000Y-44577000D03*
X291132000Y-44577000D03*
X253457000Y-44831000D03*
X250457000Y-44831000D03*
X242257000Y-44831000D03*
X285568000Y-44577000D03*
X277368000Y-44577000D03*
X274368000Y-44577000D03*
X259757000Y-33295000D03*
X267957000Y-33295000D03*
X270957000Y-33295000D03*
X302332000Y-33401000D03*
X294132000Y-33401000D03*
X291132000Y-33401000D03*
X242257000Y-33295000D03*
X250457000Y-33295000D03*
X253457000Y-33295000D03*
X274368000Y-33401000D03*
X277368000Y-33401000D03*
X285568000Y-33401000D03*
X259757000Y-56211000D03*
X267957000Y-56211000D03*
X270957000Y-56211000D03*
X291132000Y-56261000D03*
X294132000Y-56261000D03*
X302332000Y-56261000D03*
X253457000Y-56211000D03*
X250457000Y-56211000D03*
X242257000Y-56211000D03*
X274368000Y-56261000D03*
X277368000Y-56261000D03*
X285568000Y-56261000D03*
X126001000Y-33295000D03*
X123001000Y-33295000D03*
X114801000Y-33295000D03*
X91766000Y-33540000D03*
X83566000Y-33540000D03*
X80566000Y-33540000D03*
X107006000Y-33380000D03*
X98806000Y-33380000D03*
X95806000Y-33380000D03*
X129801000Y-33295000D03*
X138001000Y-33295000D03*
X141001000Y-33295000D03*
X114801000Y-57700000D03*
X123001000Y-57700000D03*
X126001000Y-57700000D03*
X126001000Y-68930000D03*
X123001000Y-68930000D03*
X114801000Y-68930000D03*
X114801000Y-80160000D03*
X123001000Y-80160000D03*
X126001000Y-80160000D03*
X81291000Y-91525000D03*
X84291000Y-91525000D03*
X92491000Y-91525000D03*
X92491000Y-80455000D03*
X84291000Y-80455000D03*
X81291000Y-80455000D03*
X81291000Y-69065000D03*
X84291000Y-69065000D03*
X92491000Y-69065000D03*
X96136000Y-91525000D03*
X99136000Y-91525000D03*
X107336000Y-91525000D03*
X107336000Y-80295000D03*
X99136000Y-80295000D03*
X96136000Y-80295000D03*
X96136000Y-69065000D03*
X99136000Y-69065000D03*
X107336000Y-69065000D03*
X126001000Y-91390000D03*
X123001000Y-91390000D03*
X114801000Y-91390000D03*
X141001000Y-57700000D03*
X138001000Y-57700000D03*
X129801000Y-57700000D03*
X129801000Y-68930000D03*
X138001000Y-68930000D03*
X141001000Y-68930000D03*
X141001000Y-80160000D03*
X138001000Y-80160000D03*
X129801000Y-80160000D03*
X92491000Y-57835000D03*
X84291000Y-57835000D03*
X81291000Y-57835000D03*
X96136000Y-57835000D03*
X99136000Y-57835000D03*
X107336000Y-57835000D03*
X129801000Y-91390000D03*
X138001000Y-91390000D03*
X141001000Y-91390000D03*
X170386000Y-35306000D03*
X167386000Y-35306000D03*
X159186000Y-35306000D03*
X159186000Y-52959000D03*
X167386000Y-52959000D03*
X170386000Y-52959000D03*
X170386000Y-71755000D03*
X167386000Y-71755000D03*
X159186000Y-71755000D03*
X171021000Y-89281000D03*
X168021000Y-89281000D03*
X159821000Y-89281000D03*
X205311000Y-35306000D03*
X202311000Y-35306000D03*
X194111000Y-35306000D03*
X194111000Y-53721000D03*
X202311000Y-53721000D03*
X205311000Y-53721000D03*
X194111000Y-70866000D03*
X202311000Y-70866000D03*
X205311000Y-70866000D03*
X194111000Y-89281000D03*
X202311000Y-89281000D03*
X205311000Y-89281000D03*
D18*
X77724000Y-37592000D03*
D24*
X70104000Y-45212000D03*
X77724000Y-40132000D03*
X70104000Y-42672000D03*
X77724000Y-42672000D03*
X70104000Y-40132000D03*
X77724000Y-45212000D03*
X70104000Y-37592000D03*
D14*
X70564000Y-73152000D03*
X67564000Y-73152000D03*
X59364000Y-73152000D03*
X35869000Y-88392000D03*
X44069000Y-88392000D03*
X47069000Y-88392000D03*
X70564000Y-88392000D03*
X67564000Y-88392000D03*
X59364000Y-88392000D03*
D18*
X70104000Y-68707000D03*
D24*
X77724000Y-53467000D03*
X70104000Y-66167000D03*
X77724000Y-56007000D03*
X70104000Y-63627000D03*
X77724000Y-58547000D03*
X70104000Y-61087000D03*
X77724000Y-61087000D03*
X70104000Y-58547000D03*
X77724000Y-63627000D03*
X70104000Y-56007000D03*
X77724000Y-66167000D03*
X70104000Y-53467000D03*
X77724000Y-68707000D03*
D22*
X175006000Y-34671000D03*
D21*
X175006000Y-37171000D03*
X175006000Y-39671000D03*
D25*
X182506000Y-41971000D03*
X182506000Y-32371000D03*
X182506000Y-48881000D03*
X182506000Y-58481000D03*
D21*
X175006000Y-56181000D03*
X175006000Y-53681000D03*
D22*
X175006000Y-51181000D03*
D25*
X182506000Y-66026000D03*
X182506000Y-75626000D03*
D21*
X175006000Y-73326000D03*
X175006000Y-70826000D03*
D22*
X175006000Y-68326000D03*
X175006000Y-85471000D03*
D21*
X175006000Y-87971000D03*
X175006000Y-90471000D03*
D25*
X182506000Y-92771000D03*
X182506000Y-83171000D03*
D22*
X38227000Y-63881000D03*
D21*
X40727000Y-63881000D03*
X43227000Y-63881000D03*
D25*
X45527000Y-56381000D03*
X35927000Y-56381000D03*
D22*
X266827000Y-65532000D03*
D21*
X264327000Y-65532000D03*
X261827000Y-65532000D03*
D25*
X259527000Y-73032000D03*
X269127000Y-73032000D03*
D22*
X301117000Y-65532000D03*
D21*
X298617000Y-65532000D03*
X296117000Y-65532000D03*
D25*
X293817000Y-73032000D03*
X303417000Y-73032000D03*
X251347000Y-88272000D03*
X241747000Y-88272000D03*
D21*
X244047000Y-80772000D03*
X246547000Y-80772000D03*
D22*
X249047000Y-80772000D03*
D25*
X286272000Y-88272000D03*
X276672000Y-88272000D03*
D21*
X278972000Y-80772000D03*
X281472000Y-80772000D03*
D22*
X283972000Y-80772000D03*
D12*
X60579000Y-47752000D03*
D13*
X60579000Y-40132000D03*
D12*
X45085000Y-47752000D03*
D13*
X45085000Y-40132000D03*
X41275000Y-40132000D03*
D12*
X41275000Y-47752000D03*
D17*
X231584500Y-37592000D03*
X236584500Y-37592000D03*
X421744140Y-94447360D03*
X416744140Y-94447360D03*
X413480240Y-77536040D03*
X418480240Y-77536040D03*
X308737000Y-32893000D03*
X313737000Y-32893000D03*
X399986500Y-51625500D03*
X399986500Y-46625500D03*
X356298500Y-46498500D03*
X356298500Y-51498500D03*
X361188000Y-51498500D03*
X361188000Y-46498500D03*
X394970000Y-46625500D03*
X394970000Y-51625500D03*
X410423360Y-83794600D03*
X410423360Y-88794600D03*
X427609000Y-89899480D03*
X427609000Y-94899480D03*
D13*
X403352000Y-72707500D03*
D12*
X403352000Y-80327500D03*
D13*
X399224500Y-72707500D03*
D12*
X399224500Y-80327500D03*
X349694500Y-68516500D03*
D13*
X349694500Y-60896500D03*
X345313000Y-60896500D03*
D12*
X345313000Y-68516500D03*
X364744000Y-80327500D03*
D13*
X364744000Y-72707500D03*
X360426000Y-72707500D03*
D12*
X360426000Y-80327500D03*
D13*
X384302000Y-60896500D03*
D12*
X384302000Y-68516500D03*
X379793500Y-68516500D03*
D13*
X379793500Y-60896500D03*
D12*
X407416000Y-72707500D03*
D13*
X407416000Y-80327500D03*
X395033500Y-80327500D03*
D12*
X395033500Y-72707500D03*
D13*
X353758500Y-68516500D03*
D12*
X353758500Y-60896500D03*
X340550500Y-60896500D03*
D13*
X340550500Y-68516500D03*
X368998500Y-80327500D03*
D12*
X368998500Y-72707500D03*
X355663500Y-72707500D03*
D13*
X355663500Y-80327500D03*
X388747000Y-68453000D03*
D12*
X388747000Y-60833000D03*
X375539000Y-60896500D03*
D13*
X375539000Y-68516500D03*
X410446220Y-53578760D03*
D12*
X410446220Y-45958760D03*
D13*
X414990280Y-46192440D03*
D12*
X414990280Y-53812440D03*
X419138100Y-65057020D03*
D13*
X419138100Y-57437020D03*
D22*
X404290500Y-58667000D03*
D21*
X401790500Y-58667000D03*
X399290500Y-58667000D03*
D25*
X396990500Y-66167000D03*
X406590500Y-66167000D03*
X349313500Y-53022500D03*
X339713500Y-53022500D03*
D21*
X342013500Y-45522500D03*
X344513500Y-45522500D03*
D22*
X347013500Y-45522500D03*
D25*
X368184500Y-66103500D03*
X358584500Y-66103500D03*
D21*
X360884500Y-58603500D03*
X363384500Y-58603500D03*
D22*
X365884500Y-58603500D03*
D25*
X387742500Y-53213000D03*
X378142500Y-53213000D03*
D21*
X380442500Y-45713000D03*
X382942500Y-45713000D03*
D22*
X385442500Y-45713000D03*
X404227000Y-84892500D03*
D21*
X401727000Y-84892500D03*
X399227000Y-84892500D03*
D25*
X396927000Y-92392500D03*
X406527000Y-92392500D03*
X349200500Y-79318500D03*
X339600500Y-79318500D03*
D21*
X341900500Y-71818500D03*
X344400500Y-71818500D03*
D22*
X346900500Y-71818500D03*
X365950500Y-84963000D03*
D21*
X363450500Y-84963000D03*
X360950500Y-84963000D03*
D25*
X358650500Y-92463000D03*
X368250500Y-92463000D03*
D22*
X385445000Y-71628000D03*
D21*
X382945000Y-71628000D03*
X380445000Y-71628000D03*
D25*
X378145000Y-79128000D03*
X387745000Y-79128000D03*
D26*
X402526500Y-42418000D03*
X402526500Y-39418000D03*
X402526500Y-31218000D03*
X344678000Y-31154500D03*
X344678000Y-39354500D03*
X344678000Y-42354500D03*
X363855000Y-42354500D03*
X363855000Y-39354500D03*
X363855000Y-31154500D03*
X382905000Y-42481500D03*
X382905000Y-39481500D03*
X382905000Y-31281500D03*
D17*
X210693000Y-32258000D03*
X215693000Y-32258000D03*
X334391000Y-32766000D03*
X329391000Y-32766000D03*
D21*
X423100500Y-43521000D03*
X425600500Y-43521000D03*
X428100500Y-43521000D03*
D25*
X420850500Y-33521000D03*
X430350500Y-33521000D03*
D21*
X428100500Y-41021000D03*
X425600500Y-41021000D03*
D22*
X423100500Y-41021000D03*
G36*
G01*
X424691440Y-70002960D02*
X424691440Y-68802960D01*
G75*
G02*
X424941440Y-68552960I250000J0D01*
G01*
X426141440Y-68552960D01*
G75*
G02*
X426391440Y-68802960I0J-250000D01*
G01*
X426391440Y-70002960D01*
G75*
G02*
X426141440Y-70252960I-250000J0D01*
G01*
X424941440Y-70252960D01*
G75*
G02*
X424691440Y-70002960I0J250000D01*
G01*
G37*
D23*
X425541440Y-66862960D03*
X425541440Y-64322960D03*
X425541440Y-61782960D03*
X425541440Y-59242960D03*
X425541440Y-56702960D03*
X425541440Y-54162960D03*
X425541440Y-51622960D03*
X428081440Y-69402960D03*
X428081440Y-66862960D03*
X428081440Y-64322960D03*
X428081440Y-61782960D03*
X428081440Y-59242960D03*
X428081440Y-56702960D03*
X428081440Y-54162960D03*
X428081440Y-51622960D03*
D12*
X128478280Y-49565560D03*
D13*
X128478280Y-41945560D03*
X89179400Y-41945560D03*
D12*
X89179400Y-49565560D03*
X96641920Y-49367440D03*
D13*
X96641920Y-41747440D03*
X134741920Y-41945560D03*
D12*
X134741920Y-49565560D03*
D18*
X422894760Y-82453480D03*
D24*
X415274760Y-90073480D03*
X422894760Y-84993480D03*
X415274760Y-87533480D03*
X422894760Y-87533480D03*
X415274760Y-84993480D03*
X422894760Y-90073480D03*
X415274760Y-82453480D03*
D13*
X43662600Y-66522600D03*
D12*
X36042600Y-66522600D03*
X67259200Y-66344800D03*
D13*
X59639200Y-66344800D03*
D12*
X46761400Y-84785200D03*
D13*
X46761400Y-77165200D03*
X56184800Y-74218800D03*
D12*
X56184800Y-81838800D03*
M02*
