M48
; DRILL file {KiCad (5.1.10)-1} date 02/04/22 18:39:44
; FORMAT={-:-/ absolute / inch / decimal}
; #@! TF.CreationDate,2022-02-04T18:39:44-05:00
; #@! TF.GenerationSoftware,Kicad,Pcbnew,(5.1.10)-1
; #@! TF.FileFunction,Plated,1,2,PTH
FMAT,2
INCH
T1C0.0157
T2C0.0276
T3C0.0295
T4C0.0315
T5C0.0354
T6C0.0394
T7C0.0591
T8C0.0630
T9C0.0709
%
G90
G05
T1
X8.3425Y-3.0475
X8.395Y-2.09
X8.505Y-2.345
X8.505Y-2.395
X8.53Y-2.37
X8.54Y-3.1
X8.59Y-2.315
X8.595Y-2.42
X8.79Y-3.67
X9.0025Y-1.965
X9.015Y-2.525
X9.18Y-2.51
X9.18Y-2.595
X9.1825Y-1.835
X9.1825Y-1.8975
X9.1825Y-1.965
X9.1825Y-2.19
X9.1825Y-2.31
X9.24Y-2.56
X10.005Y-3.225
X10.06Y-1.535
X10.07Y-3.225
X10.135Y-3.25
X10.205Y-3.25
X10.28Y-3.25
X10.405Y-1.75
X11.895Y-3.385
X11.98Y-3.385
X12.085Y-2.185
X12.13Y-2.22
X12.135Y-1.655
X12.135Y-1.73
X12.17Y-1.685
X12.17Y-2.46
X12.175Y-2.245
X12.2Y-1.78
X12.21Y-1.73
X12.22Y-2.245
X12.22Y-2.46
X12.245Y-1.775
X12.655Y-1.455
X13.025Y-3.52
X13.095Y-2.645
X13.105Y-3.01
X15.9875Y-1.8625
X15.9875Y-1.9225
X15.9875Y-1.99
X16.0375Y-1.8875
X16.0375Y-1.955
T2
X1.41Y-3.13
X1.41Y-3.23
X1.41Y-3.73
X1.419Y-2.619
X1.625Y-1.58
X1.625Y-1.88
X1.71Y-3.13
X1.71Y-3.23
X1.71Y-3.73
X1.719Y-2.619
X1.775Y-1.58
X1.775Y-1.88
X1.841Y-3.038
X1.841Y-3.338
X2.21Y-3.33
X2.21Y-3.63
X2.212Y-2.922
X2.212Y-3.222
X2.335Y-3.13
X2.335Y-3.23
X2.335Y-3.73
X2.348Y-2.612
X2.385Y-1.58
X2.385Y-1.88
X2.61Y-1.58
X2.61Y-1.88
X2.635Y-3.13
X2.635Y-3.23
X2.635Y-3.73
X2.648Y-2.612
X2.755Y-3.285
X2.76Y-1.93
X3.055Y-3.285
X3.06Y-1.93
X3.511Y-1.6514
X3.511Y-1.9514
X3.8048Y-1.6436
X3.8048Y-1.9436
X5.0582Y-1.6514
X5.0582Y-1.9514
X5.3048Y-1.6514
X5.3048Y-1.9514
X5.79Y-1.245
X5.79Y-1.545
X5.79Y-1.665
X5.79Y-1.965
X5.815Y-2.985
X5.815Y-3.285
X5.815Y-3.44
X5.815Y-3.74
X5.935Y-1.245
X5.935Y-1.545
X5.94Y-1.665
X5.94Y-1.965
X5.965Y-2.985
X5.965Y-3.285
X5.965Y-3.44
X5.965Y-3.74
X6.09Y-1.245
X6.09Y-1.545
X6.09Y-1.665
X6.09Y-1.965
X6.115Y-2.985
X6.115Y-3.285
X6.115Y-3.44
X6.115Y-3.74
X8.21Y-2.585
X8.21Y-2.695
X8.22Y-2.17
X8.22Y-2.825
X8.22Y-3.335
X8.22Y-3.44
X8.22Y-3.535
X8.24Y-1.385
X8.24Y-1.685
X8.51Y-2.585
X8.51Y-2.695
X8.52Y-2.17
X8.52Y-2.825
X8.52Y-3.335
X8.52Y-3.44
X8.52Y-3.535
X8.54Y-1.385
X8.54Y-1.685
X9.075Y-1.385
X9.075Y-1.575
X9.075Y-1.68
X9.08Y-1.91
X9.08Y-2.02
X9.08Y-2.13
X9.08Y-2.25
X9.08Y-2.475
X9.08Y-2.575
X9.08Y-2.695
X9.08Y-2.815
X9.08Y-3.245
X9.08Y-3.345
X9.08Y-3.445
X9.08Y-3.545
X9.085Y-2.925
X9.085Y-3.025
X9.375Y-1.385
X9.375Y-1.575
X9.375Y-1.68
X9.38Y-1.91
X9.38Y-2.02
X9.38Y-2.13
X9.38Y-2.25
X9.38Y-2.475
X9.38Y-2.575
X9.38Y-2.695
X9.38Y-2.815
X9.38Y-3.245
X9.38Y-3.345
X9.38Y-3.445
X9.38Y-3.545
X9.385Y-2.925
X9.385Y-3.025
X9.68Y-3.035
X9.98Y-3.035
X10.42Y-3.635
X10.72Y-3.635
X11.06Y-3.035
X11.36Y-3.035
X11.455Y-3.62
X11.755Y-3.62
X12.06Y-1.485
X12.06Y-1.595
X12.06Y-1.795
X12.07Y-2.045
X12.07Y-2.545
X12.07Y-2.645
X12.08Y-2.83
X12.08Y-2.935
X12.08Y-3.315
X12.08Y-3.425
X12.36Y-1.485
X12.36Y-1.595
X12.36Y-1.795
X12.37Y-2.045
X12.37Y-2.545
X12.37Y-2.645
X12.38Y-2.83
X12.38Y-2.935
X12.38Y-3.315
X12.38Y-3.425
X12.92Y-1.395
X12.92Y-1.495
X12.92Y-1.595
X12.92Y-1.695
X12.92Y-1.895
X12.92Y-2.045
X12.92Y-2.145
X12.92Y-2.245
X12.92Y-2.545
X12.92Y-2.645
X12.92Y-2.805
X12.92Y-2.905
X12.92Y-3.005
X12.92Y-3.215
X12.92Y-3.325
X12.92Y-3.435
X13.22Y-1.395
X13.22Y-1.495
X13.22Y-1.595
X13.22Y-1.695
X13.22Y-1.895
X13.22Y-2.045
X13.22Y-2.145
X13.22Y-2.245
X13.22Y-2.545
X13.22Y-2.645
X13.22Y-2.805
X13.22Y-2.905
X13.22Y-3.005
X13.22Y-3.215
X13.22Y-3.325
X13.22Y-3.435
X13.4075Y-2.3975
X13.4075Y-2.6975
X13.595Y-2.3975
X13.595Y-2.6975
X13.7675Y-2.3975
X13.7675Y-2.6975
X13.9275Y-2.3975
X13.9275Y-2.6975
X14.0025Y-2.8625
X14.0025Y-3.1625
X14.19Y-2.8625
X14.19Y-3.1625
X14.36Y-2.8625
X14.36Y-3.1625
X14.5275Y-2.8625
X14.5275Y-3.1625
X14.785Y-2.3975
X14.785Y-2.6975
X14.9525Y-2.3975
X14.9525Y-2.6975
X15.13Y-2.3975
X15.13Y-2.6975
X15.305Y-2.395
X15.305Y-2.695
X15.5525Y-2.8625
X15.5525Y-3.1625
X15.7175Y-2.8625
X15.7175Y-3.1625
X15.88Y-2.8625
X15.88Y-3.1625
X16.04Y-2.8625
X16.04Y-3.1625
X16.1593Y-1.8094
X16.1593Y-2.1094
X16.3382Y-1.8186
X16.3382Y-2.1186
X16.5015Y-2.2613
X16.5015Y-2.5613
X16.834Y-3.1361
X16.834Y-3.4361
T3
X1.985Y-3.13
X1.985Y-3.73
X2.035Y-3.13
X2.035Y-3.73
X2.085Y-3.13
X2.085Y-3.73
X2.91Y-3.13
X2.91Y-3.73
X2.96Y-3.13
X2.96Y-3.73
X3.01Y-3.13
X3.01Y-3.73
X8.24Y-1.785
X8.54Y-1.785
X9.075Y-1.785
X9.375Y-1.785
X9.88Y-2.815
X9.93Y-2.815
X9.98Y-2.815
X10.62Y-3.415
X10.67Y-3.415
X10.72Y-3.415
X11.26Y-2.815
X11.31Y-2.815
X11.36Y-2.815
X11.455Y-3.4
X11.505Y-3.4
X11.555Y-3.4
X12.06Y-1.695
X12.36Y-1.695
X12.92Y-1.795
X13.22Y-1.795
T4
X1.4016Y-1.755
X1.5Y-1.755
X1.885Y-1.755
X1.96Y-2.18
X1.96Y-2.48
X1.9834Y-1.755
X2.06Y-2.18
X2.06Y-2.48
X2.0631Y-2.055
X2.0631Y-2.63
X2.11Y-1.755
X2.16Y-2.18
X2.16Y-2.48
X2.2084Y-1.755
X2.26Y-2.055
X2.26Y-2.18
X2.26Y-2.48
X2.26Y-2.63
X2.36Y-2.18
X2.36Y-2.48
X2.46Y-2.18
X2.46Y-2.48
X2.56Y-2.18
X2.56Y-2.48
X2.5681Y-1.325
X2.76Y-1.48
X2.76Y-1.58
X2.76Y-1.68
X2.76Y-1.78
X2.76Y-2.105
X2.76Y-2.205
X2.76Y-2.305
X2.76Y-2.405
X2.76Y-2.505
X2.76Y-2.605
X2.76Y-2.705
X2.765Y-1.325
X2.865Y-1.325
X3.06Y-1.48
X3.06Y-1.58
X3.06Y-1.68
X3.06Y-1.78
X3.06Y-2.105
X3.06Y-2.205
X3.06Y-2.305
X3.06Y-2.405
X3.06Y-2.505
X3.06Y-2.605
X3.06Y-2.705
X3.0619Y-1.325
X4.065Y-1.65
X4.065Y-1.95
X4.165Y-1.65
X4.165Y-1.95
X4.265Y-1.65
X4.265Y-1.95
X4.365Y-1.325
X4.365Y-1.5219
X4.365Y-1.65
X4.365Y-1.95
X4.365Y-2.075
X4.365Y-2.2719
X4.465Y-1.65
X4.465Y-1.95
X4.565Y-1.65
X4.565Y-1.95
X4.665Y-1.65
X4.665Y-1.95
X5.675Y-2.3631
X5.675Y-2.56
X5.81Y-2.16
X5.81Y-2.26
X5.81Y-2.36
X5.81Y-2.46
X5.81Y-2.56
X5.81Y-2.66
X5.81Y-2.76
X6.11Y-2.16
X6.11Y-2.26
X6.11Y-2.36
X6.11Y-2.46
X6.11Y-2.56
X6.11Y-2.66
X6.11Y-2.76
X6.26Y-2.36
X6.26Y-2.5569
X8.295Y-1.27
X8.3081Y-2.47
X8.3181Y-3.22
X8.3331Y-1.885
X8.4919Y-1.27
X8.505Y-2.47
X8.515Y-3.22
X8.53Y-1.885
X8.655Y-1.285
X8.655Y-1.385
X8.655Y-1.485
X8.655Y-1.585
X8.655Y-1.685
X8.655Y-1.785
X8.655Y-1.885
X8.655Y-2.17
X8.655Y-2.27
X8.655Y-2.37
X8.655Y-2.47
X8.655Y-2.57
X8.655Y-2.67
X8.655Y-2.77
X8.655Y-2.935
X8.655Y-3.035
X8.655Y-3.135
X8.655Y-3.235
X8.655Y-3.335
X8.655Y-3.435
X8.655Y-3.535
X8.955Y-1.285
X8.955Y-1.385
X8.955Y-1.485
X8.955Y-1.585
X8.955Y-1.685
X8.955Y-1.785
X8.955Y-1.885
X8.955Y-2.17
X8.955Y-2.27
X8.955Y-2.37
X8.955Y-2.47
X8.955Y-2.57
X8.955Y-2.67
X8.955Y-2.77
X8.955Y-2.935
X8.955Y-3.035
X8.955Y-3.135
X8.955Y-3.235
X8.955Y-3.335
X8.955Y-3.435
X8.955Y-3.535
X9.0831Y-2.37
X9.0881Y-3.135
X9.1175Y-1.48
X9.28Y-2.37
X9.285Y-3.135
X9.3144Y-1.48
X12.155Y-1.295
X12.1631Y-1.895
X12.1681Y-2.345
X12.1731Y-3.125
X12.3519Y-1.295
X12.36Y-1.895
X12.365Y-2.345
X12.37Y-3.125
X12.495Y-2.045
X12.495Y-2.145
X12.495Y-2.245
X12.495Y-2.345
X12.495Y-2.445
X12.495Y-2.545
X12.495Y-2.645
X12.495Y-2.83
X12.495Y-2.93
X12.495Y-3.03
X12.495Y-3.13
X12.495Y-3.23
X12.495Y-3.33
X12.495Y-3.43
X12.5Y-1.295
X12.5Y-1.395
X12.5Y-1.495
X12.5Y-1.595
X12.5Y-1.695
X12.5Y-1.795
X12.5Y-1.895
X12.795Y-2.045
X12.795Y-2.145
X12.795Y-2.245
X12.795Y-2.345
X12.795Y-2.445
X12.795Y-2.545
X12.795Y-2.645
X12.795Y-2.83
X12.795Y-2.93
X12.795Y-3.03
X12.795Y-3.13
X12.795Y-3.23
X12.795Y-3.33
X12.795Y-3.43
X12.8Y-1.295
X12.8Y-1.395
X12.8Y-1.495
X12.8Y-1.595
X12.8Y-1.695
X12.8Y-1.795
X12.8Y-1.895
X12.9231Y-2.435
X12.9231Y-3.105
X12.9681Y-1.29
X13.12Y-2.435
X13.12Y-3.105
X13.165Y-1.29
X14.0275Y-1.8306
X14.0275Y-2.0275
X14.22Y-1.8306
X14.22Y-2.0275
X15.55Y-1.8356
X15.55Y-2.0325
X15.7475Y-1.8356
X15.7475Y-2.0325
X16.1584Y-3.299
X16.1584Y-3.4959
X16.2787Y-3.0526
X16.3494Y-3.2462
X16.3494Y-3.3462
X16.3494Y-3.4462
X16.3494Y-3.5462
X16.4072Y-3.7184
X16.4756Y-3.0526
X16.6041Y-3.7184
X16.6494Y-3.2462
X16.6494Y-3.3462
X16.6494Y-3.4462
X16.6494Y-3.5462
X16.835Y-3.5393
X16.835Y-3.7362
T5
X1.985Y-2.88
X1.985Y-3.48
X2.085Y-2.88
X2.085Y-3.48
X2.91Y-2.88
X2.91Y-3.48
X3.01Y-2.88
X3.01Y-3.48
X9.64Y-2.815
X9.74Y-2.815
X10.38Y-3.415
X10.48Y-3.415
X11.02Y-2.815
X11.12Y-2.815
X11.7Y-3.4
X11.8Y-3.4
T6
X1.505Y-2.515
X1.58Y-1.255
X1.58Y-1.355
X1.6034Y-2.515
X1.68Y-1.255
X1.68Y-1.355
X1.7019Y-2.515
X1.78Y-1.255
X1.78Y-1.355
X1.88Y-1.255
X1.88Y-1.355
X1.98Y-1.255
X1.98Y-1.355
X2.08Y-1.255
X2.08Y-1.355
X2.18Y-1.255
X2.18Y-1.355
X2.28Y-1.255
X2.28Y-1.355
X6.89Y-1.365
X6.89Y-1.4634
X6.89Y-1.5619
X6.89Y-2.015
X6.89Y-2.1134
X6.89Y-2.2119
X6.89Y-2.69
X6.89Y-2.7884
X6.89Y-2.8869
X6.89Y-3.365
X6.89Y-3.4634
X6.89Y-3.5619
X9.6081Y-3.18
X9.7066Y-3.18
X9.805Y-3.18
X10.3081Y-2.58
X10.4066Y-2.58
X10.505Y-2.58
X10.9831Y-3.18
X11.0816Y-3.18
X11.18Y-3.18
X11.6581Y-2.58
X11.7566Y-2.58
X11.855Y-2.58
X13.4606Y-2.8275
X13.4651Y-1.7922
X13.5591Y-2.8275
X13.5635Y-1.7922
X13.6575Y-2.8275
X13.6619Y-1.7922
X14.2081Y-2.3072
X14.2106Y-3.345
X14.3065Y-2.3072
X14.3091Y-3.345
X14.4049Y-2.3072
X14.4075Y-3.345
X14.9781Y-1.7997
X14.9781Y-2.82
X15.0765Y-1.7997
X15.0766Y-2.82
X15.1749Y-1.7997
X15.175Y-2.82
X15.7176Y-3.3422
X15.7201Y-2.3097
X15.816Y-3.3422
X15.8185Y-2.3097
X15.9144Y-3.3422
X15.9169Y-2.3097
X16.6575Y-1.615
X16.6575Y-1.7134
X16.7536Y-2.0324
X16.7536Y-2.1324
X16.7536Y-2.2324
X16.7536Y-2.3324
X16.7536Y-2.4324
X16.7536Y-2.5324
X16.7536Y-2.6324
X16.7536Y-2.7324
X16.7559Y-1.615
X16.7559Y-1.7134
X16.8536Y-2.0324
X16.8536Y-2.1324
X16.8536Y-2.2324
X16.8536Y-2.3324
X16.8536Y-2.4324
X16.8536Y-2.5324
X16.8536Y-2.6324
X16.8536Y-2.7324
X16.8544Y-1.615
X16.8544Y-1.7134
T7
X5.675Y-1.34
X8.7288Y-2.0262
X8.85Y-1.33
X9.9475Y-2.5075
X10.0925Y-2.6975
X10.1725Y-2.5075
X11.3Y-2.48
X11.48Y-1.96
X11.62Y-1.52
X11.73Y-1.65
X11.74Y-1.375
X11.83Y-1.515
X12.6425Y-1.31
X13.39Y-1.4325
X13.5425Y-3.53
X13.94Y-1.3975
X14.735Y-1.42
X15.08Y-3.5225
X15.9775Y-1.4025
X16.1675Y-1.225
X16.555Y-1.485
T8
X1.4122Y-2.88
X1.4122Y-3.48
X1.735Y-2.88
X1.735Y-3.48
X1.8531Y-2.88
X1.8531Y-3.48
X2.3372Y-2.88
X2.3372Y-3.48
X2.66Y-2.88
X2.66Y-3.48
X2.7781Y-2.88
X2.7781Y-3.48
X3.1719Y-1.3205
X3.2004Y-2.277
X3.2004Y-2.7191
X3.2004Y-3.1675
X3.2004Y-3.6033
X3.29Y-1.3205
X3.3185Y-2.277
X3.3185Y-2.7191
X3.3185Y-3.1675
X3.3185Y-3.6033
X3.6128Y-1.3205
X3.6414Y-2.277
X3.6414Y-2.7191
X3.6414Y-3.1675
X3.6414Y-3.6033
X3.7719Y-1.3142
X3.7849Y-2.277
X3.7849Y-2.7191
X3.7849Y-3.1612
X3.7849Y-3.6033
X3.89Y-1.3142
X3.903Y-2.277
X3.903Y-2.7191
X3.903Y-3.1612
X3.903Y-3.6033
X4.2128Y-1.3142
X4.2258Y-2.277
X4.2258Y-2.7191
X4.2258Y-3.1612
X4.2258Y-3.6033
X4.5197Y-1.3108
X4.5197Y-2.2717
X4.5197Y-2.7138
X4.5197Y-3.1559
X4.5197Y-3.598
X4.8426Y-1.3108
X4.8426Y-2.2717
X4.8426Y-2.7138
X4.8426Y-3.1559
X4.8426Y-3.598
X4.9607Y-1.3108
X4.9607Y-2.2717
X4.9607Y-2.7138
X4.9607Y-3.1559
X4.9607Y-3.598
X5.1103Y-1.3108
X5.1103Y-2.2717
X5.1103Y-2.7138
X5.1103Y-3.1559
X5.1103Y-3.598
X5.4331Y-1.3108
X5.4331Y-2.2717
X5.4331Y-2.7138
X5.4331Y-3.1559
X5.4331Y-3.598
X5.5512Y-1.3108
X5.5512Y-2.2717
X5.5512Y-2.7138
X5.5512Y-3.1559
X5.5512Y-3.598
X6.2672Y-1.39
X6.2672Y-2.085
X6.2672Y-2.825
X6.2922Y-3.515
X6.59Y-1.39
X6.59Y-2.085
X6.59Y-2.825
X6.615Y-3.515
X6.7081Y-1.39
X6.7081Y-2.085
X6.7081Y-2.825
X6.7331Y-3.515
X7.6422Y-1.39
X7.6422Y-2.115
X7.6422Y-2.79
X7.6422Y-3.515
X7.965Y-1.39
X7.965Y-2.115
X7.965Y-2.79
X7.965Y-3.515
X8.0831Y-1.39
X8.0831Y-2.115
X8.0831Y-2.79
X8.0831Y-3.515
X9.5377Y-1.3108
X9.5377Y-1.765
X9.5377Y-2.213
X9.8605Y-1.3108
X9.8605Y-1.765
X9.8605Y-2.213
X9.9786Y-1.3108
X9.9786Y-1.765
X9.9786Y-2.213
X10.2267Y-1.3108
X10.2267Y-1.755
X10.2267Y-2.213
X10.5495Y-1.3108
X10.5495Y-1.755
X10.5495Y-2.213
X10.6676Y-1.3108
X10.6676Y-1.755
X10.6676Y-2.213
X10.8019Y-1.315
X10.8019Y-1.755
X10.8019Y-2.215
X10.92Y-1.315
X10.92Y-1.755
X10.92Y-2.215
X11.2428Y-1.315
X11.2428Y-1.755
X11.2428Y-2.215
X11.4619Y-1.315
X11.4619Y-1.755
X11.4619Y-2.215
X11.58Y-1.315
X11.58Y-1.755
X11.58Y-2.215
X11.9028Y-1.315
X11.9028Y-1.755
X11.9028Y-2.215
X13.57Y-1.2266
X13.57Y-1.5494
X13.57Y-1.6675
X14.325Y-1.2266
X14.325Y-1.5494
X14.325Y-1.6675
X15.075Y-1.2316
X15.075Y-1.5544
X15.075Y-1.6725
X15.8475Y-1.2291
X15.8475Y-1.5519
X15.8475Y-1.67
T9
X1.4144Y-2.2197
X1.7924Y-2.2197
X7.1853Y-1.2744
X7.1853Y-1.6524
X7.1853Y-1.9244
X7.1853Y-2.3024
X7.1853Y-2.5994
X7.1853Y-2.9774
X7.1853Y-3.2744
X7.1853Y-3.6524
X9.5176Y-3.4753
X9.8956Y-3.4753
X10.2176Y-2.8753
X10.5956Y-2.8753
X10.8926Y-3.4753
X11.2706Y-3.4753
X11.5676Y-2.8753
X11.9456Y-2.8753
X13.3701Y-3.1228
X13.3745Y-2.0875
X13.7481Y-3.1228
X13.7525Y-2.0875
X14.1175Y-2.6025
X14.1201Y-3.6403
X14.4955Y-2.6025
X14.4981Y-3.6403
X14.8875Y-2.095
X14.8876Y-3.1153
X15.2655Y-2.095
X15.2656Y-3.1153
X15.627Y-3.6375
X15.6295Y-2.605
X16.005Y-3.6375
X16.0075Y-2.605
X16.5689Y-1.3197
X16.9429Y-1.3197
T0
M30
