%TF.GenerationSoftware,KiCad,Pcbnew,(5.1.10)-1*%
%TF.CreationDate,2022-02-04T18:45:48-05:00*%
%TF.ProjectId,Stereo_Mixer,53746572-656f-45f4-9d69-7865722e6b69,rev?*%
%TF.SameCoordinates,Original*%
%TF.FileFunction,Legend,Bot*%
%TF.FilePolarity,Positive*%
%FSLAX46Y46*%
G04 Gerber Fmt 4.6, Leading zero omitted, Abs format (unit mm)*
G04 Created by KiCad (PCBNEW (5.1.10)-1) date 2022-02-04 18:45:48*
%MOMM*%
%LPD*%
G01*
G04 APERTURE LIST*
%ADD10C,0.120000*%
%ADD11C,0.150000*%
G04 APERTURE END LIST*
D10*
%TO.C,C1*%
X138882000Y-32981000D02*
X138882000Y-32966000D01*
X138882000Y-35106000D02*
X138882000Y-35091000D01*
X134342000Y-32981000D02*
X134342000Y-32966000D01*
X134342000Y-35106000D02*
X134342000Y-35091000D01*
X134342000Y-32966000D02*
X138882000Y-32966000D01*
X134342000Y-35106000D02*
X138882000Y-35106000D01*
%TO.C,C2*%
X150312000Y-32981000D02*
X150312000Y-32966000D01*
X150312000Y-35106000D02*
X150312000Y-35091000D01*
X145772000Y-32981000D02*
X145772000Y-32966000D01*
X145772000Y-35106000D02*
X145772000Y-35091000D01*
X145772000Y-32966000D02*
X150312000Y-32966000D01*
X145772000Y-35106000D02*
X150312000Y-35106000D01*
%TO.C,C3*%
X161996000Y-32981000D02*
X161996000Y-32966000D01*
X161996000Y-35106000D02*
X161996000Y-35091000D01*
X157456000Y-32981000D02*
X157456000Y-32966000D01*
X157456000Y-35106000D02*
X157456000Y-35091000D01*
X157456000Y-32966000D02*
X161996000Y-32966000D01*
X157456000Y-35106000D02*
X161996000Y-35106000D01*
%TO.C,C4*%
X168632000Y-35106000D02*
X173172000Y-35106000D01*
X168632000Y-32966000D02*
X173172000Y-32966000D01*
X168632000Y-35106000D02*
X168632000Y-35091000D01*
X168632000Y-32981000D02*
X168632000Y-32966000D01*
X173172000Y-35106000D02*
X173172000Y-35091000D01*
X173172000Y-32981000D02*
X173172000Y-32966000D01*
%TO.C,C5*%
X180062000Y-35106000D02*
X184602000Y-35106000D01*
X180062000Y-32966000D02*
X184602000Y-32966000D01*
X180062000Y-35106000D02*
X180062000Y-35091000D01*
X180062000Y-32981000D02*
X180062000Y-32966000D01*
X184602000Y-35106000D02*
X184602000Y-35091000D01*
X184602000Y-32981000D02*
X184602000Y-32966000D01*
%TO.C,C6*%
X196032000Y-32981000D02*
X196032000Y-32966000D01*
X196032000Y-35106000D02*
X196032000Y-35091000D01*
X191492000Y-32981000D02*
X191492000Y-32966000D01*
X191492000Y-35106000D02*
X191492000Y-35091000D01*
X191492000Y-32966000D02*
X196032000Y-32966000D01*
X191492000Y-35106000D02*
X196032000Y-35106000D01*
%TO.C,C9*%
X202999000Y-72863225D02*
X203499000Y-72863225D01*
X203249000Y-72613225D02*
X203249000Y-73113225D01*
X204440000Y-78019000D02*
X205008000Y-78019000D01*
X204206000Y-77979000D02*
X205242000Y-77979000D01*
X204047000Y-77939000D02*
X205401000Y-77939000D01*
X203919000Y-77899000D02*
X205529000Y-77899000D01*
X203809000Y-77859000D02*
X205639000Y-77859000D01*
X203713000Y-77819000D02*
X205735000Y-77819000D01*
X203626000Y-77779000D02*
X205822000Y-77779000D01*
X203546000Y-77739000D02*
X205902000Y-77739000D01*
X205764000Y-77699000D02*
X205975000Y-77699000D01*
X203473000Y-77699000D02*
X203684000Y-77699000D01*
X205764000Y-77659000D02*
X206043000Y-77659000D01*
X203405000Y-77659000D02*
X203684000Y-77659000D01*
X205764000Y-77619000D02*
X206107000Y-77619000D01*
X203341000Y-77619000D02*
X203684000Y-77619000D01*
X205764000Y-77579000D02*
X206167000Y-77579000D01*
X203281000Y-77579000D02*
X203684000Y-77579000D01*
X205764000Y-77539000D02*
X206224000Y-77539000D01*
X203224000Y-77539000D02*
X203684000Y-77539000D01*
X205764000Y-77499000D02*
X206278000Y-77499000D01*
X203170000Y-77499000D02*
X203684000Y-77499000D01*
X205764000Y-77459000D02*
X206329000Y-77459000D01*
X203119000Y-77459000D02*
X203684000Y-77459000D01*
X205764000Y-77419000D02*
X206377000Y-77419000D01*
X203071000Y-77419000D02*
X203684000Y-77419000D01*
X205764000Y-77379000D02*
X206423000Y-77379000D01*
X203025000Y-77379000D02*
X203684000Y-77379000D01*
X205764000Y-77339000D02*
X206467000Y-77339000D01*
X202981000Y-77339000D02*
X203684000Y-77339000D01*
X205764000Y-77299000D02*
X206509000Y-77299000D01*
X202939000Y-77299000D02*
X203684000Y-77299000D01*
X205764000Y-77259000D02*
X206550000Y-77259000D01*
X202898000Y-77259000D02*
X203684000Y-77259000D01*
X205764000Y-77219000D02*
X206588000Y-77219000D01*
X202860000Y-77219000D02*
X203684000Y-77219000D01*
X205764000Y-77179000D02*
X206625000Y-77179000D01*
X202823000Y-77179000D02*
X203684000Y-77179000D01*
X205764000Y-77139000D02*
X206661000Y-77139000D01*
X202787000Y-77139000D02*
X203684000Y-77139000D01*
X205764000Y-77099000D02*
X206695000Y-77099000D01*
X202753000Y-77099000D02*
X203684000Y-77099000D01*
X205764000Y-77059000D02*
X206728000Y-77059000D01*
X202720000Y-77059000D02*
X203684000Y-77059000D01*
X205764000Y-77019000D02*
X206759000Y-77019000D01*
X202689000Y-77019000D02*
X203684000Y-77019000D01*
X205764000Y-76979000D02*
X206789000Y-76979000D01*
X202659000Y-76979000D02*
X203684000Y-76979000D01*
X205764000Y-76939000D02*
X206819000Y-76939000D01*
X202629000Y-76939000D02*
X203684000Y-76939000D01*
X205764000Y-76899000D02*
X206846000Y-76899000D01*
X202602000Y-76899000D02*
X203684000Y-76899000D01*
X205764000Y-76859000D02*
X206873000Y-76859000D01*
X202575000Y-76859000D02*
X203684000Y-76859000D01*
X205764000Y-76819000D02*
X206899000Y-76819000D01*
X202549000Y-76819000D02*
X203684000Y-76819000D01*
X205764000Y-76779000D02*
X206924000Y-76779000D01*
X202524000Y-76779000D02*
X203684000Y-76779000D01*
X205764000Y-76739000D02*
X206948000Y-76739000D01*
X202500000Y-76739000D02*
X203684000Y-76739000D01*
X205764000Y-76699000D02*
X206971000Y-76699000D01*
X202477000Y-76699000D02*
X203684000Y-76699000D01*
X205764000Y-76659000D02*
X206992000Y-76659000D01*
X202456000Y-76659000D02*
X203684000Y-76659000D01*
X205764000Y-76619000D02*
X207014000Y-76619000D01*
X202434000Y-76619000D02*
X203684000Y-76619000D01*
X205764000Y-76579000D02*
X207034000Y-76579000D01*
X202414000Y-76579000D02*
X203684000Y-76579000D01*
X205764000Y-76539000D02*
X207053000Y-76539000D01*
X202395000Y-76539000D02*
X203684000Y-76539000D01*
X205764000Y-76499000D02*
X207072000Y-76499000D01*
X202376000Y-76499000D02*
X203684000Y-76499000D01*
X205764000Y-76459000D02*
X207089000Y-76459000D01*
X202359000Y-76459000D02*
X203684000Y-76459000D01*
X205764000Y-76419000D02*
X207106000Y-76419000D01*
X202342000Y-76419000D02*
X203684000Y-76419000D01*
X205764000Y-76379000D02*
X207122000Y-76379000D01*
X202326000Y-76379000D02*
X203684000Y-76379000D01*
X205764000Y-76339000D02*
X207138000Y-76339000D01*
X202310000Y-76339000D02*
X203684000Y-76339000D01*
X205764000Y-76299000D02*
X207152000Y-76299000D01*
X202296000Y-76299000D02*
X203684000Y-76299000D01*
X205764000Y-76259000D02*
X207166000Y-76259000D01*
X202282000Y-76259000D02*
X203684000Y-76259000D01*
X205764000Y-76219000D02*
X207179000Y-76219000D01*
X202269000Y-76219000D02*
X203684000Y-76219000D01*
X205764000Y-76179000D02*
X207192000Y-76179000D01*
X202256000Y-76179000D02*
X203684000Y-76179000D01*
X205764000Y-76139000D02*
X207204000Y-76139000D01*
X202244000Y-76139000D02*
X203684000Y-76139000D01*
X205764000Y-76098000D02*
X207215000Y-76098000D01*
X202233000Y-76098000D02*
X203684000Y-76098000D01*
X205764000Y-76058000D02*
X207225000Y-76058000D01*
X202223000Y-76058000D02*
X203684000Y-76058000D01*
X205764000Y-76018000D02*
X207235000Y-76018000D01*
X202213000Y-76018000D02*
X203684000Y-76018000D01*
X205764000Y-75978000D02*
X207244000Y-75978000D01*
X202204000Y-75978000D02*
X203684000Y-75978000D01*
X205764000Y-75938000D02*
X207252000Y-75938000D01*
X202196000Y-75938000D02*
X203684000Y-75938000D01*
X205764000Y-75898000D02*
X207260000Y-75898000D01*
X202188000Y-75898000D02*
X203684000Y-75898000D01*
X205764000Y-75858000D02*
X207267000Y-75858000D01*
X202181000Y-75858000D02*
X203684000Y-75858000D01*
X205764000Y-75818000D02*
X207274000Y-75818000D01*
X202174000Y-75818000D02*
X203684000Y-75818000D01*
X205764000Y-75778000D02*
X207280000Y-75778000D01*
X202168000Y-75778000D02*
X203684000Y-75778000D01*
X205764000Y-75738000D02*
X207285000Y-75738000D01*
X202163000Y-75738000D02*
X203684000Y-75738000D01*
X205764000Y-75698000D02*
X207289000Y-75698000D01*
X202159000Y-75698000D02*
X203684000Y-75698000D01*
X205764000Y-75658000D02*
X207293000Y-75658000D01*
X202155000Y-75658000D02*
X203684000Y-75658000D01*
X202151000Y-75618000D02*
X207297000Y-75618000D01*
X202148000Y-75578000D02*
X207300000Y-75578000D01*
X202146000Y-75538000D02*
X207302000Y-75538000D01*
X202145000Y-75498000D02*
X207303000Y-75498000D01*
X202144000Y-75458000D02*
X207304000Y-75458000D01*
X202144000Y-75418000D02*
X207304000Y-75418000D01*
X207344000Y-75418000D02*
G75*
G03*
X207344000Y-75418000I-2620000J0D01*
G01*
%TO.C,C10*%
X207344000Y-87904000D02*
G75*
G03*
X207344000Y-87904000I-2620000J0D01*
G01*
X207304000Y-87904000D02*
X202144000Y-87904000D01*
X207304000Y-87864000D02*
X202144000Y-87864000D01*
X207303000Y-87824000D02*
X202145000Y-87824000D01*
X207302000Y-87784000D02*
X202146000Y-87784000D01*
X207300000Y-87744000D02*
X202148000Y-87744000D01*
X207297000Y-87704000D02*
X202151000Y-87704000D01*
X207293000Y-87664000D02*
X205764000Y-87664000D01*
X203684000Y-87664000D02*
X202155000Y-87664000D01*
X207289000Y-87624000D02*
X205764000Y-87624000D01*
X203684000Y-87624000D02*
X202159000Y-87624000D01*
X207285000Y-87584000D02*
X205764000Y-87584000D01*
X203684000Y-87584000D02*
X202163000Y-87584000D01*
X207280000Y-87544000D02*
X205764000Y-87544000D01*
X203684000Y-87544000D02*
X202168000Y-87544000D01*
X207274000Y-87504000D02*
X205764000Y-87504000D01*
X203684000Y-87504000D02*
X202174000Y-87504000D01*
X207267000Y-87464000D02*
X205764000Y-87464000D01*
X203684000Y-87464000D02*
X202181000Y-87464000D01*
X207260000Y-87424000D02*
X205764000Y-87424000D01*
X203684000Y-87424000D02*
X202188000Y-87424000D01*
X207252000Y-87384000D02*
X205764000Y-87384000D01*
X203684000Y-87384000D02*
X202196000Y-87384000D01*
X207244000Y-87344000D02*
X205764000Y-87344000D01*
X203684000Y-87344000D02*
X202204000Y-87344000D01*
X207235000Y-87304000D02*
X205764000Y-87304000D01*
X203684000Y-87304000D02*
X202213000Y-87304000D01*
X207225000Y-87264000D02*
X205764000Y-87264000D01*
X203684000Y-87264000D02*
X202223000Y-87264000D01*
X207215000Y-87224000D02*
X205764000Y-87224000D01*
X203684000Y-87224000D02*
X202233000Y-87224000D01*
X207204000Y-87183000D02*
X205764000Y-87183000D01*
X203684000Y-87183000D02*
X202244000Y-87183000D01*
X207192000Y-87143000D02*
X205764000Y-87143000D01*
X203684000Y-87143000D02*
X202256000Y-87143000D01*
X207179000Y-87103000D02*
X205764000Y-87103000D01*
X203684000Y-87103000D02*
X202269000Y-87103000D01*
X207166000Y-87063000D02*
X205764000Y-87063000D01*
X203684000Y-87063000D02*
X202282000Y-87063000D01*
X207152000Y-87023000D02*
X205764000Y-87023000D01*
X203684000Y-87023000D02*
X202296000Y-87023000D01*
X207138000Y-86983000D02*
X205764000Y-86983000D01*
X203684000Y-86983000D02*
X202310000Y-86983000D01*
X207122000Y-86943000D02*
X205764000Y-86943000D01*
X203684000Y-86943000D02*
X202326000Y-86943000D01*
X207106000Y-86903000D02*
X205764000Y-86903000D01*
X203684000Y-86903000D02*
X202342000Y-86903000D01*
X207089000Y-86863000D02*
X205764000Y-86863000D01*
X203684000Y-86863000D02*
X202359000Y-86863000D01*
X207072000Y-86823000D02*
X205764000Y-86823000D01*
X203684000Y-86823000D02*
X202376000Y-86823000D01*
X207053000Y-86783000D02*
X205764000Y-86783000D01*
X203684000Y-86783000D02*
X202395000Y-86783000D01*
X207034000Y-86743000D02*
X205764000Y-86743000D01*
X203684000Y-86743000D02*
X202414000Y-86743000D01*
X207014000Y-86703000D02*
X205764000Y-86703000D01*
X203684000Y-86703000D02*
X202434000Y-86703000D01*
X206992000Y-86663000D02*
X205764000Y-86663000D01*
X203684000Y-86663000D02*
X202456000Y-86663000D01*
X206971000Y-86623000D02*
X205764000Y-86623000D01*
X203684000Y-86623000D02*
X202477000Y-86623000D01*
X206948000Y-86583000D02*
X205764000Y-86583000D01*
X203684000Y-86583000D02*
X202500000Y-86583000D01*
X206924000Y-86543000D02*
X205764000Y-86543000D01*
X203684000Y-86543000D02*
X202524000Y-86543000D01*
X206899000Y-86503000D02*
X205764000Y-86503000D01*
X203684000Y-86503000D02*
X202549000Y-86503000D01*
X206873000Y-86463000D02*
X205764000Y-86463000D01*
X203684000Y-86463000D02*
X202575000Y-86463000D01*
X206846000Y-86423000D02*
X205764000Y-86423000D01*
X203684000Y-86423000D02*
X202602000Y-86423000D01*
X206819000Y-86383000D02*
X205764000Y-86383000D01*
X203684000Y-86383000D02*
X202629000Y-86383000D01*
X206789000Y-86343000D02*
X205764000Y-86343000D01*
X203684000Y-86343000D02*
X202659000Y-86343000D01*
X206759000Y-86303000D02*
X205764000Y-86303000D01*
X203684000Y-86303000D02*
X202689000Y-86303000D01*
X206728000Y-86263000D02*
X205764000Y-86263000D01*
X203684000Y-86263000D02*
X202720000Y-86263000D01*
X206695000Y-86223000D02*
X205764000Y-86223000D01*
X203684000Y-86223000D02*
X202753000Y-86223000D01*
X206661000Y-86183000D02*
X205764000Y-86183000D01*
X203684000Y-86183000D02*
X202787000Y-86183000D01*
X206625000Y-86143000D02*
X205764000Y-86143000D01*
X203684000Y-86143000D02*
X202823000Y-86143000D01*
X206588000Y-86103000D02*
X205764000Y-86103000D01*
X203684000Y-86103000D02*
X202860000Y-86103000D01*
X206550000Y-86063000D02*
X205764000Y-86063000D01*
X203684000Y-86063000D02*
X202898000Y-86063000D01*
X206509000Y-86023000D02*
X205764000Y-86023000D01*
X203684000Y-86023000D02*
X202939000Y-86023000D01*
X206467000Y-85983000D02*
X205764000Y-85983000D01*
X203684000Y-85983000D02*
X202981000Y-85983000D01*
X206423000Y-85943000D02*
X205764000Y-85943000D01*
X203684000Y-85943000D02*
X203025000Y-85943000D01*
X206377000Y-85903000D02*
X205764000Y-85903000D01*
X203684000Y-85903000D02*
X203071000Y-85903000D01*
X206329000Y-85863000D02*
X205764000Y-85863000D01*
X203684000Y-85863000D02*
X203119000Y-85863000D01*
X206278000Y-85823000D02*
X205764000Y-85823000D01*
X203684000Y-85823000D02*
X203170000Y-85823000D01*
X206224000Y-85783000D02*
X205764000Y-85783000D01*
X203684000Y-85783000D02*
X203224000Y-85783000D01*
X206167000Y-85743000D02*
X205764000Y-85743000D01*
X203684000Y-85743000D02*
X203281000Y-85743000D01*
X206107000Y-85703000D02*
X205764000Y-85703000D01*
X203684000Y-85703000D02*
X203341000Y-85703000D01*
X206043000Y-85663000D02*
X205764000Y-85663000D01*
X203684000Y-85663000D02*
X203405000Y-85663000D01*
X205975000Y-85623000D02*
X205764000Y-85623000D01*
X203684000Y-85623000D02*
X203473000Y-85623000D01*
X205902000Y-85583000D02*
X203546000Y-85583000D01*
X205822000Y-85543000D02*
X203626000Y-85543000D01*
X205735000Y-85503000D02*
X203713000Y-85503000D01*
X205639000Y-85463000D02*
X203809000Y-85463000D01*
X205529000Y-85423000D02*
X203919000Y-85423000D01*
X205401000Y-85383000D02*
X204047000Y-85383000D01*
X205242000Y-85343000D02*
X204206000Y-85343000D01*
X205008000Y-85303000D02*
X204440000Y-85303000D01*
X206199000Y-90708775D02*
X206199000Y-90208775D01*
X206449000Y-90458775D02*
X205949000Y-90458775D01*
%TO.C,C11*%
X204296000Y-81808000D02*
G75*
G03*
X204296000Y-81808000I-2620000J0D01*
G01*
X204256000Y-81808000D02*
X199096000Y-81808000D01*
X204256000Y-81768000D02*
X199096000Y-81768000D01*
X204255000Y-81728000D02*
X199097000Y-81728000D01*
X204254000Y-81688000D02*
X199098000Y-81688000D01*
X204252000Y-81648000D02*
X199100000Y-81648000D01*
X204249000Y-81608000D02*
X199103000Y-81608000D01*
X204245000Y-81568000D02*
X202716000Y-81568000D01*
X200636000Y-81568000D02*
X199107000Y-81568000D01*
X204241000Y-81528000D02*
X202716000Y-81528000D01*
X200636000Y-81528000D02*
X199111000Y-81528000D01*
X204237000Y-81488000D02*
X202716000Y-81488000D01*
X200636000Y-81488000D02*
X199115000Y-81488000D01*
X204232000Y-81448000D02*
X202716000Y-81448000D01*
X200636000Y-81448000D02*
X199120000Y-81448000D01*
X204226000Y-81408000D02*
X202716000Y-81408000D01*
X200636000Y-81408000D02*
X199126000Y-81408000D01*
X204219000Y-81368000D02*
X202716000Y-81368000D01*
X200636000Y-81368000D02*
X199133000Y-81368000D01*
X204212000Y-81328000D02*
X202716000Y-81328000D01*
X200636000Y-81328000D02*
X199140000Y-81328000D01*
X204204000Y-81288000D02*
X202716000Y-81288000D01*
X200636000Y-81288000D02*
X199148000Y-81288000D01*
X204196000Y-81248000D02*
X202716000Y-81248000D01*
X200636000Y-81248000D02*
X199156000Y-81248000D01*
X204187000Y-81208000D02*
X202716000Y-81208000D01*
X200636000Y-81208000D02*
X199165000Y-81208000D01*
X204177000Y-81168000D02*
X202716000Y-81168000D01*
X200636000Y-81168000D02*
X199175000Y-81168000D01*
X204167000Y-81128000D02*
X202716000Y-81128000D01*
X200636000Y-81128000D02*
X199185000Y-81128000D01*
X204156000Y-81087000D02*
X202716000Y-81087000D01*
X200636000Y-81087000D02*
X199196000Y-81087000D01*
X204144000Y-81047000D02*
X202716000Y-81047000D01*
X200636000Y-81047000D02*
X199208000Y-81047000D01*
X204131000Y-81007000D02*
X202716000Y-81007000D01*
X200636000Y-81007000D02*
X199221000Y-81007000D01*
X204118000Y-80967000D02*
X202716000Y-80967000D01*
X200636000Y-80967000D02*
X199234000Y-80967000D01*
X204104000Y-80927000D02*
X202716000Y-80927000D01*
X200636000Y-80927000D02*
X199248000Y-80927000D01*
X204090000Y-80887000D02*
X202716000Y-80887000D01*
X200636000Y-80887000D02*
X199262000Y-80887000D01*
X204074000Y-80847000D02*
X202716000Y-80847000D01*
X200636000Y-80847000D02*
X199278000Y-80847000D01*
X204058000Y-80807000D02*
X202716000Y-80807000D01*
X200636000Y-80807000D02*
X199294000Y-80807000D01*
X204041000Y-80767000D02*
X202716000Y-80767000D01*
X200636000Y-80767000D02*
X199311000Y-80767000D01*
X204024000Y-80727000D02*
X202716000Y-80727000D01*
X200636000Y-80727000D02*
X199328000Y-80727000D01*
X204005000Y-80687000D02*
X202716000Y-80687000D01*
X200636000Y-80687000D02*
X199347000Y-80687000D01*
X203986000Y-80647000D02*
X202716000Y-80647000D01*
X200636000Y-80647000D02*
X199366000Y-80647000D01*
X203966000Y-80607000D02*
X202716000Y-80607000D01*
X200636000Y-80607000D02*
X199386000Y-80607000D01*
X203944000Y-80567000D02*
X202716000Y-80567000D01*
X200636000Y-80567000D02*
X199408000Y-80567000D01*
X203923000Y-80527000D02*
X202716000Y-80527000D01*
X200636000Y-80527000D02*
X199429000Y-80527000D01*
X203900000Y-80487000D02*
X202716000Y-80487000D01*
X200636000Y-80487000D02*
X199452000Y-80487000D01*
X203876000Y-80447000D02*
X202716000Y-80447000D01*
X200636000Y-80447000D02*
X199476000Y-80447000D01*
X203851000Y-80407000D02*
X202716000Y-80407000D01*
X200636000Y-80407000D02*
X199501000Y-80407000D01*
X203825000Y-80367000D02*
X202716000Y-80367000D01*
X200636000Y-80367000D02*
X199527000Y-80367000D01*
X203798000Y-80327000D02*
X202716000Y-80327000D01*
X200636000Y-80327000D02*
X199554000Y-80327000D01*
X203771000Y-80287000D02*
X202716000Y-80287000D01*
X200636000Y-80287000D02*
X199581000Y-80287000D01*
X203741000Y-80247000D02*
X202716000Y-80247000D01*
X200636000Y-80247000D02*
X199611000Y-80247000D01*
X203711000Y-80207000D02*
X202716000Y-80207000D01*
X200636000Y-80207000D02*
X199641000Y-80207000D01*
X203680000Y-80167000D02*
X202716000Y-80167000D01*
X200636000Y-80167000D02*
X199672000Y-80167000D01*
X203647000Y-80127000D02*
X202716000Y-80127000D01*
X200636000Y-80127000D02*
X199705000Y-80127000D01*
X203613000Y-80087000D02*
X202716000Y-80087000D01*
X200636000Y-80087000D02*
X199739000Y-80087000D01*
X203577000Y-80047000D02*
X202716000Y-80047000D01*
X200636000Y-80047000D02*
X199775000Y-80047000D01*
X203540000Y-80007000D02*
X202716000Y-80007000D01*
X200636000Y-80007000D02*
X199812000Y-80007000D01*
X203502000Y-79967000D02*
X202716000Y-79967000D01*
X200636000Y-79967000D02*
X199850000Y-79967000D01*
X203461000Y-79927000D02*
X202716000Y-79927000D01*
X200636000Y-79927000D02*
X199891000Y-79927000D01*
X203419000Y-79887000D02*
X202716000Y-79887000D01*
X200636000Y-79887000D02*
X199933000Y-79887000D01*
X203375000Y-79847000D02*
X202716000Y-79847000D01*
X200636000Y-79847000D02*
X199977000Y-79847000D01*
X203329000Y-79807000D02*
X202716000Y-79807000D01*
X200636000Y-79807000D02*
X200023000Y-79807000D01*
X203281000Y-79767000D02*
X202716000Y-79767000D01*
X200636000Y-79767000D02*
X200071000Y-79767000D01*
X203230000Y-79727000D02*
X202716000Y-79727000D01*
X200636000Y-79727000D02*
X200122000Y-79727000D01*
X203176000Y-79687000D02*
X202716000Y-79687000D01*
X200636000Y-79687000D02*
X200176000Y-79687000D01*
X203119000Y-79647000D02*
X202716000Y-79647000D01*
X200636000Y-79647000D02*
X200233000Y-79647000D01*
X203059000Y-79607000D02*
X202716000Y-79607000D01*
X200636000Y-79607000D02*
X200293000Y-79607000D01*
X202995000Y-79567000D02*
X202716000Y-79567000D01*
X200636000Y-79567000D02*
X200357000Y-79567000D01*
X202927000Y-79527000D02*
X202716000Y-79527000D01*
X200636000Y-79527000D02*
X200425000Y-79527000D01*
X202854000Y-79487000D02*
X200498000Y-79487000D01*
X202774000Y-79447000D02*
X200578000Y-79447000D01*
X202687000Y-79407000D02*
X200665000Y-79407000D01*
X202591000Y-79367000D02*
X200761000Y-79367000D01*
X202481000Y-79327000D02*
X200871000Y-79327000D01*
X202353000Y-79287000D02*
X200999000Y-79287000D01*
X202194000Y-79247000D02*
X201158000Y-79247000D01*
X201960000Y-79207000D02*
X201392000Y-79207000D01*
X203151000Y-84612775D02*
X203151000Y-84112775D01*
X203401000Y-84362775D02*
X202901000Y-84362775D01*
%TO.C,FB1*%
X205690000Y-70080000D02*
X203250000Y-70080000D01*
X203250000Y-70080000D02*
X203250000Y-64540000D01*
X203250000Y-64540000D02*
X205690000Y-64540000D01*
X205690000Y-64540000D02*
X205690000Y-70080000D01*
%TO.C,FB2*%
X205690000Y-50062000D02*
X205690000Y-55602000D01*
X203250000Y-50062000D02*
X205690000Y-50062000D01*
X203250000Y-55602000D02*
X203250000Y-50062000D01*
X205690000Y-55602000D02*
X203250000Y-55602000D01*
%TO.C,FB3*%
X202134000Y-62714000D02*
X199694000Y-62714000D01*
X199694000Y-62714000D02*
X199694000Y-57174000D01*
X199694000Y-57174000D02*
X202134000Y-57174000D01*
X202134000Y-57174000D02*
X202134000Y-62714000D01*
%TO.C,J3*%
X198132000Y-46866000D02*
X207252000Y-46866000D01*
X207252000Y-46866000D02*
X207252000Y-18666000D01*
X207252000Y-18666000D02*
X198132000Y-18666000D01*
X198132000Y-18666000D02*
X198132000Y-46866000D01*
X198132000Y-34816000D02*
X199442000Y-34816000D01*
X199442000Y-34816000D02*
X199442000Y-45566000D01*
X199442000Y-45566000D02*
X205942000Y-45566000D01*
X205942000Y-45566000D02*
X205942000Y-19966000D01*
X205942000Y-19966000D02*
X199442000Y-19966000D01*
X199442000Y-19966000D02*
X199442000Y-30716000D01*
X199442000Y-30716000D02*
X199442000Y-30716000D01*
X199442000Y-30716000D02*
X198132000Y-30716000D01*
X197742000Y-41656000D02*
X196742000Y-42156000D01*
X196742000Y-42156000D02*
X196742000Y-41156000D01*
X196742000Y-41156000D02*
X197742000Y-41656000D01*
%TO.C,R1*%
X133970000Y-96932000D02*
X133970000Y-95092000D01*
X133970000Y-95092000D02*
X137810000Y-95092000D01*
X137810000Y-95092000D02*
X137810000Y-96932000D01*
X137810000Y-96932000D02*
X133970000Y-96932000D01*
X133020000Y-96012000D02*
X133970000Y-96012000D01*
X138760000Y-96012000D02*
X137810000Y-96012000D01*
%TO.C,R2*%
X138760000Y-100330000D02*
X137810000Y-100330000D01*
X133020000Y-100330000D02*
X133970000Y-100330000D01*
X137810000Y-101250000D02*
X133970000Y-101250000D01*
X137810000Y-99410000D02*
X137810000Y-101250000D01*
X133970000Y-99410000D02*
X137810000Y-99410000D01*
X133970000Y-101250000D02*
X133970000Y-99410000D01*
%TO.C,R3*%
X150952000Y-109728000D02*
X150002000Y-109728000D01*
X145212000Y-109728000D02*
X146162000Y-109728000D01*
X150002000Y-110648000D02*
X146162000Y-110648000D01*
X150002000Y-108808000D02*
X150002000Y-110648000D01*
X146162000Y-108808000D02*
X150002000Y-108808000D01*
X146162000Y-110648000D02*
X146162000Y-108808000D01*
%TO.C,R4*%
X146162000Y-106330000D02*
X146162000Y-104490000D01*
X146162000Y-104490000D02*
X150002000Y-104490000D01*
X150002000Y-104490000D02*
X150002000Y-106330000D01*
X150002000Y-106330000D02*
X146162000Y-106330000D01*
X145212000Y-105410000D02*
X146162000Y-105410000D01*
X150952000Y-105410000D02*
X150002000Y-105410000D01*
%TO.C,R5*%
X156388000Y-84582000D02*
X157338000Y-84582000D01*
X162128000Y-84582000D02*
X161178000Y-84582000D01*
X157338000Y-83662000D02*
X161178000Y-83662000D01*
X157338000Y-85502000D02*
X157338000Y-83662000D01*
X161178000Y-85502000D02*
X157338000Y-85502000D01*
X161178000Y-83662000D02*
X161178000Y-85502000D01*
%TO.C,R6*%
X161178000Y-100934000D02*
X161178000Y-102774000D01*
X161178000Y-102774000D02*
X157338000Y-102774000D01*
X157338000Y-102774000D02*
X157338000Y-100934000D01*
X157338000Y-100934000D02*
X161178000Y-100934000D01*
X162128000Y-101854000D02*
X161178000Y-101854000D01*
X156388000Y-101854000D02*
X157338000Y-101854000D01*
%TO.C,R7*%
X169022000Y-110648000D02*
X169022000Y-108808000D01*
X169022000Y-108808000D02*
X172862000Y-108808000D01*
X172862000Y-108808000D02*
X172862000Y-110648000D01*
X172862000Y-110648000D02*
X169022000Y-110648000D01*
X168072000Y-109728000D02*
X169022000Y-109728000D01*
X173812000Y-109728000D02*
X172862000Y-109728000D01*
%TO.C,R8*%
X173812000Y-105410000D02*
X172862000Y-105410000D01*
X168072000Y-105410000D02*
X169022000Y-105410000D01*
X172862000Y-106330000D02*
X169022000Y-106330000D01*
X172862000Y-104490000D02*
X172862000Y-106330000D01*
X169022000Y-104490000D02*
X172862000Y-104490000D01*
X169022000Y-106330000D02*
X169022000Y-104490000D01*
%TO.C,R9*%
X184038000Y-83408000D02*
X184038000Y-85248000D01*
X184038000Y-85248000D02*
X180198000Y-85248000D01*
X180198000Y-85248000D02*
X180198000Y-83408000D01*
X180198000Y-83408000D02*
X184038000Y-83408000D01*
X184988000Y-84328000D02*
X184038000Y-84328000D01*
X179248000Y-84328000D02*
X180198000Y-84328000D01*
%TO.C,R10*%
X179248000Y-101854000D02*
X180198000Y-101854000D01*
X184988000Y-101854000D02*
X184038000Y-101854000D01*
X180198000Y-100934000D02*
X184038000Y-100934000D01*
X180198000Y-102774000D02*
X180198000Y-100934000D01*
X184038000Y-102774000D02*
X180198000Y-102774000D01*
X184038000Y-100934000D02*
X184038000Y-102774000D01*
%TO.C,R11*%
X196672000Y-109728000D02*
X195722000Y-109728000D01*
X190932000Y-109728000D02*
X191882000Y-109728000D01*
X195722000Y-110648000D02*
X191882000Y-110648000D01*
X195722000Y-108808000D02*
X195722000Y-110648000D01*
X191882000Y-108808000D02*
X195722000Y-108808000D01*
X191882000Y-110648000D02*
X191882000Y-108808000D01*
%TO.C,R12*%
X191882000Y-106584000D02*
X191882000Y-104744000D01*
X191882000Y-104744000D02*
X195722000Y-104744000D01*
X195722000Y-104744000D02*
X195722000Y-106584000D01*
X195722000Y-106584000D02*
X191882000Y-106584000D01*
X190932000Y-105664000D02*
X191882000Y-105664000D01*
X196672000Y-105664000D02*
X195722000Y-105664000D01*
%TO.C,R13*%
X138760000Y-87122000D02*
X137810000Y-87122000D01*
X133020000Y-87122000D02*
X133970000Y-87122000D01*
X137810000Y-88042000D02*
X133970000Y-88042000D01*
X137810000Y-86202000D02*
X137810000Y-88042000D01*
X133970000Y-86202000D02*
X137810000Y-86202000D01*
X133970000Y-88042000D02*
X133970000Y-86202000D01*
%TO.C,R14*%
X137810000Y-90266000D02*
X137810000Y-92106000D01*
X137810000Y-92106000D02*
X133970000Y-92106000D01*
X133970000Y-92106000D02*
X133970000Y-90266000D01*
X133970000Y-90266000D02*
X137810000Y-90266000D01*
X138760000Y-91186000D02*
X137810000Y-91186000D01*
X133020000Y-91186000D02*
X133970000Y-91186000D01*
%TO.C,R15*%
X146162000Y-115982000D02*
X146162000Y-114142000D01*
X146162000Y-114142000D02*
X150002000Y-114142000D01*
X150002000Y-114142000D02*
X150002000Y-115982000D01*
X150002000Y-115982000D02*
X146162000Y-115982000D01*
X145212000Y-115062000D02*
X146162000Y-115062000D01*
X150952000Y-115062000D02*
X150002000Y-115062000D01*
%TO.C,R16*%
X150952000Y-101092000D02*
X150002000Y-101092000D01*
X145212000Y-101092000D02*
X146162000Y-101092000D01*
X150002000Y-102012000D02*
X146162000Y-102012000D01*
X150002000Y-100172000D02*
X150002000Y-102012000D01*
X146162000Y-100172000D02*
X150002000Y-100172000D01*
X146162000Y-102012000D02*
X146162000Y-100172000D01*
%TO.C,R17*%
X161178000Y-96616000D02*
X161178000Y-98456000D01*
X161178000Y-98456000D02*
X157338000Y-98456000D01*
X157338000Y-98456000D02*
X157338000Y-96616000D01*
X157338000Y-96616000D02*
X161178000Y-96616000D01*
X162128000Y-97536000D02*
X161178000Y-97536000D01*
X156388000Y-97536000D02*
X157338000Y-97536000D01*
%TO.C,R18*%
X156388000Y-92964000D02*
X157338000Y-92964000D01*
X162128000Y-92964000D02*
X161178000Y-92964000D01*
X157338000Y-92044000D02*
X161178000Y-92044000D01*
X157338000Y-93884000D02*
X157338000Y-92044000D01*
X161178000Y-93884000D02*
X157338000Y-93884000D01*
X161178000Y-92044000D02*
X161178000Y-93884000D01*
%TO.C,R19*%
X173812000Y-115062000D02*
X172862000Y-115062000D01*
X168072000Y-115062000D02*
X169022000Y-115062000D01*
X172862000Y-115982000D02*
X169022000Y-115982000D01*
X172862000Y-114142000D02*
X172862000Y-115982000D01*
X169022000Y-114142000D02*
X172862000Y-114142000D01*
X169022000Y-115982000D02*
X169022000Y-114142000D01*
%TO.C,R20*%
X169022000Y-102012000D02*
X169022000Y-100172000D01*
X169022000Y-100172000D02*
X172862000Y-100172000D01*
X172862000Y-100172000D02*
X172862000Y-102012000D01*
X172862000Y-102012000D02*
X169022000Y-102012000D01*
X168072000Y-101092000D02*
X169022000Y-101092000D01*
X173812000Y-101092000D02*
X172862000Y-101092000D01*
%TO.C,R21*%
X179248000Y-97536000D02*
X180198000Y-97536000D01*
X184988000Y-97536000D02*
X184038000Y-97536000D01*
X180198000Y-96616000D02*
X184038000Y-96616000D01*
X180198000Y-98456000D02*
X180198000Y-96616000D01*
X184038000Y-98456000D02*
X180198000Y-98456000D01*
X184038000Y-96616000D02*
X184038000Y-98456000D01*
%TO.C,R22*%
X184038000Y-92044000D02*
X184038000Y-93884000D01*
X184038000Y-93884000D02*
X180198000Y-93884000D01*
X180198000Y-93884000D02*
X180198000Y-92044000D01*
X180198000Y-92044000D02*
X184038000Y-92044000D01*
X184988000Y-92964000D02*
X184038000Y-92964000D01*
X179248000Y-92964000D02*
X180198000Y-92964000D01*
%TO.C,R23*%
X196672000Y-115062000D02*
X195722000Y-115062000D01*
X190932000Y-115062000D02*
X191882000Y-115062000D01*
X195722000Y-115982000D02*
X191882000Y-115982000D01*
X195722000Y-114142000D02*
X195722000Y-115982000D01*
X191882000Y-114142000D02*
X195722000Y-114142000D01*
X191882000Y-115982000D02*
X191882000Y-114142000D01*
%TO.C,R24*%
X191882000Y-102012000D02*
X191882000Y-100172000D01*
X191882000Y-100172000D02*
X195722000Y-100172000D01*
X195722000Y-100172000D02*
X195722000Y-102012000D01*
X195722000Y-102012000D02*
X191882000Y-102012000D01*
X190932000Y-101092000D02*
X191882000Y-101092000D01*
X196672000Y-101092000D02*
X195722000Y-101092000D01*
%TO.C,R37*%
X210744000Y-19050000D02*
X211694000Y-19050000D01*
X216484000Y-19050000D02*
X215534000Y-19050000D01*
X211694000Y-18130000D02*
X215534000Y-18130000D01*
X211694000Y-19970000D02*
X211694000Y-18130000D01*
X215534000Y-19970000D02*
X211694000Y-19970000D01*
X215534000Y-18130000D02*
X215534000Y-19970000D01*
%TO.C,R38*%
X215534000Y-20924000D02*
X215534000Y-22764000D01*
X215534000Y-22764000D02*
X211694000Y-22764000D01*
X211694000Y-22764000D02*
X211694000Y-20924000D01*
X211694000Y-20924000D02*
X215534000Y-20924000D01*
X216484000Y-21844000D02*
X215534000Y-21844000D01*
X210744000Y-21844000D02*
X211694000Y-21844000D01*
%TO.C,R39*%
X210744000Y-24638000D02*
X211694000Y-24638000D01*
X216484000Y-24638000D02*
X215534000Y-24638000D01*
X211694000Y-23718000D02*
X215534000Y-23718000D01*
X211694000Y-25558000D02*
X211694000Y-23718000D01*
X215534000Y-25558000D02*
X211694000Y-25558000D01*
X215534000Y-23718000D02*
X215534000Y-25558000D01*
%TO.C,R40*%
X210744000Y-27432000D02*
X211694000Y-27432000D01*
X216484000Y-27432000D02*
X215534000Y-27432000D01*
X211694000Y-26512000D02*
X215534000Y-26512000D01*
X211694000Y-28352000D02*
X211694000Y-26512000D01*
X215534000Y-28352000D02*
X211694000Y-28352000D01*
X215534000Y-26512000D02*
X215534000Y-28352000D01*
%TO.C,R41*%
X215534000Y-29306000D02*
X215534000Y-31146000D01*
X215534000Y-31146000D02*
X211694000Y-31146000D01*
X211694000Y-31146000D02*
X211694000Y-29306000D01*
X211694000Y-29306000D02*
X215534000Y-29306000D01*
X216484000Y-30226000D02*
X215534000Y-30226000D01*
X210744000Y-30226000D02*
X211694000Y-30226000D01*
%TO.C,R42*%
X210744000Y-33020000D02*
X211694000Y-33020000D01*
X216484000Y-33020000D02*
X215534000Y-33020000D01*
X211694000Y-32100000D02*
X215534000Y-32100000D01*
X211694000Y-33940000D02*
X211694000Y-32100000D01*
X215534000Y-33940000D02*
X211694000Y-33940000D01*
X215534000Y-32100000D02*
X215534000Y-33940000D01*
%TO.C,R43*%
X215534000Y-34894000D02*
X215534000Y-36734000D01*
X215534000Y-36734000D02*
X211694000Y-36734000D01*
X211694000Y-36734000D02*
X211694000Y-34894000D01*
X211694000Y-34894000D02*
X215534000Y-34894000D01*
X216484000Y-35814000D02*
X215534000Y-35814000D01*
X210744000Y-35814000D02*
X211694000Y-35814000D01*
%TO.C,R44*%
X215534000Y-37688000D02*
X215534000Y-39528000D01*
X215534000Y-39528000D02*
X211694000Y-39528000D01*
X211694000Y-39528000D02*
X211694000Y-37688000D01*
X211694000Y-37688000D02*
X215534000Y-37688000D01*
X216484000Y-38608000D02*
X215534000Y-38608000D01*
X210744000Y-38608000D02*
X211694000Y-38608000D01*
%TO.C,R45*%
X215534000Y-40482000D02*
X215534000Y-42322000D01*
X215534000Y-42322000D02*
X211694000Y-42322000D01*
X211694000Y-42322000D02*
X211694000Y-40482000D01*
X211694000Y-40482000D02*
X215534000Y-40482000D01*
X216484000Y-41402000D02*
X215534000Y-41402000D01*
X210744000Y-41402000D02*
X211694000Y-41402000D01*
%TO.C,R46*%
X210744000Y-44196000D02*
X211694000Y-44196000D01*
X216484000Y-44196000D02*
X215534000Y-44196000D01*
X211694000Y-43276000D02*
X215534000Y-43276000D01*
X211694000Y-45116000D02*
X211694000Y-43276000D01*
X215534000Y-45116000D02*
X211694000Y-45116000D01*
X215534000Y-43276000D02*
X215534000Y-45116000D01*
%TO.C,R47*%
X226710000Y-18130000D02*
X226710000Y-19970000D01*
X226710000Y-19970000D02*
X222870000Y-19970000D01*
X222870000Y-19970000D02*
X222870000Y-18130000D01*
X222870000Y-18130000D02*
X226710000Y-18130000D01*
X227660000Y-19050000D02*
X226710000Y-19050000D01*
X221920000Y-19050000D02*
X222870000Y-19050000D01*
%TO.C,R48*%
X221920000Y-21844000D02*
X222870000Y-21844000D01*
X227660000Y-21844000D02*
X226710000Y-21844000D01*
X222870000Y-20924000D02*
X226710000Y-20924000D01*
X222870000Y-22764000D02*
X222870000Y-20924000D01*
X226710000Y-22764000D02*
X222870000Y-22764000D01*
X226710000Y-20924000D02*
X226710000Y-22764000D01*
%TO.C,R49*%
X226710000Y-23718000D02*
X226710000Y-25558000D01*
X226710000Y-25558000D02*
X222870000Y-25558000D01*
X222870000Y-25558000D02*
X222870000Y-23718000D01*
X222870000Y-23718000D02*
X226710000Y-23718000D01*
X227660000Y-24638000D02*
X226710000Y-24638000D01*
X221920000Y-24638000D02*
X222870000Y-24638000D01*
%TO.C,R50*%
X221920000Y-27432000D02*
X222870000Y-27432000D01*
X227660000Y-27432000D02*
X226710000Y-27432000D01*
X222870000Y-26512000D02*
X226710000Y-26512000D01*
X222870000Y-28352000D02*
X222870000Y-26512000D01*
X226710000Y-28352000D02*
X222870000Y-28352000D01*
X226710000Y-26512000D02*
X226710000Y-28352000D01*
%TO.C,R51*%
X226710000Y-29306000D02*
X226710000Y-31146000D01*
X226710000Y-31146000D02*
X222870000Y-31146000D01*
X222870000Y-31146000D02*
X222870000Y-29306000D01*
X222870000Y-29306000D02*
X226710000Y-29306000D01*
X227660000Y-30226000D02*
X226710000Y-30226000D01*
X221920000Y-30226000D02*
X222870000Y-30226000D01*
%TO.C,R52*%
X221920000Y-33020000D02*
X222870000Y-33020000D01*
X227660000Y-33020000D02*
X226710000Y-33020000D01*
X222870000Y-32100000D02*
X226710000Y-32100000D01*
X222870000Y-33940000D02*
X222870000Y-32100000D01*
X226710000Y-33940000D02*
X222870000Y-33940000D01*
X226710000Y-32100000D02*
X226710000Y-33940000D01*
%TO.C,R53*%
X226710000Y-34894000D02*
X226710000Y-36734000D01*
X226710000Y-36734000D02*
X222870000Y-36734000D01*
X222870000Y-36734000D02*
X222870000Y-34894000D01*
X222870000Y-34894000D02*
X226710000Y-34894000D01*
X227660000Y-35814000D02*
X226710000Y-35814000D01*
X221920000Y-35814000D02*
X222870000Y-35814000D01*
%TO.C,R54*%
X221920000Y-38608000D02*
X222870000Y-38608000D01*
X227660000Y-38608000D02*
X226710000Y-38608000D01*
X222870000Y-37688000D02*
X226710000Y-37688000D01*
X222870000Y-39528000D02*
X222870000Y-37688000D01*
X226710000Y-39528000D02*
X222870000Y-39528000D01*
X226710000Y-37688000D02*
X226710000Y-39528000D01*
%TO.C,R55*%
X226710000Y-40482000D02*
X226710000Y-42322000D01*
X226710000Y-42322000D02*
X222870000Y-42322000D01*
X222870000Y-42322000D02*
X222870000Y-40482000D01*
X222870000Y-40482000D02*
X226710000Y-40482000D01*
X227660000Y-41402000D02*
X226710000Y-41402000D01*
X221920000Y-41402000D02*
X222870000Y-41402000D01*
%TO.C,R56*%
X221920000Y-44196000D02*
X222870000Y-44196000D01*
X227660000Y-44196000D02*
X226710000Y-44196000D01*
X222870000Y-43276000D02*
X226710000Y-43276000D01*
X222870000Y-45116000D02*
X222870000Y-43276000D01*
X226710000Y-45116000D02*
X222870000Y-45116000D01*
X226710000Y-43276000D02*
X226710000Y-45116000D01*
%TO.C,U7*%
X228974000Y-87714000D02*
X228974000Y-98214000D01*
X210954000Y-87714000D02*
X228974000Y-87714000D01*
X210954000Y-98214000D02*
X210954000Y-87714000D01*
X228974000Y-98214000D02*
X210954000Y-98214000D01*
X228914000Y-90714000D02*
X228914000Y-91964000D01*
X211014000Y-90714000D02*
X228914000Y-90714000D01*
X211014000Y-95214000D02*
X211014000Y-90714000D01*
X228914000Y-95214000D02*
X211014000Y-95214000D01*
X228914000Y-93964000D02*
X228914000Y-95214000D01*
X228914000Y-91964000D02*
G75*
G03*
X228914000Y-93964000I0J-1000000D01*
G01*
%TO.C,U8*%
X221250000Y-66100000D02*
X220000000Y-66100000D01*
X220000000Y-66100000D02*
X220000000Y-48200000D01*
X220000000Y-48200000D02*
X224500000Y-48200000D01*
X224500000Y-48200000D02*
X224500000Y-66100000D01*
X224500000Y-66100000D02*
X223250000Y-66100000D01*
X217000000Y-66160000D02*
X217000000Y-48140000D01*
X217000000Y-48140000D02*
X227500000Y-48140000D01*
X227500000Y-48140000D02*
X227500000Y-66160000D01*
X227500000Y-66160000D02*
X217000000Y-66160000D01*
X223250000Y-66100000D02*
G75*
G03*
X221250000Y-66100000I-1000000J0D01*
G01*
%TO.C,U9*%
X210328000Y-66100000D02*
X209078000Y-66100000D01*
X209078000Y-66100000D02*
X209078000Y-48200000D01*
X209078000Y-48200000D02*
X213578000Y-48200000D01*
X213578000Y-48200000D02*
X213578000Y-66100000D01*
X213578000Y-66100000D02*
X212328000Y-66100000D01*
X206078000Y-66160000D02*
X206078000Y-48140000D01*
X206078000Y-48140000D02*
X216578000Y-48140000D01*
X216578000Y-48140000D02*
X216578000Y-66160000D01*
X216578000Y-66160000D02*
X206078000Y-66160000D01*
X212328000Y-66100000D02*
G75*
G03*
X210328000Y-66100000I-1000000J0D01*
G01*
%TO.C,C1*%
D11*
X136778666Y-34393142D02*
X136826285Y-34440761D01*
X136969142Y-34488380D01*
X137064380Y-34488380D01*
X137207238Y-34440761D01*
X137302476Y-34345523D01*
X137350095Y-34250285D01*
X137397714Y-34059809D01*
X137397714Y-33916952D01*
X137350095Y-33726476D01*
X137302476Y-33631238D01*
X137207238Y-33536000D01*
X137064380Y-33488380D01*
X136969142Y-33488380D01*
X136826285Y-33536000D01*
X136778666Y-33583619D01*
X135826285Y-34488380D02*
X136397714Y-34488380D01*
X136112000Y-34488380D02*
X136112000Y-33488380D01*
X136207238Y-33631238D01*
X136302476Y-33726476D01*
X136397714Y-33774095D01*
%TO.C,C2*%
X148208666Y-34393142D02*
X148256285Y-34440761D01*
X148399142Y-34488380D01*
X148494380Y-34488380D01*
X148637238Y-34440761D01*
X148732476Y-34345523D01*
X148780095Y-34250285D01*
X148827714Y-34059809D01*
X148827714Y-33916952D01*
X148780095Y-33726476D01*
X148732476Y-33631238D01*
X148637238Y-33536000D01*
X148494380Y-33488380D01*
X148399142Y-33488380D01*
X148256285Y-33536000D01*
X148208666Y-33583619D01*
X147827714Y-33583619D02*
X147780095Y-33536000D01*
X147684857Y-33488380D01*
X147446761Y-33488380D01*
X147351523Y-33536000D01*
X147303904Y-33583619D01*
X147256285Y-33678857D01*
X147256285Y-33774095D01*
X147303904Y-33916952D01*
X147875333Y-34488380D01*
X147256285Y-34488380D01*
%TO.C,C3*%
X159892666Y-34393142D02*
X159940285Y-34440761D01*
X160083142Y-34488380D01*
X160178380Y-34488380D01*
X160321238Y-34440761D01*
X160416476Y-34345523D01*
X160464095Y-34250285D01*
X160511714Y-34059809D01*
X160511714Y-33916952D01*
X160464095Y-33726476D01*
X160416476Y-33631238D01*
X160321238Y-33536000D01*
X160178380Y-33488380D01*
X160083142Y-33488380D01*
X159940285Y-33536000D01*
X159892666Y-33583619D01*
X159559333Y-33488380D02*
X158940285Y-33488380D01*
X159273619Y-33869333D01*
X159130761Y-33869333D01*
X159035523Y-33916952D01*
X158987904Y-33964571D01*
X158940285Y-34059809D01*
X158940285Y-34297904D01*
X158987904Y-34393142D01*
X159035523Y-34440761D01*
X159130761Y-34488380D01*
X159416476Y-34488380D01*
X159511714Y-34440761D01*
X159559333Y-34393142D01*
%TO.C,C4*%
X171068666Y-34393142D02*
X171116285Y-34440761D01*
X171259142Y-34488380D01*
X171354380Y-34488380D01*
X171497238Y-34440761D01*
X171592476Y-34345523D01*
X171640095Y-34250285D01*
X171687714Y-34059809D01*
X171687714Y-33916952D01*
X171640095Y-33726476D01*
X171592476Y-33631238D01*
X171497238Y-33536000D01*
X171354380Y-33488380D01*
X171259142Y-33488380D01*
X171116285Y-33536000D01*
X171068666Y-33583619D01*
X170211523Y-33821714D02*
X170211523Y-34488380D01*
X170449619Y-33440761D02*
X170687714Y-34155047D01*
X170068666Y-34155047D01*
%TO.C,C5*%
X182498666Y-34393142D02*
X182546285Y-34440761D01*
X182689142Y-34488380D01*
X182784380Y-34488380D01*
X182927238Y-34440761D01*
X183022476Y-34345523D01*
X183070095Y-34250285D01*
X183117714Y-34059809D01*
X183117714Y-33916952D01*
X183070095Y-33726476D01*
X183022476Y-33631238D01*
X182927238Y-33536000D01*
X182784380Y-33488380D01*
X182689142Y-33488380D01*
X182546285Y-33536000D01*
X182498666Y-33583619D01*
X181593904Y-33488380D02*
X182070095Y-33488380D01*
X182117714Y-33964571D01*
X182070095Y-33916952D01*
X181974857Y-33869333D01*
X181736761Y-33869333D01*
X181641523Y-33916952D01*
X181593904Y-33964571D01*
X181546285Y-34059809D01*
X181546285Y-34297904D01*
X181593904Y-34393142D01*
X181641523Y-34440761D01*
X181736761Y-34488380D01*
X181974857Y-34488380D01*
X182070095Y-34440761D01*
X182117714Y-34393142D01*
%TO.C,C6*%
X193928666Y-34393142D02*
X193976285Y-34440761D01*
X194119142Y-34488380D01*
X194214380Y-34488380D01*
X194357238Y-34440761D01*
X194452476Y-34345523D01*
X194500095Y-34250285D01*
X194547714Y-34059809D01*
X194547714Y-33916952D01*
X194500095Y-33726476D01*
X194452476Y-33631238D01*
X194357238Y-33536000D01*
X194214380Y-33488380D01*
X194119142Y-33488380D01*
X193976285Y-33536000D01*
X193928666Y-33583619D01*
X193071523Y-33488380D02*
X193262000Y-33488380D01*
X193357238Y-33536000D01*
X193404857Y-33583619D01*
X193500095Y-33726476D01*
X193547714Y-33916952D01*
X193547714Y-34297904D01*
X193500095Y-34393142D01*
X193452476Y-34440761D01*
X193357238Y-34488380D01*
X193166761Y-34488380D01*
X193071523Y-34440761D01*
X193023904Y-34393142D01*
X192976285Y-34297904D01*
X192976285Y-34059809D01*
X193023904Y-33964571D01*
X193071523Y-33916952D01*
X193166761Y-33869333D01*
X193357238Y-33869333D01*
X193452476Y-33916952D01*
X193500095Y-33964571D01*
X193547714Y-34059809D01*
%TO.C,C9*%
X204890666Y-79351142D02*
X204938285Y-79398761D01*
X205081142Y-79446380D01*
X205176380Y-79446380D01*
X205319238Y-79398761D01*
X205414476Y-79303523D01*
X205462095Y-79208285D01*
X205509714Y-79017809D01*
X205509714Y-78874952D01*
X205462095Y-78684476D01*
X205414476Y-78589238D01*
X205319238Y-78494000D01*
X205176380Y-78446380D01*
X205081142Y-78446380D01*
X204938285Y-78494000D01*
X204890666Y-78541619D01*
X204414476Y-79446380D02*
X204224000Y-79446380D01*
X204128761Y-79398761D01*
X204081142Y-79351142D01*
X203985904Y-79208285D01*
X203938285Y-79017809D01*
X203938285Y-78636857D01*
X203985904Y-78541619D01*
X204033523Y-78494000D01*
X204128761Y-78446380D01*
X204319238Y-78446380D01*
X204414476Y-78494000D01*
X204462095Y-78541619D01*
X204509714Y-78636857D01*
X204509714Y-78874952D01*
X204462095Y-78970190D01*
X204414476Y-79017809D01*
X204319238Y-79065428D01*
X204128761Y-79065428D01*
X204033523Y-79017809D01*
X203985904Y-78970190D01*
X203938285Y-78874952D01*
%TO.C,C10*%
X205112857Y-92051142D02*
X205160476Y-92098761D01*
X205303333Y-92146380D01*
X205398571Y-92146380D01*
X205541428Y-92098761D01*
X205636666Y-92003523D01*
X205684285Y-91908285D01*
X205731904Y-91717809D01*
X205731904Y-91574952D01*
X205684285Y-91384476D01*
X205636666Y-91289238D01*
X205541428Y-91194000D01*
X205398571Y-91146380D01*
X205303333Y-91146380D01*
X205160476Y-91194000D01*
X205112857Y-91241619D01*
X204160476Y-92146380D02*
X204731904Y-92146380D01*
X204446190Y-92146380D02*
X204446190Y-91146380D01*
X204541428Y-91289238D01*
X204636666Y-91384476D01*
X204731904Y-91432095D01*
X203541428Y-91146380D02*
X203446190Y-91146380D01*
X203350952Y-91194000D01*
X203303333Y-91241619D01*
X203255714Y-91336857D01*
X203208095Y-91527333D01*
X203208095Y-91765428D01*
X203255714Y-91955904D01*
X203303333Y-92051142D01*
X203350952Y-92098761D01*
X203446190Y-92146380D01*
X203541428Y-92146380D01*
X203636666Y-92098761D01*
X203684285Y-92051142D01*
X203731904Y-91955904D01*
X203779523Y-91765428D01*
X203779523Y-91527333D01*
X203731904Y-91336857D01*
X203684285Y-91241619D01*
X203636666Y-91194000D01*
X203541428Y-91146380D01*
%TO.C,C11*%
X202064857Y-85701142D02*
X202112476Y-85748761D01*
X202255333Y-85796380D01*
X202350571Y-85796380D01*
X202493428Y-85748761D01*
X202588666Y-85653523D01*
X202636285Y-85558285D01*
X202683904Y-85367809D01*
X202683904Y-85224952D01*
X202636285Y-85034476D01*
X202588666Y-84939238D01*
X202493428Y-84844000D01*
X202350571Y-84796380D01*
X202255333Y-84796380D01*
X202112476Y-84844000D01*
X202064857Y-84891619D01*
X201112476Y-85796380D02*
X201683904Y-85796380D01*
X201398190Y-85796380D02*
X201398190Y-84796380D01*
X201493428Y-84939238D01*
X201588666Y-85034476D01*
X201683904Y-85082095D01*
X200160095Y-85796380D02*
X200731523Y-85796380D01*
X200445809Y-85796380D02*
X200445809Y-84796380D01*
X200541047Y-84939238D01*
X200636285Y-85034476D01*
X200731523Y-85082095D01*
%TO.C,FB1*%
X204398571Y-66476666D02*
X204398571Y-66143333D01*
X204922380Y-66143333D02*
X203922380Y-66143333D01*
X203922380Y-66619523D01*
X204398571Y-67333809D02*
X204446190Y-67476666D01*
X204493809Y-67524285D01*
X204589047Y-67571904D01*
X204731904Y-67571904D01*
X204827142Y-67524285D01*
X204874761Y-67476666D01*
X204922380Y-67381428D01*
X204922380Y-67000476D01*
X203922380Y-67000476D01*
X203922380Y-67333809D01*
X203970000Y-67429047D01*
X204017619Y-67476666D01*
X204112857Y-67524285D01*
X204208095Y-67524285D01*
X204303333Y-67476666D01*
X204350952Y-67429047D01*
X204398571Y-67333809D01*
X204398571Y-67000476D01*
X204922380Y-68524285D02*
X204922380Y-67952857D01*
X204922380Y-68238571D02*
X203922380Y-68238571D01*
X204065238Y-68143333D01*
X204160476Y-68048095D01*
X204208095Y-67952857D01*
%TO.C,FB2*%
X204398571Y-51998666D02*
X204398571Y-51665333D01*
X204922380Y-51665333D02*
X203922380Y-51665333D01*
X203922380Y-52141523D01*
X204398571Y-52855809D02*
X204446190Y-52998666D01*
X204493809Y-53046285D01*
X204589047Y-53093904D01*
X204731904Y-53093904D01*
X204827142Y-53046285D01*
X204874761Y-52998666D01*
X204922380Y-52903428D01*
X204922380Y-52522476D01*
X203922380Y-52522476D01*
X203922380Y-52855809D01*
X203970000Y-52951047D01*
X204017619Y-52998666D01*
X204112857Y-53046285D01*
X204208095Y-53046285D01*
X204303333Y-52998666D01*
X204350952Y-52951047D01*
X204398571Y-52855809D01*
X204398571Y-52522476D01*
X204017619Y-53474857D02*
X203970000Y-53522476D01*
X203922380Y-53617714D01*
X203922380Y-53855809D01*
X203970000Y-53951047D01*
X204017619Y-53998666D01*
X204112857Y-54046285D01*
X204208095Y-54046285D01*
X204350952Y-53998666D01*
X204922380Y-53427238D01*
X204922380Y-54046285D01*
%TO.C,FB3*%
X200842571Y-59110666D02*
X200842571Y-58777333D01*
X201366380Y-58777333D02*
X200366380Y-58777333D01*
X200366380Y-59253523D01*
X200842571Y-59967809D02*
X200890190Y-60110666D01*
X200937809Y-60158285D01*
X201033047Y-60205904D01*
X201175904Y-60205904D01*
X201271142Y-60158285D01*
X201318761Y-60110666D01*
X201366380Y-60015428D01*
X201366380Y-59634476D01*
X200366380Y-59634476D01*
X200366380Y-59967809D01*
X200414000Y-60063047D01*
X200461619Y-60110666D01*
X200556857Y-60158285D01*
X200652095Y-60158285D01*
X200747333Y-60110666D01*
X200794952Y-60063047D01*
X200842571Y-59967809D01*
X200842571Y-59634476D01*
X200366380Y-60539238D02*
X200366380Y-61158285D01*
X200747333Y-60824952D01*
X200747333Y-60967809D01*
X200794952Y-61063047D01*
X200842571Y-61110666D01*
X200937809Y-61158285D01*
X201175904Y-61158285D01*
X201271142Y-61110666D01*
X201318761Y-61063047D01*
X201366380Y-60967809D01*
X201366380Y-60682095D01*
X201318761Y-60586857D01*
X201271142Y-60539238D01*
%TO.C,J3*%
X203025333Y-47208380D02*
X203025333Y-47922666D01*
X203072952Y-48065523D01*
X203168190Y-48160761D01*
X203311047Y-48208380D01*
X203406285Y-48208380D01*
X202644380Y-47208380D02*
X202025333Y-47208380D01*
X202358666Y-47589333D01*
X202215809Y-47589333D01*
X202120571Y-47636952D01*
X202072952Y-47684571D01*
X202025333Y-47779809D01*
X202025333Y-48017904D01*
X202072952Y-48113142D01*
X202120571Y-48160761D01*
X202215809Y-48208380D01*
X202501523Y-48208380D01*
X202596761Y-48160761D01*
X202644380Y-48113142D01*
%TO.C,R1*%
X136056666Y-98384380D02*
X136390000Y-97908190D01*
X136628095Y-98384380D02*
X136628095Y-97384380D01*
X136247142Y-97384380D01*
X136151904Y-97432000D01*
X136104285Y-97479619D01*
X136056666Y-97574857D01*
X136056666Y-97717714D01*
X136104285Y-97812952D01*
X136151904Y-97860571D01*
X136247142Y-97908190D01*
X136628095Y-97908190D01*
X135104285Y-98384380D02*
X135675714Y-98384380D01*
X135390000Y-98384380D02*
X135390000Y-97384380D01*
X135485238Y-97527238D01*
X135580476Y-97622476D01*
X135675714Y-97670095D01*
%TO.C,R2*%
X136056666Y-102814380D02*
X136390000Y-102338190D01*
X136628095Y-102814380D02*
X136628095Y-101814380D01*
X136247142Y-101814380D01*
X136151904Y-101862000D01*
X136104285Y-101909619D01*
X136056666Y-102004857D01*
X136056666Y-102147714D01*
X136104285Y-102242952D01*
X136151904Y-102290571D01*
X136247142Y-102338190D01*
X136628095Y-102338190D01*
X135675714Y-101909619D02*
X135628095Y-101862000D01*
X135532857Y-101814380D01*
X135294761Y-101814380D01*
X135199523Y-101862000D01*
X135151904Y-101909619D01*
X135104285Y-102004857D01*
X135104285Y-102100095D01*
X135151904Y-102242952D01*
X135723333Y-102814380D01*
X135104285Y-102814380D01*
%TO.C,R3*%
X148248666Y-112100380D02*
X148582000Y-111624190D01*
X148820095Y-112100380D02*
X148820095Y-111100380D01*
X148439142Y-111100380D01*
X148343904Y-111148000D01*
X148296285Y-111195619D01*
X148248666Y-111290857D01*
X148248666Y-111433714D01*
X148296285Y-111528952D01*
X148343904Y-111576571D01*
X148439142Y-111624190D01*
X148820095Y-111624190D01*
X147915333Y-111100380D02*
X147296285Y-111100380D01*
X147629619Y-111481333D01*
X147486761Y-111481333D01*
X147391523Y-111528952D01*
X147343904Y-111576571D01*
X147296285Y-111671809D01*
X147296285Y-111909904D01*
X147343904Y-112005142D01*
X147391523Y-112052761D01*
X147486761Y-112100380D01*
X147772476Y-112100380D01*
X147867714Y-112052761D01*
X147915333Y-112005142D01*
%TO.C,R4*%
X148248666Y-107782380D02*
X148582000Y-107306190D01*
X148820095Y-107782380D02*
X148820095Y-106782380D01*
X148439142Y-106782380D01*
X148343904Y-106830000D01*
X148296285Y-106877619D01*
X148248666Y-106972857D01*
X148248666Y-107115714D01*
X148296285Y-107210952D01*
X148343904Y-107258571D01*
X148439142Y-107306190D01*
X148820095Y-107306190D01*
X147391523Y-107115714D02*
X147391523Y-107782380D01*
X147629619Y-106734761D02*
X147867714Y-107449047D01*
X147248666Y-107449047D01*
%TO.C,R5*%
X159424666Y-83114380D02*
X159758000Y-82638190D01*
X159996095Y-83114380D02*
X159996095Y-82114380D01*
X159615142Y-82114380D01*
X159519904Y-82162000D01*
X159472285Y-82209619D01*
X159424666Y-82304857D01*
X159424666Y-82447714D01*
X159472285Y-82542952D01*
X159519904Y-82590571D01*
X159615142Y-82638190D01*
X159996095Y-82638190D01*
X158519904Y-82114380D02*
X158996095Y-82114380D01*
X159043714Y-82590571D01*
X158996095Y-82542952D01*
X158900857Y-82495333D01*
X158662761Y-82495333D01*
X158567523Y-82542952D01*
X158519904Y-82590571D01*
X158472285Y-82685809D01*
X158472285Y-82923904D01*
X158519904Y-83019142D01*
X158567523Y-83066761D01*
X158662761Y-83114380D01*
X158900857Y-83114380D01*
X158996095Y-83066761D01*
X159043714Y-83019142D01*
%TO.C,R6*%
X159424666Y-100386380D02*
X159758000Y-99910190D01*
X159996095Y-100386380D02*
X159996095Y-99386380D01*
X159615142Y-99386380D01*
X159519904Y-99434000D01*
X159472285Y-99481619D01*
X159424666Y-99576857D01*
X159424666Y-99719714D01*
X159472285Y-99814952D01*
X159519904Y-99862571D01*
X159615142Y-99910190D01*
X159996095Y-99910190D01*
X158567523Y-99386380D02*
X158758000Y-99386380D01*
X158853238Y-99434000D01*
X158900857Y-99481619D01*
X158996095Y-99624476D01*
X159043714Y-99814952D01*
X159043714Y-100195904D01*
X158996095Y-100291142D01*
X158948476Y-100338761D01*
X158853238Y-100386380D01*
X158662761Y-100386380D01*
X158567523Y-100338761D01*
X158519904Y-100291142D01*
X158472285Y-100195904D01*
X158472285Y-99957809D01*
X158519904Y-99862571D01*
X158567523Y-99814952D01*
X158662761Y-99767333D01*
X158853238Y-99767333D01*
X158948476Y-99814952D01*
X158996095Y-99862571D01*
X159043714Y-99957809D01*
%TO.C,R7*%
X171108666Y-112100380D02*
X171442000Y-111624190D01*
X171680095Y-112100380D02*
X171680095Y-111100380D01*
X171299142Y-111100380D01*
X171203904Y-111148000D01*
X171156285Y-111195619D01*
X171108666Y-111290857D01*
X171108666Y-111433714D01*
X171156285Y-111528952D01*
X171203904Y-111576571D01*
X171299142Y-111624190D01*
X171680095Y-111624190D01*
X170775333Y-111100380D02*
X170108666Y-111100380D01*
X170537238Y-112100380D01*
%TO.C,R8*%
X171108666Y-107782380D02*
X171442000Y-107306190D01*
X171680095Y-107782380D02*
X171680095Y-106782380D01*
X171299142Y-106782380D01*
X171203904Y-106830000D01*
X171156285Y-106877619D01*
X171108666Y-106972857D01*
X171108666Y-107115714D01*
X171156285Y-107210952D01*
X171203904Y-107258571D01*
X171299142Y-107306190D01*
X171680095Y-107306190D01*
X170537238Y-107210952D02*
X170632476Y-107163333D01*
X170680095Y-107115714D01*
X170727714Y-107020476D01*
X170727714Y-106972857D01*
X170680095Y-106877619D01*
X170632476Y-106830000D01*
X170537238Y-106782380D01*
X170346761Y-106782380D01*
X170251523Y-106830000D01*
X170203904Y-106877619D01*
X170156285Y-106972857D01*
X170156285Y-107020476D01*
X170203904Y-107115714D01*
X170251523Y-107163333D01*
X170346761Y-107210952D01*
X170537238Y-107210952D01*
X170632476Y-107258571D01*
X170680095Y-107306190D01*
X170727714Y-107401428D01*
X170727714Y-107591904D01*
X170680095Y-107687142D01*
X170632476Y-107734761D01*
X170537238Y-107782380D01*
X170346761Y-107782380D01*
X170251523Y-107734761D01*
X170203904Y-107687142D01*
X170156285Y-107591904D01*
X170156285Y-107401428D01*
X170203904Y-107306190D01*
X170251523Y-107258571D01*
X170346761Y-107210952D01*
%TO.C,R9*%
X182284666Y-82860380D02*
X182618000Y-82384190D01*
X182856095Y-82860380D02*
X182856095Y-81860380D01*
X182475142Y-81860380D01*
X182379904Y-81908000D01*
X182332285Y-81955619D01*
X182284666Y-82050857D01*
X182284666Y-82193714D01*
X182332285Y-82288952D01*
X182379904Y-82336571D01*
X182475142Y-82384190D01*
X182856095Y-82384190D01*
X181808476Y-82860380D02*
X181618000Y-82860380D01*
X181522761Y-82812761D01*
X181475142Y-82765142D01*
X181379904Y-82622285D01*
X181332285Y-82431809D01*
X181332285Y-82050857D01*
X181379904Y-81955619D01*
X181427523Y-81908000D01*
X181522761Y-81860380D01*
X181713238Y-81860380D01*
X181808476Y-81908000D01*
X181856095Y-81955619D01*
X181903714Y-82050857D01*
X181903714Y-82288952D01*
X181856095Y-82384190D01*
X181808476Y-82431809D01*
X181713238Y-82479428D01*
X181522761Y-82479428D01*
X181427523Y-82431809D01*
X181379904Y-82384190D01*
X181332285Y-82288952D01*
%TO.C,R10*%
X182760857Y-100386380D02*
X183094190Y-99910190D01*
X183332285Y-100386380D02*
X183332285Y-99386380D01*
X182951333Y-99386380D01*
X182856095Y-99434000D01*
X182808476Y-99481619D01*
X182760857Y-99576857D01*
X182760857Y-99719714D01*
X182808476Y-99814952D01*
X182856095Y-99862571D01*
X182951333Y-99910190D01*
X183332285Y-99910190D01*
X181808476Y-100386380D02*
X182379904Y-100386380D01*
X182094190Y-100386380D02*
X182094190Y-99386380D01*
X182189428Y-99529238D01*
X182284666Y-99624476D01*
X182379904Y-99672095D01*
X181189428Y-99386380D02*
X181094190Y-99386380D01*
X180998952Y-99434000D01*
X180951333Y-99481619D01*
X180903714Y-99576857D01*
X180856095Y-99767333D01*
X180856095Y-100005428D01*
X180903714Y-100195904D01*
X180951333Y-100291142D01*
X180998952Y-100338761D01*
X181094190Y-100386380D01*
X181189428Y-100386380D01*
X181284666Y-100338761D01*
X181332285Y-100291142D01*
X181379904Y-100195904D01*
X181427523Y-100005428D01*
X181427523Y-99767333D01*
X181379904Y-99576857D01*
X181332285Y-99481619D01*
X181284666Y-99434000D01*
X181189428Y-99386380D01*
%TO.C,R11*%
X194444857Y-112100380D02*
X194778190Y-111624190D01*
X195016285Y-112100380D02*
X195016285Y-111100380D01*
X194635333Y-111100380D01*
X194540095Y-111148000D01*
X194492476Y-111195619D01*
X194444857Y-111290857D01*
X194444857Y-111433714D01*
X194492476Y-111528952D01*
X194540095Y-111576571D01*
X194635333Y-111624190D01*
X195016285Y-111624190D01*
X193492476Y-112100380D02*
X194063904Y-112100380D01*
X193778190Y-112100380D02*
X193778190Y-111100380D01*
X193873428Y-111243238D01*
X193968666Y-111338476D01*
X194063904Y-111386095D01*
X192540095Y-112100380D02*
X193111523Y-112100380D01*
X192825809Y-112100380D02*
X192825809Y-111100380D01*
X192921047Y-111243238D01*
X193016285Y-111338476D01*
X193111523Y-111386095D01*
%TO.C,R12*%
X194444857Y-108036380D02*
X194778190Y-107560190D01*
X195016285Y-108036380D02*
X195016285Y-107036380D01*
X194635333Y-107036380D01*
X194540095Y-107084000D01*
X194492476Y-107131619D01*
X194444857Y-107226857D01*
X194444857Y-107369714D01*
X194492476Y-107464952D01*
X194540095Y-107512571D01*
X194635333Y-107560190D01*
X195016285Y-107560190D01*
X193492476Y-108036380D02*
X194063904Y-108036380D01*
X193778190Y-108036380D02*
X193778190Y-107036380D01*
X193873428Y-107179238D01*
X193968666Y-107274476D01*
X194063904Y-107322095D01*
X193111523Y-107131619D02*
X193063904Y-107084000D01*
X192968666Y-107036380D01*
X192730571Y-107036380D01*
X192635333Y-107084000D01*
X192587714Y-107131619D01*
X192540095Y-107226857D01*
X192540095Y-107322095D01*
X192587714Y-107464952D01*
X193159142Y-108036380D01*
X192540095Y-108036380D01*
%TO.C,R13*%
X136532857Y-89494380D02*
X136866190Y-89018190D01*
X137104285Y-89494380D02*
X137104285Y-88494380D01*
X136723333Y-88494380D01*
X136628095Y-88542000D01*
X136580476Y-88589619D01*
X136532857Y-88684857D01*
X136532857Y-88827714D01*
X136580476Y-88922952D01*
X136628095Y-88970571D01*
X136723333Y-89018190D01*
X137104285Y-89018190D01*
X135580476Y-89494380D02*
X136151904Y-89494380D01*
X135866190Y-89494380D02*
X135866190Y-88494380D01*
X135961428Y-88637238D01*
X136056666Y-88732476D01*
X136151904Y-88780095D01*
X135247142Y-88494380D02*
X134628095Y-88494380D01*
X134961428Y-88875333D01*
X134818571Y-88875333D01*
X134723333Y-88922952D01*
X134675714Y-88970571D01*
X134628095Y-89065809D01*
X134628095Y-89303904D01*
X134675714Y-89399142D01*
X134723333Y-89446761D01*
X134818571Y-89494380D01*
X135104285Y-89494380D01*
X135199523Y-89446761D01*
X135247142Y-89399142D01*
%TO.C,R14*%
X136532857Y-93670380D02*
X136866190Y-93194190D01*
X137104285Y-93670380D02*
X137104285Y-92670380D01*
X136723333Y-92670380D01*
X136628095Y-92718000D01*
X136580476Y-92765619D01*
X136532857Y-92860857D01*
X136532857Y-93003714D01*
X136580476Y-93098952D01*
X136628095Y-93146571D01*
X136723333Y-93194190D01*
X137104285Y-93194190D01*
X135580476Y-93670380D02*
X136151904Y-93670380D01*
X135866190Y-93670380D02*
X135866190Y-92670380D01*
X135961428Y-92813238D01*
X136056666Y-92908476D01*
X136151904Y-92956095D01*
X134723333Y-93003714D02*
X134723333Y-93670380D01*
X134961428Y-92622761D02*
X135199523Y-93337047D01*
X134580476Y-93337047D01*
%TO.C,R15*%
X148724857Y-117434380D02*
X149058190Y-116958190D01*
X149296285Y-117434380D02*
X149296285Y-116434380D01*
X148915333Y-116434380D01*
X148820095Y-116482000D01*
X148772476Y-116529619D01*
X148724857Y-116624857D01*
X148724857Y-116767714D01*
X148772476Y-116862952D01*
X148820095Y-116910571D01*
X148915333Y-116958190D01*
X149296285Y-116958190D01*
X147772476Y-117434380D02*
X148343904Y-117434380D01*
X148058190Y-117434380D02*
X148058190Y-116434380D01*
X148153428Y-116577238D01*
X148248666Y-116672476D01*
X148343904Y-116720095D01*
X146867714Y-116434380D02*
X147343904Y-116434380D01*
X147391523Y-116910571D01*
X147343904Y-116862952D01*
X147248666Y-116815333D01*
X147010571Y-116815333D01*
X146915333Y-116862952D01*
X146867714Y-116910571D01*
X146820095Y-117005809D01*
X146820095Y-117243904D01*
X146867714Y-117339142D01*
X146915333Y-117386761D01*
X147010571Y-117434380D01*
X147248666Y-117434380D01*
X147343904Y-117386761D01*
X147391523Y-117339142D01*
%TO.C,R16*%
X148724857Y-103464380D02*
X149058190Y-102988190D01*
X149296285Y-103464380D02*
X149296285Y-102464380D01*
X148915333Y-102464380D01*
X148820095Y-102512000D01*
X148772476Y-102559619D01*
X148724857Y-102654857D01*
X148724857Y-102797714D01*
X148772476Y-102892952D01*
X148820095Y-102940571D01*
X148915333Y-102988190D01*
X149296285Y-102988190D01*
X147772476Y-103464380D02*
X148343904Y-103464380D01*
X148058190Y-103464380D02*
X148058190Y-102464380D01*
X148153428Y-102607238D01*
X148248666Y-102702476D01*
X148343904Y-102750095D01*
X146915333Y-102464380D02*
X147105809Y-102464380D01*
X147201047Y-102512000D01*
X147248666Y-102559619D01*
X147343904Y-102702476D01*
X147391523Y-102892952D01*
X147391523Y-103273904D01*
X147343904Y-103369142D01*
X147296285Y-103416761D01*
X147201047Y-103464380D01*
X147010571Y-103464380D01*
X146915333Y-103416761D01*
X146867714Y-103369142D01*
X146820095Y-103273904D01*
X146820095Y-103035809D01*
X146867714Y-102940571D01*
X146915333Y-102892952D01*
X147010571Y-102845333D01*
X147201047Y-102845333D01*
X147296285Y-102892952D01*
X147343904Y-102940571D01*
X147391523Y-103035809D01*
%TO.C,R17*%
X159900857Y-96068380D02*
X160234190Y-95592190D01*
X160472285Y-96068380D02*
X160472285Y-95068380D01*
X160091333Y-95068380D01*
X159996095Y-95116000D01*
X159948476Y-95163619D01*
X159900857Y-95258857D01*
X159900857Y-95401714D01*
X159948476Y-95496952D01*
X159996095Y-95544571D01*
X160091333Y-95592190D01*
X160472285Y-95592190D01*
X158948476Y-96068380D02*
X159519904Y-96068380D01*
X159234190Y-96068380D02*
X159234190Y-95068380D01*
X159329428Y-95211238D01*
X159424666Y-95306476D01*
X159519904Y-95354095D01*
X158615142Y-95068380D02*
X157948476Y-95068380D01*
X158377047Y-96068380D01*
%TO.C,R18*%
X159900857Y-91496380D02*
X160234190Y-91020190D01*
X160472285Y-91496380D02*
X160472285Y-90496380D01*
X160091333Y-90496380D01*
X159996095Y-90544000D01*
X159948476Y-90591619D01*
X159900857Y-90686857D01*
X159900857Y-90829714D01*
X159948476Y-90924952D01*
X159996095Y-90972571D01*
X160091333Y-91020190D01*
X160472285Y-91020190D01*
X158948476Y-91496380D02*
X159519904Y-91496380D01*
X159234190Y-91496380D02*
X159234190Y-90496380D01*
X159329428Y-90639238D01*
X159424666Y-90734476D01*
X159519904Y-90782095D01*
X158377047Y-90924952D02*
X158472285Y-90877333D01*
X158519904Y-90829714D01*
X158567523Y-90734476D01*
X158567523Y-90686857D01*
X158519904Y-90591619D01*
X158472285Y-90544000D01*
X158377047Y-90496380D01*
X158186571Y-90496380D01*
X158091333Y-90544000D01*
X158043714Y-90591619D01*
X157996095Y-90686857D01*
X157996095Y-90734476D01*
X158043714Y-90829714D01*
X158091333Y-90877333D01*
X158186571Y-90924952D01*
X158377047Y-90924952D01*
X158472285Y-90972571D01*
X158519904Y-91020190D01*
X158567523Y-91115428D01*
X158567523Y-91305904D01*
X158519904Y-91401142D01*
X158472285Y-91448761D01*
X158377047Y-91496380D01*
X158186571Y-91496380D01*
X158091333Y-91448761D01*
X158043714Y-91401142D01*
X157996095Y-91305904D01*
X157996095Y-91115428D01*
X158043714Y-91020190D01*
X158091333Y-90972571D01*
X158186571Y-90924952D01*
%TO.C,R19*%
X171584857Y-117434380D02*
X171918190Y-116958190D01*
X172156285Y-117434380D02*
X172156285Y-116434380D01*
X171775333Y-116434380D01*
X171680095Y-116482000D01*
X171632476Y-116529619D01*
X171584857Y-116624857D01*
X171584857Y-116767714D01*
X171632476Y-116862952D01*
X171680095Y-116910571D01*
X171775333Y-116958190D01*
X172156285Y-116958190D01*
X170632476Y-117434380D02*
X171203904Y-117434380D01*
X170918190Y-117434380D02*
X170918190Y-116434380D01*
X171013428Y-116577238D01*
X171108666Y-116672476D01*
X171203904Y-116720095D01*
X170156285Y-117434380D02*
X169965809Y-117434380D01*
X169870571Y-117386761D01*
X169822952Y-117339142D01*
X169727714Y-117196285D01*
X169680095Y-117005809D01*
X169680095Y-116624857D01*
X169727714Y-116529619D01*
X169775333Y-116482000D01*
X169870571Y-116434380D01*
X170061047Y-116434380D01*
X170156285Y-116482000D01*
X170203904Y-116529619D01*
X170251523Y-116624857D01*
X170251523Y-116862952D01*
X170203904Y-116958190D01*
X170156285Y-117005809D01*
X170061047Y-117053428D01*
X169870571Y-117053428D01*
X169775333Y-117005809D01*
X169727714Y-116958190D01*
X169680095Y-116862952D01*
%TO.C,R20*%
X171584857Y-103464380D02*
X171918190Y-102988190D01*
X172156285Y-103464380D02*
X172156285Y-102464380D01*
X171775333Y-102464380D01*
X171680095Y-102512000D01*
X171632476Y-102559619D01*
X171584857Y-102654857D01*
X171584857Y-102797714D01*
X171632476Y-102892952D01*
X171680095Y-102940571D01*
X171775333Y-102988190D01*
X172156285Y-102988190D01*
X171203904Y-102559619D02*
X171156285Y-102512000D01*
X171061047Y-102464380D01*
X170822952Y-102464380D01*
X170727714Y-102512000D01*
X170680095Y-102559619D01*
X170632476Y-102654857D01*
X170632476Y-102750095D01*
X170680095Y-102892952D01*
X171251523Y-103464380D01*
X170632476Y-103464380D01*
X170013428Y-102464380D02*
X169918190Y-102464380D01*
X169822952Y-102512000D01*
X169775333Y-102559619D01*
X169727714Y-102654857D01*
X169680095Y-102845333D01*
X169680095Y-103083428D01*
X169727714Y-103273904D01*
X169775333Y-103369142D01*
X169822952Y-103416761D01*
X169918190Y-103464380D01*
X170013428Y-103464380D01*
X170108666Y-103416761D01*
X170156285Y-103369142D01*
X170203904Y-103273904D01*
X170251523Y-103083428D01*
X170251523Y-102845333D01*
X170203904Y-102654857D01*
X170156285Y-102559619D01*
X170108666Y-102512000D01*
X170013428Y-102464380D01*
%TO.C,R21*%
X182760857Y-96068380D02*
X183094190Y-95592190D01*
X183332285Y-96068380D02*
X183332285Y-95068380D01*
X182951333Y-95068380D01*
X182856095Y-95116000D01*
X182808476Y-95163619D01*
X182760857Y-95258857D01*
X182760857Y-95401714D01*
X182808476Y-95496952D01*
X182856095Y-95544571D01*
X182951333Y-95592190D01*
X183332285Y-95592190D01*
X182379904Y-95163619D02*
X182332285Y-95116000D01*
X182237047Y-95068380D01*
X181998952Y-95068380D01*
X181903714Y-95116000D01*
X181856095Y-95163619D01*
X181808476Y-95258857D01*
X181808476Y-95354095D01*
X181856095Y-95496952D01*
X182427523Y-96068380D01*
X181808476Y-96068380D01*
X180856095Y-96068380D02*
X181427523Y-96068380D01*
X181141809Y-96068380D02*
X181141809Y-95068380D01*
X181237047Y-95211238D01*
X181332285Y-95306476D01*
X181427523Y-95354095D01*
%TO.C,R22*%
X182760857Y-91496380D02*
X183094190Y-91020190D01*
X183332285Y-91496380D02*
X183332285Y-90496380D01*
X182951333Y-90496380D01*
X182856095Y-90544000D01*
X182808476Y-90591619D01*
X182760857Y-90686857D01*
X182760857Y-90829714D01*
X182808476Y-90924952D01*
X182856095Y-90972571D01*
X182951333Y-91020190D01*
X183332285Y-91020190D01*
X182379904Y-90591619D02*
X182332285Y-90544000D01*
X182237047Y-90496380D01*
X181998952Y-90496380D01*
X181903714Y-90544000D01*
X181856095Y-90591619D01*
X181808476Y-90686857D01*
X181808476Y-90782095D01*
X181856095Y-90924952D01*
X182427523Y-91496380D01*
X181808476Y-91496380D01*
X181427523Y-90591619D02*
X181379904Y-90544000D01*
X181284666Y-90496380D01*
X181046571Y-90496380D01*
X180951333Y-90544000D01*
X180903714Y-90591619D01*
X180856095Y-90686857D01*
X180856095Y-90782095D01*
X180903714Y-90924952D01*
X181475142Y-91496380D01*
X180856095Y-91496380D01*
%TO.C,R23*%
X194444857Y-117434380D02*
X194778190Y-116958190D01*
X195016285Y-117434380D02*
X195016285Y-116434380D01*
X194635333Y-116434380D01*
X194540095Y-116482000D01*
X194492476Y-116529619D01*
X194444857Y-116624857D01*
X194444857Y-116767714D01*
X194492476Y-116862952D01*
X194540095Y-116910571D01*
X194635333Y-116958190D01*
X195016285Y-116958190D01*
X194063904Y-116529619D02*
X194016285Y-116482000D01*
X193921047Y-116434380D01*
X193682952Y-116434380D01*
X193587714Y-116482000D01*
X193540095Y-116529619D01*
X193492476Y-116624857D01*
X193492476Y-116720095D01*
X193540095Y-116862952D01*
X194111523Y-117434380D01*
X193492476Y-117434380D01*
X193159142Y-116434380D02*
X192540095Y-116434380D01*
X192873428Y-116815333D01*
X192730571Y-116815333D01*
X192635333Y-116862952D01*
X192587714Y-116910571D01*
X192540095Y-117005809D01*
X192540095Y-117243904D01*
X192587714Y-117339142D01*
X192635333Y-117386761D01*
X192730571Y-117434380D01*
X193016285Y-117434380D01*
X193111523Y-117386761D01*
X193159142Y-117339142D01*
%TO.C,R24*%
X194444857Y-103464380D02*
X194778190Y-102988190D01*
X195016285Y-103464380D02*
X195016285Y-102464380D01*
X194635333Y-102464380D01*
X194540095Y-102512000D01*
X194492476Y-102559619D01*
X194444857Y-102654857D01*
X194444857Y-102797714D01*
X194492476Y-102892952D01*
X194540095Y-102940571D01*
X194635333Y-102988190D01*
X195016285Y-102988190D01*
X194063904Y-102559619D02*
X194016285Y-102512000D01*
X193921047Y-102464380D01*
X193682952Y-102464380D01*
X193587714Y-102512000D01*
X193540095Y-102559619D01*
X193492476Y-102654857D01*
X193492476Y-102750095D01*
X193540095Y-102892952D01*
X194111523Y-103464380D01*
X193492476Y-103464380D01*
X192635333Y-102797714D02*
X192635333Y-103464380D01*
X192873428Y-102416761D02*
X193111523Y-103131047D01*
X192492476Y-103131047D01*
%TO.C,R37*%
X214256857Y-19502380D02*
X214590190Y-19026190D01*
X214828285Y-19502380D02*
X214828285Y-18502380D01*
X214447333Y-18502380D01*
X214352095Y-18550000D01*
X214304476Y-18597619D01*
X214256857Y-18692857D01*
X214256857Y-18835714D01*
X214304476Y-18930952D01*
X214352095Y-18978571D01*
X214447333Y-19026190D01*
X214828285Y-19026190D01*
X213923523Y-18502380D02*
X213304476Y-18502380D01*
X213637809Y-18883333D01*
X213494952Y-18883333D01*
X213399714Y-18930952D01*
X213352095Y-18978571D01*
X213304476Y-19073809D01*
X213304476Y-19311904D01*
X213352095Y-19407142D01*
X213399714Y-19454761D01*
X213494952Y-19502380D01*
X213780666Y-19502380D01*
X213875904Y-19454761D01*
X213923523Y-19407142D01*
X212971142Y-18502380D02*
X212304476Y-18502380D01*
X212733047Y-19502380D01*
%TO.C,R38*%
X214256857Y-22296380D02*
X214590190Y-21820190D01*
X214828285Y-22296380D02*
X214828285Y-21296380D01*
X214447333Y-21296380D01*
X214352095Y-21344000D01*
X214304476Y-21391619D01*
X214256857Y-21486857D01*
X214256857Y-21629714D01*
X214304476Y-21724952D01*
X214352095Y-21772571D01*
X214447333Y-21820190D01*
X214828285Y-21820190D01*
X213923523Y-21296380D02*
X213304476Y-21296380D01*
X213637809Y-21677333D01*
X213494952Y-21677333D01*
X213399714Y-21724952D01*
X213352095Y-21772571D01*
X213304476Y-21867809D01*
X213304476Y-22105904D01*
X213352095Y-22201142D01*
X213399714Y-22248761D01*
X213494952Y-22296380D01*
X213780666Y-22296380D01*
X213875904Y-22248761D01*
X213923523Y-22201142D01*
X212733047Y-21724952D02*
X212828285Y-21677333D01*
X212875904Y-21629714D01*
X212923523Y-21534476D01*
X212923523Y-21486857D01*
X212875904Y-21391619D01*
X212828285Y-21344000D01*
X212733047Y-21296380D01*
X212542571Y-21296380D01*
X212447333Y-21344000D01*
X212399714Y-21391619D01*
X212352095Y-21486857D01*
X212352095Y-21534476D01*
X212399714Y-21629714D01*
X212447333Y-21677333D01*
X212542571Y-21724952D01*
X212733047Y-21724952D01*
X212828285Y-21772571D01*
X212875904Y-21820190D01*
X212923523Y-21915428D01*
X212923523Y-22105904D01*
X212875904Y-22201142D01*
X212828285Y-22248761D01*
X212733047Y-22296380D01*
X212542571Y-22296380D01*
X212447333Y-22248761D01*
X212399714Y-22201142D01*
X212352095Y-22105904D01*
X212352095Y-21915428D01*
X212399714Y-21820190D01*
X212447333Y-21772571D01*
X212542571Y-21724952D01*
%TO.C,R39*%
X214256857Y-25090380D02*
X214590190Y-24614190D01*
X214828285Y-25090380D02*
X214828285Y-24090380D01*
X214447333Y-24090380D01*
X214352095Y-24138000D01*
X214304476Y-24185619D01*
X214256857Y-24280857D01*
X214256857Y-24423714D01*
X214304476Y-24518952D01*
X214352095Y-24566571D01*
X214447333Y-24614190D01*
X214828285Y-24614190D01*
X213923523Y-24090380D02*
X213304476Y-24090380D01*
X213637809Y-24471333D01*
X213494952Y-24471333D01*
X213399714Y-24518952D01*
X213352095Y-24566571D01*
X213304476Y-24661809D01*
X213304476Y-24899904D01*
X213352095Y-24995142D01*
X213399714Y-25042761D01*
X213494952Y-25090380D01*
X213780666Y-25090380D01*
X213875904Y-25042761D01*
X213923523Y-24995142D01*
X212828285Y-25090380D02*
X212637809Y-25090380D01*
X212542571Y-25042761D01*
X212494952Y-24995142D01*
X212399714Y-24852285D01*
X212352095Y-24661809D01*
X212352095Y-24280857D01*
X212399714Y-24185619D01*
X212447333Y-24138000D01*
X212542571Y-24090380D01*
X212733047Y-24090380D01*
X212828285Y-24138000D01*
X212875904Y-24185619D01*
X212923523Y-24280857D01*
X212923523Y-24518952D01*
X212875904Y-24614190D01*
X212828285Y-24661809D01*
X212733047Y-24709428D01*
X212542571Y-24709428D01*
X212447333Y-24661809D01*
X212399714Y-24614190D01*
X212352095Y-24518952D01*
%TO.C,R40*%
X214256857Y-27884380D02*
X214590190Y-27408190D01*
X214828285Y-27884380D02*
X214828285Y-26884380D01*
X214447333Y-26884380D01*
X214352095Y-26932000D01*
X214304476Y-26979619D01*
X214256857Y-27074857D01*
X214256857Y-27217714D01*
X214304476Y-27312952D01*
X214352095Y-27360571D01*
X214447333Y-27408190D01*
X214828285Y-27408190D01*
X213399714Y-27217714D02*
X213399714Y-27884380D01*
X213637809Y-26836761D02*
X213875904Y-27551047D01*
X213256857Y-27551047D01*
X212685428Y-26884380D02*
X212590190Y-26884380D01*
X212494952Y-26932000D01*
X212447333Y-26979619D01*
X212399714Y-27074857D01*
X212352095Y-27265333D01*
X212352095Y-27503428D01*
X212399714Y-27693904D01*
X212447333Y-27789142D01*
X212494952Y-27836761D01*
X212590190Y-27884380D01*
X212685428Y-27884380D01*
X212780666Y-27836761D01*
X212828285Y-27789142D01*
X212875904Y-27693904D01*
X212923523Y-27503428D01*
X212923523Y-27265333D01*
X212875904Y-27074857D01*
X212828285Y-26979619D01*
X212780666Y-26932000D01*
X212685428Y-26884380D01*
%TO.C,R41*%
X214256857Y-30678380D02*
X214590190Y-30202190D01*
X214828285Y-30678380D02*
X214828285Y-29678380D01*
X214447333Y-29678380D01*
X214352095Y-29726000D01*
X214304476Y-29773619D01*
X214256857Y-29868857D01*
X214256857Y-30011714D01*
X214304476Y-30106952D01*
X214352095Y-30154571D01*
X214447333Y-30202190D01*
X214828285Y-30202190D01*
X213399714Y-30011714D02*
X213399714Y-30678380D01*
X213637809Y-29630761D02*
X213875904Y-30345047D01*
X213256857Y-30345047D01*
X212352095Y-30678380D02*
X212923523Y-30678380D01*
X212637809Y-30678380D02*
X212637809Y-29678380D01*
X212733047Y-29821238D01*
X212828285Y-29916476D01*
X212923523Y-29964095D01*
%TO.C,R42*%
X214256857Y-33472380D02*
X214590190Y-32996190D01*
X214828285Y-33472380D02*
X214828285Y-32472380D01*
X214447333Y-32472380D01*
X214352095Y-32520000D01*
X214304476Y-32567619D01*
X214256857Y-32662857D01*
X214256857Y-32805714D01*
X214304476Y-32900952D01*
X214352095Y-32948571D01*
X214447333Y-32996190D01*
X214828285Y-32996190D01*
X213399714Y-32805714D02*
X213399714Y-33472380D01*
X213637809Y-32424761D02*
X213875904Y-33139047D01*
X213256857Y-33139047D01*
X212923523Y-32567619D02*
X212875904Y-32520000D01*
X212780666Y-32472380D01*
X212542571Y-32472380D01*
X212447333Y-32520000D01*
X212399714Y-32567619D01*
X212352095Y-32662857D01*
X212352095Y-32758095D01*
X212399714Y-32900952D01*
X212971142Y-33472380D01*
X212352095Y-33472380D01*
%TO.C,R43*%
X214256857Y-36266380D02*
X214590190Y-35790190D01*
X214828285Y-36266380D02*
X214828285Y-35266380D01*
X214447333Y-35266380D01*
X214352095Y-35314000D01*
X214304476Y-35361619D01*
X214256857Y-35456857D01*
X214256857Y-35599714D01*
X214304476Y-35694952D01*
X214352095Y-35742571D01*
X214447333Y-35790190D01*
X214828285Y-35790190D01*
X213399714Y-35599714D02*
X213399714Y-36266380D01*
X213637809Y-35218761D02*
X213875904Y-35933047D01*
X213256857Y-35933047D01*
X212971142Y-35266380D02*
X212352095Y-35266380D01*
X212685428Y-35647333D01*
X212542571Y-35647333D01*
X212447333Y-35694952D01*
X212399714Y-35742571D01*
X212352095Y-35837809D01*
X212352095Y-36075904D01*
X212399714Y-36171142D01*
X212447333Y-36218761D01*
X212542571Y-36266380D01*
X212828285Y-36266380D01*
X212923523Y-36218761D01*
X212971142Y-36171142D01*
%TO.C,R44*%
X214256857Y-39060380D02*
X214590190Y-38584190D01*
X214828285Y-39060380D02*
X214828285Y-38060380D01*
X214447333Y-38060380D01*
X214352095Y-38108000D01*
X214304476Y-38155619D01*
X214256857Y-38250857D01*
X214256857Y-38393714D01*
X214304476Y-38488952D01*
X214352095Y-38536571D01*
X214447333Y-38584190D01*
X214828285Y-38584190D01*
X213399714Y-38393714D02*
X213399714Y-39060380D01*
X213637809Y-38012761D02*
X213875904Y-38727047D01*
X213256857Y-38727047D01*
X212447333Y-38393714D02*
X212447333Y-39060380D01*
X212685428Y-38012761D02*
X212923523Y-38727047D01*
X212304476Y-38727047D01*
%TO.C,R45*%
X214256857Y-41854380D02*
X214590190Y-41378190D01*
X214828285Y-41854380D02*
X214828285Y-40854380D01*
X214447333Y-40854380D01*
X214352095Y-40902000D01*
X214304476Y-40949619D01*
X214256857Y-41044857D01*
X214256857Y-41187714D01*
X214304476Y-41282952D01*
X214352095Y-41330571D01*
X214447333Y-41378190D01*
X214828285Y-41378190D01*
X213399714Y-41187714D02*
X213399714Y-41854380D01*
X213637809Y-40806761D02*
X213875904Y-41521047D01*
X213256857Y-41521047D01*
X212399714Y-40854380D02*
X212875904Y-40854380D01*
X212923523Y-41330571D01*
X212875904Y-41282952D01*
X212780666Y-41235333D01*
X212542571Y-41235333D01*
X212447333Y-41282952D01*
X212399714Y-41330571D01*
X212352095Y-41425809D01*
X212352095Y-41663904D01*
X212399714Y-41759142D01*
X212447333Y-41806761D01*
X212542571Y-41854380D01*
X212780666Y-41854380D01*
X212875904Y-41806761D01*
X212923523Y-41759142D01*
%TO.C,R46*%
X214256857Y-44648380D02*
X214590190Y-44172190D01*
X214828285Y-44648380D02*
X214828285Y-43648380D01*
X214447333Y-43648380D01*
X214352095Y-43696000D01*
X214304476Y-43743619D01*
X214256857Y-43838857D01*
X214256857Y-43981714D01*
X214304476Y-44076952D01*
X214352095Y-44124571D01*
X214447333Y-44172190D01*
X214828285Y-44172190D01*
X213399714Y-43981714D02*
X213399714Y-44648380D01*
X213637809Y-43600761D02*
X213875904Y-44315047D01*
X213256857Y-44315047D01*
X212447333Y-43648380D02*
X212637809Y-43648380D01*
X212733047Y-43696000D01*
X212780666Y-43743619D01*
X212875904Y-43886476D01*
X212923523Y-44076952D01*
X212923523Y-44457904D01*
X212875904Y-44553142D01*
X212828285Y-44600761D01*
X212733047Y-44648380D01*
X212542571Y-44648380D01*
X212447333Y-44600761D01*
X212399714Y-44553142D01*
X212352095Y-44457904D01*
X212352095Y-44219809D01*
X212399714Y-44124571D01*
X212447333Y-44076952D01*
X212542571Y-44029333D01*
X212733047Y-44029333D01*
X212828285Y-44076952D01*
X212875904Y-44124571D01*
X212923523Y-44219809D01*
%TO.C,R47*%
X225432857Y-19502380D02*
X225766190Y-19026190D01*
X226004285Y-19502380D02*
X226004285Y-18502380D01*
X225623333Y-18502380D01*
X225528095Y-18550000D01*
X225480476Y-18597619D01*
X225432857Y-18692857D01*
X225432857Y-18835714D01*
X225480476Y-18930952D01*
X225528095Y-18978571D01*
X225623333Y-19026190D01*
X226004285Y-19026190D01*
X224575714Y-18835714D02*
X224575714Y-19502380D01*
X224813809Y-18454761D02*
X225051904Y-19169047D01*
X224432857Y-19169047D01*
X224147142Y-18502380D02*
X223480476Y-18502380D01*
X223909047Y-19502380D01*
%TO.C,R48*%
X225432857Y-22296380D02*
X225766190Y-21820190D01*
X226004285Y-22296380D02*
X226004285Y-21296380D01*
X225623333Y-21296380D01*
X225528095Y-21344000D01*
X225480476Y-21391619D01*
X225432857Y-21486857D01*
X225432857Y-21629714D01*
X225480476Y-21724952D01*
X225528095Y-21772571D01*
X225623333Y-21820190D01*
X226004285Y-21820190D01*
X224575714Y-21629714D02*
X224575714Y-22296380D01*
X224813809Y-21248761D02*
X225051904Y-21963047D01*
X224432857Y-21963047D01*
X223909047Y-21724952D02*
X224004285Y-21677333D01*
X224051904Y-21629714D01*
X224099523Y-21534476D01*
X224099523Y-21486857D01*
X224051904Y-21391619D01*
X224004285Y-21344000D01*
X223909047Y-21296380D01*
X223718571Y-21296380D01*
X223623333Y-21344000D01*
X223575714Y-21391619D01*
X223528095Y-21486857D01*
X223528095Y-21534476D01*
X223575714Y-21629714D01*
X223623333Y-21677333D01*
X223718571Y-21724952D01*
X223909047Y-21724952D01*
X224004285Y-21772571D01*
X224051904Y-21820190D01*
X224099523Y-21915428D01*
X224099523Y-22105904D01*
X224051904Y-22201142D01*
X224004285Y-22248761D01*
X223909047Y-22296380D01*
X223718571Y-22296380D01*
X223623333Y-22248761D01*
X223575714Y-22201142D01*
X223528095Y-22105904D01*
X223528095Y-21915428D01*
X223575714Y-21820190D01*
X223623333Y-21772571D01*
X223718571Y-21724952D01*
%TO.C,R49*%
X225432857Y-25090380D02*
X225766190Y-24614190D01*
X226004285Y-25090380D02*
X226004285Y-24090380D01*
X225623333Y-24090380D01*
X225528095Y-24138000D01*
X225480476Y-24185619D01*
X225432857Y-24280857D01*
X225432857Y-24423714D01*
X225480476Y-24518952D01*
X225528095Y-24566571D01*
X225623333Y-24614190D01*
X226004285Y-24614190D01*
X224575714Y-24423714D02*
X224575714Y-25090380D01*
X224813809Y-24042761D02*
X225051904Y-24757047D01*
X224432857Y-24757047D01*
X224004285Y-25090380D02*
X223813809Y-25090380D01*
X223718571Y-25042761D01*
X223670952Y-24995142D01*
X223575714Y-24852285D01*
X223528095Y-24661809D01*
X223528095Y-24280857D01*
X223575714Y-24185619D01*
X223623333Y-24138000D01*
X223718571Y-24090380D01*
X223909047Y-24090380D01*
X224004285Y-24138000D01*
X224051904Y-24185619D01*
X224099523Y-24280857D01*
X224099523Y-24518952D01*
X224051904Y-24614190D01*
X224004285Y-24661809D01*
X223909047Y-24709428D01*
X223718571Y-24709428D01*
X223623333Y-24661809D01*
X223575714Y-24614190D01*
X223528095Y-24518952D01*
%TO.C,R50*%
X225432857Y-27884380D02*
X225766190Y-27408190D01*
X226004285Y-27884380D02*
X226004285Y-26884380D01*
X225623333Y-26884380D01*
X225528095Y-26932000D01*
X225480476Y-26979619D01*
X225432857Y-27074857D01*
X225432857Y-27217714D01*
X225480476Y-27312952D01*
X225528095Y-27360571D01*
X225623333Y-27408190D01*
X226004285Y-27408190D01*
X224528095Y-26884380D02*
X225004285Y-26884380D01*
X225051904Y-27360571D01*
X225004285Y-27312952D01*
X224909047Y-27265333D01*
X224670952Y-27265333D01*
X224575714Y-27312952D01*
X224528095Y-27360571D01*
X224480476Y-27455809D01*
X224480476Y-27693904D01*
X224528095Y-27789142D01*
X224575714Y-27836761D01*
X224670952Y-27884380D01*
X224909047Y-27884380D01*
X225004285Y-27836761D01*
X225051904Y-27789142D01*
X223861428Y-26884380D02*
X223766190Y-26884380D01*
X223670952Y-26932000D01*
X223623333Y-26979619D01*
X223575714Y-27074857D01*
X223528095Y-27265333D01*
X223528095Y-27503428D01*
X223575714Y-27693904D01*
X223623333Y-27789142D01*
X223670952Y-27836761D01*
X223766190Y-27884380D01*
X223861428Y-27884380D01*
X223956666Y-27836761D01*
X224004285Y-27789142D01*
X224051904Y-27693904D01*
X224099523Y-27503428D01*
X224099523Y-27265333D01*
X224051904Y-27074857D01*
X224004285Y-26979619D01*
X223956666Y-26932000D01*
X223861428Y-26884380D01*
%TO.C,R51*%
X225432857Y-30678380D02*
X225766190Y-30202190D01*
X226004285Y-30678380D02*
X226004285Y-29678380D01*
X225623333Y-29678380D01*
X225528095Y-29726000D01*
X225480476Y-29773619D01*
X225432857Y-29868857D01*
X225432857Y-30011714D01*
X225480476Y-30106952D01*
X225528095Y-30154571D01*
X225623333Y-30202190D01*
X226004285Y-30202190D01*
X224528095Y-29678380D02*
X225004285Y-29678380D01*
X225051904Y-30154571D01*
X225004285Y-30106952D01*
X224909047Y-30059333D01*
X224670952Y-30059333D01*
X224575714Y-30106952D01*
X224528095Y-30154571D01*
X224480476Y-30249809D01*
X224480476Y-30487904D01*
X224528095Y-30583142D01*
X224575714Y-30630761D01*
X224670952Y-30678380D01*
X224909047Y-30678380D01*
X225004285Y-30630761D01*
X225051904Y-30583142D01*
X223528095Y-30678380D02*
X224099523Y-30678380D01*
X223813809Y-30678380D02*
X223813809Y-29678380D01*
X223909047Y-29821238D01*
X224004285Y-29916476D01*
X224099523Y-29964095D01*
%TO.C,R52*%
X225432857Y-33472380D02*
X225766190Y-32996190D01*
X226004285Y-33472380D02*
X226004285Y-32472380D01*
X225623333Y-32472380D01*
X225528095Y-32520000D01*
X225480476Y-32567619D01*
X225432857Y-32662857D01*
X225432857Y-32805714D01*
X225480476Y-32900952D01*
X225528095Y-32948571D01*
X225623333Y-32996190D01*
X226004285Y-32996190D01*
X224528095Y-32472380D02*
X225004285Y-32472380D01*
X225051904Y-32948571D01*
X225004285Y-32900952D01*
X224909047Y-32853333D01*
X224670952Y-32853333D01*
X224575714Y-32900952D01*
X224528095Y-32948571D01*
X224480476Y-33043809D01*
X224480476Y-33281904D01*
X224528095Y-33377142D01*
X224575714Y-33424761D01*
X224670952Y-33472380D01*
X224909047Y-33472380D01*
X225004285Y-33424761D01*
X225051904Y-33377142D01*
X224099523Y-32567619D02*
X224051904Y-32520000D01*
X223956666Y-32472380D01*
X223718571Y-32472380D01*
X223623333Y-32520000D01*
X223575714Y-32567619D01*
X223528095Y-32662857D01*
X223528095Y-32758095D01*
X223575714Y-32900952D01*
X224147142Y-33472380D01*
X223528095Y-33472380D01*
%TO.C,R53*%
X225432857Y-36266380D02*
X225766190Y-35790190D01*
X226004285Y-36266380D02*
X226004285Y-35266380D01*
X225623333Y-35266380D01*
X225528095Y-35314000D01*
X225480476Y-35361619D01*
X225432857Y-35456857D01*
X225432857Y-35599714D01*
X225480476Y-35694952D01*
X225528095Y-35742571D01*
X225623333Y-35790190D01*
X226004285Y-35790190D01*
X224528095Y-35266380D02*
X225004285Y-35266380D01*
X225051904Y-35742571D01*
X225004285Y-35694952D01*
X224909047Y-35647333D01*
X224670952Y-35647333D01*
X224575714Y-35694952D01*
X224528095Y-35742571D01*
X224480476Y-35837809D01*
X224480476Y-36075904D01*
X224528095Y-36171142D01*
X224575714Y-36218761D01*
X224670952Y-36266380D01*
X224909047Y-36266380D01*
X225004285Y-36218761D01*
X225051904Y-36171142D01*
X224147142Y-35266380D02*
X223528095Y-35266380D01*
X223861428Y-35647333D01*
X223718571Y-35647333D01*
X223623333Y-35694952D01*
X223575714Y-35742571D01*
X223528095Y-35837809D01*
X223528095Y-36075904D01*
X223575714Y-36171142D01*
X223623333Y-36218761D01*
X223718571Y-36266380D01*
X224004285Y-36266380D01*
X224099523Y-36218761D01*
X224147142Y-36171142D01*
%TO.C,R54*%
X225432857Y-39060380D02*
X225766190Y-38584190D01*
X226004285Y-39060380D02*
X226004285Y-38060380D01*
X225623333Y-38060380D01*
X225528095Y-38108000D01*
X225480476Y-38155619D01*
X225432857Y-38250857D01*
X225432857Y-38393714D01*
X225480476Y-38488952D01*
X225528095Y-38536571D01*
X225623333Y-38584190D01*
X226004285Y-38584190D01*
X224528095Y-38060380D02*
X225004285Y-38060380D01*
X225051904Y-38536571D01*
X225004285Y-38488952D01*
X224909047Y-38441333D01*
X224670952Y-38441333D01*
X224575714Y-38488952D01*
X224528095Y-38536571D01*
X224480476Y-38631809D01*
X224480476Y-38869904D01*
X224528095Y-38965142D01*
X224575714Y-39012761D01*
X224670952Y-39060380D01*
X224909047Y-39060380D01*
X225004285Y-39012761D01*
X225051904Y-38965142D01*
X223623333Y-38393714D02*
X223623333Y-39060380D01*
X223861428Y-38012761D02*
X224099523Y-38727047D01*
X223480476Y-38727047D01*
%TO.C,R55*%
X225432857Y-41854380D02*
X225766190Y-41378190D01*
X226004285Y-41854380D02*
X226004285Y-40854380D01*
X225623333Y-40854380D01*
X225528095Y-40902000D01*
X225480476Y-40949619D01*
X225432857Y-41044857D01*
X225432857Y-41187714D01*
X225480476Y-41282952D01*
X225528095Y-41330571D01*
X225623333Y-41378190D01*
X226004285Y-41378190D01*
X224528095Y-40854380D02*
X225004285Y-40854380D01*
X225051904Y-41330571D01*
X225004285Y-41282952D01*
X224909047Y-41235333D01*
X224670952Y-41235333D01*
X224575714Y-41282952D01*
X224528095Y-41330571D01*
X224480476Y-41425809D01*
X224480476Y-41663904D01*
X224528095Y-41759142D01*
X224575714Y-41806761D01*
X224670952Y-41854380D01*
X224909047Y-41854380D01*
X225004285Y-41806761D01*
X225051904Y-41759142D01*
X223575714Y-40854380D02*
X224051904Y-40854380D01*
X224099523Y-41330571D01*
X224051904Y-41282952D01*
X223956666Y-41235333D01*
X223718571Y-41235333D01*
X223623333Y-41282952D01*
X223575714Y-41330571D01*
X223528095Y-41425809D01*
X223528095Y-41663904D01*
X223575714Y-41759142D01*
X223623333Y-41806761D01*
X223718571Y-41854380D01*
X223956666Y-41854380D01*
X224051904Y-41806761D01*
X224099523Y-41759142D01*
%TO.C,R56*%
X225432857Y-44648380D02*
X225766190Y-44172190D01*
X226004285Y-44648380D02*
X226004285Y-43648380D01*
X225623333Y-43648380D01*
X225528095Y-43696000D01*
X225480476Y-43743619D01*
X225432857Y-43838857D01*
X225432857Y-43981714D01*
X225480476Y-44076952D01*
X225528095Y-44124571D01*
X225623333Y-44172190D01*
X226004285Y-44172190D01*
X224528095Y-43648380D02*
X225004285Y-43648380D01*
X225051904Y-44124571D01*
X225004285Y-44076952D01*
X224909047Y-44029333D01*
X224670952Y-44029333D01*
X224575714Y-44076952D01*
X224528095Y-44124571D01*
X224480476Y-44219809D01*
X224480476Y-44457904D01*
X224528095Y-44553142D01*
X224575714Y-44600761D01*
X224670952Y-44648380D01*
X224909047Y-44648380D01*
X225004285Y-44600761D01*
X225051904Y-44553142D01*
X223623333Y-43648380D02*
X223813809Y-43648380D01*
X223909047Y-43696000D01*
X223956666Y-43743619D01*
X224051904Y-43886476D01*
X224099523Y-44076952D01*
X224099523Y-44457904D01*
X224051904Y-44553142D01*
X224004285Y-44600761D01*
X223909047Y-44648380D01*
X223718571Y-44648380D01*
X223623333Y-44600761D01*
X223575714Y-44553142D01*
X223528095Y-44457904D01*
X223528095Y-44219809D01*
X223575714Y-44124571D01*
X223623333Y-44076952D01*
X223718571Y-44029333D01*
X223909047Y-44029333D01*
X224004285Y-44076952D01*
X224051904Y-44124571D01*
X224099523Y-44219809D01*
%TO.C,U7*%
X229366380Y-92202095D02*
X230175904Y-92202095D01*
X230271142Y-92249714D01*
X230318761Y-92297333D01*
X230366380Y-92392571D01*
X230366380Y-92583047D01*
X230318761Y-92678285D01*
X230271142Y-92725904D01*
X230175904Y-92773523D01*
X229366380Y-92773523D01*
X229366380Y-93154476D02*
X229366380Y-93821142D01*
X230366380Y-93392571D01*
%TO.C,U8*%
X223011904Y-66552380D02*
X223011904Y-67361904D01*
X222964285Y-67457142D01*
X222916666Y-67504761D01*
X222821428Y-67552380D01*
X222630952Y-67552380D01*
X222535714Y-67504761D01*
X222488095Y-67457142D01*
X222440476Y-67361904D01*
X222440476Y-66552380D01*
X221821428Y-66980952D02*
X221916666Y-66933333D01*
X221964285Y-66885714D01*
X222011904Y-66790476D01*
X222011904Y-66742857D01*
X221964285Y-66647619D01*
X221916666Y-66600000D01*
X221821428Y-66552380D01*
X221630952Y-66552380D01*
X221535714Y-66600000D01*
X221488095Y-66647619D01*
X221440476Y-66742857D01*
X221440476Y-66790476D01*
X221488095Y-66885714D01*
X221535714Y-66933333D01*
X221630952Y-66980952D01*
X221821428Y-66980952D01*
X221916666Y-67028571D01*
X221964285Y-67076190D01*
X222011904Y-67171428D01*
X222011904Y-67361904D01*
X221964285Y-67457142D01*
X221916666Y-67504761D01*
X221821428Y-67552380D01*
X221630952Y-67552380D01*
X221535714Y-67504761D01*
X221488095Y-67457142D01*
X221440476Y-67361904D01*
X221440476Y-67171428D01*
X221488095Y-67076190D01*
X221535714Y-67028571D01*
X221630952Y-66980952D01*
%TO.C,U9*%
X212089904Y-66552380D02*
X212089904Y-67361904D01*
X212042285Y-67457142D01*
X211994666Y-67504761D01*
X211899428Y-67552380D01*
X211708952Y-67552380D01*
X211613714Y-67504761D01*
X211566095Y-67457142D01*
X211518476Y-67361904D01*
X211518476Y-66552380D01*
X210994666Y-67552380D02*
X210804190Y-67552380D01*
X210708952Y-67504761D01*
X210661333Y-67457142D01*
X210566095Y-67314285D01*
X210518476Y-67123809D01*
X210518476Y-66742857D01*
X210566095Y-66647619D01*
X210613714Y-66600000D01*
X210708952Y-66552380D01*
X210899428Y-66552380D01*
X210994666Y-66600000D01*
X211042285Y-66647619D01*
X211089904Y-66742857D01*
X211089904Y-66980952D01*
X211042285Y-67076190D01*
X210994666Y-67123809D01*
X210899428Y-67171428D01*
X210708952Y-67171428D01*
X210613714Y-67123809D01*
X210566095Y-67076190D01*
X210518476Y-66980952D01*
%TD*%
M02*
