M48
; DRILL file {KiCad (5.1.10)-1} date 02/04/22 18:45:49
; FORMAT={-:-/ absolute / inch / decimal}
; #@! TF.CreationDate,2022-02-04T18:45:49-05:00
; #@! TF.GenerationSoftware,Kicad,Pcbnew,(5.1.10)-1
; #@! TF.FileFunction,Plated,1,2,PTH
FMAT,2
INCH
T1C0.0276
T2C0.0315
T3C0.0354
T4C0.0394
T5C0.0472
T6C0.0630
T7C0.0709
%
G90
G05
T1
X5.2Y-3.43
X5.2Y-3.59
X5.2Y-3.78
X5.2Y-3.95
X5.5Y-3.43
X5.5Y-3.59
X5.5Y-3.78
X5.5Y-3.95
X5.68Y-3.98
X5.68Y-4.15
X5.68Y-4.32
X5.68Y-4.53
X5.98Y-3.98
X5.98Y-4.15
X5.98Y-4.32
X5.98Y-4.53
X6.12Y-3.33
X6.12Y-3.66
X6.12Y-3.84
X6.12Y-4.01
X6.42Y-3.33
X6.42Y-3.66
X6.42Y-3.84
X6.42Y-4.01
X6.58Y-3.98
X6.58Y-4.15
X6.58Y-4.32
X6.58Y-4.53
X6.88Y-3.98
X6.88Y-4.15
X6.88Y-4.32
X6.88Y-4.53
X7.02Y-3.32
X7.02Y-3.66
X7.02Y-3.84
X7.02Y-4.01
X7.32Y-3.32
X7.32Y-3.66
X7.32Y-3.84
X7.32Y-4.01
X7.48Y-3.98
X7.48Y-4.16
X7.48Y-4.32
X7.48Y-4.53
X7.78Y-3.98
X7.78Y-4.16
X7.78Y-4.32
X7.78Y-4.53
X7.93Y-3.91
X8.2Y-3.17
X8.2Y-3.28
X8.21Y-2.82
X8.21Y-2.93
X8.22Y-3.51
X8.22Y-3.81
X8.23Y-3.91
X8.26Y-0.75
X8.26Y-0.86
X8.26Y-0.97
X8.26Y-1.08
X8.26Y-1.19
X8.26Y-1.3
X8.26Y-1.41
X8.26Y-1.52
X8.26Y-1.63
X8.26Y-1.74
X8.5Y-3.17
X8.5Y-3.28
X8.51Y-2.82
X8.51Y-2.93
X8.56Y-0.75
X8.56Y-0.86
X8.56Y-0.97
X8.56Y-1.08
X8.56Y-1.19
X8.56Y-1.3
X8.56Y-1.41
X8.56Y-1.52
X8.56Y-1.63
X8.56Y-1.74
X8.6Y-2.82
X8.6Y-2.93
X8.6Y-3.17
X8.6Y-3.28
X8.7Y-0.75
X8.7Y-0.86
X8.7Y-0.97
X8.7Y-1.08
X8.7Y-1.19
X8.7Y-1.3
X8.7Y-1.41
X8.7Y-1.52
X8.7Y-1.63
X8.7Y-1.74
X8.7Y-3.93
X8.78Y-4.25
X8.78Y-4.55
X8.9Y-2.82
X8.9Y-2.93
X8.9Y-3.17
X8.9Y-3.28
X9.0Y-0.75
X9.0Y-0.86
X9.0Y-0.97
X9.0Y-1.08
X9.0Y-1.19
X9.0Y-1.3
X9.0Y-1.41
X9.0Y-1.52
X9.0Y-1.63
X9.0Y-1.74
X9.0Y-3.93
T2
X5.28Y-1.34
X5.4769Y-1.34
X5.73Y-1.34
X5.9269Y-1.34
X6.19Y-1.34
X6.3869Y-1.34
X6.63Y-1.34
X6.8269Y-1.34
X7.08Y-1.34
X7.2769Y-1.34
X7.53Y-1.34
X7.7269Y-1.34
X7.91Y-2.21
X7.91Y-2.51
X7.94Y-3.1716
X7.94Y-3.27
X8.0Y-4.02
X8.05Y-1.93
X8.05Y-2.23
X8.05Y-2.5
X8.05Y-2.8
X8.06Y-2.92
X8.06Y-3.0184
X8.06Y-3.4116
X8.06Y-3.51
X8.17Y-1.95
X8.17Y-2.05
X8.17Y-2.15
X8.17Y-2.25
X8.17Y-2.35
X8.17Y-2.45
X8.17Y-2.55
X8.1969Y-4.02
X8.26Y-3.05
X8.3Y-2.7
X8.36Y-3.51
X8.36Y-3.81
X8.38Y-3.93
X8.4569Y-3.05
X8.46Y-3.51
X8.46Y-3.81
X8.47Y-1.95
X8.47Y-2.05
X8.47Y-2.15
X8.47Y-2.25
X8.47Y-2.35
X8.47Y-2.45
X8.47Y-2.55
X8.4969Y-2.7
X8.56Y-3.51
X8.56Y-3.81
X8.5769Y-3.93
X8.6Y-1.95
X8.6Y-2.05
X8.6Y-2.15
X8.6Y-2.25
X8.6Y-2.35
X8.6Y-2.45
X8.6Y-2.55
X8.6431Y-2.7
X8.66Y-3.05
X8.66Y-3.51
X8.66Y-3.81
X8.7031Y-4.05
X8.7231Y-3.39
X8.76Y-3.51
X8.76Y-3.81
X8.84Y-2.7
X8.8569Y-3.05
X8.86Y-3.51
X8.86Y-3.81
X8.9Y-1.95
X8.9Y-2.05
X8.9Y-2.15
X8.9Y-2.25
X8.9Y-2.35
X8.9Y-2.45
X8.9Y-2.55
X8.9Y-4.05
X8.92Y-3.39
X8.96Y-3.51
X8.96Y-3.81
T3
X9.12Y-0.94
X9.12Y-1.25
X9.12Y-1.56
X9.12Y-1.87
X9.12Y-2.18
X9.12Y-2.49
X9.12Y-2.8
X9.12Y-3.11
X9.12Y-3.42
X9.12Y-3.73
X9.22Y-0.94
X9.22Y-1.25
X9.22Y-1.56
X9.22Y-1.87
X9.22Y-2.18
X9.22Y-2.49
X9.22Y-2.8
X9.22Y-3.11
X9.22Y-3.42
X9.22Y-3.73
X9.57Y-2.8
X9.57Y-3.11
X9.57Y-3.42
X9.57Y-3.73
X9.58Y-0.94
X9.58Y-1.24
X9.58Y-1.56
X9.58Y-1.87
X9.58Y-2.18
X9.58Y-2.49
X9.67Y-2.8
X9.67Y-3.11
X9.67Y-3.42
X9.67Y-3.73
X9.68Y-0.94
X9.68Y-1.24
X9.68Y-1.56
X9.68Y-1.87
X9.68Y-2.18
X9.68Y-2.49
T4
X5.2731Y-4.14
X5.3716Y-4.14
X5.47Y-4.14
X5.72Y-3.82
X5.8184Y-3.82
X5.9169Y-3.82
X6.1831Y-4.14
X6.2816Y-4.14
X6.38Y-4.14
X6.62Y-3.82
X6.7184Y-3.82
X6.8169Y-3.82
X7.0831Y-4.14
X7.1816Y-4.14
X7.28Y-4.14
X7.52Y-3.82
X7.6184Y-3.82
X7.7169Y-3.82
X7.93Y-0.94
X7.93Y-1.04
X7.93Y-1.14
X7.93Y-1.24
X7.93Y-1.34
X7.93Y-1.44
X7.93Y-1.54
X7.93Y-1.64
X8.0116Y-4.26
X8.0116Y-4.3584
X8.0116Y-4.4569
X8.03Y-0.94
X8.03Y-1.04
X8.03Y-1.14
X8.03Y-1.24
X8.03Y-1.34
X8.03Y-1.44
X8.03Y-1.54
X8.03Y-1.64
X8.11Y-4.26
X8.11Y-4.3584
X8.11Y-4.4569
T5
X5.3013Y-1.4637
X5.3013Y-3.1763
X5.4587Y-1.4637
X5.7513Y-1.4637
X5.7513Y-3.1763
X5.9087Y-1.4637
X6.2013Y-1.4637
X6.2013Y-3.1763
X6.3587Y-1.4637
X6.6513Y-1.4637
X6.6513Y-3.1763
X6.8087Y-1.4637
X7.1013Y-1.4637
X7.1013Y-3.1763
X7.2587Y-1.4637
X7.5413Y-1.4637
X7.5413Y-3.1763
X7.6987Y-1.4637
T6
X5.38Y-0.7872
X5.38Y-1.11
X5.38Y-1.2281
X5.83Y-0.7872
X5.83Y-1.11
X5.83Y-1.2281
X6.28Y-0.7872
X6.28Y-1.11
X6.28Y-1.2281
X6.73Y-0.7872
X6.73Y-1.11
X6.73Y-1.2281
X7.18Y-0.7872
X7.18Y-1.11
X7.18Y-1.2281
X7.62Y-0.7872
X7.62Y-1.11
X7.62Y-1.2281
X9.17Y-4.1019
X9.17Y-4.22
X9.17Y-4.5428
X9.61Y-4.1019
X9.61Y-4.22
X9.61Y-4.5428
T7
X5.1826Y-4.4353
X5.5606Y-4.4353
X5.6294Y-3.5247
X6.0074Y-3.5247
X6.0926Y-4.4353
X6.4706Y-4.4353
X6.5294Y-3.5247
X6.9074Y-3.5247
X6.9926Y-4.4353
X7.3706Y-4.4353
X7.4294Y-3.5247
X7.8074Y-3.5247
X8.4053Y-4.1714
X8.4053Y-4.5454
T0
M30
