%TF.GenerationSoftware,KiCad,Pcbnew,(5.1.10)-1*%
%TF.CreationDate,2022-02-04T18:45:48-05:00*%
%TF.ProjectId,Stereo_Mixer,53746572-656f-45f4-9d69-7865722e6b69,rev?*%
%TF.SameCoordinates,Original*%
%TF.FileFunction,Soldermask,Bot*%
%TF.FilePolarity,Negative*%
%FSLAX46Y46*%
G04 Gerber Fmt 4.6, Leading zero omitted, Abs format (unit mm)*
G04 Created by KiCad (PCBNEW (5.1.10)-1) date 2022-02-04 18:45:48*
%MOMM*%
%LPD*%
G01*
G04 APERTURE LIST*
%ADD10C,1.600000*%
%ADD11O,1.400000X1.400000*%
%ADD12C,1.400000*%
%ADD13R,1.600000X1.600000*%
%ADD14R,1.800000X1.800000*%
%ADD15C,1.800000*%
%ADD16O,1.600000X1.600000*%
%ADD17O,4.000000X2.500000*%
%ADD18C,1.700000*%
%ADD19C,3.240000*%
%ADD20O,1.600000X2.400000*%
%ADD21R,1.600000X2.400000*%
%ADD22R,2.400000X1.600000*%
%ADD23O,2.400000X1.600000*%
%ADD24C,2.700000*%
G04 APERTURE END LIST*
D10*
%TO.C,C12*%
X224964000Y-77470000D03*
X219964000Y-77470000D03*
%TD*%
D11*
%TO.C,R29*%
X226060000Y-83312000D03*
D12*
X218440000Y-83312000D03*
%TD*%
%TO.C,R30*%
X218440000Y-80518000D03*
D11*
X226060000Y-80518000D03*
%TD*%
%TO.C,R33*%
X226060000Y-71628000D03*
D12*
X218440000Y-71628000D03*
%TD*%
%TO.C,R34*%
X218440000Y-74422000D03*
D11*
X226060000Y-74422000D03*
%TD*%
D10*
%TO.C,C1*%
X139112000Y-34036000D03*
X134112000Y-34036000D03*
%TD*%
%TO.C,C2*%
X150542000Y-34036000D03*
X145542000Y-34036000D03*
%TD*%
%TO.C,C3*%
X162226000Y-34036000D03*
X157226000Y-34036000D03*
%TD*%
%TO.C,C4*%
X168402000Y-34036000D03*
X173402000Y-34036000D03*
%TD*%
%TO.C,C5*%
X179832000Y-34036000D03*
X184832000Y-34036000D03*
%TD*%
%TO.C,C6*%
X196262000Y-34036000D03*
X191262000Y-34036000D03*
%TD*%
%TO.C,C7*%
X221060000Y-102870000D03*
X226060000Y-102870000D03*
%TD*%
%TO.C,C8*%
X203200000Y-102108000D03*
X208200000Y-102108000D03*
%TD*%
%TO.C,C9*%
X204724000Y-76668000D03*
D13*
X204724000Y-74168000D03*
%TD*%
%TO.C,C10*%
X204724000Y-89154000D03*
D10*
X204724000Y-86654000D03*
%TD*%
D13*
%TO.C,C11*%
X201676000Y-83058000D03*
D10*
X201676000Y-80558000D03*
%TD*%
%TO.C,C13*%
X209804000Y-77470000D03*
X214804000Y-77470000D03*
%TD*%
%TO.C,C14*%
X212852000Y-99822000D03*
X217852000Y-99822000D03*
%TD*%
%TO.C,C15*%
X226568000Y-86106000D03*
X221568000Y-86106000D03*
%TD*%
%TO.C,C16*%
X219536000Y-68580000D03*
X224536000Y-68580000D03*
%TD*%
%TO.C,C17*%
X215820000Y-68580000D03*
X210820000Y-68580000D03*
%TD*%
D14*
%TO.C,D1*%
X231648000Y-23876000D03*
D15*
X234188000Y-23876000D03*
%TD*%
D14*
%TO.C,D2*%
X231648000Y-31750000D03*
D15*
X234188000Y-31750000D03*
%TD*%
D14*
%TO.C,D3*%
X231648000Y-39624000D03*
D15*
X234188000Y-39624000D03*
%TD*%
%TO.C,D4*%
X234188000Y-47498000D03*
D14*
X231648000Y-47498000D03*
%TD*%
D15*
%TO.C,D5*%
X234188000Y-55372000D03*
D14*
X231648000Y-55372000D03*
%TD*%
D15*
%TO.C,D6*%
X234188000Y-63246000D03*
D14*
X231648000Y-63246000D03*
%TD*%
%TO.C,D7*%
X231648000Y-71120000D03*
D15*
X234188000Y-71120000D03*
%TD*%
%TO.C,D8*%
X234188000Y-78994000D03*
D14*
X231648000Y-78994000D03*
%TD*%
%TO.C,D9*%
X231648000Y-86868000D03*
D15*
X234188000Y-86868000D03*
%TD*%
%TO.C,D10*%
X234188000Y-94742000D03*
D14*
X231648000Y-94742000D03*
%TD*%
%TO.C,D11*%
X243332000Y-23876000D03*
D15*
X245872000Y-23876000D03*
%TD*%
%TO.C,D12*%
X245872000Y-31496000D03*
D14*
X243332000Y-31496000D03*
%TD*%
%TO.C,D13*%
X243332000Y-39624000D03*
D15*
X245872000Y-39624000D03*
%TD*%
%TO.C,D14*%
X245872000Y-47498000D03*
D14*
X243332000Y-47498000D03*
%TD*%
%TO.C,D15*%
X243332000Y-55372000D03*
D15*
X245872000Y-55372000D03*
%TD*%
%TO.C,D16*%
X245872000Y-63246000D03*
D14*
X243332000Y-63246000D03*
%TD*%
%TO.C,D17*%
X243078000Y-71120000D03*
D15*
X245618000Y-71120000D03*
%TD*%
%TO.C,D18*%
X245618000Y-78994000D03*
D14*
X243078000Y-78994000D03*
%TD*%
%TO.C,D19*%
X243078000Y-86868000D03*
D15*
X245618000Y-86868000D03*
%TD*%
%TO.C,D20*%
X245618000Y-94742000D03*
D14*
X243078000Y-94742000D03*
%TD*%
D10*
%TO.C,FB1*%
X204470000Y-71120000D03*
D16*
X204470000Y-63500000D03*
%TD*%
%TO.C,FB2*%
X204470000Y-49022000D03*
D10*
X204470000Y-56642000D03*
%TD*%
%TO.C,FB3*%
X200914000Y-63754000D03*
D16*
X200914000Y-56134000D03*
%TD*%
D17*
%TO.C,J1*%
X232918000Y-115388000D03*
X232918000Y-107188000D03*
X232918000Y-104188000D03*
%TD*%
%TO.C,J2*%
X244094000Y-104188000D03*
X244094000Y-107188000D03*
X244094000Y-115388000D03*
%TD*%
%TO.C,J3*%
G36*
G01*
X200572000Y-42256000D02*
X200572000Y-41056000D01*
G75*
G02*
X200822000Y-40806000I250000J0D01*
G01*
X202022000Y-40806000D01*
G75*
G02*
X202272000Y-41056000I0J-250000D01*
G01*
X202272000Y-42256000D01*
G75*
G02*
X202022000Y-42506000I-250000J0D01*
G01*
X200822000Y-42506000D01*
G75*
G02*
X200572000Y-42256000I0J250000D01*
G01*
G37*
D18*
X201422000Y-39116000D03*
X201422000Y-36576000D03*
X201422000Y-34036000D03*
X201422000Y-31496000D03*
X201422000Y-28956000D03*
X201422000Y-26416000D03*
X201422000Y-23876000D03*
X203962000Y-41656000D03*
X203962000Y-39116000D03*
X203962000Y-36576000D03*
X203962000Y-34036000D03*
X203962000Y-31496000D03*
X203962000Y-28956000D03*
X203962000Y-26416000D03*
X203962000Y-23876000D03*
%TD*%
D12*
%TO.C,R1*%
X132080000Y-96012000D03*
D11*
X139700000Y-96012000D03*
%TD*%
%TO.C,R2*%
X139700000Y-100330000D03*
D12*
X132080000Y-100330000D03*
%TD*%
D11*
%TO.C,R3*%
X151892000Y-109728000D03*
D12*
X144272000Y-109728000D03*
%TD*%
%TO.C,R4*%
X144272000Y-105410000D03*
D11*
X151892000Y-105410000D03*
%TD*%
%TO.C,R5*%
X155448000Y-84582000D03*
D12*
X163068000Y-84582000D03*
%TD*%
%TO.C,R6*%
X163068000Y-101854000D03*
D11*
X155448000Y-101854000D03*
%TD*%
D12*
%TO.C,R7*%
X167132000Y-109728000D03*
D11*
X174752000Y-109728000D03*
%TD*%
%TO.C,R8*%
X174752000Y-105410000D03*
D12*
X167132000Y-105410000D03*
%TD*%
%TO.C,R9*%
X185928000Y-84328000D03*
D11*
X178308000Y-84328000D03*
%TD*%
%TO.C,R10*%
X178308000Y-101854000D03*
D12*
X185928000Y-101854000D03*
%TD*%
D11*
%TO.C,R11*%
X197612000Y-109728000D03*
D12*
X189992000Y-109728000D03*
%TD*%
%TO.C,R12*%
X189992000Y-105664000D03*
D11*
X197612000Y-105664000D03*
%TD*%
%TO.C,R13*%
X139700000Y-87122000D03*
D12*
X132080000Y-87122000D03*
%TD*%
%TO.C,R14*%
X139700000Y-91186000D03*
D11*
X132080000Y-91186000D03*
%TD*%
D12*
%TO.C,R15*%
X144272000Y-115062000D03*
D11*
X151892000Y-115062000D03*
%TD*%
%TO.C,R16*%
X151892000Y-101092000D03*
D12*
X144272000Y-101092000D03*
%TD*%
%TO.C,R17*%
X163068000Y-97536000D03*
D11*
X155448000Y-97536000D03*
%TD*%
%TO.C,R18*%
X155448000Y-92964000D03*
D12*
X163068000Y-92964000D03*
%TD*%
D11*
%TO.C,R19*%
X174752000Y-115062000D03*
D12*
X167132000Y-115062000D03*
%TD*%
%TO.C,R20*%
X167132000Y-101092000D03*
D11*
X174752000Y-101092000D03*
%TD*%
%TO.C,R21*%
X178308000Y-97536000D03*
D12*
X185928000Y-97536000D03*
%TD*%
%TO.C,R22*%
X185928000Y-92964000D03*
D11*
X178308000Y-92964000D03*
%TD*%
%TO.C,R23*%
X197612000Y-115062000D03*
D12*
X189992000Y-115062000D03*
%TD*%
%TO.C,R24*%
X189992000Y-101092000D03*
D11*
X197612000Y-101092000D03*
%TD*%
D12*
%TO.C,R25*%
X228600000Y-99822000D03*
D11*
X220980000Y-99822000D03*
%TD*%
%TO.C,R26*%
X209042000Y-99314000D03*
D12*
X201422000Y-99314000D03*
%TD*%
%TO.C,R27*%
X208788000Y-89154000D03*
D11*
X208788000Y-96774000D03*
%TD*%
%TO.C,R28*%
X223012000Y-115570000D03*
D12*
X223012000Y-107950000D03*
%TD*%
%TO.C,R31*%
X208280000Y-83312000D03*
D11*
X215900000Y-83312000D03*
%TD*%
%TO.C,R32*%
X215900000Y-80518000D03*
D12*
X208280000Y-80518000D03*
%TD*%
D11*
%TO.C,R35*%
X216154000Y-71628000D03*
D12*
X208534000Y-71628000D03*
%TD*%
%TO.C,R36*%
X208534000Y-74422000D03*
D11*
X216154000Y-74422000D03*
%TD*%
%TO.C,R37*%
X209804000Y-19050000D03*
D12*
X217424000Y-19050000D03*
%TD*%
%TO.C,R38*%
X217424000Y-21844000D03*
D11*
X209804000Y-21844000D03*
%TD*%
%TO.C,R39*%
X209804000Y-24638000D03*
D12*
X217424000Y-24638000D03*
%TD*%
D11*
%TO.C,R40*%
X209804000Y-27432000D03*
D12*
X217424000Y-27432000D03*
%TD*%
%TO.C,R41*%
X217424000Y-30226000D03*
D11*
X209804000Y-30226000D03*
%TD*%
%TO.C,R42*%
X209804000Y-33020000D03*
D12*
X217424000Y-33020000D03*
%TD*%
%TO.C,R43*%
X217424000Y-35814000D03*
D11*
X209804000Y-35814000D03*
%TD*%
D12*
%TO.C,R44*%
X217424000Y-38608000D03*
D11*
X209804000Y-38608000D03*
%TD*%
D12*
%TO.C,R45*%
X217424000Y-41402000D03*
D11*
X209804000Y-41402000D03*
%TD*%
%TO.C,R46*%
X209804000Y-44196000D03*
D12*
X217424000Y-44196000D03*
%TD*%
%TO.C,R47*%
X228600000Y-19050000D03*
D11*
X220980000Y-19050000D03*
%TD*%
%TO.C,R48*%
X220980000Y-21844000D03*
D12*
X228600000Y-21844000D03*
%TD*%
%TO.C,R49*%
X228600000Y-24638000D03*
D11*
X220980000Y-24638000D03*
%TD*%
%TO.C,R50*%
X220980000Y-27432000D03*
D12*
X228600000Y-27432000D03*
%TD*%
%TO.C,R51*%
X228600000Y-30226000D03*
D11*
X220980000Y-30226000D03*
%TD*%
%TO.C,R52*%
X220980000Y-33020000D03*
D12*
X228600000Y-33020000D03*
%TD*%
%TO.C,R53*%
X228600000Y-35814000D03*
D11*
X220980000Y-35814000D03*
%TD*%
%TO.C,R54*%
X220980000Y-38608000D03*
D12*
X228600000Y-38608000D03*
%TD*%
%TO.C,R55*%
X228600000Y-41402000D03*
D11*
X220980000Y-41402000D03*
%TD*%
%TO.C,R56*%
X220980000Y-44196000D03*
D12*
X228600000Y-44196000D03*
%TD*%
D19*
%TO.C,RV7*%
X141238000Y-112656000D03*
X131638000Y-112656000D03*
D15*
X133938000Y-105156000D03*
X136438000Y-105156000D03*
D14*
X138938000Y-105156000D03*
%TD*%
%TO.C,RV8*%
X145288000Y-97028000D03*
D15*
X147788000Y-97028000D03*
X150288000Y-97028000D03*
D19*
X152588000Y-89528000D03*
X142988000Y-89528000D03*
%TD*%
%TO.C,RV9*%
X164352000Y-112656000D03*
X154752000Y-112656000D03*
D15*
X157052000Y-105156000D03*
X159552000Y-105156000D03*
D14*
X162052000Y-105156000D03*
%TD*%
D19*
%TO.C,RV10*%
X165848000Y-89528000D03*
X175448000Y-89528000D03*
D15*
X173148000Y-97028000D03*
X170648000Y-97028000D03*
D14*
X168148000Y-97028000D03*
%TD*%
D19*
%TO.C,RV11*%
X187212000Y-112656000D03*
X177612000Y-112656000D03*
D15*
X179912000Y-105156000D03*
X182412000Y-105156000D03*
D14*
X184912000Y-105156000D03*
%TD*%
D19*
%TO.C,RV12*%
X188708000Y-89528000D03*
X198308000Y-89528000D03*
D15*
X196008000Y-97028000D03*
X193508000Y-97028000D03*
D14*
X191008000Y-97028000D03*
%TD*%
D15*
%TO.C,RV13*%
X203494000Y-108204000D03*
X203494000Y-110704000D03*
X203494000Y-113204000D03*
D19*
X213494000Y-105954000D03*
X213494000Y-115454000D03*
D15*
X205994000Y-113204000D03*
X205994000Y-110704000D03*
D14*
X205994000Y-108204000D03*
%TD*%
D17*
%TO.C,U1*%
X136652000Y-31194000D03*
X136652000Y-28194000D03*
X136652000Y-19994000D03*
%TD*%
%TO.C,U2*%
X148082000Y-19994000D03*
X148082000Y-28194000D03*
X148082000Y-31194000D03*
%TD*%
%TO.C,U3*%
X159512000Y-19994000D03*
X159512000Y-28194000D03*
X159512000Y-31194000D03*
%TD*%
%TO.C,U4*%
X170942000Y-31194000D03*
X170942000Y-28194000D03*
X170942000Y-19994000D03*
%TD*%
%TO.C,U5*%
X182372000Y-19994000D03*
X182372000Y-28194000D03*
X182372000Y-31194000D03*
%TD*%
%TO.C,U6*%
X193548000Y-31194000D03*
X193548000Y-28194000D03*
X193548000Y-19994000D03*
%TD*%
D20*
%TO.C,U7*%
X227584000Y-89154000D03*
X212344000Y-96774000D03*
X225044000Y-89154000D03*
X214884000Y-96774000D03*
X222504000Y-89154000D03*
X217424000Y-96774000D03*
X219964000Y-89154000D03*
X219964000Y-96774000D03*
X217424000Y-89154000D03*
X222504000Y-96774000D03*
X214884000Y-89154000D03*
X225044000Y-96774000D03*
X212344000Y-89154000D03*
D21*
X227584000Y-96774000D03*
%TD*%
D22*
%TO.C,U8*%
X218440000Y-64770000D03*
D23*
X226060000Y-49530000D03*
X218440000Y-62230000D03*
X226060000Y-52070000D03*
X218440000Y-59690000D03*
X226060000Y-54610000D03*
X218440000Y-57150000D03*
X226060000Y-57150000D03*
X218440000Y-54610000D03*
X226060000Y-59690000D03*
X218440000Y-52070000D03*
X226060000Y-62230000D03*
X218440000Y-49530000D03*
X226060000Y-64770000D03*
%TD*%
D22*
%TO.C,U9*%
X207518000Y-64770000D03*
D23*
X215138000Y-49530000D03*
X207518000Y-62230000D03*
X215138000Y-52070000D03*
X207518000Y-59690000D03*
X215138000Y-54610000D03*
X207518000Y-57150000D03*
X215138000Y-57150000D03*
X207518000Y-54610000D03*
X215138000Y-59690000D03*
X207518000Y-52070000D03*
X215138000Y-62230000D03*
X207518000Y-49530000D03*
X215138000Y-64770000D03*
%TD*%
D24*
%TO.C,RV1*%
X134652000Y-80678000D03*
X138652000Y-37178000D03*
X134652000Y-37178000D03*
%TD*%
%TO.C,RV2*%
X146082000Y-80678000D03*
X150082000Y-37178000D03*
X146082000Y-37178000D03*
%TD*%
%TO.C,RV3*%
X157512000Y-80678000D03*
X161512000Y-37178000D03*
X157512000Y-37178000D03*
%TD*%
%TO.C,RV4*%
X168942000Y-37178000D03*
X172942000Y-37178000D03*
X168942000Y-80678000D03*
%TD*%
%TO.C,RV5*%
X180372000Y-37178000D03*
X184372000Y-37178000D03*
X180372000Y-80678000D03*
%TD*%
%TO.C,RV6*%
X191548000Y-37178000D03*
X195548000Y-37178000D03*
X191548000Y-80678000D03*
%TD*%
M02*
