%TF.GenerationSoftware,KiCad,Pcbnew,(5.1.10)-1*%
%TF.CreationDate,2022-02-04T18:45:48-05:00*%
%TF.ProjectId,Stereo_Mixer,53746572-656f-45f4-9d69-7865722e6b69,rev?*%
%TF.SameCoordinates,Original*%
%TF.FileFunction,Legend,Top*%
%TF.FilePolarity,Positive*%
%FSLAX46Y46*%
G04 Gerber Fmt 4.6, Leading zero omitted, Abs format (unit mm)*
G04 Created by KiCad (PCBNEW (5.1.10)-1) date 2022-02-04 18:45:48*
%MOMM*%
%LPD*%
G01*
G04 APERTURE LIST*
%ADD10C,0.120000*%
%ADD11C,0.150000*%
G04 APERTURE END LIST*
D10*
%TO.C,C12*%
X224934000Y-78525000D02*
X224934000Y-78840000D01*
X224934000Y-76100000D02*
X224934000Y-76415000D01*
X219994000Y-78525000D02*
X219994000Y-78840000D01*
X219994000Y-76100000D02*
X219994000Y-76415000D01*
X219994000Y-78840000D02*
X224934000Y-78840000D01*
X219994000Y-76100000D02*
X224934000Y-76100000D01*
%TO.C,R29*%
X225120000Y-83312000D02*
X224170000Y-83312000D01*
X219380000Y-83312000D02*
X220330000Y-83312000D01*
X224170000Y-82392000D02*
X220330000Y-82392000D01*
X224170000Y-84232000D02*
X224170000Y-82392000D01*
X220330000Y-84232000D02*
X224170000Y-84232000D01*
X220330000Y-82392000D02*
X220330000Y-84232000D01*
%TO.C,R30*%
X220330000Y-79598000D02*
X220330000Y-81438000D01*
X220330000Y-81438000D02*
X224170000Y-81438000D01*
X224170000Y-81438000D02*
X224170000Y-79598000D01*
X224170000Y-79598000D02*
X220330000Y-79598000D01*
X219380000Y-80518000D02*
X220330000Y-80518000D01*
X225120000Y-80518000D02*
X224170000Y-80518000D01*
%TO.C,R33*%
X225120000Y-71628000D02*
X224170000Y-71628000D01*
X219380000Y-71628000D02*
X220330000Y-71628000D01*
X224170000Y-70708000D02*
X220330000Y-70708000D01*
X224170000Y-72548000D02*
X224170000Y-70708000D01*
X220330000Y-72548000D02*
X224170000Y-72548000D01*
X220330000Y-70708000D02*
X220330000Y-72548000D01*
%TO.C,R34*%
X220330000Y-73502000D02*
X220330000Y-75342000D01*
X220330000Y-75342000D02*
X224170000Y-75342000D01*
X224170000Y-75342000D02*
X224170000Y-73502000D01*
X224170000Y-73502000D02*
X220330000Y-73502000D01*
X219380000Y-74422000D02*
X220330000Y-74422000D01*
X225120000Y-74422000D02*
X224170000Y-74422000D01*
%TO.C,C7*%
X221290000Y-101815000D02*
X221290000Y-101800000D01*
X221290000Y-103940000D02*
X221290000Y-103925000D01*
X225830000Y-101815000D02*
X225830000Y-101800000D01*
X225830000Y-103940000D02*
X225830000Y-103925000D01*
X225830000Y-101800000D02*
X221290000Y-101800000D01*
X225830000Y-103940000D02*
X221290000Y-103940000D01*
%TO.C,C8*%
X203430000Y-101038000D02*
X207970000Y-101038000D01*
X203430000Y-103178000D02*
X207970000Y-103178000D01*
X203430000Y-101038000D02*
X203430000Y-101053000D01*
X203430000Y-103163000D02*
X203430000Y-103178000D01*
X207970000Y-101038000D02*
X207970000Y-101053000D01*
X207970000Y-103163000D02*
X207970000Y-103178000D01*
%TO.C,C13*%
X209834000Y-76100000D02*
X214774000Y-76100000D01*
X209834000Y-78840000D02*
X214774000Y-78840000D01*
X209834000Y-76100000D02*
X209834000Y-76415000D01*
X209834000Y-78525000D02*
X209834000Y-78840000D01*
X214774000Y-76100000D02*
X214774000Y-76415000D01*
X214774000Y-78525000D02*
X214774000Y-78840000D01*
%TO.C,C14*%
X213082000Y-98752000D02*
X217622000Y-98752000D01*
X213082000Y-100892000D02*
X217622000Y-100892000D01*
X213082000Y-98752000D02*
X213082000Y-98767000D01*
X213082000Y-100877000D02*
X213082000Y-100892000D01*
X217622000Y-98752000D02*
X217622000Y-98767000D01*
X217622000Y-100877000D02*
X217622000Y-100892000D01*
%TO.C,C15*%
X226338000Y-87176000D02*
X221798000Y-87176000D01*
X226338000Y-85036000D02*
X221798000Y-85036000D01*
X226338000Y-87176000D02*
X226338000Y-87161000D01*
X226338000Y-85051000D02*
X226338000Y-85036000D01*
X221798000Y-87176000D02*
X221798000Y-87161000D01*
X221798000Y-85051000D02*
X221798000Y-85036000D01*
%TO.C,C16*%
X219566000Y-67210000D02*
X224506000Y-67210000D01*
X219566000Y-69950000D02*
X224506000Y-69950000D01*
X219566000Y-67210000D02*
X219566000Y-67525000D01*
X219566000Y-69635000D02*
X219566000Y-69950000D01*
X224506000Y-67210000D02*
X224506000Y-67525000D01*
X224506000Y-69635000D02*
X224506000Y-69950000D01*
%TO.C,C17*%
X215790000Y-69635000D02*
X215790000Y-69950000D01*
X215790000Y-67210000D02*
X215790000Y-67525000D01*
X210850000Y-69635000D02*
X210850000Y-69950000D01*
X210850000Y-67210000D02*
X210850000Y-67525000D01*
X210850000Y-69950000D02*
X215790000Y-69950000D01*
X210850000Y-67210000D02*
X215790000Y-67210000D01*
%TO.C,D1*%
X235418000Y-23876000D02*
G75*
G03*
X235418000Y-23876000I-2500000J0D01*
G01*
X230358000Y-22331000D02*
X230358000Y-25421000D01*
X235908000Y-23876462D02*
G75*
G03*
X230358000Y-22331170I-2990000J462D01*
G01*
X235908000Y-23875538D02*
G75*
G02*
X230358000Y-25420830I-2990000J-462D01*
G01*
%TO.C,D2*%
X235418000Y-31750000D02*
G75*
G03*
X235418000Y-31750000I-2500000J0D01*
G01*
X230358000Y-30205000D02*
X230358000Y-33295000D01*
X235908000Y-31750462D02*
G75*
G03*
X230358000Y-30205170I-2990000J462D01*
G01*
X235908000Y-31749538D02*
G75*
G02*
X230358000Y-33294830I-2990000J-462D01*
G01*
%TO.C,D3*%
X235418000Y-39624000D02*
G75*
G03*
X235418000Y-39624000I-2500000J0D01*
G01*
X230358000Y-38079000D02*
X230358000Y-41169000D01*
X235908000Y-39624462D02*
G75*
G03*
X230358000Y-38079170I-2990000J462D01*
G01*
X235908000Y-39623538D02*
G75*
G02*
X230358000Y-41168830I-2990000J-462D01*
G01*
%TO.C,D4*%
X230358000Y-45953000D02*
X230358000Y-49043000D01*
X235418000Y-47498000D02*
G75*
G03*
X235418000Y-47498000I-2500000J0D01*
G01*
X235908000Y-47497538D02*
G75*
G02*
X230358000Y-49042830I-2990000J-462D01*
G01*
X235908000Y-47498462D02*
G75*
G03*
X230358000Y-45953170I-2990000J462D01*
G01*
%TO.C,D5*%
X230358000Y-53827000D02*
X230358000Y-56917000D01*
X235418000Y-55372000D02*
G75*
G03*
X235418000Y-55372000I-2500000J0D01*
G01*
X235908000Y-55371538D02*
G75*
G02*
X230358000Y-56916830I-2990000J-462D01*
G01*
X235908000Y-55372462D02*
G75*
G03*
X230358000Y-53827170I-2990000J462D01*
G01*
%TO.C,D6*%
X230358000Y-61701000D02*
X230358000Y-64791000D01*
X235418000Y-63246000D02*
G75*
G03*
X235418000Y-63246000I-2500000J0D01*
G01*
X235908000Y-63245538D02*
G75*
G02*
X230358000Y-64790830I-2990000J-462D01*
G01*
X235908000Y-63246462D02*
G75*
G03*
X230358000Y-61701170I-2990000J462D01*
G01*
%TO.C,D7*%
X235418000Y-71120000D02*
G75*
G03*
X235418000Y-71120000I-2500000J0D01*
G01*
X230358000Y-69575000D02*
X230358000Y-72665000D01*
X235908000Y-71120462D02*
G75*
G03*
X230358000Y-69575170I-2990000J462D01*
G01*
X235908000Y-71119538D02*
G75*
G02*
X230358000Y-72664830I-2990000J-462D01*
G01*
%TO.C,D8*%
X230358000Y-77449000D02*
X230358000Y-80539000D01*
X235418000Y-78994000D02*
G75*
G03*
X235418000Y-78994000I-2500000J0D01*
G01*
X235908000Y-78993538D02*
G75*
G02*
X230358000Y-80538830I-2990000J-462D01*
G01*
X235908000Y-78994462D02*
G75*
G03*
X230358000Y-77449170I-2990000J462D01*
G01*
%TO.C,D9*%
X235418000Y-86868000D02*
G75*
G03*
X235418000Y-86868000I-2500000J0D01*
G01*
X230358000Y-85323000D02*
X230358000Y-88413000D01*
X235908000Y-86868462D02*
G75*
G03*
X230358000Y-85323170I-2990000J462D01*
G01*
X235908000Y-86867538D02*
G75*
G02*
X230358000Y-88412830I-2990000J-462D01*
G01*
%TO.C,D10*%
X230358000Y-93197000D02*
X230358000Y-96287000D01*
X235418000Y-94742000D02*
G75*
G03*
X235418000Y-94742000I-2500000J0D01*
G01*
X235908000Y-94741538D02*
G75*
G02*
X230358000Y-96286830I-2990000J-462D01*
G01*
X235908000Y-94742462D02*
G75*
G03*
X230358000Y-93197170I-2990000J462D01*
G01*
%TO.C,D11*%
X247102000Y-23876000D02*
G75*
G03*
X247102000Y-23876000I-2500000J0D01*
G01*
X242042000Y-22331000D02*
X242042000Y-25421000D01*
X247592000Y-23876462D02*
G75*
G03*
X242042000Y-22331170I-2990000J462D01*
G01*
X247592000Y-23875538D02*
G75*
G02*
X242042000Y-25420830I-2990000J-462D01*
G01*
%TO.C,D12*%
X242042000Y-29951000D02*
X242042000Y-33041000D01*
X247102000Y-31496000D02*
G75*
G03*
X247102000Y-31496000I-2500000J0D01*
G01*
X247592000Y-31495538D02*
G75*
G02*
X242042000Y-33040830I-2990000J-462D01*
G01*
X247592000Y-31496462D02*
G75*
G03*
X242042000Y-29951170I-2990000J462D01*
G01*
%TO.C,D13*%
X247102000Y-39624000D02*
G75*
G03*
X247102000Y-39624000I-2500000J0D01*
G01*
X242042000Y-38079000D02*
X242042000Y-41169000D01*
X247592000Y-39624462D02*
G75*
G03*
X242042000Y-38079170I-2990000J462D01*
G01*
X247592000Y-39623538D02*
G75*
G02*
X242042000Y-41168830I-2990000J-462D01*
G01*
%TO.C,D14*%
X242042000Y-45953000D02*
X242042000Y-49043000D01*
X247102000Y-47498000D02*
G75*
G03*
X247102000Y-47498000I-2500000J0D01*
G01*
X247592000Y-47497538D02*
G75*
G02*
X242042000Y-49042830I-2990000J-462D01*
G01*
X247592000Y-47498462D02*
G75*
G03*
X242042000Y-45953170I-2990000J462D01*
G01*
%TO.C,D15*%
X247102000Y-55372000D02*
G75*
G03*
X247102000Y-55372000I-2500000J0D01*
G01*
X242042000Y-53827000D02*
X242042000Y-56917000D01*
X247592000Y-55372462D02*
G75*
G03*
X242042000Y-53827170I-2990000J462D01*
G01*
X247592000Y-55371538D02*
G75*
G02*
X242042000Y-56916830I-2990000J-462D01*
G01*
%TO.C,D16*%
X242042000Y-61701000D02*
X242042000Y-64791000D01*
X247102000Y-63246000D02*
G75*
G03*
X247102000Y-63246000I-2500000J0D01*
G01*
X247592000Y-63245538D02*
G75*
G02*
X242042000Y-64790830I-2990000J-462D01*
G01*
X247592000Y-63246462D02*
G75*
G03*
X242042000Y-61701170I-2990000J462D01*
G01*
%TO.C,D17*%
X246848000Y-71120000D02*
G75*
G03*
X246848000Y-71120000I-2500000J0D01*
G01*
X241788000Y-69575000D02*
X241788000Y-72665000D01*
X247338000Y-71120462D02*
G75*
G03*
X241788000Y-69575170I-2990000J462D01*
G01*
X247338000Y-71119538D02*
G75*
G02*
X241788000Y-72664830I-2990000J-462D01*
G01*
%TO.C,D18*%
X241788000Y-77449000D02*
X241788000Y-80539000D01*
X246848000Y-78994000D02*
G75*
G03*
X246848000Y-78994000I-2500000J0D01*
G01*
X247338000Y-78993538D02*
G75*
G02*
X241788000Y-80538830I-2990000J-462D01*
G01*
X247338000Y-78994462D02*
G75*
G03*
X241788000Y-77449170I-2990000J462D01*
G01*
%TO.C,D19*%
X246848000Y-86868000D02*
G75*
G03*
X246848000Y-86868000I-2500000J0D01*
G01*
X241788000Y-85323000D02*
X241788000Y-88413000D01*
X247338000Y-86868462D02*
G75*
G03*
X241788000Y-85323170I-2990000J462D01*
G01*
X247338000Y-86867538D02*
G75*
G02*
X241788000Y-88412830I-2990000J-462D01*
G01*
%TO.C,D20*%
X241788000Y-93197000D02*
X241788000Y-96287000D01*
X246848000Y-94742000D02*
G75*
G03*
X246848000Y-94742000I-2500000J0D01*
G01*
X247338000Y-94741538D02*
G75*
G02*
X241788000Y-96286830I-2990000J-462D01*
G01*
X247338000Y-94742462D02*
G75*
G03*
X241788000Y-93197170I-2990000J462D01*
G01*
%TO.C,J1*%
X234714051Y-110998000D02*
G75*
G03*
X234714051Y-110998000I-1796051J0D01*
G01*
X227838000Y-117348000D02*
X237998000Y-117348000D01*
X237998000Y-117348000D02*
X237998000Y-105918000D01*
X237998000Y-105918000D02*
X227838000Y-105918000D01*
X227838000Y-105918000D02*
X227838000Y-117348000D01*
X235457999Y-108458001D02*
G75*
G02*
X235457999Y-113537999I-2539999J-2539999D01*
G01*
X230378001Y-113537999D02*
G75*
G02*
X230378001Y-108458001I2539999J2539999D01*
G01*
%TO.C,J2*%
X239014000Y-105918000D02*
X239014000Y-117348000D01*
X249174000Y-105918000D02*
X239014000Y-105918000D01*
X249174000Y-117348000D02*
X249174000Y-105918000D01*
X239014000Y-117348000D02*
X249174000Y-117348000D01*
X245890051Y-110998000D02*
G75*
G03*
X245890051Y-110998000I-1796051J0D01*
G01*
X241554001Y-113537999D02*
G75*
G02*
X241554001Y-108458001I2539999J2539999D01*
G01*
X246633999Y-108458001D02*
G75*
G02*
X246633999Y-113537999I-2539999J-2539999D01*
G01*
%TO.C,R25*%
X226710000Y-100742000D02*
X226710000Y-98902000D01*
X226710000Y-98902000D02*
X222870000Y-98902000D01*
X222870000Y-98902000D02*
X222870000Y-100742000D01*
X222870000Y-100742000D02*
X226710000Y-100742000D01*
X227660000Y-99822000D02*
X226710000Y-99822000D01*
X221920000Y-99822000D02*
X222870000Y-99822000D01*
%TO.C,R26*%
X208102000Y-99314000D02*
X207152000Y-99314000D01*
X202362000Y-99314000D02*
X203312000Y-99314000D01*
X207152000Y-98394000D02*
X203312000Y-98394000D01*
X207152000Y-100234000D02*
X207152000Y-98394000D01*
X203312000Y-100234000D02*
X207152000Y-100234000D01*
X203312000Y-98394000D02*
X203312000Y-100234000D01*
%TO.C,R27*%
X209708000Y-91044000D02*
X207868000Y-91044000D01*
X207868000Y-91044000D02*
X207868000Y-94884000D01*
X207868000Y-94884000D02*
X209708000Y-94884000D01*
X209708000Y-94884000D02*
X209708000Y-91044000D01*
X208788000Y-90094000D02*
X208788000Y-91044000D01*
X208788000Y-95834000D02*
X208788000Y-94884000D01*
%TO.C,R28*%
X223012000Y-114630000D02*
X223012000Y-113680000D01*
X223012000Y-108890000D02*
X223012000Y-109840000D01*
X223932000Y-113680000D02*
X223932000Y-109840000D01*
X222092000Y-113680000D02*
X223932000Y-113680000D01*
X222092000Y-109840000D02*
X222092000Y-113680000D01*
X223932000Y-109840000D02*
X222092000Y-109840000D01*
%TO.C,R31*%
X210170000Y-82392000D02*
X210170000Y-84232000D01*
X210170000Y-84232000D02*
X214010000Y-84232000D01*
X214010000Y-84232000D02*
X214010000Y-82392000D01*
X214010000Y-82392000D02*
X210170000Y-82392000D01*
X209220000Y-83312000D02*
X210170000Y-83312000D01*
X214960000Y-83312000D02*
X214010000Y-83312000D01*
%TO.C,R32*%
X214960000Y-80518000D02*
X214010000Y-80518000D01*
X209220000Y-80518000D02*
X210170000Y-80518000D01*
X214010000Y-79598000D02*
X210170000Y-79598000D01*
X214010000Y-81438000D02*
X214010000Y-79598000D01*
X210170000Y-81438000D02*
X214010000Y-81438000D01*
X210170000Y-79598000D02*
X210170000Y-81438000D01*
%TO.C,R35*%
X215214000Y-71628000D02*
X214264000Y-71628000D01*
X209474000Y-71628000D02*
X210424000Y-71628000D01*
X214264000Y-70708000D02*
X210424000Y-70708000D01*
X214264000Y-72548000D02*
X214264000Y-70708000D01*
X210424000Y-72548000D02*
X214264000Y-72548000D01*
X210424000Y-70708000D02*
X210424000Y-72548000D01*
%TO.C,R36*%
X210424000Y-73502000D02*
X210424000Y-75342000D01*
X210424000Y-75342000D02*
X214264000Y-75342000D01*
X214264000Y-75342000D02*
X214264000Y-73502000D01*
X214264000Y-73502000D02*
X210424000Y-73502000D01*
X209474000Y-74422000D02*
X210424000Y-74422000D01*
X215214000Y-74422000D02*
X214264000Y-74422000D01*
%TO.C,RV7*%
X134778000Y-106036000D02*
X135608000Y-106036000D01*
X137228000Y-106036000D02*
X137758000Y-106036000D01*
X140128000Y-106036000D02*
X141308000Y-106036000D01*
X131568000Y-106036000D02*
X131568000Y-110756000D01*
X141308000Y-114566000D02*
X141308000Y-117626000D01*
X141318000Y-106036000D02*
X141318000Y-110756000D01*
X131568000Y-114566000D02*
X131568000Y-117626000D01*
X131568000Y-106036000D02*
X133058000Y-106036000D01*
X131568000Y-117626000D02*
X141308000Y-117626000D01*
%TO.C,RV8*%
X152658000Y-84558000D02*
X142918000Y-84558000D01*
X152658000Y-96148000D02*
X151168000Y-96148000D01*
X152658000Y-87618000D02*
X152658000Y-84558000D01*
X142908000Y-96148000D02*
X142908000Y-91428000D01*
X142918000Y-87618000D02*
X142918000Y-84558000D01*
X152658000Y-96148000D02*
X152658000Y-91428000D01*
X144098000Y-96148000D02*
X142918000Y-96148000D01*
X146998000Y-96148000D02*
X146468000Y-96148000D01*
X149448000Y-96148000D02*
X148618000Y-96148000D01*
%TO.C,RV9*%
X157892000Y-106036000D02*
X158722000Y-106036000D01*
X160342000Y-106036000D02*
X160872000Y-106036000D01*
X163242000Y-106036000D02*
X164422000Y-106036000D01*
X154682000Y-106036000D02*
X154682000Y-110756000D01*
X164422000Y-114566000D02*
X164422000Y-117626000D01*
X164432000Y-106036000D02*
X164432000Y-110756000D01*
X154682000Y-114566000D02*
X154682000Y-117626000D01*
X154682000Y-106036000D02*
X156172000Y-106036000D01*
X154682000Y-117626000D02*
X164422000Y-117626000D01*
%TO.C,RV10*%
X172308000Y-96148000D02*
X171478000Y-96148000D01*
X169858000Y-96148000D02*
X169328000Y-96148000D01*
X166958000Y-96148000D02*
X165778000Y-96148000D01*
X175518000Y-96148000D02*
X175518000Y-91428000D01*
X165778000Y-87618000D02*
X165778000Y-84558000D01*
X165768000Y-96148000D02*
X165768000Y-91428000D01*
X175518000Y-87618000D02*
X175518000Y-84558000D01*
X175518000Y-96148000D02*
X174028000Y-96148000D01*
X175518000Y-84558000D02*
X165778000Y-84558000D01*
%TO.C,RV11*%
X180752000Y-106036000D02*
X181582000Y-106036000D01*
X183202000Y-106036000D02*
X183732000Y-106036000D01*
X186102000Y-106036000D02*
X187282000Y-106036000D01*
X177542000Y-106036000D02*
X177542000Y-110756000D01*
X187282000Y-114566000D02*
X187282000Y-117626000D01*
X187292000Y-106036000D02*
X187292000Y-110756000D01*
X177542000Y-114566000D02*
X177542000Y-117626000D01*
X177542000Y-106036000D02*
X179032000Y-106036000D01*
X177542000Y-117626000D02*
X187282000Y-117626000D01*
%TO.C,RV12*%
X195168000Y-96148000D02*
X194338000Y-96148000D01*
X192718000Y-96148000D02*
X192188000Y-96148000D01*
X189818000Y-96148000D02*
X188638000Y-96148000D01*
X198378000Y-96148000D02*
X198378000Y-91428000D01*
X188638000Y-87618000D02*
X188638000Y-84558000D01*
X188628000Y-96148000D02*
X188628000Y-91428000D01*
X198378000Y-87618000D02*
X198378000Y-84558000D01*
X198378000Y-96148000D02*
X196888000Y-96148000D01*
X198378000Y-84558000D02*
X188638000Y-84558000D01*
%TO.C,RV13*%
X206874000Y-112364000D02*
X206874000Y-111534000D01*
X206874000Y-109914000D02*
X206874000Y-109384000D01*
X206874000Y-107014000D02*
X206874000Y-105834000D01*
X206874000Y-115574000D02*
X211594000Y-115574000D01*
X215404000Y-105834000D02*
X218464000Y-105834000D01*
X206874000Y-105834000D02*
X211594000Y-105834000D01*
X215404000Y-115574000D02*
X218464000Y-115574000D01*
X206874000Y-115574000D02*
X206874000Y-114084000D01*
X218464000Y-115574000D02*
X218464000Y-105834000D01*
%TO.C,U1*%
X141732000Y-29464000D02*
X141732000Y-18034000D01*
X131572000Y-29464000D02*
X141732000Y-29464000D01*
X131572000Y-18034000D02*
X131572000Y-29464000D01*
X141732000Y-18034000D02*
X131572000Y-18034000D01*
X138448051Y-24384000D02*
G75*
G03*
X138448051Y-24384000I-1796051J0D01*
G01*
X139191999Y-21844001D02*
G75*
G02*
X139191999Y-26923999I-2539999J-2539999D01*
G01*
X134112001Y-26923999D02*
G75*
G02*
X134112001Y-21844001I2539999J2539999D01*
G01*
%TO.C,U2*%
X149878051Y-24384000D02*
G75*
G03*
X149878051Y-24384000I-1796051J0D01*
G01*
X153162000Y-18034000D02*
X143002000Y-18034000D01*
X143002000Y-18034000D02*
X143002000Y-29464000D01*
X143002000Y-29464000D02*
X153162000Y-29464000D01*
X153162000Y-29464000D02*
X153162000Y-18034000D01*
X145542001Y-26923999D02*
G75*
G02*
X145542001Y-21844001I2539999J2539999D01*
G01*
X150621999Y-21844001D02*
G75*
G02*
X150621999Y-26923999I-2539999J-2539999D01*
G01*
%TO.C,U3*%
X161308051Y-24384000D02*
G75*
G03*
X161308051Y-24384000I-1796051J0D01*
G01*
X164592000Y-18034000D02*
X154432000Y-18034000D01*
X154432000Y-18034000D02*
X154432000Y-29464000D01*
X154432000Y-29464000D02*
X164592000Y-29464000D01*
X164592000Y-29464000D02*
X164592000Y-18034000D01*
X156972001Y-26923999D02*
G75*
G02*
X156972001Y-21844001I2539999J2539999D01*
G01*
X162051999Y-21844001D02*
G75*
G02*
X162051999Y-26923999I-2539999J-2539999D01*
G01*
%TO.C,U4*%
X176022000Y-29464000D02*
X176022000Y-18034000D01*
X165862000Y-29464000D02*
X176022000Y-29464000D01*
X165862000Y-18034000D02*
X165862000Y-29464000D01*
X176022000Y-18034000D02*
X165862000Y-18034000D01*
X172738051Y-24384000D02*
G75*
G03*
X172738051Y-24384000I-1796051J0D01*
G01*
X173481999Y-21844001D02*
G75*
G02*
X173481999Y-26923999I-2539999J-2539999D01*
G01*
X168402001Y-26923999D02*
G75*
G02*
X168402001Y-21844001I2539999J2539999D01*
G01*
%TO.C,U5*%
X184168051Y-24384000D02*
G75*
G03*
X184168051Y-24384000I-1796051J0D01*
G01*
X187452000Y-18034000D02*
X177292000Y-18034000D01*
X177292000Y-18034000D02*
X177292000Y-29464000D01*
X177292000Y-29464000D02*
X187452000Y-29464000D01*
X187452000Y-29464000D02*
X187452000Y-18034000D01*
X179832001Y-26923999D02*
G75*
G02*
X179832001Y-21844001I2539999J2539999D01*
G01*
X184911999Y-21844001D02*
G75*
G02*
X184911999Y-26923999I-2539999J-2539999D01*
G01*
%TO.C,U6*%
X198628000Y-29464000D02*
X198628000Y-18034000D01*
X188468000Y-29464000D02*
X198628000Y-29464000D01*
X188468000Y-18034000D02*
X188468000Y-29464000D01*
X198628000Y-18034000D02*
X188468000Y-18034000D01*
X195344051Y-24384000D02*
G75*
G03*
X195344051Y-24384000I-1796051J0D01*
G01*
X196087999Y-21844001D02*
G75*
G02*
X196087999Y-26923999I-2539999J-2539999D01*
G01*
X191008001Y-26923999D02*
G75*
G02*
X191008001Y-21844001I2539999J2539999D01*
G01*
%TO.C,RV1*%
X136652000Y-76708000D02*
X134112000Y-74168000D01*
X139192000Y-74168000D02*
X136652000Y-76708000D01*
X136652000Y-42418000D02*
X134112000Y-44958000D01*
X136652000Y-42418000D02*
X139192000Y-44958000D01*
X136652000Y-42418000D02*
X136652000Y-76708000D01*
X139192000Y-76708000D02*
X134112000Y-76708000D01*
X139192000Y-42418000D02*
X134112000Y-42418000D01*
X131572000Y-36068000D02*
X132842000Y-36068000D01*
X131572000Y-81788000D02*
X131572000Y-36068000D01*
X132842000Y-81788000D02*
X131572000Y-81788000D01*
X141732000Y-81788000D02*
X136652000Y-81788000D01*
X141732000Y-36068000D02*
X141732000Y-81788000D01*
X140462000Y-36068000D02*
X141732000Y-36068000D01*
%TO.C,RV2*%
X148082000Y-76708000D02*
X145542000Y-74168000D01*
X150622000Y-74168000D02*
X148082000Y-76708000D01*
X148082000Y-42418000D02*
X145542000Y-44958000D01*
X148082000Y-42418000D02*
X150622000Y-44958000D01*
X148082000Y-42418000D02*
X148082000Y-76708000D01*
X150622000Y-76708000D02*
X145542000Y-76708000D01*
X150622000Y-42418000D02*
X145542000Y-42418000D01*
X143002000Y-36068000D02*
X144272000Y-36068000D01*
X143002000Y-81788000D02*
X143002000Y-36068000D01*
X144272000Y-81788000D02*
X143002000Y-81788000D01*
X153162000Y-81788000D02*
X148082000Y-81788000D01*
X153162000Y-36068000D02*
X153162000Y-81788000D01*
X151892000Y-36068000D02*
X153162000Y-36068000D01*
%TO.C,RV3*%
X159512000Y-76708000D02*
X156972000Y-74168000D01*
X162052000Y-74168000D02*
X159512000Y-76708000D01*
X159512000Y-42418000D02*
X156972000Y-44958000D01*
X159512000Y-42418000D02*
X162052000Y-44958000D01*
X159512000Y-42418000D02*
X159512000Y-76708000D01*
X162052000Y-76708000D02*
X156972000Y-76708000D01*
X162052000Y-42418000D02*
X156972000Y-42418000D01*
X154432000Y-36068000D02*
X155702000Y-36068000D01*
X154432000Y-81788000D02*
X154432000Y-36068000D01*
X155702000Y-81788000D02*
X154432000Y-81788000D01*
X164592000Y-81788000D02*
X159512000Y-81788000D01*
X164592000Y-36068000D02*
X164592000Y-81788000D01*
X163322000Y-36068000D02*
X164592000Y-36068000D01*
%TO.C,RV4*%
X174752000Y-36068000D02*
X176022000Y-36068000D01*
X176022000Y-36068000D02*
X176022000Y-81788000D01*
X176022000Y-81788000D02*
X170942000Y-81788000D01*
X167132000Y-81788000D02*
X165862000Y-81788000D01*
X165862000Y-81788000D02*
X165862000Y-36068000D01*
X165862000Y-36068000D02*
X167132000Y-36068000D01*
X173482000Y-42418000D02*
X168402000Y-42418000D01*
X173482000Y-76708000D02*
X168402000Y-76708000D01*
X170942000Y-42418000D02*
X170942000Y-76708000D01*
X170942000Y-42418000D02*
X173482000Y-44958000D01*
X170942000Y-42418000D02*
X168402000Y-44958000D01*
X173482000Y-74168000D02*
X170942000Y-76708000D01*
X170942000Y-76708000D02*
X168402000Y-74168000D01*
%TO.C,RV5*%
X186182000Y-36068000D02*
X187452000Y-36068000D01*
X187452000Y-36068000D02*
X187452000Y-81788000D01*
X187452000Y-81788000D02*
X182372000Y-81788000D01*
X178562000Y-81788000D02*
X177292000Y-81788000D01*
X177292000Y-81788000D02*
X177292000Y-36068000D01*
X177292000Y-36068000D02*
X178562000Y-36068000D01*
X184912000Y-42418000D02*
X179832000Y-42418000D01*
X184912000Y-76708000D02*
X179832000Y-76708000D01*
X182372000Y-42418000D02*
X182372000Y-76708000D01*
X182372000Y-42418000D02*
X184912000Y-44958000D01*
X182372000Y-42418000D02*
X179832000Y-44958000D01*
X184912000Y-74168000D02*
X182372000Y-76708000D01*
X182372000Y-76708000D02*
X179832000Y-74168000D01*
%TO.C,RV6*%
X197358000Y-36068000D02*
X198628000Y-36068000D01*
X198628000Y-36068000D02*
X198628000Y-81788000D01*
X198628000Y-81788000D02*
X193548000Y-81788000D01*
X189738000Y-81788000D02*
X188468000Y-81788000D01*
X188468000Y-81788000D02*
X188468000Y-36068000D01*
X188468000Y-36068000D02*
X189738000Y-36068000D01*
X196088000Y-42418000D02*
X191008000Y-42418000D01*
X196088000Y-76708000D02*
X191008000Y-76708000D01*
X193548000Y-42418000D02*
X193548000Y-76708000D01*
X193548000Y-42418000D02*
X196088000Y-44958000D01*
X193548000Y-42418000D02*
X191008000Y-44958000D01*
X196088000Y-74168000D02*
X193548000Y-76708000D01*
X193548000Y-76708000D02*
X191008000Y-74168000D01*
%TO.C,C12*%
D11*
X221821142Y-77827142D02*
X221773523Y-77874761D01*
X221630666Y-77922380D01*
X221535428Y-77922380D01*
X221392571Y-77874761D01*
X221297333Y-77779523D01*
X221249714Y-77684285D01*
X221202095Y-77493809D01*
X221202095Y-77350952D01*
X221249714Y-77160476D01*
X221297333Y-77065238D01*
X221392571Y-76970000D01*
X221535428Y-76922380D01*
X221630666Y-76922380D01*
X221773523Y-76970000D01*
X221821142Y-77017619D01*
X222773523Y-77922380D02*
X222202095Y-77922380D01*
X222487809Y-77922380D02*
X222487809Y-76922380D01*
X222392571Y-77065238D01*
X222297333Y-77160476D01*
X222202095Y-77208095D01*
X223154476Y-77017619D02*
X223202095Y-76970000D01*
X223297333Y-76922380D01*
X223535428Y-76922380D01*
X223630666Y-76970000D01*
X223678285Y-77017619D01*
X223725904Y-77112857D01*
X223725904Y-77208095D01*
X223678285Y-77350952D01*
X223106857Y-77922380D01*
X223725904Y-77922380D01*
%TO.C,R29*%
X221607142Y-83764380D02*
X221273809Y-83288190D01*
X221035714Y-83764380D02*
X221035714Y-82764380D01*
X221416666Y-82764380D01*
X221511904Y-82812000D01*
X221559523Y-82859619D01*
X221607142Y-82954857D01*
X221607142Y-83097714D01*
X221559523Y-83192952D01*
X221511904Y-83240571D01*
X221416666Y-83288190D01*
X221035714Y-83288190D01*
X221988095Y-82859619D02*
X222035714Y-82812000D01*
X222130952Y-82764380D01*
X222369047Y-82764380D01*
X222464285Y-82812000D01*
X222511904Y-82859619D01*
X222559523Y-82954857D01*
X222559523Y-83050095D01*
X222511904Y-83192952D01*
X221940476Y-83764380D01*
X222559523Y-83764380D01*
X223035714Y-83764380D02*
X223226190Y-83764380D01*
X223321428Y-83716761D01*
X223369047Y-83669142D01*
X223464285Y-83526285D01*
X223511904Y-83335809D01*
X223511904Y-82954857D01*
X223464285Y-82859619D01*
X223416666Y-82812000D01*
X223321428Y-82764380D01*
X223130952Y-82764380D01*
X223035714Y-82812000D01*
X222988095Y-82859619D01*
X222940476Y-82954857D01*
X222940476Y-83192952D01*
X222988095Y-83288190D01*
X223035714Y-83335809D01*
X223130952Y-83383428D01*
X223321428Y-83383428D01*
X223416666Y-83335809D01*
X223464285Y-83288190D01*
X223511904Y-83192952D01*
%TO.C,R30*%
X221607142Y-80970380D02*
X221273809Y-80494190D01*
X221035714Y-80970380D02*
X221035714Y-79970380D01*
X221416666Y-79970380D01*
X221511904Y-80018000D01*
X221559523Y-80065619D01*
X221607142Y-80160857D01*
X221607142Y-80303714D01*
X221559523Y-80398952D01*
X221511904Y-80446571D01*
X221416666Y-80494190D01*
X221035714Y-80494190D01*
X221940476Y-79970380D02*
X222559523Y-79970380D01*
X222226190Y-80351333D01*
X222369047Y-80351333D01*
X222464285Y-80398952D01*
X222511904Y-80446571D01*
X222559523Y-80541809D01*
X222559523Y-80779904D01*
X222511904Y-80875142D01*
X222464285Y-80922761D01*
X222369047Y-80970380D01*
X222083333Y-80970380D01*
X221988095Y-80922761D01*
X221940476Y-80875142D01*
X223178571Y-79970380D02*
X223273809Y-79970380D01*
X223369047Y-80018000D01*
X223416666Y-80065619D01*
X223464285Y-80160857D01*
X223511904Y-80351333D01*
X223511904Y-80589428D01*
X223464285Y-80779904D01*
X223416666Y-80875142D01*
X223369047Y-80922761D01*
X223273809Y-80970380D01*
X223178571Y-80970380D01*
X223083333Y-80922761D01*
X223035714Y-80875142D01*
X222988095Y-80779904D01*
X222940476Y-80589428D01*
X222940476Y-80351333D01*
X222988095Y-80160857D01*
X223035714Y-80065619D01*
X223083333Y-80018000D01*
X223178571Y-79970380D01*
%TO.C,R33*%
X221607142Y-72080380D02*
X221273809Y-71604190D01*
X221035714Y-72080380D02*
X221035714Y-71080380D01*
X221416666Y-71080380D01*
X221511904Y-71128000D01*
X221559523Y-71175619D01*
X221607142Y-71270857D01*
X221607142Y-71413714D01*
X221559523Y-71508952D01*
X221511904Y-71556571D01*
X221416666Y-71604190D01*
X221035714Y-71604190D01*
X221940476Y-71080380D02*
X222559523Y-71080380D01*
X222226190Y-71461333D01*
X222369047Y-71461333D01*
X222464285Y-71508952D01*
X222511904Y-71556571D01*
X222559523Y-71651809D01*
X222559523Y-71889904D01*
X222511904Y-71985142D01*
X222464285Y-72032761D01*
X222369047Y-72080380D01*
X222083333Y-72080380D01*
X221988095Y-72032761D01*
X221940476Y-71985142D01*
X222892857Y-71080380D02*
X223511904Y-71080380D01*
X223178571Y-71461333D01*
X223321428Y-71461333D01*
X223416666Y-71508952D01*
X223464285Y-71556571D01*
X223511904Y-71651809D01*
X223511904Y-71889904D01*
X223464285Y-71985142D01*
X223416666Y-72032761D01*
X223321428Y-72080380D01*
X223035714Y-72080380D01*
X222940476Y-72032761D01*
X222892857Y-71985142D01*
%TO.C,R34*%
X221607142Y-74874380D02*
X221273809Y-74398190D01*
X221035714Y-74874380D02*
X221035714Y-73874380D01*
X221416666Y-73874380D01*
X221511904Y-73922000D01*
X221559523Y-73969619D01*
X221607142Y-74064857D01*
X221607142Y-74207714D01*
X221559523Y-74302952D01*
X221511904Y-74350571D01*
X221416666Y-74398190D01*
X221035714Y-74398190D01*
X221940476Y-73874380D02*
X222559523Y-73874380D01*
X222226190Y-74255333D01*
X222369047Y-74255333D01*
X222464285Y-74302952D01*
X222511904Y-74350571D01*
X222559523Y-74445809D01*
X222559523Y-74683904D01*
X222511904Y-74779142D01*
X222464285Y-74826761D01*
X222369047Y-74874380D01*
X222083333Y-74874380D01*
X221988095Y-74826761D01*
X221940476Y-74779142D01*
X223416666Y-74207714D02*
X223416666Y-74874380D01*
X223178571Y-73826761D02*
X222940476Y-74541047D01*
X223559523Y-74541047D01*
%TO.C,C7*%
X223393333Y-105427142D02*
X223345714Y-105474761D01*
X223202857Y-105522380D01*
X223107619Y-105522380D01*
X222964761Y-105474761D01*
X222869523Y-105379523D01*
X222821904Y-105284285D01*
X222774285Y-105093809D01*
X222774285Y-104950952D01*
X222821904Y-104760476D01*
X222869523Y-104665238D01*
X222964761Y-104570000D01*
X223107619Y-104522380D01*
X223202857Y-104522380D01*
X223345714Y-104570000D01*
X223393333Y-104617619D01*
X223726666Y-104522380D02*
X224393333Y-104522380D01*
X223964761Y-105522380D01*
%TO.C,C8*%
X205573333Y-102465142D02*
X205525714Y-102512761D01*
X205382857Y-102560380D01*
X205287619Y-102560380D01*
X205144761Y-102512761D01*
X205049523Y-102417523D01*
X205001904Y-102322285D01*
X204954285Y-102131809D01*
X204954285Y-101988952D01*
X205001904Y-101798476D01*
X205049523Y-101703238D01*
X205144761Y-101608000D01*
X205287619Y-101560380D01*
X205382857Y-101560380D01*
X205525714Y-101608000D01*
X205573333Y-101655619D01*
X206144761Y-101988952D02*
X206049523Y-101941333D01*
X206001904Y-101893714D01*
X205954285Y-101798476D01*
X205954285Y-101750857D01*
X206001904Y-101655619D01*
X206049523Y-101608000D01*
X206144761Y-101560380D01*
X206335238Y-101560380D01*
X206430476Y-101608000D01*
X206478095Y-101655619D01*
X206525714Y-101750857D01*
X206525714Y-101798476D01*
X206478095Y-101893714D01*
X206430476Y-101941333D01*
X206335238Y-101988952D01*
X206144761Y-101988952D01*
X206049523Y-102036571D01*
X206001904Y-102084190D01*
X205954285Y-102179428D01*
X205954285Y-102369904D01*
X206001904Y-102465142D01*
X206049523Y-102512761D01*
X206144761Y-102560380D01*
X206335238Y-102560380D01*
X206430476Y-102512761D01*
X206478095Y-102465142D01*
X206525714Y-102369904D01*
X206525714Y-102179428D01*
X206478095Y-102084190D01*
X206430476Y-102036571D01*
X206335238Y-101988952D01*
%TO.C,C13*%
X211701142Y-77827142D02*
X211653523Y-77874761D01*
X211510666Y-77922380D01*
X211415428Y-77922380D01*
X211272571Y-77874761D01*
X211177333Y-77779523D01*
X211129714Y-77684285D01*
X211082095Y-77493809D01*
X211082095Y-77350952D01*
X211129714Y-77160476D01*
X211177333Y-77065238D01*
X211272571Y-76970000D01*
X211415428Y-76922380D01*
X211510666Y-76922380D01*
X211653523Y-76970000D01*
X211701142Y-77017619D01*
X212653523Y-77922380D02*
X212082095Y-77922380D01*
X212367809Y-77922380D02*
X212367809Y-76922380D01*
X212272571Y-77065238D01*
X212177333Y-77160476D01*
X212082095Y-77208095D01*
X212986857Y-76922380D02*
X213605904Y-76922380D01*
X213272571Y-77303333D01*
X213415428Y-77303333D01*
X213510666Y-77350952D01*
X213558285Y-77398571D01*
X213605904Y-77493809D01*
X213605904Y-77731904D01*
X213558285Y-77827142D01*
X213510666Y-77874761D01*
X213415428Y-77922380D01*
X213129714Y-77922380D01*
X213034476Y-77874761D01*
X212986857Y-77827142D01*
%TO.C,C14*%
X214749142Y-100179142D02*
X214701523Y-100226761D01*
X214558666Y-100274380D01*
X214463428Y-100274380D01*
X214320571Y-100226761D01*
X214225333Y-100131523D01*
X214177714Y-100036285D01*
X214130095Y-99845809D01*
X214130095Y-99702952D01*
X214177714Y-99512476D01*
X214225333Y-99417238D01*
X214320571Y-99322000D01*
X214463428Y-99274380D01*
X214558666Y-99274380D01*
X214701523Y-99322000D01*
X214749142Y-99369619D01*
X215701523Y-100274380D02*
X215130095Y-100274380D01*
X215415809Y-100274380D02*
X215415809Y-99274380D01*
X215320571Y-99417238D01*
X215225333Y-99512476D01*
X215130095Y-99560095D01*
X216558666Y-99607714D02*
X216558666Y-100274380D01*
X216320571Y-99226761D02*
X216082476Y-99941047D01*
X216701523Y-99941047D01*
%TO.C,C15*%
X223425142Y-86463142D02*
X223377523Y-86510761D01*
X223234666Y-86558380D01*
X223139428Y-86558380D01*
X222996571Y-86510761D01*
X222901333Y-86415523D01*
X222853714Y-86320285D01*
X222806095Y-86129809D01*
X222806095Y-85986952D01*
X222853714Y-85796476D01*
X222901333Y-85701238D01*
X222996571Y-85606000D01*
X223139428Y-85558380D01*
X223234666Y-85558380D01*
X223377523Y-85606000D01*
X223425142Y-85653619D01*
X224377523Y-86558380D02*
X223806095Y-86558380D01*
X224091809Y-86558380D02*
X224091809Y-85558380D01*
X223996571Y-85701238D01*
X223901333Y-85796476D01*
X223806095Y-85844095D01*
X225282285Y-85558380D02*
X224806095Y-85558380D01*
X224758476Y-86034571D01*
X224806095Y-85986952D01*
X224901333Y-85939333D01*
X225139428Y-85939333D01*
X225234666Y-85986952D01*
X225282285Y-86034571D01*
X225329904Y-86129809D01*
X225329904Y-86367904D01*
X225282285Y-86463142D01*
X225234666Y-86510761D01*
X225139428Y-86558380D01*
X224901333Y-86558380D01*
X224806095Y-86510761D01*
X224758476Y-86463142D01*
%TO.C,C16*%
X221433142Y-68937142D02*
X221385523Y-68984761D01*
X221242666Y-69032380D01*
X221147428Y-69032380D01*
X221004571Y-68984761D01*
X220909333Y-68889523D01*
X220861714Y-68794285D01*
X220814095Y-68603809D01*
X220814095Y-68460952D01*
X220861714Y-68270476D01*
X220909333Y-68175238D01*
X221004571Y-68080000D01*
X221147428Y-68032380D01*
X221242666Y-68032380D01*
X221385523Y-68080000D01*
X221433142Y-68127619D01*
X222385523Y-69032380D02*
X221814095Y-69032380D01*
X222099809Y-69032380D02*
X222099809Y-68032380D01*
X222004571Y-68175238D01*
X221909333Y-68270476D01*
X221814095Y-68318095D01*
X223242666Y-68032380D02*
X223052190Y-68032380D01*
X222956952Y-68080000D01*
X222909333Y-68127619D01*
X222814095Y-68270476D01*
X222766476Y-68460952D01*
X222766476Y-68841904D01*
X222814095Y-68937142D01*
X222861714Y-68984761D01*
X222956952Y-69032380D01*
X223147428Y-69032380D01*
X223242666Y-68984761D01*
X223290285Y-68937142D01*
X223337904Y-68841904D01*
X223337904Y-68603809D01*
X223290285Y-68508571D01*
X223242666Y-68460952D01*
X223147428Y-68413333D01*
X222956952Y-68413333D01*
X222861714Y-68460952D01*
X222814095Y-68508571D01*
X222766476Y-68603809D01*
%TO.C,C17*%
X212717142Y-68937142D02*
X212669523Y-68984761D01*
X212526666Y-69032380D01*
X212431428Y-69032380D01*
X212288571Y-68984761D01*
X212193333Y-68889523D01*
X212145714Y-68794285D01*
X212098095Y-68603809D01*
X212098095Y-68460952D01*
X212145714Y-68270476D01*
X212193333Y-68175238D01*
X212288571Y-68080000D01*
X212431428Y-68032380D01*
X212526666Y-68032380D01*
X212669523Y-68080000D01*
X212717142Y-68127619D01*
X213669523Y-69032380D02*
X213098095Y-69032380D01*
X213383809Y-69032380D02*
X213383809Y-68032380D01*
X213288571Y-68175238D01*
X213193333Y-68270476D01*
X213098095Y-68318095D01*
X214002857Y-68032380D02*
X214669523Y-68032380D01*
X214240952Y-69032380D01*
%TO.C,D1*%
X232179904Y-20368380D02*
X232179904Y-19368380D01*
X232418000Y-19368380D01*
X232560857Y-19416000D01*
X232656095Y-19511238D01*
X232703714Y-19606476D01*
X232751333Y-19796952D01*
X232751333Y-19939809D01*
X232703714Y-20130285D01*
X232656095Y-20225523D01*
X232560857Y-20320761D01*
X232418000Y-20368380D01*
X232179904Y-20368380D01*
X233703714Y-20368380D02*
X233132285Y-20368380D01*
X233418000Y-20368380D02*
X233418000Y-19368380D01*
X233322761Y-19511238D01*
X233227523Y-19606476D01*
X233132285Y-19654095D01*
%TO.C,D2*%
X232179904Y-28242380D02*
X232179904Y-27242380D01*
X232418000Y-27242380D01*
X232560857Y-27290000D01*
X232656095Y-27385238D01*
X232703714Y-27480476D01*
X232751333Y-27670952D01*
X232751333Y-27813809D01*
X232703714Y-28004285D01*
X232656095Y-28099523D01*
X232560857Y-28194761D01*
X232418000Y-28242380D01*
X232179904Y-28242380D01*
X233132285Y-27337619D02*
X233179904Y-27290000D01*
X233275142Y-27242380D01*
X233513238Y-27242380D01*
X233608476Y-27290000D01*
X233656095Y-27337619D01*
X233703714Y-27432857D01*
X233703714Y-27528095D01*
X233656095Y-27670952D01*
X233084666Y-28242380D01*
X233703714Y-28242380D01*
%TO.C,D3*%
X232179904Y-36116380D02*
X232179904Y-35116380D01*
X232418000Y-35116380D01*
X232560857Y-35164000D01*
X232656095Y-35259238D01*
X232703714Y-35354476D01*
X232751333Y-35544952D01*
X232751333Y-35687809D01*
X232703714Y-35878285D01*
X232656095Y-35973523D01*
X232560857Y-36068761D01*
X232418000Y-36116380D01*
X232179904Y-36116380D01*
X233084666Y-35116380D02*
X233703714Y-35116380D01*
X233370380Y-35497333D01*
X233513238Y-35497333D01*
X233608476Y-35544952D01*
X233656095Y-35592571D01*
X233703714Y-35687809D01*
X233703714Y-35925904D01*
X233656095Y-36021142D01*
X233608476Y-36068761D01*
X233513238Y-36116380D01*
X233227523Y-36116380D01*
X233132285Y-36068761D01*
X233084666Y-36021142D01*
%TO.C,D4*%
X232179904Y-43990380D02*
X232179904Y-42990380D01*
X232418000Y-42990380D01*
X232560857Y-43038000D01*
X232656095Y-43133238D01*
X232703714Y-43228476D01*
X232751333Y-43418952D01*
X232751333Y-43561809D01*
X232703714Y-43752285D01*
X232656095Y-43847523D01*
X232560857Y-43942761D01*
X232418000Y-43990380D01*
X232179904Y-43990380D01*
X233608476Y-43323714D02*
X233608476Y-43990380D01*
X233370380Y-42942761D02*
X233132285Y-43657047D01*
X233751333Y-43657047D01*
%TO.C,D5*%
X232179904Y-51864380D02*
X232179904Y-50864380D01*
X232418000Y-50864380D01*
X232560857Y-50912000D01*
X232656095Y-51007238D01*
X232703714Y-51102476D01*
X232751333Y-51292952D01*
X232751333Y-51435809D01*
X232703714Y-51626285D01*
X232656095Y-51721523D01*
X232560857Y-51816761D01*
X232418000Y-51864380D01*
X232179904Y-51864380D01*
X233656095Y-50864380D02*
X233179904Y-50864380D01*
X233132285Y-51340571D01*
X233179904Y-51292952D01*
X233275142Y-51245333D01*
X233513238Y-51245333D01*
X233608476Y-51292952D01*
X233656095Y-51340571D01*
X233703714Y-51435809D01*
X233703714Y-51673904D01*
X233656095Y-51769142D01*
X233608476Y-51816761D01*
X233513238Y-51864380D01*
X233275142Y-51864380D01*
X233179904Y-51816761D01*
X233132285Y-51769142D01*
%TO.C,D6*%
X232179904Y-59738380D02*
X232179904Y-58738380D01*
X232418000Y-58738380D01*
X232560857Y-58786000D01*
X232656095Y-58881238D01*
X232703714Y-58976476D01*
X232751333Y-59166952D01*
X232751333Y-59309809D01*
X232703714Y-59500285D01*
X232656095Y-59595523D01*
X232560857Y-59690761D01*
X232418000Y-59738380D01*
X232179904Y-59738380D01*
X233608476Y-58738380D02*
X233418000Y-58738380D01*
X233322761Y-58786000D01*
X233275142Y-58833619D01*
X233179904Y-58976476D01*
X233132285Y-59166952D01*
X233132285Y-59547904D01*
X233179904Y-59643142D01*
X233227523Y-59690761D01*
X233322761Y-59738380D01*
X233513238Y-59738380D01*
X233608476Y-59690761D01*
X233656095Y-59643142D01*
X233703714Y-59547904D01*
X233703714Y-59309809D01*
X233656095Y-59214571D01*
X233608476Y-59166952D01*
X233513238Y-59119333D01*
X233322761Y-59119333D01*
X233227523Y-59166952D01*
X233179904Y-59214571D01*
X233132285Y-59309809D01*
%TO.C,D7*%
X232179904Y-67612380D02*
X232179904Y-66612380D01*
X232418000Y-66612380D01*
X232560857Y-66660000D01*
X232656095Y-66755238D01*
X232703714Y-66850476D01*
X232751333Y-67040952D01*
X232751333Y-67183809D01*
X232703714Y-67374285D01*
X232656095Y-67469523D01*
X232560857Y-67564761D01*
X232418000Y-67612380D01*
X232179904Y-67612380D01*
X233084666Y-66612380D02*
X233751333Y-66612380D01*
X233322761Y-67612380D01*
%TO.C,D8*%
X232179904Y-75486380D02*
X232179904Y-74486380D01*
X232418000Y-74486380D01*
X232560857Y-74534000D01*
X232656095Y-74629238D01*
X232703714Y-74724476D01*
X232751333Y-74914952D01*
X232751333Y-75057809D01*
X232703714Y-75248285D01*
X232656095Y-75343523D01*
X232560857Y-75438761D01*
X232418000Y-75486380D01*
X232179904Y-75486380D01*
X233322761Y-74914952D02*
X233227523Y-74867333D01*
X233179904Y-74819714D01*
X233132285Y-74724476D01*
X233132285Y-74676857D01*
X233179904Y-74581619D01*
X233227523Y-74534000D01*
X233322761Y-74486380D01*
X233513238Y-74486380D01*
X233608476Y-74534000D01*
X233656095Y-74581619D01*
X233703714Y-74676857D01*
X233703714Y-74724476D01*
X233656095Y-74819714D01*
X233608476Y-74867333D01*
X233513238Y-74914952D01*
X233322761Y-74914952D01*
X233227523Y-74962571D01*
X233179904Y-75010190D01*
X233132285Y-75105428D01*
X233132285Y-75295904D01*
X233179904Y-75391142D01*
X233227523Y-75438761D01*
X233322761Y-75486380D01*
X233513238Y-75486380D01*
X233608476Y-75438761D01*
X233656095Y-75391142D01*
X233703714Y-75295904D01*
X233703714Y-75105428D01*
X233656095Y-75010190D01*
X233608476Y-74962571D01*
X233513238Y-74914952D01*
%TO.C,D9*%
X232179904Y-83360380D02*
X232179904Y-82360380D01*
X232418000Y-82360380D01*
X232560857Y-82408000D01*
X232656095Y-82503238D01*
X232703714Y-82598476D01*
X232751333Y-82788952D01*
X232751333Y-82931809D01*
X232703714Y-83122285D01*
X232656095Y-83217523D01*
X232560857Y-83312761D01*
X232418000Y-83360380D01*
X232179904Y-83360380D01*
X233227523Y-83360380D02*
X233418000Y-83360380D01*
X233513238Y-83312761D01*
X233560857Y-83265142D01*
X233656095Y-83122285D01*
X233703714Y-82931809D01*
X233703714Y-82550857D01*
X233656095Y-82455619D01*
X233608476Y-82408000D01*
X233513238Y-82360380D01*
X233322761Y-82360380D01*
X233227523Y-82408000D01*
X233179904Y-82455619D01*
X233132285Y-82550857D01*
X233132285Y-82788952D01*
X233179904Y-82884190D01*
X233227523Y-82931809D01*
X233322761Y-82979428D01*
X233513238Y-82979428D01*
X233608476Y-82931809D01*
X233656095Y-82884190D01*
X233703714Y-82788952D01*
%TO.C,D10*%
X231703714Y-91234380D02*
X231703714Y-90234380D01*
X231941809Y-90234380D01*
X232084666Y-90282000D01*
X232179904Y-90377238D01*
X232227523Y-90472476D01*
X232275142Y-90662952D01*
X232275142Y-90805809D01*
X232227523Y-90996285D01*
X232179904Y-91091523D01*
X232084666Y-91186761D01*
X231941809Y-91234380D01*
X231703714Y-91234380D01*
X233227523Y-91234380D02*
X232656095Y-91234380D01*
X232941809Y-91234380D02*
X232941809Y-90234380D01*
X232846571Y-90377238D01*
X232751333Y-90472476D01*
X232656095Y-90520095D01*
X233846571Y-90234380D02*
X233941809Y-90234380D01*
X234037047Y-90282000D01*
X234084666Y-90329619D01*
X234132285Y-90424857D01*
X234179904Y-90615333D01*
X234179904Y-90853428D01*
X234132285Y-91043904D01*
X234084666Y-91139142D01*
X234037047Y-91186761D01*
X233941809Y-91234380D01*
X233846571Y-91234380D01*
X233751333Y-91186761D01*
X233703714Y-91139142D01*
X233656095Y-91043904D01*
X233608476Y-90853428D01*
X233608476Y-90615333D01*
X233656095Y-90424857D01*
X233703714Y-90329619D01*
X233751333Y-90282000D01*
X233846571Y-90234380D01*
%TO.C,D11*%
X243387714Y-20368380D02*
X243387714Y-19368380D01*
X243625809Y-19368380D01*
X243768666Y-19416000D01*
X243863904Y-19511238D01*
X243911523Y-19606476D01*
X243959142Y-19796952D01*
X243959142Y-19939809D01*
X243911523Y-20130285D01*
X243863904Y-20225523D01*
X243768666Y-20320761D01*
X243625809Y-20368380D01*
X243387714Y-20368380D01*
X244911523Y-20368380D02*
X244340095Y-20368380D01*
X244625809Y-20368380D02*
X244625809Y-19368380D01*
X244530571Y-19511238D01*
X244435333Y-19606476D01*
X244340095Y-19654095D01*
X245863904Y-20368380D02*
X245292476Y-20368380D01*
X245578190Y-20368380D02*
X245578190Y-19368380D01*
X245482952Y-19511238D01*
X245387714Y-19606476D01*
X245292476Y-19654095D01*
%TO.C,D12*%
X243387714Y-27988380D02*
X243387714Y-26988380D01*
X243625809Y-26988380D01*
X243768666Y-27036000D01*
X243863904Y-27131238D01*
X243911523Y-27226476D01*
X243959142Y-27416952D01*
X243959142Y-27559809D01*
X243911523Y-27750285D01*
X243863904Y-27845523D01*
X243768666Y-27940761D01*
X243625809Y-27988380D01*
X243387714Y-27988380D01*
X244911523Y-27988380D02*
X244340095Y-27988380D01*
X244625809Y-27988380D02*
X244625809Y-26988380D01*
X244530571Y-27131238D01*
X244435333Y-27226476D01*
X244340095Y-27274095D01*
X245292476Y-27083619D02*
X245340095Y-27036000D01*
X245435333Y-26988380D01*
X245673428Y-26988380D01*
X245768666Y-27036000D01*
X245816285Y-27083619D01*
X245863904Y-27178857D01*
X245863904Y-27274095D01*
X245816285Y-27416952D01*
X245244857Y-27988380D01*
X245863904Y-27988380D01*
%TO.C,D13*%
X243387714Y-36116380D02*
X243387714Y-35116380D01*
X243625809Y-35116380D01*
X243768666Y-35164000D01*
X243863904Y-35259238D01*
X243911523Y-35354476D01*
X243959142Y-35544952D01*
X243959142Y-35687809D01*
X243911523Y-35878285D01*
X243863904Y-35973523D01*
X243768666Y-36068761D01*
X243625809Y-36116380D01*
X243387714Y-36116380D01*
X244911523Y-36116380D02*
X244340095Y-36116380D01*
X244625809Y-36116380D02*
X244625809Y-35116380D01*
X244530571Y-35259238D01*
X244435333Y-35354476D01*
X244340095Y-35402095D01*
X245244857Y-35116380D02*
X245863904Y-35116380D01*
X245530571Y-35497333D01*
X245673428Y-35497333D01*
X245768666Y-35544952D01*
X245816285Y-35592571D01*
X245863904Y-35687809D01*
X245863904Y-35925904D01*
X245816285Y-36021142D01*
X245768666Y-36068761D01*
X245673428Y-36116380D01*
X245387714Y-36116380D01*
X245292476Y-36068761D01*
X245244857Y-36021142D01*
%TO.C,D14*%
X243387714Y-43990380D02*
X243387714Y-42990380D01*
X243625809Y-42990380D01*
X243768666Y-43038000D01*
X243863904Y-43133238D01*
X243911523Y-43228476D01*
X243959142Y-43418952D01*
X243959142Y-43561809D01*
X243911523Y-43752285D01*
X243863904Y-43847523D01*
X243768666Y-43942761D01*
X243625809Y-43990380D01*
X243387714Y-43990380D01*
X244911523Y-43990380D02*
X244340095Y-43990380D01*
X244625809Y-43990380D02*
X244625809Y-42990380D01*
X244530571Y-43133238D01*
X244435333Y-43228476D01*
X244340095Y-43276095D01*
X245768666Y-43323714D02*
X245768666Y-43990380D01*
X245530571Y-42942761D02*
X245292476Y-43657047D01*
X245911523Y-43657047D01*
%TO.C,D15*%
X243387714Y-51864380D02*
X243387714Y-50864380D01*
X243625809Y-50864380D01*
X243768666Y-50912000D01*
X243863904Y-51007238D01*
X243911523Y-51102476D01*
X243959142Y-51292952D01*
X243959142Y-51435809D01*
X243911523Y-51626285D01*
X243863904Y-51721523D01*
X243768666Y-51816761D01*
X243625809Y-51864380D01*
X243387714Y-51864380D01*
X244911523Y-51864380D02*
X244340095Y-51864380D01*
X244625809Y-51864380D02*
X244625809Y-50864380D01*
X244530571Y-51007238D01*
X244435333Y-51102476D01*
X244340095Y-51150095D01*
X245816285Y-50864380D02*
X245340095Y-50864380D01*
X245292476Y-51340571D01*
X245340095Y-51292952D01*
X245435333Y-51245333D01*
X245673428Y-51245333D01*
X245768666Y-51292952D01*
X245816285Y-51340571D01*
X245863904Y-51435809D01*
X245863904Y-51673904D01*
X245816285Y-51769142D01*
X245768666Y-51816761D01*
X245673428Y-51864380D01*
X245435333Y-51864380D01*
X245340095Y-51816761D01*
X245292476Y-51769142D01*
%TO.C,D16*%
X243387714Y-59738380D02*
X243387714Y-58738380D01*
X243625809Y-58738380D01*
X243768666Y-58786000D01*
X243863904Y-58881238D01*
X243911523Y-58976476D01*
X243959142Y-59166952D01*
X243959142Y-59309809D01*
X243911523Y-59500285D01*
X243863904Y-59595523D01*
X243768666Y-59690761D01*
X243625809Y-59738380D01*
X243387714Y-59738380D01*
X244911523Y-59738380D02*
X244340095Y-59738380D01*
X244625809Y-59738380D02*
X244625809Y-58738380D01*
X244530571Y-58881238D01*
X244435333Y-58976476D01*
X244340095Y-59024095D01*
X245768666Y-58738380D02*
X245578190Y-58738380D01*
X245482952Y-58786000D01*
X245435333Y-58833619D01*
X245340095Y-58976476D01*
X245292476Y-59166952D01*
X245292476Y-59547904D01*
X245340095Y-59643142D01*
X245387714Y-59690761D01*
X245482952Y-59738380D01*
X245673428Y-59738380D01*
X245768666Y-59690761D01*
X245816285Y-59643142D01*
X245863904Y-59547904D01*
X245863904Y-59309809D01*
X245816285Y-59214571D01*
X245768666Y-59166952D01*
X245673428Y-59119333D01*
X245482952Y-59119333D01*
X245387714Y-59166952D01*
X245340095Y-59214571D01*
X245292476Y-59309809D01*
%TO.C,D17*%
X243133714Y-67612380D02*
X243133714Y-66612380D01*
X243371809Y-66612380D01*
X243514666Y-66660000D01*
X243609904Y-66755238D01*
X243657523Y-66850476D01*
X243705142Y-67040952D01*
X243705142Y-67183809D01*
X243657523Y-67374285D01*
X243609904Y-67469523D01*
X243514666Y-67564761D01*
X243371809Y-67612380D01*
X243133714Y-67612380D01*
X244657523Y-67612380D02*
X244086095Y-67612380D01*
X244371809Y-67612380D02*
X244371809Y-66612380D01*
X244276571Y-66755238D01*
X244181333Y-66850476D01*
X244086095Y-66898095D01*
X244990857Y-66612380D02*
X245657523Y-66612380D01*
X245228952Y-67612380D01*
%TO.C,D18*%
X243133714Y-75486380D02*
X243133714Y-74486380D01*
X243371809Y-74486380D01*
X243514666Y-74534000D01*
X243609904Y-74629238D01*
X243657523Y-74724476D01*
X243705142Y-74914952D01*
X243705142Y-75057809D01*
X243657523Y-75248285D01*
X243609904Y-75343523D01*
X243514666Y-75438761D01*
X243371809Y-75486380D01*
X243133714Y-75486380D01*
X244657523Y-75486380D02*
X244086095Y-75486380D01*
X244371809Y-75486380D02*
X244371809Y-74486380D01*
X244276571Y-74629238D01*
X244181333Y-74724476D01*
X244086095Y-74772095D01*
X245228952Y-74914952D02*
X245133714Y-74867333D01*
X245086095Y-74819714D01*
X245038476Y-74724476D01*
X245038476Y-74676857D01*
X245086095Y-74581619D01*
X245133714Y-74534000D01*
X245228952Y-74486380D01*
X245419428Y-74486380D01*
X245514666Y-74534000D01*
X245562285Y-74581619D01*
X245609904Y-74676857D01*
X245609904Y-74724476D01*
X245562285Y-74819714D01*
X245514666Y-74867333D01*
X245419428Y-74914952D01*
X245228952Y-74914952D01*
X245133714Y-74962571D01*
X245086095Y-75010190D01*
X245038476Y-75105428D01*
X245038476Y-75295904D01*
X245086095Y-75391142D01*
X245133714Y-75438761D01*
X245228952Y-75486380D01*
X245419428Y-75486380D01*
X245514666Y-75438761D01*
X245562285Y-75391142D01*
X245609904Y-75295904D01*
X245609904Y-75105428D01*
X245562285Y-75010190D01*
X245514666Y-74962571D01*
X245419428Y-74914952D01*
%TO.C,D19*%
X243133714Y-83360380D02*
X243133714Y-82360380D01*
X243371809Y-82360380D01*
X243514666Y-82408000D01*
X243609904Y-82503238D01*
X243657523Y-82598476D01*
X243705142Y-82788952D01*
X243705142Y-82931809D01*
X243657523Y-83122285D01*
X243609904Y-83217523D01*
X243514666Y-83312761D01*
X243371809Y-83360380D01*
X243133714Y-83360380D01*
X244657523Y-83360380D02*
X244086095Y-83360380D01*
X244371809Y-83360380D02*
X244371809Y-82360380D01*
X244276571Y-82503238D01*
X244181333Y-82598476D01*
X244086095Y-82646095D01*
X245133714Y-83360380D02*
X245324190Y-83360380D01*
X245419428Y-83312761D01*
X245467047Y-83265142D01*
X245562285Y-83122285D01*
X245609904Y-82931809D01*
X245609904Y-82550857D01*
X245562285Y-82455619D01*
X245514666Y-82408000D01*
X245419428Y-82360380D01*
X245228952Y-82360380D01*
X245133714Y-82408000D01*
X245086095Y-82455619D01*
X245038476Y-82550857D01*
X245038476Y-82788952D01*
X245086095Y-82884190D01*
X245133714Y-82931809D01*
X245228952Y-82979428D01*
X245419428Y-82979428D01*
X245514666Y-82931809D01*
X245562285Y-82884190D01*
X245609904Y-82788952D01*
%TO.C,D20*%
X243133714Y-91234380D02*
X243133714Y-90234380D01*
X243371809Y-90234380D01*
X243514666Y-90282000D01*
X243609904Y-90377238D01*
X243657523Y-90472476D01*
X243705142Y-90662952D01*
X243705142Y-90805809D01*
X243657523Y-90996285D01*
X243609904Y-91091523D01*
X243514666Y-91186761D01*
X243371809Y-91234380D01*
X243133714Y-91234380D01*
X244086095Y-90329619D02*
X244133714Y-90282000D01*
X244228952Y-90234380D01*
X244467047Y-90234380D01*
X244562285Y-90282000D01*
X244609904Y-90329619D01*
X244657523Y-90424857D01*
X244657523Y-90520095D01*
X244609904Y-90662952D01*
X244038476Y-91234380D01*
X244657523Y-91234380D01*
X245276571Y-90234380D02*
X245371809Y-90234380D01*
X245467047Y-90282000D01*
X245514666Y-90329619D01*
X245562285Y-90424857D01*
X245609904Y-90615333D01*
X245609904Y-90853428D01*
X245562285Y-91043904D01*
X245514666Y-91139142D01*
X245467047Y-91186761D01*
X245371809Y-91234380D01*
X245276571Y-91234380D01*
X245181333Y-91186761D01*
X245133714Y-91139142D01*
X245086095Y-91043904D01*
X245038476Y-90853428D01*
X245038476Y-90615333D01*
X245086095Y-90424857D01*
X245133714Y-90329619D01*
X245181333Y-90282000D01*
X245276571Y-90234380D01*
%TO.C,J1*%
X236648666Y-104354380D02*
X236648666Y-105068666D01*
X236601047Y-105211523D01*
X236505809Y-105306761D01*
X236362952Y-105354380D01*
X236267714Y-105354380D01*
X237648666Y-105354380D02*
X237077238Y-105354380D01*
X237362952Y-105354380D02*
X237362952Y-104354380D01*
X237267714Y-104497238D01*
X237172476Y-104592476D01*
X237077238Y-104640095D01*
%TO.C,J2*%
X248078666Y-104608380D02*
X248078666Y-105322666D01*
X248031047Y-105465523D01*
X247935809Y-105560761D01*
X247792952Y-105608380D01*
X247697714Y-105608380D01*
X248507238Y-104703619D02*
X248554857Y-104656000D01*
X248650095Y-104608380D01*
X248888190Y-104608380D01*
X248983428Y-104656000D01*
X249031047Y-104703619D01*
X249078666Y-104798857D01*
X249078666Y-104894095D01*
X249031047Y-105036952D01*
X248459619Y-105608380D01*
X249078666Y-105608380D01*
%TO.C,R25*%
X223893142Y-100274380D02*
X223559809Y-99798190D01*
X223321714Y-100274380D02*
X223321714Y-99274380D01*
X223702666Y-99274380D01*
X223797904Y-99322000D01*
X223845523Y-99369619D01*
X223893142Y-99464857D01*
X223893142Y-99607714D01*
X223845523Y-99702952D01*
X223797904Y-99750571D01*
X223702666Y-99798190D01*
X223321714Y-99798190D01*
X224274095Y-99369619D02*
X224321714Y-99322000D01*
X224416952Y-99274380D01*
X224655047Y-99274380D01*
X224750285Y-99322000D01*
X224797904Y-99369619D01*
X224845523Y-99464857D01*
X224845523Y-99560095D01*
X224797904Y-99702952D01*
X224226476Y-100274380D01*
X224845523Y-100274380D01*
X225750285Y-99274380D02*
X225274095Y-99274380D01*
X225226476Y-99750571D01*
X225274095Y-99702952D01*
X225369333Y-99655333D01*
X225607428Y-99655333D01*
X225702666Y-99702952D01*
X225750285Y-99750571D01*
X225797904Y-99845809D01*
X225797904Y-100083904D01*
X225750285Y-100179142D01*
X225702666Y-100226761D01*
X225607428Y-100274380D01*
X225369333Y-100274380D01*
X225274095Y-100226761D01*
X225226476Y-100179142D01*
%TO.C,R26*%
X204589142Y-99766380D02*
X204255809Y-99290190D01*
X204017714Y-99766380D02*
X204017714Y-98766380D01*
X204398666Y-98766380D01*
X204493904Y-98814000D01*
X204541523Y-98861619D01*
X204589142Y-98956857D01*
X204589142Y-99099714D01*
X204541523Y-99194952D01*
X204493904Y-99242571D01*
X204398666Y-99290190D01*
X204017714Y-99290190D01*
X204970095Y-98861619D02*
X205017714Y-98814000D01*
X205112952Y-98766380D01*
X205351047Y-98766380D01*
X205446285Y-98814000D01*
X205493904Y-98861619D01*
X205541523Y-98956857D01*
X205541523Y-99052095D01*
X205493904Y-99194952D01*
X204922476Y-99766380D01*
X205541523Y-99766380D01*
X206398666Y-98766380D02*
X206208190Y-98766380D01*
X206112952Y-98814000D01*
X206065333Y-98861619D01*
X205970095Y-99004476D01*
X205922476Y-99194952D01*
X205922476Y-99575904D01*
X205970095Y-99671142D01*
X206017714Y-99718761D01*
X206112952Y-99766380D01*
X206303428Y-99766380D01*
X206398666Y-99718761D01*
X206446285Y-99671142D01*
X206493904Y-99575904D01*
X206493904Y-99337809D01*
X206446285Y-99242571D01*
X206398666Y-99194952D01*
X206303428Y-99147333D01*
X206112952Y-99147333D01*
X206017714Y-99194952D01*
X205970095Y-99242571D01*
X205922476Y-99337809D01*
%TO.C,R27*%
X209240380Y-93352857D02*
X208764190Y-93686190D01*
X209240380Y-93924285D02*
X208240380Y-93924285D01*
X208240380Y-93543333D01*
X208288000Y-93448095D01*
X208335619Y-93400476D01*
X208430857Y-93352857D01*
X208573714Y-93352857D01*
X208668952Y-93400476D01*
X208716571Y-93448095D01*
X208764190Y-93543333D01*
X208764190Y-93924285D01*
X208335619Y-92971904D02*
X208288000Y-92924285D01*
X208240380Y-92829047D01*
X208240380Y-92590952D01*
X208288000Y-92495714D01*
X208335619Y-92448095D01*
X208430857Y-92400476D01*
X208526095Y-92400476D01*
X208668952Y-92448095D01*
X209240380Y-93019523D01*
X209240380Y-92400476D01*
X208240380Y-92067142D02*
X208240380Y-91400476D01*
X209240380Y-91829047D01*
%TO.C,R28*%
X223464380Y-112402857D02*
X222988190Y-112736190D01*
X223464380Y-112974285D02*
X222464380Y-112974285D01*
X222464380Y-112593333D01*
X222512000Y-112498095D01*
X222559619Y-112450476D01*
X222654857Y-112402857D01*
X222797714Y-112402857D01*
X222892952Y-112450476D01*
X222940571Y-112498095D01*
X222988190Y-112593333D01*
X222988190Y-112974285D01*
X222559619Y-112021904D02*
X222512000Y-111974285D01*
X222464380Y-111879047D01*
X222464380Y-111640952D01*
X222512000Y-111545714D01*
X222559619Y-111498095D01*
X222654857Y-111450476D01*
X222750095Y-111450476D01*
X222892952Y-111498095D01*
X223464380Y-112069523D01*
X223464380Y-111450476D01*
X222892952Y-110879047D02*
X222845333Y-110974285D01*
X222797714Y-111021904D01*
X222702476Y-111069523D01*
X222654857Y-111069523D01*
X222559619Y-111021904D01*
X222512000Y-110974285D01*
X222464380Y-110879047D01*
X222464380Y-110688571D01*
X222512000Y-110593333D01*
X222559619Y-110545714D01*
X222654857Y-110498095D01*
X222702476Y-110498095D01*
X222797714Y-110545714D01*
X222845333Y-110593333D01*
X222892952Y-110688571D01*
X222892952Y-110879047D01*
X222940571Y-110974285D01*
X222988190Y-111021904D01*
X223083428Y-111069523D01*
X223273904Y-111069523D01*
X223369142Y-111021904D01*
X223416761Y-110974285D01*
X223464380Y-110879047D01*
X223464380Y-110688571D01*
X223416761Y-110593333D01*
X223369142Y-110545714D01*
X223273904Y-110498095D01*
X223083428Y-110498095D01*
X222988190Y-110545714D01*
X222940571Y-110593333D01*
X222892952Y-110688571D01*
%TO.C,R31*%
X211447142Y-83764380D02*
X211113809Y-83288190D01*
X210875714Y-83764380D02*
X210875714Y-82764380D01*
X211256666Y-82764380D01*
X211351904Y-82812000D01*
X211399523Y-82859619D01*
X211447142Y-82954857D01*
X211447142Y-83097714D01*
X211399523Y-83192952D01*
X211351904Y-83240571D01*
X211256666Y-83288190D01*
X210875714Y-83288190D01*
X211780476Y-82764380D02*
X212399523Y-82764380D01*
X212066190Y-83145333D01*
X212209047Y-83145333D01*
X212304285Y-83192952D01*
X212351904Y-83240571D01*
X212399523Y-83335809D01*
X212399523Y-83573904D01*
X212351904Y-83669142D01*
X212304285Y-83716761D01*
X212209047Y-83764380D01*
X211923333Y-83764380D01*
X211828095Y-83716761D01*
X211780476Y-83669142D01*
X213351904Y-83764380D02*
X212780476Y-83764380D01*
X213066190Y-83764380D02*
X213066190Y-82764380D01*
X212970952Y-82907238D01*
X212875714Y-83002476D01*
X212780476Y-83050095D01*
%TO.C,R32*%
X211447142Y-80970380D02*
X211113809Y-80494190D01*
X210875714Y-80970380D02*
X210875714Y-79970380D01*
X211256666Y-79970380D01*
X211351904Y-80018000D01*
X211399523Y-80065619D01*
X211447142Y-80160857D01*
X211447142Y-80303714D01*
X211399523Y-80398952D01*
X211351904Y-80446571D01*
X211256666Y-80494190D01*
X210875714Y-80494190D01*
X211780476Y-79970380D02*
X212399523Y-79970380D01*
X212066190Y-80351333D01*
X212209047Y-80351333D01*
X212304285Y-80398952D01*
X212351904Y-80446571D01*
X212399523Y-80541809D01*
X212399523Y-80779904D01*
X212351904Y-80875142D01*
X212304285Y-80922761D01*
X212209047Y-80970380D01*
X211923333Y-80970380D01*
X211828095Y-80922761D01*
X211780476Y-80875142D01*
X212780476Y-80065619D02*
X212828095Y-80018000D01*
X212923333Y-79970380D01*
X213161428Y-79970380D01*
X213256666Y-80018000D01*
X213304285Y-80065619D01*
X213351904Y-80160857D01*
X213351904Y-80256095D01*
X213304285Y-80398952D01*
X212732857Y-80970380D01*
X213351904Y-80970380D01*
%TO.C,R35*%
X211701142Y-72080380D02*
X211367809Y-71604190D01*
X211129714Y-72080380D02*
X211129714Y-71080380D01*
X211510666Y-71080380D01*
X211605904Y-71128000D01*
X211653523Y-71175619D01*
X211701142Y-71270857D01*
X211701142Y-71413714D01*
X211653523Y-71508952D01*
X211605904Y-71556571D01*
X211510666Y-71604190D01*
X211129714Y-71604190D01*
X212034476Y-71080380D02*
X212653523Y-71080380D01*
X212320190Y-71461333D01*
X212463047Y-71461333D01*
X212558285Y-71508952D01*
X212605904Y-71556571D01*
X212653523Y-71651809D01*
X212653523Y-71889904D01*
X212605904Y-71985142D01*
X212558285Y-72032761D01*
X212463047Y-72080380D01*
X212177333Y-72080380D01*
X212082095Y-72032761D01*
X212034476Y-71985142D01*
X213558285Y-71080380D02*
X213082095Y-71080380D01*
X213034476Y-71556571D01*
X213082095Y-71508952D01*
X213177333Y-71461333D01*
X213415428Y-71461333D01*
X213510666Y-71508952D01*
X213558285Y-71556571D01*
X213605904Y-71651809D01*
X213605904Y-71889904D01*
X213558285Y-71985142D01*
X213510666Y-72032761D01*
X213415428Y-72080380D01*
X213177333Y-72080380D01*
X213082095Y-72032761D01*
X213034476Y-71985142D01*
%TO.C,R36*%
X211701142Y-74874380D02*
X211367809Y-74398190D01*
X211129714Y-74874380D02*
X211129714Y-73874380D01*
X211510666Y-73874380D01*
X211605904Y-73922000D01*
X211653523Y-73969619D01*
X211701142Y-74064857D01*
X211701142Y-74207714D01*
X211653523Y-74302952D01*
X211605904Y-74350571D01*
X211510666Y-74398190D01*
X211129714Y-74398190D01*
X212034476Y-73874380D02*
X212653523Y-73874380D01*
X212320190Y-74255333D01*
X212463047Y-74255333D01*
X212558285Y-74302952D01*
X212605904Y-74350571D01*
X212653523Y-74445809D01*
X212653523Y-74683904D01*
X212605904Y-74779142D01*
X212558285Y-74826761D01*
X212463047Y-74874380D01*
X212177333Y-74874380D01*
X212082095Y-74826761D01*
X212034476Y-74779142D01*
X213510666Y-73874380D02*
X213320190Y-73874380D01*
X213224952Y-73922000D01*
X213177333Y-73969619D01*
X213082095Y-74112476D01*
X213034476Y-74302952D01*
X213034476Y-74683904D01*
X213082095Y-74779142D01*
X213129714Y-74826761D01*
X213224952Y-74874380D01*
X213415428Y-74874380D01*
X213510666Y-74826761D01*
X213558285Y-74779142D01*
X213605904Y-74683904D01*
X213605904Y-74445809D01*
X213558285Y-74350571D01*
X213510666Y-74302952D01*
X213415428Y-74255333D01*
X213224952Y-74255333D01*
X213129714Y-74302952D01*
X213082095Y-74350571D01*
X213034476Y-74445809D01*
%TO.C,RV7*%
X142692380Y-108545238D02*
X142216190Y-108878571D01*
X142692380Y-109116666D02*
X141692380Y-109116666D01*
X141692380Y-108735714D01*
X141740000Y-108640476D01*
X141787619Y-108592857D01*
X141882857Y-108545238D01*
X142025714Y-108545238D01*
X142120952Y-108592857D01*
X142168571Y-108640476D01*
X142216190Y-108735714D01*
X142216190Y-109116666D01*
X141692380Y-108259523D02*
X142692380Y-107926190D01*
X141692380Y-107592857D01*
X141692380Y-107354761D02*
X141692380Y-106688095D01*
X142692380Y-107116666D01*
%TO.C,RV8*%
X142692380Y-95337238D02*
X142216190Y-95670571D01*
X142692380Y-95908666D02*
X141692380Y-95908666D01*
X141692380Y-95527714D01*
X141740000Y-95432476D01*
X141787619Y-95384857D01*
X141882857Y-95337238D01*
X142025714Y-95337238D01*
X142120952Y-95384857D01*
X142168571Y-95432476D01*
X142216190Y-95527714D01*
X142216190Y-95908666D01*
X141692380Y-95051523D02*
X142692380Y-94718190D01*
X141692380Y-94384857D01*
X142120952Y-93908666D02*
X142073333Y-94003904D01*
X142025714Y-94051523D01*
X141930476Y-94099142D01*
X141882857Y-94099142D01*
X141787619Y-94051523D01*
X141740000Y-94003904D01*
X141692380Y-93908666D01*
X141692380Y-93718190D01*
X141740000Y-93622952D01*
X141787619Y-93575333D01*
X141882857Y-93527714D01*
X141930476Y-93527714D01*
X142025714Y-93575333D01*
X142073333Y-93622952D01*
X142120952Y-93718190D01*
X142120952Y-93908666D01*
X142168571Y-94003904D01*
X142216190Y-94051523D01*
X142311428Y-94099142D01*
X142501904Y-94099142D01*
X142597142Y-94051523D01*
X142644761Y-94003904D01*
X142692380Y-93908666D01*
X142692380Y-93718190D01*
X142644761Y-93622952D01*
X142597142Y-93575333D01*
X142501904Y-93527714D01*
X142311428Y-93527714D01*
X142216190Y-93575333D01*
X142168571Y-93622952D01*
X142120952Y-93718190D01*
%TO.C,RV9*%
X165806380Y-108545238D02*
X165330190Y-108878571D01*
X165806380Y-109116666D02*
X164806380Y-109116666D01*
X164806380Y-108735714D01*
X164854000Y-108640476D01*
X164901619Y-108592857D01*
X164996857Y-108545238D01*
X165139714Y-108545238D01*
X165234952Y-108592857D01*
X165282571Y-108640476D01*
X165330190Y-108735714D01*
X165330190Y-109116666D01*
X164806380Y-108259523D02*
X165806380Y-107926190D01*
X164806380Y-107592857D01*
X165806380Y-107211904D02*
X165806380Y-107021428D01*
X165758761Y-106926190D01*
X165711142Y-106878571D01*
X165568285Y-106783333D01*
X165377809Y-106735714D01*
X164996857Y-106735714D01*
X164901619Y-106783333D01*
X164854000Y-106830952D01*
X164806380Y-106926190D01*
X164806380Y-107116666D01*
X164854000Y-107211904D01*
X164901619Y-107259523D01*
X164996857Y-107307142D01*
X165234952Y-107307142D01*
X165330190Y-107259523D01*
X165377809Y-107211904D01*
X165425428Y-107116666D01*
X165425428Y-106926190D01*
X165377809Y-106830952D01*
X165330190Y-106783333D01*
X165234952Y-106735714D01*
%TO.C,RV10*%
X165552380Y-95559428D02*
X165076190Y-95892761D01*
X165552380Y-96130857D02*
X164552380Y-96130857D01*
X164552380Y-95749904D01*
X164600000Y-95654666D01*
X164647619Y-95607047D01*
X164742857Y-95559428D01*
X164885714Y-95559428D01*
X164980952Y-95607047D01*
X165028571Y-95654666D01*
X165076190Y-95749904D01*
X165076190Y-96130857D01*
X164552380Y-95273714D02*
X165552380Y-94940380D01*
X164552380Y-94607047D01*
X165552380Y-93749904D02*
X165552380Y-94321333D01*
X165552380Y-94035619D02*
X164552380Y-94035619D01*
X164695238Y-94130857D01*
X164790476Y-94226095D01*
X164838095Y-94321333D01*
X164552380Y-93130857D02*
X164552380Y-93035619D01*
X164600000Y-92940380D01*
X164647619Y-92892761D01*
X164742857Y-92845142D01*
X164933333Y-92797523D01*
X165171428Y-92797523D01*
X165361904Y-92845142D01*
X165457142Y-92892761D01*
X165504761Y-92940380D01*
X165552380Y-93035619D01*
X165552380Y-93130857D01*
X165504761Y-93226095D01*
X165457142Y-93273714D01*
X165361904Y-93321333D01*
X165171428Y-93368952D01*
X164933333Y-93368952D01*
X164742857Y-93321333D01*
X164647619Y-93273714D01*
X164600000Y-93226095D01*
X164552380Y-93130857D01*
%TO.C,RV11*%
X188666380Y-108767428D02*
X188190190Y-109100761D01*
X188666380Y-109338857D02*
X187666380Y-109338857D01*
X187666380Y-108957904D01*
X187714000Y-108862666D01*
X187761619Y-108815047D01*
X187856857Y-108767428D01*
X187999714Y-108767428D01*
X188094952Y-108815047D01*
X188142571Y-108862666D01*
X188190190Y-108957904D01*
X188190190Y-109338857D01*
X187666380Y-108481714D02*
X188666380Y-108148380D01*
X187666380Y-107815047D01*
X188666380Y-106957904D02*
X188666380Y-107529333D01*
X188666380Y-107243619D02*
X187666380Y-107243619D01*
X187809238Y-107338857D01*
X187904476Y-107434095D01*
X187952095Y-107529333D01*
X188666380Y-106005523D02*
X188666380Y-106576952D01*
X188666380Y-106291238D02*
X187666380Y-106291238D01*
X187809238Y-106386476D01*
X187904476Y-106481714D01*
X187952095Y-106576952D01*
%TO.C,RV12*%
X188412380Y-95559428D02*
X187936190Y-95892761D01*
X188412380Y-96130857D02*
X187412380Y-96130857D01*
X187412380Y-95749904D01*
X187460000Y-95654666D01*
X187507619Y-95607047D01*
X187602857Y-95559428D01*
X187745714Y-95559428D01*
X187840952Y-95607047D01*
X187888571Y-95654666D01*
X187936190Y-95749904D01*
X187936190Y-96130857D01*
X187412380Y-95273714D02*
X188412380Y-94940380D01*
X187412380Y-94607047D01*
X188412380Y-93749904D02*
X188412380Y-94321333D01*
X188412380Y-94035619D02*
X187412380Y-94035619D01*
X187555238Y-94130857D01*
X187650476Y-94226095D01*
X187698095Y-94321333D01*
X187507619Y-93368952D02*
X187460000Y-93321333D01*
X187412380Y-93226095D01*
X187412380Y-92988000D01*
X187460000Y-92892761D01*
X187507619Y-92845142D01*
X187602857Y-92797523D01*
X187698095Y-92797523D01*
X187840952Y-92845142D01*
X188412380Y-93416571D01*
X188412380Y-92797523D01*
%TO.C,RV13*%
X210792571Y-103756380D02*
X210459238Y-103280190D01*
X210221142Y-103756380D02*
X210221142Y-102756380D01*
X210602095Y-102756380D01*
X210697333Y-102804000D01*
X210744952Y-102851619D01*
X210792571Y-102946857D01*
X210792571Y-103089714D01*
X210744952Y-103184952D01*
X210697333Y-103232571D01*
X210602095Y-103280190D01*
X210221142Y-103280190D01*
X211078285Y-102756380D02*
X211411619Y-103756380D01*
X211744952Y-102756380D01*
X212602095Y-103756380D02*
X212030666Y-103756380D01*
X212316380Y-103756380D02*
X212316380Y-102756380D01*
X212221142Y-102899238D01*
X212125904Y-102994476D01*
X212030666Y-103042095D01*
X212935428Y-102756380D02*
X213554476Y-102756380D01*
X213221142Y-103137333D01*
X213364000Y-103137333D01*
X213459238Y-103184952D01*
X213506857Y-103232571D01*
X213554476Y-103327809D01*
X213554476Y-103565904D01*
X213506857Y-103661142D01*
X213459238Y-103708761D01*
X213364000Y-103756380D01*
X213078285Y-103756380D01*
X212983047Y-103708761D01*
X212935428Y-103661142D01*
%TO.C,U1*%
X139700095Y-29932380D02*
X139700095Y-30741904D01*
X139747714Y-30837142D01*
X139795333Y-30884761D01*
X139890571Y-30932380D01*
X140081047Y-30932380D01*
X140176285Y-30884761D01*
X140223904Y-30837142D01*
X140271523Y-30741904D01*
X140271523Y-29932380D01*
X141271523Y-30932380D02*
X140700095Y-30932380D01*
X140985809Y-30932380D02*
X140985809Y-29932380D01*
X140890571Y-30075238D01*
X140795333Y-30170476D01*
X140700095Y-30218095D01*
%TO.C,U2*%
X151384095Y-29932380D02*
X151384095Y-30741904D01*
X151431714Y-30837142D01*
X151479333Y-30884761D01*
X151574571Y-30932380D01*
X151765047Y-30932380D01*
X151860285Y-30884761D01*
X151907904Y-30837142D01*
X151955523Y-30741904D01*
X151955523Y-29932380D01*
X152384095Y-30027619D02*
X152431714Y-29980000D01*
X152526952Y-29932380D01*
X152765047Y-29932380D01*
X152860285Y-29980000D01*
X152907904Y-30027619D01*
X152955523Y-30122857D01*
X152955523Y-30218095D01*
X152907904Y-30360952D01*
X152336476Y-30932380D01*
X152955523Y-30932380D01*
%TO.C,U3*%
X162306095Y-29932380D02*
X162306095Y-30741904D01*
X162353714Y-30837142D01*
X162401333Y-30884761D01*
X162496571Y-30932380D01*
X162687047Y-30932380D01*
X162782285Y-30884761D01*
X162829904Y-30837142D01*
X162877523Y-30741904D01*
X162877523Y-29932380D01*
X163258476Y-29932380D02*
X163877523Y-29932380D01*
X163544190Y-30313333D01*
X163687047Y-30313333D01*
X163782285Y-30360952D01*
X163829904Y-30408571D01*
X163877523Y-30503809D01*
X163877523Y-30741904D01*
X163829904Y-30837142D01*
X163782285Y-30884761D01*
X163687047Y-30932380D01*
X163401333Y-30932380D01*
X163306095Y-30884761D01*
X163258476Y-30837142D01*
%TO.C,U4*%
X174244095Y-29678380D02*
X174244095Y-30487904D01*
X174291714Y-30583142D01*
X174339333Y-30630761D01*
X174434571Y-30678380D01*
X174625047Y-30678380D01*
X174720285Y-30630761D01*
X174767904Y-30583142D01*
X174815523Y-30487904D01*
X174815523Y-29678380D01*
X175720285Y-30011714D02*
X175720285Y-30678380D01*
X175482190Y-29630761D02*
X175244095Y-30345047D01*
X175863142Y-30345047D01*
%TO.C,U5*%
X185420095Y-29932380D02*
X185420095Y-30741904D01*
X185467714Y-30837142D01*
X185515333Y-30884761D01*
X185610571Y-30932380D01*
X185801047Y-30932380D01*
X185896285Y-30884761D01*
X185943904Y-30837142D01*
X185991523Y-30741904D01*
X185991523Y-29932380D01*
X186943904Y-29932380D02*
X186467714Y-29932380D01*
X186420095Y-30408571D01*
X186467714Y-30360952D01*
X186562952Y-30313333D01*
X186801047Y-30313333D01*
X186896285Y-30360952D01*
X186943904Y-30408571D01*
X186991523Y-30503809D01*
X186991523Y-30741904D01*
X186943904Y-30837142D01*
X186896285Y-30884761D01*
X186801047Y-30932380D01*
X186562952Y-30932380D01*
X186467714Y-30884761D01*
X186420095Y-30837142D01*
%TO.C,U6*%
X196596095Y-29932380D02*
X196596095Y-30741904D01*
X196643714Y-30837142D01*
X196691333Y-30884761D01*
X196786571Y-30932380D01*
X196977047Y-30932380D01*
X197072285Y-30884761D01*
X197119904Y-30837142D01*
X197167523Y-30741904D01*
X197167523Y-29932380D01*
X198072285Y-29932380D02*
X197881809Y-29932380D01*
X197786571Y-29980000D01*
X197738952Y-30027619D01*
X197643714Y-30170476D01*
X197596095Y-30360952D01*
X197596095Y-30741904D01*
X197643714Y-30837142D01*
X197691333Y-30884761D01*
X197786571Y-30932380D01*
X197977047Y-30932380D01*
X198072285Y-30884761D01*
X198119904Y-30837142D01*
X198167523Y-30741904D01*
X198167523Y-30503809D01*
X198119904Y-30408571D01*
X198072285Y-30360952D01*
X197977047Y-30313333D01*
X197786571Y-30313333D01*
X197691333Y-30360952D01*
X197643714Y-30408571D01*
X197596095Y-30503809D01*
%TO.C,RV1*%
X140406380Y-59523238D02*
X139930190Y-59856571D01*
X140406380Y-60094666D02*
X139406380Y-60094666D01*
X139406380Y-59713714D01*
X139454000Y-59618476D01*
X139501619Y-59570857D01*
X139596857Y-59523238D01*
X139739714Y-59523238D01*
X139834952Y-59570857D01*
X139882571Y-59618476D01*
X139930190Y-59713714D01*
X139930190Y-60094666D01*
X139406380Y-59237523D02*
X140406380Y-58904190D01*
X139406380Y-58570857D01*
X140406380Y-57713714D02*
X140406380Y-58285142D01*
X140406380Y-57999428D02*
X139406380Y-57999428D01*
X139549238Y-58094666D01*
X139644476Y-58189904D01*
X139692095Y-58285142D01*
%TO.C,RV2*%
X152344380Y-59523238D02*
X151868190Y-59856571D01*
X152344380Y-60094666D02*
X151344380Y-60094666D01*
X151344380Y-59713714D01*
X151392000Y-59618476D01*
X151439619Y-59570857D01*
X151534857Y-59523238D01*
X151677714Y-59523238D01*
X151772952Y-59570857D01*
X151820571Y-59618476D01*
X151868190Y-59713714D01*
X151868190Y-60094666D01*
X151344380Y-59237523D02*
X152344380Y-58904190D01*
X151344380Y-58570857D01*
X151439619Y-58285142D02*
X151392000Y-58237523D01*
X151344380Y-58142285D01*
X151344380Y-57904190D01*
X151392000Y-57808952D01*
X151439619Y-57761333D01*
X151534857Y-57713714D01*
X151630095Y-57713714D01*
X151772952Y-57761333D01*
X152344380Y-58332761D01*
X152344380Y-57713714D01*
%TO.C,RV3*%
X163520380Y-59269238D02*
X163044190Y-59602571D01*
X163520380Y-59840666D02*
X162520380Y-59840666D01*
X162520380Y-59459714D01*
X162568000Y-59364476D01*
X162615619Y-59316857D01*
X162710857Y-59269238D01*
X162853714Y-59269238D01*
X162948952Y-59316857D01*
X162996571Y-59364476D01*
X163044190Y-59459714D01*
X163044190Y-59840666D01*
X162520380Y-58983523D02*
X163520380Y-58650190D01*
X162520380Y-58316857D01*
X162520380Y-58078761D02*
X162520380Y-57459714D01*
X162901333Y-57793047D01*
X162901333Y-57650190D01*
X162948952Y-57554952D01*
X162996571Y-57507333D01*
X163091809Y-57459714D01*
X163329904Y-57459714D01*
X163425142Y-57507333D01*
X163472761Y-57554952D01*
X163520380Y-57650190D01*
X163520380Y-57935904D01*
X163472761Y-58031142D01*
X163425142Y-58078761D01*
%TO.C,RV4*%
X174442380Y-59269238D02*
X173966190Y-59602571D01*
X174442380Y-59840666D02*
X173442380Y-59840666D01*
X173442380Y-59459714D01*
X173490000Y-59364476D01*
X173537619Y-59316857D01*
X173632857Y-59269238D01*
X173775714Y-59269238D01*
X173870952Y-59316857D01*
X173918571Y-59364476D01*
X173966190Y-59459714D01*
X173966190Y-59840666D01*
X173442380Y-58983523D02*
X174442380Y-58650190D01*
X173442380Y-58316857D01*
X173775714Y-57554952D02*
X174442380Y-57554952D01*
X173394761Y-57793047D02*
X174109047Y-58031142D01*
X174109047Y-57412095D01*
%TO.C,RV5*%
X186126380Y-59523238D02*
X185650190Y-59856571D01*
X186126380Y-60094666D02*
X185126380Y-60094666D01*
X185126380Y-59713714D01*
X185174000Y-59618476D01*
X185221619Y-59570857D01*
X185316857Y-59523238D01*
X185459714Y-59523238D01*
X185554952Y-59570857D01*
X185602571Y-59618476D01*
X185650190Y-59713714D01*
X185650190Y-60094666D01*
X185126380Y-59237523D02*
X186126380Y-58904190D01*
X185126380Y-58570857D01*
X185126380Y-57761333D02*
X185126380Y-58237523D01*
X185602571Y-58285142D01*
X185554952Y-58237523D01*
X185507333Y-58142285D01*
X185507333Y-57904190D01*
X185554952Y-57808952D01*
X185602571Y-57761333D01*
X185697809Y-57713714D01*
X185935904Y-57713714D01*
X186031142Y-57761333D01*
X186078761Y-57808952D01*
X186126380Y-57904190D01*
X186126380Y-58142285D01*
X186078761Y-58237523D01*
X186031142Y-58285142D01*
%TO.C,RV6*%
X197556380Y-59523238D02*
X197080190Y-59856571D01*
X197556380Y-60094666D02*
X196556380Y-60094666D01*
X196556380Y-59713714D01*
X196604000Y-59618476D01*
X196651619Y-59570857D01*
X196746857Y-59523238D01*
X196889714Y-59523238D01*
X196984952Y-59570857D01*
X197032571Y-59618476D01*
X197080190Y-59713714D01*
X197080190Y-60094666D01*
X196556380Y-59237523D02*
X197556380Y-58904190D01*
X196556380Y-58570857D01*
X196556380Y-57808952D02*
X196556380Y-57999428D01*
X196604000Y-58094666D01*
X196651619Y-58142285D01*
X196794476Y-58237523D01*
X196984952Y-58285142D01*
X197365904Y-58285142D01*
X197461142Y-58237523D01*
X197508761Y-58189904D01*
X197556380Y-58094666D01*
X197556380Y-57904190D01*
X197508761Y-57808952D01*
X197461142Y-57761333D01*
X197365904Y-57713714D01*
X197127809Y-57713714D01*
X197032571Y-57761333D01*
X196984952Y-57808952D01*
X196937333Y-57904190D01*
X196937333Y-58094666D01*
X196984952Y-58189904D01*
X197032571Y-58237523D01*
X197127809Y-58285142D01*
%TD*%
M02*
