%TF.GenerationSoftware,KiCad,Pcbnew,(5.1.10)-1*%
%TF.CreationDate,2021-10-30T12:18:14-04:00*%
%TF.ProjectId,Control Board,436f6e74-726f-46c2-9042-6f6172642e6b,rev?*%
%TF.SameCoordinates,Original*%
%TF.FileFunction,Soldermask,Bot*%
%TF.FilePolarity,Negative*%
%FSLAX46Y46*%
G04 Gerber Fmt 4.6, Leading zero omitted, Abs format (unit mm)*
G04 Created by KiCad (PCBNEW (5.1.10)-1) date 2021-10-30 12:18:14*
%MOMM*%
%LPD*%
G01*
G04 APERTURE LIST*
%ADD10C,3.200000*%
%ADD11C,2.000000*%
%ADD12R,1.800000X1.800000*%
%ADD13C,1.800000*%
%ADD14C,1.200000*%
%ADD15O,2.000000X1.700000*%
%ADD16R,1.700000X1.700000*%
%ADD17O,1.700000X1.700000*%
%ADD18O,1.050000X1.500000*%
%ADD19R,1.050000X1.500000*%
%ADD20R,1.400000X1.400000*%
%ADD21C,1.400000*%
%ADD22R,3.200000X2.000000*%
%ADD23R,2.000000X2.000000*%
%ADD24O,2.500000X4.000000*%
G04 APERTURE END LIST*
D10*
%TO.C,REF\u002A\u002A*%
X102057200Y-58369200D03*
%TD*%
%TO.C,REF\u002A\u002A*%
X239268000Y-31623000D03*
%TD*%
%TO.C,REF\u002A\u002A*%
X36526800Y-64516000D03*
%TD*%
%TO.C,REF\u002A\u002A*%
X36603000Y-124306000D03*
%TD*%
%TO.C,REF\u002A\u002A*%
X239217200Y-124104400D03*
%TD*%
D11*
%TO.C,SW16*%
X122051800Y-91033600D03*
X122051800Y-95533600D03*
X128551800Y-91033600D03*
X128551800Y-95533600D03*
%TD*%
%TO.C,SW49*%
X194591800Y-33121600D03*
X194591800Y-37621600D03*
X201091800Y-33121600D03*
X201091800Y-37621600D03*
%TD*%
%TO.C,SW58*%
X209044400Y-41503600D03*
X209044400Y-46003600D03*
X215544400Y-41503600D03*
X215544400Y-46003600D03*
%TD*%
%TO.C,SW10*%
X128551800Y-46003600D03*
X128551800Y-41503600D03*
X122051800Y-46003600D03*
X122051800Y-41503600D03*
%TD*%
%TO.C,SW13*%
X128551800Y-70895600D03*
X128551800Y-66395600D03*
X122051800Y-70895600D03*
X122051800Y-66395600D03*
%TD*%
D12*
%TO.C,D45*%
X147091400Y-71221600D03*
D13*
X147091400Y-68681600D03*
X147091400Y-66141600D03*
%TD*%
D11*
%TO.C,SW25*%
X157657800Y-37621600D03*
X157657800Y-33121600D03*
X151157800Y-37621600D03*
X151157800Y-33121600D03*
%TD*%
D12*
%TO.C,D1*%
X176047400Y-37947600D03*
D13*
X176047400Y-35407600D03*
X176047400Y-32867600D03*
%TD*%
D12*
%TO.C,D2*%
X176047400Y-46329600D03*
D13*
X176047400Y-43789600D03*
X176047400Y-41249600D03*
%TD*%
%TO.C,D3*%
X176047400Y-49377600D03*
X176047400Y-51917600D03*
D12*
X176047400Y-54457600D03*
%TD*%
%TO.C,D4*%
X176047400Y-62839600D03*
D13*
X176047400Y-60299600D03*
X176047400Y-57759600D03*
%TD*%
%TO.C,D5*%
X176047400Y-66141600D03*
X176047400Y-68681600D03*
D12*
X176047400Y-71221600D03*
%TD*%
%TO.C,D6*%
X176047400Y-79349600D03*
D13*
X176047400Y-76809600D03*
X176047400Y-74269600D03*
%TD*%
%TO.C,D7*%
X176047400Y-82651600D03*
X176047400Y-85191600D03*
D12*
X176047400Y-87731600D03*
%TD*%
%TO.C,D8*%
X176047400Y-95859600D03*
D13*
X176047400Y-93319600D03*
X176047400Y-90779600D03*
%TD*%
%TO.C,D9*%
X118135400Y-32867600D03*
X118135400Y-35407600D03*
D12*
X118135400Y-37947600D03*
%TD*%
D13*
%TO.C,D10*%
X118135400Y-41249600D03*
X118135400Y-43789600D03*
D12*
X118135400Y-46329600D03*
%TD*%
%TO.C,D11*%
X118135400Y-54457600D03*
D13*
X118135400Y-51917600D03*
X118135400Y-49377600D03*
%TD*%
%TO.C,D12*%
X118135400Y-57759600D03*
X118135400Y-60299600D03*
D12*
X118135400Y-62839600D03*
%TD*%
%TO.C,D13*%
X118135400Y-71221600D03*
D13*
X118135400Y-68681600D03*
X118135400Y-66141600D03*
%TD*%
%TO.C,D14*%
X118135400Y-74269600D03*
X118135400Y-76809600D03*
D12*
X118135400Y-79349600D03*
%TD*%
%TO.C,D15*%
X118135400Y-87731600D03*
D13*
X118135400Y-85191600D03*
X118135400Y-82651600D03*
%TD*%
%TO.C,D16*%
X118135400Y-90779600D03*
X118135400Y-93319600D03*
D12*
X118135400Y-95859600D03*
%TD*%
D13*
%TO.C,D17*%
X190525400Y-32867600D03*
X190525400Y-35407600D03*
D12*
X190525400Y-37947600D03*
%TD*%
%TO.C,D18*%
X190525400Y-46329600D03*
D13*
X190525400Y-43789600D03*
X190525400Y-41249600D03*
%TD*%
D12*
%TO.C,D19*%
X190525400Y-54457600D03*
D13*
X190525400Y-51917600D03*
X190525400Y-49377600D03*
%TD*%
%TO.C,D20*%
X190525400Y-57759600D03*
X190525400Y-60299600D03*
D12*
X190525400Y-62839600D03*
%TD*%
D13*
%TO.C,D21*%
X190525400Y-66141600D03*
X190525400Y-68681600D03*
D12*
X190525400Y-71221600D03*
%TD*%
%TO.C,D22*%
X190525400Y-79349600D03*
D13*
X190525400Y-76809600D03*
X190525400Y-74269600D03*
%TD*%
%TO.C,D23*%
X190525400Y-82651600D03*
X190525400Y-85191600D03*
D12*
X190525400Y-87731600D03*
%TD*%
%TO.C,D24*%
X190525400Y-95859600D03*
D13*
X190525400Y-93319600D03*
X190525400Y-90779600D03*
%TD*%
%TO.C,D25*%
X132613400Y-32867600D03*
X132613400Y-35407600D03*
D12*
X132613400Y-37947600D03*
%TD*%
%TO.C,D26*%
X132613400Y-46329600D03*
D13*
X132613400Y-43789600D03*
X132613400Y-41249600D03*
%TD*%
%TO.C,D27*%
X132613400Y-49377600D03*
X132613400Y-51917600D03*
D12*
X132613400Y-54457600D03*
%TD*%
%TO.C,D28*%
X132613400Y-62839600D03*
D13*
X132613400Y-60299600D03*
X132613400Y-57759600D03*
%TD*%
D12*
%TO.C,D29*%
X132613400Y-71221600D03*
D13*
X132613400Y-68681600D03*
X132613400Y-66141600D03*
%TD*%
%TO.C,D30*%
X132613400Y-74269600D03*
X132613400Y-76809600D03*
D12*
X132613400Y-79349600D03*
%TD*%
%TO.C,D31*%
X132613400Y-87731600D03*
D13*
X132613400Y-85191600D03*
X132613400Y-82651600D03*
%TD*%
%TO.C,D32*%
X132613400Y-90779600D03*
X132613400Y-93319600D03*
D12*
X132613400Y-95859600D03*
%TD*%
D13*
%TO.C,D33*%
X205003400Y-32867600D03*
X205003400Y-35407600D03*
D12*
X205003400Y-37947600D03*
%TD*%
%TO.C,D34*%
X205003400Y-46329600D03*
D13*
X205003400Y-43789600D03*
X205003400Y-41249600D03*
%TD*%
%TO.C,D35*%
X205003400Y-49377600D03*
X205003400Y-51917600D03*
D12*
X205003400Y-54457600D03*
%TD*%
%TO.C,D36*%
X205003400Y-62839600D03*
D13*
X205003400Y-60299600D03*
X205003400Y-57759600D03*
%TD*%
%TO.C,D37*%
X205003400Y-66141600D03*
X205003400Y-68681600D03*
D12*
X205003400Y-71221600D03*
%TD*%
%TO.C,D38*%
X205003400Y-79349600D03*
D13*
X205003400Y-76809600D03*
X205003400Y-74269600D03*
%TD*%
%TO.C,D39*%
X205003400Y-82651600D03*
X205003400Y-85191600D03*
D12*
X205003400Y-87731600D03*
%TD*%
D13*
%TO.C,D40*%
X205003400Y-90779600D03*
X205003400Y-93319600D03*
D12*
X205003400Y-95859600D03*
%TD*%
D13*
%TO.C,D41*%
X147091400Y-32867600D03*
X147091400Y-35407600D03*
D12*
X147091400Y-37947600D03*
%TD*%
%TO.C,D42*%
X147091400Y-46329600D03*
D13*
X147091400Y-43789600D03*
X147091400Y-41249600D03*
%TD*%
%TO.C,D43*%
X147091400Y-49377600D03*
X147091400Y-51917600D03*
D12*
X147091400Y-54457600D03*
%TD*%
%TO.C,D44*%
X147091400Y-62839600D03*
D13*
X147091400Y-60299600D03*
X147091400Y-57759600D03*
%TD*%
%TO.C,D46*%
X147091400Y-74269600D03*
X147091400Y-76809600D03*
D12*
X147091400Y-79349600D03*
%TD*%
%TO.C,D47*%
X147091400Y-87731600D03*
D13*
X147091400Y-85191600D03*
X147091400Y-82651600D03*
%TD*%
%TO.C,D48*%
X147091400Y-90779600D03*
X147091400Y-93319600D03*
D12*
X147091400Y-95859600D03*
%TD*%
D13*
%TO.C,D49*%
X219481400Y-32867600D03*
X219481400Y-35407600D03*
D12*
X219481400Y-37947600D03*
%TD*%
%TO.C,D50*%
X219481400Y-46329600D03*
D13*
X219481400Y-43789600D03*
X219481400Y-41249600D03*
%TD*%
%TO.C,D51*%
X219481400Y-49377600D03*
X219481400Y-51917600D03*
D12*
X219481400Y-54457600D03*
%TD*%
%TO.C,D52*%
X219481400Y-62839600D03*
D13*
X219481400Y-60299600D03*
X219481400Y-57759600D03*
%TD*%
%TO.C,D53*%
X219481400Y-66141600D03*
X219481400Y-68681600D03*
D12*
X219481400Y-71221600D03*
%TD*%
%TO.C,D54*%
X219481400Y-79349600D03*
D13*
X219481400Y-76809600D03*
X219481400Y-74269600D03*
%TD*%
%TO.C,D55*%
X219481400Y-82651600D03*
X219481400Y-85191600D03*
D12*
X219481400Y-87731600D03*
%TD*%
%TO.C,D56*%
X219481400Y-95859600D03*
D13*
X219481400Y-93319600D03*
X219481400Y-90779600D03*
%TD*%
%TO.C,D57*%
X161569400Y-32867600D03*
X161569400Y-35407600D03*
D12*
X161569400Y-37947600D03*
%TD*%
%TO.C,D58*%
X161569400Y-46329600D03*
D13*
X161569400Y-43789600D03*
X161569400Y-41249600D03*
%TD*%
%TO.C,D59*%
X161569400Y-49377600D03*
X161569400Y-51917600D03*
D12*
X161569400Y-54457600D03*
%TD*%
%TO.C,D60*%
X161569400Y-62839600D03*
D13*
X161569400Y-60299600D03*
X161569400Y-57759600D03*
%TD*%
D12*
%TO.C,D61*%
X161569400Y-71221600D03*
D13*
X161569400Y-68681600D03*
X161569400Y-66141600D03*
%TD*%
%TO.C,D62*%
X161569400Y-74269600D03*
X161569400Y-76809600D03*
D12*
X161569400Y-79349600D03*
%TD*%
%TO.C,D63*%
X161569400Y-87731600D03*
D13*
X161569400Y-85191600D03*
X161569400Y-82651600D03*
%TD*%
D12*
%TO.C,D64*%
X161569400Y-95859600D03*
D13*
X161569400Y-93319600D03*
X161569400Y-90779600D03*
%TD*%
D12*
%TO.C,D65*%
X39522400Y-99822000D03*
D13*
X39522400Y-102362000D03*
%TD*%
D12*
%TO.C,D66*%
X226822000Y-47815500D03*
D13*
X226822000Y-45275500D03*
%TD*%
%TO.C,D67*%
X226822000Y-66103500D03*
D12*
X226822000Y-68643500D03*
%TD*%
%TO.C,D68*%
X226568000Y-89471500D03*
D13*
X226568000Y-86931500D03*
%TD*%
%TO.C,D69*%
X226568000Y-108013500D03*
D12*
X226568000Y-110553500D03*
%TD*%
D14*
%TO.C,J1*%
X101835200Y-78968800D03*
D15*
X103835200Y-83068800D03*
G36*
G01*
X103085200Y-79718800D02*
X104585200Y-79718800D01*
G75*
G02*
X104835200Y-79968800I0J-250000D01*
G01*
X104835200Y-81168800D01*
G75*
G02*
X104585200Y-81418800I-250000J0D01*
G01*
X103085200Y-81418800D01*
G75*
G02*
X102835200Y-81168800I0J250000D01*
G01*
X102835200Y-79968800D01*
G75*
G02*
X103085200Y-79718800I250000J0D01*
G01*
G37*
%TD*%
%TO.C,J2*%
G36*
G01*
X103085200Y-88242400D02*
X104585200Y-88242400D01*
G75*
G02*
X104835200Y-88492400I0J-250000D01*
G01*
X104835200Y-89692400D01*
G75*
G02*
X104585200Y-89942400I-250000J0D01*
G01*
X103085200Y-89942400D01*
G75*
G02*
X102835200Y-89692400I0J250000D01*
G01*
X102835200Y-88492400D01*
G75*
G02*
X103085200Y-88242400I250000J0D01*
G01*
G37*
X103835200Y-91592400D03*
D14*
X101835200Y-87492400D03*
%TD*%
%TO.C,J3*%
X101835200Y-96026800D03*
D15*
X103835200Y-100126800D03*
G36*
G01*
X103085200Y-96776800D02*
X104585200Y-96776800D01*
G75*
G02*
X104835200Y-97026800I0J-250000D01*
G01*
X104835200Y-98226800D01*
G75*
G02*
X104585200Y-98476800I-250000J0D01*
G01*
X103085200Y-98476800D01*
G75*
G02*
X102835200Y-98226800I0J250000D01*
G01*
X102835200Y-97026800D01*
G75*
G02*
X103085200Y-96776800I250000J0D01*
G01*
G37*
%TD*%
%TO.C,J4*%
G36*
G01*
X103085200Y-105525200D02*
X104585200Y-105525200D01*
G75*
G02*
X104835200Y-105775200I0J-250000D01*
G01*
X104835200Y-106975200D01*
G75*
G02*
X104585200Y-107225200I-250000J0D01*
G01*
X103085200Y-107225200D01*
G75*
G02*
X102835200Y-106975200I0J250000D01*
G01*
X102835200Y-105775200D01*
G75*
G02*
X103085200Y-105525200I250000J0D01*
G01*
G37*
X103835200Y-108875200D03*
D14*
X101835200Y-104775200D03*
%TD*%
D16*
%TO.C,J5*%
X96469200Y-108864400D03*
D17*
X96469200Y-106324400D03*
X96469200Y-103784400D03*
X96469200Y-101244400D03*
X96469200Y-98704400D03*
X96469200Y-96164400D03*
X96469200Y-93624400D03*
X96469200Y-91084400D03*
X96469200Y-88544400D03*
X96469200Y-86004400D03*
X96469200Y-83464400D03*
X96469200Y-80924400D03*
X96469200Y-78384400D03*
X96469200Y-75844400D03*
X96469200Y-73304400D03*
X96469200Y-70764400D03*
X96469200Y-68224400D03*
X96469200Y-65684400D03*
X96469200Y-63144400D03*
X96469200Y-60604400D03*
X96469200Y-58064400D03*
X96469200Y-55524400D03*
X96469200Y-52984400D03*
X96469200Y-50444400D03*
X96469200Y-47904400D03*
X96469200Y-45364400D03*
X96469200Y-42824400D03*
X96469200Y-40284400D03*
X96469200Y-37744400D03*
X96469200Y-35204400D03*
X96469200Y-32664400D03*
X96469200Y-30124400D03*
%TD*%
D18*
%TO.C,Q1*%
X39522400Y-108762800D03*
X40792400Y-108762800D03*
D19*
X38252400Y-108762800D03*
%TD*%
%TO.C,Q2*%
X228092000Y-36131500D03*
D18*
X225552000Y-36131500D03*
X226822000Y-36131500D03*
%TD*%
%TO.C,Q3*%
X226822000Y-56959500D03*
X225552000Y-56959500D03*
D19*
X228092000Y-56959500D03*
%TD*%
D18*
%TO.C,Q4*%
X227076000Y-77533500D03*
X225806000Y-77533500D03*
D19*
X228346000Y-77533500D03*
%TD*%
%TO.C,Q5*%
X228092000Y-98361500D03*
D18*
X225552000Y-98361500D03*
X226822000Y-98361500D03*
%TD*%
D20*
%TO.C,S1*%
X91186000Y-69659500D03*
D21*
X91186000Y-71959500D03*
X91186000Y-74259500D03*
X91186000Y-76559500D03*
X91186000Y-67359500D03*
X91186000Y-78859500D03*
%TD*%
D11*
%TO.C,SW1*%
X107723800Y-33121600D03*
X107723800Y-37621600D03*
X114223800Y-33121600D03*
X114223800Y-37621600D03*
%TD*%
%TO.C,SW2*%
X107723800Y-41503600D03*
X107723800Y-46003600D03*
X114223800Y-41503600D03*
X114223800Y-46003600D03*
%TD*%
%TO.C,SW3*%
X107723800Y-49631600D03*
X107723800Y-54131600D03*
X114223800Y-49631600D03*
X114223800Y-54131600D03*
%TD*%
%TO.C,SW4*%
X114196000Y-62513600D03*
X114196000Y-58013600D03*
X107696000Y-62513600D03*
X107696000Y-58013600D03*
%TD*%
%TO.C,SW5*%
X114223800Y-70895600D03*
X114223800Y-66395600D03*
X107723800Y-70895600D03*
X107723800Y-66395600D03*
%TD*%
%TO.C,SW6*%
X107573800Y-74523600D03*
X107573800Y-79023600D03*
X114073800Y-74523600D03*
X114073800Y-79023600D03*
%TD*%
%TO.C,SW7*%
X107723800Y-82905600D03*
X107723800Y-87405600D03*
X114223800Y-82905600D03*
X114223800Y-87405600D03*
%TD*%
%TO.C,SW8*%
X114223800Y-95533600D03*
X114223800Y-91033600D03*
X107723800Y-95533600D03*
X107723800Y-91033600D03*
%TD*%
%TO.C,SW9*%
X122051800Y-33121600D03*
X122051800Y-37621600D03*
X128551800Y-33121600D03*
X128551800Y-37621600D03*
%TD*%
%TO.C,SW11*%
X128551800Y-54131600D03*
X128551800Y-49631600D03*
X122051800Y-54131600D03*
X122051800Y-49631600D03*
%TD*%
%TO.C,SW12*%
X128551800Y-62513600D03*
X128551800Y-58013600D03*
X122051800Y-62513600D03*
X122051800Y-58013600D03*
%TD*%
%TO.C,SW14*%
X122051800Y-74523600D03*
X122051800Y-79023600D03*
X128551800Y-74523600D03*
X128551800Y-79023600D03*
%TD*%
%TO.C,SW15*%
X128551800Y-87405600D03*
X128551800Y-82905600D03*
X122051800Y-87405600D03*
X122051800Y-82905600D03*
%TD*%
%TO.C,SW18*%
X143179800Y-46003600D03*
X143179800Y-41503600D03*
X136679800Y-46003600D03*
X136679800Y-41503600D03*
%TD*%
%TO.C,SW19*%
X136679800Y-49631600D03*
X136679800Y-54131600D03*
X143179800Y-49631600D03*
X143179800Y-54131600D03*
%TD*%
%TO.C,SW20*%
X143179800Y-62513600D03*
X143179800Y-58013600D03*
X136679800Y-62513600D03*
X136679800Y-58013600D03*
%TD*%
%TO.C,SW21*%
X136679800Y-66395600D03*
X136679800Y-70895600D03*
X143179800Y-66395600D03*
X143179800Y-70895600D03*
%TD*%
%TO.C,SW22*%
X136679800Y-74523600D03*
X136679800Y-79023600D03*
X143179800Y-74523600D03*
X143179800Y-79023600D03*
%TD*%
%TO.C,SW23*%
X143179800Y-87405600D03*
X143179800Y-82905600D03*
X136679800Y-87405600D03*
X136679800Y-82905600D03*
%TD*%
%TO.C,SW24*%
X136679800Y-91033600D03*
X136679800Y-95533600D03*
X143179800Y-91033600D03*
X143179800Y-95533600D03*
%TD*%
%TO.C,SW26*%
X151157800Y-41503600D03*
X151157800Y-46003600D03*
X157657800Y-41503600D03*
X157657800Y-46003600D03*
%TD*%
%TO.C,SW27*%
X157657800Y-54131600D03*
X157657800Y-49631600D03*
X151157800Y-54131600D03*
X151157800Y-49631600D03*
%TD*%
%TO.C,SW28*%
X151157800Y-58013600D03*
X151157800Y-62513600D03*
X157657800Y-58013600D03*
X157657800Y-62513600D03*
%TD*%
%TO.C,SW29*%
X157657800Y-70895600D03*
X157657800Y-66395600D03*
X151157800Y-70895600D03*
X151157800Y-66395600D03*
%TD*%
%TO.C,SW30*%
X157657800Y-79023600D03*
X157657800Y-74523600D03*
X151157800Y-79023600D03*
X151157800Y-74523600D03*
%TD*%
%TO.C,SW31*%
X151157800Y-82905600D03*
X151157800Y-87405600D03*
X157657800Y-82905600D03*
X157657800Y-87405600D03*
%TD*%
%TO.C,SW32*%
X151157800Y-91033600D03*
X151157800Y-95533600D03*
X157657800Y-91033600D03*
X157657800Y-95533600D03*
%TD*%
%TO.C,SW33*%
X165635800Y-33121600D03*
X165635800Y-37621600D03*
X172135800Y-33121600D03*
X172135800Y-37621600D03*
%TD*%
%TO.C,SW34*%
X165610400Y-41524800D03*
X165610400Y-46024800D03*
X172110400Y-41524800D03*
X172110400Y-46024800D03*
%TD*%
%TO.C,SW35*%
X172110400Y-54131600D03*
X172110400Y-49631600D03*
X165610400Y-54131600D03*
X165610400Y-49631600D03*
%TD*%
%TO.C,SW36*%
X172135800Y-62585600D03*
X172135800Y-58085600D03*
X165635800Y-62585600D03*
X165635800Y-58085600D03*
%TD*%
%TO.C,SW37*%
X165635800Y-66395600D03*
X165635800Y-70895600D03*
X172135800Y-66395600D03*
X172135800Y-70895600D03*
%TD*%
%TO.C,SW38*%
X165635800Y-74523600D03*
X165635800Y-79023600D03*
X172135800Y-74523600D03*
X172135800Y-79023600D03*
%TD*%
%TO.C,SW39*%
X172135800Y-87405600D03*
X172135800Y-82905600D03*
X165635800Y-87405600D03*
X165635800Y-82905600D03*
%TD*%
%TO.C,SW40*%
X172135800Y-95533600D03*
X172135800Y-91033600D03*
X165635800Y-95533600D03*
X165635800Y-91033600D03*
%TD*%
%TO.C,SW41*%
X186613800Y-37621600D03*
X186613800Y-33121600D03*
X180113800Y-37621600D03*
X180113800Y-33121600D03*
%TD*%
%TO.C,SW42*%
X180113800Y-41503600D03*
X180113800Y-46003600D03*
X186613800Y-41503600D03*
X186613800Y-46003600D03*
%TD*%
%TO.C,SW43*%
X186613800Y-54131600D03*
X186613800Y-49631600D03*
X180113800Y-54131600D03*
X180113800Y-49631600D03*
%TD*%
%TO.C,SW44*%
X186613800Y-62513600D03*
X186613800Y-58013600D03*
X180113800Y-62513600D03*
X180113800Y-58013600D03*
%TD*%
%TO.C,SW45*%
X186613800Y-70895600D03*
X186613800Y-66395600D03*
X180113800Y-70895600D03*
X180113800Y-66395600D03*
%TD*%
%TO.C,SW46*%
X186613800Y-79023600D03*
X186613800Y-74523600D03*
X180113800Y-79023600D03*
X180113800Y-74523600D03*
%TD*%
%TO.C,SW47*%
X180113800Y-82905600D03*
X180113800Y-87405600D03*
X186613800Y-82905600D03*
X186613800Y-87405600D03*
%TD*%
%TO.C,SW48*%
X180086000Y-91033600D03*
X180086000Y-95533600D03*
X186586000Y-91033600D03*
X186586000Y-95533600D03*
%TD*%
%TO.C,SW50*%
X201091800Y-46003600D03*
X201091800Y-41503600D03*
X194591800Y-46003600D03*
X194591800Y-41503600D03*
%TD*%
%TO.C,SW51*%
X194591800Y-49631600D03*
X194591800Y-54131600D03*
X201091800Y-49631600D03*
X201091800Y-54131600D03*
%TD*%
%TO.C,SW52*%
X194591800Y-58013600D03*
X194591800Y-62513600D03*
X201091800Y-58013600D03*
X201091800Y-62513600D03*
%TD*%
%TO.C,SW53*%
X194591800Y-66395600D03*
X194591800Y-70895600D03*
X201091800Y-66395600D03*
X201091800Y-70895600D03*
%TD*%
%TO.C,SW54*%
X194591800Y-74523600D03*
X194591800Y-79023600D03*
X201091800Y-74523600D03*
X201091800Y-79023600D03*
%TD*%
%TO.C,SW55*%
X201091800Y-87405600D03*
X201091800Y-82905600D03*
X194591800Y-87405600D03*
X194591800Y-82905600D03*
%TD*%
%TO.C,SW56*%
X201091800Y-95533600D03*
X201091800Y-91033600D03*
X194591800Y-95533600D03*
X194591800Y-91033600D03*
%TD*%
%TO.C,SW57*%
X215569800Y-37621600D03*
X215569800Y-33121600D03*
X209069800Y-37621600D03*
X209069800Y-33121600D03*
%TD*%
%TO.C,SW59*%
X215542000Y-54131600D03*
X215542000Y-49631600D03*
X209042000Y-54131600D03*
X209042000Y-49631600D03*
%TD*%
%TO.C,SW60*%
X215569800Y-62513600D03*
X215569800Y-58013600D03*
X209069800Y-62513600D03*
X209069800Y-58013600D03*
%TD*%
%TO.C,SW61*%
X215569800Y-70895600D03*
X215569800Y-66395600D03*
X209069800Y-70895600D03*
X209069800Y-66395600D03*
%TD*%
%TO.C,SW62*%
X215569800Y-79023600D03*
X215569800Y-74523600D03*
X209069800Y-79023600D03*
X209069800Y-74523600D03*
%TD*%
%TO.C,SW63*%
X209069800Y-82905600D03*
X209069800Y-87405600D03*
X215569800Y-82905600D03*
X215569800Y-87405600D03*
%TD*%
%TO.C,SW64*%
X209044400Y-91033600D03*
X209044400Y-95533600D03*
X215544400Y-91033600D03*
X215544400Y-95533600D03*
%TD*%
%TO.C,SW65*%
X76533600Y-112899200D03*
X76533600Y-107899200D03*
D22*
X83533600Y-115999200D03*
X83533600Y-104799200D03*
D11*
X91033600Y-112899200D03*
X91033600Y-110399200D03*
D23*
X91033600Y-107899200D03*
%TD*%
%TO.C,SW66*%
X64566800Y-107797600D03*
D11*
X64566800Y-110297600D03*
X64566800Y-112797600D03*
D22*
X57066800Y-104697600D03*
X57066800Y-115897600D03*
D11*
X50066800Y-107797600D03*
X50066800Y-112797600D03*
%TD*%
%TO.C,SW67*%
X76606400Y-93950800D03*
X76606400Y-88950800D03*
D22*
X83606400Y-97050800D03*
X83606400Y-85850800D03*
D11*
X91106400Y-93950800D03*
X91106400Y-91450800D03*
D23*
X91106400Y-88950800D03*
%TD*%
%TO.C,SW68*%
X64668400Y-88850400D03*
D11*
X64668400Y-91350400D03*
X64668400Y-93850400D03*
D22*
X57168400Y-85750400D03*
X57168400Y-96950400D03*
D11*
X50168400Y-88850400D03*
X50168400Y-93850400D03*
%TD*%
%TO.C,SW69*%
X43208800Y-74523600D03*
X43208800Y-69523600D03*
D22*
X50208800Y-77623600D03*
X50208800Y-66423600D03*
D11*
X57708800Y-74523600D03*
X57708800Y-72023600D03*
D23*
X57708800Y-69523600D03*
%TD*%
D11*
%TO.C,SW70*%
X68986400Y-70997200D03*
X68986400Y-66497200D03*
X62486400Y-70997200D03*
X62486400Y-66497200D03*
%TD*%
%TO.C,SW71*%
X85087600Y-70967600D03*
X85087600Y-66467600D03*
X78587600Y-70967600D03*
X78587600Y-66467600D03*
%TD*%
%TO.C,SW72*%
X62486400Y-74726800D03*
X62486400Y-79226800D03*
X68986400Y-74726800D03*
X68986400Y-79226800D03*
%TD*%
%TO.C,SW73*%
X78587600Y-74697200D03*
X78587600Y-79197200D03*
X85087600Y-74697200D03*
X85087600Y-79197200D03*
%TD*%
%TO.C,SW74*%
X42522000Y-121310400D03*
X42522000Y-125810400D03*
X49022000Y-121310400D03*
X49022000Y-125810400D03*
%TD*%
%TO.C,SW75*%
X63246000Y-125810400D03*
X63246000Y-121310400D03*
X56746000Y-125810400D03*
X56746000Y-121310400D03*
%TD*%
%TO.C,SW76*%
X70716000Y-121310400D03*
X70716000Y-125810400D03*
X77216000Y-121310400D03*
X77216000Y-125810400D03*
%TD*%
%TO.C,SW77*%
X91135200Y-125780800D03*
X91135200Y-121280800D03*
X84635200Y-125780800D03*
X84635200Y-121280800D03*
%TD*%
D24*
%TO.C,U7*%
X46434000Y-91490800D03*
X43434000Y-91490800D03*
X35234000Y-91490800D03*
%TD*%
%TO.C,U10*%
X240000400Y-41198800D03*
X231800400Y-41198800D03*
X228800400Y-41198800D03*
%TD*%
%TO.C,U11*%
X228830000Y-62026800D03*
X231830000Y-62026800D03*
X240030000Y-62026800D03*
%TD*%
%TO.C,U12*%
X240000400Y-82854800D03*
X231800400Y-82854800D03*
X228800400Y-82854800D03*
%TD*%
%TO.C,U13*%
X228800400Y-103682800D03*
X231800400Y-103682800D03*
X240000400Y-103682800D03*
%TD*%
%TO.C,U14*%
X240000400Y-51663600D03*
X231800400Y-51663600D03*
X228800400Y-51663600D03*
%TD*%
%TO.C,U15*%
X240000400Y-72440800D03*
X231800400Y-72440800D03*
X228800400Y-72440800D03*
%TD*%
%TO.C,U16*%
X240000400Y-93218000D03*
X231800400Y-93218000D03*
X228800400Y-93218000D03*
%TD*%
%TO.C,U17*%
X228800400Y-114147600D03*
X231800400Y-114147600D03*
X240000400Y-114147600D03*
%TD*%
D11*
%TO.C,SW17*%
X136679800Y-33121600D03*
X136679800Y-37621600D03*
X143179800Y-33121600D03*
X143179800Y-37621600D03*
%TD*%
M02*
