%TF.GenerationSoftware,KiCad,Pcbnew,(5.1.10)-1*%
%TF.CreationDate,2021-10-30T12:18:14-04:00*%
%TF.ProjectId,Control Board,436f6e74-726f-46c2-9042-6f6172642e6b,rev?*%
%TF.SameCoordinates,Original*%
%TF.FileFunction,Soldermask,Top*%
%TF.FilePolarity,Negative*%
%FSLAX46Y46*%
G04 Gerber Fmt 4.6, Leading zero omitted, Abs format (unit mm)*
G04 Created by KiCad (PCBNEW (5.1.10)-1) date 2021-10-30 12:18:14*
%MOMM*%
%LPD*%
G01*
G04 APERTURE LIST*
%ADD10C,3.200000*%
%ADD11C,2.000000*%
%ADD12R,1.800000X1.800000*%
%ADD13C,1.800000*%
%ADD14C,1.200000*%
%ADD15O,2.000000X1.700000*%
%ADD16R,1.700000X1.700000*%
%ADD17O,1.700000X1.700000*%
%ADD18O,1.050000X1.500000*%
%ADD19R,1.050000X1.500000*%
%ADD20R,1.400000X1.400000*%
%ADD21C,1.400000*%
%ADD22R,3.200000X2.000000*%
%ADD23R,2.000000X2.000000*%
%ADD24O,2.500000X4.000000*%
G04 APERTURE END LIST*
D10*
%TO.C,REF\u002A\u002A*%
X102057200Y-58369200D03*
%TD*%
%TO.C,R94*%
G36*
G01*
X236586000Y-109400500D02*
X236586000Y-108150500D01*
G75*
G02*
X236836000Y-107900500I250000J0D01*
G01*
X237636000Y-107900500D01*
G75*
G02*
X237886000Y-108150500I0J-250000D01*
G01*
X237886000Y-109400500D01*
G75*
G02*
X237636000Y-109650500I-250000J0D01*
G01*
X236836000Y-109650500D01*
G75*
G02*
X236586000Y-109400500I0J250000D01*
G01*
G37*
G36*
G01*
X233486000Y-109400500D02*
X233486000Y-108150500D01*
G75*
G02*
X233736000Y-107900500I250000J0D01*
G01*
X234536000Y-107900500D01*
G75*
G02*
X234786000Y-108150500I0J-250000D01*
G01*
X234786000Y-109400500D01*
G75*
G02*
X234536000Y-109650500I-250000J0D01*
G01*
X233736000Y-109650500D01*
G75*
G02*
X233486000Y-109400500I0J250000D01*
G01*
G37*
%TD*%
%TO.C,R34*%
G36*
G01*
X37271800Y-115073600D02*
X38521800Y-115073600D01*
G75*
G02*
X38771800Y-115323600I0J-250000D01*
G01*
X38771800Y-116123600D01*
G75*
G02*
X38521800Y-116373600I-250000J0D01*
G01*
X37271800Y-116373600D01*
G75*
G02*
X37021800Y-116123600I0J250000D01*
G01*
X37021800Y-115323600D01*
G75*
G02*
X37271800Y-115073600I250000J0D01*
G01*
G37*
G36*
G01*
X37271800Y-111973600D02*
X38521800Y-111973600D01*
G75*
G02*
X38771800Y-112223600I0J-250000D01*
G01*
X38771800Y-113023600D01*
G75*
G02*
X38521800Y-113273600I-250000J0D01*
G01*
X37271800Y-113273600D01*
G75*
G02*
X37021800Y-113023600I0J250000D01*
G01*
X37021800Y-112223600D01*
G75*
G02*
X37271800Y-111973600I250000J0D01*
G01*
G37*
%TD*%
%TO.C,R50*%
G36*
G01*
X124095200Y-121599800D02*
X124095200Y-122849800D01*
G75*
G02*
X123845200Y-123099800I-250000J0D01*
G01*
X123045200Y-123099800D01*
G75*
G02*
X122795200Y-122849800I0J250000D01*
G01*
X122795200Y-121599800D01*
G75*
G02*
X123045200Y-121349800I250000J0D01*
G01*
X123845200Y-121349800D01*
G75*
G02*
X124095200Y-121599800I0J-250000D01*
G01*
G37*
G36*
G01*
X120995200Y-121599800D02*
X120995200Y-122849800D01*
G75*
G02*
X120745200Y-123099800I-250000J0D01*
G01*
X119945200Y-123099800D01*
G75*
G02*
X119695200Y-122849800I0J250000D01*
G01*
X119695200Y-121599800D01*
G75*
G02*
X119945200Y-121349800I250000J0D01*
G01*
X120745200Y-121349800D01*
G75*
G02*
X120995200Y-121599800I0J-250000D01*
G01*
G37*
%TD*%
%TO.C,R47*%
G36*
G01*
X103874400Y-121599800D02*
X103874400Y-122849800D01*
G75*
G02*
X103624400Y-123099800I-250000J0D01*
G01*
X102824400Y-123099800D01*
G75*
G02*
X102574400Y-122849800I0J250000D01*
G01*
X102574400Y-121599800D01*
G75*
G02*
X102824400Y-121349800I250000J0D01*
G01*
X103624400Y-121349800D01*
G75*
G02*
X103874400Y-121599800I0J-250000D01*
G01*
G37*
G36*
G01*
X106974400Y-121599800D02*
X106974400Y-122849800D01*
G75*
G02*
X106724400Y-123099800I-250000J0D01*
G01*
X105924400Y-123099800D01*
G75*
G02*
X105674400Y-122849800I0J250000D01*
G01*
X105674400Y-121599800D01*
G75*
G02*
X105924400Y-121349800I250000J0D01*
G01*
X106724400Y-121349800D01*
G75*
G02*
X106974400Y-121599800I0J-250000D01*
G01*
G37*
%TD*%
%TO.C,R48*%
G36*
G01*
X109616000Y-121599800D02*
X109616000Y-122849800D01*
G75*
G02*
X109366000Y-123099800I-250000J0D01*
G01*
X108566000Y-123099800D01*
G75*
G02*
X108316000Y-122849800I0J250000D01*
G01*
X108316000Y-121599800D01*
G75*
G02*
X108566000Y-121349800I250000J0D01*
G01*
X109366000Y-121349800D01*
G75*
G02*
X109616000Y-121599800I0J-250000D01*
G01*
G37*
G36*
G01*
X112716000Y-121599800D02*
X112716000Y-122849800D01*
G75*
G02*
X112466000Y-123099800I-250000J0D01*
G01*
X111666000Y-123099800D01*
G75*
G02*
X111416000Y-122849800I0J250000D01*
G01*
X111416000Y-121599800D01*
G75*
G02*
X111666000Y-121349800I250000J0D01*
G01*
X112466000Y-121349800D01*
G75*
G02*
X112716000Y-121599800I0J-250000D01*
G01*
G37*
%TD*%
%TO.C,R49*%
G36*
G01*
X115356400Y-121599800D02*
X115356400Y-122849800D01*
G75*
G02*
X115106400Y-123099800I-250000J0D01*
G01*
X114306400Y-123099800D01*
G75*
G02*
X114056400Y-122849800I0J250000D01*
G01*
X114056400Y-121599800D01*
G75*
G02*
X114306400Y-121349800I250000J0D01*
G01*
X115106400Y-121349800D01*
G75*
G02*
X115356400Y-121599800I0J-250000D01*
G01*
G37*
G36*
G01*
X118456400Y-121599800D02*
X118456400Y-122849800D01*
G75*
G02*
X118206400Y-123099800I-250000J0D01*
G01*
X117406400Y-123099800D01*
G75*
G02*
X117156400Y-122849800I0J250000D01*
G01*
X117156400Y-121599800D01*
G75*
G02*
X117406400Y-121349800I250000J0D01*
G01*
X118206400Y-121349800D01*
G75*
G02*
X118456400Y-121599800I0J-250000D01*
G01*
G37*
%TD*%
%TO.C,R63*%
G36*
G01*
X105751200Y-125542200D02*
X105751200Y-124292200D01*
G75*
G02*
X106001200Y-124042200I250000J0D01*
G01*
X106801200Y-124042200D01*
G75*
G02*
X107051200Y-124292200I0J-250000D01*
G01*
X107051200Y-125542200D01*
G75*
G02*
X106801200Y-125792200I-250000J0D01*
G01*
X106001200Y-125792200D01*
G75*
G02*
X105751200Y-125542200I0J250000D01*
G01*
G37*
G36*
G01*
X102651200Y-125542200D02*
X102651200Y-124292200D01*
G75*
G02*
X102901200Y-124042200I250000J0D01*
G01*
X103701200Y-124042200D01*
G75*
G02*
X103951200Y-124292200I0J-250000D01*
G01*
X103951200Y-125542200D01*
G75*
G02*
X103701200Y-125792200I-250000J0D01*
G01*
X102901200Y-125792200D01*
G75*
G02*
X102651200Y-125542200I0J250000D01*
G01*
G37*
%TD*%
%TO.C,R64*%
G36*
G01*
X108365600Y-125593000D02*
X108365600Y-124343000D01*
G75*
G02*
X108615600Y-124093000I250000J0D01*
G01*
X109415600Y-124093000D01*
G75*
G02*
X109665600Y-124343000I0J-250000D01*
G01*
X109665600Y-125593000D01*
G75*
G02*
X109415600Y-125843000I-250000J0D01*
G01*
X108615600Y-125843000D01*
G75*
G02*
X108365600Y-125593000I0J250000D01*
G01*
G37*
G36*
G01*
X111465600Y-125593000D02*
X111465600Y-124343000D01*
G75*
G02*
X111715600Y-124093000I250000J0D01*
G01*
X112515600Y-124093000D01*
G75*
G02*
X112765600Y-124343000I0J-250000D01*
G01*
X112765600Y-125593000D01*
G75*
G02*
X112515600Y-125843000I-250000J0D01*
G01*
X111715600Y-125843000D01*
G75*
G02*
X111465600Y-125593000I0J250000D01*
G01*
G37*
%TD*%
%TO.C,R65*%
G36*
G01*
X117206000Y-125593000D02*
X117206000Y-124343000D01*
G75*
G02*
X117456000Y-124093000I250000J0D01*
G01*
X118256000Y-124093000D01*
G75*
G02*
X118506000Y-124343000I0J-250000D01*
G01*
X118506000Y-125593000D01*
G75*
G02*
X118256000Y-125843000I-250000J0D01*
G01*
X117456000Y-125843000D01*
G75*
G02*
X117206000Y-125593000I0J250000D01*
G01*
G37*
G36*
G01*
X114106000Y-125593000D02*
X114106000Y-124343000D01*
G75*
G02*
X114356000Y-124093000I250000J0D01*
G01*
X115156000Y-124093000D01*
G75*
G02*
X115406000Y-124343000I0J-250000D01*
G01*
X115406000Y-125593000D01*
G75*
G02*
X115156000Y-125843000I-250000J0D01*
G01*
X114356000Y-125843000D01*
G75*
G02*
X114106000Y-125593000I0J250000D01*
G01*
G37*
%TD*%
%TO.C,R66*%
G36*
G01*
X119694000Y-125542200D02*
X119694000Y-124292200D01*
G75*
G02*
X119944000Y-124042200I250000J0D01*
G01*
X120744000Y-124042200D01*
G75*
G02*
X120994000Y-124292200I0J-250000D01*
G01*
X120994000Y-125542200D01*
G75*
G02*
X120744000Y-125792200I-250000J0D01*
G01*
X119944000Y-125792200D01*
G75*
G02*
X119694000Y-125542200I0J250000D01*
G01*
G37*
G36*
G01*
X122794000Y-125542200D02*
X122794000Y-124292200D01*
G75*
G02*
X123044000Y-124042200I250000J0D01*
G01*
X123844000Y-124042200D01*
G75*
G02*
X124094000Y-124292200I0J-250000D01*
G01*
X124094000Y-125542200D01*
G75*
G02*
X123844000Y-125792200I-250000J0D01*
G01*
X123044000Y-125792200D01*
G75*
G02*
X122794000Y-125542200I0J250000D01*
G01*
G37*
%TD*%
%TO.C,REF\u002A\u002A*%
X239268000Y-31623000D03*
%TD*%
%TO.C,REF\u002A\u002A*%
X36526800Y-64516000D03*
%TD*%
%TO.C,REF\u002A\u002A*%
X36603000Y-124306000D03*
%TD*%
%TO.C,REF\u002A\u002A*%
X239217200Y-124104400D03*
%TD*%
D11*
%TO.C,SW16*%
X122051800Y-91033600D03*
X122051800Y-95533600D03*
X128551800Y-91033600D03*
X128551800Y-95533600D03*
%TD*%
%TO.C,SW49*%
X194591800Y-33121600D03*
X194591800Y-37621600D03*
X201091800Y-33121600D03*
X201091800Y-37621600D03*
%TD*%
%TO.C,SW58*%
X209044400Y-41503600D03*
X209044400Y-46003600D03*
X215544400Y-41503600D03*
X215544400Y-46003600D03*
%TD*%
%TO.C,SW10*%
X128551800Y-46003600D03*
X128551800Y-41503600D03*
X122051800Y-46003600D03*
X122051800Y-41503600D03*
%TD*%
%TO.C,SW13*%
X128551800Y-70895600D03*
X128551800Y-66395600D03*
X122051800Y-70895600D03*
X122051800Y-66395600D03*
%TD*%
D12*
%TO.C,D45*%
X147091400Y-71221600D03*
D13*
X147091400Y-68681600D03*
X147091400Y-66141600D03*
%TD*%
D11*
%TO.C,SW25*%
X157657800Y-37621600D03*
X157657800Y-33121600D03*
X151157800Y-37621600D03*
X151157800Y-33121600D03*
%TD*%
%TO.C,C1*%
G36*
G01*
X50563800Y-75894900D02*
X49613800Y-75894900D01*
G75*
G02*
X49363800Y-75644900I0J250000D01*
G01*
X49363800Y-75144900D01*
G75*
G02*
X49613800Y-74894900I250000J0D01*
G01*
X50563800Y-74894900D01*
G75*
G02*
X50813800Y-75144900I0J-250000D01*
G01*
X50813800Y-75644900D01*
G75*
G02*
X50563800Y-75894900I-250000J0D01*
G01*
G37*
G36*
G01*
X50563800Y-73994900D02*
X49613800Y-73994900D01*
G75*
G02*
X49363800Y-73744900I0J250000D01*
G01*
X49363800Y-73244900D01*
G75*
G02*
X49613800Y-72994900I250000J0D01*
G01*
X50563800Y-72994900D01*
G75*
G02*
X50813800Y-73244900I0J-250000D01*
G01*
X50813800Y-73744900D01*
G75*
G02*
X50563800Y-73994900I-250000J0D01*
G01*
G37*
%TD*%
%TO.C,C2*%
G36*
G01*
X49613800Y-70068900D02*
X50563800Y-70068900D01*
G75*
G02*
X50813800Y-70318900I0J-250000D01*
G01*
X50813800Y-70818900D01*
G75*
G02*
X50563800Y-71068900I-250000J0D01*
G01*
X49613800Y-71068900D01*
G75*
G02*
X49363800Y-70818900I0J250000D01*
G01*
X49363800Y-70318900D01*
G75*
G02*
X49613800Y-70068900I250000J0D01*
G01*
G37*
G36*
G01*
X49613800Y-68168900D02*
X50563800Y-68168900D01*
G75*
G02*
X50813800Y-68418900I0J-250000D01*
G01*
X50813800Y-68918900D01*
G75*
G02*
X50563800Y-69168900I-250000J0D01*
G01*
X49613800Y-69168900D01*
G75*
G02*
X49363800Y-68918900I0J250000D01*
G01*
X49363800Y-68418900D01*
G75*
G02*
X49613800Y-68168900I250000J0D01*
G01*
G37*
%TD*%
%TO.C,C3*%
G36*
G01*
X57650400Y-95300500D02*
X56700400Y-95300500D01*
G75*
G02*
X56450400Y-95050500I0J250000D01*
G01*
X56450400Y-94550500D01*
G75*
G02*
X56700400Y-94300500I250000J0D01*
G01*
X57650400Y-94300500D01*
G75*
G02*
X57900400Y-94550500I0J-250000D01*
G01*
X57900400Y-95050500D01*
G75*
G02*
X57650400Y-95300500I-250000J0D01*
G01*
G37*
G36*
G01*
X57650400Y-93400500D02*
X56700400Y-93400500D01*
G75*
G02*
X56450400Y-93150500I0J250000D01*
G01*
X56450400Y-92650500D01*
G75*
G02*
X56700400Y-92400500I250000J0D01*
G01*
X57650400Y-92400500D01*
G75*
G02*
X57900400Y-92650500I0J-250000D01*
G01*
X57900400Y-93150500D01*
G75*
G02*
X57650400Y-93400500I-250000J0D01*
G01*
G37*
%TD*%
%TO.C,C4*%
G36*
G01*
X56700400Y-89225500D02*
X57650400Y-89225500D01*
G75*
G02*
X57900400Y-89475500I0J-250000D01*
G01*
X57900400Y-89975500D01*
G75*
G02*
X57650400Y-90225500I-250000J0D01*
G01*
X56700400Y-90225500D01*
G75*
G02*
X56450400Y-89975500I0J250000D01*
G01*
X56450400Y-89475500D01*
G75*
G02*
X56700400Y-89225500I250000J0D01*
G01*
G37*
G36*
G01*
X56700400Y-87325500D02*
X57650400Y-87325500D01*
G75*
G02*
X57900400Y-87575500I0J-250000D01*
G01*
X57900400Y-88075500D01*
G75*
G02*
X57650400Y-88325500I-250000J0D01*
G01*
X56700400Y-88325500D01*
G75*
G02*
X56450400Y-88075500I0J250000D01*
G01*
X56450400Y-87575500D01*
G75*
G02*
X56700400Y-87325500I250000J0D01*
G01*
G37*
%TD*%
%TO.C,C5*%
G36*
G01*
X84117200Y-95338600D02*
X83167200Y-95338600D01*
G75*
G02*
X82917200Y-95088600I0J250000D01*
G01*
X82917200Y-94588600D01*
G75*
G02*
X83167200Y-94338600I250000J0D01*
G01*
X84117200Y-94338600D01*
G75*
G02*
X84367200Y-94588600I0J-250000D01*
G01*
X84367200Y-95088600D01*
G75*
G02*
X84117200Y-95338600I-250000J0D01*
G01*
G37*
G36*
G01*
X84117200Y-93438600D02*
X83167200Y-93438600D01*
G75*
G02*
X82917200Y-93188600I0J250000D01*
G01*
X82917200Y-92688600D01*
G75*
G02*
X83167200Y-92438600I250000J0D01*
G01*
X84117200Y-92438600D01*
G75*
G02*
X84367200Y-92688600I0J-250000D01*
G01*
X84367200Y-93188600D01*
G75*
G02*
X84117200Y-93438600I-250000J0D01*
G01*
G37*
%TD*%
%TO.C,C6*%
G36*
G01*
X83167200Y-89385600D02*
X84117200Y-89385600D01*
G75*
G02*
X84367200Y-89635600I0J-250000D01*
G01*
X84367200Y-90135600D01*
G75*
G02*
X84117200Y-90385600I-250000J0D01*
G01*
X83167200Y-90385600D01*
G75*
G02*
X82917200Y-90135600I0J250000D01*
G01*
X82917200Y-89635600D01*
G75*
G02*
X83167200Y-89385600I250000J0D01*
G01*
G37*
G36*
G01*
X83167200Y-87485600D02*
X84117200Y-87485600D01*
G75*
G02*
X84367200Y-87735600I0J-250000D01*
G01*
X84367200Y-88235600D01*
G75*
G02*
X84117200Y-88485600I-250000J0D01*
G01*
X83167200Y-88485600D01*
G75*
G02*
X82917200Y-88235600I0J250000D01*
G01*
X82917200Y-87735600D01*
G75*
G02*
X83167200Y-87485600I250000J0D01*
G01*
G37*
%TD*%
%TO.C,C7*%
G36*
G01*
X57523400Y-114160000D02*
X56573400Y-114160000D01*
G75*
G02*
X56323400Y-113910000I0J250000D01*
G01*
X56323400Y-113410000D01*
G75*
G02*
X56573400Y-113160000I250000J0D01*
G01*
X57523400Y-113160000D01*
G75*
G02*
X57773400Y-113410000I0J-250000D01*
G01*
X57773400Y-113910000D01*
G75*
G02*
X57523400Y-114160000I-250000J0D01*
G01*
G37*
G36*
G01*
X57523400Y-112260000D02*
X56573400Y-112260000D01*
G75*
G02*
X56323400Y-112010000I0J250000D01*
G01*
X56323400Y-111510000D01*
G75*
G02*
X56573400Y-111260000I250000J0D01*
G01*
X57523400Y-111260000D01*
G75*
G02*
X57773400Y-111510000I0J-250000D01*
G01*
X57773400Y-112010000D01*
G75*
G02*
X57523400Y-112260000I-250000J0D01*
G01*
G37*
%TD*%
%TO.C,C8*%
G36*
G01*
X56573400Y-108212000D02*
X57523400Y-108212000D01*
G75*
G02*
X57773400Y-108462000I0J-250000D01*
G01*
X57773400Y-108962000D01*
G75*
G02*
X57523400Y-109212000I-250000J0D01*
G01*
X56573400Y-109212000D01*
G75*
G02*
X56323400Y-108962000I0J250000D01*
G01*
X56323400Y-108462000D01*
G75*
G02*
X56573400Y-108212000I250000J0D01*
G01*
G37*
G36*
G01*
X56573400Y-106312000D02*
X57523400Y-106312000D01*
G75*
G02*
X57773400Y-106562000I0J-250000D01*
G01*
X57773400Y-107062000D01*
G75*
G02*
X57523400Y-107312000I-250000J0D01*
G01*
X56573400Y-107312000D01*
G75*
G02*
X56323400Y-107062000I0J250000D01*
G01*
X56323400Y-106562000D01*
G75*
G02*
X56573400Y-106312000I250000J0D01*
G01*
G37*
%TD*%
%TO.C,C9*%
G36*
G01*
X84053700Y-114340300D02*
X83103700Y-114340300D01*
G75*
G02*
X82853700Y-114090300I0J250000D01*
G01*
X82853700Y-113590300D01*
G75*
G02*
X83103700Y-113340300I250000J0D01*
G01*
X84053700Y-113340300D01*
G75*
G02*
X84303700Y-113590300I0J-250000D01*
G01*
X84303700Y-114090300D01*
G75*
G02*
X84053700Y-114340300I-250000J0D01*
G01*
G37*
G36*
G01*
X84053700Y-112440300D02*
X83103700Y-112440300D01*
G75*
G02*
X82853700Y-112190300I0J250000D01*
G01*
X82853700Y-111690300D01*
G75*
G02*
X83103700Y-111440300I250000J0D01*
G01*
X84053700Y-111440300D01*
G75*
G02*
X84303700Y-111690300I0J-250000D01*
G01*
X84303700Y-112190300D01*
G75*
G02*
X84053700Y-112440300I-250000J0D01*
G01*
G37*
%TD*%
%TO.C,C10*%
G36*
G01*
X83103700Y-108326300D02*
X84053700Y-108326300D01*
G75*
G02*
X84303700Y-108576300I0J-250000D01*
G01*
X84303700Y-109076300D01*
G75*
G02*
X84053700Y-109326300I-250000J0D01*
G01*
X83103700Y-109326300D01*
G75*
G02*
X82853700Y-109076300I0J250000D01*
G01*
X82853700Y-108576300D01*
G75*
G02*
X83103700Y-108326300I250000J0D01*
G01*
G37*
G36*
G01*
X83103700Y-106426300D02*
X84053700Y-106426300D01*
G75*
G02*
X84303700Y-106676300I0J-250000D01*
G01*
X84303700Y-107176300D01*
G75*
G02*
X84053700Y-107426300I-250000J0D01*
G01*
X83103700Y-107426300D01*
G75*
G02*
X82853700Y-107176300I0J250000D01*
G01*
X82853700Y-106676300D01*
G75*
G02*
X83103700Y-106426300I250000J0D01*
G01*
G37*
%TD*%
D12*
%TO.C,D1*%
X176047400Y-37947600D03*
D13*
X176047400Y-35407600D03*
X176047400Y-32867600D03*
%TD*%
D12*
%TO.C,D2*%
X176047400Y-46329600D03*
D13*
X176047400Y-43789600D03*
X176047400Y-41249600D03*
%TD*%
%TO.C,D3*%
X176047400Y-49377600D03*
X176047400Y-51917600D03*
D12*
X176047400Y-54457600D03*
%TD*%
%TO.C,D4*%
X176047400Y-62839600D03*
D13*
X176047400Y-60299600D03*
X176047400Y-57759600D03*
%TD*%
%TO.C,D5*%
X176047400Y-66141600D03*
X176047400Y-68681600D03*
D12*
X176047400Y-71221600D03*
%TD*%
%TO.C,D6*%
X176047400Y-79349600D03*
D13*
X176047400Y-76809600D03*
X176047400Y-74269600D03*
%TD*%
%TO.C,D7*%
X176047400Y-82651600D03*
X176047400Y-85191600D03*
D12*
X176047400Y-87731600D03*
%TD*%
%TO.C,D8*%
X176047400Y-95859600D03*
D13*
X176047400Y-93319600D03*
X176047400Y-90779600D03*
%TD*%
%TO.C,D9*%
X118135400Y-32867600D03*
X118135400Y-35407600D03*
D12*
X118135400Y-37947600D03*
%TD*%
D13*
%TO.C,D10*%
X118135400Y-41249600D03*
X118135400Y-43789600D03*
D12*
X118135400Y-46329600D03*
%TD*%
%TO.C,D11*%
X118135400Y-54457600D03*
D13*
X118135400Y-51917600D03*
X118135400Y-49377600D03*
%TD*%
%TO.C,D12*%
X118135400Y-57759600D03*
X118135400Y-60299600D03*
D12*
X118135400Y-62839600D03*
%TD*%
%TO.C,D13*%
X118135400Y-71221600D03*
D13*
X118135400Y-68681600D03*
X118135400Y-66141600D03*
%TD*%
%TO.C,D14*%
X118135400Y-74269600D03*
X118135400Y-76809600D03*
D12*
X118135400Y-79349600D03*
%TD*%
%TO.C,D15*%
X118135400Y-87731600D03*
D13*
X118135400Y-85191600D03*
X118135400Y-82651600D03*
%TD*%
%TO.C,D16*%
X118135400Y-90779600D03*
X118135400Y-93319600D03*
D12*
X118135400Y-95859600D03*
%TD*%
D13*
%TO.C,D17*%
X190525400Y-32867600D03*
X190525400Y-35407600D03*
D12*
X190525400Y-37947600D03*
%TD*%
%TO.C,D18*%
X190525400Y-46329600D03*
D13*
X190525400Y-43789600D03*
X190525400Y-41249600D03*
%TD*%
D12*
%TO.C,D19*%
X190525400Y-54457600D03*
D13*
X190525400Y-51917600D03*
X190525400Y-49377600D03*
%TD*%
%TO.C,D20*%
X190525400Y-57759600D03*
X190525400Y-60299600D03*
D12*
X190525400Y-62839600D03*
%TD*%
D13*
%TO.C,D21*%
X190525400Y-66141600D03*
X190525400Y-68681600D03*
D12*
X190525400Y-71221600D03*
%TD*%
%TO.C,D22*%
X190525400Y-79349600D03*
D13*
X190525400Y-76809600D03*
X190525400Y-74269600D03*
%TD*%
%TO.C,D23*%
X190525400Y-82651600D03*
X190525400Y-85191600D03*
D12*
X190525400Y-87731600D03*
%TD*%
%TO.C,D24*%
X190525400Y-95859600D03*
D13*
X190525400Y-93319600D03*
X190525400Y-90779600D03*
%TD*%
%TO.C,D25*%
X132613400Y-32867600D03*
X132613400Y-35407600D03*
D12*
X132613400Y-37947600D03*
%TD*%
%TO.C,D26*%
X132613400Y-46329600D03*
D13*
X132613400Y-43789600D03*
X132613400Y-41249600D03*
%TD*%
%TO.C,D27*%
X132613400Y-49377600D03*
X132613400Y-51917600D03*
D12*
X132613400Y-54457600D03*
%TD*%
%TO.C,D28*%
X132613400Y-62839600D03*
D13*
X132613400Y-60299600D03*
X132613400Y-57759600D03*
%TD*%
D12*
%TO.C,D29*%
X132613400Y-71221600D03*
D13*
X132613400Y-68681600D03*
X132613400Y-66141600D03*
%TD*%
%TO.C,D30*%
X132613400Y-74269600D03*
X132613400Y-76809600D03*
D12*
X132613400Y-79349600D03*
%TD*%
%TO.C,D31*%
X132613400Y-87731600D03*
D13*
X132613400Y-85191600D03*
X132613400Y-82651600D03*
%TD*%
%TO.C,D32*%
X132613400Y-90779600D03*
X132613400Y-93319600D03*
D12*
X132613400Y-95859600D03*
%TD*%
D13*
%TO.C,D33*%
X205003400Y-32867600D03*
X205003400Y-35407600D03*
D12*
X205003400Y-37947600D03*
%TD*%
%TO.C,D34*%
X205003400Y-46329600D03*
D13*
X205003400Y-43789600D03*
X205003400Y-41249600D03*
%TD*%
%TO.C,D35*%
X205003400Y-49377600D03*
X205003400Y-51917600D03*
D12*
X205003400Y-54457600D03*
%TD*%
%TO.C,D36*%
X205003400Y-62839600D03*
D13*
X205003400Y-60299600D03*
X205003400Y-57759600D03*
%TD*%
%TO.C,D37*%
X205003400Y-66141600D03*
X205003400Y-68681600D03*
D12*
X205003400Y-71221600D03*
%TD*%
%TO.C,D38*%
X205003400Y-79349600D03*
D13*
X205003400Y-76809600D03*
X205003400Y-74269600D03*
%TD*%
%TO.C,D39*%
X205003400Y-82651600D03*
X205003400Y-85191600D03*
D12*
X205003400Y-87731600D03*
%TD*%
D13*
%TO.C,D40*%
X205003400Y-90779600D03*
X205003400Y-93319600D03*
D12*
X205003400Y-95859600D03*
%TD*%
D13*
%TO.C,D41*%
X147091400Y-32867600D03*
X147091400Y-35407600D03*
D12*
X147091400Y-37947600D03*
%TD*%
%TO.C,D42*%
X147091400Y-46329600D03*
D13*
X147091400Y-43789600D03*
X147091400Y-41249600D03*
%TD*%
%TO.C,D43*%
X147091400Y-49377600D03*
X147091400Y-51917600D03*
D12*
X147091400Y-54457600D03*
%TD*%
%TO.C,D44*%
X147091400Y-62839600D03*
D13*
X147091400Y-60299600D03*
X147091400Y-57759600D03*
%TD*%
%TO.C,D46*%
X147091400Y-74269600D03*
X147091400Y-76809600D03*
D12*
X147091400Y-79349600D03*
%TD*%
%TO.C,D47*%
X147091400Y-87731600D03*
D13*
X147091400Y-85191600D03*
X147091400Y-82651600D03*
%TD*%
%TO.C,D48*%
X147091400Y-90779600D03*
X147091400Y-93319600D03*
D12*
X147091400Y-95859600D03*
%TD*%
D13*
%TO.C,D49*%
X219481400Y-32867600D03*
X219481400Y-35407600D03*
D12*
X219481400Y-37947600D03*
%TD*%
%TO.C,D50*%
X219481400Y-46329600D03*
D13*
X219481400Y-43789600D03*
X219481400Y-41249600D03*
%TD*%
%TO.C,D51*%
X219481400Y-49377600D03*
X219481400Y-51917600D03*
D12*
X219481400Y-54457600D03*
%TD*%
%TO.C,D52*%
X219481400Y-62839600D03*
D13*
X219481400Y-60299600D03*
X219481400Y-57759600D03*
%TD*%
%TO.C,D53*%
X219481400Y-66141600D03*
X219481400Y-68681600D03*
D12*
X219481400Y-71221600D03*
%TD*%
%TO.C,D54*%
X219481400Y-79349600D03*
D13*
X219481400Y-76809600D03*
X219481400Y-74269600D03*
%TD*%
%TO.C,D55*%
X219481400Y-82651600D03*
X219481400Y-85191600D03*
D12*
X219481400Y-87731600D03*
%TD*%
%TO.C,D56*%
X219481400Y-95859600D03*
D13*
X219481400Y-93319600D03*
X219481400Y-90779600D03*
%TD*%
%TO.C,D57*%
X161569400Y-32867600D03*
X161569400Y-35407600D03*
D12*
X161569400Y-37947600D03*
%TD*%
%TO.C,D58*%
X161569400Y-46329600D03*
D13*
X161569400Y-43789600D03*
X161569400Y-41249600D03*
%TD*%
%TO.C,D59*%
X161569400Y-49377600D03*
X161569400Y-51917600D03*
D12*
X161569400Y-54457600D03*
%TD*%
%TO.C,D60*%
X161569400Y-62839600D03*
D13*
X161569400Y-60299600D03*
X161569400Y-57759600D03*
%TD*%
D12*
%TO.C,D61*%
X161569400Y-71221600D03*
D13*
X161569400Y-68681600D03*
X161569400Y-66141600D03*
%TD*%
%TO.C,D62*%
X161569400Y-74269600D03*
X161569400Y-76809600D03*
D12*
X161569400Y-79349600D03*
%TD*%
%TO.C,D63*%
X161569400Y-87731600D03*
D13*
X161569400Y-85191600D03*
X161569400Y-82651600D03*
%TD*%
D12*
%TO.C,D64*%
X161569400Y-95859600D03*
D13*
X161569400Y-93319600D03*
X161569400Y-90779600D03*
%TD*%
D12*
%TO.C,D65*%
X39522400Y-99822000D03*
D13*
X39522400Y-102362000D03*
%TD*%
D12*
%TO.C,D66*%
X226822000Y-47815500D03*
D13*
X226822000Y-45275500D03*
%TD*%
%TO.C,D67*%
X226822000Y-66103500D03*
D12*
X226822000Y-68643500D03*
%TD*%
%TO.C,D68*%
X226568000Y-89471500D03*
D13*
X226568000Y-86931500D03*
%TD*%
%TO.C,D69*%
X226568000Y-108013500D03*
D12*
X226568000Y-110553500D03*
%TD*%
D14*
%TO.C,J1*%
X101835200Y-78968800D03*
D15*
X103835200Y-83068800D03*
G36*
G01*
X103085200Y-79718800D02*
X104585200Y-79718800D01*
G75*
G02*
X104835200Y-79968800I0J-250000D01*
G01*
X104835200Y-81168800D01*
G75*
G02*
X104585200Y-81418800I-250000J0D01*
G01*
X103085200Y-81418800D01*
G75*
G02*
X102835200Y-81168800I0J250000D01*
G01*
X102835200Y-79968800D01*
G75*
G02*
X103085200Y-79718800I250000J0D01*
G01*
G37*
%TD*%
%TO.C,J2*%
G36*
G01*
X103085200Y-88242400D02*
X104585200Y-88242400D01*
G75*
G02*
X104835200Y-88492400I0J-250000D01*
G01*
X104835200Y-89692400D01*
G75*
G02*
X104585200Y-89942400I-250000J0D01*
G01*
X103085200Y-89942400D01*
G75*
G02*
X102835200Y-89692400I0J250000D01*
G01*
X102835200Y-88492400D01*
G75*
G02*
X103085200Y-88242400I250000J0D01*
G01*
G37*
X103835200Y-91592400D03*
D14*
X101835200Y-87492400D03*
%TD*%
%TO.C,J3*%
X101835200Y-96026800D03*
D15*
X103835200Y-100126800D03*
G36*
G01*
X103085200Y-96776800D02*
X104585200Y-96776800D01*
G75*
G02*
X104835200Y-97026800I0J-250000D01*
G01*
X104835200Y-98226800D01*
G75*
G02*
X104585200Y-98476800I-250000J0D01*
G01*
X103085200Y-98476800D01*
G75*
G02*
X102835200Y-98226800I0J250000D01*
G01*
X102835200Y-97026800D01*
G75*
G02*
X103085200Y-96776800I250000J0D01*
G01*
G37*
%TD*%
%TO.C,J4*%
G36*
G01*
X103085200Y-105525200D02*
X104585200Y-105525200D01*
G75*
G02*
X104835200Y-105775200I0J-250000D01*
G01*
X104835200Y-106975200D01*
G75*
G02*
X104585200Y-107225200I-250000J0D01*
G01*
X103085200Y-107225200D01*
G75*
G02*
X102835200Y-106975200I0J250000D01*
G01*
X102835200Y-105775200D01*
G75*
G02*
X103085200Y-105525200I250000J0D01*
G01*
G37*
X103835200Y-108875200D03*
D14*
X101835200Y-104775200D03*
%TD*%
D16*
%TO.C,J5*%
X96469200Y-108864400D03*
D17*
X96469200Y-106324400D03*
X96469200Y-103784400D03*
X96469200Y-101244400D03*
X96469200Y-98704400D03*
X96469200Y-96164400D03*
X96469200Y-93624400D03*
X96469200Y-91084400D03*
X96469200Y-88544400D03*
X96469200Y-86004400D03*
X96469200Y-83464400D03*
X96469200Y-80924400D03*
X96469200Y-78384400D03*
X96469200Y-75844400D03*
X96469200Y-73304400D03*
X96469200Y-70764400D03*
X96469200Y-68224400D03*
X96469200Y-65684400D03*
X96469200Y-63144400D03*
X96469200Y-60604400D03*
X96469200Y-58064400D03*
X96469200Y-55524400D03*
X96469200Y-52984400D03*
X96469200Y-50444400D03*
X96469200Y-47904400D03*
X96469200Y-45364400D03*
X96469200Y-42824400D03*
X96469200Y-40284400D03*
X96469200Y-37744400D03*
X96469200Y-35204400D03*
X96469200Y-32664400D03*
X96469200Y-30124400D03*
%TD*%
D18*
%TO.C,Q1*%
X39522400Y-108762800D03*
X40792400Y-108762800D03*
D19*
X38252400Y-108762800D03*
%TD*%
%TO.C,Q2*%
X228092000Y-36131500D03*
D18*
X225552000Y-36131500D03*
X226822000Y-36131500D03*
%TD*%
%TO.C,Q3*%
X226822000Y-56959500D03*
X225552000Y-56959500D03*
D19*
X228092000Y-56959500D03*
%TD*%
D18*
%TO.C,Q4*%
X227076000Y-77533500D03*
X225806000Y-77533500D03*
D19*
X228346000Y-77533500D03*
%TD*%
%TO.C,Q5*%
X228092000Y-98361500D03*
D18*
X225552000Y-98361500D03*
X226822000Y-98361500D03*
%TD*%
%TO.C,R1*%
G36*
G01*
X191679400Y-102072600D02*
X191679400Y-100822600D01*
G75*
G02*
X191929400Y-100572600I250000J0D01*
G01*
X192729400Y-100572600D01*
G75*
G02*
X192979400Y-100822600I0J-250000D01*
G01*
X192979400Y-102072600D01*
G75*
G02*
X192729400Y-102322600I-250000J0D01*
G01*
X191929400Y-102322600D01*
G75*
G02*
X191679400Y-102072600I0J250000D01*
G01*
G37*
G36*
G01*
X188579400Y-102072600D02*
X188579400Y-100822600D01*
G75*
G02*
X188829400Y-100572600I250000J0D01*
G01*
X189629400Y-100572600D01*
G75*
G02*
X189879400Y-100822600I0J-250000D01*
G01*
X189879400Y-102072600D01*
G75*
G02*
X189629400Y-102322600I-250000J0D01*
G01*
X188829400Y-102322600D01*
G75*
G02*
X188579400Y-102072600I0J250000D01*
G01*
G37*
%TD*%
%TO.C,R2*%
G36*
G01*
X194447400Y-102072600D02*
X194447400Y-100822600D01*
G75*
G02*
X194697400Y-100572600I250000J0D01*
G01*
X195497400Y-100572600D01*
G75*
G02*
X195747400Y-100822600I0J-250000D01*
G01*
X195747400Y-102072600D01*
G75*
G02*
X195497400Y-102322600I-250000J0D01*
G01*
X194697400Y-102322600D01*
G75*
G02*
X194447400Y-102072600I0J250000D01*
G01*
G37*
G36*
G01*
X197547400Y-102072600D02*
X197547400Y-100822600D01*
G75*
G02*
X197797400Y-100572600I250000J0D01*
G01*
X198597400Y-100572600D01*
G75*
G02*
X198847400Y-100822600I0J-250000D01*
G01*
X198847400Y-102072600D01*
G75*
G02*
X198597400Y-102322600I-250000J0D01*
G01*
X197797400Y-102322600D01*
G75*
G02*
X197547400Y-102072600I0J250000D01*
G01*
G37*
%TD*%
%TO.C,R3*%
G36*
G01*
X188605400Y-105628600D02*
X188605400Y-104378600D01*
G75*
G02*
X188855400Y-104128600I250000J0D01*
G01*
X189655400Y-104128600D01*
G75*
G02*
X189905400Y-104378600I0J-250000D01*
G01*
X189905400Y-105628600D01*
G75*
G02*
X189655400Y-105878600I-250000J0D01*
G01*
X188855400Y-105878600D01*
G75*
G02*
X188605400Y-105628600I0J250000D01*
G01*
G37*
G36*
G01*
X191705400Y-105628600D02*
X191705400Y-104378600D01*
G75*
G02*
X191955400Y-104128600I250000J0D01*
G01*
X192755400Y-104128600D01*
G75*
G02*
X193005400Y-104378600I0J-250000D01*
G01*
X193005400Y-105628600D01*
G75*
G02*
X192755400Y-105878600I-250000J0D01*
G01*
X191955400Y-105878600D01*
G75*
G02*
X191705400Y-105628600I0J250000D01*
G01*
G37*
%TD*%
%TO.C,R4*%
G36*
G01*
X197547400Y-105628600D02*
X197547400Y-104378600D01*
G75*
G02*
X197797400Y-104128600I250000J0D01*
G01*
X198597400Y-104128600D01*
G75*
G02*
X198847400Y-104378600I0J-250000D01*
G01*
X198847400Y-105628600D01*
G75*
G02*
X198597400Y-105878600I-250000J0D01*
G01*
X197797400Y-105878600D01*
G75*
G02*
X197547400Y-105628600I0J250000D01*
G01*
G37*
G36*
G01*
X194447400Y-105628600D02*
X194447400Y-104378600D01*
G75*
G02*
X194697400Y-104128600I250000J0D01*
G01*
X195497400Y-104128600D01*
G75*
G02*
X195747400Y-104378600I0J-250000D01*
G01*
X195747400Y-105628600D01*
G75*
G02*
X195497400Y-105878600I-250000J0D01*
G01*
X194697400Y-105878600D01*
G75*
G02*
X194447400Y-105628600I0J250000D01*
G01*
G37*
%TD*%
%TO.C,R5*%
G36*
G01*
X188605400Y-109184600D02*
X188605400Y-107934600D01*
G75*
G02*
X188855400Y-107684600I250000J0D01*
G01*
X189655400Y-107684600D01*
G75*
G02*
X189905400Y-107934600I0J-250000D01*
G01*
X189905400Y-109184600D01*
G75*
G02*
X189655400Y-109434600I-250000J0D01*
G01*
X188855400Y-109434600D01*
G75*
G02*
X188605400Y-109184600I0J250000D01*
G01*
G37*
G36*
G01*
X191705400Y-109184600D02*
X191705400Y-107934600D01*
G75*
G02*
X191955400Y-107684600I250000J0D01*
G01*
X192755400Y-107684600D01*
G75*
G02*
X193005400Y-107934600I0J-250000D01*
G01*
X193005400Y-109184600D01*
G75*
G02*
X192755400Y-109434600I-250000J0D01*
G01*
X191955400Y-109434600D01*
G75*
G02*
X191705400Y-109184600I0J250000D01*
G01*
G37*
%TD*%
%TO.C,R6*%
G36*
G01*
X197547400Y-109184600D02*
X197547400Y-107934600D01*
G75*
G02*
X197797400Y-107684600I250000J0D01*
G01*
X198597400Y-107684600D01*
G75*
G02*
X198847400Y-107934600I0J-250000D01*
G01*
X198847400Y-109184600D01*
G75*
G02*
X198597400Y-109434600I-250000J0D01*
G01*
X197797400Y-109434600D01*
G75*
G02*
X197547400Y-109184600I0J250000D01*
G01*
G37*
G36*
G01*
X194447400Y-109184600D02*
X194447400Y-107934600D01*
G75*
G02*
X194697400Y-107684600I250000J0D01*
G01*
X195497400Y-107684600D01*
G75*
G02*
X195747400Y-107934600I0J-250000D01*
G01*
X195747400Y-109184600D01*
G75*
G02*
X195497400Y-109434600I-250000J0D01*
G01*
X194697400Y-109434600D01*
G75*
G02*
X194447400Y-109184600I0J250000D01*
G01*
G37*
%TD*%
%TO.C,R7*%
G36*
G01*
X188605400Y-112740600D02*
X188605400Y-111490600D01*
G75*
G02*
X188855400Y-111240600I250000J0D01*
G01*
X189655400Y-111240600D01*
G75*
G02*
X189905400Y-111490600I0J-250000D01*
G01*
X189905400Y-112740600D01*
G75*
G02*
X189655400Y-112990600I-250000J0D01*
G01*
X188855400Y-112990600D01*
G75*
G02*
X188605400Y-112740600I0J250000D01*
G01*
G37*
G36*
G01*
X191705400Y-112740600D02*
X191705400Y-111490600D01*
G75*
G02*
X191955400Y-111240600I250000J0D01*
G01*
X192755400Y-111240600D01*
G75*
G02*
X193005400Y-111490600I0J-250000D01*
G01*
X193005400Y-112740600D01*
G75*
G02*
X192755400Y-112990600I-250000J0D01*
G01*
X191955400Y-112990600D01*
G75*
G02*
X191705400Y-112740600I0J250000D01*
G01*
G37*
%TD*%
%TO.C,R8*%
G36*
G01*
X197547400Y-112740600D02*
X197547400Y-111490600D01*
G75*
G02*
X197797400Y-111240600I250000J0D01*
G01*
X198597400Y-111240600D01*
G75*
G02*
X198847400Y-111490600I0J-250000D01*
G01*
X198847400Y-112740600D01*
G75*
G02*
X198597400Y-112990600I-250000J0D01*
G01*
X197797400Y-112990600D01*
G75*
G02*
X197547400Y-112740600I0J250000D01*
G01*
G37*
G36*
G01*
X194447400Y-112740600D02*
X194447400Y-111490600D01*
G75*
G02*
X194697400Y-111240600I250000J0D01*
G01*
X195497400Y-111240600D01*
G75*
G02*
X195747400Y-111490600I0J-250000D01*
G01*
X195747400Y-112740600D01*
G75*
G02*
X195497400Y-112990600I-250000J0D01*
G01*
X194697400Y-112990600D01*
G75*
G02*
X194447400Y-112740600I0J250000D01*
G01*
G37*
%TD*%
%TO.C,R9*%
G36*
G01*
X149265400Y-111490600D02*
X149265400Y-112740600D01*
G75*
G02*
X149015400Y-112990600I-250000J0D01*
G01*
X148215400Y-112990600D01*
G75*
G02*
X147965400Y-112740600I0J250000D01*
G01*
X147965400Y-111490600D01*
G75*
G02*
X148215400Y-111240600I250000J0D01*
G01*
X149015400Y-111240600D01*
G75*
G02*
X149265400Y-111490600I0J-250000D01*
G01*
G37*
G36*
G01*
X146165400Y-111490600D02*
X146165400Y-112740600D01*
G75*
G02*
X145915400Y-112990600I-250000J0D01*
G01*
X145115400Y-112990600D01*
G75*
G02*
X144865400Y-112740600I0J250000D01*
G01*
X144865400Y-111490600D01*
G75*
G02*
X145115400Y-111240600I250000J0D01*
G01*
X145915400Y-111240600D01*
G75*
G02*
X146165400Y-111490600I0J-250000D01*
G01*
G37*
%TD*%
%TO.C,R10*%
G36*
G01*
X151753400Y-111490600D02*
X151753400Y-112740600D01*
G75*
G02*
X151503400Y-112990600I-250000J0D01*
G01*
X150703400Y-112990600D01*
G75*
G02*
X150453400Y-112740600I0J250000D01*
G01*
X150453400Y-111490600D01*
G75*
G02*
X150703400Y-111240600I250000J0D01*
G01*
X151503400Y-111240600D01*
G75*
G02*
X151753400Y-111490600I0J-250000D01*
G01*
G37*
G36*
G01*
X154853400Y-111490600D02*
X154853400Y-112740600D01*
G75*
G02*
X154603400Y-112990600I-250000J0D01*
G01*
X153803400Y-112990600D01*
G75*
G02*
X153553400Y-112740600I0J250000D01*
G01*
X153553400Y-111490600D01*
G75*
G02*
X153803400Y-111240600I250000J0D01*
G01*
X154603400Y-111240600D01*
G75*
G02*
X154853400Y-111490600I0J-250000D01*
G01*
G37*
%TD*%
%TO.C,R11*%
G36*
G01*
X149265400Y-107934600D02*
X149265400Y-109184600D01*
G75*
G02*
X149015400Y-109434600I-250000J0D01*
G01*
X148215400Y-109434600D01*
G75*
G02*
X147965400Y-109184600I0J250000D01*
G01*
X147965400Y-107934600D01*
G75*
G02*
X148215400Y-107684600I250000J0D01*
G01*
X149015400Y-107684600D01*
G75*
G02*
X149265400Y-107934600I0J-250000D01*
G01*
G37*
G36*
G01*
X146165400Y-107934600D02*
X146165400Y-109184600D01*
G75*
G02*
X145915400Y-109434600I-250000J0D01*
G01*
X145115400Y-109434600D01*
G75*
G02*
X144865400Y-109184600I0J250000D01*
G01*
X144865400Y-107934600D01*
G75*
G02*
X145115400Y-107684600I250000J0D01*
G01*
X145915400Y-107684600D01*
G75*
G02*
X146165400Y-107934600I0J-250000D01*
G01*
G37*
%TD*%
%TO.C,R12*%
G36*
G01*
X151753400Y-107934600D02*
X151753400Y-109184600D01*
G75*
G02*
X151503400Y-109434600I-250000J0D01*
G01*
X150703400Y-109434600D01*
G75*
G02*
X150453400Y-109184600I0J250000D01*
G01*
X150453400Y-107934600D01*
G75*
G02*
X150703400Y-107684600I250000J0D01*
G01*
X151503400Y-107684600D01*
G75*
G02*
X151753400Y-107934600I0J-250000D01*
G01*
G37*
G36*
G01*
X154853400Y-107934600D02*
X154853400Y-109184600D01*
G75*
G02*
X154603400Y-109434600I-250000J0D01*
G01*
X153803400Y-109434600D01*
G75*
G02*
X153553400Y-109184600I0J250000D01*
G01*
X153553400Y-107934600D01*
G75*
G02*
X153803400Y-107684600I250000J0D01*
G01*
X154603400Y-107684600D01*
G75*
G02*
X154853400Y-107934600I0J-250000D01*
G01*
G37*
%TD*%
%TO.C,R13*%
G36*
G01*
X149265400Y-104378600D02*
X149265400Y-105628600D01*
G75*
G02*
X149015400Y-105878600I-250000J0D01*
G01*
X148215400Y-105878600D01*
G75*
G02*
X147965400Y-105628600I0J250000D01*
G01*
X147965400Y-104378600D01*
G75*
G02*
X148215400Y-104128600I250000J0D01*
G01*
X149015400Y-104128600D01*
G75*
G02*
X149265400Y-104378600I0J-250000D01*
G01*
G37*
G36*
G01*
X146165400Y-104378600D02*
X146165400Y-105628600D01*
G75*
G02*
X145915400Y-105878600I-250000J0D01*
G01*
X145115400Y-105878600D01*
G75*
G02*
X144865400Y-105628600I0J250000D01*
G01*
X144865400Y-104378600D01*
G75*
G02*
X145115400Y-104128600I250000J0D01*
G01*
X145915400Y-104128600D01*
G75*
G02*
X146165400Y-104378600I0J-250000D01*
G01*
G37*
%TD*%
%TO.C,R14*%
G36*
G01*
X151753400Y-104378600D02*
X151753400Y-105628600D01*
G75*
G02*
X151503400Y-105878600I-250000J0D01*
G01*
X150703400Y-105878600D01*
G75*
G02*
X150453400Y-105628600I0J250000D01*
G01*
X150453400Y-104378600D01*
G75*
G02*
X150703400Y-104128600I250000J0D01*
G01*
X151503400Y-104128600D01*
G75*
G02*
X151753400Y-104378600I0J-250000D01*
G01*
G37*
G36*
G01*
X154853400Y-104378600D02*
X154853400Y-105628600D01*
G75*
G02*
X154603400Y-105878600I-250000J0D01*
G01*
X153803400Y-105878600D01*
G75*
G02*
X153553400Y-105628600I0J250000D01*
G01*
X153553400Y-104378600D01*
G75*
G02*
X153803400Y-104128600I250000J0D01*
G01*
X154603400Y-104128600D01*
G75*
G02*
X154853400Y-104378600I0J-250000D01*
G01*
G37*
%TD*%
%TO.C,R15*%
G36*
G01*
X149265400Y-100822600D02*
X149265400Y-102072600D01*
G75*
G02*
X149015400Y-102322600I-250000J0D01*
G01*
X148215400Y-102322600D01*
G75*
G02*
X147965400Y-102072600I0J250000D01*
G01*
X147965400Y-100822600D01*
G75*
G02*
X148215400Y-100572600I250000J0D01*
G01*
X149015400Y-100572600D01*
G75*
G02*
X149265400Y-100822600I0J-250000D01*
G01*
G37*
G36*
G01*
X146165400Y-100822600D02*
X146165400Y-102072600D01*
G75*
G02*
X145915400Y-102322600I-250000J0D01*
G01*
X145115400Y-102322600D01*
G75*
G02*
X144865400Y-102072600I0J250000D01*
G01*
X144865400Y-100822600D01*
G75*
G02*
X145115400Y-100572600I250000J0D01*
G01*
X145915400Y-100572600D01*
G75*
G02*
X146165400Y-100822600I0J-250000D01*
G01*
G37*
%TD*%
%TO.C,R16*%
G36*
G01*
X151753400Y-100822600D02*
X151753400Y-102072600D01*
G75*
G02*
X151503400Y-102322600I-250000J0D01*
G01*
X150703400Y-102322600D01*
G75*
G02*
X150453400Y-102072600I0J250000D01*
G01*
X150453400Y-100822600D01*
G75*
G02*
X150703400Y-100572600I250000J0D01*
G01*
X151503400Y-100572600D01*
G75*
G02*
X151753400Y-100822600I0J-250000D01*
G01*
G37*
G36*
G01*
X154853400Y-100822600D02*
X154853400Y-102072600D01*
G75*
G02*
X154603400Y-102322600I-250000J0D01*
G01*
X153803400Y-102322600D01*
G75*
G02*
X153553400Y-102072600I0J250000D01*
G01*
X153553400Y-100822600D01*
G75*
G02*
X153803400Y-100572600I250000J0D01*
G01*
X154603400Y-100572600D01*
G75*
G02*
X154853400Y-100822600I0J-250000D01*
G01*
G37*
%TD*%
%TO.C,R17*%
G36*
G01*
X114639400Y-102072600D02*
X114639400Y-100822600D01*
G75*
G02*
X114889400Y-100572600I250000J0D01*
G01*
X115689400Y-100572600D01*
G75*
G02*
X115939400Y-100822600I0J-250000D01*
G01*
X115939400Y-102072600D01*
G75*
G02*
X115689400Y-102322600I-250000J0D01*
G01*
X114889400Y-102322600D01*
G75*
G02*
X114639400Y-102072600I0J250000D01*
G01*
G37*
G36*
G01*
X117739400Y-102072600D02*
X117739400Y-100822600D01*
G75*
G02*
X117989400Y-100572600I250000J0D01*
G01*
X118789400Y-100572600D01*
G75*
G02*
X119039400Y-100822600I0J-250000D01*
G01*
X119039400Y-102072600D01*
G75*
G02*
X118789400Y-102322600I-250000J0D01*
G01*
X117989400Y-102322600D01*
G75*
G02*
X117739400Y-102072600I0J250000D01*
G01*
G37*
%TD*%
%TO.C,R18*%
G36*
G01*
X112151400Y-102072600D02*
X112151400Y-100822600D01*
G75*
G02*
X112401400Y-100572600I250000J0D01*
G01*
X113201400Y-100572600D01*
G75*
G02*
X113451400Y-100822600I0J-250000D01*
G01*
X113451400Y-102072600D01*
G75*
G02*
X113201400Y-102322600I-250000J0D01*
G01*
X112401400Y-102322600D01*
G75*
G02*
X112151400Y-102072600I0J250000D01*
G01*
G37*
G36*
G01*
X109051400Y-102072600D02*
X109051400Y-100822600D01*
G75*
G02*
X109301400Y-100572600I250000J0D01*
G01*
X110101400Y-100572600D01*
G75*
G02*
X110351400Y-100822600I0J-250000D01*
G01*
X110351400Y-102072600D01*
G75*
G02*
X110101400Y-102322600I-250000J0D01*
G01*
X109301400Y-102322600D01*
G75*
G02*
X109051400Y-102072600I0J250000D01*
G01*
G37*
%TD*%
%TO.C,R19*%
G36*
G01*
X114639400Y-105628600D02*
X114639400Y-104378600D01*
G75*
G02*
X114889400Y-104128600I250000J0D01*
G01*
X115689400Y-104128600D01*
G75*
G02*
X115939400Y-104378600I0J-250000D01*
G01*
X115939400Y-105628600D01*
G75*
G02*
X115689400Y-105878600I-250000J0D01*
G01*
X114889400Y-105878600D01*
G75*
G02*
X114639400Y-105628600I0J250000D01*
G01*
G37*
G36*
G01*
X117739400Y-105628600D02*
X117739400Y-104378600D01*
G75*
G02*
X117989400Y-104128600I250000J0D01*
G01*
X118789400Y-104128600D01*
G75*
G02*
X119039400Y-104378600I0J-250000D01*
G01*
X119039400Y-105628600D01*
G75*
G02*
X118789400Y-105878600I-250000J0D01*
G01*
X117989400Y-105878600D01*
G75*
G02*
X117739400Y-105628600I0J250000D01*
G01*
G37*
%TD*%
%TO.C,R20*%
G36*
G01*
X112151400Y-105628600D02*
X112151400Y-104378600D01*
G75*
G02*
X112401400Y-104128600I250000J0D01*
G01*
X113201400Y-104128600D01*
G75*
G02*
X113451400Y-104378600I0J-250000D01*
G01*
X113451400Y-105628600D01*
G75*
G02*
X113201400Y-105878600I-250000J0D01*
G01*
X112401400Y-105878600D01*
G75*
G02*
X112151400Y-105628600I0J250000D01*
G01*
G37*
G36*
G01*
X109051400Y-105628600D02*
X109051400Y-104378600D01*
G75*
G02*
X109301400Y-104128600I250000J0D01*
G01*
X110101400Y-104128600D01*
G75*
G02*
X110351400Y-104378600I0J-250000D01*
G01*
X110351400Y-105628600D01*
G75*
G02*
X110101400Y-105878600I-250000J0D01*
G01*
X109301400Y-105878600D01*
G75*
G02*
X109051400Y-105628600I0J250000D01*
G01*
G37*
%TD*%
%TO.C,R21*%
G36*
G01*
X114639400Y-109184600D02*
X114639400Y-107934600D01*
G75*
G02*
X114889400Y-107684600I250000J0D01*
G01*
X115689400Y-107684600D01*
G75*
G02*
X115939400Y-107934600I0J-250000D01*
G01*
X115939400Y-109184600D01*
G75*
G02*
X115689400Y-109434600I-250000J0D01*
G01*
X114889400Y-109434600D01*
G75*
G02*
X114639400Y-109184600I0J250000D01*
G01*
G37*
G36*
G01*
X117739400Y-109184600D02*
X117739400Y-107934600D01*
G75*
G02*
X117989400Y-107684600I250000J0D01*
G01*
X118789400Y-107684600D01*
G75*
G02*
X119039400Y-107934600I0J-250000D01*
G01*
X119039400Y-109184600D01*
G75*
G02*
X118789400Y-109434600I-250000J0D01*
G01*
X117989400Y-109434600D01*
G75*
G02*
X117739400Y-109184600I0J250000D01*
G01*
G37*
%TD*%
%TO.C,R22*%
G36*
G01*
X112151400Y-109184600D02*
X112151400Y-107934600D01*
G75*
G02*
X112401400Y-107684600I250000J0D01*
G01*
X113201400Y-107684600D01*
G75*
G02*
X113451400Y-107934600I0J-250000D01*
G01*
X113451400Y-109184600D01*
G75*
G02*
X113201400Y-109434600I-250000J0D01*
G01*
X112401400Y-109434600D01*
G75*
G02*
X112151400Y-109184600I0J250000D01*
G01*
G37*
G36*
G01*
X109051400Y-109184600D02*
X109051400Y-107934600D01*
G75*
G02*
X109301400Y-107684600I250000J0D01*
G01*
X110101400Y-107684600D01*
G75*
G02*
X110351400Y-107934600I0J-250000D01*
G01*
X110351400Y-109184600D01*
G75*
G02*
X110101400Y-109434600I-250000J0D01*
G01*
X109301400Y-109434600D01*
G75*
G02*
X109051400Y-109184600I0J250000D01*
G01*
G37*
%TD*%
%TO.C,R23*%
G36*
G01*
X114639400Y-112740600D02*
X114639400Y-111490600D01*
G75*
G02*
X114889400Y-111240600I250000J0D01*
G01*
X115689400Y-111240600D01*
G75*
G02*
X115939400Y-111490600I0J-250000D01*
G01*
X115939400Y-112740600D01*
G75*
G02*
X115689400Y-112990600I-250000J0D01*
G01*
X114889400Y-112990600D01*
G75*
G02*
X114639400Y-112740600I0J250000D01*
G01*
G37*
G36*
G01*
X117739400Y-112740600D02*
X117739400Y-111490600D01*
G75*
G02*
X117989400Y-111240600I250000J0D01*
G01*
X118789400Y-111240600D01*
G75*
G02*
X119039400Y-111490600I0J-250000D01*
G01*
X119039400Y-112740600D01*
G75*
G02*
X118789400Y-112990600I-250000J0D01*
G01*
X117989400Y-112990600D01*
G75*
G02*
X117739400Y-112740600I0J250000D01*
G01*
G37*
%TD*%
%TO.C,R24*%
G36*
G01*
X112151400Y-112740600D02*
X112151400Y-111490600D01*
G75*
G02*
X112401400Y-111240600I250000J0D01*
G01*
X113201400Y-111240600D01*
G75*
G02*
X113451400Y-111490600I0J-250000D01*
G01*
X113451400Y-112740600D01*
G75*
G02*
X113201400Y-112990600I-250000J0D01*
G01*
X112401400Y-112990600D01*
G75*
G02*
X112151400Y-112740600I0J250000D01*
G01*
G37*
G36*
G01*
X109051400Y-112740600D02*
X109051400Y-111490600D01*
G75*
G02*
X109301400Y-111240600I250000J0D01*
G01*
X110101400Y-111240600D01*
G75*
G02*
X110351400Y-111490600I0J-250000D01*
G01*
X110351400Y-112740600D01*
G75*
G02*
X110101400Y-112990600I-250000J0D01*
G01*
X109301400Y-112990600D01*
G75*
G02*
X109051400Y-112740600I0J250000D01*
G01*
G37*
%TD*%
%TO.C,R25*%
G36*
G01*
X218831400Y-102072600D02*
X218831400Y-100822600D01*
G75*
G02*
X219081400Y-100572600I250000J0D01*
G01*
X219881400Y-100572600D01*
G75*
G02*
X220131400Y-100822600I0J-250000D01*
G01*
X220131400Y-102072600D01*
G75*
G02*
X219881400Y-102322600I-250000J0D01*
G01*
X219081400Y-102322600D01*
G75*
G02*
X218831400Y-102072600I0J250000D01*
G01*
G37*
G36*
G01*
X215731400Y-102072600D02*
X215731400Y-100822600D01*
G75*
G02*
X215981400Y-100572600I250000J0D01*
G01*
X216781400Y-100572600D01*
G75*
G02*
X217031400Y-100822600I0J-250000D01*
G01*
X217031400Y-102072600D01*
G75*
G02*
X216781400Y-102322600I-250000J0D01*
G01*
X215981400Y-102322600D01*
G75*
G02*
X215731400Y-102072600I0J250000D01*
G01*
G37*
%TD*%
%TO.C,R26*%
G36*
G01*
X215731400Y-105628600D02*
X215731400Y-104378600D01*
G75*
G02*
X215981400Y-104128600I250000J0D01*
G01*
X216781400Y-104128600D01*
G75*
G02*
X217031400Y-104378600I0J-250000D01*
G01*
X217031400Y-105628600D01*
G75*
G02*
X216781400Y-105878600I-250000J0D01*
G01*
X215981400Y-105878600D01*
G75*
G02*
X215731400Y-105628600I0J250000D01*
G01*
G37*
G36*
G01*
X218831400Y-105628600D02*
X218831400Y-104378600D01*
G75*
G02*
X219081400Y-104128600I250000J0D01*
G01*
X219881400Y-104128600D01*
G75*
G02*
X220131400Y-104378600I0J-250000D01*
G01*
X220131400Y-105628600D01*
G75*
G02*
X219881400Y-105878600I-250000J0D01*
G01*
X219081400Y-105878600D01*
G75*
G02*
X218831400Y-105628600I0J250000D01*
G01*
G37*
%TD*%
%TO.C,R27*%
G36*
G01*
X218831400Y-109184600D02*
X218831400Y-107934600D01*
G75*
G02*
X219081400Y-107684600I250000J0D01*
G01*
X219881400Y-107684600D01*
G75*
G02*
X220131400Y-107934600I0J-250000D01*
G01*
X220131400Y-109184600D01*
G75*
G02*
X219881400Y-109434600I-250000J0D01*
G01*
X219081400Y-109434600D01*
G75*
G02*
X218831400Y-109184600I0J250000D01*
G01*
G37*
G36*
G01*
X215731400Y-109184600D02*
X215731400Y-107934600D01*
G75*
G02*
X215981400Y-107684600I250000J0D01*
G01*
X216781400Y-107684600D01*
G75*
G02*
X217031400Y-107934600I0J-250000D01*
G01*
X217031400Y-109184600D01*
G75*
G02*
X216781400Y-109434600I-250000J0D01*
G01*
X215981400Y-109434600D01*
G75*
G02*
X215731400Y-109184600I0J250000D01*
G01*
G37*
%TD*%
%TO.C,R28*%
G36*
G01*
X215731400Y-112740600D02*
X215731400Y-111490600D01*
G75*
G02*
X215981400Y-111240600I250000J0D01*
G01*
X216781400Y-111240600D01*
G75*
G02*
X217031400Y-111490600I0J-250000D01*
G01*
X217031400Y-112740600D01*
G75*
G02*
X216781400Y-112990600I-250000J0D01*
G01*
X215981400Y-112990600D01*
G75*
G02*
X215731400Y-112740600I0J250000D01*
G01*
G37*
G36*
G01*
X218831400Y-112740600D02*
X218831400Y-111490600D01*
G75*
G02*
X219081400Y-111240600I250000J0D01*
G01*
X219881400Y-111240600D01*
G75*
G02*
X220131400Y-111490600I0J-250000D01*
G01*
X220131400Y-112740600D01*
G75*
G02*
X219881400Y-112990600I-250000J0D01*
G01*
X219081400Y-112990600D01*
G75*
G02*
X218831400Y-112740600I0J250000D01*
G01*
G37*
%TD*%
%TO.C,R29*%
G36*
G01*
X206669400Y-111490600D02*
X206669400Y-112740600D01*
G75*
G02*
X206419400Y-112990600I-250000J0D01*
G01*
X205619400Y-112990600D01*
G75*
G02*
X205369400Y-112740600I0J250000D01*
G01*
X205369400Y-111490600D01*
G75*
G02*
X205619400Y-111240600I250000J0D01*
G01*
X206419400Y-111240600D01*
G75*
G02*
X206669400Y-111490600I0J-250000D01*
G01*
G37*
G36*
G01*
X203569400Y-111490600D02*
X203569400Y-112740600D01*
G75*
G02*
X203319400Y-112990600I-250000J0D01*
G01*
X202519400Y-112990600D01*
G75*
G02*
X202269400Y-112740600I0J250000D01*
G01*
X202269400Y-111490600D01*
G75*
G02*
X202519400Y-111240600I250000J0D01*
G01*
X203319400Y-111240600D01*
G75*
G02*
X203569400Y-111490600I0J-250000D01*
G01*
G37*
%TD*%
%TO.C,R30*%
G36*
G01*
X206721400Y-107934600D02*
X206721400Y-109184600D01*
G75*
G02*
X206471400Y-109434600I-250000J0D01*
G01*
X205671400Y-109434600D01*
G75*
G02*
X205421400Y-109184600I0J250000D01*
G01*
X205421400Y-107934600D01*
G75*
G02*
X205671400Y-107684600I250000J0D01*
G01*
X206471400Y-107684600D01*
G75*
G02*
X206721400Y-107934600I0J-250000D01*
G01*
G37*
G36*
G01*
X203621400Y-107934600D02*
X203621400Y-109184600D01*
G75*
G02*
X203371400Y-109434600I-250000J0D01*
G01*
X202571400Y-109434600D01*
G75*
G02*
X202321400Y-109184600I0J250000D01*
G01*
X202321400Y-107934600D01*
G75*
G02*
X202571400Y-107684600I250000J0D01*
G01*
X203371400Y-107684600D01*
G75*
G02*
X203621400Y-107934600I0J-250000D01*
G01*
G37*
%TD*%
%TO.C,R31*%
G36*
G01*
X203621400Y-104378600D02*
X203621400Y-105628600D01*
G75*
G02*
X203371400Y-105878600I-250000J0D01*
G01*
X202571400Y-105878600D01*
G75*
G02*
X202321400Y-105628600I0J250000D01*
G01*
X202321400Y-104378600D01*
G75*
G02*
X202571400Y-104128600I250000J0D01*
G01*
X203371400Y-104128600D01*
G75*
G02*
X203621400Y-104378600I0J-250000D01*
G01*
G37*
G36*
G01*
X206721400Y-104378600D02*
X206721400Y-105628600D01*
G75*
G02*
X206471400Y-105878600I-250000J0D01*
G01*
X205671400Y-105878600D01*
G75*
G02*
X205421400Y-105628600I0J250000D01*
G01*
X205421400Y-104378600D01*
G75*
G02*
X205671400Y-104128600I250000J0D01*
G01*
X206471400Y-104128600D01*
G75*
G02*
X206721400Y-104378600I0J-250000D01*
G01*
G37*
%TD*%
%TO.C,R32*%
G36*
G01*
X206669400Y-100822600D02*
X206669400Y-102072600D01*
G75*
G02*
X206419400Y-102322600I-250000J0D01*
G01*
X205619400Y-102322600D01*
G75*
G02*
X205369400Y-102072600I0J250000D01*
G01*
X205369400Y-100822600D01*
G75*
G02*
X205619400Y-100572600I250000J0D01*
G01*
X206419400Y-100572600D01*
G75*
G02*
X206669400Y-100822600I0J-250000D01*
G01*
G37*
G36*
G01*
X203569400Y-100822600D02*
X203569400Y-102072600D01*
G75*
G02*
X203319400Y-102322600I-250000J0D01*
G01*
X202519400Y-102322600D01*
G75*
G02*
X202269400Y-102072600I0J250000D01*
G01*
X202269400Y-100822600D01*
G75*
G02*
X202519400Y-100572600I250000J0D01*
G01*
X203319400Y-100572600D01*
G75*
G02*
X203569400Y-100822600I0J-250000D01*
G01*
G37*
%TD*%
%TO.C,R33*%
G36*
G01*
X40850399Y-113972800D02*
X41750401Y-113972800D01*
G75*
G02*
X42000400Y-114222799I0J-249999D01*
G01*
X42000400Y-114922801D01*
G75*
G02*
X41750401Y-115172800I-249999J0D01*
G01*
X40850399Y-115172800D01*
G75*
G02*
X40600400Y-114922801I0J249999D01*
G01*
X40600400Y-114222799D01*
G75*
G02*
X40850399Y-113972800I249999J0D01*
G01*
G37*
G36*
G01*
X40850399Y-111972800D02*
X41750401Y-111972800D01*
G75*
G02*
X42000400Y-112222799I0J-249999D01*
G01*
X42000400Y-112922801D01*
G75*
G02*
X41750401Y-113172800I-249999J0D01*
G01*
X40850399Y-113172800D01*
G75*
G02*
X40600400Y-112922801I0J249999D01*
G01*
X40600400Y-112222799D01*
G75*
G02*
X40850399Y-111972800I249999J0D01*
G01*
G37*
%TD*%
%TO.C,R35*%
G36*
G01*
X80393700Y-112778300D02*
X79143700Y-112778300D01*
G75*
G02*
X78893700Y-112528300I0J250000D01*
G01*
X78893700Y-111728300D01*
G75*
G02*
X79143700Y-111478300I250000J0D01*
G01*
X80393700Y-111478300D01*
G75*
G02*
X80643700Y-111728300I0J-250000D01*
G01*
X80643700Y-112528300D01*
G75*
G02*
X80393700Y-112778300I-250000J0D01*
G01*
G37*
G36*
G01*
X80393700Y-115878300D02*
X79143700Y-115878300D01*
G75*
G02*
X78893700Y-115628300I0J250000D01*
G01*
X78893700Y-114828300D01*
G75*
G02*
X79143700Y-114578300I250000J0D01*
G01*
X80393700Y-114578300D01*
G75*
G02*
X80643700Y-114828300I0J-250000D01*
G01*
X80643700Y-115628300D01*
G75*
G02*
X80393700Y-115878300I-250000J0D01*
G01*
G37*
%TD*%
%TO.C,R36*%
G36*
G01*
X88013700Y-112778300D02*
X86763700Y-112778300D01*
G75*
G02*
X86513700Y-112528300I0J250000D01*
G01*
X86513700Y-111728300D01*
G75*
G02*
X86763700Y-111478300I250000J0D01*
G01*
X88013700Y-111478300D01*
G75*
G02*
X88263700Y-111728300I0J-250000D01*
G01*
X88263700Y-112528300D01*
G75*
G02*
X88013700Y-112778300I-250000J0D01*
G01*
G37*
G36*
G01*
X88013700Y-115878300D02*
X86763700Y-115878300D01*
G75*
G02*
X86513700Y-115628300I0J250000D01*
G01*
X86513700Y-114828300D01*
G75*
G02*
X86763700Y-114578300I250000J0D01*
G01*
X88013700Y-114578300D01*
G75*
G02*
X88263700Y-114828300I0J-250000D01*
G01*
X88263700Y-115628300D01*
G75*
G02*
X88013700Y-115878300I-250000J0D01*
G01*
G37*
%TD*%
%TO.C,R37*%
G36*
G01*
X86763700Y-104949300D02*
X88013700Y-104949300D01*
G75*
G02*
X88263700Y-105199300I0J-250000D01*
G01*
X88263700Y-105999300D01*
G75*
G02*
X88013700Y-106249300I-250000J0D01*
G01*
X86763700Y-106249300D01*
G75*
G02*
X86513700Y-105999300I0J250000D01*
G01*
X86513700Y-105199300D01*
G75*
G02*
X86763700Y-104949300I250000J0D01*
G01*
G37*
G36*
G01*
X86763700Y-108049300D02*
X88013700Y-108049300D01*
G75*
G02*
X88263700Y-108299300I0J-250000D01*
G01*
X88263700Y-109099300D01*
G75*
G02*
X88013700Y-109349300I-250000J0D01*
G01*
X86763700Y-109349300D01*
G75*
G02*
X86513700Y-109099300I0J250000D01*
G01*
X86513700Y-108299300D01*
G75*
G02*
X86763700Y-108049300I250000J0D01*
G01*
G37*
%TD*%
%TO.C,R38*%
G36*
G01*
X79143700Y-104949300D02*
X80393700Y-104949300D01*
G75*
G02*
X80643700Y-105199300I0J-250000D01*
G01*
X80643700Y-105999300D01*
G75*
G02*
X80393700Y-106249300I-250000J0D01*
G01*
X79143700Y-106249300D01*
G75*
G02*
X78893700Y-105999300I0J250000D01*
G01*
X78893700Y-105199300D01*
G75*
G02*
X79143700Y-104949300I250000J0D01*
G01*
G37*
G36*
G01*
X79143700Y-108049300D02*
X80393700Y-108049300D01*
G75*
G02*
X80643700Y-108299300I0J-250000D01*
G01*
X80643700Y-109099300D01*
G75*
G02*
X80393700Y-109349300I-250000J0D01*
G01*
X79143700Y-109349300D01*
G75*
G02*
X78893700Y-109099300I0J250000D01*
G01*
X78893700Y-108299300D01*
G75*
G02*
X79143700Y-108049300I250000J0D01*
G01*
G37*
%TD*%
%TO.C,R39*%
G36*
G01*
X53863400Y-112664000D02*
X52613400Y-112664000D01*
G75*
G02*
X52363400Y-112414000I0J250000D01*
G01*
X52363400Y-111614000D01*
G75*
G02*
X52613400Y-111364000I250000J0D01*
G01*
X53863400Y-111364000D01*
G75*
G02*
X54113400Y-111614000I0J-250000D01*
G01*
X54113400Y-112414000D01*
G75*
G02*
X53863400Y-112664000I-250000J0D01*
G01*
G37*
G36*
G01*
X53863400Y-115764000D02*
X52613400Y-115764000D01*
G75*
G02*
X52363400Y-115514000I0J250000D01*
G01*
X52363400Y-114714000D01*
G75*
G02*
X52613400Y-114464000I250000J0D01*
G01*
X53863400Y-114464000D01*
G75*
G02*
X54113400Y-114714000I0J-250000D01*
G01*
X54113400Y-115514000D01*
G75*
G02*
X53863400Y-115764000I-250000J0D01*
G01*
G37*
%TD*%
%TO.C,R40*%
G36*
G01*
X61483400Y-115764000D02*
X60233400Y-115764000D01*
G75*
G02*
X59983400Y-115514000I0J250000D01*
G01*
X59983400Y-114714000D01*
G75*
G02*
X60233400Y-114464000I250000J0D01*
G01*
X61483400Y-114464000D01*
G75*
G02*
X61733400Y-114714000I0J-250000D01*
G01*
X61733400Y-115514000D01*
G75*
G02*
X61483400Y-115764000I-250000J0D01*
G01*
G37*
G36*
G01*
X61483400Y-112664000D02*
X60233400Y-112664000D01*
G75*
G02*
X59983400Y-112414000I0J250000D01*
G01*
X59983400Y-111614000D01*
G75*
G02*
X60233400Y-111364000I250000J0D01*
G01*
X61483400Y-111364000D01*
G75*
G02*
X61733400Y-111614000I0J-250000D01*
G01*
X61733400Y-112414000D01*
G75*
G02*
X61483400Y-112664000I-250000J0D01*
G01*
G37*
%TD*%
%TO.C,R41*%
G36*
G01*
X60233400Y-104835000D02*
X61483400Y-104835000D01*
G75*
G02*
X61733400Y-105085000I0J-250000D01*
G01*
X61733400Y-105885000D01*
G75*
G02*
X61483400Y-106135000I-250000J0D01*
G01*
X60233400Y-106135000D01*
G75*
G02*
X59983400Y-105885000I0J250000D01*
G01*
X59983400Y-105085000D01*
G75*
G02*
X60233400Y-104835000I250000J0D01*
G01*
G37*
G36*
G01*
X60233400Y-107935000D02*
X61483400Y-107935000D01*
G75*
G02*
X61733400Y-108185000I0J-250000D01*
G01*
X61733400Y-108985000D01*
G75*
G02*
X61483400Y-109235000I-250000J0D01*
G01*
X60233400Y-109235000D01*
G75*
G02*
X59983400Y-108985000I0J250000D01*
G01*
X59983400Y-108185000D01*
G75*
G02*
X60233400Y-107935000I250000J0D01*
G01*
G37*
%TD*%
%TO.C,R42*%
G36*
G01*
X52613400Y-104835000D02*
X53863400Y-104835000D01*
G75*
G02*
X54113400Y-105085000I0J-250000D01*
G01*
X54113400Y-105885000D01*
G75*
G02*
X53863400Y-106135000I-250000J0D01*
G01*
X52613400Y-106135000D01*
G75*
G02*
X52363400Y-105885000I0J250000D01*
G01*
X52363400Y-105085000D01*
G75*
G02*
X52613400Y-104835000I250000J0D01*
G01*
G37*
G36*
G01*
X52613400Y-107935000D02*
X53863400Y-107935000D01*
G75*
G02*
X54113400Y-108185000I0J-250000D01*
G01*
X54113400Y-108985000D01*
G75*
G02*
X53863400Y-109235000I-250000J0D01*
G01*
X52613400Y-109235000D01*
G75*
G02*
X52363400Y-108985000I0J250000D01*
G01*
X52363400Y-108185000D01*
G75*
G02*
X52613400Y-107935000I250000J0D01*
G01*
G37*
%TD*%
%TO.C,R43*%
G36*
G01*
X80457200Y-93842600D02*
X79207200Y-93842600D01*
G75*
G02*
X78957200Y-93592600I0J250000D01*
G01*
X78957200Y-92792600D01*
G75*
G02*
X79207200Y-92542600I250000J0D01*
G01*
X80457200Y-92542600D01*
G75*
G02*
X80707200Y-92792600I0J-250000D01*
G01*
X80707200Y-93592600D01*
G75*
G02*
X80457200Y-93842600I-250000J0D01*
G01*
G37*
G36*
G01*
X80457200Y-96942600D02*
X79207200Y-96942600D01*
G75*
G02*
X78957200Y-96692600I0J250000D01*
G01*
X78957200Y-95892600D01*
G75*
G02*
X79207200Y-95642600I250000J0D01*
G01*
X80457200Y-95642600D01*
G75*
G02*
X80707200Y-95892600I0J-250000D01*
G01*
X80707200Y-96692600D01*
G75*
G02*
X80457200Y-96942600I-250000J0D01*
G01*
G37*
%TD*%
%TO.C,R44*%
G36*
G01*
X88204200Y-96942600D02*
X86954200Y-96942600D01*
G75*
G02*
X86704200Y-96692600I0J250000D01*
G01*
X86704200Y-95892600D01*
G75*
G02*
X86954200Y-95642600I250000J0D01*
G01*
X88204200Y-95642600D01*
G75*
G02*
X88454200Y-95892600I0J-250000D01*
G01*
X88454200Y-96692600D01*
G75*
G02*
X88204200Y-96942600I-250000J0D01*
G01*
G37*
G36*
G01*
X88204200Y-93842600D02*
X86954200Y-93842600D01*
G75*
G02*
X86704200Y-93592600I0J250000D01*
G01*
X86704200Y-92792600D01*
G75*
G02*
X86954200Y-92542600I250000J0D01*
G01*
X88204200Y-92542600D01*
G75*
G02*
X88454200Y-92792600I0J-250000D01*
G01*
X88454200Y-93592600D01*
G75*
G02*
X88204200Y-93842600I-250000J0D01*
G01*
G37*
%TD*%
%TO.C,R45*%
G36*
G01*
X86827200Y-86013600D02*
X88077200Y-86013600D01*
G75*
G02*
X88327200Y-86263600I0J-250000D01*
G01*
X88327200Y-87063600D01*
G75*
G02*
X88077200Y-87313600I-250000J0D01*
G01*
X86827200Y-87313600D01*
G75*
G02*
X86577200Y-87063600I0J250000D01*
G01*
X86577200Y-86263600D01*
G75*
G02*
X86827200Y-86013600I250000J0D01*
G01*
G37*
G36*
G01*
X86827200Y-89113600D02*
X88077200Y-89113600D01*
G75*
G02*
X88327200Y-89363600I0J-250000D01*
G01*
X88327200Y-90163600D01*
G75*
G02*
X88077200Y-90413600I-250000J0D01*
G01*
X86827200Y-90413600D01*
G75*
G02*
X86577200Y-90163600I0J250000D01*
G01*
X86577200Y-89363600D01*
G75*
G02*
X86827200Y-89113600I250000J0D01*
G01*
G37*
%TD*%
%TO.C,R46*%
G36*
G01*
X79207200Y-86013600D02*
X80457200Y-86013600D01*
G75*
G02*
X80707200Y-86263600I0J-250000D01*
G01*
X80707200Y-87063600D01*
G75*
G02*
X80457200Y-87313600I-250000J0D01*
G01*
X79207200Y-87313600D01*
G75*
G02*
X78957200Y-87063600I0J250000D01*
G01*
X78957200Y-86263600D01*
G75*
G02*
X79207200Y-86013600I250000J0D01*
G01*
G37*
G36*
G01*
X79207200Y-89113600D02*
X80457200Y-89113600D01*
G75*
G02*
X80707200Y-89363600I0J-250000D01*
G01*
X80707200Y-90163600D01*
G75*
G02*
X80457200Y-90413600I-250000J0D01*
G01*
X79207200Y-90413600D01*
G75*
G02*
X78957200Y-90163600I0J250000D01*
G01*
X78957200Y-89363600D01*
G75*
G02*
X79207200Y-89113600I250000J0D01*
G01*
G37*
%TD*%
%TO.C,R51*%
G36*
G01*
X157011200Y-122107800D02*
X157011200Y-123357800D01*
G75*
G02*
X156761200Y-123607800I-250000J0D01*
G01*
X155961200Y-123607800D01*
G75*
G02*
X155711200Y-123357800I0J250000D01*
G01*
X155711200Y-122107800D01*
G75*
G02*
X155961200Y-121857800I250000J0D01*
G01*
X156761200Y-121857800D01*
G75*
G02*
X157011200Y-122107800I0J-250000D01*
G01*
G37*
G36*
G01*
X160111200Y-122107800D02*
X160111200Y-123357800D01*
G75*
G02*
X159861200Y-123607800I-250000J0D01*
G01*
X159061200Y-123607800D01*
G75*
G02*
X158811200Y-123357800I0J250000D01*
G01*
X158811200Y-122107800D01*
G75*
G02*
X159061200Y-121857800I250000J0D01*
G01*
X159861200Y-121857800D01*
G75*
G02*
X160111200Y-122107800I0J-250000D01*
G01*
G37*
%TD*%
%TO.C,R52*%
G36*
G01*
X154422800Y-122107800D02*
X154422800Y-123357800D01*
G75*
G02*
X154172800Y-123607800I-250000J0D01*
G01*
X153372800Y-123607800D01*
G75*
G02*
X153122800Y-123357800I0J250000D01*
G01*
X153122800Y-122107800D01*
G75*
G02*
X153372800Y-121857800I250000J0D01*
G01*
X154172800Y-121857800D01*
G75*
G02*
X154422800Y-122107800I0J-250000D01*
G01*
G37*
G36*
G01*
X151322800Y-122107800D02*
X151322800Y-123357800D01*
G75*
G02*
X151072800Y-123607800I-250000J0D01*
G01*
X150272800Y-123607800D01*
G75*
G02*
X150022800Y-123357800I0J250000D01*
G01*
X150022800Y-122107800D01*
G75*
G02*
X150272800Y-121857800I250000J0D01*
G01*
X151072800Y-121857800D01*
G75*
G02*
X151322800Y-122107800I0J-250000D01*
G01*
G37*
%TD*%
%TO.C,R53*%
G36*
G01*
X145581200Y-122107800D02*
X145581200Y-123357800D01*
G75*
G02*
X145331200Y-123607800I-250000J0D01*
G01*
X144531200Y-123607800D01*
G75*
G02*
X144281200Y-123357800I0J250000D01*
G01*
X144281200Y-122107800D01*
G75*
G02*
X144531200Y-121857800I250000J0D01*
G01*
X145331200Y-121857800D01*
G75*
G02*
X145581200Y-122107800I0J-250000D01*
G01*
G37*
G36*
G01*
X148681200Y-122107800D02*
X148681200Y-123357800D01*
G75*
G02*
X148431200Y-123607800I-250000J0D01*
G01*
X147631200Y-123607800D01*
G75*
G02*
X147381200Y-123357800I0J250000D01*
G01*
X147381200Y-122107800D01*
G75*
G02*
X147631200Y-121857800I250000J0D01*
G01*
X148431200Y-121857800D01*
G75*
G02*
X148681200Y-122107800I0J-250000D01*
G01*
G37*
%TD*%
%TO.C,R54*%
G36*
G01*
X142940800Y-122107800D02*
X142940800Y-123357800D01*
G75*
G02*
X142690800Y-123607800I-250000J0D01*
G01*
X141890800Y-123607800D01*
G75*
G02*
X141640800Y-123357800I0J250000D01*
G01*
X141640800Y-122107800D01*
G75*
G02*
X141890800Y-121857800I250000J0D01*
G01*
X142690800Y-121857800D01*
G75*
G02*
X142940800Y-122107800I0J-250000D01*
G01*
G37*
G36*
G01*
X139840800Y-122107800D02*
X139840800Y-123357800D01*
G75*
G02*
X139590800Y-123607800I-250000J0D01*
G01*
X138790800Y-123607800D01*
G75*
G02*
X138540800Y-123357800I0J250000D01*
G01*
X138540800Y-122107800D01*
G75*
G02*
X138790800Y-121857800I250000J0D01*
G01*
X139590800Y-121857800D01*
G75*
G02*
X139840800Y-122107800I0J-250000D01*
G01*
G37*
%TD*%
%TO.C,R55*%
G36*
G01*
X53863400Y-93677500D02*
X52613400Y-93677500D01*
G75*
G02*
X52363400Y-93427500I0J250000D01*
G01*
X52363400Y-92627500D01*
G75*
G02*
X52613400Y-92377500I250000J0D01*
G01*
X53863400Y-92377500D01*
G75*
G02*
X54113400Y-92627500I0J-250000D01*
G01*
X54113400Y-93427500D01*
G75*
G02*
X53863400Y-93677500I-250000J0D01*
G01*
G37*
G36*
G01*
X53863400Y-96777500D02*
X52613400Y-96777500D01*
G75*
G02*
X52363400Y-96527500I0J250000D01*
G01*
X52363400Y-95727500D01*
G75*
G02*
X52613400Y-95477500I250000J0D01*
G01*
X53863400Y-95477500D01*
G75*
G02*
X54113400Y-95727500I0J-250000D01*
G01*
X54113400Y-96527500D01*
G75*
G02*
X53863400Y-96777500I-250000J0D01*
G01*
G37*
%TD*%
%TO.C,R56*%
G36*
G01*
X61610400Y-96777500D02*
X60360400Y-96777500D01*
G75*
G02*
X60110400Y-96527500I0J250000D01*
G01*
X60110400Y-95727500D01*
G75*
G02*
X60360400Y-95477500I250000J0D01*
G01*
X61610400Y-95477500D01*
G75*
G02*
X61860400Y-95727500I0J-250000D01*
G01*
X61860400Y-96527500D01*
G75*
G02*
X61610400Y-96777500I-250000J0D01*
G01*
G37*
G36*
G01*
X61610400Y-93677500D02*
X60360400Y-93677500D01*
G75*
G02*
X60110400Y-93427500I0J250000D01*
G01*
X60110400Y-92627500D01*
G75*
G02*
X60360400Y-92377500I250000J0D01*
G01*
X61610400Y-92377500D01*
G75*
G02*
X61860400Y-92627500I0J-250000D01*
G01*
X61860400Y-93427500D01*
G75*
G02*
X61610400Y-93677500I-250000J0D01*
G01*
G37*
%TD*%
%TO.C,R57*%
G36*
G01*
X60360400Y-88948500D02*
X61610400Y-88948500D01*
G75*
G02*
X61860400Y-89198500I0J-250000D01*
G01*
X61860400Y-89998500D01*
G75*
G02*
X61610400Y-90248500I-250000J0D01*
G01*
X60360400Y-90248500D01*
G75*
G02*
X60110400Y-89998500I0J250000D01*
G01*
X60110400Y-89198500D01*
G75*
G02*
X60360400Y-88948500I250000J0D01*
G01*
G37*
G36*
G01*
X60360400Y-85848500D02*
X61610400Y-85848500D01*
G75*
G02*
X61860400Y-86098500I0J-250000D01*
G01*
X61860400Y-86898500D01*
G75*
G02*
X61610400Y-87148500I-250000J0D01*
G01*
X60360400Y-87148500D01*
G75*
G02*
X60110400Y-86898500I0J250000D01*
G01*
X60110400Y-86098500D01*
G75*
G02*
X60360400Y-85848500I250000J0D01*
G01*
G37*
%TD*%
%TO.C,R58*%
G36*
G01*
X52613400Y-85848500D02*
X53863400Y-85848500D01*
G75*
G02*
X54113400Y-86098500I0J-250000D01*
G01*
X54113400Y-86898500D01*
G75*
G02*
X53863400Y-87148500I-250000J0D01*
G01*
X52613400Y-87148500D01*
G75*
G02*
X52363400Y-86898500I0J250000D01*
G01*
X52363400Y-86098500D01*
G75*
G02*
X52613400Y-85848500I250000J0D01*
G01*
G37*
G36*
G01*
X52613400Y-88948500D02*
X53863400Y-88948500D01*
G75*
G02*
X54113400Y-89198500I0J-250000D01*
G01*
X54113400Y-89998500D01*
G75*
G02*
X53863400Y-90248500I-250000J0D01*
G01*
X52613400Y-90248500D01*
G75*
G02*
X52363400Y-89998500I0J250000D01*
G01*
X52363400Y-89198500D01*
G75*
G02*
X52613400Y-88948500I250000J0D01*
G01*
G37*
%TD*%
%TO.C,R59*%
G36*
G01*
X46903800Y-77244900D02*
X45653800Y-77244900D01*
G75*
G02*
X45403800Y-76994900I0J250000D01*
G01*
X45403800Y-76194900D01*
G75*
G02*
X45653800Y-75944900I250000J0D01*
G01*
X46903800Y-75944900D01*
G75*
G02*
X47153800Y-76194900I0J-250000D01*
G01*
X47153800Y-76994900D01*
G75*
G02*
X46903800Y-77244900I-250000J0D01*
G01*
G37*
G36*
G01*
X46903800Y-74144900D02*
X45653800Y-74144900D01*
G75*
G02*
X45403800Y-73894900I0J250000D01*
G01*
X45403800Y-73094900D01*
G75*
G02*
X45653800Y-72844900I250000J0D01*
G01*
X46903800Y-72844900D01*
G75*
G02*
X47153800Y-73094900I0J-250000D01*
G01*
X47153800Y-73894900D01*
G75*
G02*
X46903800Y-74144900I-250000J0D01*
G01*
G37*
%TD*%
%TO.C,R60*%
G36*
G01*
X54650800Y-74144900D02*
X53400800Y-74144900D01*
G75*
G02*
X53150800Y-73894900I0J250000D01*
G01*
X53150800Y-73094900D01*
G75*
G02*
X53400800Y-72844900I250000J0D01*
G01*
X54650800Y-72844900D01*
G75*
G02*
X54900800Y-73094900I0J-250000D01*
G01*
X54900800Y-73894900D01*
G75*
G02*
X54650800Y-74144900I-250000J0D01*
G01*
G37*
G36*
G01*
X54650800Y-77244900D02*
X53400800Y-77244900D01*
G75*
G02*
X53150800Y-76994900I0J250000D01*
G01*
X53150800Y-76194900D01*
G75*
G02*
X53400800Y-75944900I250000J0D01*
G01*
X54650800Y-75944900D01*
G75*
G02*
X54900800Y-76194900I0J-250000D01*
G01*
X54900800Y-76994900D01*
G75*
G02*
X54650800Y-77244900I-250000J0D01*
G01*
G37*
%TD*%
%TO.C,R61*%
G36*
G01*
X53400800Y-66748900D02*
X54650800Y-66748900D01*
G75*
G02*
X54900800Y-66998900I0J-250000D01*
G01*
X54900800Y-67798900D01*
G75*
G02*
X54650800Y-68048900I-250000J0D01*
G01*
X53400800Y-68048900D01*
G75*
G02*
X53150800Y-67798900I0J250000D01*
G01*
X53150800Y-66998900D01*
G75*
G02*
X53400800Y-66748900I250000J0D01*
G01*
G37*
G36*
G01*
X53400800Y-69848900D02*
X54650800Y-69848900D01*
G75*
G02*
X54900800Y-70098900I0J-250000D01*
G01*
X54900800Y-70898900D01*
G75*
G02*
X54650800Y-71148900I-250000J0D01*
G01*
X53400800Y-71148900D01*
G75*
G02*
X53150800Y-70898900I0J250000D01*
G01*
X53150800Y-70098900D01*
G75*
G02*
X53400800Y-69848900I250000J0D01*
G01*
G37*
%TD*%
%TO.C,R62*%
G36*
G01*
X45653800Y-69796900D02*
X46903800Y-69796900D01*
G75*
G02*
X47153800Y-70046900I0J-250000D01*
G01*
X47153800Y-70846900D01*
G75*
G02*
X46903800Y-71096900I-250000J0D01*
G01*
X45653800Y-71096900D01*
G75*
G02*
X45403800Y-70846900I0J250000D01*
G01*
X45403800Y-70046900D01*
G75*
G02*
X45653800Y-69796900I250000J0D01*
G01*
G37*
G36*
G01*
X45653800Y-66696900D02*
X46903800Y-66696900D01*
G75*
G02*
X47153800Y-66946900I0J-250000D01*
G01*
X47153800Y-67746900D01*
G75*
G02*
X46903800Y-67996900I-250000J0D01*
G01*
X45653800Y-67996900D01*
G75*
G02*
X45403800Y-67746900I0J250000D01*
G01*
X45403800Y-66946900D01*
G75*
G02*
X45653800Y-66696900I250000J0D01*
G01*
G37*
%TD*%
%TO.C,R67*%
G36*
G01*
X158811200Y-120411400D02*
X158811200Y-119161400D01*
G75*
G02*
X159061200Y-118911400I250000J0D01*
G01*
X159861200Y-118911400D01*
G75*
G02*
X160111200Y-119161400I0J-250000D01*
G01*
X160111200Y-120411400D01*
G75*
G02*
X159861200Y-120661400I-250000J0D01*
G01*
X159061200Y-120661400D01*
G75*
G02*
X158811200Y-120411400I0J250000D01*
G01*
G37*
G36*
G01*
X155711200Y-120411400D02*
X155711200Y-119161400D01*
G75*
G02*
X155961200Y-118911400I250000J0D01*
G01*
X156761200Y-118911400D01*
G75*
G02*
X157011200Y-119161400I0J-250000D01*
G01*
X157011200Y-120411400D01*
G75*
G02*
X156761200Y-120661400I-250000J0D01*
G01*
X155961200Y-120661400D01*
G75*
G02*
X155711200Y-120411400I0J250000D01*
G01*
G37*
%TD*%
%TO.C,R68*%
G36*
G01*
X150021600Y-120411400D02*
X150021600Y-119161400D01*
G75*
G02*
X150271600Y-118911400I250000J0D01*
G01*
X151071600Y-118911400D01*
G75*
G02*
X151321600Y-119161400I0J-250000D01*
G01*
X151321600Y-120411400D01*
G75*
G02*
X151071600Y-120661400I-250000J0D01*
G01*
X150271600Y-120661400D01*
G75*
G02*
X150021600Y-120411400I0J250000D01*
G01*
G37*
G36*
G01*
X153121600Y-120411400D02*
X153121600Y-119161400D01*
G75*
G02*
X153371600Y-118911400I250000J0D01*
G01*
X154171600Y-118911400D01*
G75*
G02*
X154421600Y-119161400I0J-250000D01*
G01*
X154421600Y-120411400D01*
G75*
G02*
X154171600Y-120661400I-250000J0D01*
G01*
X153371600Y-120661400D01*
G75*
G02*
X153121600Y-120411400I0J250000D01*
G01*
G37*
%TD*%
%TO.C,R69*%
G36*
G01*
X144230400Y-120411400D02*
X144230400Y-119161400D01*
G75*
G02*
X144480400Y-118911400I250000J0D01*
G01*
X145280400Y-118911400D01*
G75*
G02*
X145530400Y-119161400I0J-250000D01*
G01*
X145530400Y-120411400D01*
G75*
G02*
X145280400Y-120661400I-250000J0D01*
G01*
X144480400Y-120661400D01*
G75*
G02*
X144230400Y-120411400I0J250000D01*
G01*
G37*
G36*
G01*
X147330400Y-120411400D02*
X147330400Y-119161400D01*
G75*
G02*
X147580400Y-118911400I250000J0D01*
G01*
X148380400Y-118911400D01*
G75*
G02*
X148630400Y-119161400I0J-250000D01*
G01*
X148630400Y-120411400D01*
G75*
G02*
X148380400Y-120661400I-250000J0D01*
G01*
X147580400Y-120661400D01*
G75*
G02*
X147330400Y-120411400I0J250000D01*
G01*
G37*
%TD*%
%TO.C,R70*%
G36*
G01*
X141640800Y-120411400D02*
X141640800Y-119161400D01*
G75*
G02*
X141890800Y-118911400I250000J0D01*
G01*
X142690800Y-118911400D01*
G75*
G02*
X142940800Y-119161400I0J-250000D01*
G01*
X142940800Y-120411400D01*
G75*
G02*
X142690800Y-120661400I-250000J0D01*
G01*
X141890800Y-120661400D01*
G75*
G02*
X141640800Y-120411400I0J250000D01*
G01*
G37*
G36*
G01*
X138540800Y-120411400D02*
X138540800Y-119161400D01*
G75*
G02*
X138790800Y-118911400I250000J0D01*
G01*
X139590800Y-118911400D01*
G75*
G02*
X139840800Y-119161400I0J-250000D01*
G01*
X139840800Y-120411400D01*
G75*
G02*
X139590800Y-120661400I-250000J0D01*
G01*
X138790800Y-120661400D01*
G75*
G02*
X138540800Y-120411400I0J250000D01*
G01*
G37*
%TD*%
%TO.C,R71*%
G36*
G01*
X169407600Y-121599800D02*
X169407600Y-122849800D01*
G75*
G02*
X169157600Y-123099800I-250000J0D01*
G01*
X168357600Y-123099800D01*
G75*
G02*
X168107600Y-122849800I0J250000D01*
G01*
X168107600Y-121599800D01*
G75*
G02*
X168357600Y-121349800I250000J0D01*
G01*
X169157600Y-121349800D01*
G75*
G02*
X169407600Y-121599800I0J-250000D01*
G01*
G37*
G36*
G01*
X166307600Y-121599800D02*
X166307600Y-122849800D01*
G75*
G02*
X166057600Y-123099800I-250000J0D01*
G01*
X165257600Y-123099800D01*
G75*
G02*
X165007600Y-122849800I0J250000D01*
G01*
X165007600Y-121599800D01*
G75*
G02*
X165257600Y-121349800I250000J0D01*
G01*
X166057600Y-121349800D01*
G75*
G02*
X166307600Y-121599800I0J-250000D01*
G01*
G37*
%TD*%
%TO.C,R72*%
G36*
G01*
X172048000Y-121599800D02*
X172048000Y-122849800D01*
G75*
G02*
X171798000Y-123099800I-250000J0D01*
G01*
X170998000Y-123099800D01*
G75*
G02*
X170748000Y-122849800I0J250000D01*
G01*
X170748000Y-121599800D01*
G75*
G02*
X170998000Y-121349800I250000J0D01*
G01*
X171798000Y-121349800D01*
G75*
G02*
X172048000Y-121599800I0J-250000D01*
G01*
G37*
G36*
G01*
X175148000Y-121599800D02*
X175148000Y-122849800D01*
G75*
G02*
X174898000Y-123099800I-250000J0D01*
G01*
X174098000Y-123099800D01*
G75*
G02*
X173848000Y-122849800I0J250000D01*
G01*
X173848000Y-121599800D01*
G75*
G02*
X174098000Y-121349800I250000J0D01*
G01*
X174898000Y-121349800D01*
G75*
G02*
X175148000Y-121599800I0J-250000D01*
G01*
G37*
%TD*%
%TO.C,R73*%
G36*
G01*
X180838800Y-121599800D02*
X180838800Y-122849800D01*
G75*
G02*
X180588800Y-123099800I-250000J0D01*
G01*
X179788800Y-123099800D01*
G75*
G02*
X179538800Y-122849800I0J250000D01*
G01*
X179538800Y-121599800D01*
G75*
G02*
X179788800Y-121349800I250000J0D01*
G01*
X180588800Y-121349800D01*
G75*
G02*
X180838800Y-121599800I0J-250000D01*
G01*
G37*
G36*
G01*
X177738800Y-121599800D02*
X177738800Y-122849800D01*
G75*
G02*
X177488800Y-123099800I-250000J0D01*
G01*
X176688800Y-123099800D01*
G75*
G02*
X176438800Y-122849800I0J250000D01*
G01*
X176438800Y-121599800D01*
G75*
G02*
X176688800Y-121349800I250000J0D01*
G01*
X177488800Y-121349800D01*
G75*
G02*
X177738800Y-121599800I0J-250000D01*
G01*
G37*
%TD*%
%TO.C,R74*%
G36*
G01*
X183427200Y-121549000D02*
X183427200Y-122799000D01*
G75*
G02*
X183177200Y-123049000I-250000J0D01*
G01*
X182377200Y-123049000D01*
G75*
G02*
X182127200Y-122799000I0J250000D01*
G01*
X182127200Y-121549000D01*
G75*
G02*
X182377200Y-121299000I250000J0D01*
G01*
X183177200Y-121299000D01*
G75*
G02*
X183427200Y-121549000I0J-250000D01*
G01*
G37*
G36*
G01*
X186527200Y-121549000D02*
X186527200Y-122799000D01*
G75*
G02*
X186277200Y-123049000I-250000J0D01*
G01*
X185477200Y-123049000D01*
G75*
G02*
X185227200Y-122799000I0J250000D01*
G01*
X185227200Y-121549000D01*
G75*
G02*
X185477200Y-121299000I250000J0D01*
G01*
X186277200Y-121299000D01*
G75*
G02*
X186527200Y-121549000I0J-250000D01*
G01*
G37*
%TD*%
%TO.C,R75*%
G36*
G01*
X221936000Y-122361800D02*
X221936000Y-123611800D01*
G75*
G02*
X221686000Y-123861800I-250000J0D01*
G01*
X220886000Y-123861800D01*
G75*
G02*
X220636000Y-123611800I0J250000D01*
G01*
X220636000Y-122361800D01*
G75*
G02*
X220886000Y-122111800I250000J0D01*
G01*
X221686000Y-122111800D01*
G75*
G02*
X221936000Y-122361800I0J-250000D01*
G01*
G37*
G36*
G01*
X218836000Y-122361800D02*
X218836000Y-123611800D01*
G75*
G02*
X218586000Y-123861800I-250000J0D01*
G01*
X217786000Y-123861800D01*
G75*
G02*
X217536000Y-123611800I0J250000D01*
G01*
X217536000Y-122361800D01*
G75*
G02*
X217786000Y-122111800I250000J0D01*
G01*
X218586000Y-122111800D01*
G75*
G02*
X218836000Y-122361800I0J-250000D01*
G01*
G37*
%TD*%
%TO.C,R76*%
G36*
G01*
X212740000Y-122260200D02*
X212740000Y-123510200D01*
G75*
G02*
X212490000Y-123760200I-250000J0D01*
G01*
X211690000Y-123760200D01*
G75*
G02*
X211440000Y-123510200I0J250000D01*
G01*
X211440000Y-122260200D01*
G75*
G02*
X211690000Y-122010200I250000J0D01*
G01*
X212490000Y-122010200D01*
G75*
G02*
X212740000Y-122260200I0J-250000D01*
G01*
G37*
G36*
G01*
X215840000Y-122260200D02*
X215840000Y-123510200D01*
G75*
G02*
X215590000Y-123760200I-250000J0D01*
G01*
X214790000Y-123760200D01*
G75*
G02*
X214540000Y-123510200I0J250000D01*
G01*
X214540000Y-122260200D01*
G75*
G02*
X214790000Y-122010200I250000J0D01*
G01*
X215590000Y-122010200D01*
G75*
G02*
X215840000Y-122260200I0J-250000D01*
G01*
G37*
%TD*%
%TO.C,R77*%
G36*
G01*
X209718000Y-122260200D02*
X209718000Y-123510200D01*
G75*
G02*
X209468000Y-123760200I-250000J0D01*
G01*
X208668000Y-123760200D01*
G75*
G02*
X208418000Y-123510200I0J250000D01*
G01*
X208418000Y-122260200D01*
G75*
G02*
X208668000Y-122010200I250000J0D01*
G01*
X209468000Y-122010200D01*
G75*
G02*
X209718000Y-122260200I0J-250000D01*
G01*
G37*
G36*
G01*
X206618000Y-122260200D02*
X206618000Y-123510200D01*
G75*
G02*
X206368000Y-123760200I-250000J0D01*
G01*
X205568000Y-123760200D01*
G75*
G02*
X205318000Y-123510200I0J250000D01*
G01*
X205318000Y-122260200D01*
G75*
G02*
X205568000Y-122010200I250000J0D01*
G01*
X206368000Y-122010200D01*
G75*
G02*
X206618000Y-122260200I0J-250000D01*
G01*
G37*
%TD*%
%TO.C,R78*%
G36*
G01*
X200598800Y-122260200D02*
X200598800Y-123510200D01*
G75*
G02*
X200348800Y-123760200I-250000J0D01*
G01*
X199548800Y-123760200D01*
G75*
G02*
X199298800Y-123510200I0J250000D01*
G01*
X199298800Y-122260200D01*
G75*
G02*
X199548800Y-122010200I250000J0D01*
G01*
X200348800Y-122010200D01*
G75*
G02*
X200598800Y-122260200I0J-250000D01*
G01*
G37*
G36*
G01*
X203698800Y-122260200D02*
X203698800Y-123510200D01*
G75*
G02*
X203448800Y-123760200I-250000J0D01*
G01*
X202648800Y-123760200D01*
G75*
G02*
X202398800Y-123510200I0J250000D01*
G01*
X202398800Y-122260200D01*
G75*
G02*
X202648800Y-122010200I250000J0D01*
G01*
X203448800Y-122010200D01*
G75*
G02*
X203698800Y-122260200I0J-250000D01*
G01*
G37*
%TD*%
%TO.C,R79*%
G36*
G01*
X168107600Y-125593000D02*
X168107600Y-124343000D01*
G75*
G02*
X168357600Y-124093000I250000J0D01*
G01*
X169157600Y-124093000D01*
G75*
G02*
X169407600Y-124343000I0J-250000D01*
G01*
X169407600Y-125593000D01*
G75*
G02*
X169157600Y-125843000I-250000J0D01*
G01*
X168357600Y-125843000D01*
G75*
G02*
X168107600Y-125593000I0J250000D01*
G01*
G37*
G36*
G01*
X165007600Y-125593000D02*
X165007600Y-124343000D01*
G75*
G02*
X165257600Y-124093000I250000J0D01*
G01*
X166057600Y-124093000D01*
G75*
G02*
X166307600Y-124343000I0J-250000D01*
G01*
X166307600Y-125593000D01*
G75*
G02*
X166057600Y-125843000I-250000J0D01*
G01*
X165257600Y-125843000D01*
G75*
G02*
X165007600Y-125593000I0J250000D01*
G01*
G37*
%TD*%
%TO.C,R80*%
G36*
G01*
X170697200Y-125593000D02*
X170697200Y-124343000D01*
G75*
G02*
X170947200Y-124093000I250000J0D01*
G01*
X171747200Y-124093000D01*
G75*
G02*
X171997200Y-124343000I0J-250000D01*
G01*
X171997200Y-125593000D01*
G75*
G02*
X171747200Y-125843000I-250000J0D01*
G01*
X170947200Y-125843000D01*
G75*
G02*
X170697200Y-125593000I0J250000D01*
G01*
G37*
G36*
G01*
X173797200Y-125593000D02*
X173797200Y-124343000D01*
G75*
G02*
X174047200Y-124093000I250000J0D01*
G01*
X174847200Y-124093000D01*
G75*
G02*
X175097200Y-124343000I0J-250000D01*
G01*
X175097200Y-125593000D01*
G75*
G02*
X174847200Y-125843000I-250000J0D01*
G01*
X174047200Y-125843000D01*
G75*
G02*
X173797200Y-125593000I0J250000D01*
G01*
G37*
%TD*%
%TO.C,R81*%
G36*
G01*
X179537600Y-125542200D02*
X179537600Y-124292200D01*
G75*
G02*
X179787600Y-124042200I250000J0D01*
G01*
X180587600Y-124042200D01*
G75*
G02*
X180837600Y-124292200I0J-250000D01*
G01*
X180837600Y-125542200D01*
G75*
G02*
X180587600Y-125792200I-250000J0D01*
G01*
X179787600Y-125792200D01*
G75*
G02*
X179537600Y-125542200I0J250000D01*
G01*
G37*
G36*
G01*
X176437600Y-125542200D02*
X176437600Y-124292200D01*
G75*
G02*
X176687600Y-124042200I250000J0D01*
G01*
X177487600Y-124042200D01*
G75*
G02*
X177737600Y-124292200I0J-250000D01*
G01*
X177737600Y-125542200D01*
G75*
G02*
X177487600Y-125792200I-250000J0D01*
G01*
X176687600Y-125792200D01*
G75*
G02*
X176437600Y-125542200I0J250000D01*
G01*
G37*
%TD*%
%TO.C,R82*%
G36*
G01*
X182127200Y-125542200D02*
X182127200Y-124292200D01*
G75*
G02*
X182377200Y-124042200I250000J0D01*
G01*
X183177200Y-124042200D01*
G75*
G02*
X183427200Y-124292200I0J-250000D01*
G01*
X183427200Y-125542200D01*
G75*
G02*
X183177200Y-125792200I-250000J0D01*
G01*
X182377200Y-125792200D01*
G75*
G02*
X182127200Y-125542200I0J250000D01*
G01*
G37*
G36*
G01*
X185227200Y-125542200D02*
X185227200Y-124292200D01*
G75*
G02*
X185477200Y-124042200I250000J0D01*
G01*
X186277200Y-124042200D01*
G75*
G02*
X186527200Y-124292200I0J-250000D01*
G01*
X186527200Y-125542200D01*
G75*
G02*
X186277200Y-125792200I-250000J0D01*
G01*
X185477200Y-125792200D01*
G75*
G02*
X185227200Y-125542200I0J250000D01*
G01*
G37*
%TD*%
%TO.C,R83*%
G36*
G01*
X217534800Y-120462200D02*
X217534800Y-119212200D01*
G75*
G02*
X217784800Y-118962200I250000J0D01*
G01*
X218584800Y-118962200D01*
G75*
G02*
X218834800Y-119212200I0J-250000D01*
G01*
X218834800Y-120462200D01*
G75*
G02*
X218584800Y-120712200I-250000J0D01*
G01*
X217784800Y-120712200D01*
G75*
G02*
X217534800Y-120462200I0J250000D01*
G01*
G37*
G36*
G01*
X220634800Y-120462200D02*
X220634800Y-119212200D01*
G75*
G02*
X220884800Y-118962200I250000J0D01*
G01*
X221684800Y-118962200D01*
G75*
G02*
X221934800Y-119212200I0J-250000D01*
G01*
X221934800Y-120462200D01*
G75*
G02*
X221684800Y-120712200I-250000J0D01*
G01*
X220884800Y-120712200D01*
G75*
G02*
X220634800Y-120462200I0J250000D01*
G01*
G37*
%TD*%
%TO.C,R84*%
G36*
G01*
X214538800Y-120462200D02*
X214538800Y-119212200D01*
G75*
G02*
X214788800Y-118962200I250000J0D01*
G01*
X215588800Y-118962200D01*
G75*
G02*
X215838800Y-119212200I0J-250000D01*
G01*
X215838800Y-120462200D01*
G75*
G02*
X215588800Y-120712200I-250000J0D01*
G01*
X214788800Y-120712200D01*
G75*
G02*
X214538800Y-120462200I0J250000D01*
G01*
G37*
G36*
G01*
X211438800Y-120462200D02*
X211438800Y-119212200D01*
G75*
G02*
X211688800Y-118962200I250000J0D01*
G01*
X212488800Y-118962200D01*
G75*
G02*
X212738800Y-119212200I0J-250000D01*
G01*
X212738800Y-120462200D01*
G75*
G02*
X212488800Y-120712200I-250000J0D01*
G01*
X211688800Y-120712200D01*
G75*
G02*
X211438800Y-120462200I0J250000D01*
G01*
G37*
%TD*%
%TO.C,R85*%
G36*
G01*
X205292000Y-120462200D02*
X205292000Y-119212200D01*
G75*
G02*
X205542000Y-118962200I250000J0D01*
G01*
X206342000Y-118962200D01*
G75*
G02*
X206592000Y-119212200I0J-250000D01*
G01*
X206592000Y-120462200D01*
G75*
G02*
X206342000Y-120712200I-250000J0D01*
G01*
X205542000Y-120712200D01*
G75*
G02*
X205292000Y-120462200I0J250000D01*
G01*
G37*
G36*
G01*
X208392000Y-120462200D02*
X208392000Y-119212200D01*
G75*
G02*
X208642000Y-118962200I250000J0D01*
G01*
X209442000Y-118962200D01*
G75*
G02*
X209692000Y-119212200I0J-250000D01*
G01*
X209692000Y-120462200D01*
G75*
G02*
X209442000Y-120712200I-250000J0D01*
G01*
X208642000Y-120712200D01*
G75*
G02*
X208392000Y-120462200I0J250000D01*
G01*
G37*
%TD*%
%TO.C,R86*%
G36*
G01*
X202397600Y-120462200D02*
X202397600Y-119212200D01*
G75*
G02*
X202647600Y-118962200I250000J0D01*
G01*
X203447600Y-118962200D01*
G75*
G02*
X203697600Y-119212200I0J-250000D01*
G01*
X203697600Y-120462200D01*
G75*
G02*
X203447600Y-120712200I-250000J0D01*
G01*
X202647600Y-120712200D01*
G75*
G02*
X202397600Y-120462200I0J250000D01*
G01*
G37*
G36*
G01*
X199297600Y-120462200D02*
X199297600Y-119212200D01*
G75*
G02*
X199547600Y-118962200I250000J0D01*
G01*
X200347600Y-118962200D01*
G75*
G02*
X200597600Y-119212200I0J-250000D01*
G01*
X200597600Y-120462200D01*
G75*
G02*
X200347600Y-120712200I-250000J0D01*
G01*
X199547600Y-120712200D01*
G75*
G02*
X199297600Y-120462200I0J250000D01*
G01*
G37*
%TD*%
%TO.C,R87*%
G36*
G01*
X236128000Y-36581501D02*
X236128000Y-35681499D01*
G75*
G02*
X236377999Y-35431500I249999J0D01*
G01*
X237078001Y-35431500D01*
G75*
G02*
X237328000Y-35681499I0J-249999D01*
G01*
X237328000Y-36581501D01*
G75*
G02*
X237078001Y-36831500I-249999J0D01*
G01*
X236377999Y-36831500D01*
G75*
G02*
X236128000Y-36581501I0J249999D01*
G01*
G37*
G36*
G01*
X234128000Y-36581501D02*
X234128000Y-35681499D01*
G75*
G02*
X234377999Y-35431500I249999J0D01*
G01*
X235078001Y-35431500D01*
G75*
G02*
X235328000Y-35681499I0J-249999D01*
G01*
X235328000Y-36581501D01*
G75*
G02*
X235078001Y-36831500I-249999J0D01*
G01*
X234377999Y-36831500D01*
G75*
G02*
X234128000Y-36581501I0J249999D01*
G01*
G37*
%TD*%
%TO.C,R88*%
G36*
G01*
X236840000Y-47170500D02*
X236840000Y-45920500D01*
G75*
G02*
X237090000Y-45670500I250000J0D01*
G01*
X237890000Y-45670500D01*
G75*
G02*
X238140000Y-45920500I0J-250000D01*
G01*
X238140000Y-47170500D01*
G75*
G02*
X237890000Y-47420500I-250000J0D01*
G01*
X237090000Y-47420500D01*
G75*
G02*
X236840000Y-47170500I0J250000D01*
G01*
G37*
G36*
G01*
X233740000Y-47170500D02*
X233740000Y-45920500D01*
G75*
G02*
X233990000Y-45670500I250000J0D01*
G01*
X234790000Y-45670500D01*
G75*
G02*
X235040000Y-45920500I0J-250000D01*
G01*
X235040000Y-47170500D01*
G75*
G02*
X234790000Y-47420500I-250000J0D01*
G01*
X233990000Y-47420500D01*
G75*
G02*
X233740000Y-47170500I0J250000D01*
G01*
G37*
%TD*%
%TO.C,R89*%
G36*
G01*
X234382000Y-57409501D02*
X234382000Y-56509499D01*
G75*
G02*
X234631999Y-56259500I249999J0D01*
G01*
X235332001Y-56259500D01*
G75*
G02*
X235582000Y-56509499I0J-249999D01*
G01*
X235582000Y-57409501D01*
G75*
G02*
X235332001Y-57659500I-249999J0D01*
G01*
X234631999Y-57659500D01*
G75*
G02*
X234382000Y-57409501I0J249999D01*
G01*
G37*
G36*
G01*
X236382000Y-57409501D02*
X236382000Y-56509499D01*
G75*
G02*
X236631999Y-56259500I249999J0D01*
G01*
X237332001Y-56259500D01*
G75*
G02*
X237582000Y-56509499I0J-249999D01*
G01*
X237582000Y-57409501D01*
G75*
G02*
X237332001Y-57659500I-249999J0D01*
G01*
X236631999Y-57659500D01*
G75*
G02*
X236382000Y-57409501I0J249999D01*
G01*
G37*
%TD*%
%TO.C,R90*%
G36*
G01*
X233740000Y-67744500D02*
X233740000Y-66494500D01*
G75*
G02*
X233990000Y-66244500I250000J0D01*
G01*
X234790000Y-66244500D01*
G75*
G02*
X235040000Y-66494500I0J-250000D01*
G01*
X235040000Y-67744500D01*
G75*
G02*
X234790000Y-67994500I-250000J0D01*
G01*
X233990000Y-67994500D01*
G75*
G02*
X233740000Y-67744500I0J250000D01*
G01*
G37*
G36*
G01*
X236840000Y-67744500D02*
X236840000Y-66494500D01*
G75*
G02*
X237090000Y-66244500I250000J0D01*
G01*
X237890000Y-66244500D01*
G75*
G02*
X238140000Y-66494500I0J-250000D01*
G01*
X238140000Y-67744500D01*
G75*
G02*
X237890000Y-67994500I-250000J0D01*
G01*
X237090000Y-67994500D01*
G75*
G02*
X236840000Y-67744500I0J250000D01*
G01*
G37*
%TD*%
%TO.C,R91*%
G36*
G01*
X234382000Y-77983501D02*
X234382000Y-77083499D01*
G75*
G02*
X234631999Y-76833500I249999J0D01*
G01*
X235332001Y-76833500D01*
G75*
G02*
X235582000Y-77083499I0J-249999D01*
G01*
X235582000Y-77983501D01*
G75*
G02*
X235332001Y-78233500I-249999J0D01*
G01*
X234631999Y-78233500D01*
G75*
G02*
X234382000Y-77983501I0J249999D01*
G01*
G37*
G36*
G01*
X236382000Y-77983501D02*
X236382000Y-77083499D01*
G75*
G02*
X236631999Y-76833500I249999J0D01*
G01*
X237332001Y-76833500D01*
G75*
G02*
X237582000Y-77083499I0J-249999D01*
G01*
X237582000Y-77983501D01*
G75*
G02*
X237332001Y-78233500I-249999J0D01*
G01*
X236631999Y-78233500D01*
G75*
G02*
X236382000Y-77983501I0J249999D01*
G01*
G37*
%TD*%
%TO.C,R92*%
G36*
G01*
X236840000Y-88572500D02*
X236840000Y-87322500D01*
G75*
G02*
X237090000Y-87072500I250000J0D01*
G01*
X237890000Y-87072500D01*
G75*
G02*
X238140000Y-87322500I0J-250000D01*
G01*
X238140000Y-88572500D01*
G75*
G02*
X237890000Y-88822500I-250000J0D01*
G01*
X237090000Y-88822500D01*
G75*
G02*
X236840000Y-88572500I0J250000D01*
G01*
G37*
G36*
G01*
X233740000Y-88572500D02*
X233740000Y-87322500D01*
G75*
G02*
X233990000Y-87072500I250000J0D01*
G01*
X234790000Y-87072500D01*
G75*
G02*
X235040000Y-87322500I0J-250000D01*
G01*
X235040000Y-88572500D01*
G75*
G02*
X234790000Y-88822500I-250000J0D01*
G01*
X233990000Y-88822500D01*
G75*
G02*
X233740000Y-88572500I0J250000D01*
G01*
G37*
%TD*%
%TO.C,R93*%
G36*
G01*
X234128000Y-98811501D02*
X234128000Y-97911499D01*
G75*
G02*
X234377999Y-97661500I249999J0D01*
G01*
X235078001Y-97661500D01*
G75*
G02*
X235328000Y-97911499I0J-249999D01*
G01*
X235328000Y-98811501D01*
G75*
G02*
X235078001Y-99061500I-249999J0D01*
G01*
X234377999Y-99061500D01*
G75*
G02*
X234128000Y-98811501I0J249999D01*
G01*
G37*
G36*
G01*
X236128000Y-98811501D02*
X236128000Y-97911499D01*
G75*
G02*
X236377999Y-97661500I249999J0D01*
G01*
X237078001Y-97661500D01*
G75*
G02*
X237328000Y-97911499I0J-249999D01*
G01*
X237328000Y-98811501D01*
G75*
G02*
X237078001Y-99061500I-249999J0D01*
G01*
X236377999Y-99061500D01*
G75*
G02*
X236128000Y-98811501I0J249999D01*
G01*
G37*
%TD*%
D20*
%TO.C,S1*%
X91186000Y-69659500D03*
D21*
X91186000Y-71959500D03*
X91186000Y-74259500D03*
X91186000Y-76559500D03*
X91186000Y-67359500D03*
X91186000Y-78859500D03*
%TD*%
D11*
%TO.C,SW1*%
X107723800Y-33121600D03*
X107723800Y-37621600D03*
X114223800Y-33121600D03*
X114223800Y-37621600D03*
%TD*%
%TO.C,SW2*%
X107723800Y-41503600D03*
X107723800Y-46003600D03*
X114223800Y-41503600D03*
X114223800Y-46003600D03*
%TD*%
%TO.C,SW3*%
X107723800Y-49631600D03*
X107723800Y-54131600D03*
X114223800Y-49631600D03*
X114223800Y-54131600D03*
%TD*%
%TO.C,SW4*%
X114196000Y-62513600D03*
X114196000Y-58013600D03*
X107696000Y-62513600D03*
X107696000Y-58013600D03*
%TD*%
%TO.C,SW5*%
X114223800Y-70895600D03*
X114223800Y-66395600D03*
X107723800Y-70895600D03*
X107723800Y-66395600D03*
%TD*%
%TO.C,SW6*%
X107573800Y-74523600D03*
X107573800Y-79023600D03*
X114073800Y-74523600D03*
X114073800Y-79023600D03*
%TD*%
%TO.C,SW7*%
X107723800Y-82905600D03*
X107723800Y-87405600D03*
X114223800Y-82905600D03*
X114223800Y-87405600D03*
%TD*%
%TO.C,SW8*%
X114223800Y-95533600D03*
X114223800Y-91033600D03*
X107723800Y-95533600D03*
X107723800Y-91033600D03*
%TD*%
%TO.C,SW9*%
X122051800Y-33121600D03*
X122051800Y-37621600D03*
X128551800Y-33121600D03*
X128551800Y-37621600D03*
%TD*%
%TO.C,SW11*%
X128551800Y-54131600D03*
X128551800Y-49631600D03*
X122051800Y-54131600D03*
X122051800Y-49631600D03*
%TD*%
%TO.C,SW12*%
X128551800Y-62513600D03*
X128551800Y-58013600D03*
X122051800Y-62513600D03*
X122051800Y-58013600D03*
%TD*%
%TO.C,SW14*%
X122051800Y-74523600D03*
X122051800Y-79023600D03*
X128551800Y-74523600D03*
X128551800Y-79023600D03*
%TD*%
%TO.C,SW15*%
X128551800Y-87405600D03*
X128551800Y-82905600D03*
X122051800Y-87405600D03*
X122051800Y-82905600D03*
%TD*%
%TO.C,SW18*%
X143179800Y-46003600D03*
X143179800Y-41503600D03*
X136679800Y-46003600D03*
X136679800Y-41503600D03*
%TD*%
%TO.C,SW19*%
X136679800Y-49631600D03*
X136679800Y-54131600D03*
X143179800Y-49631600D03*
X143179800Y-54131600D03*
%TD*%
%TO.C,SW20*%
X143179800Y-62513600D03*
X143179800Y-58013600D03*
X136679800Y-62513600D03*
X136679800Y-58013600D03*
%TD*%
%TO.C,SW21*%
X136679800Y-66395600D03*
X136679800Y-70895600D03*
X143179800Y-66395600D03*
X143179800Y-70895600D03*
%TD*%
%TO.C,SW22*%
X136679800Y-74523600D03*
X136679800Y-79023600D03*
X143179800Y-74523600D03*
X143179800Y-79023600D03*
%TD*%
%TO.C,SW23*%
X143179800Y-87405600D03*
X143179800Y-82905600D03*
X136679800Y-87405600D03*
X136679800Y-82905600D03*
%TD*%
%TO.C,SW24*%
X136679800Y-91033600D03*
X136679800Y-95533600D03*
X143179800Y-91033600D03*
X143179800Y-95533600D03*
%TD*%
%TO.C,SW26*%
X151157800Y-41503600D03*
X151157800Y-46003600D03*
X157657800Y-41503600D03*
X157657800Y-46003600D03*
%TD*%
%TO.C,SW27*%
X157657800Y-54131600D03*
X157657800Y-49631600D03*
X151157800Y-54131600D03*
X151157800Y-49631600D03*
%TD*%
%TO.C,SW28*%
X151157800Y-58013600D03*
X151157800Y-62513600D03*
X157657800Y-58013600D03*
X157657800Y-62513600D03*
%TD*%
%TO.C,SW29*%
X157657800Y-70895600D03*
X157657800Y-66395600D03*
X151157800Y-70895600D03*
X151157800Y-66395600D03*
%TD*%
%TO.C,SW30*%
X157657800Y-79023600D03*
X157657800Y-74523600D03*
X151157800Y-79023600D03*
X151157800Y-74523600D03*
%TD*%
%TO.C,SW31*%
X151157800Y-82905600D03*
X151157800Y-87405600D03*
X157657800Y-82905600D03*
X157657800Y-87405600D03*
%TD*%
%TO.C,SW32*%
X151157800Y-91033600D03*
X151157800Y-95533600D03*
X157657800Y-91033600D03*
X157657800Y-95533600D03*
%TD*%
%TO.C,SW33*%
X165635800Y-33121600D03*
X165635800Y-37621600D03*
X172135800Y-33121600D03*
X172135800Y-37621600D03*
%TD*%
%TO.C,SW34*%
X165610400Y-41524800D03*
X165610400Y-46024800D03*
X172110400Y-41524800D03*
X172110400Y-46024800D03*
%TD*%
%TO.C,SW35*%
X172110400Y-54131600D03*
X172110400Y-49631600D03*
X165610400Y-54131600D03*
X165610400Y-49631600D03*
%TD*%
%TO.C,SW36*%
X172135800Y-62585600D03*
X172135800Y-58085600D03*
X165635800Y-62585600D03*
X165635800Y-58085600D03*
%TD*%
%TO.C,SW37*%
X165635800Y-66395600D03*
X165635800Y-70895600D03*
X172135800Y-66395600D03*
X172135800Y-70895600D03*
%TD*%
%TO.C,SW38*%
X165635800Y-74523600D03*
X165635800Y-79023600D03*
X172135800Y-74523600D03*
X172135800Y-79023600D03*
%TD*%
%TO.C,SW39*%
X172135800Y-87405600D03*
X172135800Y-82905600D03*
X165635800Y-87405600D03*
X165635800Y-82905600D03*
%TD*%
%TO.C,SW40*%
X172135800Y-95533600D03*
X172135800Y-91033600D03*
X165635800Y-95533600D03*
X165635800Y-91033600D03*
%TD*%
%TO.C,SW41*%
X186613800Y-37621600D03*
X186613800Y-33121600D03*
X180113800Y-37621600D03*
X180113800Y-33121600D03*
%TD*%
%TO.C,SW42*%
X180113800Y-41503600D03*
X180113800Y-46003600D03*
X186613800Y-41503600D03*
X186613800Y-46003600D03*
%TD*%
%TO.C,SW43*%
X186613800Y-54131600D03*
X186613800Y-49631600D03*
X180113800Y-54131600D03*
X180113800Y-49631600D03*
%TD*%
%TO.C,SW44*%
X186613800Y-62513600D03*
X186613800Y-58013600D03*
X180113800Y-62513600D03*
X180113800Y-58013600D03*
%TD*%
%TO.C,SW45*%
X186613800Y-70895600D03*
X186613800Y-66395600D03*
X180113800Y-70895600D03*
X180113800Y-66395600D03*
%TD*%
%TO.C,SW46*%
X186613800Y-79023600D03*
X186613800Y-74523600D03*
X180113800Y-79023600D03*
X180113800Y-74523600D03*
%TD*%
%TO.C,SW47*%
X180113800Y-82905600D03*
X180113800Y-87405600D03*
X186613800Y-82905600D03*
X186613800Y-87405600D03*
%TD*%
%TO.C,SW48*%
X180086000Y-91033600D03*
X180086000Y-95533600D03*
X186586000Y-91033600D03*
X186586000Y-95533600D03*
%TD*%
%TO.C,SW50*%
X201091800Y-46003600D03*
X201091800Y-41503600D03*
X194591800Y-46003600D03*
X194591800Y-41503600D03*
%TD*%
%TO.C,SW51*%
X194591800Y-49631600D03*
X194591800Y-54131600D03*
X201091800Y-49631600D03*
X201091800Y-54131600D03*
%TD*%
%TO.C,SW52*%
X194591800Y-58013600D03*
X194591800Y-62513600D03*
X201091800Y-58013600D03*
X201091800Y-62513600D03*
%TD*%
%TO.C,SW53*%
X194591800Y-66395600D03*
X194591800Y-70895600D03*
X201091800Y-66395600D03*
X201091800Y-70895600D03*
%TD*%
%TO.C,SW54*%
X194591800Y-74523600D03*
X194591800Y-79023600D03*
X201091800Y-74523600D03*
X201091800Y-79023600D03*
%TD*%
%TO.C,SW55*%
X201091800Y-87405600D03*
X201091800Y-82905600D03*
X194591800Y-87405600D03*
X194591800Y-82905600D03*
%TD*%
%TO.C,SW56*%
X201091800Y-95533600D03*
X201091800Y-91033600D03*
X194591800Y-95533600D03*
X194591800Y-91033600D03*
%TD*%
%TO.C,SW57*%
X215569800Y-37621600D03*
X215569800Y-33121600D03*
X209069800Y-37621600D03*
X209069800Y-33121600D03*
%TD*%
%TO.C,SW59*%
X215542000Y-54131600D03*
X215542000Y-49631600D03*
X209042000Y-54131600D03*
X209042000Y-49631600D03*
%TD*%
%TO.C,SW60*%
X215569800Y-62513600D03*
X215569800Y-58013600D03*
X209069800Y-62513600D03*
X209069800Y-58013600D03*
%TD*%
%TO.C,SW61*%
X215569800Y-70895600D03*
X215569800Y-66395600D03*
X209069800Y-70895600D03*
X209069800Y-66395600D03*
%TD*%
%TO.C,SW62*%
X215569800Y-79023600D03*
X215569800Y-74523600D03*
X209069800Y-79023600D03*
X209069800Y-74523600D03*
%TD*%
%TO.C,SW63*%
X209069800Y-82905600D03*
X209069800Y-87405600D03*
X215569800Y-82905600D03*
X215569800Y-87405600D03*
%TD*%
%TO.C,SW64*%
X209044400Y-91033600D03*
X209044400Y-95533600D03*
X215544400Y-91033600D03*
X215544400Y-95533600D03*
%TD*%
%TO.C,SW65*%
X76533600Y-112899200D03*
X76533600Y-107899200D03*
D22*
X83533600Y-115999200D03*
X83533600Y-104799200D03*
D11*
X91033600Y-112899200D03*
X91033600Y-110399200D03*
D23*
X91033600Y-107899200D03*
%TD*%
%TO.C,SW66*%
X64566800Y-107797600D03*
D11*
X64566800Y-110297600D03*
X64566800Y-112797600D03*
D22*
X57066800Y-104697600D03*
X57066800Y-115897600D03*
D11*
X50066800Y-107797600D03*
X50066800Y-112797600D03*
%TD*%
%TO.C,SW67*%
X76606400Y-93950800D03*
X76606400Y-88950800D03*
D22*
X83606400Y-97050800D03*
X83606400Y-85850800D03*
D11*
X91106400Y-93950800D03*
X91106400Y-91450800D03*
D23*
X91106400Y-88950800D03*
%TD*%
%TO.C,SW68*%
X64668400Y-88850400D03*
D11*
X64668400Y-91350400D03*
X64668400Y-93850400D03*
D22*
X57168400Y-85750400D03*
X57168400Y-96950400D03*
D11*
X50168400Y-88850400D03*
X50168400Y-93850400D03*
%TD*%
%TO.C,SW69*%
X43208800Y-74523600D03*
X43208800Y-69523600D03*
D22*
X50208800Y-77623600D03*
X50208800Y-66423600D03*
D11*
X57708800Y-74523600D03*
X57708800Y-72023600D03*
D23*
X57708800Y-69523600D03*
%TD*%
D11*
%TO.C,SW70*%
X68986400Y-70997200D03*
X68986400Y-66497200D03*
X62486400Y-70997200D03*
X62486400Y-66497200D03*
%TD*%
%TO.C,SW71*%
X85087600Y-70967600D03*
X85087600Y-66467600D03*
X78587600Y-70967600D03*
X78587600Y-66467600D03*
%TD*%
%TO.C,SW72*%
X62486400Y-74726800D03*
X62486400Y-79226800D03*
X68986400Y-74726800D03*
X68986400Y-79226800D03*
%TD*%
%TO.C,SW73*%
X78587600Y-74697200D03*
X78587600Y-79197200D03*
X85087600Y-74697200D03*
X85087600Y-79197200D03*
%TD*%
%TO.C,SW74*%
X42522000Y-121310400D03*
X42522000Y-125810400D03*
X49022000Y-121310400D03*
X49022000Y-125810400D03*
%TD*%
%TO.C,SW75*%
X63246000Y-125810400D03*
X63246000Y-121310400D03*
X56746000Y-125810400D03*
X56746000Y-121310400D03*
%TD*%
%TO.C,SW76*%
X70716000Y-121310400D03*
X70716000Y-125810400D03*
X77216000Y-121310400D03*
X77216000Y-125810400D03*
%TD*%
%TO.C,SW77*%
X91135200Y-125780800D03*
X91135200Y-121280800D03*
X84635200Y-125780800D03*
X84635200Y-121280800D03*
%TD*%
%TO.C,U1*%
G36*
G01*
X174706400Y-110949600D02*
X174706400Y-111249600D01*
G75*
G02*
X174556400Y-111399600I-150000J0D01*
G01*
X173106400Y-111399600D01*
G75*
G02*
X172956400Y-111249600I0J150000D01*
G01*
X172956400Y-110949600D01*
G75*
G02*
X173106400Y-110799600I150000J0D01*
G01*
X174556400Y-110799600D01*
G75*
G02*
X174706400Y-110949600I0J-150000D01*
G01*
G37*
G36*
G01*
X174706400Y-109679600D02*
X174706400Y-109979600D01*
G75*
G02*
X174556400Y-110129600I-150000J0D01*
G01*
X173106400Y-110129600D01*
G75*
G02*
X172956400Y-109979600I0J150000D01*
G01*
X172956400Y-109679600D01*
G75*
G02*
X173106400Y-109529600I150000J0D01*
G01*
X174556400Y-109529600D01*
G75*
G02*
X174706400Y-109679600I0J-150000D01*
G01*
G37*
G36*
G01*
X174706400Y-108409600D02*
X174706400Y-108709600D01*
G75*
G02*
X174556400Y-108859600I-150000J0D01*
G01*
X173106400Y-108859600D01*
G75*
G02*
X172956400Y-108709600I0J150000D01*
G01*
X172956400Y-108409600D01*
G75*
G02*
X173106400Y-108259600I150000J0D01*
G01*
X174556400Y-108259600D01*
G75*
G02*
X174706400Y-108409600I0J-150000D01*
G01*
G37*
G36*
G01*
X174706400Y-107139600D02*
X174706400Y-107439600D01*
G75*
G02*
X174556400Y-107589600I-150000J0D01*
G01*
X173106400Y-107589600D01*
G75*
G02*
X172956400Y-107439600I0J150000D01*
G01*
X172956400Y-107139600D01*
G75*
G02*
X173106400Y-106989600I150000J0D01*
G01*
X174556400Y-106989600D01*
G75*
G02*
X174706400Y-107139600I0J-150000D01*
G01*
G37*
G36*
G01*
X174706400Y-105869600D02*
X174706400Y-106169600D01*
G75*
G02*
X174556400Y-106319600I-150000J0D01*
G01*
X173106400Y-106319600D01*
G75*
G02*
X172956400Y-106169600I0J150000D01*
G01*
X172956400Y-105869600D01*
G75*
G02*
X173106400Y-105719600I150000J0D01*
G01*
X174556400Y-105719600D01*
G75*
G02*
X174706400Y-105869600I0J-150000D01*
G01*
G37*
G36*
G01*
X174706400Y-104599600D02*
X174706400Y-104899600D01*
G75*
G02*
X174556400Y-105049600I-150000J0D01*
G01*
X173106400Y-105049600D01*
G75*
G02*
X172956400Y-104899600I0J150000D01*
G01*
X172956400Y-104599600D01*
G75*
G02*
X173106400Y-104449600I150000J0D01*
G01*
X174556400Y-104449600D01*
G75*
G02*
X174706400Y-104599600I0J-150000D01*
G01*
G37*
G36*
G01*
X174706400Y-103329600D02*
X174706400Y-103629600D01*
G75*
G02*
X174556400Y-103779600I-150000J0D01*
G01*
X173106400Y-103779600D01*
G75*
G02*
X172956400Y-103629600I0J150000D01*
G01*
X172956400Y-103329600D01*
G75*
G02*
X173106400Y-103179600I150000J0D01*
G01*
X174556400Y-103179600D01*
G75*
G02*
X174706400Y-103329600I0J-150000D01*
G01*
G37*
G36*
G01*
X174706400Y-102059600D02*
X174706400Y-102359600D01*
G75*
G02*
X174556400Y-102509600I-150000J0D01*
G01*
X173106400Y-102509600D01*
G75*
G02*
X172956400Y-102359600I0J150000D01*
G01*
X172956400Y-102059600D01*
G75*
G02*
X173106400Y-101909600I150000J0D01*
G01*
X174556400Y-101909600D01*
G75*
G02*
X174706400Y-102059600I0J-150000D01*
G01*
G37*
G36*
G01*
X169556400Y-102059600D02*
X169556400Y-102359600D01*
G75*
G02*
X169406400Y-102509600I-150000J0D01*
G01*
X167956400Y-102509600D01*
G75*
G02*
X167806400Y-102359600I0J150000D01*
G01*
X167806400Y-102059600D01*
G75*
G02*
X167956400Y-101909600I150000J0D01*
G01*
X169406400Y-101909600D01*
G75*
G02*
X169556400Y-102059600I0J-150000D01*
G01*
G37*
G36*
G01*
X169556400Y-103329600D02*
X169556400Y-103629600D01*
G75*
G02*
X169406400Y-103779600I-150000J0D01*
G01*
X167956400Y-103779600D01*
G75*
G02*
X167806400Y-103629600I0J150000D01*
G01*
X167806400Y-103329600D01*
G75*
G02*
X167956400Y-103179600I150000J0D01*
G01*
X169406400Y-103179600D01*
G75*
G02*
X169556400Y-103329600I0J-150000D01*
G01*
G37*
G36*
G01*
X169556400Y-104599600D02*
X169556400Y-104899600D01*
G75*
G02*
X169406400Y-105049600I-150000J0D01*
G01*
X167956400Y-105049600D01*
G75*
G02*
X167806400Y-104899600I0J150000D01*
G01*
X167806400Y-104599600D01*
G75*
G02*
X167956400Y-104449600I150000J0D01*
G01*
X169406400Y-104449600D01*
G75*
G02*
X169556400Y-104599600I0J-150000D01*
G01*
G37*
G36*
G01*
X169556400Y-105869600D02*
X169556400Y-106169600D01*
G75*
G02*
X169406400Y-106319600I-150000J0D01*
G01*
X167956400Y-106319600D01*
G75*
G02*
X167806400Y-106169600I0J150000D01*
G01*
X167806400Y-105869600D01*
G75*
G02*
X167956400Y-105719600I150000J0D01*
G01*
X169406400Y-105719600D01*
G75*
G02*
X169556400Y-105869600I0J-150000D01*
G01*
G37*
G36*
G01*
X169556400Y-107139600D02*
X169556400Y-107439600D01*
G75*
G02*
X169406400Y-107589600I-150000J0D01*
G01*
X167956400Y-107589600D01*
G75*
G02*
X167806400Y-107439600I0J150000D01*
G01*
X167806400Y-107139600D01*
G75*
G02*
X167956400Y-106989600I150000J0D01*
G01*
X169406400Y-106989600D01*
G75*
G02*
X169556400Y-107139600I0J-150000D01*
G01*
G37*
G36*
G01*
X169556400Y-108409600D02*
X169556400Y-108709600D01*
G75*
G02*
X169406400Y-108859600I-150000J0D01*
G01*
X167956400Y-108859600D01*
G75*
G02*
X167806400Y-108709600I0J150000D01*
G01*
X167806400Y-108409600D01*
G75*
G02*
X167956400Y-108259600I150000J0D01*
G01*
X169406400Y-108259600D01*
G75*
G02*
X169556400Y-108409600I0J-150000D01*
G01*
G37*
G36*
G01*
X169556400Y-109679600D02*
X169556400Y-109979600D01*
G75*
G02*
X169406400Y-110129600I-150000J0D01*
G01*
X167956400Y-110129600D01*
G75*
G02*
X167806400Y-109979600I0J150000D01*
G01*
X167806400Y-109679600D01*
G75*
G02*
X167956400Y-109529600I150000J0D01*
G01*
X169406400Y-109529600D01*
G75*
G02*
X169556400Y-109679600I0J-150000D01*
G01*
G37*
G36*
G01*
X169556400Y-110949600D02*
X169556400Y-111249600D01*
G75*
G02*
X169406400Y-111399600I-150000J0D01*
G01*
X167956400Y-111399600D01*
G75*
G02*
X167806400Y-111249600I0J150000D01*
G01*
X167806400Y-110949600D01*
G75*
G02*
X167956400Y-110799600I150000J0D01*
G01*
X169406400Y-110799600D01*
G75*
G02*
X169556400Y-110949600I0J-150000D01*
G01*
G37*
%TD*%
%TO.C,U2*%
G36*
G01*
X137615400Y-102486600D02*
X137615400Y-102186600D01*
G75*
G02*
X137765400Y-102036600I150000J0D01*
G01*
X139215400Y-102036600D01*
G75*
G02*
X139365400Y-102186600I0J-150000D01*
G01*
X139365400Y-102486600D01*
G75*
G02*
X139215400Y-102636600I-150000J0D01*
G01*
X137765400Y-102636600D01*
G75*
G02*
X137615400Y-102486600I0J150000D01*
G01*
G37*
G36*
G01*
X137615400Y-103756600D02*
X137615400Y-103456600D01*
G75*
G02*
X137765400Y-103306600I150000J0D01*
G01*
X139215400Y-103306600D01*
G75*
G02*
X139365400Y-103456600I0J-150000D01*
G01*
X139365400Y-103756600D01*
G75*
G02*
X139215400Y-103906600I-150000J0D01*
G01*
X137765400Y-103906600D01*
G75*
G02*
X137615400Y-103756600I0J150000D01*
G01*
G37*
G36*
G01*
X137615400Y-105026600D02*
X137615400Y-104726600D01*
G75*
G02*
X137765400Y-104576600I150000J0D01*
G01*
X139215400Y-104576600D01*
G75*
G02*
X139365400Y-104726600I0J-150000D01*
G01*
X139365400Y-105026600D01*
G75*
G02*
X139215400Y-105176600I-150000J0D01*
G01*
X137765400Y-105176600D01*
G75*
G02*
X137615400Y-105026600I0J150000D01*
G01*
G37*
G36*
G01*
X137615400Y-106296600D02*
X137615400Y-105996600D01*
G75*
G02*
X137765400Y-105846600I150000J0D01*
G01*
X139215400Y-105846600D01*
G75*
G02*
X139365400Y-105996600I0J-150000D01*
G01*
X139365400Y-106296600D01*
G75*
G02*
X139215400Y-106446600I-150000J0D01*
G01*
X137765400Y-106446600D01*
G75*
G02*
X137615400Y-106296600I0J150000D01*
G01*
G37*
G36*
G01*
X137615400Y-107566600D02*
X137615400Y-107266600D01*
G75*
G02*
X137765400Y-107116600I150000J0D01*
G01*
X139215400Y-107116600D01*
G75*
G02*
X139365400Y-107266600I0J-150000D01*
G01*
X139365400Y-107566600D01*
G75*
G02*
X139215400Y-107716600I-150000J0D01*
G01*
X137765400Y-107716600D01*
G75*
G02*
X137615400Y-107566600I0J150000D01*
G01*
G37*
G36*
G01*
X137615400Y-108836600D02*
X137615400Y-108536600D01*
G75*
G02*
X137765400Y-108386600I150000J0D01*
G01*
X139215400Y-108386600D01*
G75*
G02*
X139365400Y-108536600I0J-150000D01*
G01*
X139365400Y-108836600D01*
G75*
G02*
X139215400Y-108986600I-150000J0D01*
G01*
X137765400Y-108986600D01*
G75*
G02*
X137615400Y-108836600I0J150000D01*
G01*
G37*
G36*
G01*
X137615400Y-110106600D02*
X137615400Y-109806600D01*
G75*
G02*
X137765400Y-109656600I150000J0D01*
G01*
X139215400Y-109656600D01*
G75*
G02*
X139365400Y-109806600I0J-150000D01*
G01*
X139365400Y-110106600D01*
G75*
G02*
X139215400Y-110256600I-150000J0D01*
G01*
X137765400Y-110256600D01*
G75*
G02*
X137615400Y-110106600I0J150000D01*
G01*
G37*
G36*
G01*
X137615400Y-111376600D02*
X137615400Y-111076600D01*
G75*
G02*
X137765400Y-110926600I150000J0D01*
G01*
X139215400Y-110926600D01*
G75*
G02*
X139365400Y-111076600I0J-150000D01*
G01*
X139365400Y-111376600D01*
G75*
G02*
X139215400Y-111526600I-150000J0D01*
G01*
X137765400Y-111526600D01*
G75*
G02*
X137615400Y-111376600I0J150000D01*
G01*
G37*
G36*
G01*
X132465400Y-111376600D02*
X132465400Y-111076600D01*
G75*
G02*
X132615400Y-110926600I150000J0D01*
G01*
X134065400Y-110926600D01*
G75*
G02*
X134215400Y-111076600I0J-150000D01*
G01*
X134215400Y-111376600D01*
G75*
G02*
X134065400Y-111526600I-150000J0D01*
G01*
X132615400Y-111526600D01*
G75*
G02*
X132465400Y-111376600I0J150000D01*
G01*
G37*
G36*
G01*
X132465400Y-110106600D02*
X132465400Y-109806600D01*
G75*
G02*
X132615400Y-109656600I150000J0D01*
G01*
X134065400Y-109656600D01*
G75*
G02*
X134215400Y-109806600I0J-150000D01*
G01*
X134215400Y-110106600D01*
G75*
G02*
X134065400Y-110256600I-150000J0D01*
G01*
X132615400Y-110256600D01*
G75*
G02*
X132465400Y-110106600I0J150000D01*
G01*
G37*
G36*
G01*
X132465400Y-108836600D02*
X132465400Y-108536600D01*
G75*
G02*
X132615400Y-108386600I150000J0D01*
G01*
X134065400Y-108386600D01*
G75*
G02*
X134215400Y-108536600I0J-150000D01*
G01*
X134215400Y-108836600D01*
G75*
G02*
X134065400Y-108986600I-150000J0D01*
G01*
X132615400Y-108986600D01*
G75*
G02*
X132465400Y-108836600I0J150000D01*
G01*
G37*
G36*
G01*
X132465400Y-107566600D02*
X132465400Y-107266600D01*
G75*
G02*
X132615400Y-107116600I150000J0D01*
G01*
X134065400Y-107116600D01*
G75*
G02*
X134215400Y-107266600I0J-150000D01*
G01*
X134215400Y-107566600D01*
G75*
G02*
X134065400Y-107716600I-150000J0D01*
G01*
X132615400Y-107716600D01*
G75*
G02*
X132465400Y-107566600I0J150000D01*
G01*
G37*
G36*
G01*
X132465400Y-106296600D02*
X132465400Y-105996600D01*
G75*
G02*
X132615400Y-105846600I150000J0D01*
G01*
X134065400Y-105846600D01*
G75*
G02*
X134215400Y-105996600I0J-150000D01*
G01*
X134215400Y-106296600D01*
G75*
G02*
X134065400Y-106446600I-150000J0D01*
G01*
X132615400Y-106446600D01*
G75*
G02*
X132465400Y-106296600I0J150000D01*
G01*
G37*
G36*
G01*
X132465400Y-105026600D02*
X132465400Y-104726600D01*
G75*
G02*
X132615400Y-104576600I150000J0D01*
G01*
X134065400Y-104576600D01*
G75*
G02*
X134215400Y-104726600I0J-150000D01*
G01*
X134215400Y-105026600D01*
G75*
G02*
X134065400Y-105176600I-150000J0D01*
G01*
X132615400Y-105176600D01*
G75*
G02*
X132465400Y-105026600I0J150000D01*
G01*
G37*
G36*
G01*
X132465400Y-103756600D02*
X132465400Y-103456600D01*
G75*
G02*
X132615400Y-103306600I150000J0D01*
G01*
X134065400Y-103306600D01*
G75*
G02*
X134215400Y-103456600I0J-150000D01*
G01*
X134215400Y-103756600D01*
G75*
G02*
X134065400Y-103906600I-150000J0D01*
G01*
X132615400Y-103906600D01*
G75*
G02*
X132465400Y-103756600I0J150000D01*
G01*
G37*
G36*
G01*
X132465400Y-102486600D02*
X132465400Y-102186600D01*
G75*
G02*
X132615400Y-102036600I150000J0D01*
G01*
X134065400Y-102036600D01*
G75*
G02*
X134215400Y-102186600I0J-150000D01*
G01*
X134215400Y-102486600D01*
G75*
G02*
X134065400Y-102636600I-150000J0D01*
G01*
X132615400Y-102636600D01*
G75*
G02*
X132465400Y-102486600I0J150000D01*
G01*
G37*
%TD*%
%TO.C,U3*%
G36*
G01*
X186828400Y-110949600D02*
X186828400Y-111249600D01*
G75*
G02*
X186678400Y-111399600I-150000J0D01*
G01*
X185228400Y-111399600D01*
G75*
G02*
X185078400Y-111249600I0J150000D01*
G01*
X185078400Y-110949600D01*
G75*
G02*
X185228400Y-110799600I150000J0D01*
G01*
X186678400Y-110799600D01*
G75*
G02*
X186828400Y-110949600I0J-150000D01*
G01*
G37*
G36*
G01*
X186828400Y-109679600D02*
X186828400Y-109979600D01*
G75*
G02*
X186678400Y-110129600I-150000J0D01*
G01*
X185228400Y-110129600D01*
G75*
G02*
X185078400Y-109979600I0J150000D01*
G01*
X185078400Y-109679600D01*
G75*
G02*
X185228400Y-109529600I150000J0D01*
G01*
X186678400Y-109529600D01*
G75*
G02*
X186828400Y-109679600I0J-150000D01*
G01*
G37*
G36*
G01*
X186828400Y-108409600D02*
X186828400Y-108709600D01*
G75*
G02*
X186678400Y-108859600I-150000J0D01*
G01*
X185228400Y-108859600D01*
G75*
G02*
X185078400Y-108709600I0J150000D01*
G01*
X185078400Y-108409600D01*
G75*
G02*
X185228400Y-108259600I150000J0D01*
G01*
X186678400Y-108259600D01*
G75*
G02*
X186828400Y-108409600I0J-150000D01*
G01*
G37*
G36*
G01*
X186828400Y-107139600D02*
X186828400Y-107439600D01*
G75*
G02*
X186678400Y-107589600I-150000J0D01*
G01*
X185228400Y-107589600D01*
G75*
G02*
X185078400Y-107439600I0J150000D01*
G01*
X185078400Y-107139600D01*
G75*
G02*
X185228400Y-106989600I150000J0D01*
G01*
X186678400Y-106989600D01*
G75*
G02*
X186828400Y-107139600I0J-150000D01*
G01*
G37*
G36*
G01*
X186828400Y-105869600D02*
X186828400Y-106169600D01*
G75*
G02*
X186678400Y-106319600I-150000J0D01*
G01*
X185228400Y-106319600D01*
G75*
G02*
X185078400Y-106169600I0J150000D01*
G01*
X185078400Y-105869600D01*
G75*
G02*
X185228400Y-105719600I150000J0D01*
G01*
X186678400Y-105719600D01*
G75*
G02*
X186828400Y-105869600I0J-150000D01*
G01*
G37*
G36*
G01*
X186828400Y-104599600D02*
X186828400Y-104899600D01*
G75*
G02*
X186678400Y-105049600I-150000J0D01*
G01*
X185228400Y-105049600D01*
G75*
G02*
X185078400Y-104899600I0J150000D01*
G01*
X185078400Y-104599600D01*
G75*
G02*
X185228400Y-104449600I150000J0D01*
G01*
X186678400Y-104449600D01*
G75*
G02*
X186828400Y-104599600I0J-150000D01*
G01*
G37*
G36*
G01*
X186828400Y-103329600D02*
X186828400Y-103629600D01*
G75*
G02*
X186678400Y-103779600I-150000J0D01*
G01*
X185228400Y-103779600D01*
G75*
G02*
X185078400Y-103629600I0J150000D01*
G01*
X185078400Y-103329600D01*
G75*
G02*
X185228400Y-103179600I150000J0D01*
G01*
X186678400Y-103179600D01*
G75*
G02*
X186828400Y-103329600I0J-150000D01*
G01*
G37*
G36*
G01*
X186828400Y-102059600D02*
X186828400Y-102359600D01*
G75*
G02*
X186678400Y-102509600I-150000J0D01*
G01*
X185228400Y-102509600D01*
G75*
G02*
X185078400Y-102359600I0J150000D01*
G01*
X185078400Y-102059600D01*
G75*
G02*
X185228400Y-101909600I150000J0D01*
G01*
X186678400Y-101909600D01*
G75*
G02*
X186828400Y-102059600I0J-150000D01*
G01*
G37*
G36*
G01*
X181678400Y-102059600D02*
X181678400Y-102359600D01*
G75*
G02*
X181528400Y-102509600I-150000J0D01*
G01*
X180078400Y-102509600D01*
G75*
G02*
X179928400Y-102359600I0J150000D01*
G01*
X179928400Y-102059600D01*
G75*
G02*
X180078400Y-101909600I150000J0D01*
G01*
X181528400Y-101909600D01*
G75*
G02*
X181678400Y-102059600I0J-150000D01*
G01*
G37*
G36*
G01*
X181678400Y-103329600D02*
X181678400Y-103629600D01*
G75*
G02*
X181528400Y-103779600I-150000J0D01*
G01*
X180078400Y-103779600D01*
G75*
G02*
X179928400Y-103629600I0J150000D01*
G01*
X179928400Y-103329600D01*
G75*
G02*
X180078400Y-103179600I150000J0D01*
G01*
X181528400Y-103179600D01*
G75*
G02*
X181678400Y-103329600I0J-150000D01*
G01*
G37*
G36*
G01*
X181678400Y-104599600D02*
X181678400Y-104899600D01*
G75*
G02*
X181528400Y-105049600I-150000J0D01*
G01*
X180078400Y-105049600D01*
G75*
G02*
X179928400Y-104899600I0J150000D01*
G01*
X179928400Y-104599600D01*
G75*
G02*
X180078400Y-104449600I150000J0D01*
G01*
X181528400Y-104449600D01*
G75*
G02*
X181678400Y-104599600I0J-150000D01*
G01*
G37*
G36*
G01*
X181678400Y-105869600D02*
X181678400Y-106169600D01*
G75*
G02*
X181528400Y-106319600I-150000J0D01*
G01*
X180078400Y-106319600D01*
G75*
G02*
X179928400Y-106169600I0J150000D01*
G01*
X179928400Y-105869600D01*
G75*
G02*
X180078400Y-105719600I150000J0D01*
G01*
X181528400Y-105719600D01*
G75*
G02*
X181678400Y-105869600I0J-150000D01*
G01*
G37*
G36*
G01*
X181678400Y-107139600D02*
X181678400Y-107439600D01*
G75*
G02*
X181528400Y-107589600I-150000J0D01*
G01*
X180078400Y-107589600D01*
G75*
G02*
X179928400Y-107439600I0J150000D01*
G01*
X179928400Y-107139600D01*
G75*
G02*
X180078400Y-106989600I150000J0D01*
G01*
X181528400Y-106989600D01*
G75*
G02*
X181678400Y-107139600I0J-150000D01*
G01*
G37*
G36*
G01*
X181678400Y-108409600D02*
X181678400Y-108709600D01*
G75*
G02*
X181528400Y-108859600I-150000J0D01*
G01*
X180078400Y-108859600D01*
G75*
G02*
X179928400Y-108709600I0J150000D01*
G01*
X179928400Y-108409600D01*
G75*
G02*
X180078400Y-108259600I150000J0D01*
G01*
X181528400Y-108259600D01*
G75*
G02*
X181678400Y-108409600I0J-150000D01*
G01*
G37*
G36*
G01*
X181678400Y-109679600D02*
X181678400Y-109979600D01*
G75*
G02*
X181528400Y-110129600I-150000J0D01*
G01*
X180078400Y-110129600D01*
G75*
G02*
X179928400Y-109979600I0J150000D01*
G01*
X179928400Y-109679600D01*
G75*
G02*
X180078400Y-109529600I150000J0D01*
G01*
X181528400Y-109529600D01*
G75*
G02*
X181678400Y-109679600I0J-150000D01*
G01*
G37*
G36*
G01*
X181678400Y-110949600D02*
X181678400Y-111249600D01*
G75*
G02*
X181528400Y-111399600I-150000J0D01*
G01*
X180078400Y-111399600D01*
G75*
G02*
X179928400Y-111249600I0J150000D01*
G01*
X179928400Y-110949600D01*
G75*
G02*
X180078400Y-110799600I150000J0D01*
G01*
X181528400Y-110799600D01*
G75*
G02*
X181678400Y-110949600I0J-150000D01*
G01*
G37*
%TD*%
%TO.C,U4*%
G36*
G01*
X156814400Y-102359600D02*
X156814400Y-102059600D01*
G75*
G02*
X156964400Y-101909600I150000J0D01*
G01*
X158414400Y-101909600D01*
G75*
G02*
X158564400Y-102059600I0J-150000D01*
G01*
X158564400Y-102359600D01*
G75*
G02*
X158414400Y-102509600I-150000J0D01*
G01*
X156964400Y-102509600D01*
G75*
G02*
X156814400Y-102359600I0J150000D01*
G01*
G37*
G36*
G01*
X156814400Y-103629600D02*
X156814400Y-103329600D01*
G75*
G02*
X156964400Y-103179600I150000J0D01*
G01*
X158414400Y-103179600D01*
G75*
G02*
X158564400Y-103329600I0J-150000D01*
G01*
X158564400Y-103629600D01*
G75*
G02*
X158414400Y-103779600I-150000J0D01*
G01*
X156964400Y-103779600D01*
G75*
G02*
X156814400Y-103629600I0J150000D01*
G01*
G37*
G36*
G01*
X156814400Y-104899600D02*
X156814400Y-104599600D01*
G75*
G02*
X156964400Y-104449600I150000J0D01*
G01*
X158414400Y-104449600D01*
G75*
G02*
X158564400Y-104599600I0J-150000D01*
G01*
X158564400Y-104899600D01*
G75*
G02*
X158414400Y-105049600I-150000J0D01*
G01*
X156964400Y-105049600D01*
G75*
G02*
X156814400Y-104899600I0J150000D01*
G01*
G37*
G36*
G01*
X156814400Y-106169600D02*
X156814400Y-105869600D01*
G75*
G02*
X156964400Y-105719600I150000J0D01*
G01*
X158414400Y-105719600D01*
G75*
G02*
X158564400Y-105869600I0J-150000D01*
G01*
X158564400Y-106169600D01*
G75*
G02*
X158414400Y-106319600I-150000J0D01*
G01*
X156964400Y-106319600D01*
G75*
G02*
X156814400Y-106169600I0J150000D01*
G01*
G37*
G36*
G01*
X156814400Y-107439600D02*
X156814400Y-107139600D01*
G75*
G02*
X156964400Y-106989600I150000J0D01*
G01*
X158414400Y-106989600D01*
G75*
G02*
X158564400Y-107139600I0J-150000D01*
G01*
X158564400Y-107439600D01*
G75*
G02*
X158414400Y-107589600I-150000J0D01*
G01*
X156964400Y-107589600D01*
G75*
G02*
X156814400Y-107439600I0J150000D01*
G01*
G37*
G36*
G01*
X156814400Y-108709600D02*
X156814400Y-108409600D01*
G75*
G02*
X156964400Y-108259600I150000J0D01*
G01*
X158414400Y-108259600D01*
G75*
G02*
X158564400Y-108409600I0J-150000D01*
G01*
X158564400Y-108709600D01*
G75*
G02*
X158414400Y-108859600I-150000J0D01*
G01*
X156964400Y-108859600D01*
G75*
G02*
X156814400Y-108709600I0J150000D01*
G01*
G37*
G36*
G01*
X156814400Y-109979600D02*
X156814400Y-109679600D01*
G75*
G02*
X156964400Y-109529600I150000J0D01*
G01*
X158414400Y-109529600D01*
G75*
G02*
X158564400Y-109679600I0J-150000D01*
G01*
X158564400Y-109979600D01*
G75*
G02*
X158414400Y-110129600I-150000J0D01*
G01*
X156964400Y-110129600D01*
G75*
G02*
X156814400Y-109979600I0J150000D01*
G01*
G37*
G36*
G01*
X156814400Y-111249600D02*
X156814400Y-110949600D01*
G75*
G02*
X156964400Y-110799600I150000J0D01*
G01*
X158414400Y-110799600D01*
G75*
G02*
X158564400Y-110949600I0J-150000D01*
G01*
X158564400Y-111249600D01*
G75*
G02*
X158414400Y-111399600I-150000J0D01*
G01*
X156964400Y-111399600D01*
G75*
G02*
X156814400Y-111249600I0J150000D01*
G01*
G37*
G36*
G01*
X161964400Y-111249600D02*
X161964400Y-110949600D01*
G75*
G02*
X162114400Y-110799600I150000J0D01*
G01*
X163564400Y-110799600D01*
G75*
G02*
X163714400Y-110949600I0J-150000D01*
G01*
X163714400Y-111249600D01*
G75*
G02*
X163564400Y-111399600I-150000J0D01*
G01*
X162114400Y-111399600D01*
G75*
G02*
X161964400Y-111249600I0J150000D01*
G01*
G37*
G36*
G01*
X161964400Y-109979600D02*
X161964400Y-109679600D01*
G75*
G02*
X162114400Y-109529600I150000J0D01*
G01*
X163564400Y-109529600D01*
G75*
G02*
X163714400Y-109679600I0J-150000D01*
G01*
X163714400Y-109979600D01*
G75*
G02*
X163564400Y-110129600I-150000J0D01*
G01*
X162114400Y-110129600D01*
G75*
G02*
X161964400Y-109979600I0J150000D01*
G01*
G37*
G36*
G01*
X161964400Y-108709600D02*
X161964400Y-108409600D01*
G75*
G02*
X162114400Y-108259600I150000J0D01*
G01*
X163564400Y-108259600D01*
G75*
G02*
X163714400Y-108409600I0J-150000D01*
G01*
X163714400Y-108709600D01*
G75*
G02*
X163564400Y-108859600I-150000J0D01*
G01*
X162114400Y-108859600D01*
G75*
G02*
X161964400Y-108709600I0J150000D01*
G01*
G37*
G36*
G01*
X161964400Y-107439600D02*
X161964400Y-107139600D01*
G75*
G02*
X162114400Y-106989600I150000J0D01*
G01*
X163564400Y-106989600D01*
G75*
G02*
X163714400Y-107139600I0J-150000D01*
G01*
X163714400Y-107439600D01*
G75*
G02*
X163564400Y-107589600I-150000J0D01*
G01*
X162114400Y-107589600D01*
G75*
G02*
X161964400Y-107439600I0J150000D01*
G01*
G37*
G36*
G01*
X161964400Y-106169600D02*
X161964400Y-105869600D01*
G75*
G02*
X162114400Y-105719600I150000J0D01*
G01*
X163564400Y-105719600D01*
G75*
G02*
X163714400Y-105869600I0J-150000D01*
G01*
X163714400Y-106169600D01*
G75*
G02*
X163564400Y-106319600I-150000J0D01*
G01*
X162114400Y-106319600D01*
G75*
G02*
X161964400Y-106169600I0J150000D01*
G01*
G37*
G36*
G01*
X161964400Y-104899600D02*
X161964400Y-104599600D01*
G75*
G02*
X162114400Y-104449600I150000J0D01*
G01*
X163564400Y-104449600D01*
G75*
G02*
X163714400Y-104599600I0J-150000D01*
G01*
X163714400Y-104899600D01*
G75*
G02*
X163564400Y-105049600I-150000J0D01*
G01*
X162114400Y-105049600D01*
G75*
G02*
X161964400Y-104899600I0J150000D01*
G01*
G37*
G36*
G01*
X161964400Y-103629600D02*
X161964400Y-103329600D01*
G75*
G02*
X162114400Y-103179600I150000J0D01*
G01*
X163564400Y-103179600D01*
G75*
G02*
X163714400Y-103329600I0J-150000D01*
G01*
X163714400Y-103629600D01*
G75*
G02*
X163564400Y-103779600I-150000J0D01*
G01*
X162114400Y-103779600D01*
G75*
G02*
X161964400Y-103629600I0J150000D01*
G01*
G37*
G36*
G01*
X161964400Y-102359600D02*
X161964400Y-102059600D01*
G75*
G02*
X162114400Y-101909600I150000J0D01*
G01*
X163564400Y-101909600D01*
G75*
G02*
X163714400Y-102059600I0J-150000D01*
G01*
X163714400Y-102359600D01*
G75*
G02*
X163564400Y-102509600I-150000J0D01*
G01*
X162114400Y-102509600D01*
G75*
G02*
X161964400Y-102359600I0J150000D01*
G01*
G37*
%TD*%
%TO.C,U5*%
G36*
G01*
X120562400Y-102613600D02*
X120562400Y-102313600D01*
G75*
G02*
X120712400Y-102163600I150000J0D01*
G01*
X122162400Y-102163600D01*
G75*
G02*
X122312400Y-102313600I0J-150000D01*
G01*
X122312400Y-102613600D01*
G75*
G02*
X122162400Y-102763600I-150000J0D01*
G01*
X120712400Y-102763600D01*
G75*
G02*
X120562400Y-102613600I0J150000D01*
G01*
G37*
G36*
G01*
X120562400Y-103883600D02*
X120562400Y-103583600D01*
G75*
G02*
X120712400Y-103433600I150000J0D01*
G01*
X122162400Y-103433600D01*
G75*
G02*
X122312400Y-103583600I0J-150000D01*
G01*
X122312400Y-103883600D01*
G75*
G02*
X122162400Y-104033600I-150000J0D01*
G01*
X120712400Y-104033600D01*
G75*
G02*
X120562400Y-103883600I0J150000D01*
G01*
G37*
G36*
G01*
X120562400Y-105153600D02*
X120562400Y-104853600D01*
G75*
G02*
X120712400Y-104703600I150000J0D01*
G01*
X122162400Y-104703600D01*
G75*
G02*
X122312400Y-104853600I0J-150000D01*
G01*
X122312400Y-105153600D01*
G75*
G02*
X122162400Y-105303600I-150000J0D01*
G01*
X120712400Y-105303600D01*
G75*
G02*
X120562400Y-105153600I0J150000D01*
G01*
G37*
G36*
G01*
X120562400Y-106423600D02*
X120562400Y-106123600D01*
G75*
G02*
X120712400Y-105973600I150000J0D01*
G01*
X122162400Y-105973600D01*
G75*
G02*
X122312400Y-106123600I0J-150000D01*
G01*
X122312400Y-106423600D01*
G75*
G02*
X122162400Y-106573600I-150000J0D01*
G01*
X120712400Y-106573600D01*
G75*
G02*
X120562400Y-106423600I0J150000D01*
G01*
G37*
G36*
G01*
X120562400Y-107693600D02*
X120562400Y-107393600D01*
G75*
G02*
X120712400Y-107243600I150000J0D01*
G01*
X122162400Y-107243600D01*
G75*
G02*
X122312400Y-107393600I0J-150000D01*
G01*
X122312400Y-107693600D01*
G75*
G02*
X122162400Y-107843600I-150000J0D01*
G01*
X120712400Y-107843600D01*
G75*
G02*
X120562400Y-107693600I0J150000D01*
G01*
G37*
G36*
G01*
X120562400Y-108963600D02*
X120562400Y-108663600D01*
G75*
G02*
X120712400Y-108513600I150000J0D01*
G01*
X122162400Y-108513600D01*
G75*
G02*
X122312400Y-108663600I0J-150000D01*
G01*
X122312400Y-108963600D01*
G75*
G02*
X122162400Y-109113600I-150000J0D01*
G01*
X120712400Y-109113600D01*
G75*
G02*
X120562400Y-108963600I0J150000D01*
G01*
G37*
G36*
G01*
X120562400Y-110233600D02*
X120562400Y-109933600D01*
G75*
G02*
X120712400Y-109783600I150000J0D01*
G01*
X122162400Y-109783600D01*
G75*
G02*
X122312400Y-109933600I0J-150000D01*
G01*
X122312400Y-110233600D01*
G75*
G02*
X122162400Y-110383600I-150000J0D01*
G01*
X120712400Y-110383600D01*
G75*
G02*
X120562400Y-110233600I0J150000D01*
G01*
G37*
G36*
G01*
X120562400Y-111503600D02*
X120562400Y-111203600D01*
G75*
G02*
X120712400Y-111053600I150000J0D01*
G01*
X122162400Y-111053600D01*
G75*
G02*
X122312400Y-111203600I0J-150000D01*
G01*
X122312400Y-111503600D01*
G75*
G02*
X122162400Y-111653600I-150000J0D01*
G01*
X120712400Y-111653600D01*
G75*
G02*
X120562400Y-111503600I0J150000D01*
G01*
G37*
G36*
G01*
X125712400Y-111503600D02*
X125712400Y-111203600D01*
G75*
G02*
X125862400Y-111053600I150000J0D01*
G01*
X127312400Y-111053600D01*
G75*
G02*
X127462400Y-111203600I0J-150000D01*
G01*
X127462400Y-111503600D01*
G75*
G02*
X127312400Y-111653600I-150000J0D01*
G01*
X125862400Y-111653600D01*
G75*
G02*
X125712400Y-111503600I0J150000D01*
G01*
G37*
G36*
G01*
X125712400Y-110233600D02*
X125712400Y-109933600D01*
G75*
G02*
X125862400Y-109783600I150000J0D01*
G01*
X127312400Y-109783600D01*
G75*
G02*
X127462400Y-109933600I0J-150000D01*
G01*
X127462400Y-110233600D01*
G75*
G02*
X127312400Y-110383600I-150000J0D01*
G01*
X125862400Y-110383600D01*
G75*
G02*
X125712400Y-110233600I0J150000D01*
G01*
G37*
G36*
G01*
X125712400Y-108963600D02*
X125712400Y-108663600D01*
G75*
G02*
X125862400Y-108513600I150000J0D01*
G01*
X127312400Y-108513600D01*
G75*
G02*
X127462400Y-108663600I0J-150000D01*
G01*
X127462400Y-108963600D01*
G75*
G02*
X127312400Y-109113600I-150000J0D01*
G01*
X125862400Y-109113600D01*
G75*
G02*
X125712400Y-108963600I0J150000D01*
G01*
G37*
G36*
G01*
X125712400Y-107693600D02*
X125712400Y-107393600D01*
G75*
G02*
X125862400Y-107243600I150000J0D01*
G01*
X127312400Y-107243600D01*
G75*
G02*
X127462400Y-107393600I0J-150000D01*
G01*
X127462400Y-107693600D01*
G75*
G02*
X127312400Y-107843600I-150000J0D01*
G01*
X125862400Y-107843600D01*
G75*
G02*
X125712400Y-107693600I0J150000D01*
G01*
G37*
G36*
G01*
X125712400Y-106423600D02*
X125712400Y-106123600D01*
G75*
G02*
X125862400Y-105973600I150000J0D01*
G01*
X127312400Y-105973600D01*
G75*
G02*
X127462400Y-106123600I0J-150000D01*
G01*
X127462400Y-106423600D01*
G75*
G02*
X127312400Y-106573600I-150000J0D01*
G01*
X125862400Y-106573600D01*
G75*
G02*
X125712400Y-106423600I0J150000D01*
G01*
G37*
G36*
G01*
X125712400Y-105153600D02*
X125712400Y-104853600D01*
G75*
G02*
X125862400Y-104703600I150000J0D01*
G01*
X127312400Y-104703600D01*
G75*
G02*
X127462400Y-104853600I0J-150000D01*
G01*
X127462400Y-105153600D01*
G75*
G02*
X127312400Y-105303600I-150000J0D01*
G01*
X125862400Y-105303600D01*
G75*
G02*
X125712400Y-105153600I0J150000D01*
G01*
G37*
G36*
G01*
X125712400Y-103883600D02*
X125712400Y-103583600D01*
G75*
G02*
X125862400Y-103433600I150000J0D01*
G01*
X127312400Y-103433600D01*
G75*
G02*
X127462400Y-103583600I0J-150000D01*
G01*
X127462400Y-103883600D01*
G75*
G02*
X127312400Y-104033600I-150000J0D01*
G01*
X125862400Y-104033600D01*
G75*
G02*
X125712400Y-103883600I0J150000D01*
G01*
G37*
G36*
G01*
X125712400Y-102613600D02*
X125712400Y-102313600D01*
G75*
G02*
X125862400Y-102163600I150000J0D01*
G01*
X127312400Y-102163600D01*
G75*
G02*
X127462400Y-102313600I0J-150000D01*
G01*
X127462400Y-102613600D01*
G75*
G02*
X127312400Y-102763600I-150000J0D01*
G01*
X125862400Y-102763600D01*
G75*
G02*
X125712400Y-102613600I0J150000D01*
G01*
G37*
%TD*%
%TO.C,U6*%
G36*
G01*
X209618400Y-111203600D02*
X209618400Y-111503600D01*
G75*
G02*
X209468400Y-111653600I-150000J0D01*
G01*
X208018400Y-111653600D01*
G75*
G02*
X207868400Y-111503600I0J150000D01*
G01*
X207868400Y-111203600D01*
G75*
G02*
X208018400Y-111053600I150000J0D01*
G01*
X209468400Y-111053600D01*
G75*
G02*
X209618400Y-111203600I0J-150000D01*
G01*
G37*
G36*
G01*
X209618400Y-109933600D02*
X209618400Y-110233600D01*
G75*
G02*
X209468400Y-110383600I-150000J0D01*
G01*
X208018400Y-110383600D01*
G75*
G02*
X207868400Y-110233600I0J150000D01*
G01*
X207868400Y-109933600D01*
G75*
G02*
X208018400Y-109783600I150000J0D01*
G01*
X209468400Y-109783600D01*
G75*
G02*
X209618400Y-109933600I0J-150000D01*
G01*
G37*
G36*
G01*
X209618400Y-108663600D02*
X209618400Y-108963600D01*
G75*
G02*
X209468400Y-109113600I-150000J0D01*
G01*
X208018400Y-109113600D01*
G75*
G02*
X207868400Y-108963600I0J150000D01*
G01*
X207868400Y-108663600D01*
G75*
G02*
X208018400Y-108513600I150000J0D01*
G01*
X209468400Y-108513600D01*
G75*
G02*
X209618400Y-108663600I0J-150000D01*
G01*
G37*
G36*
G01*
X209618400Y-107393600D02*
X209618400Y-107693600D01*
G75*
G02*
X209468400Y-107843600I-150000J0D01*
G01*
X208018400Y-107843600D01*
G75*
G02*
X207868400Y-107693600I0J150000D01*
G01*
X207868400Y-107393600D01*
G75*
G02*
X208018400Y-107243600I150000J0D01*
G01*
X209468400Y-107243600D01*
G75*
G02*
X209618400Y-107393600I0J-150000D01*
G01*
G37*
G36*
G01*
X209618400Y-106123600D02*
X209618400Y-106423600D01*
G75*
G02*
X209468400Y-106573600I-150000J0D01*
G01*
X208018400Y-106573600D01*
G75*
G02*
X207868400Y-106423600I0J150000D01*
G01*
X207868400Y-106123600D01*
G75*
G02*
X208018400Y-105973600I150000J0D01*
G01*
X209468400Y-105973600D01*
G75*
G02*
X209618400Y-106123600I0J-150000D01*
G01*
G37*
G36*
G01*
X209618400Y-104853600D02*
X209618400Y-105153600D01*
G75*
G02*
X209468400Y-105303600I-150000J0D01*
G01*
X208018400Y-105303600D01*
G75*
G02*
X207868400Y-105153600I0J150000D01*
G01*
X207868400Y-104853600D01*
G75*
G02*
X208018400Y-104703600I150000J0D01*
G01*
X209468400Y-104703600D01*
G75*
G02*
X209618400Y-104853600I0J-150000D01*
G01*
G37*
G36*
G01*
X209618400Y-103583600D02*
X209618400Y-103883600D01*
G75*
G02*
X209468400Y-104033600I-150000J0D01*
G01*
X208018400Y-104033600D01*
G75*
G02*
X207868400Y-103883600I0J150000D01*
G01*
X207868400Y-103583600D01*
G75*
G02*
X208018400Y-103433600I150000J0D01*
G01*
X209468400Y-103433600D01*
G75*
G02*
X209618400Y-103583600I0J-150000D01*
G01*
G37*
G36*
G01*
X209618400Y-102313600D02*
X209618400Y-102613600D01*
G75*
G02*
X209468400Y-102763600I-150000J0D01*
G01*
X208018400Y-102763600D01*
G75*
G02*
X207868400Y-102613600I0J150000D01*
G01*
X207868400Y-102313600D01*
G75*
G02*
X208018400Y-102163600I150000J0D01*
G01*
X209468400Y-102163600D01*
G75*
G02*
X209618400Y-102313600I0J-150000D01*
G01*
G37*
G36*
G01*
X214768400Y-102313600D02*
X214768400Y-102613600D01*
G75*
G02*
X214618400Y-102763600I-150000J0D01*
G01*
X213168400Y-102763600D01*
G75*
G02*
X213018400Y-102613600I0J150000D01*
G01*
X213018400Y-102313600D01*
G75*
G02*
X213168400Y-102163600I150000J0D01*
G01*
X214618400Y-102163600D01*
G75*
G02*
X214768400Y-102313600I0J-150000D01*
G01*
G37*
G36*
G01*
X214768400Y-103583600D02*
X214768400Y-103883600D01*
G75*
G02*
X214618400Y-104033600I-150000J0D01*
G01*
X213168400Y-104033600D01*
G75*
G02*
X213018400Y-103883600I0J150000D01*
G01*
X213018400Y-103583600D01*
G75*
G02*
X213168400Y-103433600I150000J0D01*
G01*
X214618400Y-103433600D01*
G75*
G02*
X214768400Y-103583600I0J-150000D01*
G01*
G37*
G36*
G01*
X214768400Y-104853600D02*
X214768400Y-105153600D01*
G75*
G02*
X214618400Y-105303600I-150000J0D01*
G01*
X213168400Y-105303600D01*
G75*
G02*
X213018400Y-105153600I0J150000D01*
G01*
X213018400Y-104853600D01*
G75*
G02*
X213168400Y-104703600I150000J0D01*
G01*
X214618400Y-104703600D01*
G75*
G02*
X214768400Y-104853600I0J-150000D01*
G01*
G37*
G36*
G01*
X214768400Y-106123600D02*
X214768400Y-106423600D01*
G75*
G02*
X214618400Y-106573600I-150000J0D01*
G01*
X213168400Y-106573600D01*
G75*
G02*
X213018400Y-106423600I0J150000D01*
G01*
X213018400Y-106123600D01*
G75*
G02*
X213168400Y-105973600I150000J0D01*
G01*
X214618400Y-105973600D01*
G75*
G02*
X214768400Y-106123600I0J-150000D01*
G01*
G37*
G36*
G01*
X214768400Y-107393600D02*
X214768400Y-107693600D01*
G75*
G02*
X214618400Y-107843600I-150000J0D01*
G01*
X213168400Y-107843600D01*
G75*
G02*
X213018400Y-107693600I0J150000D01*
G01*
X213018400Y-107393600D01*
G75*
G02*
X213168400Y-107243600I150000J0D01*
G01*
X214618400Y-107243600D01*
G75*
G02*
X214768400Y-107393600I0J-150000D01*
G01*
G37*
G36*
G01*
X214768400Y-108663600D02*
X214768400Y-108963600D01*
G75*
G02*
X214618400Y-109113600I-150000J0D01*
G01*
X213168400Y-109113600D01*
G75*
G02*
X213018400Y-108963600I0J150000D01*
G01*
X213018400Y-108663600D01*
G75*
G02*
X213168400Y-108513600I150000J0D01*
G01*
X214618400Y-108513600D01*
G75*
G02*
X214768400Y-108663600I0J-150000D01*
G01*
G37*
G36*
G01*
X214768400Y-109933600D02*
X214768400Y-110233600D01*
G75*
G02*
X214618400Y-110383600I-150000J0D01*
G01*
X213168400Y-110383600D01*
G75*
G02*
X213018400Y-110233600I0J150000D01*
G01*
X213018400Y-109933600D01*
G75*
G02*
X213168400Y-109783600I150000J0D01*
G01*
X214618400Y-109783600D01*
G75*
G02*
X214768400Y-109933600I0J-150000D01*
G01*
G37*
G36*
G01*
X214768400Y-111203600D02*
X214768400Y-111503600D01*
G75*
G02*
X214618400Y-111653600I-150000J0D01*
G01*
X213168400Y-111653600D01*
G75*
G02*
X213018400Y-111503600I0J150000D01*
G01*
X213018400Y-111203600D01*
G75*
G02*
X213168400Y-111053600I150000J0D01*
G01*
X214618400Y-111053600D01*
G75*
G02*
X214768400Y-111203600I0J-150000D01*
G01*
G37*
%TD*%
D24*
%TO.C,U7*%
X46434000Y-91490800D03*
X43434000Y-91490800D03*
X35234000Y-91490800D03*
%TD*%
%TO.C,U8*%
G36*
G01*
X128013600Y-120642200D02*
X127713600Y-120642200D01*
G75*
G02*
X127563600Y-120492200I0J150000D01*
G01*
X127563600Y-119042200D01*
G75*
G02*
X127713600Y-118892200I150000J0D01*
G01*
X128013600Y-118892200D01*
G75*
G02*
X128163600Y-119042200I0J-150000D01*
G01*
X128163600Y-120492200D01*
G75*
G02*
X128013600Y-120642200I-150000J0D01*
G01*
G37*
G36*
G01*
X129283600Y-120642200D02*
X128983600Y-120642200D01*
G75*
G02*
X128833600Y-120492200I0J150000D01*
G01*
X128833600Y-119042200D01*
G75*
G02*
X128983600Y-118892200I150000J0D01*
G01*
X129283600Y-118892200D01*
G75*
G02*
X129433600Y-119042200I0J-150000D01*
G01*
X129433600Y-120492200D01*
G75*
G02*
X129283600Y-120642200I-150000J0D01*
G01*
G37*
G36*
G01*
X130553600Y-120642200D02*
X130253600Y-120642200D01*
G75*
G02*
X130103600Y-120492200I0J150000D01*
G01*
X130103600Y-119042200D01*
G75*
G02*
X130253600Y-118892200I150000J0D01*
G01*
X130553600Y-118892200D01*
G75*
G02*
X130703600Y-119042200I0J-150000D01*
G01*
X130703600Y-120492200D01*
G75*
G02*
X130553600Y-120642200I-150000J0D01*
G01*
G37*
G36*
G01*
X131823600Y-120642200D02*
X131523600Y-120642200D01*
G75*
G02*
X131373600Y-120492200I0J150000D01*
G01*
X131373600Y-119042200D01*
G75*
G02*
X131523600Y-118892200I150000J0D01*
G01*
X131823600Y-118892200D01*
G75*
G02*
X131973600Y-119042200I0J-150000D01*
G01*
X131973600Y-120492200D01*
G75*
G02*
X131823600Y-120642200I-150000J0D01*
G01*
G37*
G36*
G01*
X133093600Y-120642200D02*
X132793600Y-120642200D01*
G75*
G02*
X132643600Y-120492200I0J150000D01*
G01*
X132643600Y-119042200D01*
G75*
G02*
X132793600Y-118892200I150000J0D01*
G01*
X133093600Y-118892200D01*
G75*
G02*
X133243600Y-119042200I0J-150000D01*
G01*
X133243600Y-120492200D01*
G75*
G02*
X133093600Y-120642200I-150000J0D01*
G01*
G37*
G36*
G01*
X134363600Y-120642200D02*
X134063600Y-120642200D01*
G75*
G02*
X133913600Y-120492200I0J150000D01*
G01*
X133913600Y-119042200D01*
G75*
G02*
X134063600Y-118892200I150000J0D01*
G01*
X134363600Y-118892200D01*
G75*
G02*
X134513600Y-119042200I0J-150000D01*
G01*
X134513600Y-120492200D01*
G75*
G02*
X134363600Y-120642200I-150000J0D01*
G01*
G37*
G36*
G01*
X135633600Y-120642200D02*
X135333600Y-120642200D01*
G75*
G02*
X135183600Y-120492200I0J150000D01*
G01*
X135183600Y-119042200D01*
G75*
G02*
X135333600Y-118892200I150000J0D01*
G01*
X135633600Y-118892200D01*
G75*
G02*
X135783600Y-119042200I0J-150000D01*
G01*
X135783600Y-120492200D01*
G75*
G02*
X135633600Y-120642200I-150000J0D01*
G01*
G37*
G36*
G01*
X136903600Y-120642200D02*
X136603600Y-120642200D01*
G75*
G02*
X136453600Y-120492200I0J150000D01*
G01*
X136453600Y-119042200D01*
G75*
G02*
X136603600Y-118892200I150000J0D01*
G01*
X136903600Y-118892200D01*
G75*
G02*
X137053600Y-119042200I0J-150000D01*
G01*
X137053600Y-120492200D01*
G75*
G02*
X136903600Y-120642200I-150000J0D01*
G01*
G37*
G36*
G01*
X136903600Y-125792200D02*
X136603600Y-125792200D01*
G75*
G02*
X136453600Y-125642200I0J150000D01*
G01*
X136453600Y-124192200D01*
G75*
G02*
X136603600Y-124042200I150000J0D01*
G01*
X136903600Y-124042200D01*
G75*
G02*
X137053600Y-124192200I0J-150000D01*
G01*
X137053600Y-125642200D01*
G75*
G02*
X136903600Y-125792200I-150000J0D01*
G01*
G37*
G36*
G01*
X135633600Y-125792200D02*
X135333600Y-125792200D01*
G75*
G02*
X135183600Y-125642200I0J150000D01*
G01*
X135183600Y-124192200D01*
G75*
G02*
X135333600Y-124042200I150000J0D01*
G01*
X135633600Y-124042200D01*
G75*
G02*
X135783600Y-124192200I0J-150000D01*
G01*
X135783600Y-125642200D01*
G75*
G02*
X135633600Y-125792200I-150000J0D01*
G01*
G37*
G36*
G01*
X134363600Y-125792200D02*
X134063600Y-125792200D01*
G75*
G02*
X133913600Y-125642200I0J150000D01*
G01*
X133913600Y-124192200D01*
G75*
G02*
X134063600Y-124042200I150000J0D01*
G01*
X134363600Y-124042200D01*
G75*
G02*
X134513600Y-124192200I0J-150000D01*
G01*
X134513600Y-125642200D01*
G75*
G02*
X134363600Y-125792200I-150000J0D01*
G01*
G37*
G36*
G01*
X133093600Y-125792200D02*
X132793600Y-125792200D01*
G75*
G02*
X132643600Y-125642200I0J150000D01*
G01*
X132643600Y-124192200D01*
G75*
G02*
X132793600Y-124042200I150000J0D01*
G01*
X133093600Y-124042200D01*
G75*
G02*
X133243600Y-124192200I0J-150000D01*
G01*
X133243600Y-125642200D01*
G75*
G02*
X133093600Y-125792200I-150000J0D01*
G01*
G37*
G36*
G01*
X131823600Y-125792200D02*
X131523600Y-125792200D01*
G75*
G02*
X131373600Y-125642200I0J150000D01*
G01*
X131373600Y-124192200D01*
G75*
G02*
X131523600Y-124042200I150000J0D01*
G01*
X131823600Y-124042200D01*
G75*
G02*
X131973600Y-124192200I0J-150000D01*
G01*
X131973600Y-125642200D01*
G75*
G02*
X131823600Y-125792200I-150000J0D01*
G01*
G37*
G36*
G01*
X130553600Y-125792200D02*
X130253600Y-125792200D01*
G75*
G02*
X130103600Y-125642200I0J150000D01*
G01*
X130103600Y-124192200D01*
G75*
G02*
X130253600Y-124042200I150000J0D01*
G01*
X130553600Y-124042200D01*
G75*
G02*
X130703600Y-124192200I0J-150000D01*
G01*
X130703600Y-125642200D01*
G75*
G02*
X130553600Y-125792200I-150000J0D01*
G01*
G37*
G36*
G01*
X129283600Y-125792200D02*
X128983600Y-125792200D01*
G75*
G02*
X128833600Y-125642200I0J150000D01*
G01*
X128833600Y-124192200D01*
G75*
G02*
X128983600Y-124042200I150000J0D01*
G01*
X129283600Y-124042200D01*
G75*
G02*
X129433600Y-124192200I0J-150000D01*
G01*
X129433600Y-125642200D01*
G75*
G02*
X129283600Y-125792200I-150000J0D01*
G01*
G37*
G36*
G01*
X128013600Y-125792200D02*
X127713600Y-125792200D01*
G75*
G02*
X127563600Y-125642200I0J150000D01*
G01*
X127563600Y-124192200D01*
G75*
G02*
X127713600Y-124042200I150000J0D01*
G01*
X128013600Y-124042200D01*
G75*
G02*
X128163600Y-124192200I0J-150000D01*
G01*
X128163600Y-125642200D01*
G75*
G02*
X128013600Y-125792200I-150000J0D01*
G01*
G37*
%TD*%
%TO.C,U9*%
G36*
G01*
X188465600Y-125841400D02*
X188165600Y-125841400D01*
G75*
G02*
X188015600Y-125691400I0J150000D01*
G01*
X188015600Y-124041400D01*
G75*
G02*
X188165600Y-123891400I150000J0D01*
G01*
X188465600Y-123891400D01*
G75*
G02*
X188615600Y-124041400I0J-150000D01*
G01*
X188615600Y-125691400D01*
G75*
G02*
X188465600Y-125841400I-150000J0D01*
G01*
G37*
G36*
G01*
X189735600Y-125841400D02*
X189435600Y-125841400D01*
G75*
G02*
X189285600Y-125691400I0J150000D01*
G01*
X189285600Y-124041400D01*
G75*
G02*
X189435600Y-123891400I150000J0D01*
G01*
X189735600Y-123891400D01*
G75*
G02*
X189885600Y-124041400I0J-150000D01*
G01*
X189885600Y-125691400D01*
G75*
G02*
X189735600Y-125841400I-150000J0D01*
G01*
G37*
G36*
G01*
X191005600Y-125841400D02*
X190705600Y-125841400D01*
G75*
G02*
X190555600Y-125691400I0J150000D01*
G01*
X190555600Y-124041400D01*
G75*
G02*
X190705600Y-123891400I150000J0D01*
G01*
X191005600Y-123891400D01*
G75*
G02*
X191155600Y-124041400I0J-150000D01*
G01*
X191155600Y-125691400D01*
G75*
G02*
X191005600Y-125841400I-150000J0D01*
G01*
G37*
G36*
G01*
X192275600Y-125841400D02*
X191975600Y-125841400D01*
G75*
G02*
X191825600Y-125691400I0J150000D01*
G01*
X191825600Y-124041400D01*
G75*
G02*
X191975600Y-123891400I150000J0D01*
G01*
X192275600Y-123891400D01*
G75*
G02*
X192425600Y-124041400I0J-150000D01*
G01*
X192425600Y-125691400D01*
G75*
G02*
X192275600Y-125841400I-150000J0D01*
G01*
G37*
G36*
G01*
X193545600Y-125841400D02*
X193245600Y-125841400D01*
G75*
G02*
X193095600Y-125691400I0J150000D01*
G01*
X193095600Y-124041400D01*
G75*
G02*
X193245600Y-123891400I150000J0D01*
G01*
X193545600Y-123891400D01*
G75*
G02*
X193695600Y-124041400I0J-150000D01*
G01*
X193695600Y-125691400D01*
G75*
G02*
X193545600Y-125841400I-150000J0D01*
G01*
G37*
G36*
G01*
X194815600Y-125841400D02*
X194515600Y-125841400D01*
G75*
G02*
X194365600Y-125691400I0J150000D01*
G01*
X194365600Y-124041400D01*
G75*
G02*
X194515600Y-123891400I150000J0D01*
G01*
X194815600Y-123891400D01*
G75*
G02*
X194965600Y-124041400I0J-150000D01*
G01*
X194965600Y-125691400D01*
G75*
G02*
X194815600Y-125841400I-150000J0D01*
G01*
G37*
G36*
G01*
X196085600Y-125841400D02*
X195785600Y-125841400D01*
G75*
G02*
X195635600Y-125691400I0J150000D01*
G01*
X195635600Y-124041400D01*
G75*
G02*
X195785600Y-123891400I150000J0D01*
G01*
X196085600Y-123891400D01*
G75*
G02*
X196235600Y-124041400I0J-150000D01*
G01*
X196235600Y-125691400D01*
G75*
G02*
X196085600Y-125841400I-150000J0D01*
G01*
G37*
G36*
G01*
X197355600Y-125841400D02*
X197055600Y-125841400D01*
G75*
G02*
X196905600Y-125691400I0J150000D01*
G01*
X196905600Y-124041400D01*
G75*
G02*
X197055600Y-123891400I150000J0D01*
G01*
X197355600Y-123891400D01*
G75*
G02*
X197505600Y-124041400I0J-150000D01*
G01*
X197505600Y-125691400D01*
G75*
G02*
X197355600Y-125841400I-150000J0D01*
G01*
G37*
G36*
G01*
X197355600Y-120891400D02*
X197055600Y-120891400D01*
G75*
G02*
X196905600Y-120741400I0J150000D01*
G01*
X196905600Y-119091400D01*
G75*
G02*
X197055600Y-118941400I150000J0D01*
G01*
X197355600Y-118941400D01*
G75*
G02*
X197505600Y-119091400I0J-150000D01*
G01*
X197505600Y-120741400D01*
G75*
G02*
X197355600Y-120891400I-150000J0D01*
G01*
G37*
G36*
G01*
X196085600Y-120891400D02*
X195785600Y-120891400D01*
G75*
G02*
X195635600Y-120741400I0J150000D01*
G01*
X195635600Y-119091400D01*
G75*
G02*
X195785600Y-118941400I150000J0D01*
G01*
X196085600Y-118941400D01*
G75*
G02*
X196235600Y-119091400I0J-150000D01*
G01*
X196235600Y-120741400D01*
G75*
G02*
X196085600Y-120891400I-150000J0D01*
G01*
G37*
G36*
G01*
X194815600Y-120891400D02*
X194515600Y-120891400D01*
G75*
G02*
X194365600Y-120741400I0J150000D01*
G01*
X194365600Y-119091400D01*
G75*
G02*
X194515600Y-118941400I150000J0D01*
G01*
X194815600Y-118941400D01*
G75*
G02*
X194965600Y-119091400I0J-150000D01*
G01*
X194965600Y-120741400D01*
G75*
G02*
X194815600Y-120891400I-150000J0D01*
G01*
G37*
G36*
G01*
X193545600Y-120891400D02*
X193245600Y-120891400D01*
G75*
G02*
X193095600Y-120741400I0J150000D01*
G01*
X193095600Y-119091400D01*
G75*
G02*
X193245600Y-118941400I150000J0D01*
G01*
X193545600Y-118941400D01*
G75*
G02*
X193695600Y-119091400I0J-150000D01*
G01*
X193695600Y-120741400D01*
G75*
G02*
X193545600Y-120891400I-150000J0D01*
G01*
G37*
G36*
G01*
X192275600Y-120891400D02*
X191975600Y-120891400D01*
G75*
G02*
X191825600Y-120741400I0J150000D01*
G01*
X191825600Y-119091400D01*
G75*
G02*
X191975600Y-118941400I150000J0D01*
G01*
X192275600Y-118941400D01*
G75*
G02*
X192425600Y-119091400I0J-150000D01*
G01*
X192425600Y-120741400D01*
G75*
G02*
X192275600Y-120891400I-150000J0D01*
G01*
G37*
G36*
G01*
X191005600Y-120891400D02*
X190705600Y-120891400D01*
G75*
G02*
X190555600Y-120741400I0J150000D01*
G01*
X190555600Y-119091400D01*
G75*
G02*
X190705600Y-118941400I150000J0D01*
G01*
X191005600Y-118941400D01*
G75*
G02*
X191155600Y-119091400I0J-150000D01*
G01*
X191155600Y-120741400D01*
G75*
G02*
X191005600Y-120891400I-150000J0D01*
G01*
G37*
G36*
G01*
X189735600Y-120891400D02*
X189435600Y-120891400D01*
G75*
G02*
X189285600Y-120741400I0J150000D01*
G01*
X189285600Y-119091400D01*
G75*
G02*
X189435600Y-118941400I150000J0D01*
G01*
X189735600Y-118941400D01*
G75*
G02*
X189885600Y-119091400I0J-150000D01*
G01*
X189885600Y-120741400D01*
G75*
G02*
X189735600Y-120891400I-150000J0D01*
G01*
G37*
G36*
G01*
X188465600Y-120891400D02*
X188165600Y-120891400D01*
G75*
G02*
X188015600Y-120741400I0J150000D01*
G01*
X188015600Y-119091400D01*
G75*
G02*
X188165600Y-118941400I150000J0D01*
G01*
X188465600Y-118941400D01*
G75*
G02*
X188615600Y-119091400I0J-150000D01*
G01*
X188615600Y-120741400D01*
G75*
G02*
X188465600Y-120891400I-150000J0D01*
G01*
G37*
%TD*%
%TO.C,U10*%
X240000400Y-41198800D03*
X231800400Y-41198800D03*
X228800400Y-41198800D03*
%TD*%
%TO.C,U11*%
X228830000Y-62026800D03*
X231830000Y-62026800D03*
X240030000Y-62026800D03*
%TD*%
%TO.C,U12*%
X240000400Y-82854800D03*
X231800400Y-82854800D03*
X228800400Y-82854800D03*
%TD*%
%TO.C,U13*%
X228800400Y-103682800D03*
X231800400Y-103682800D03*
X240000400Y-103682800D03*
%TD*%
%TO.C,U14*%
X240000400Y-51663600D03*
X231800400Y-51663600D03*
X228800400Y-51663600D03*
%TD*%
%TO.C,U15*%
X240000400Y-72440800D03*
X231800400Y-72440800D03*
X228800400Y-72440800D03*
%TD*%
%TO.C,U16*%
X240000400Y-93218000D03*
X231800400Y-93218000D03*
X228800400Y-93218000D03*
%TD*%
%TO.C,U17*%
X228800400Y-114147600D03*
X231800400Y-114147600D03*
X240000400Y-114147600D03*
%TD*%
D11*
%TO.C,SW17*%
X136679800Y-33121600D03*
X136679800Y-37621600D03*
X143179800Y-33121600D03*
X143179800Y-37621600D03*
%TD*%
%TO.C,C11*%
G36*
G01*
X180449600Y-113352600D02*
X180449600Y-112402600D01*
G75*
G02*
X180699600Y-112152600I250000J0D01*
G01*
X181199600Y-112152600D01*
G75*
G02*
X181449600Y-112402600I0J-250000D01*
G01*
X181449600Y-113352600D01*
G75*
G02*
X181199600Y-113602600I-250000J0D01*
G01*
X180699600Y-113602600D01*
G75*
G02*
X180449600Y-113352600I0J250000D01*
G01*
G37*
G36*
G01*
X178549600Y-113352600D02*
X178549600Y-112402600D01*
G75*
G02*
X178799600Y-112152600I250000J0D01*
G01*
X179299600Y-112152600D01*
G75*
G02*
X179549600Y-112402600I0J-250000D01*
G01*
X179549600Y-113352600D01*
G75*
G02*
X179299600Y-113602600I-250000J0D01*
G01*
X178799600Y-113602600D01*
G75*
G02*
X178549600Y-113352600I0J250000D01*
G01*
G37*
%TD*%
%TO.C,C12*%
G36*
G01*
X126357400Y-124756800D02*
X125407400Y-124756800D01*
G75*
G02*
X125157400Y-124506800I0J250000D01*
G01*
X125157400Y-124006800D01*
G75*
G02*
X125407400Y-123756800I250000J0D01*
G01*
X126357400Y-123756800D01*
G75*
G02*
X126607400Y-124006800I0J-250000D01*
G01*
X126607400Y-124506800D01*
G75*
G02*
X126357400Y-124756800I-250000J0D01*
G01*
G37*
G36*
G01*
X126357400Y-122856800D02*
X125407400Y-122856800D01*
G75*
G02*
X125157400Y-122606800I0J250000D01*
G01*
X125157400Y-122106800D01*
G75*
G02*
X125407400Y-121856800I250000J0D01*
G01*
X126357400Y-121856800D01*
G75*
G02*
X126607400Y-122106800I0J-250000D01*
G01*
X126607400Y-122606800D01*
G75*
G02*
X126357400Y-122856800I-250000J0D01*
G01*
G37*
%TD*%
%TO.C,C13*%
G36*
G01*
X167733600Y-112605800D02*
X167733600Y-113555800D01*
G75*
G02*
X167483600Y-113805800I-250000J0D01*
G01*
X166983600Y-113805800D01*
G75*
G02*
X166733600Y-113555800I0J250000D01*
G01*
X166733600Y-112605800D01*
G75*
G02*
X166983600Y-112355800I250000J0D01*
G01*
X167483600Y-112355800D01*
G75*
G02*
X167733600Y-112605800I0J-250000D01*
G01*
G37*
G36*
G01*
X169633600Y-112605800D02*
X169633600Y-113555800D01*
G75*
G02*
X169383600Y-113805800I-250000J0D01*
G01*
X168883600Y-113805800D01*
G75*
G02*
X168633600Y-113555800I0J250000D01*
G01*
X168633600Y-112605800D01*
G75*
G02*
X168883600Y-112355800I250000J0D01*
G01*
X169383600Y-112355800D01*
G75*
G02*
X169633600Y-112605800I0J-250000D01*
G01*
G37*
%TD*%
%TO.C,C14*%
G36*
G01*
X191050800Y-116720600D02*
X191050800Y-117670600D01*
G75*
G02*
X190800800Y-117920600I-250000J0D01*
G01*
X190300800Y-117920600D01*
G75*
G02*
X190050800Y-117670600I0J250000D01*
G01*
X190050800Y-116720600D01*
G75*
G02*
X190300800Y-116470600I250000J0D01*
G01*
X190800800Y-116470600D01*
G75*
G02*
X191050800Y-116720600I0J-250000D01*
G01*
G37*
G36*
G01*
X189150800Y-116720600D02*
X189150800Y-117670600D01*
G75*
G02*
X188900800Y-117920600I-250000J0D01*
G01*
X188400800Y-117920600D01*
G75*
G02*
X188150800Y-117670600I0J250000D01*
G01*
X188150800Y-116720600D01*
G75*
G02*
X188400800Y-116470600I250000J0D01*
G01*
X188900800Y-116470600D01*
G75*
G02*
X189150800Y-116720600I0J-250000D01*
G01*
G37*
%TD*%
%TO.C,C15*%
G36*
G01*
X122436000Y-113911400D02*
X122436000Y-112961400D01*
G75*
G02*
X122686000Y-112711400I250000J0D01*
G01*
X123186000Y-112711400D01*
G75*
G02*
X123436000Y-112961400I0J-250000D01*
G01*
X123436000Y-113911400D01*
G75*
G02*
X123186000Y-114161400I-250000J0D01*
G01*
X122686000Y-114161400D01*
G75*
G02*
X122436000Y-113911400I0J250000D01*
G01*
G37*
G36*
G01*
X120536000Y-113911400D02*
X120536000Y-112961400D01*
G75*
G02*
X120786000Y-112711400I250000J0D01*
G01*
X121286000Y-112711400D01*
G75*
G02*
X121536000Y-112961400I0J-250000D01*
G01*
X121536000Y-113911400D01*
G75*
G02*
X121286000Y-114161400I-250000J0D01*
G01*
X120786000Y-114161400D01*
G75*
G02*
X120536000Y-113911400I0J250000D01*
G01*
G37*
%TD*%
%TO.C,C16*%
G36*
G01*
X136944400Y-113555800D02*
X136944400Y-112605800D01*
G75*
G02*
X137194400Y-112355800I250000J0D01*
G01*
X137694400Y-112355800D01*
G75*
G02*
X137944400Y-112605800I0J-250000D01*
G01*
X137944400Y-113555800D01*
G75*
G02*
X137694400Y-113805800I-250000J0D01*
G01*
X137194400Y-113805800D01*
G75*
G02*
X136944400Y-113555800I0J250000D01*
G01*
G37*
G36*
G01*
X138844400Y-113555800D02*
X138844400Y-112605800D01*
G75*
G02*
X139094400Y-112355800I250000J0D01*
G01*
X139594400Y-112355800D01*
G75*
G02*
X139844400Y-112605800I0J-250000D01*
G01*
X139844400Y-113555800D01*
G75*
G02*
X139594400Y-113805800I-250000J0D01*
G01*
X139094400Y-113805800D01*
G75*
G02*
X138844400Y-113555800I0J250000D01*
G01*
G37*
%TD*%
%TO.C,C17*%
G36*
G01*
X208623200Y-113860600D02*
X208623200Y-112910600D01*
G75*
G02*
X208873200Y-112660600I250000J0D01*
G01*
X209373200Y-112660600D01*
G75*
G02*
X209623200Y-112910600I0J-250000D01*
G01*
X209623200Y-113860600D01*
G75*
G02*
X209373200Y-114110600I-250000J0D01*
G01*
X208873200Y-114110600D01*
G75*
G02*
X208623200Y-113860600I0J250000D01*
G01*
G37*
G36*
G01*
X210523200Y-113860600D02*
X210523200Y-112910600D01*
G75*
G02*
X210773200Y-112660600I250000J0D01*
G01*
X211273200Y-112660600D01*
G75*
G02*
X211523200Y-112910600I0J-250000D01*
G01*
X211523200Y-113860600D01*
G75*
G02*
X211273200Y-114110600I-250000J0D01*
G01*
X210773200Y-114110600D01*
G75*
G02*
X210523200Y-113860600I0J250000D01*
G01*
G37*
%TD*%
%TO.C,C18*%
G36*
G01*
X159504000Y-112859800D02*
X159504000Y-113809800D01*
G75*
G02*
X159254000Y-114059800I-250000J0D01*
G01*
X158754000Y-114059800D01*
G75*
G02*
X158504000Y-113809800I0J250000D01*
G01*
X158504000Y-112859800D01*
G75*
G02*
X158754000Y-112609800I250000J0D01*
G01*
X159254000Y-112609800D01*
G75*
G02*
X159504000Y-112859800I0J-250000D01*
G01*
G37*
G36*
G01*
X161404000Y-112859800D02*
X161404000Y-113809800D01*
G75*
G02*
X161154000Y-114059800I-250000J0D01*
G01*
X160654000Y-114059800D01*
G75*
G02*
X160404000Y-113809800I0J250000D01*
G01*
X160404000Y-112859800D01*
G75*
G02*
X160654000Y-112609800I250000J0D01*
G01*
X161154000Y-112609800D01*
G75*
G02*
X161404000Y-112859800I0J-250000D01*
G01*
G37*
%TD*%
M02*
