M48
; DRILL file {KiCad (5.1.10)-1} date 02/04/22 18:44:25
; FORMAT={-:-/ absolute / inch / decimal}
; #@! TF.CreationDate,2022-02-04T18:44:25-05:00
; #@! TF.GenerationSoftware,Kicad,Pcbnew,(5.1.10)-1
; #@! TF.FileFunction,Plated,1,2,PTH
FMAT,2
INCH
T1C0.0276
T2C0.0315
T3C0.0335
T4C0.0394
T5C0.0630
%
G90
G05
T1
X1.625Y-3.75
X1.925Y-3.75
X1.95Y-3.025
X1.95Y-3.15
X1.95Y-3.275
X2.25Y-3.025
X2.25Y-3.15
X2.25Y-3.275
X2.35Y-3.175
X2.45Y-3.275
X2.45Y-3.575
X2.575Y-3.275
X2.575Y-3.575
X2.65Y-3.175
X2.7Y-3.275
X2.7Y-3.575
T2
X1.65Y-3.0
X1.65Y-3.175
X1.6531Y-3.625
X1.6781Y-3.875
X1.8469Y-3.0
X1.8469Y-3.175
X1.85Y-3.625
X1.875Y-3.875
X2.035Y-2.6
X2.035Y-2.9
X2.135Y-2.6
X2.135Y-2.9
X2.235Y-2.6
X2.235Y-2.9
X2.2781Y-2.45
X2.335Y-2.6
X2.335Y-2.9
X2.3531Y-3.05
X2.435Y-2.6
X2.435Y-2.9
X2.475Y-2.45
X2.535Y-2.6
X2.535Y-2.9
X2.55Y-3.05
X2.575Y-2.075
X2.575Y-2.3
X2.635Y-2.6
X2.635Y-2.9
X2.6734Y-2.075
X2.6734Y-2.3
T3
X2.0163Y-2.3
X2.0313Y-2.075
X2.41Y-2.3
X2.425Y-2.075
T4
X1.725Y-1.975
X1.725Y-2.075
X1.725Y-2.175
X1.725Y-2.275
X1.725Y-2.375
X1.725Y-2.475
X1.725Y-2.575
X1.725Y-2.675
X1.825Y-1.975
X1.825Y-2.075
X1.825Y-2.175
X1.825Y-2.275
X1.825Y-2.375
X1.825Y-2.475
X1.825Y-2.575
X1.825Y-2.675
X2.525Y-3.825
X2.6234Y-3.825
T5
X1.875Y-1.2569
X1.875Y-1.375
X1.875Y-1.6978
X2.475Y-1.2569
X2.475Y-1.375
X2.475Y-1.6978
T1
G00X2.0256Y-3.475
M15
G01X2.0256Y-3.5065
M16
G05
G00X2.0433Y-3.3913
M15
G01X2.0748Y-3.3913
M16
G05
G00X2.1063Y-3.5587
M15
G01X2.1378Y-3.5587
M16
G05
G00X2.2913Y-3.5587
M15
G01X2.3228Y-3.5587
M16
G05
G00X2.3366Y-3.4435
M15
G01X2.3366Y-3.475
M16
G05
T0
M30
