%TF.GenerationSoftware,KiCad,Pcbnew,(5.1.10)-1*%
%TF.CreationDate,2022-02-04T18:44:23-05:00*%
%TF.ProjectId,BIGRIG_OUTPUT,42494752-4947-45f4-9f55-545055542e6b,rev?*%
%TF.SameCoordinates,Original*%
%TF.FileFunction,Paste,Bot*%
%TF.FilePolarity,Positive*%
%FSLAX46Y46*%
G04 Gerber Fmt 4.6, Leading zero omitted, Abs format (unit mm)*
G04 Created by KiCad (PCBNEW (5.1.10)-1) date 2022-02-04 18:44:23*
%MOMM*%
%LPD*%
G01*
G04 APERTURE LIST*
G04 APERTURE END LIST*
%TO.C,IC1*%
G36*
G01*
X46505000Y-89810000D02*
X46205000Y-89810000D01*
G75*
G02*
X46055000Y-89660000I0J150000D01*
G01*
X46055000Y-88010000D01*
G75*
G02*
X46205000Y-87860000I150000J0D01*
G01*
X46505000Y-87860000D01*
G75*
G02*
X46655000Y-88010000I0J-150000D01*
G01*
X46655000Y-89660000D01*
G75*
G02*
X46505000Y-89810000I-150000J0D01*
G01*
G37*
G36*
G01*
X45235000Y-89810000D02*
X44935000Y-89810000D01*
G75*
G02*
X44785000Y-89660000I0J150000D01*
G01*
X44785000Y-88010000D01*
G75*
G02*
X44935000Y-87860000I150000J0D01*
G01*
X45235000Y-87860000D01*
G75*
G02*
X45385000Y-88010000I0J-150000D01*
G01*
X45385000Y-89660000D01*
G75*
G02*
X45235000Y-89810000I-150000J0D01*
G01*
G37*
G36*
G01*
X43965000Y-89810000D02*
X43665000Y-89810000D01*
G75*
G02*
X43515000Y-89660000I0J150000D01*
G01*
X43515000Y-88010000D01*
G75*
G02*
X43665000Y-87860000I150000J0D01*
G01*
X43965000Y-87860000D01*
G75*
G02*
X44115000Y-88010000I0J-150000D01*
G01*
X44115000Y-89660000D01*
G75*
G02*
X43965000Y-89810000I-150000J0D01*
G01*
G37*
G36*
G01*
X42695000Y-89810000D02*
X42395000Y-89810000D01*
G75*
G02*
X42245000Y-89660000I0J150000D01*
G01*
X42245000Y-88010000D01*
G75*
G02*
X42395000Y-87860000I150000J0D01*
G01*
X42695000Y-87860000D01*
G75*
G02*
X42845000Y-88010000I0J-150000D01*
G01*
X42845000Y-89660000D01*
G75*
G02*
X42695000Y-89810000I-150000J0D01*
G01*
G37*
G36*
G01*
X42695000Y-84860000D02*
X42395000Y-84860000D01*
G75*
G02*
X42245000Y-84710000I0J150000D01*
G01*
X42245000Y-83060000D01*
G75*
G02*
X42395000Y-82910000I150000J0D01*
G01*
X42695000Y-82910000D01*
G75*
G02*
X42845000Y-83060000I0J-150000D01*
G01*
X42845000Y-84710000D01*
G75*
G02*
X42695000Y-84860000I-150000J0D01*
G01*
G37*
G36*
G01*
X43965000Y-84860000D02*
X43665000Y-84860000D01*
G75*
G02*
X43515000Y-84710000I0J150000D01*
G01*
X43515000Y-83060000D01*
G75*
G02*
X43665000Y-82910000I150000J0D01*
G01*
X43965000Y-82910000D01*
G75*
G02*
X44115000Y-83060000I0J-150000D01*
G01*
X44115000Y-84710000D01*
G75*
G02*
X43965000Y-84860000I-150000J0D01*
G01*
G37*
G36*
G01*
X45235000Y-84860000D02*
X44935000Y-84860000D01*
G75*
G02*
X44785000Y-84710000I0J150000D01*
G01*
X44785000Y-83060000D01*
G75*
G02*
X44935000Y-82910000I150000J0D01*
G01*
X45235000Y-82910000D01*
G75*
G02*
X45385000Y-83060000I0J-150000D01*
G01*
X45385000Y-84710000D01*
G75*
G02*
X45235000Y-84860000I-150000J0D01*
G01*
G37*
G36*
G01*
X46505000Y-84860000D02*
X46205000Y-84860000D01*
G75*
G02*
X46055000Y-84710000I0J150000D01*
G01*
X46055000Y-83060000D01*
G75*
G02*
X46205000Y-82910000I150000J0D01*
G01*
X46505000Y-82910000D01*
G75*
G02*
X46655000Y-83060000I0J-150000D01*
G01*
X46655000Y-84710000D01*
G75*
G02*
X46505000Y-84860000I-150000J0D01*
G01*
G37*
%TD*%
M02*
