%TF.GenerationSoftware,KiCad,Pcbnew,(5.1.10)-1*%
%TF.CreationDate,2022-02-04T18:44:23-05:00*%
%TF.ProjectId,BIGRIG_OUTPUT,42494752-4947-45f4-9f55-545055542e6b,rev?*%
%TF.SameCoordinates,Original*%
%TF.FileFunction,Copper,L1,Top*%
%TF.FilePolarity,Positive*%
%FSLAX46Y46*%
G04 Gerber Fmt 4.6, Leading zero omitted, Abs format (unit mm)*
G04 Created by KiCad (PCBNEW (5.1.10)-1) date 2022-02-04 18:44:23*
%MOMM*%
%LPD*%
G01*
G04 APERTURE LIST*
%TA.AperFunction,ComponentPad*%
%ADD10O,1.400000X1.400000*%
%TD*%
%TA.AperFunction,ComponentPad*%
%ADD11C,1.400000*%
%TD*%
%TA.AperFunction,ComponentPad*%
%ADD12C,1.600000*%
%TD*%
%TA.AperFunction,ComponentPad*%
%ADD13R,1.600000X1.600000*%
%TD*%
%TA.AperFunction,ComponentPad*%
%ADD14O,1.600000X1.600000*%
%TD*%
%TA.AperFunction,ComponentPad*%
%ADD15C,1.700000*%
%TD*%
%TA.AperFunction,ComponentPad*%
%ADD16O,4.000000X2.500000*%
%TD*%
%TA.AperFunction,ComponentPad*%
%ADD17O,2.500000X1.700000*%
%TD*%
%TA.AperFunction,ComponentPad*%
%ADD18O,1.700000X2.500000*%
%TD*%
%TA.AperFunction,ComponentPad*%
%ADD19O,1.700000X2.000000*%
%TD*%
%TA.AperFunction,ComponentPad*%
%ADD20R,1.600000X2.400000*%
%TD*%
%TA.AperFunction,ComponentPad*%
%ADD21O,1.600000X2.400000*%
%TD*%
%TA.AperFunction,Conductor*%
%ADD22C,0.500000*%
%TD*%
%TA.AperFunction,Conductor*%
%ADD23C,0.254000*%
%TD*%
%TA.AperFunction,Conductor*%
%ADD24C,0.100000*%
%TD*%
G04 APERTURE END LIST*
D10*
%TO.P,R15,2*%
%TO.N,Net-(C13-Pad1)*%
X49530000Y-76835000D03*
D11*
%TO.P,R15,1*%
%TO.N,Right_phone*%
X57150000Y-76835000D03*
%TD*%
D12*
%TO.P,C2,2*%
%TO.N,GND*%
X67905000Y-52705000D03*
D13*
%TO.P,C2,1*%
%TO.N,+12V*%
X65405000Y-52705000D03*
%TD*%
D12*
%TO.P,C3,1*%
%TO.N,GND*%
X62865000Y-62230000D03*
%TO.P,C3,2*%
%TO.N,+12V*%
X57865000Y-62230000D03*
%TD*%
%TO.P,C4,2*%
%TO.N,-12V*%
X59770000Y-77470000D03*
%TO.P,C4,1*%
%TO.N,GND*%
X64770000Y-77470000D03*
%TD*%
D13*
%TO.P,C5,1*%
%TO.N,GND*%
X65405000Y-58420000D03*
D12*
%TO.P,C5,2*%
%TO.N,-12V*%
X67905000Y-58420000D03*
%TD*%
%TO.P,C8,2*%
%TO.N,Net-(C8-Pad2)*%
X42625000Y-98425000D03*
%TO.P,C8,1*%
%TO.N,Left_phone*%
X47625000Y-98425000D03*
%TD*%
%TO.P,C9,1*%
%TO.N,GND*%
X46990000Y-92075000D03*
%TO.P,C9,2*%
%TO.N,-12V*%
X41990000Y-92075000D03*
%TD*%
%TO.P,C12,2*%
%TO.N,+12V*%
X46910000Y-80645000D03*
%TO.P,C12,1*%
%TO.N,GND*%
X41910000Y-80645000D03*
%TD*%
%TO.P,C13,1*%
%TO.N,Net-(C13-Pad1)*%
X41910000Y-76200000D03*
%TO.P,C13,2*%
%TO.N,Right_phone*%
X46910000Y-76200000D03*
%TD*%
%TO.P,FB2,1*%
%TO.N,-12V*%
X61214000Y-58420000D03*
D14*
%TO.P,FB2,2*%
%TO.N,Net-(FB2-Pad2)*%
X51214000Y-58420000D03*
%TD*%
%TO.P,FB3,2*%
%TO.N,Net-(FB3-Pad2)*%
X51595000Y-52705000D03*
D12*
%TO.P,FB3,1*%
%TO.N,+12V*%
X61595000Y-52705000D03*
%TD*%
%TO.P,J1,1*%
%TO.N,Net-(FB2-Pad2)*%
%TA.AperFunction,ComponentPad*%
G36*
G01*
X42965000Y-68545000D02*
X42965000Y-67345000D01*
G75*
G02*
X43215000Y-67095000I250000J0D01*
G01*
X44415000Y-67095000D01*
G75*
G02*
X44665000Y-67345000I0J-250000D01*
G01*
X44665000Y-68545000D01*
G75*
G02*
X44415000Y-68795000I-250000J0D01*
G01*
X43215000Y-68795000D01*
G75*
G02*
X42965000Y-68545000I0J250000D01*
G01*
G37*
%TD.AperFunction*%
D15*
%TO.P,J1,3*%
%TO.N,GND*%
X43815000Y-65405000D03*
%TO.P,J1,5*%
X43815000Y-62865000D03*
%TO.P,J1,7*%
X43815000Y-60325000D03*
%TO.P,J1,9*%
%TO.N,Net-(FB3-Pad2)*%
X43815000Y-57785000D03*
%TO.P,J1,11*%
%TO.N,Net-(J1-Pad11)*%
X43815000Y-55245000D03*
%TO.P,J1,13*%
%TO.N,Net-(J1-Pad13)*%
X43815000Y-52705000D03*
%TO.P,J1,15*%
%TO.N,Net-(J1-Pad15)*%
X43815000Y-50165000D03*
%TO.P,J1,2*%
%TO.N,Net-(FB2-Pad2)*%
X46355000Y-67945000D03*
%TO.P,J1,4*%
%TO.N,GND*%
X46355000Y-65405000D03*
%TO.P,J1,6*%
X46355000Y-62865000D03*
%TO.P,J1,8*%
X46355000Y-60325000D03*
%TO.P,J1,10*%
%TO.N,Net-(FB3-Pad2)*%
X46355000Y-57785000D03*
%TO.P,J1,12*%
%TO.N,Net-(J1-Pad11)*%
X46355000Y-55245000D03*
%TO.P,J1,14*%
%TO.N,Net-(J1-Pad13)*%
X46355000Y-52705000D03*
%TO.P,J1,16*%
%TO.N,Net-(J1-Pad15)*%
X46355000Y-50165000D03*
%TD*%
D16*
%TO.P,J2,1*%
%TO.N,GND*%
X62865000Y-31925000D03*
%TO.P,J2,2*%
%TO.N,Net-(J2-Pad2)*%
X62865000Y-34925000D03*
%TO.P,J2,3*%
%TO.N,Net-(J2-Pad3)*%
X62865000Y-43125000D03*
%TD*%
%TO.P,J3,3*%
%TO.N,Net-(J3-Pad3)*%
X47625000Y-43125000D03*
%TO.P,J3,2*%
%TO.N,Net-(J3-Pad2)*%
X47625000Y-34925000D03*
%TO.P,J3,1*%
%TO.N,GND*%
X47625000Y-31925000D03*
%TD*%
D17*
%TO.P,J4,SN*%
%TO.N,Net-(J4-PadSN)*%
X52300000Y-86140000D03*
%TO.P,J4,TN*%
%TO.N,Net-(J4-PadTN)*%
X58600000Y-90390000D03*
D18*
%TO.P,J4,T*%
%TO.N,Left_phone*%
X59350000Y-87865000D03*
D17*
%TO.P,J4,G*%
%TO.N,GND*%
X53900000Y-90390000D03*
D18*
%TO.P,J4,S*%
%TO.N,Right_phone*%
X51450000Y-88665000D03*
%TD*%
%TO.P,J5,1*%
%TO.N,GND*%
%TA.AperFunction,ComponentPad*%
G36*
G01*
X63285000Y-97905000D02*
X63285000Y-96405000D01*
G75*
G02*
X63535000Y-96155000I250000J0D01*
G01*
X64735000Y-96155000D01*
G75*
G02*
X64985000Y-96405000I0J-250000D01*
G01*
X64985000Y-97905000D01*
G75*
G02*
X64735000Y-98155000I-250000J0D01*
G01*
X63535000Y-98155000D01*
G75*
G02*
X63285000Y-97905000I0J250000D01*
G01*
G37*
%TD.AperFunction*%
D19*
%TO.P,J5,2*%
%TO.N,Mono_Line*%
X66635000Y-97155000D03*
%TD*%
D10*
%TO.P,R9,2*%
%TO.N,Left*%
X57150000Y-80010000D03*
D11*
%TO.P,R9,1*%
%TO.N,Net-(C8-Pad2)*%
X49530000Y-80010000D03*
%TD*%
%TO.P,R10,1*%
%TO.N,Net-(C8-Pad2)*%
X41275000Y-95250000D03*
D10*
%TO.P,R10,2*%
%TO.N,Left_phone*%
X48895000Y-95250000D03*
%TD*%
%TO.P,R11,2*%
%TO.N,Left_phone*%
X62230000Y-90805000D03*
D11*
%TO.P,R11,1*%
%TO.N,Net-(R11-Pad1)*%
X62230000Y-83185000D03*
%TD*%
%TO.P,R12,1*%
%TO.N,Net-(R11-Pad1)*%
X65405000Y-83185000D03*
D10*
%TO.P,R12,2*%
%TO.N,Right_phone*%
X65405000Y-90805000D03*
%TD*%
D11*
%TO.P,R13,1*%
%TO.N,Net-(R13-Pad1)*%
X67310000Y-80645000D03*
D10*
%TO.P,R13,2*%
%TO.N,Net-(R11-Pad1)*%
X59690000Y-80645000D03*
%TD*%
%TO.P,R14,2*%
%TO.N,Net-(R13-Pad1)*%
X68580000Y-83185000D03*
D11*
%TO.P,R14,1*%
%TO.N,Mono_Line*%
X68580000Y-90805000D03*
%TD*%
%TO.P,R16,1*%
%TO.N,Net-(C13-Pad1)*%
X49530000Y-83185000D03*
D10*
%TO.P,R16,2*%
%TO.N,Right*%
X57150000Y-83185000D03*
%TD*%
D20*
%TO.P,U1,1*%
%TO.N,Right*%
X51689000Y-66040000D03*
D21*
%TO.P,U1,8*%
%TO.N,Net-(R13-Pad1)*%
X66929000Y-73660000D03*
%TO.P,U1,2*%
%TO.N,Right*%
X54229000Y-66040000D03*
%TO.P,U1,9*%
%TO.N,Net-(R11-Pad1)*%
X64389000Y-73660000D03*
%TO.P,U1,3*%
%TO.N,Net-(J2-Pad3)*%
X56769000Y-66040000D03*
%TO.P,U1,10*%
%TO.N,GND*%
X61849000Y-73660000D03*
%TO.P,U1,4*%
%TO.N,+12V*%
X59309000Y-66040000D03*
%TO.P,U1,11*%
%TO.N,-12V*%
X59309000Y-73660000D03*
%TO.P,U1,5*%
%TO.N,Net-(J3-Pad3)*%
X61849000Y-66040000D03*
%TO.P,U1,12*%
%TO.N,N/C*%
X56769000Y-73660000D03*
%TO.P,U1,6*%
%TO.N,Left*%
X64389000Y-66040000D03*
%TO.P,U1,13*%
%TO.N,N/C*%
X54229000Y-73660000D03*
%TO.P,U1,7*%
%TO.N,Left*%
X66929000Y-66040000D03*
%TO.P,U1,14*%
%TO.N,N/C*%
X51689000Y-73660000D03*
%TD*%
D22*
%TO.N,Net-(C8-Pad2)*%
X42625000Y-96600000D02*
X41275000Y-95250000D01*
X42625000Y-98425000D02*
X42625000Y-96600000D01*
X40739999Y-94714999D02*
X41275000Y-95250000D01*
X40739999Y-88800001D02*
X40739999Y-94714999D01*
X49530000Y-80010000D02*
X40739999Y-88800001D01*
%TO.N,Left_phone*%
X58886509Y-87865000D02*
X59350000Y-87865000D01*
X51501509Y-95250000D02*
X58886509Y-87865000D01*
X48895000Y-95250000D02*
X51501509Y-95250000D01*
X62230000Y-90745000D02*
X59350000Y-87865000D01*
X62230000Y-90805000D02*
X62230000Y-90745000D01*
X47625000Y-96520000D02*
X48895000Y-95250000D01*
X47625000Y-98425000D02*
X47625000Y-96520000D01*
%TO.N,Net-(C13-Pad1)*%
X50680001Y-77985001D02*
X49530000Y-76835000D01*
X50680001Y-82034999D02*
X50680001Y-77985001D01*
X49530000Y-83185000D02*
X50680001Y-82034999D01*
X43160001Y-74949999D02*
X41910000Y-76200000D01*
X47644999Y-74949999D02*
X43160001Y-74949999D01*
X49530000Y-76835000D02*
X47644999Y-74949999D01*
%TO.N,Right_phone*%
X52453998Y-88665000D02*
X51450000Y-88665000D01*
X54954008Y-86164990D02*
X52453998Y-88665000D01*
X65405000Y-90805000D02*
X60764990Y-86164990D01*
X58300001Y-86036801D02*
X58428190Y-86164990D01*
X58300001Y-77985001D02*
X58300001Y-86036801D01*
X57150000Y-76835000D02*
X58300001Y-77985001D01*
X58428190Y-86164990D02*
X54954008Y-86164990D01*
X60764990Y-86164990D02*
X58428190Y-86164990D01*
%TO.N,Net-(J3-Pad3)*%
X52845001Y-48345001D02*
X47625000Y-43125000D01*
X52845001Y-54060003D02*
X52845001Y-48345001D01*
X61849000Y-63064002D02*
X52845001Y-54060003D01*
X61849000Y-66040000D02*
X61849000Y-63064002D01*
%TO.N,Mono_Line*%
X68580000Y-95210000D02*
X66635000Y-97155000D01*
X68580000Y-90805000D02*
X68580000Y-95210000D01*
%TO.N,Left*%
X64389000Y-66040000D02*
X66929000Y-66040000D01*
X58058990Y-72370010D02*
X64389000Y-66040000D01*
X58058990Y-74537791D02*
X58058990Y-72370010D01*
X57286771Y-75310010D02*
X58058990Y-74537791D01*
X56972988Y-75310010D02*
X57286771Y-75310010D01*
X55999999Y-76282999D02*
X56972988Y-75310010D01*
X55999999Y-78859999D02*
X55999999Y-76282999D01*
X57150000Y-80010000D02*
X55999999Y-78859999D01*
%TO.N,Net-(R11-Pad1)*%
X62230000Y-83185000D02*
X59690000Y-80645000D01*
X65405000Y-83185000D02*
X62230000Y-83185000D01*
X64389000Y-75946000D02*
X64389000Y-73660000D01*
X59690000Y-80645000D02*
X64389000Y-75946000D01*
%TO.N,Net-(R13-Pad1)*%
X67310000Y-81915000D02*
X68580000Y-83185000D01*
X67310000Y-80645000D02*
X67310000Y-81915000D01*
X67310000Y-74041000D02*
X66929000Y-73660000D01*
X67310000Y-80645000D02*
X67310000Y-74041000D01*
%TO.N,Right*%
X51689000Y-66040000D02*
X54229000Y-66040000D01*
X55299989Y-74796772D02*
X55479010Y-74617751D01*
X55479010Y-67290010D02*
X54229000Y-66040000D01*
X55299989Y-81334989D02*
X55299989Y-74796772D01*
X55479010Y-74617751D02*
X55479010Y-67290010D01*
X57150000Y-83185000D02*
X55299989Y-81334989D01*
%TD*%
D23*
%TO.N,GND*%
X65730068Y-74861100D02*
X65909392Y-75079607D01*
X66127899Y-75258932D01*
X66377192Y-75392182D01*
X66425001Y-75406684D01*
X66425000Y-79642025D01*
X66273038Y-79793987D01*
X66126939Y-80012641D01*
X66026304Y-80255595D01*
X65975000Y-80513514D01*
X65975000Y-80776486D01*
X66026304Y-81034405D01*
X66126939Y-81277359D01*
X66273038Y-81496013D01*
X66425001Y-81647976D01*
X66425001Y-81871522D01*
X66420719Y-81915000D01*
X66437805Y-82088490D01*
X66488412Y-82255313D01*
X66570590Y-82409059D01*
X66653468Y-82510046D01*
X66653471Y-82510049D01*
X66681184Y-82543817D01*
X66714951Y-82571529D01*
X67245000Y-83101578D01*
X67245000Y-83316486D01*
X67296304Y-83574405D01*
X67396939Y-83817359D01*
X67543038Y-84036013D01*
X67728987Y-84221962D01*
X67947641Y-84368061D01*
X68190595Y-84468696D01*
X68448514Y-84520000D01*
X68711486Y-84520000D01*
X68969405Y-84468696D01*
X69212359Y-84368061D01*
X69340001Y-84282774D01*
X69340001Y-89707226D01*
X69212359Y-89621939D01*
X68969405Y-89521304D01*
X68711486Y-89470000D01*
X68448514Y-89470000D01*
X68190595Y-89521304D01*
X67947641Y-89621939D01*
X67728987Y-89768038D01*
X67543038Y-89953987D01*
X67396939Y-90172641D01*
X67296304Y-90415595D01*
X67245000Y-90673514D01*
X67245000Y-90936486D01*
X67296304Y-91194405D01*
X67396939Y-91437359D01*
X67543038Y-91656013D01*
X67695000Y-91807975D01*
X67695001Y-94843420D01*
X66980450Y-95557971D01*
X66926110Y-95541487D01*
X66635000Y-95512815D01*
X66343889Y-95541487D01*
X66063966Y-95626401D01*
X65805986Y-95764294D01*
X65585055Y-95945608D01*
X65574502Y-95910820D01*
X65515537Y-95800506D01*
X65436185Y-95703815D01*
X65339494Y-95624463D01*
X65229180Y-95565498D01*
X65109482Y-95529188D01*
X64985000Y-95516928D01*
X64420750Y-95520000D01*
X64262000Y-95678750D01*
X64262000Y-97028000D01*
X64282000Y-97028000D01*
X64282000Y-97282000D01*
X64262000Y-97282000D01*
X64262000Y-98631250D01*
X64420750Y-98790000D01*
X64985000Y-98793072D01*
X65109482Y-98780812D01*
X65229180Y-98744502D01*
X65339494Y-98685537D01*
X65436185Y-98606185D01*
X65515537Y-98509494D01*
X65574502Y-98399180D01*
X65585055Y-98364392D01*
X65805987Y-98545706D01*
X66063967Y-98683599D01*
X66343890Y-98768513D01*
X66635000Y-98797185D01*
X66926111Y-98768513D01*
X67206034Y-98683599D01*
X67464014Y-98545706D01*
X67690134Y-98360134D01*
X67875706Y-98134014D01*
X68013599Y-97876033D01*
X68098513Y-97596110D01*
X68120000Y-97377949D01*
X68120000Y-96932050D01*
X68119061Y-96922517D01*
X69175049Y-95866530D01*
X69208817Y-95838817D01*
X69240259Y-95800506D01*
X69319410Y-95704060D01*
X69319541Y-95703815D01*
X69340001Y-95665537D01*
X69340001Y-99340000D01*
X48739396Y-99340000D01*
X48739637Y-99339759D01*
X48896680Y-99104727D01*
X49004853Y-98843574D01*
X49060000Y-98566335D01*
X49060000Y-98283665D01*
X49034407Y-98155000D01*
X62646928Y-98155000D01*
X62659188Y-98279482D01*
X62695498Y-98399180D01*
X62754463Y-98509494D01*
X62833815Y-98606185D01*
X62930506Y-98685537D01*
X63040820Y-98744502D01*
X63160518Y-98780812D01*
X63285000Y-98793072D01*
X63849250Y-98790000D01*
X64008000Y-98631250D01*
X64008000Y-97282000D01*
X62808750Y-97282000D01*
X62650000Y-97440750D01*
X62646928Y-98155000D01*
X49034407Y-98155000D01*
X49004853Y-98006426D01*
X48896680Y-97745273D01*
X48739637Y-97510241D01*
X48539759Y-97310363D01*
X48510000Y-97290479D01*
X48510000Y-96886578D01*
X48811578Y-96585000D01*
X49026486Y-96585000D01*
X49284405Y-96533696D01*
X49527359Y-96433061D01*
X49746013Y-96286962D01*
X49897975Y-96135000D01*
X51458040Y-96135000D01*
X51501509Y-96139281D01*
X51544978Y-96135000D01*
X51544986Y-96135000D01*
X51674999Y-96122195D01*
X51841822Y-96071589D01*
X51995568Y-95989411D01*
X52130326Y-95878817D01*
X52158043Y-95845044D01*
X52908079Y-95095008D01*
X52850890Y-95233075D01*
X52765000Y-95664872D01*
X52765000Y-96105128D01*
X52850890Y-96536925D01*
X53019369Y-96943669D01*
X53263962Y-97309729D01*
X53575271Y-97621038D01*
X53941331Y-97865631D01*
X54348075Y-98034110D01*
X54779872Y-98120000D01*
X55220128Y-98120000D01*
X55651925Y-98034110D01*
X56058669Y-97865631D01*
X56424729Y-97621038D01*
X56736038Y-97309729D01*
X56980631Y-96943669D01*
X57149110Y-96536925D01*
X57225079Y-96155000D01*
X62646928Y-96155000D01*
X62650000Y-96869250D01*
X62808750Y-97028000D01*
X64008000Y-97028000D01*
X64008000Y-95678750D01*
X63849250Y-95520000D01*
X63285000Y-95516928D01*
X63160518Y-95529188D01*
X63040820Y-95565498D01*
X62930506Y-95624463D01*
X62833815Y-95703815D01*
X62754463Y-95800506D01*
X62695498Y-95910820D01*
X62659188Y-96030518D01*
X62646928Y-96155000D01*
X57225079Y-96155000D01*
X57235000Y-96105128D01*
X57235000Y-95664872D01*
X57149110Y-95233075D01*
X56980631Y-94826331D01*
X56736038Y-94460271D01*
X56424729Y-94148962D01*
X56058669Y-93904369D01*
X55651925Y-93735890D01*
X55220128Y-93650000D01*
X54779872Y-93650000D01*
X54348075Y-93735890D01*
X54210008Y-93793079D01*
X56898260Y-91104828D01*
X56959294Y-91219014D01*
X57144866Y-91445134D01*
X57370986Y-91630706D01*
X57628966Y-91768599D01*
X57908889Y-91853513D01*
X58127050Y-91875000D01*
X59072950Y-91875000D01*
X59291111Y-91853513D01*
X59571034Y-91768599D01*
X59829014Y-91630706D01*
X60055134Y-91445134D01*
X60240706Y-91219014D01*
X60378599Y-90961034D01*
X60463513Y-90681111D01*
X60492185Y-90390000D01*
X60477847Y-90244426D01*
X60896980Y-90663559D01*
X60895000Y-90673514D01*
X60895000Y-90936486D01*
X60946304Y-91194405D01*
X61046939Y-91437359D01*
X61193038Y-91656013D01*
X61378987Y-91841962D01*
X61597641Y-91988061D01*
X61840595Y-92088696D01*
X62098514Y-92140000D01*
X62361486Y-92140000D01*
X62619405Y-92088696D01*
X62862359Y-91988061D01*
X63081013Y-91841962D01*
X63266962Y-91656013D01*
X63413061Y-91437359D01*
X63513696Y-91194405D01*
X63565000Y-90936486D01*
X63565000Y-90673514D01*
X63513696Y-90415595D01*
X63413061Y-90172641D01*
X63266962Y-89953987D01*
X63081013Y-89768038D01*
X62862359Y-89621939D01*
X62619405Y-89521304D01*
X62361486Y-89470000D01*
X62206579Y-89470000D01*
X60835000Y-88098422D01*
X60835000Y-87486578D01*
X64070000Y-90721579D01*
X64070000Y-90936486D01*
X64121304Y-91194405D01*
X64221939Y-91437359D01*
X64368038Y-91656013D01*
X64553987Y-91841962D01*
X64772641Y-91988061D01*
X65015595Y-92088696D01*
X65273514Y-92140000D01*
X65536486Y-92140000D01*
X65794405Y-92088696D01*
X66037359Y-91988061D01*
X66256013Y-91841962D01*
X66441962Y-91656013D01*
X66588061Y-91437359D01*
X66688696Y-91194405D01*
X66740000Y-90936486D01*
X66740000Y-90673514D01*
X66688696Y-90415595D01*
X66588061Y-90172641D01*
X66441962Y-89953987D01*
X66256013Y-89768038D01*
X66037359Y-89621939D01*
X65794405Y-89521304D01*
X65536486Y-89470000D01*
X65321579Y-89470000D01*
X61421522Y-85569944D01*
X61393807Y-85536173D01*
X61259049Y-85425579D01*
X61105303Y-85343401D01*
X60938480Y-85292795D01*
X60808467Y-85279990D01*
X60808459Y-85279990D01*
X60764990Y-85275709D01*
X60721521Y-85279990D01*
X59185001Y-85279990D01*
X59185001Y-81880815D01*
X59300595Y-81928696D01*
X59558514Y-81980000D01*
X59773422Y-81980000D01*
X60895000Y-83101579D01*
X60895000Y-83316486D01*
X60946304Y-83574405D01*
X61046939Y-83817359D01*
X61193038Y-84036013D01*
X61378987Y-84221962D01*
X61597641Y-84368061D01*
X61840595Y-84468696D01*
X62098514Y-84520000D01*
X62361486Y-84520000D01*
X62619405Y-84468696D01*
X62862359Y-84368061D01*
X63081013Y-84221962D01*
X63232975Y-84070000D01*
X64402025Y-84070000D01*
X64553987Y-84221962D01*
X64772641Y-84368061D01*
X65015595Y-84468696D01*
X65273514Y-84520000D01*
X65536486Y-84520000D01*
X65794405Y-84468696D01*
X66037359Y-84368061D01*
X66256013Y-84221962D01*
X66441962Y-84036013D01*
X66588061Y-83817359D01*
X66688696Y-83574405D01*
X66740000Y-83316486D01*
X66740000Y-83053514D01*
X66688696Y-82795595D01*
X66588061Y-82552641D01*
X66441962Y-82333987D01*
X66256013Y-82148038D01*
X66037359Y-82001939D01*
X65794405Y-81901304D01*
X65536486Y-81850000D01*
X65273514Y-81850000D01*
X65015595Y-81901304D01*
X64772641Y-82001939D01*
X64553987Y-82148038D01*
X64402025Y-82300000D01*
X63232975Y-82300000D01*
X63081013Y-82148038D01*
X62862359Y-82001939D01*
X62619405Y-81901304D01*
X62361486Y-81850000D01*
X62146579Y-81850000D01*
X61025000Y-80728422D01*
X61025000Y-80561578D01*
X63123876Y-78462702D01*
X63956903Y-78462702D01*
X64028486Y-78706671D01*
X64283996Y-78827571D01*
X64558184Y-78896300D01*
X64840512Y-78910217D01*
X65120130Y-78868787D01*
X65386292Y-78773603D01*
X65511514Y-78706671D01*
X65583097Y-78462702D01*
X64770000Y-77649605D01*
X63956903Y-78462702D01*
X63123876Y-78462702D01*
X63478202Y-78108377D01*
X63533329Y-78211514D01*
X63777298Y-78283097D01*
X64590395Y-77470000D01*
X64949605Y-77470000D01*
X65762702Y-78283097D01*
X66006671Y-78211514D01*
X66127571Y-77956004D01*
X66196300Y-77681816D01*
X66210217Y-77399488D01*
X66168787Y-77119870D01*
X66073603Y-76853708D01*
X66006671Y-76728486D01*
X65762702Y-76656903D01*
X64949605Y-77470000D01*
X64590395Y-77470000D01*
X64576253Y-77455858D01*
X64755858Y-77276253D01*
X64770000Y-77290395D01*
X65583097Y-76477298D01*
X65511514Y-76233329D01*
X65261628Y-76115090D01*
X65265950Y-76071213D01*
X65274000Y-75989477D01*
X65274000Y-75989469D01*
X65278281Y-75946000D01*
X65274000Y-75902531D01*
X65274000Y-75190077D01*
X65408607Y-75079608D01*
X65587932Y-74861101D01*
X65659000Y-74728142D01*
X65730068Y-74861100D01*
%TA.AperFunction,Conductor*%
D24*
G36*
X65730068Y-74861100D02*
G01*
X65909392Y-75079607D01*
X66127899Y-75258932D01*
X66377192Y-75392182D01*
X66425001Y-75406684D01*
X66425000Y-79642025D01*
X66273038Y-79793987D01*
X66126939Y-80012641D01*
X66026304Y-80255595D01*
X65975000Y-80513514D01*
X65975000Y-80776486D01*
X66026304Y-81034405D01*
X66126939Y-81277359D01*
X66273038Y-81496013D01*
X66425001Y-81647976D01*
X66425001Y-81871522D01*
X66420719Y-81915000D01*
X66437805Y-82088490D01*
X66488412Y-82255313D01*
X66570590Y-82409059D01*
X66653468Y-82510046D01*
X66653471Y-82510049D01*
X66681184Y-82543817D01*
X66714951Y-82571529D01*
X67245000Y-83101578D01*
X67245000Y-83316486D01*
X67296304Y-83574405D01*
X67396939Y-83817359D01*
X67543038Y-84036013D01*
X67728987Y-84221962D01*
X67947641Y-84368061D01*
X68190595Y-84468696D01*
X68448514Y-84520000D01*
X68711486Y-84520000D01*
X68969405Y-84468696D01*
X69212359Y-84368061D01*
X69340001Y-84282774D01*
X69340001Y-89707226D01*
X69212359Y-89621939D01*
X68969405Y-89521304D01*
X68711486Y-89470000D01*
X68448514Y-89470000D01*
X68190595Y-89521304D01*
X67947641Y-89621939D01*
X67728987Y-89768038D01*
X67543038Y-89953987D01*
X67396939Y-90172641D01*
X67296304Y-90415595D01*
X67245000Y-90673514D01*
X67245000Y-90936486D01*
X67296304Y-91194405D01*
X67396939Y-91437359D01*
X67543038Y-91656013D01*
X67695000Y-91807975D01*
X67695001Y-94843420D01*
X66980450Y-95557971D01*
X66926110Y-95541487D01*
X66635000Y-95512815D01*
X66343889Y-95541487D01*
X66063966Y-95626401D01*
X65805986Y-95764294D01*
X65585055Y-95945608D01*
X65574502Y-95910820D01*
X65515537Y-95800506D01*
X65436185Y-95703815D01*
X65339494Y-95624463D01*
X65229180Y-95565498D01*
X65109482Y-95529188D01*
X64985000Y-95516928D01*
X64420750Y-95520000D01*
X64262000Y-95678750D01*
X64262000Y-97028000D01*
X64282000Y-97028000D01*
X64282000Y-97282000D01*
X64262000Y-97282000D01*
X64262000Y-98631250D01*
X64420750Y-98790000D01*
X64985000Y-98793072D01*
X65109482Y-98780812D01*
X65229180Y-98744502D01*
X65339494Y-98685537D01*
X65436185Y-98606185D01*
X65515537Y-98509494D01*
X65574502Y-98399180D01*
X65585055Y-98364392D01*
X65805987Y-98545706D01*
X66063967Y-98683599D01*
X66343890Y-98768513D01*
X66635000Y-98797185D01*
X66926111Y-98768513D01*
X67206034Y-98683599D01*
X67464014Y-98545706D01*
X67690134Y-98360134D01*
X67875706Y-98134014D01*
X68013599Y-97876033D01*
X68098513Y-97596110D01*
X68120000Y-97377949D01*
X68120000Y-96932050D01*
X68119061Y-96922517D01*
X69175049Y-95866530D01*
X69208817Y-95838817D01*
X69240259Y-95800506D01*
X69319410Y-95704060D01*
X69319541Y-95703815D01*
X69340001Y-95665537D01*
X69340001Y-99340000D01*
X48739396Y-99340000D01*
X48739637Y-99339759D01*
X48896680Y-99104727D01*
X49004853Y-98843574D01*
X49060000Y-98566335D01*
X49060000Y-98283665D01*
X49034407Y-98155000D01*
X62646928Y-98155000D01*
X62659188Y-98279482D01*
X62695498Y-98399180D01*
X62754463Y-98509494D01*
X62833815Y-98606185D01*
X62930506Y-98685537D01*
X63040820Y-98744502D01*
X63160518Y-98780812D01*
X63285000Y-98793072D01*
X63849250Y-98790000D01*
X64008000Y-98631250D01*
X64008000Y-97282000D01*
X62808750Y-97282000D01*
X62650000Y-97440750D01*
X62646928Y-98155000D01*
X49034407Y-98155000D01*
X49004853Y-98006426D01*
X48896680Y-97745273D01*
X48739637Y-97510241D01*
X48539759Y-97310363D01*
X48510000Y-97290479D01*
X48510000Y-96886578D01*
X48811578Y-96585000D01*
X49026486Y-96585000D01*
X49284405Y-96533696D01*
X49527359Y-96433061D01*
X49746013Y-96286962D01*
X49897975Y-96135000D01*
X51458040Y-96135000D01*
X51501509Y-96139281D01*
X51544978Y-96135000D01*
X51544986Y-96135000D01*
X51674999Y-96122195D01*
X51841822Y-96071589D01*
X51995568Y-95989411D01*
X52130326Y-95878817D01*
X52158043Y-95845044D01*
X52908079Y-95095008D01*
X52850890Y-95233075D01*
X52765000Y-95664872D01*
X52765000Y-96105128D01*
X52850890Y-96536925D01*
X53019369Y-96943669D01*
X53263962Y-97309729D01*
X53575271Y-97621038D01*
X53941331Y-97865631D01*
X54348075Y-98034110D01*
X54779872Y-98120000D01*
X55220128Y-98120000D01*
X55651925Y-98034110D01*
X56058669Y-97865631D01*
X56424729Y-97621038D01*
X56736038Y-97309729D01*
X56980631Y-96943669D01*
X57149110Y-96536925D01*
X57225079Y-96155000D01*
X62646928Y-96155000D01*
X62650000Y-96869250D01*
X62808750Y-97028000D01*
X64008000Y-97028000D01*
X64008000Y-95678750D01*
X63849250Y-95520000D01*
X63285000Y-95516928D01*
X63160518Y-95529188D01*
X63040820Y-95565498D01*
X62930506Y-95624463D01*
X62833815Y-95703815D01*
X62754463Y-95800506D01*
X62695498Y-95910820D01*
X62659188Y-96030518D01*
X62646928Y-96155000D01*
X57225079Y-96155000D01*
X57235000Y-96105128D01*
X57235000Y-95664872D01*
X57149110Y-95233075D01*
X56980631Y-94826331D01*
X56736038Y-94460271D01*
X56424729Y-94148962D01*
X56058669Y-93904369D01*
X55651925Y-93735890D01*
X55220128Y-93650000D01*
X54779872Y-93650000D01*
X54348075Y-93735890D01*
X54210008Y-93793079D01*
X56898260Y-91104828D01*
X56959294Y-91219014D01*
X57144866Y-91445134D01*
X57370986Y-91630706D01*
X57628966Y-91768599D01*
X57908889Y-91853513D01*
X58127050Y-91875000D01*
X59072950Y-91875000D01*
X59291111Y-91853513D01*
X59571034Y-91768599D01*
X59829014Y-91630706D01*
X60055134Y-91445134D01*
X60240706Y-91219014D01*
X60378599Y-90961034D01*
X60463513Y-90681111D01*
X60492185Y-90390000D01*
X60477847Y-90244426D01*
X60896980Y-90663559D01*
X60895000Y-90673514D01*
X60895000Y-90936486D01*
X60946304Y-91194405D01*
X61046939Y-91437359D01*
X61193038Y-91656013D01*
X61378987Y-91841962D01*
X61597641Y-91988061D01*
X61840595Y-92088696D01*
X62098514Y-92140000D01*
X62361486Y-92140000D01*
X62619405Y-92088696D01*
X62862359Y-91988061D01*
X63081013Y-91841962D01*
X63266962Y-91656013D01*
X63413061Y-91437359D01*
X63513696Y-91194405D01*
X63565000Y-90936486D01*
X63565000Y-90673514D01*
X63513696Y-90415595D01*
X63413061Y-90172641D01*
X63266962Y-89953987D01*
X63081013Y-89768038D01*
X62862359Y-89621939D01*
X62619405Y-89521304D01*
X62361486Y-89470000D01*
X62206579Y-89470000D01*
X60835000Y-88098422D01*
X60835000Y-87486578D01*
X64070000Y-90721579D01*
X64070000Y-90936486D01*
X64121304Y-91194405D01*
X64221939Y-91437359D01*
X64368038Y-91656013D01*
X64553987Y-91841962D01*
X64772641Y-91988061D01*
X65015595Y-92088696D01*
X65273514Y-92140000D01*
X65536486Y-92140000D01*
X65794405Y-92088696D01*
X66037359Y-91988061D01*
X66256013Y-91841962D01*
X66441962Y-91656013D01*
X66588061Y-91437359D01*
X66688696Y-91194405D01*
X66740000Y-90936486D01*
X66740000Y-90673514D01*
X66688696Y-90415595D01*
X66588061Y-90172641D01*
X66441962Y-89953987D01*
X66256013Y-89768038D01*
X66037359Y-89621939D01*
X65794405Y-89521304D01*
X65536486Y-89470000D01*
X65321579Y-89470000D01*
X61421522Y-85569944D01*
X61393807Y-85536173D01*
X61259049Y-85425579D01*
X61105303Y-85343401D01*
X60938480Y-85292795D01*
X60808467Y-85279990D01*
X60808459Y-85279990D01*
X60764990Y-85275709D01*
X60721521Y-85279990D01*
X59185001Y-85279990D01*
X59185001Y-81880815D01*
X59300595Y-81928696D01*
X59558514Y-81980000D01*
X59773422Y-81980000D01*
X60895000Y-83101579D01*
X60895000Y-83316486D01*
X60946304Y-83574405D01*
X61046939Y-83817359D01*
X61193038Y-84036013D01*
X61378987Y-84221962D01*
X61597641Y-84368061D01*
X61840595Y-84468696D01*
X62098514Y-84520000D01*
X62361486Y-84520000D01*
X62619405Y-84468696D01*
X62862359Y-84368061D01*
X63081013Y-84221962D01*
X63232975Y-84070000D01*
X64402025Y-84070000D01*
X64553987Y-84221962D01*
X64772641Y-84368061D01*
X65015595Y-84468696D01*
X65273514Y-84520000D01*
X65536486Y-84520000D01*
X65794405Y-84468696D01*
X66037359Y-84368061D01*
X66256013Y-84221962D01*
X66441962Y-84036013D01*
X66588061Y-83817359D01*
X66688696Y-83574405D01*
X66740000Y-83316486D01*
X66740000Y-83053514D01*
X66688696Y-82795595D01*
X66588061Y-82552641D01*
X66441962Y-82333987D01*
X66256013Y-82148038D01*
X66037359Y-82001939D01*
X65794405Y-81901304D01*
X65536486Y-81850000D01*
X65273514Y-81850000D01*
X65015595Y-81901304D01*
X64772641Y-82001939D01*
X64553987Y-82148038D01*
X64402025Y-82300000D01*
X63232975Y-82300000D01*
X63081013Y-82148038D01*
X62862359Y-82001939D01*
X62619405Y-81901304D01*
X62361486Y-81850000D01*
X62146579Y-81850000D01*
X61025000Y-80728422D01*
X61025000Y-80561578D01*
X63123876Y-78462702D01*
X63956903Y-78462702D01*
X64028486Y-78706671D01*
X64283996Y-78827571D01*
X64558184Y-78896300D01*
X64840512Y-78910217D01*
X65120130Y-78868787D01*
X65386292Y-78773603D01*
X65511514Y-78706671D01*
X65583097Y-78462702D01*
X64770000Y-77649605D01*
X63956903Y-78462702D01*
X63123876Y-78462702D01*
X63478202Y-78108377D01*
X63533329Y-78211514D01*
X63777298Y-78283097D01*
X64590395Y-77470000D01*
X64949605Y-77470000D01*
X65762702Y-78283097D01*
X66006671Y-78211514D01*
X66127571Y-77956004D01*
X66196300Y-77681816D01*
X66210217Y-77399488D01*
X66168787Y-77119870D01*
X66073603Y-76853708D01*
X66006671Y-76728486D01*
X65762702Y-76656903D01*
X64949605Y-77470000D01*
X64590395Y-77470000D01*
X64576253Y-77455858D01*
X64755858Y-77276253D01*
X64770000Y-77290395D01*
X65583097Y-76477298D01*
X65511514Y-76233329D01*
X65261628Y-76115090D01*
X65265950Y-76071213D01*
X65274000Y-75989477D01*
X65274000Y-75989469D01*
X65278281Y-75946000D01*
X65274000Y-75902531D01*
X65274000Y-75190077D01*
X65408607Y-75079608D01*
X65587932Y-74861101D01*
X65659000Y-74728142D01*
X65730068Y-74861100D01*
G37*
%TD.AperFunction*%
D23*
X45452301Y-30681906D02*
X45237122Y-30983347D01*
X45084886Y-31320975D01*
X45037305Y-31505355D01*
X45153428Y-31798000D01*
X47498000Y-31798000D01*
X47498000Y-31778000D01*
X47752000Y-31778000D01*
X47752000Y-31798000D01*
X50096572Y-31798000D01*
X50212695Y-31505355D01*
X50165114Y-31320975D01*
X50012878Y-30983347D01*
X49797699Y-30681906D01*
X49774395Y-30660000D01*
X60715605Y-30660000D01*
X60692301Y-30681906D01*
X60477122Y-30983347D01*
X60324886Y-31320975D01*
X60277305Y-31505355D01*
X60393428Y-31798000D01*
X62738000Y-31798000D01*
X62738000Y-31778000D01*
X62992000Y-31778000D01*
X62992000Y-31798000D01*
X65336572Y-31798000D01*
X65452695Y-31505355D01*
X65405114Y-31320975D01*
X65252878Y-30983347D01*
X65037699Y-30681906D01*
X65014395Y-30660000D01*
X69340000Y-30660000D01*
X69340000Y-52599280D01*
X69303787Y-52354870D01*
X69208603Y-52088708D01*
X69141671Y-51963486D01*
X68897702Y-51891903D01*
X68084605Y-52705000D01*
X68897702Y-53518097D01*
X69141671Y-53446514D01*
X69262571Y-53191004D01*
X69331300Y-52916816D01*
X69340000Y-52740316D01*
X69340000Y-58278665D01*
X69284853Y-58001426D01*
X69176680Y-57740273D01*
X69019637Y-57505241D01*
X68819759Y-57305363D01*
X68584727Y-57148320D01*
X68323574Y-57040147D01*
X68046335Y-56985000D01*
X67763665Y-56985000D01*
X67486426Y-57040147D01*
X67225273Y-57148320D01*
X66990241Y-57305363D01*
X66823661Y-57471943D01*
X66794502Y-57375820D01*
X66735537Y-57265506D01*
X66656185Y-57168815D01*
X66559494Y-57089463D01*
X66449180Y-57030498D01*
X66329482Y-56994188D01*
X66205000Y-56981928D01*
X65690750Y-56985000D01*
X65532000Y-57143750D01*
X65532000Y-58293000D01*
X65552000Y-58293000D01*
X65552000Y-58547000D01*
X65532000Y-58547000D01*
X65532000Y-59696250D01*
X65690750Y-59855000D01*
X66205000Y-59858072D01*
X66329482Y-59845812D01*
X66449180Y-59809502D01*
X66559494Y-59750537D01*
X66656185Y-59671185D01*
X66735537Y-59574494D01*
X66794502Y-59464180D01*
X66823661Y-59368057D01*
X66990241Y-59534637D01*
X67225273Y-59691680D01*
X67486426Y-59799853D01*
X67763665Y-59855000D01*
X68046335Y-59855000D01*
X68323574Y-59799853D01*
X68584727Y-59691680D01*
X68819759Y-59534637D01*
X69019637Y-59334759D01*
X69176680Y-59099727D01*
X69284853Y-58838574D01*
X69340000Y-58561335D01*
X69340001Y-82087226D01*
X69212359Y-82001939D01*
X68969405Y-81901304D01*
X68711486Y-81850000D01*
X68496578Y-81850000D01*
X68244777Y-81598198D01*
X68346962Y-81496013D01*
X68493061Y-81277359D01*
X68593696Y-81034405D01*
X68645000Y-80776486D01*
X68645000Y-80513514D01*
X68593696Y-80255595D01*
X68493061Y-80012641D01*
X68346962Y-79793987D01*
X68195000Y-79642025D01*
X68195000Y-74735626D01*
X68261182Y-74611808D01*
X68343236Y-74341309D01*
X68364000Y-74130492D01*
X68364000Y-73189509D01*
X68343236Y-72978691D01*
X68261182Y-72708192D01*
X68127932Y-72458899D01*
X67948608Y-72240392D01*
X67730101Y-72061068D01*
X67480808Y-71927818D01*
X67210309Y-71845764D01*
X66929000Y-71818057D01*
X66647692Y-71845764D01*
X66377193Y-71927818D01*
X66127900Y-72061068D01*
X65909393Y-72240392D01*
X65730068Y-72458899D01*
X65659000Y-72591858D01*
X65587932Y-72458899D01*
X65408608Y-72240392D01*
X65190101Y-72061068D01*
X64940808Y-71927818D01*
X64670309Y-71845764D01*
X64389000Y-71818057D01*
X64107692Y-71845764D01*
X63837193Y-71927818D01*
X63587900Y-72061068D01*
X63369393Y-72240392D01*
X63190068Y-72458899D01*
X63121735Y-72586741D01*
X62971601Y-72357161D01*
X62773895Y-72155500D01*
X62540646Y-71996285D01*
X62280818Y-71885633D01*
X62198039Y-71868096D01*
X61976000Y-71990085D01*
X61976000Y-73533000D01*
X61996000Y-73533000D01*
X61996000Y-73787000D01*
X61976000Y-73787000D01*
X61976000Y-75329915D01*
X62198039Y-75451904D01*
X62280818Y-75434367D01*
X62540646Y-75323715D01*
X62773895Y-75164500D01*
X62971601Y-74962839D01*
X63121735Y-74733258D01*
X63190068Y-74861100D01*
X63369392Y-75079607D01*
X63504000Y-75190078D01*
X63504000Y-75579421D01*
X61118037Y-77965384D01*
X61149853Y-77888574D01*
X61205000Y-77611335D01*
X61205000Y-77328665D01*
X61149853Y-77051426D01*
X61041680Y-76790273D01*
X60884637Y-76555241D01*
X60684759Y-76355363D01*
X60449727Y-76198320D01*
X60188574Y-76090147D01*
X59911335Y-76035000D01*
X59628665Y-76035000D01*
X59351426Y-76090147D01*
X59090273Y-76198320D01*
X58855241Y-76355363D01*
X58655363Y-76555241D01*
X58498320Y-76790273D01*
X58485000Y-76822430D01*
X58485000Y-76703514D01*
X58433696Y-76445595D01*
X58333061Y-76202641D01*
X58186962Y-75983987D01*
X58025667Y-75822692D01*
X58561029Y-75287331D01*
X58757192Y-75392182D01*
X59027691Y-75474236D01*
X59309000Y-75501943D01*
X59590308Y-75474236D01*
X59860807Y-75392182D01*
X60110100Y-75258932D01*
X60328607Y-75079608D01*
X60507932Y-74861101D01*
X60576265Y-74733259D01*
X60726399Y-74962839D01*
X60924105Y-75164500D01*
X61157354Y-75323715D01*
X61417182Y-75434367D01*
X61499961Y-75451904D01*
X61722000Y-75329915D01*
X61722000Y-73787000D01*
X61702000Y-73787000D01*
X61702000Y-73533000D01*
X61722000Y-73533000D01*
X61722000Y-71990085D01*
X61499961Y-71868096D01*
X61417182Y-71885633D01*
X61157354Y-71996285D01*
X60924105Y-72155500D01*
X60726399Y-72357161D01*
X60576265Y-72586741D01*
X60507932Y-72458899D01*
X60328608Y-72240392D01*
X60110101Y-72061068D01*
X59860808Y-71927818D01*
X59777907Y-71902671D01*
X63891824Y-67788754D01*
X64107691Y-67854236D01*
X64389000Y-67881943D01*
X64670308Y-67854236D01*
X64940807Y-67772182D01*
X65190100Y-67638932D01*
X65408607Y-67459608D01*
X65587932Y-67241101D01*
X65659000Y-67108142D01*
X65730068Y-67241100D01*
X65909392Y-67459607D01*
X66127899Y-67638932D01*
X66377192Y-67772182D01*
X66647691Y-67854236D01*
X66929000Y-67881943D01*
X67210308Y-67854236D01*
X67480807Y-67772182D01*
X67730100Y-67638932D01*
X67948607Y-67459608D01*
X68127932Y-67241101D01*
X68261182Y-66991808D01*
X68343236Y-66721309D01*
X68364000Y-66510492D01*
X68364000Y-65569509D01*
X68343236Y-65358691D01*
X68261182Y-65088192D01*
X68127932Y-64838899D01*
X67948608Y-64620392D01*
X67730101Y-64441068D01*
X67480808Y-64307818D01*
X67210309Y-64225764D01*
X66929000Y-64198057D01*
X66647692Y-64225764D01*
X66377193Y-64307818D01*
X66127900Y-64441068D01*
X65909393Y-64620392D01*
X65730068Y-64838899D01*
X65659000Y-64971858D01*
X65587932Y-64838899D01*
X65408608Y-64620392D01*
X65190101Y-64441068D01*
X64940808Y-64307818D01*
X64670309Y-64225764D01*
X64389000Y-64198057D01*
X64107692Y-64225764D01*
X63837193Y-64307818D01*
X63587900Y-64441068D01*
X63369393Y-64620392D01*
X63190068Y-64838899D01*
X63119000Y-64971858D01*
X63047932Y-64838899D01*
X62868608Y-64620392D01*
X62734000Y-64509922D01*
X62734000Y-63660284D01*
X62935512Y-63670217D01*
X63215130Y-63628787D01*
X63481292Y-63533603D01*
X63606514Y-63466671D01*
X63678097Y-63222702D01*
X62865000Y-62409605D01*
X62850858Y-62423748D01*
X62671253Y-62244143D01*
X62685395Y-62230000D01*
X63044605Y-62230000D01*
X63857702Y-63043097D01*
X64101671Y-62971514D01*
X64222571Y-62716004D01*
X64291300Y-62441816D01*
X64305217Y-62159488D01*
X64263787Y-61879870D01*
X64168603Y-61613708D01*
X64101671Y-61488486D01*
X63857702Y-61416903D01*
X63044605Y-62230000D01*
X62685395Y-62230000D01*
X61872298Y-61416903D01*
X61628329Y-61488486D01*
X61595161Y-61558584D01*
X61273875Y-61237298D01*
X62051903Y-61237298D01*
X62865000Y-62050395D01*
X63678097Y-61237298D01*
X63606514Y-60993329D01*
X63351004Y-60872429D01*
X63076816Y-60803700D01*
X62794488Y-60789783D01*
X62514870Y-60831213D01*
X62248708Y-60926397D01*
X62123486Y-60993329D01*
X62051903Y-61237298D01*
X61273875Y-61237298D01*
X58315242Y-58278665D01*
X59779000Y-58278665D01*
X59779000Y-58561335D01*
X59834147Y-58838574D01*
X59942320Y-59099727D01*
X60099363Y-59334759D01*
X60299241Y-59534637D01*
X60534273Y-59691680D01*
X60795426Y-59799853D01*
X61072665Y-59855000D01*
X61355335Y-59855000D01*
X61632574Y-59799853D01*
X61893727Y-59691680D01*
X62128759Y-59534637D01*
X62328637Y-59334759D01*
X62405316Y-59220000D01*
X63966928Y-59220000D01*
X63979188Y-59344482D01*
X64015498Y-59464180D01*
X64074463Y-59574494D01*
X64153815Y-59671185D01*
X64250506Y-59750537D01*
X64360820Y-59809502D01*
X64480518Y-59845812D01*
X64605000Y-59858072D01*
X65119250Y-59855000D01*
X65278000Y-59696250D01*
X65278000Y-58547000D01*
X64128750Y-58547000D01*
X63970000Y-58705750D01*
X63966928Y-59220000D01*
X62405316Y-59220000D01*
X62485680Y-59099727D01*
X62593853Y-58838574D01*
X62649000Y-58561335D01*
X62649000Y-58278665D01*
X62593853Y-58001426D01*
X62485680Y-57740273D01*
X62405317Y-57620000D01*
X63966928Y-57620000D01*
X63970000Y-58134250D01*
X64128750Y-58293000D01*
X65278000Y-58293000D01*
X65278000Y-57143750D01*
X65119250Y-56985000D01*
X64605000Y-56981928D01*
X64480518Y-56994188D01*
X64360820Y-57030498D01*
X64250506Y-57089463D01*
X64153815Y-57168815D01*
X64074463Y-57265506D01*
X64015498Y-57375820D01*
X63979188Y-57495518D01*
X63966928Y-57620000D01*
X62405317Y-57620000D01*
X62328637Y-57505241D01*
X62128759Y-57305363D01*
X61893727Y-57148320D01*
X61632574Y-57040147D01*
X61355335Y-56985000D01*
X61072665Y-56985000D01*
X60795426Y-57040147D01*
X60534273Y-57148320D01*
X60299241Y-57305363D01*
X60099363Y-57505241D01*
X59942320Y-57740273D01*
X59834147Y-58001426D01*
X59779000Y-58278665D01*
X58315242Y-58278665D01*
X53730001Y-53693425D01*
X53730001Y-52563665D01*
X60160000Y-52563665D01*
X60160000Y-52846335D01*
X60215147Y-53123574D01*
X60323320Y-53384727D01*
X60480363Y-53619759D01*
X60680241Y-53819637D01*
X60915273Y-53976680D01*
X61176426Y-54084853D01*
X61453665Y-54140000D01*
X61736335Y-54140000D01*
X62013574Y-54084853D01*
X62274727Y-53976680D01*
X62509759Y-53819637D01*
X62709637Y-53619759D01*
X62866680Y-53384727D01*
X62974853Y-53123574D01*
X63030000Y-52846335D01*
X63030000Y-52563665D01*
X62974853Y-52286426D01*
X62866680Y-52025273D01*
X62786317Y-51905000D01*
X63966928Y-51905000D01*
X63966928Y-53505000D01*
X63979188Y-53629482D01*
X64015498Y-53749180D01*
X64074463Y-53859494D01*
X64153815Y-53956185D01*
X64250506Y-54035537D01*
X64360820Y-54094502D01*
X64480518Y-54130812D01*
X64605000Y-54143072D01*
X66205000Y-54143072D01*
X66329482Y-54130812D01*
X66449180Y-54094502D01*
X66559494Y-54035537D01*
X66656185Y-53956185D01*
X66735537Y-53859494D01*
X66794502Y-53749180D01*
X66810117Y-53697702D01*
X67091903Y-53697702D01*
X67163486Y-53941671D01*
X67418996Y-54062571D01*
X67693184Y-54131300D01*
X67975512Y-54145217D01*
X68255130Y-54103787D01*
X68521292Y-54008603D01*
X68646514Y-53941671D01*
X68718097Y-53697702D01*
X67905000Y-52884605D01*
X67091903Y-53697702D01*
X66810117Y-53697702D01*
X66830812Y-53629482D01*
X66843072Y-53505000D01*
X66843072Y-53497785D01*
X66912298Y-53518097D01*
X67725395Y-52705000D01*
X66912298Y-51891903D01*
X66843072Y-51912215D01*
X66843072Y-51905000D01*
X66830812Y-51780518D01*
X66810118Y-51712298D01*
X67091903Y-51712298D01*
X67905000Y-52525395D01*
X68718097Y-51712298D01*
X68646514Y-51468329D01*
X68391004Y-51347429D01*
X68116816Y-51278700D01*
X67834488Y-51264783D01*
X67554870Y-51306213D01*
X67288708Y-51401397D01*
X67163486Y-51468329D01*
X67091903Y-51712298D01*
X66810118Y-51712298D01*
X66794502Y-51660820D01*
X66735537Y-51550506D01*
X66656185Y-51453815D01*
X66559494Y-51374463D01*
X66449180Y-51315498D01*
X66329482Y-51279188D01*
X66205000Y-51266928D01*
X64605000Y-51266928D01*
X64480518Y-51279188D01*
X64360820Y-51315498D01*
X64250506Y-51374463D01*
X64153815Y-51453815D01*
X64074463Y-51550506D01*
X64015498Y-51660820D01*
X63979188Y-51780518D01*
X63966928Y-51905000D01*
X62786317Y-51905000D01*
X62709637Y-51790241D01*
X62509759Y-51590363D01*
X62274727Y-51433320D01*
X62013574Y-51325147D01*
X61736335Y-51270000D01*
X61453665Y-51270000D01*
X61176426Y-51325147D01*
X60915273Y-51433320D01*
X60680241Y-51590363D01*
X60480363Y-51790241D01*
X60323320Y-52025273D01*
X60215147Y-52286426D01*
X60160000Y-52563665D01*
X53730001Y-52563665D01*
X53730001Y-48388466D01*
X53734282Y-48345000D01*
X53730001Y-48301534D01*
X53730001Y-48301524D01*
X53717196Y-48171511D01*
X53666590Y-48004688D01*
X53584412Y-47850942D01*
X53473818Y-47716184D01*
X53440050Y-47688471D01*
X49940434Y-44188855D01*
X49949903Y-44177317D01*
X50124939Y-43849848D01*
X50232725Y-43494524D01*
X50269120Y-43125000D01*
X60220880Y-43125000D01*
X60257275Y-43494524D01*
X60365061Y-43849848D01*
X60540097Y-44177317D01*
X60775655Y-44464345D01*
X61062683Y-44699903D01*
X61390152Y-44874939D01*
X61745476Y-44982725D01*
X62022403Y-45010000D01*
X63707597Y-45010000D01*
X63984524Y-44982725D01*
X64339848Y-44874939D01*
X64667317Y-44699903D01*
X64954345Y-44464345D01*
X65189903Y-44177317D01*
X65364939Y-43849848D01*
X65472725Y-43494524D01*
X65509120Y-43125000D01*
X65472725Y-42755476D01*
X65364939Y-42400152D01*
X65189903Y-42072683D01*
X64954345Y-41785655D01*
X64667317Y-41550097D01*
X64339848Y-41375061D01*
X63984524Y-41267275D01*
X63707597Y-41240000D01*
X62022403Y-41240000D01*
X61745476Y-41267275D01*
X61390152Y-41375061D01*
X61062683Y-41550097D01*
X60775655Y-41785655D01*
X60540097Y-42072683D01*
X60365061Y-42400152D01*
X60257275Y-42755476D01*
X60220880Y-43125000D01*
X50269120Y-43125000D01*
X50232725Y-42755476D01*
X50124939Y-42400152D01*
X49949903Y-42072683D01*
X49714345Y-41785655D01*
X49427317Y-41550097D01*
X49099848Y-41375061D01*
X48744524Y-41267275D01*
X48467597Y-41240000D01*
X46782403Y-41240000D01*
X46505476Y-41267275D01*
X46150152Y-41375061D01*
X45822683Y-41550097D01*
X45535655Y-41785655D01*
X45300097Y-42072683D01*
X45125061Y-42400152D01*
X45017275Y-42755476D01*
X44980880Y-43125000D01*
X45017275Y-43494524D01*
X45125061Y-43849848D01*
X45300097Y-44177317D01*
X45535655Y-44464345D01*
X45822683Y-44699903D01*
X46150152Y-44874939D01*
X46505476Y-44982725D01*
X46782403Y-45010000D01*
X48258422Y-45010000D01*
X51960002Y-48711581D01*
X51960001Y-51314491D01*
X51736335Y-51270000D01*
X51453665Y-51270000D01*
X51176426Y-51325147D01*
X50915273Y-51433320D01*
X50680241Y-51590363D01*
X50480363Y-51790241D01*
X50323320Y-52025273D01*
X50215147Y-52286426D01*
X50160000Y-52563665D01*
X50160000Y-52846335D01*
X50215147Y-53123574D01*
X50323320Y-53384727D01*
X50480363Y-53619759D01*
X50680241Y-53819637D01*
X50915273Y-53976680D01*
X51176426Y-54084853D01*
X51453665Y-54140000D01*
X51736335Y-54140000D01*
X51959232Y-54095662D01*
X51960001Y-54103472D01*
X51960001Y-54103479D01*
X51972806Y-54233492D01*
X52023412Y-54400315D01*
X52105590Y-54554061D01*
X52216184Y-54688820D01*
X52249957Y-54716537D01*
X58454271Y-60920852D01*
X58283574Y-60850147D01*
X58006335Y-60795000D01*
X57723665Y-60795000D01*
X57446426Y-60850147D01*
X57185273Y-60958320D01*
X56950241Y-61115363D01*
X56750363Y-61315241D01*
X56593320Y-61550273D01*
X56485147Y-61811426D01*
X56430000Y-62088665D01*
X56430000Y-62371335D01*
X56485147Y-62648574D01*
X56593320Y-62909727D01*
X56750363Y-63144759D01*
X56950241Y-63344637D01*
X57185273Y-63501680D01*
X57446426Y-63609853D01*
X57723665Y-63665000D01*
X58006335Y-63665000D01*
X58283574Y-63609853D01*
X58544727Y-63501680D01*
X58779759Y-63344637D01*
X58979637Y-63144759D01*
X59136680Y-62909727D01*
X59244853Y-62648574D01*
X59300000Y-62371335D01*
X59300000Y-62088665D01*
X59244853Y-61811426D01*
X59174148Y-61640729D01*
X60964001Y-63430582D01*
X60964001Y-64509923D01*
X60829393Y-64620392D01*
X60650068Y-64838899D01*
X60579000Y-64971858D01*
X60507932Y-64838899D01*
X60328608Y-64620392D01*
X60110101Y-64441068D01*
X59860808Y-64307818D01*
X59590309Y-64225764D01*
X59309000Y-64198057D01*
X59027692Y-64225764D01*
X58757193Y-64307818D01*
X58507900Y-64441068D01*
X58289393Y-64620392D01*
X58110068Y-64838899D01*
X58039000Y-64971858D01*
X57967932Y-64838899D01*
X57788608Y-64620392D01*
X57570101Y-64441068D01*
X57320808Y-64307818D01*
X57050309Y-64225764D01*
X56769000Y-64198057D01*
X56487692Y-64225764D01*
X56217193Y-64307818D01*
X55967900Y-64441068D01*
X55749393Y-64620392D01*
X55570068Y-64838899D01*
X55499000Y-64971858D01*
X55427932Y-64838899D01*
X55248608Y-64620392D01*
X55030101Y-64441068D01*
X54780808Y-64307818D01*
X54510309Y-64225764D01*
X54229000Y-64198057D01*
X53947692Y-64225764D01*
X53677193Y-64307818D01*
X53427900Y-64441068D01*
X53209393Y-64620392D01*
X53116581Y-64733483D01*
X53114812Y-64715518D01*
X53078502Y-64595820D01*
X53019537Y-64485506D01*
X52940185Y-64388815D01*
X52843494Y-64309463D01*
X52733180Y-64250498D01*
X52613482Y-64214188D01*
X52489000Y-64201928D01*
X50889000Y-64201928D01*
X50764518Y-64214188D01*
X50644820Y-64250498D01*
X50534506Y-64309463D01*
X50437815Y-64388815D01*
X50358463Y-64485506D01*
X50299498Y-64595820D01*
X50263188Y-64715518D01*
X50250928Y-64840000D01*
X50250928Y-67240000D01*
X50263188Y-67364482D01*
X50299498Y-67484180D01*
X50358463Y-67594494D01*
X50437815Y-67691185D01*
X50534506Y-67770537D01*
X50644820Y-67829502D01*
X50764518Y-67865812D01*
X50889000Y-67878072D01*
X52489000Y-67878072D01*
X52613482Y-67865812D01*
X52733180Y-67829502D01*
X52843494Y-67770537D01*
X52940185Y-67691185D01*
X53019537Y-67594494D01*
X53078502Y-67484180D01*
X53114812Y-67364482D01*
X53116581Y-67346517D01*
X53209392Y-67459607D01*
X53427899Y-67638932D01*
X53677192Y-67772182D01*
X53947691Y-67854236D01*
X54229000Y-67881943D01*
X54510308Y-67854236D01*
X54594011Y-67828845D01*
X54594010Y-71871154D01*
X54510309Y-71845764D01*
X54229000Y-71818057D01*
X53947692Y-71845764D01*
X53677193Y-71927818D01*
X53427900Y-72061068D01*
X53209393Y-72240392D01*
X53030068Y-72458899D01*
X52959000Y-72591858D01*
X52887932Y-72458899D01*
X52708608Y-72240392D01*
X52490101Y-72061068D01*
X52240808Y-71927818D01*
X51970309Y-71845764D01*
X51689000Y-71818057D01*
X51407692Y-71845764D01*
X51137193Y-71927818D01*
X50887900Y-72061068D01*
X50669393Y-72240392D01*
X50490068Y-72458899D01*
X50356818Y-72708192D01*
X50274764Y-72978691D01*
X50254000Y-73189508D01*
X50254000Y-74130491D01*
X50274764Y-74341308D01*
X50356818Y-74611807D01*
X50490068Y-74861100D01*
X50669392Y-75079607D01*
X50887899Y-75258932D01*
X51137192Y-75392182D01*
X51407691Y-75474236D01*
X51689000Y-75501943D01*
X51970308Y-75474236D01*
X52240807Y-75392182D01*
X52490100Y-75258932D01*
X52708607Y-75079608D01*
X52887932Y-74861101D01*
X52959000Y-74728142D01*
X53030068Y-74861100D01*
X53209392Y-75079607D01*
X53427899Y-75258932D01*
X53677192Y-75392182D01*
X53947691Y-75474236D01*
X54229000Y-75501943D01*
X54414990Y-75483624D01*
X54414989Y-81291520D01*
X54410708Y-81334989D01*
X54414989Y-81378458D01*
X54414989Y-81378465D01*
X54427794Y-81508478D01*
X54478400Y-81675301D01*
X54560578Y-81829047D01*
X54671172Y-81963806D01*
X54704945Y-81991523D01*
X55815000Y-83101579D01*
X55815000Y-83316486D01*
X55866304Y-83574405D01*
X55966939Y-83817359D01*
X56113038Y-84036013D01*
X56298987Y-84221962D01*
X56517641Y-84368061D01*
X56760595Y-84468696D01*
X57018514Y-84520000D01*
X57281486Y-84520000D01*
X57415002Y-84493442D01*
X57415002Y-85279990D01*
X54997474Y-85279990D01*
X54954007Y-85275709D01*
X54910541Y-85279990D01*
X54910531Y-85279990D01*
X54780518Y-85292795D01*
X54613695Y-85343401D01*
X54459949Y-85425579D01*
X54459947Y-85425580D01*
X54459948Y-85425580D01*
X54358961Y-85508458D01*
X54358959Y-85508460D01*
X54325191Y-85536173D01*
X54297478Y-85569941D01*
X54129769Y-85737650D01*
X54078599Y-85568966D01*
X53940706Y-85310986D01*
X53755134Y-85084866D01*
X53529014Y-84899294D01*
X53271034Y-84761401D01*
X52991111Y-84676487D01*
X52772950Y-84655000D01*
X51827050Y-84655000D01*
X51608889Y-84676487D01*
X51328966Y-84761401D01*
X51070986Y-84899294D01*
X50844866Y-85084866D01*
X50659294Y-85310986D01*
X50521401Y-85568966D01*
X50436487Y-85848889D01*
X50407815Y-86140000D01*
X50436487Y-86431111D01*
X50521401Y-86711034D01*
X50659294Y-86969014D01*
X50679148Y-86993206D01*
X50620986Y-87024294D01*
X50394866Y-87209866D01*
X50209294Y-87435987D01*
X50071401Y-87693967D01*
X49986487Y-87973890D01*
X49965000Y-88192051D01*
X49965000Y-89137950D01*
X49986487Y-89356111D01*
X50071401Y-89636034D01*
X50209294Y-89894014D01*
X50394866Y-90120134D01*
X50620987Y-90305706D01*
X50878967Y-90443599D01*
X51158890Y-90528513D01*
X51450000Y-90557185D01*
X51741111Y-90528513D01*
X52015000Y-90445429D01*
X52015000Y-90517002D01*
X52179844Y-90517002D01*
X52058524Y-90746890D01*
X52079437Y-90840953D01*
X52194709Y-91109426D01*
X52360143Y-91350252D01*
X52569381Y-91554176D01*
X52814382Y-91713361D01*
X53085731Y-91821690D01*
X53373000Y-91875000D01*
X53624931Y-91875000D01*
X51134931Y-94365000D01*
X49897975Y-94365000D01*
X49746013Y-94213038D01*
X49527359Y-94066939D01*
X49284405Y-93966304D01*
X49026486Y-93915000D01*
X48763514Y-93915000D01*
X48505595Y-93966304D01*
X48262641Y-94066939D01*
X48043987Y-94213038D01*
X47858038Y-94398987D01*
X47711939Y-94617641D01*
X47611304Y-94860595D01*
X47560000Y-95118514D01*
X47560000Y-95333422D01*
X47029951Y-95863471D01*
X46996184Y-95891183D01*
X46968471Y-95924951D01*
X46968468Y-95924954D01*
X46885590Y-96025941D01*
X46803412Y-96179687D01*
X46752805Y-96346510D01*
X46735719Y-96520000D01*
X46740001Y-96563479D01*
X46740001Y-97290478D01*
X46710241Y-97310363D01*
X46510363Y-97510241D01*
X46353320Y-97745273D01*
X46245147Y-98006426D01*
X46190000Y-98283665D01*
X46190000Y-98566335D01*
X46245147Y-98843574D01*
X46353320Y-99104727D01*
X46510363Y-99339759D01*
X46510604Y-99340000D01*
X43739396Y-99340000D01*
X43739637Y-99339759D01*
X43896680Y-99104727D01*
X44004853Y-98843574D01*
X44060000Y-98566335D01*
X44060000Y-98283665D01*
X44004853Y-98006426D01*
X43896680Y-97745273D01*
X43739637Y-97510241D01*
X43539759Y-97310363D01*
X43510000Y-97290479D01*
X43510000Y-96643465D01*
X43514281Y-96599999D01*
X43510000Y-96556533D01*
X43510000Y-96556523D01*
X43497195Y-96426510D01*
X43446589Y-96259687D01*
X43364411Y-96105941D01*
X43336218Y-96071588D01*
X43281532Y-96004953D01*
X43281530Y-96004951D01*
X43253817Y-95971183D01*
X43220049Y-95943470D01*
X42610000Y-95333421D01*
X42610000Y-95118514D01*
X42558696Y-94860595D01*
X42458061Y-94617641D01*
X42311962Y-94398987D01*
X42126013Y-94213038D01*
X41907359Y-94066939D01*
X41664405Y-93966304D01*
X41624999Y-93958466D01*
X41624999Y-93465509D01*
X41848665Y-93510000D01*
X42131335Y-93510000D01*
X42408574Y-93454853D01*
X42669727Y-93346680D01*
X42904759Y-93189637D01*
X43026694Y-93067702D01*
X46176903Y-93067702D01*
X46248486Y-93311671D01*
X46503996Y-93432571D01*
X46778184Y-93501300D01*
X47060512Y-93515217D01*
X47340130Y-93473787D01*
X47606292Y-93378603D01*
X47731514Y-93311671D01*
X47803097Y-93067702D01*
X46990000Y-92254605D01*
X46176903Y-93067702D01*
X43026694Y-93067702D01*
X43104637Y-92989759D01*
X43261680Y-92754727D01*
X43369853Y-92493574D01*
X43425000Y-92216335D01*
X43425000Y-92145512D01*
X45549783Y-92145512D01*
X45591213Y-92425130D01*
X45686397Y-92691292D01*
X45753329Y-92816514D01*
X45997298Y-92888097D01*
X46810395Y-92075000D01*
X47169605Y-92075000D01*
X47982702Y-92888097D01*
X48226671Y-92816514D01*
X48347571Y-92561004D01*
X48416300Y-92286816D01*
X48430217Y-92004488D01*
X48388787Y-91724870D01*
X48293603Y-91458708D01*
X48226671Y-91333486D01*
X47982702Y-91261903D01*
X47169605Y-92075000D01*
X46810395Y-92075000D01*
X45997298Y-91261903D01*
X45753329Y-91333486D01*
X45632429Y-91588996D01*
X45563700Y-91863184D01*
X45549783Y-92145512D01*
X43425000Y-92145512D01*
X43425000Y-91933665D01*
X43369853Y-91656426D01*
X43261680Y-91395273D01*
X43104637Y-91160241D01*
X43026694Y-91082298D01*
X46176903Y-91082298D01*
X46990000Y-91895395D01*
X47803097Y-91082298D01*
X47731514Y-90838329D01*
X47476004Y-90717429D01*
X47201816Y-90648700D01*
X46919488Y-90634783D01*
X46639870Y-90676213D01*
X46373708Y-90771397D01*
X46248486Y-90838329D01*
X46176903Y-91082298D01*
X43026694Y-91082298D01*
X42904759Y-90960363D01*
X42669727Y-90803320D01*
X42408574Y-90695147D01*
X42131335Y-90640000D01*
X41848665Y-90640000D01*
X41624999Y-90684491D01*
X41624999Y-89166579D01*
X49446579Y-81345000D01*
X49661486Y-81345000D01*
X49795001Y-81318442D01*
X49795001Y-81668420D01*
X49613421Y-81850000D01*
X49398514Y-81850000D01*
X49140595Y-81901304D01*
X48897641Y-82001939D01*
X48678987Y-82148038D01*
X48493038Y-82333987D01*
X48346939Y-82552641D01*
X48246304Y-82795595D01*
X48195000Y-83053514D01*
X48195000Y-83316486D01*
X48246304Y-83574405D01*
X48346939Y-83817359D01*
X48493038Y-84036013D01*
X48678987Y-84221962D01*
X48897641Y-84368061D01*
X49140595Y-84468696D01*
X49398514Y-84520000D01*
X49661486Y-84520000D01*
X49919405Y-84468696D01*
X50162359Y-84368061D01*
X50381013Y-84221962D01*
X50566962Y-84036013D01*
X50713061Y-83817359D01*
X50813696Y-83574405D01*
X50865000Y-83316486D01*
X50865000Y-83101579D01*
X51275051Y-82691528D01*
X51308818Y-82663816D01*
X51369437Y-82589953D01*
X51419411Y-82529059D01*
X51419412Y-82529058D01*
X51501590Y-82375312D01*
X51552196Y-82208489D01*
X51565001Y-82078476D01*
X51565001Y-82078466D01*
X51569282Y-82035000D01*
X51565001Y-81991533D01*
X51565001Y-78028467D01*
X51569282Y-77985000D01*
X51565001Y-77941534D01*
X51565001Y-77941524D01*
X51552196Y-77811511D01*
X51501590Y-77644688D01*
X51419412Y-77490942D01*
X51308818Y-77356184D01*
X51275050Y-77328471D01*
X50865000Y-76918421D01*
X50865000Y-76703514D01*
X50813696Y-76445595D01*
X50713061Y-76202641D01*
X50566962Y-75983987D01*
X50381013Y-75798038D01*
X50162359Y-75651939D01*
X49919405Y-75551304D01*
X49661486Y-75500000D01*
X49446579Y-75500000D01*
X48301533Y-74354955D01*
X48273816Y-74321182D01*
X48139058Y-74210588D01*
X47985312Y-74128410D01*
X47818489Y-74077804D01*
X47688476Y-74064999D01*
X47688468Y-74064999D01*
X47644999Y-74060718D01*
X47601530Y-74064999D01*
X43203466Y-74064999D01*
X43160000Y-74060718D01*
X43116534Y-74064999D01*
X43116524Y-74064999D01*
X42986511Y-74077804D01*
X42819688Y-74128410D01*
X42665942Y-74210588D01*
X42665940Y-74210589D01*
X42665941Y-74210589D01*
X42564954Y-74293467D01*
X42564952Y-74293469D01*
X42531184Y-74321182D01*
X42503471Y-74354950D01*
X42086439Y-74771983D01*
X42051335Y-74765000D01*
X41768665Y-74765000D01*
X41491426Y-74820147D01*
X41230273Y-74928320D01*
X40995241Y-75085363D01*
X40795363Y-75285241D01*
X40660000Y-75487827D01*
X40660000Y-67345000D01*
X42326928Y-67345000D01*
X42326928Y-68545000D01*
X42343992Y-68718254D01*
X42394528Y-68884850D01*
X42476595Y-69038386D01*
X42587038Y-69172962D01*
X42721614Y-69283405D01*
X42875150Y-69365472D01*
X43041746Y-69416008D01*
X43215000Y-69433072D01*
X44415000Y-69433072D01*
X44588254Y-69416008D01*
X44754850Y-69365472D01*
X44908386Y-69283405D01*
X45042962Y-69172962D01*
X45153405Y-69038386D01*
X45221285Y-68911392D01*
X45408368Y-69098475D01*
X45651589Y-69260990D01*
X45921842Y-69372932D01*
X46208740Y-69430000D01*
X46501260Y-69430000D01*
X46788158Y-69372932D01*
X47058411Y-69260990D01*
X47301632Y-69098475D01*
X47508475Y-68891632D01*
X47670990Y-68648411D01*
X47782932Y-68378158D01*
X47840000Y-68091260D01*
X47840000Y-67798740D01*
X47782932Y-67511842D01*
X47670990Y-67241589D01*
X47508475Y-66998368D01*
X47301632Y-66791525D01*
X47128271Y-66675689D01*
X47203792Y-66433397D01*
X46355000Y-65584605D01*
X45506208Y-66433397D01*
X45581729Y-66675689D01*
X45408368Y-66791525D01*
X45221285Y-66978608D01*
X45153405Y-66851614D01*
X45042962Y-66717038D01*
X44908386Y-66606595D01*
X44754850Y-66524528D01*
X44645707Y-66491420D01*
X44663792Y-66433397D01*
X43815000Y-65584605D01*
X42966208Y-66433397D01*
X42984293Y-66491420D01*
X42875150Y-66524528D01*
X42721614Y-66606595D01*
X42587038Y-66717038D01*
X42476595Y-66851614D01*
X42394528Y-67005150D01*
X42343992Y-67171746D01*
X42326928Y-67345000D01*
X40660000Y-67345000D01*
X40660000Y-65473531D01*
X42324389Y-65473531D01*
X42366401Y-65763019D01*
X42464081Y-66038747D01*
X42537528Y-66176157D01*
X42786603Y-66253792D01*
X43635395Y-65405000D01*
X43994605Y-65405000D01*
X44843397Y-66253792D01*
X45085000Y-66178486D01*
X45326603Y-66253792D01*
X46175395Y-65405000D01*
X46534605Y-65405000D01*
X47383397Y-66253792D01*
X47632472Y-66176157D01*
X47758371Y-65912117D01*
X47830339Y-65628589D01*
X47845611Y-65336469D01*
X47803599Y-65046981D01*
X47705919Y-64771253D01*
X47632472Y-64633843D01*
X47383397Y-64556208D01*
X46534605Y-65405000D01*
X46175395Y-65405000D01*
X45326603Y-64556208D01*
X45085000Y-64631514D01*
X44843397Y-64556208D01*
X43994605Y-65405000D01*
X43635395Y-65405000D01*
X42786603Y-64556208D01*
X42537528Y-64633843D01*
X42411629Y-64897883D01*
X42339661Y-65181411D01*
X42324389Y-65473531D01*
X40660000Y-65473531D01*
X40660000Y-63893397D01*
X42966208Y-63893397D01*
X43041514Y-64135000D01*
X42966208Y-64376603D01*
X43815000Y-65225395D01*
X44663792Y-64376603D01*
X44588486Y-64135000D01*
X44663792Y-63893397D01*
X45506208Y-63893397D01*
X45581514Y-64135000D01*
X45506208Y-64376603D01*
X46355000Y-65225395D01*
X47203792Y-64376603D01*
X47128486Y-64135000D01*
X47203792Y-63893397D01*
X46355000Y-63044605D01*
X45506208Y-63893397D01*
X44663792Y-63893397D01*
X43815000Y-63044605D01*
X42966208Y-63893397D01*
X40660000Y-63893397D01*
X40660000Y-62933531D01*
X42324389Y-62933531D01*
X42366401Y-63223019D01*
X42464081Y-63498747D01*
X42537528Y-63636157D01*
X42786603Y-63713792D01*
X43635395Y-62865000D01*
X43994605Y-62865000D01*
X44843397Y-63713792D01*
X45085000Y-63638486D01*
X45326603Y-63713792D01*
X46175395Y-62865000D01*
X46534605Y-62865000D01*
X47383397Y-63713792D01*
X47632472Y-63636157D01*
X47758371Y-63372117D01*
X47830339Y-63088589D01*
X47845611Y-62796469D01*
X47803599Y-62506981D01*
X47705919Y-62231253D01*
X47632472Y-62093843D01*
X47383397Y-62016208D01*
X46534605Y-62865000D01*
X46175395Y-62865000D01*
X45326603Y-62016208D01*
X45085000Y-62091514D01*
X44843397Y-62016208D01*
X43994605Y-62865000D01*
X43635395Y-62865000D01*
X42786603Y-62016208D01*
X42537528Y-62093843D01*
X42411629Y-62357883D01*
X42339661Y-62641411D01*
X42324389Y-62933531D01*
X40660000Y-62933531D01*
X40660000Y-61353397D01*
X42966208Y-61353397D01*
X43041514Y-61595000D01*
X42966208Y-61836603D01*
X43815000Y-62685395D01*
X44663792Y-61836603D01*
X44588486Y-61595000D01*
X44663792Y-61353397D01*
X45506208Y-61353397D01*
X45581514Y-61595000D01*
X45506208Y-61836603D01*
X46355000Y-62685395D01*
X47203792Y-61836603D01*
X47128486Y-61595000D01*
X47203792Y-61353397D01*
X46355000Y-60504605D01*
X45506208Y-61353397D01*
X44663792Y-61353397D01*
X43815000Y-60504605D01*
X42966208Y-61353397D01*
X40660000Y-61353397D01*
X40660000Y-60393531D01*
X42324389Y-60393531D01*
X42366401Y-60683019D01*
X42464081Y-60958747D01*
X42537528Y-61096157D01*
X42786603Y-61173792D01*
X43635395Y-60325000D01*
X43994605Y-60325000D01*
X44843397Y-61173792D01*
X45085000Y-61098486D01*
X45326603Y-61173792D01*
X46175395Y-60325000D01*
X46534605Y-60325000D01*
X47383397Y-61173792D01*
X47632472Y-61096157D01*
X47758371Y-60832117D01*
X47830339Y-60548589D01*
X47845611Y-60256469D01*
X47803599Y-59966981D01*
X47705919Y-59691253D01*
X47632472Y-59553843D01*
X47383397Y-59476208D01*
X46534605Y-60325000D01*
X46175395Y-60325000D01*
X45326603Y-59476208D01*
X45085000Y-59551514D01*
X44843397Y-59476208D01*
X43994605Y-60325000D01*
X43635395Y-60325000D01*
X42786603Y-59476208D01*
X42537528Y-59553843D01*
X42411629Y-59817883D01*
X42339661Y-60101411D01*
X42324389Y-60393531D01*
X40660000Y-60393531D01*
X40660000Y-50018740D01*
X42330000Y-50018740D01*
X42330000Y-50311260D01*
X42387068Y-50598158D01*
X42499010Y-50868411D01*
X42661525Y-51111632D01*
X42868368Y-51318475D01*
X43042760Y-51435000D01*
X42868368Y-51551525D01*
X42661525Y-51758368D01*
X42499010Y-52001589D01*
X42387068Y-52271842D01*
X42330000Y-52558740D01*
X42330000Y-52851260D01*
X42387068Y-53138158D01*
X42499010Y-53408411D01*
X42661525Y-53651632D01*
X42868368Y-53858475D01*
X43042760Y-53975000D01*
X42868368Y-54091525D01*
X42661525Y-54298368D01*
X42499010Y-54541589D01*
X42387068Y-54811842D01*
X42330000Y-55098740D01*
X42330000Y-55391260D01*
X42387068Y-55678158D01*
X42499010Y-55948411D01*
X42661525Y-56191632D01*
X42868368Y-56398475D01*
X43042760Y-56515000D01*
X42868368Y-56631525D01*
X42661525Y-56838368D01*
X42499010Y-57081589D01*
X42387068Y-57351842D01*
X42330000Y-57638740D01*
X42330000Y-57931260D01*
X42387068Y-58218158D01*
X42499010Y-58488411D01*
X42661525Y-58731632D01*
X42868368Y-58938475D01*
X43041729Y-59054311D01*
X42966208Y-59296603D01*
X43815000Y-60145395D01*
X44663792Y-59296603D01*
X44588271Y-59054311D01*
X44761632Y-58938475D01*
X44968475Y-58731632D01*
X45085000Y-58557240D01*
X45201525Y-58731632D01*
X45408368Y-58938475D01*
X45581729Y-59054311D01*
X45506208Y-59296603D01*
X46355000Y-60145395D01*
X47203792Y-59296603D01*
X47128271Y-59054311D01*
X47301632Y-58938475D01*
X47508475Y-58731632D01*
X47670990Y-58488411D01*
X47757869Y-58278665D01*
X49779000Y-58278665D01*
X49779000Y-58561335D01*
X49834147Y-58838574D01*
X49942320Y-59099727D01*
X50099363Y-59334759D01*
X50299241Y-59534637D01*
X50534273Y-59691680D01*
X50795426Y-59799853D01*
X51072665Y-59855000D01*
X51355335Y-59855000D01*
X51632574Y-59799853D01*
X51893727Y-59691680D01*
X52128759Y-59534637D01*
X52328637Y-59334759D01*
X52485680Y-59099727D01*
X52593853Y-58838574D01*
X52649000Y-58561335D01*
X52649000Y-58278665D01*
X52593853Y-58001426D01*
X52485680Y-57740273D01*
X52328637Y-57505241D01*
X52128759Y-57305363D01*
X51893727Y-57148320D01*
X51632574Y-57040147D01*
X51355335Y-56985000D01*
X51072665Y-56985000D01*
X50795426Y-57040147D01*
X50534273Y-57148320D01*
X50299241Y-57305363D01*
X50099363Y-57505241D01*
X49942320Y-57740273D01*
X49834147Y-58001426D01*
X49779000Y-58278665D01*
X47757869Y-58278665D01*
X47782932Y-58218158D01*
X47840000Y-57931260D01*
X47840000Y-57638740D01*
X47782932Y-57351842D01*
X47670990Y-57081589D01*
X47508475Y-56838368D01*
X47301632Y-56631525D01*
X47127240Y-56515000D01*
X47301632Y-56398475D01*
X47508475Y-56191632D01*
X47670990Y-55948411D01*
X47782932Y-55678158D01*
X47840000Y-55391260D01*
X47840000Y-55098740D01*
X47782932Y-54811842D01*
X47670990Y-54541589D01*
X47508475Y-54298368D01*
X47301632Y-54091525D01*
X47127240Y-53975000D01*
X47301632Y-53858475D01*
X47508475Y-53651632D01*
X47670990Y-53408411D01*
X47782932Y-53138158D01*
X47840000Y-52851260D01*
X47840000Y-52558740D01*
X47782932Y-52271842D01*
X47670990Y-52001589D01*
X47508475Y-51758368D01*
X47301632Y-51551525D01*
X47127240Y-51435000D01*
X47301632Y-51318475D01*
X47508475Y-51111632D01*
X47670990Y-50868411D01*
X47782932Y-50598158D01*
X47840000Y-50311260D01*
X47840000Y-50018740D01*
X47782932Y-49731842D01*
X47670990Y-49461589D01*
X47508475Y-49218368D01*
X47301632Y-49011525D01*
X47058411Y-48849010D01*
X46788158Y-48737068D01*
X46501260Y-48680000D01*
X46208740Y-48680000D01*
X45921842Y-48737068D01*
X45651589Y-48849010D01*
X45408368Y-49011525D01*
X45201525Y-49218368D01*
X45085000Y-49392760D01*
X44968475Y-49218368D01*
X44761632Y-49011525D01*
X44518411Y-48849010D01*
X44248158Y-48737068D01*
X43961260Y-48680000D01*
X43668740Y-48680000D01*
X43381842Y-48737068D01*
X43111589Y-48849010D01*
X42868368Y-49011525D01*
X42661525Y-49218368D01*
X42499010Y-49461589D01*
X42387068Y-49731842D01*
X42330000Y-50018740D01*
X40660000Y-50018740D01*
X40660000Y-34925000D01*
X44980880Y-34925000D01*
X45017275Y-35294524D01*
X45125061Y-35649848D01*
X45300097Y-35977317D01*
X45535655Y-36264345D01*
X45822683Y-36499903D01*
X46150152Y-36674939D01*
X46505476Y-36782725D01*
X46782403Y-36810000D01*
X48467597Y-36810000D01*
X48744524Y-36782725D01*
X49099848Y-36674939D01*
X49427317Y-36499903D01*
X49714345Y-36264345D01*
X49949903Y-35977317D01*
X50124939Y-35649848D01*
X50232725Y-35294524D01*
X50269120Y-34925000D01*
X60220880Y-34925000D01*
X60257275Y-35294524D01*
X60365061Y-35649848D01*
X60540097Y-35977317D01*
X60775655Y-36264345D01*
X61062683Y-36499903D01*
X61390152Y-36674939D01*
X61745476Y-36782725D01*
X62022403Y-36810000D01*
X63707597Y-36810000D01*
X63984524Y-36782725D01*
X64339848Y-36674939D01*
X64667317Y-36499903D01*
X64954345Y-36264345D01*
X65189903Y-35977317D01*
X65364939Y-35649848D01*
X65472725Y-35294524D01*
X65509120Y-34925000D01*
X65472725Y-34555476D01*
X65364939Y-34200152D01*
X65189903Y-33872683D01*
X64954345Y-33585655D01*
X64760348Y-33426445D01*
X64767847Y-33421763D01*
X65037699Y-33168094D01*
X65252878Y-32866653D01*
X65405114Y-32529025D01*
X65452695Y-32344645D01*
X65336572Y-32052000D01*
X62992000Y-32052000D01*
X62992000Y-32072000D01*
X62738000Y-32072000D01*
X62738000Y-32052000D01*
X60393428Y-32052000D01*
X60277305Y-32344645D01*
X60324886Y-32529025D01*
X60477122Y-32866653D01*
X60692301Y-33168094D01*
X60962153Y-33421763D01*
X60969652Y-33426445D01*
X60775655Y-33585655D01*
X60540097Y-33872683D01*
X60365061Y-34200152D01*
X60257275Y-34555476D01*
X60220880Y-34925000D01*
X50269120Y-34925000D01*
X50232725Y-34555476D01*
X50124939Y-34200152D01*
X49949903Y-33872683D01*
X49714345Y-33585655D01*
X49520348Y-33426445D01*
X49527847Y-33421763D01*
X49797699Y-33168094D01*
X50012878Y-32866653D01*
X50165114Y-32529025D01*
X50212695Y-32344645D01*
X50096572Y-32052000D01*
X47752000Y-32052000D01*
X47752000Y-32072000D01*
X47498000Y-32072000D01*
X47498000Y-32052000D01*
X45153428Y-32052000D01*
X45037305Y-32344645D01*
X45084886Y-32529025D01*
X45237122Y-32866653D01*
X45452301Y-33168094D01*
X45722153Y-33421763D01*
X45729652Y-33426445D01*
X45535655Y-33585655D01*
X45300097Y-33872683D01*
X45125061Y-34200152D01*
X45017275Y-34555476D01*
X44980880Y-34925000D01*
X40660000Y-34925000D01*
X40660000Y-30660000D01*
X45475605Y-30660000D01*
X45452301Y-30681906D01*
%TA.AperFunction,Conductor*%
D24*
G36*
X45452301Y-30681906D02*
G01*
X45237122Y-30983347D01*
X45084886Y-31320975D01*
X45037305Y-31505355D01*
X45153428Y-31798000D01*
X47498000Y-31798000D01*
X47498000Y-31778000D01*
X47752000Y-31778000D01*
X47752000Y-31798000D01*
X50096572Y-31798000D01*
X50212695Y-31505355D01*
X50165114Y-31320975D01*
X50012878Y-30983347D01*
X49797699Y-30681906D01*
X49774395Y-30660000D01*
X60715605Y-30660000D01*
X60692301Y-30681906D01*
X60477122Y-30983347D01*
X60324886Y-31320975D01*
X60277305Y-31505355D01*
X60393428Y-31798000D01*
X62738000Y-31798000D01*
X62738000Y-31778000D01*
X62992000Y-31778000D01*
X62992000Y-31798000D01*
X65336572Y-31798000D01*
X65452695Y-31505355D01*
X65405114Y-31320975D01*
X65252878Y-30983347D01*
X65037699Y-30681906D01*
X65014395Y-30660000D01*
X69340000Y-30660000D01*
X69340000Y-52599280D01*
X69303787Y-52354870D01*
X69208603Y-52088708D01*
X69141671Y-51963486D01*
X68897702Y-51891903D01*
X68084605Y-52705000D01*
X68897702Y-53518097D01*
X69141671Y-53446514D01*
X69262571Y-53191004D01*
X69331300Y-52916816D01*
X69340000Y-52740316D01*
X69340000Y-58278665D01*
X69284853Y-58001426D01*
X69176680Y-57740273D01*
X69019637Y-57505241D01*
X68819759Y-57305363D01*
X68584727Y-57148320D01*
X68323574Y-57040147D01*
X68046335Y-56985000D01*
X67763665Y-56985000D01*
X67486426Y-57040147D01*
X67225273Y-57148320D01*
X66990241Y-57305363D01*
X66823661Y-57471943D01*
X66794502Y-57375820D01*
X66735537Y-57265506D01*
X66656185Y-57168815D01*
X66559494Y-57089463D01*
X66449180Y-57030498D01*
X66329482Y-56994188D01*
X66205000Y-56981928D01*
X65690750Y-56985000D01*
X65532000Y-57143750D01*
X65532000Y-58293000D01*
X65552000Y-58293000D01*
X65552000Y-58547000D01*
X65532000Y-58547000D01*
X65532000Y-59696250D01*
X65690750Y-59855000D01*
X66205000Y-59858072D01*
X66329482Y-59845812D01*
X66449180Y-59809502D01*
X66559494Y-59750537D01*
X66656185Y-59671185D01*
X66735537Y-59574494D01*
X66794502Y-59464180D01*
X66823661Y-59368057D01*
X66990241Y-59534637D01*
X67225273Y-59691680D01*
X67486426Y-59799853D01*
X67763665Y-59855000D01*
X68046335Y-59855000D01*
X68323574Y-59799853D01*
X68584727Y-59691680D01*
X68819759Y-59534637D01*
X69019637Y-59334759D01*
X69176680Y-59099727D01*
X69284853Y-58838574D01*
X69340000Y-58561335D01*
X69340001Y-82087226D01*
X69212359Y-82001939D01*
X68969405Y-81901304D01*
X68711486Y-81850000D01*
X68496578Y-81850000D01*
X68244777Y-81598198D01*
X68346962Y-81496013D01*
X68493061Y-81277359D01*
X68593696Y-81034405D01*
X68645000Y-80776486D01*
X68645000Y-80513514D01*
X68593696Y-80255595D01*
X68493061Y-80012641D01*
X68346962Y-79793987D01*
X68195000Y-79642025D01*
X68195000Y-74735626D01*
X68261182Y-74611808D01*
X68343236Y-74341309D01*
X68364000Y-74130492D01*
X68364000Y-73189509D01*
X68343236Y-72978691D01*
X68261182Y-72708192D01*
X68127932Y-72458899D01*
X67948608Y-72240392D01*
X67730101Y-72061068D01*
X67480808Y-71927818D01*
X67210309Y-71845764D01*
X66929000Y-71818057D01*
X66647692Y-71845764D01*
X66377193Y-71927818D01*
X66127900Y-72061068D01*
X65909393Y-72240392D01*
X65730068Y-72458899D01*
X65659000Y-72591858D01*
X65587932Y-72458899D01*
X65408608Y-72240392D01*
X65190101Y-72061068D01*
X64940808Y-71927818D01*
X64670309Y-71845764D01*
X64389000Y-71818057D01*
X64107692Y-71845764D01*
X63837193Y-71927818D01*
X63587900Y-72061068D01*
X63369393Y-72240392D01*
X63190068Y-72458899D01*
X63121735Y-72586741D01*
X62971601Y-72357161D01*
X62773895Y-72155500D01*
X62540646Y-71996285D01*
X62280818Y-71885633D01*
X62198039Y-71868096D01*
X61976000Y-71990085D01*
X61976000Y-73533000D01*
X61996000Y-73533000D01*
X61996000Y-73787000D01*
X61976000Y-73787000D01*
X61976000Y-75329915D01*
X62198039Y-75451904D01*
X62280818Y-75434367D01*
X62540646Y-75323715D01*
X62773895Y-75164500D01*
X62971601Y-74962839D01*
X63121735Y-74733258D01*
X63190068Y-74861100D01*
X63369392Y-75079607D01*
X63504000Y-75190078D01*
X63504000Y-75579421D01*
X61118037Y-77965384D01*
X61149853Y-77888574D01*
X61205000Y-77611335D01*
X61205000Y-77328665D01*
X61149853Y-77051426D01*
X61041680Y-76790273D01*
X60884637Y-76555241D01*
X60684759Y-76355363D01*
X60449727Y-76198320D01*
X60188574Y-76090147D01*
X59911335Y-76035000D01*
X59628665Y-76035000D01*
X59351426Y-76090147D01*
X59090273Y-76198320D01*
X58855241Y-76355363D01*
X58655363Y-76555241D01*
X58498320Y-76790273D01*
X58485000Y-76822430D01*
X58485000Y-76703514D01*
X58433696Y-76445595D01*
X58333061Y-76202641D01*
X58186962Y-75983987D01*
X58025667Y-75822692D01*
X58561029Y-75287331D01*
X58757192Y-75392182D01*
X59027691Y-75474236D01*
X59309000Y-75501943D01*
X59590308Y-75474236D01*
X59860807Y-75392182D01*
X60110100Y-75258932D01*
X60328607Y-75079608D01*
X60507932Y-74861101D01*
X60576265Y-74733259D01*
X60726399Y-74962839D01*
X60924105Y-75164500D01*
X61157354Y-75323715D01*
X61417182Y-75434367D01*
X61499961Y-75451904D01*
X61722000Y-75329915D01*
X61722000Y-73787000D01*
X61702000Y-73787000D01*
X61702000Y-73533000D01*
X61722000Y-73533000D01*
X61722000Y-71990085D01*
X61499961Y-71868096D01*
X61417182Y-71885633D01*
X61157354Y-71996285D01*
X60924105Y-72155500D01*
X60726399Y-72357161D01*
X60576265Y-72586741D01*
X60507932Y-72458899D01*
X60328608Y-72240392D01*
X60110101Y-72061068D01*
X59860808Y-71927818D01*
X59777907Y-71902671D01*
X63891824Y-67788754D01*
X64107691Y-67854236D01*
X64389000Y-67881943D01*
X64670308Y-67854236D01*
X64940807Y-67772182D01*
X65190100Y-67638932D01*
X65408607Y-67459608D01*
X65587932Y-67241101D01*
X65659000Y-67108142D01*
X65730068Y-67241100D01*
X65909392Y-67459607D01*
X66127899Y-67638932D01*
X66377192Y-67772182D01*
X66647691Y-67854236D01*
X66929000Y-67881943D01*
X67210308Y-67854236D01*
X67480807Y-67772182D01*
X67730100Y-67638932D01*
X67948607Y-67459608D01*
X68127932Y-67241101D01*
X68261182Y-66991808D01*
X68343236Y-66721309D01*
X68364000Y-66510492D01*
X68364000Y-65569509D01*
X68343236Y-65358691D01*
X68261182Y-65088192D01*
X68127932Y-64838899D01*
X67948608Y-64620392D01*
X67730101Y-64441068D01*
X67480808Y-64307818D01*
X67210309Y-64225764D01*
X66929000Y-64198057D01*
X66647692Y-64225764D01*
X66377193Y-64307818D01*
X66127900Y-64441068D01*
X65909393Y-64620392D01*
X65730068Y-64838899D01*
X65659000Y-64971858D01*
X65587932Y-64838899D01*
X65408608Y-64620392D01*
X65190101Y-64441068D01*
X64940808Y-64307818D01*
X64670309Y-64225764D01*
X64389000Y-64198057D01*
X64107692Y-64225764D01*
X63837193Y-64307818D01*
X63587900Y-64441068D01*
X63369393Y-64620392D01*
X63190068Y-64838899D01*
X63119000Y-64971858D01*
X63047932Y-64838899D01*
X62868608Y-64620392D01*
X62734000Y-64509922D01*
X62734000Y-63660284D01*
X62935512Y-63670217D01*
X63215130Y-63628787D01*
X63481292Y-63533603D01*
X63606514Y-63466671D01*
X63678097Y-63222702D01*
X62865000Y-62409605D01*
X62850858Y-62423748D01*
X62671253Y-62244143D01*
X62685395Y-62230000D01*
X63044605Y-62230000D01*
X63857702Y-63043097D01*
X64101671Y-62971514D01*
X64222571Y-62716004D01*
X64291300Y-62441816D01*
X64305217Y-62159488D01*
X64263787Y-61879870D01*
X64168603Y-61613708D01*
X64101671Y-61488486D01*
X63857702Y-61416903D01*
X63044605Y-62230000D01*
X62685395Y-62230000D01*
X61872298Y-61416903D01*
X61628329Y-61488486D01*
X61595161Y-61558584D01*
X61273875Y-61237298D01*
X62051903Y-61237298D01*
X62865000Y-62050395D01*
X63678097Y-61237298D01*
X63606514Y-60993329D01*
X63351004Y-60872429D01*
X63076816Y-60803700D01*
X62794488Y-60789783D01*
X62514870Y-60831213D01*
X62248708Y-60926397D01*
X62123486Y-60993329D01*
X62051903Y-61237298D01*
X61273875Y-61237298D01*
X58315242Y-58278665D01*
X59779000Y-58278665D01*
X59779000Y-58561335D01*
X59834147Y-58838574D01*
X59942320Y-59099727D01*
X60099363Y-59334759D01*
X60299241Y-59534637D01*
X60534273Y-59691680D01*
X60795426Y-59799853D01*
X61072665Y-59855000D01*
X61355335Y-59855000D01*
X61632574Y-59799853D01*
X61893727Y-59691680D01*
X62128759Y-59534637D01*
X62328637Y-59334759D01*
X62405316Y-59220000D01*
X63966928Y-59220000D01*
X63979188Y-59344482D01*
X64015498Y-59464180D01*
X64074463Y-59574494D01*
X64153815Y-59671185D01*
X64250506Y-59750537D01*
X64360820Y-59809502D01*
X64480518Y-59845812D01*
X64605000Y-59858072D01*
X65119250Y-59855000D01*
X65278000Y-59696250D01*
X65278000Y-58547000D01*
X64128750Y-58547000D01*
X63970000Y-58705750D01*
X63966928Y-59220000D01*
X62405316Y-59220000D01*
X62485680Y-59099727D01*
X62593853Y-58838574D01*
X62649000Y-58561335D01*
X62649000Y-58278665D01*
X62593853Y-58001426D01*
X62485680Y-57740273D01*
X62405317Y-57620000D01*
X63966928Y-57620000D01*
X63970000Y-58134250D01*
X64128750Y-58293000D01*
X65278000Y-58293000D01*
X65278000Y-57143750D01*
X65119250Y-56985000D01*
X64605000Y-56981928D01*
X64480518Y-56994188D01*
X64360820Y-57030498D01*
X64250506Y-57089463D01*
X64153815Y-57168815D01*
X64074463Y-57265506D01*
X64015498Y-57375820D01*
X63979188Y-57495518D01*
X63966928Y-57620000D01*
X62405317Y-57620000D01*
X62328637Y-57505241D01*
X62128759Y-57305363D01*
X61893727Y-57148320D01*
X61632574Y-57040147D01*
X61355335Y-56985000D01*
X61072665Y-56985000D01*
X60795426Y-57040147D01*
X60534273Y-57148320D01*
X60299241Y-57305363D01*
X60099363Y-57505241D01*
X59942320Y-57740273D01*
X59834147Y-58001426D01*
X59779000Y-58278665D01*
X58315242Y-58278665D01*
X53730001Y-53693425D01*
X53730001Y-52563665D01*
X60160000Y-52563665D01*
X60160000Y-52846335D01*
X60215147Y-53123574D01*
X60323320Y-53384727D01*
X60480363Y-53619759D01*
X60680241Y-53819637D01*
X60915273Y-53976680D01*
X61176426Y-54084853D01*
X61453665Y-54140000D01*
X61736335Y-54140000D01*
X62013574Y-54084853D01*
X62274727Y-53976680D01*
X62509759Y-53819637D01*
X62709637Y-53619759D01*
X62866680Y-53384727D01*
X62974853Y-53123574D01*
X63030000Y-52846335D01*
X63030000Y-52563665D01*
X62974853Y-52286426D01*
X62866680Y-52025273D01*
X62786317Y-51905000D01*
X63966928Y-51905000D01*
X63966928Y-53505000D01*
X63979188Y-53629482D01*
X64015498Y-53749180D01*
X64074463Y-53859494D01*
X64153815Y-53956185D01*
X64250506Y-54035537D01*
X64360820Y-54094502D01*
X64480518Y-54130812D01*
X64605000Y-54143072D01*
X66205000Y-54143072D01*
X66329482Y-54130812D01*
X66449180Y-54094502D01*
X66559494Y-54035537D01*
X66656185Y-53956185D01*
X66735537Y-53859494D01*
X66794502Y-53749180D01*
X66810117Y-53697702D01*
X67091903Y-53697702D01*
X67163486Y-53941671D01*
X67418996Y-54062571D01*
X67693184Y-54131300D01*
X67975512Y-54145217D01*
X68255130Y-54103787D01*
X68521292Y-54008603D01*
X68646514Y-53941671D01*
X68718097Y-53697702D01*
X67905000Y-52884605D01*
X67091903Y-53697702D01*
X66810117Y-53697702D01*
X66830812Y-53629482D01*
X66843072Y-53505000D01*
X66843072Y-53497785D01*
X66912298Y-53518097D01*
X67725395Y-52705000D01*
X66912298Y-51891903D01*
X66843072Y-51912215D01*
X66843072Y-51905000D01*
X66830812Y-51780518D01*
X66810118Y-51712298D01*
X67091903Y-51712298D01*
X67905000Y-52525395D01*
X68718097Y-51712298D01*
X68646514Y-51468329D01*
X68391004Y-51347429D01*
X68116816Y-51278700D01*
X67834488Y-51264783D01*
X67554870Y-51306213D01*
X67288708Y-51401397D01*
X67163486Y-51468329D01*
X67091903Y-51712298D01*
X66810118Y-51712298D01*
X66794502Y-51660820D01*
X66735537Y-51550506D01*
X66656185Y-51453815D01*
X66559494Y-51374463D01*
X66449180Y-51315498D01*
X66329482Y-51279188D01*
X66205000Y-51266928D01*
X64605000Y-51266928D01*
X64480518Y-51279188D01*
X64360820Y-51315498D01*
X64250506Y-51374463D01*
X64153815Y-51453815D01*
X64074463Y-51550506D01*
X64015498Y-51660820D01*
X63979188Y-51780518D01*
X63966928Y-51905000D01*
X62786317Y-51905000D01*
X62709637Y-51790241D01*
X62509759Y-51590363D01*
X62274727Y-51433320D01*
X62013574Y-51325147D01*
X61736335Y-51270000D01*
X61453665Y-51270000D01*
X61176426Y-51325147D01*
X60915273Y-51433320D01*
X60680241Y-51590363D01*
X60480363Y-51790241D01*
X60323320Y-52025273D01*
X60215147Y-52286426D01*
X60160000Y-52563665D01*
X53730001Y-52563665D01*
X53730001Y-48388466D01*
X53734282Y-48345000D01*
X53730001Y-48301534D01*
X53730001Y-48301524D01*
X53717196Y-48171511D01*
X53666590Y-48004688D01*
X53584412Y-47850942D01*
X53473818Y-47716184D01*
X53440050Y-47688471D01*
X49940434Y-44188855D01*
X49949903Y-44177317D01*
X50124939Y-43849848D01*
X50232725Y-43494524D01*
X50269120Y-43125000D01*
X60220880Y-43125000D01*
X60257275Y-43494524D01*
X60365061Y-43849848D01*
X60540097Y-44177317D01*
X60775655Y-44464345D01*
X61062683Y-44699903D01*
X61390152Y-44874939D01*
X61745476Y-44982725D01*
X62022403Y-45010000D01*
X63707597Y-45010000D01*
X63984524Y-44982725D01*
X64339848Y-44874939D01*
X64667317Y-44699903D01*
X64954345Y-44464345D01*
X65189903Y-44177317D01*
X65364939Y-43849848D01*
X65472725Y-43494524D01*
X65509120Y-43125000D01*
X65472725Y-42755476D01*
X65364939Y-42400152D01*
X65189903Y-42072683D01*
X64954345Y-41785655D01*
X64667317Y-41550097D01*
X64339848Y-41375061D01*
X63984524Y-41267275D01*
X63707597Y-41240000D01*
X62022403Y-41240000D01*
X61745476Y-41267275D01*
X61390152Y-41375061D01*
X61062683Y-41550097D01*
X60775655Y-41785655D01*
X60540097Y-42072683D01*
X60365061Y-42400152D01*
X60257275Y-42755476D01*
X60220880Y-43125000D01*
X50269120Y-43125000D01*
X50232725Y-42755476D01*
X50124939Y-42400152D01*
X49949903Y-42072683D01*
X49714345Y-41785655D01*
X49427317Y-41550097D01*
X49099848Y-41375061D01*
X48744524Y-41267275D01*
X48467597Y-41240000D01*
X46782403Y-41240000D01*
X46505476Y-41267275D01*
X46150152Y-41375061D01*
X45822683Y-41550097D01*
X45535655Y-41785655D01*
X45300097Y-42072683D01*
X45125061Y-42400152D01*
X45017275Y-42755476D01*
X44980880Y-43125000D01*
X45017275Y-43494524D01*
X45125061Y-43849848D01*
X45300097Y-44177317D01*
X45535655Y-44464345D01*
X45822683Y-44699903D01*
X46150152Y-44874939D01*
X46505476Y-44982725D01*
X46782403Y-45010000D01*
X48258422Y-45010000D01*
X51960002Y-48711581D01*
X51960001Y-51314491D01*
X51736335Y-51270000D01*
X51453665Y-51270000D01*
X51176426Y-51325147D01*
X50915273Y-51433320D01*
X50680241Y-51590363D01*
X50480363Y-51790241D01*
X50323320Y-52025273D01*
X50215147Y-52286426D01*
X50160000Y-52563665D01*
X50160000Y-52846335D01*
X50215147Y-53123574D01*
X50323320Y-53384727D01*
X50480363Y-53619759D01*
X50680241Y-53819637D01*
X50915273Y-53976680D01*
X51176426Y-54084853D01*
X51453665Y-54140000D01*
X51736335Y-54140000D01*
X51959232Y-54095662D01*
X51960001Y-54103472D01*
X51960001Y-54103479D01*
X51972806Y-54233492D01*
X52023412Y-54400315D01*
X52105590Y-54554061D01*
X52216184Y-54688820D01*
X52249957Y-54716537D01*
X58454271Y-60920852D01*
X58283574Y-60850147D01*
X58006335Y-60795000D01*
X57723665Y-60795000D01*
X57446426Y-60850147D01*
X57185273Y-60958320D01*
X56950241Y-61115363D01*
X56750363Y-61315241D01*
X56593320Y-61550273D01*
X56485147Y-61811426D01*
X56430000Y-62088665D01*
X56430000Y-62371335D01*
X56485147Y-62648574D01*
X56593320Y-62909727D01*
X56750363Y-63144759D01*
X56950241Y-63344637D01*
X57185273Y-63501680D01*
X57446426Y-63609853D01*
X57723665Y-63665000D01*
X58006335Y-63665000D01*
X58283574Y-63609853D01*
X58544727Y-63501680D01*
X58779759Y-63344637D01*
X58979637Y-63144759D01*
X59136680Y-62909727D01*
X59244853Y-62648574D01*
X59300000Y-62371335D01*
X59300000Y-62088665D01*
X59244853Y-61811426D01*
X59174148Y-61640729D01*
X60964001Y-63430582D01*
X60964001Y-64509923D01*
X60829393Y-64620392D01*
X60650068Y-64838899D01*
X60579000Y-64971858D01*
X60507932Y-64838899D01*
X60328608Y-64620392D01*
X60110101Y-64441068D01*
X59860808Y-64307818D01*
X59590309Y-64225764D01*
X59309000Y-64198057D01*
X59027692Y-64225764D01*
X58757193Y-64307818D01*
X58507900Y-64441068D01*
X58289393Y-64620392D01*
X58110068Y-64838899D01*
X58039000Y-64971858D01*
X57967932Y-64838899D01*
X57788608Y-64620392D01*
X57570101Y-64441068D01*
X57320808Y-64307818D01*
X57050309Y-64225764D01*
X56769000Y-64198057D01*
X56487692Y-64225764D01*
X56217193Y-64307818D01*
X55967900Y-64441068D01*
X55749393Y-64620392D01*
X55570068Y-64838899D01*
X55499000Y-64971858D01*
X55427932Y-64838899D01*
X55248608Y-64620392D01*
X55030101Y-64441068D01*
X54780808Y-64307818D01*
X54510309Y-64225764D01*
X54229000Y-64198057D01*
X53947692Y-64225764D01*
X53677193Y-64307818D01*
X53427900Y-64441068D01*
X53209393Y-64620392D01*
X53116581Y-64733483D01*
X53114812Y-64715518D01*
X53078502Y-64595820D01*
X53019537Y-64485506D01*
X52940185Y-64388815D01*
X52843494Y-64309463D01*
X52733180Y-64250498D01*
X52613482Y-64214188D01*
X52489000Y-64201928D01*
X50889000Y-64201928D01*
X50764518Y-64214188D01*
X50644820Y-64250498D01*
X50534506Y-64309463D01*
X50437815Y-64388815D01*
X50358463Y-64485506D01*
X50299498Y-64595820D01*
X50263188Y-64715518D01*
X50250928Y-64840000D01*
X50250928Y-67240000D01*
X50263188Y-67364482D01*
X50299498Y-67484180D01*
X50358463Y-67594494D01*
X50437815Y-67691185D01*
X50534506Y-67770537D01*
X50644820Y-67829502D01*
X50764518Y-67865812D01*
X50889000Y-67878072D01*
X52489000Y-67878072D01*
X52613482Y-67865812D01*
X52733180Y-67829502D01*
X52843494Y-67770537D01*
X52940185Y-67691185D01*
X53019537Y-67594494D01*
X53078502Y-67484180D01*
X53114812Y-67364482D01*
X53116581Y-67346517D01*
X53209392Y-67459607D01*
X53427899Y-67638932D01*
X53677192Y-67772182D01*
X53947691Y-67854236D01*
X54229000Y-67881943D01*
X54510308Y-67854236D01*
X54594011Y-67828845D01*
X54594010Y-71871154D01*
X54510309Y-71845764D01*
X54229000Y-71818057D01*
X53947692Y-71845764D01*
X53677193Y-71927818D01*
X53427900Y-72061068D01*
X53209393Y-72240392D01*
X53030068Y-72458899D01*
X52959000Y-72591858D01*
X52887932Y-72458899D01*
X52708608Y-72240392D01*
X52490101Y-72061068D01*
X52240808Y-71927818D01*
X51970309Y-71845764D01*
X51689000Y-71818057D01*
X51407692Y-71845764D01*
X51137193Y-71927818D01*
X50887900Y-72061068D01*
X50669393Y-72240392D01*
X50490068Y-72458899D01*
X50356818Y-72708192D01*
X50274764Y-72978691D01*
X50254000Y-73189508D01*
X50254000Y-74130491D01*
X50274764Y-74341308D01*
X50356818Y-74611807D01*
X50490068Y-74861100D01*
X50669392Y-75079607D01*
X50887899Y-75258932D01*
X51137192Y-75392182D01*
X51407691Y-75474236D01*
X51689000Y-75501943D01*
X51970308Y-75474236D01*
X52240807Y-75392182D01*
X52490100Y-75258932D01*
X52708607Y-75079608D01*
X52887932Y-74861101D01*
X52959000Y-74728142D01*
X53030068Y-74861100D01*
X53209392Y-75079607D01*
X53427899Y-75258932D01*
X53677192Y-75392182D01*
X53947691Y-75474236D01*
X54229000Y-75501943D01*
X54414990Y-75483624D01*
X54414989Y-81291520D01*
X54410708Y-81334989D01*
X54414989Y-81378458D01*
X54414989Y-81378465D01*
X54427794Y-81508478D01*
X54478400Y-81675301D01*
X54560578Y-81829047D01*
X54671172Y-81963806D01*
X54704945Y-81991523D01*
X55815000Y-83101579D01*
X55815000Y-83316486D01*
X55866304Y-83574405D01*
X55966939Y-83817359D01*
X56113038Y-84036013D01*
X56298987Y-84221962D01*
X56517641Y-84368061D01*
X56760595Y-84468696D01*
X57018514Y-84520000D01*
X57281486Y-84520000D01*
X57415002Y-84493442D01*
X57415002Y-85279990D01*
X54997474Y-85279990D01*
X54954007Y-85275709D01*
X54910541Y-85279990D01*
X54910531Y-85279990D01*
X54780518Y-85292795D01*
X54613695Y-85343401D01*
X54459949Y-85425579D01*
X54459947Y-85425580D01*
X54459948Y-85425580D01*
X54358961Y-85508458D01*
X54358959Y-85508460D01*
X54325191Y-85536173D01*
X54297478Y-85569941D01*
X54129769Y-85737650D01*
X54078599Y-85568966D01*
X53940706Y-85310986D01*
X53755134Y-85084866D01*
X53529014Y-84899294D01*
X53271034Y-84761401D01*
X52991111Y-84676487D01*
X52772950Y-84655000D01*
X51827050Y-84655000D01*
X51608889Y-84676487D01*
X51328966Y-84761401D01*
X51070986Y-84899294D01*
X50844866Y-85084866D01*
X50659294Y-85310986D01*
X50521401Y-85568966D01*
X50436487Y-85848889D01*
X50407815Y-86140000D01*
X50436487Y-86431111D01*
X50521401Y-86711034D01*
X50659294Y-86969014D01*
X50679148Y-86993206D01*
X50620986Y-87024294D01*
X50394866Y-87209866D01*
X50209294Y-87435987D01*
X50071401Y-87693967D01*
X49986487Y-87973890D01*
X49965000Y-88192051D01*
X49965000Y-89137950D01*
X49986487Y-89356111D01*
X50071401Y-89636034D01*
X50209294Y-89894014D01*
X50394866Y-90120134D01*
X50620987Y-90305706D01*
X50878967Y-90443599D01*
X51158890Y-90528513D01*
X51450000Y-90557185D01*
X51741111Y-90528513D01*
X52015000Y-90445429D01*
X52015000Y-90517002D01*
X52179844Y-90517002D01*
X52058524Y-90746890D01*
X52079437Y-90840953D01*
X52194709Y-91109426D01*
X52360143Y-91350252D01*
X52569381Y-91554176D01*
X52814382Y-91713361D01*
X53085731Y-91821690D01*
X53373000Y-91875000D01*
X53624931Y-91875000D01*
X51134931Y-94365000D01*
X49897975Y-94365000D01*
X49746013Y-94213038D01*
X49527359Y-94066939D01*
X49284405Y-93966304D01*
X49026486Y-93915000D01*
X48763514Y-93915000D01*
X48505595Y-93966304D01*
X48262641Y-94066939D01*
X48043987Y-94213038D01*
X47858038Y-94398987D01*
X47711939Y-94617641D01*
X47611304Y-94860595D01*
X47560000Y-95118514D01*
X47560000Y-95333422D01*
X47029951Y-95863471D01*
X46996184Y-95891183D01*
X46968471Y-95924951D01*
X46968468Y-95924954D01*
X46885590Y-96025941D01*
X46803412Y-96179687D01*
X46752805Y-96346510D01*
X46735719Y-96520000D01*
X46740001Y-96563479D01*
X46740001Y-97290478D01*
X46710241Y-97310363D01*
X46510363Y-97510241D01*
X46353320Y-97745273D01*
X46245147Y-98006426D01*
X46190000Y-98283665D01*
X46190000Y-98566335D01*
X46245147Y-98843574D01*
X46353320Y-99104727D01*
X46510363Y-99339759D01*
X46510604Y-99340000D01*
X43739396Y-99340000D01*
X43739637Y-99339759D01*
X43896680Y-99104727D01*
X44004853Y-98843574D01*
X44060000Y-98566335D01*
X44060000Y-98283665D01*
X44004853Y-98006426D01*
X43896680Y-97745273D01*
X43739637Y-97510241D01*
X43539759Y-97310363D01*
X43510000Y-97290479D01*
X43510000Y-96643465D01*
X43514281Y-96599999D01*
X43510000Y-96556533D01*
X43510000Y-96556523D01*
X43497195Y-96426510D01*
X43446589Y-96259687D01*
X43364411Y-96105941D01*
X43336218Y-96071588D01*
X43281532Y-96004953D01*
X43281530Y-96004951D01*
X43253817Y-95971183D01*
X43220049Y-95943470D01*
X42610000Y-95333421D01*
X42610000Y-95118514D01*
X42558696Y-94860595D01*
X42458061Y-94617641D01*
X42311962Y-94398987D01*
X42126013Y-94213038D01*
X41907359Y-94066939D01*
X41664405Y-93966304D01*
X41624999Y-93958466D01*
X41624999Y-93465509D01*
X41848665Y-93510000D01*
X42131335Y-93510000D01*
X42408574Y-93454853D01*
X42669727Y-93346680D01*
X42904759Y-93189637D01*
X43026694Y-93067702D01*
X46176903Y-93067702D01*
X46248486Y-93311671D01*
X46503996Y-93432571D01*
X46778184Y-93501300D01*
X47060512Y-93515217D01*
X47340130Y-93473787D01*
X47606292Y-93378603D01*
X47731514Y-93311671D01*
X47803097Y-93067702D01*
X46990000Y-92254605D01*
X46176903Y-93067702D01*
X43026694Y-93067702D01*
X43104637Y-92989759D01*
X43261680Y-92754727D01*
X43369853Y-92493574D01*
X43425000Y-92216335D01*
X43425000Y-92145512D01*
X45549783Y-92145512D01*
X45591213Y-92425130D01*
X45686397Y-92691292D01*
X45753329Y-92816514D01*
X45997298Y-92888097D01*
X46810395Y-92075000D01*
X47169605Y-92075000D01*
X47982702Y-92888097D01*
X48226671Y-92816514D01*
X48347571Y-92561004D01*
X48416300Y-92286816D01*
X48430217Y-92004488D01*
X48388787Y-91724870D01*
X48293603Y-91458708D01*
X48226671Y-91333486D01*
X47982702Y-91261903D01*
X47169605Y-92075000D01*
X46810395Y-92075000D01*
X45997298Y-91261903D01*
X45753329Y-91333486D01*
X45632429Y-91588996D01*
X45563700Y-91863184D01*
X45549783Y-92145512D01*
X43425000Y-92145512D01*
X43425000Y-91933665D01*
X43369853Y-91656426D01*
X43261680Y-91395273D01*
X43104637Y-91160241D01*
X43026694Y-91082298D01*
X46176903Y-91082298D01*
X46990000Y-91895395D01*
X47803097Y-91082298D01*
X47731514Y-90838329D01*
X47476004Y-90717429D01*
X47201816Y-90648700D01*
X46919488Y-90634783D01*
X46639870Y-90676213D01*
X46373708Y-90771397D01*
X46248486Y-90838329D01*
X46176903Y-91082298D01*
X43026694Y-91082298D01*
X42904759Y-90960363D01*
X42669727Y-90803320D01*
X42408574Y-90695147D01*
X42131335Y-90640000D01*
X41848665Y-90640000D01*
X41624999Y-90684491D01*
X41624999Y-89166579D01*
X49446579Y-81345000D01*
X49661486Y-81345000D01*
X49795001Y-81318442D01*
X49795001Y-81668420D01*
X49613421Y-81850000D01*
X49398514Y-81850000D01*
X49140595Y-81901304D01*
X48897641Y-82001939D01*
X48678987Y-82148038D01*
X48493038Y-82333987D01*
X48346939Y-82552641D01*
X48246304Y-82795595D01*
X48195000Y-83053514D01*
X48195000Y-83316486D01*
X48246304Y-83574405D01*
X48346939Y-83817359D01*
X48493038Y-84036013D01*
X48678987Y-84221962D01*
X48897641Y-84368061D01*
X49140595Y-84468696D01*
X49398514Y-84520000D01*
X49661486Y-84520000D01*
X49919405Y-84468696D01*
X50162359Y-84368061D01*
X50381013Y-84221962D01*
X50566962Y-84036013D01*
X50713061Y-83817359D01*
X50813696Y-83574405D01*
X50865000Y-83316486D01*
X50865000Y-83101579D01*
X51275051Y-82691528D01*
X51308818Y-82663816D01*
X51369437Y-82589953D01*
X51419411Y-82529059D01*
X51419412Y-82529058D01*
X51501590Y-82375312D01*
X51552196Y-82208489D01*
X51565001Y-82078476D01*
X51565001Y-82078466D01*
X51569282Y-82035000D01*
X51565001Y-81991533D01*
X51565001Y-78028467D01*
X51569282Y-77985000D01*
X51565001Y-77941534D01*
X51565001Y-77941524D01*
X51552196Y-77811511D01*
X51501590Y-77644688D01*
X51419412Y-77490942D01*
X51308818Y-77356184D01*
X51275050Y-77328471D01*
X50865000Y-76918421D01*
X50865000Y-76703514D01*
X50813696Y-76445595D01*
X50713061Y-76202641D01*
X50566962Y-75983987D01*
X50381013Y-75798038D01*
X50162359Y-75651939D01*
X49919405Y-75551304D01*
X49661486Y-75500000D01*
X49446579Y-75500000D01*
X48301533Y-74354955D01*
X48273816Y-74321182D01*
X48139058Y-74210588D01*
X47985312Y-74128410D01*
X47818489Y-74077804D01*
X47688476Y-74064999D01*
X47688468Y-74064999D01*
X47644999Y-74060718D01*
X47601530Y-74064999D01*
X43203466Y-74064999D01*
X43160000Y-74060718D01*
X43116534Y-74064999D01*
X43116524Y-74064999D01*
X42986511Y-74077804D01*
X42819688Y-74128410D01*
X42665942Y-74210588D01*
X42665940Y-74210589D01*
X42665941Y-74210589D01*
X42564954Y-74293467D01*
X42564952Y-74293469D01*
X42531184Y-74321182D01*
X42503471Y-74354950D01*
X42086439Y-74771983D01*
X42051335Y-74765000D01*
X41768665Y-74765000D01*
X41491426Y-74820147D01*
X41230273Y-74928320D01*
X40995241Y-75085363D01*
X40795363Y-75285241D01*
X40660000Y-75487827D01*
X40660000Y-67345000D01*
X42326928Y-67345000D01*
X42326928Y-68545000D01*
X42343992Y-68718254D01*
X42394528Y-68884850D01*
X42476595Y-69038386D01*
X42587038Y-69172962D01*
X42721614Y-69283405D01*
X42875150Y-69365472D01*
X43041746Y-69416008D01*
X43215000Y-69433072D01*
X44415000Y-69433072D01*
X44588254Y-69416008D01*
X44754850Y-69365472D01*
X44908386Y-69283405D01*
X45042962Y-69172962D01*
X45153405Y-69038386D01*
X45221285Y-68911392D01*
X45408368Y-69098475D01*
X45651589Y-69260990D01*
X45921842Y-69372932D01*
X46208740Y-69430000D01*
X46501260Y-69430000D01*
X46788158Y-69372932D01*
X47058411Y-69260990D01*
X47301632Y-69098475D01*
X47508475Y-68891632D01*
X47670990Y-68648411D01*
X47782932Y-68378158D01*
X47840000Y-68091260D01*
X47840000Y-67798740D01*
X47782932Y-67511842D01*
X47670990Y-67241589D01*
X47508475Y-66998368D01*
X47301632Y-66791525D01*
X47128271Y-66675689D01*
X47203792Y-66433397D01*
X46355000Y-65584605D01*
X45506208Y-66433397D01*
X45581729Y-66675689D01*
X45408368Y-66791525D01*
X45221285Y-66978608D01*
X45153405Y-66851614D01*
X45042962Y-66717038D01*
X44908386Y-66606595D01*
X44754850Y-66524528D01*
X44645707Y-66491420D01*
X44663792Y-66433397D01*
X43815000Y-65584605D01*
X42966208Y-66433397D01*
X42984293Y-66491420D01*
X42875150Y-66524528D01*
X42721614Y-66606595D01*
X42587038Y-66717038D01*
X42476595Y-66851614D01*
X42394528Y-67005150D01*
X42343992Y-67171746D01*
X42326928Y-67345000D01*
X40660000Y-67345000D01*
X40660000Y-65473531D01*
X42324389Y-65473531D01*
X42366401Y-65763019D01*
X42464081Y-66038747D01*
X42537528Y-66176157D01*
X42786603Y-66253792D01*
X43635395Y-65405000D01*
X43994605Y-65405000D01*
X44843397Y-66253792D01*
X45085000Y-66178486D01*
X45326603Y-66253792D01*
X46175395Y-65405000D01*
X46534605Y-65405000D01*
X47383397Y-66253792D01*
X47632472Y-66176157D01*
X47758371Y-65912117D01*
X47830339Y-65628589D01*
X47845611Y-65336469D01*
X47803599Y-65046981D01*
X47705919Y-64771253D01*
X47632472Y-64633843D01*
X47383397Y-64556208D01*
X46534605Y-65405000D01*
X46175395Y-65405000D01*
X45326603Y-64556208D01*
X45085000Y-64631514D01*
X44843397Y-64556208D01*
X43994605Y-65405000D01*
X43635395Y-65405000D01*
X42786603Y-64556208D01*
X42537528Y-64633843D01*
X42411629Y-64897883D01*
X42339661Y-65181411D01*
X42324389Y-65473531D01*
X40660000Y-65473531D01*
X40660000Y-63893397D01*
X42966208Y-63893397D01*
X43041514Y-64135000D01*
X42966208Y-64376603D01*
X43815000Y-65225395D01*
X44663792Y-64376603D01*
X44588486Y-64135000D01*
X44663792Y-63893397D01*
X45506208Y-63893397D01*
X45581514Y-64135000D01*
X45506208Y-64376603D01*
X46355000Y-65225395D01*
X47203792Y-64376603D01*
X47128486Y-64135000D01*
X47203792Y-63893397D01*
X46355000Y-63044605D01*
X45506208Y-63893397D01*
X44663792Y-63893397D01*
X43815000Y-63044605D01*
X42966208Y-63893397D01*
X40660000Y-63893397D01*
X40660000Y-62933531D01*
X42324389Y-62933531D01*
X42366401Y-63223019D01*
X42464081Y-63498747D01*
X42537528Y-63636157D01*
X42786603Y-63713792D01*
X43635395Y-62865000D01*
X43994605Y-62865000D01*
X44843397Y-63713792D01*
X45085000Y-63638486D01*
X45326603Y-63713792D01*
X46175395Y-62865000D01*
X46534605Y-62865000D01*
X47383397Y-63713792D01*
X47632472Y-63636157D01*
X47758371Y-63372117D01*
X47830339Y-63088589D01*
X47845611Y-62796469D01*
X47803599Y-62506981D01*
X47705919Y-62231253D01*
X47632472Y-62093843D01*
X47383397Y-62016208D01*
X46534605Y-62865000D01*
X46175395Y-62865000D01*
X45326603Y-62016208D01*
X45085000Y-62091514D01*
X44843397Y-62016208D01*
X43994605Y-62865000D01*
X43635395Y-62865000D01*
X42786603Y-62016208D01*
X42537528Y-62093843D01*
X42411629Y-62357883D01*
X42339661Y-62641411D01*
X42324389Y-62933531D01*
X40660000Y-62933531D01*
X40660000Y-61353397D01*
X42966208Y-61353397D01*
X43041514Y-61595000D01*
X42966208Y-61836603D01*
X43815000Y-62685395D01*
X44663792Y-61836603D01*
X44588486Y-61595000D01*
X44663792Y-61353397D01*
X45506208Y-61353397D01*
X45581514Y-61595000D01*
X45506208Y-61836603D01*
X46355000Y-62685395D01*
X47203792Y-61836603D01*
X47128486Y-61595000D01*
X47203792Y-61353397D01*
X46355000Y-60504605D01*
X45506208Y-61353397D01*
X44663792Y-61353397D01*
X43815000Y-60504605D01*
X42966208Y-61353397D01*
X40660000Y-61353397D01*
X40660000Y-60393531D01*
X42324389Y-60393531D01*
X42366401Y-60683019D01*
X42464081Y-60958747D01*
X42537528Y-61096157D01*
X42786603Y-61173792D01*
X43635395Y-60325000D01*
X43994605Y-60325000D01*
X44843397Y-61173792D01*
X45085000Y-61098486D01*
X45326603Y-61173792D01*
X46175395Y-60325000D01*
X46534605Y-60325000D01*
X47383397Y-61173792D01*
X47632472Y-61096157D01*
X47758371Y-60832117D01*
X47830339Y-60548589D01*
X47845611Y-60256469D01*
X47803599Y-59966981D01*
X47705919Y-59691253D01*
X47632472Y-59553843D01*
X47383397Y-59476208D01*
X46534605Y-60325000D01*
X46175395Y-60325000D01*
X45326603Y-59476208D01*
X45085000Y-59551514D01*
X44843397Y-59476208D01*
X43994605Y-60325000D01*
X43635395Y-60325000D01*
X42786603Y-59476208D01*
X42537528Y-59553843D01*
X42411629Y-59817883D01*
X42339661Y-60101411D01*
X42324389Y-60393531D01*
X40660000Y-60393531D01*
X40660000Y-50018740D01*
X42330000Y-50018740D01*
X42330000Y-50311260D01*
X42387068Y-50598158D01*
X42499010Y-50868411D01*
X42661525Y-51111632D01*
X42868368Y-51318475D01*
X43042760Y-51435000D01*
X42868368Y-51551525D01*
X42661525Y-51758368D01*
X42499010Y-52001589D01*
X42387068Y-52271842D01*
X42330000Y-52558740D01*
X42330000Y-52851260D01*
X42387068Y-53138158D01*
X42499010Y-53408411D01*
X42661525Y-53651632D01*
X42868368Y-53858475D01*
X43042760Y-53975000D01*
X42868368Y-54091525D01*
X42661525Y-54298368D01*
X42499010Y-54541589D01*
X42387068Y-54811842D01*
X42330000Y-55098740D01*
X42330000Y-55391260D01*
X42387068Y-55678158D01*
X42499010Y-55948411D01*
X42661525Y-56191632D01*
X42868368Y-56398475D01*
X43042760Y-56515000D01*
X42868368Y-56631525D01*
X42661525Y-56838368D01*
X42499010Y-57081589D01*
X42387068Y-57351842D01*
X42330000Y-57638740D01*
X42330000Y-57931260D01*
X42387068Y-58218158D01*
X42499010Y-58488411D01*
X42661525Y-58731632D01*
X42868368Y-58938475D01*
X43041729Y-59054311D01*
X42966208Y-59296603D01*
X43815000Y-60145395D01*
X44663792Y-59296603D01*
X44588271Y-59054311D01*
X44761632Y-58938475D01*
X44968475Y-58731632D01*
X45085000Y-58557240D01*
X45201525Y-58731632D01*
X45408368Y-58938475D01*
X45581729Y-59054311D01*
X45506208Y-59296603D01*
X46355000Y-60145395D01*
X47203792Y-59296603D01*
X47128271Y-59054311D01*
X47301632Y-58938475D01*
X47508475Y-58731632D01*
X47670990Y-58488411D01*
X47757869Y-58278665D01*
X49779000Y-58278665D01*
X49779000Y-58561335D01*
X49834147Y-58838574D01*
X49942320Y-59099727D01*
X50099363Y-59334759D01*
X50299241Y-59534637D01*
X50534273Y-59691680D01*
X50795426Y-59799853D01*
X51072665Y-59855000D01*
X51355335Y-59855000D01*
X51632574Y-59799853D01*
X51893727Y-59691680D01*
X52128759Y-59534637D01*
X52328637Y-59334759D01*
X52485680Y-59099727D01*
X52593853Y-58838574D01*
X52649000Y-58561335D01*
X52649000Y-58278665D01*
X52593853Y-58001426D01*
X52485680Y-57740273D01*
X52328637Y-57505241D01*
X52128759Y-57305363D01*
X51893727Y-57148320D01*
X51632574Y-57040147D01*
X51355335Y-56985000D01*
X51072665Y-56985000D01*
X50795426Y-57040147D01*
X50534273Y-57148320D01*
X50299241Y-57305363D01*
X50099363Y-57505241D01*
X49942320Y-57740273D01*
X49834147Y-58001426D01*
X49779000Y-58278665D01*
X47757869Y-58278665D01*
X47782932Y-58218158D01*
X47840000Y-57931260D01*
X47840000Y-57638740D01*
X47782932Y-57351842D01*
X47670990Y-57081589D01*
X47508475Y-56838368D01*
X47301632Y-56631525D01*
X47127240Y-56515000D01*
X47301632Y-56398475D01*
X47508475Y-56191632D01*
X47670990Y-55948411D01*
X47782932Y-55678158D01*
X47840000Y-55391260D01*
X47840000Y-55098740D01*
X47782932Y-54811842D01*
X47670990Y-54541589D01*
X47508475Y-54298368D01*
X47301632Y-54091525D01*
X47127240Y-53975000D01*
X47301632Y-53858475D01*
X47508475Y-53651632D01*
X47670990Y-53408411D01*
X47782932Y-53138158D01*
X47840000Y-52851260D01*
X47840000Y-52558740D01*
X47782932Y-52271842D01*
X47670990Y-52001589D01*
X47508475Y-51758368D01*
X47301632Y-51551525D01*
X47127240Y-51435000D01*
X47301632Y-51318475D01*
X47508475Y-51111632D01*
X47670990Y-50868411D01*
X47782932Y-50598158D01*
X47840000Y-50311260D01*
X47840000Y-50018740D01*
X47782932Y-49731842D01*
X47670990Y-49461589D01*
X47508475Y-49218368D01*
X47301632Y-49011525D01*
X47058411Y-48849010D01*
X46788158Y-48737068D01*
X46501260Y-48680000D01*
X46208740Y-48680000D01*
X45921842Y-48737068D01*
X45651589Y-48849010D01*
X45408368Y-49011525D01*
X45201525Y-49218368D01*
X45085000Y-49392760D01*
X44968475Y-49218368D01*
X44761632Y-49011525D01*
X44518411Y-48849010D01*
X44248158Y-48737068D01*
X43961260Y-48680000D01*
X43668740Y-48680000D01*
X43381842Y-48737068D01*
X43111589Y-48849010D01*
X42868368Y-49011525D01*
X42661525Y-49218368D01*
X42499010Y-49461589D01*
X42387068Y-49731842D01*
X42330000Y-50018740D01*
X40660000Y-50018740D01*
X40660000Y-34925000D01*
X44980880Y-34925000D01*
X45017275Y-35294524D01*
X45125061Y-35649848D01*
X45300097Y-35977317D01*
X45535655Y-36264345D01*
X45822683Y-36499903D01*
X46150152Y-36674939D01*
X46505476Y-36782725D01*
X46782403Y-36810000D01*
X48467597Y-36810000D01*
X48744524Y-36782725D01*
X49099848Y-36674939D01*
X49427317Y-36499903D01*
X49714345Y-36264345D01*
X49949903Y-35977317D01*
X50124939Y-35649848D01*
X50232725Y-35294524D01*
X50269120Y-34925000D01*
X60220880Y-34925000D01*
X60257275Y-35294524D01*
X60365061Y-35649848D01*
X60540097Y-35977317D01*
X60775655Y-36264345D01*
X61062683Y-36499903D01*
X61390152Y-36674939D01*
X61745476Y-36782725D01*
X62022403Y-36810000D01*
X63707597Y-36810000D01*
X63984524Y-36782725D01*
X64339848Y-36674939D01*
X64667317Y-36499903D01*
X64954345Y-36264345D01*
X65189903Y-35977317D01*
X65364939Y-35649848D01*
X65472725Y-35294524D01*
X65509120Y-34925000D01*
X65472725Y-34555476D01*
X65364939Y-34200152D01*
X65189903Y-33872683D01*
X64954345Y-33585655D01*
X64760348Y-33426445D01*
X64767847Y-33421763D01*
X65037699Y-33168094D01*
X65252878Y-32866653D01*
X65405114Y-32529025D01*
X65452695Y-32344645D01*
X65336572Y-32052000D01*
X62992000Y-32052000D01*
X62992000Y-32072000D01*
X62738000Y-32072000D01*
X62738000Y-32052000D01*
X60393428Y-32052000D01*
X60277305Y-32344645D01*
X60324886Y-32529025D01*
X60477122Y-32866653D01*
X60692301Y-33168094D01*
X60962153Y-33421763D01*
X60969652Y-33426445D01*
X60775655Y-33585655D01*
X60540097Y-33872683D01*
X60365061Y-34200152D01*
X60257275Y-34555476D01*
X60220880Y-34925000D01*
X50269120Y-34925000D01*
X50232725Y-34555476D01*
X50124939Y-34200152D01*
X49949903Y-33872683D01*
X49714345Y-33585655D01*
X49520348Y-33426445D01*
X49527847Y-33421763D01*
X49797699Y-33168094D01*
X50012878Y-32866653D01*
X50165114Y-32529025D01*
X50212695Y-32344645D01*
X50096572Y-32052000D01*
X47752000Y-32052000D01*
X47752000Y-32072000D01*
X47498000Y-32072000D01*
X47498000Y-32052000D01*
X45153428Y-32052000D01*
X45037305Y-32344645D01*
X45084886Y-32529025D01*
X45237122Y-32866653D01*
X45452301Y-33168094D01*
X45722153Y-33421763D01*
X45729652Y-33426445D01*
X45535655Y-33585655D01*
X45300097Y-33872683D01*
X45125061Y-34200152D01*
X45017275Y-34555476D01*
X44980880Y-34925000D01*
X40660000Y-34925000D01*
X40660000Y-30660000D01*
X45475605Y-30660000D01*
X45452301Y-30681906D01*
G37*
%TD.AperFunction*%
D23*
X54027000Y-90263000D02*
X54047000Y-90263000D01*
X54047000Y-90517000D01*
X54027000Y-90517000D01*
X54027000Y-90537000D01*
X53773000Y-90537000D01*
X53773000Y-90517000D01*
X53753000Y-90517000D01*
X53753000Y-90263000D01*
X53773000Y-90263000D01*
X53773000Y-90243000D01*
X54027000Y-90243000D01*
X54027000Y-90263000D01*
%TA.AperFunction,Conductor*%
D24*
G36*
X54027000Y-90263000D02*
G01*
X54047000Y-90263000D01*
X54047000Y-90517000D01*
X54027000Y-90517000D01*
X54027000Y-90537000D01*
X53773000Y-90537000D01*
X53773000Y-90517000D01*
X53753000Y-90517000D01*
X53753000Y-90263000D01*
X53773000Y-90263000D01*
X53773000Y-90243000D01*
X54027000Y-90243000D01*
X54027000Y-90263000D01*
G37*
%TD.AperFunction*%
D23*
X45475000Y-76058665D02*
X45475000Y-76341335D01*
X45530147Y-76618574D01*
X45638320Y-76879727D01*
X45795363Y-77114759D01*
X45995241Y-77314637D01*
X46230273Y-77471680D01*
X46491426Y-77579853D01*
X46768665Y-77635000D01*
X47051335Y-77635000D01*
X47328574Y-77579853D01*
X47589727Y-77471680D01*
X47824759Y-77314637D01*
X48024637Y-77114759D01*
X48181680Y-76879727D01*
X48195000Y-76847570D01*
X48195000Y-76966486D01*
X48246304Y-77224405D01*
X48346939Y-77467359D01*
X48493038Y-77686013D01*
X48678987Y-77871962D01*
X48897641Y-78018061D01*
X49140595Y-78118696D01*
X49398514Y-78170000D01*
X49613421Y-78170000D01*
X49795002Y-78351581D01*
X49795002Y-78701558D01*
X49661486Y-78675000D01*
X49398514Y-78675000D01*
X49140595Y-78726304D01*
X48897641Y-78826939D01*
X48678987Y-78973038D01*
X48493038Y-79158987D01*
X48346939Y-79377641D01*
X48246304Y-79620595D01*
X48195000Y-79878514D01*
X48195000Y-79997430D01*
X48181680Y-79965273D01*
X48024637Y-79730241D01*
X47824759Y-79530363D01*
X47589727Y-79373320D01*
X47328574Y-79265147D01*
X47051335Y-79210000D01*
X46768665Y-79210000D01*
X46491426Y-79265147D01*
X46230273Y-79373320D01*
X45995241Y-79530363D01*
X45795363Y-79730241D01*
X45638320Y-79965273D01*
X45530147Y-80226426D01*
X45475000Y-80503665D01*
X45475000Y-80786335D01*
X45530147Y-81063574D01*
X45638320Y-81324727D01*
X45795363Y-81559759D01*
X45995241Y-81759637D01*
X46230273Y-81916680D01*
X46330306Y-81958115D01*
X40660000Y-87628422D01*
X40660000Y-81637702D01*
X41096903Y-81637702D01*
X41168486Y-81881671D01*
X41423996Y-82002571D01*
X41698184Y-82071300D01*
X41980512Y-82085217D01*
X42260130Y-82043787D01*
X42526292Y-81948603D01*
X42651514Y-81881671D01*
X42723097Y-81637702D01*
X41910000Y-80824605D01*
X41096903Y-81637702D01*
X40660000Y-81637702D01*
X40660000Y-81361577D01*
X40673329Y-81386514D01*
X40917298Y-81458097D01*
X41730395Y-80645000D01*
X42089605Y-80645000D01*
X42902702Y-81458097D01*
X43146671Y-81386514D01*
X43267571Y-81131004D01*
X43336300Y-80856816D01*
X43350217Y-80574488D01*
X43308787Y-80294870D01*
X43213603Y-80028708D01*
X43146671Y-79903486D01*
X42902702Y-79831903D01*
X42089605Y-80645000D01*
X41730395Y-80645000D01*
X40917298Y-79831903D01*
X40673329Y-79903486D01*
X40660000Y-79931656D01*
X40660000Y-79652298D01*
X41096903Y-79652298D01*
X41910000Y-80465395D01*
X42723097Y-79652298D01*
X42651514Y-79408329D01*
X42396004Y-79287429D01*
X42121816Y-79218700D01*
X41839488Y-79204783D01*
X41559870Y-79246213D01*
X41293708Y-79341397D01*
X41168486Y-79408329D01*
X41096903Y-79652298D01*
X40660000Y-79652298D01*
X40660000Y-76912173D01*
X40795363Y-77114759D01*
X40995241Y-77314637D01*
X41230273Y-77471680D01*
X41491426Y-77579853D01*
X41768665Y-77635000D01*
X42051335Y-77635000D01*
X42328574Y-77579853D01*
X42589727Y-77471680D01*
X42824759Y-77314637D01*
X43024637Y-77114759D01*
X43181680Y-76879727D01*
X43289853Y-76618574D01*
X43345000Y-76341335D01*
X43345000Y-76058665D01*
X43338017Y-76023561D01*
X43526580Y-75834999D01*
X45519491Y-75834999D01*
X45475000Y-76058665D01*
%TA.AperFunction,Conductor*%
D24*
G36*
X45475000Y-76058665D02*
G01*
X45475000Y-76341335D01*
X45530147Y-76618574D01*
X45638320Y-76879727D01*
X45795363Y-77114759D01*
X45995241Y-77314637D01*
X46230273Y-77471680D01*
X46491426Y-77579853D01*
X46768665Y-77635000D01*
X47051335Y-77635000D01*
X47328574Y-77579853D01*
X47589727Y-77471680D01*
X47824759Y-77314637D01*
X48024637Y-77114759D01*
X48181680Y-76879727D01*
X48195000Y-76847570D01*
X48195000Y-76966486D01*
X48246304Y-77224405D01*
X48346939Y-77467359D01*
X48493038Y-77686013D01*
X48678987Y-77871962D01*
X48897641Y-78018061D01*
X49140595Y-78118696D01*
X49398514Y-78170000D01*
X49613421Y-78170000D01*
X49795002Y-78351581D01*
X49795002Y-78701558D01*
X49661486Y-78675000D01*
X49398514Y-78675000D01*
X49140595Y-78726304D01*
X48897641Y-78826939D01*
X48678987Y-78973038D01*
X48493038Y-79158987D01*
X48346939Y-79377641D01*
X48246304Y-79620595D01*
X48195000Y-79878514D01*
X48195000Y-79997430D01*
X48181680Y-79965273D01*
X48024637Y-79730241D01*
X47824759Y-79530363D01*
X47589727Y-79373320D01*
X47328574Y-79265147D01*
X47051335Y-79210000D01*
X46768665Y-79210000D01*
X46491426Y-79265147D01*
X46230273Y-79373320D01*
X45995241Y-79530363D01*
X45795363Y-79730241D01*
X45638320Y-79965273D01*
X45530147Y-80226426D01*
X45475000Y-80503665D01*
X45475000Y-80786335D01*
X45530147Y-81063574D01*
X45638320Y-81324727D01*
X45795363Y-81559759D01*
X45995241Y-81759637D01*
X46230273Y-81916680D01*
X46330306Y-81958115D01*
X40660000Y-87628422D01*
X40660000Y-81637702D01*
X41096903Y-81637702D01*
X41168486Y-81881671D01*
X41423996Y-82002571D01*
X41698184Y-82071300D01*
X41980512Y-82085217D01*
X42260130Y-82043787D01*
X42526292Y-81948603D01*
X42651514Y-81881671D01*
X42723097Y-81637702D01*
X41910000Y-80824605D01*
X41096903Y-81637702D01*
X40660000Y-81637702D01*
X40660000Y-81361577D01*
X40673329Y-81386514D01*
X40917298Y-81458097D01*
X41730395Y-80645000D01*
X42089605Y-80645000D01*
X42902702Y-81458097D01*
X43146671Y-81386514D01*
X43267571Y-81131004D01*
X43336300Y-80856816D01*
X43350217Y-80574488D01*
X43308787Y-80294870D01*
X43213603Y-80028708D01*
X43146671Y-79903486D01*
X42902702Y-79831903D01*
X42089605Y-80645000D01*
X41730395Y-80645000D01*
X40917298Y-79831903D01*
X40673329Y-79903486D01*
X40660000Y-79931656D01*
X40660000Y-79652298D01*
X41096903Y-79652298D01*
X41910000Y-80465395D01*
X42723097Y-79652298D01*
X42651514Y-79408329D01*
X42396004Y-79287429D01*
X42121816Y-79218700D01*
X41839488Y-79204783D01*
X41559870Y-79246213D01*
X41293708Y-79341397D01*
X41168486Y-79408329D01*
X41096903Y-79652298D01*
X40660000Y-79652298D01*
X40660000Y-76912173D01*
X40795363Y-77114759D01*
X40995241Y-77314637D01*
X41230273Y-77471680D01*
X41491426Y-77579853D01*
X41768665Y-77635000D01*
X42051335Y-77635000D01*
X42328574Y-77579853D01*
X42589727Y-77471680D01*
X42824759Y-77314637D01*
X43024637Y-77114759D01*
X43181680Y-76879727D01*
X43289853Y-76618574D01*
X43345000Y-76341335D01*
X43345000Y-76058665D01*
X43338017Y-76023561D01*
X43526580Y-75834999D01*
X45519491Y-75834999D01*
X45475000Y-76058665D01*
G37*
%TD.AperFunction*%
%TD*%
M02*
