%TF.GenerationSoftware,KiCad,Pcbnew,(5.1.10)-1*%
%TF.CreationDate,2022-02-04T18:44:23-05:00*%
%TF.ProjectId,BIGRIG_OUTPUT,42494752-4947-45f4-9f55-545055542e6b,rev?*%
%TF.SameCoordinates,Original*%
%TF.FileFunction,Soldermask,Top*%
%TF.FilePolarity,Negative*%
%FSLAX46Y46*%
G04 Gerber Fmt 4.6, Leading zero omitted, Abs format (unit mm)*
G04 Created by KiCad (PCBNEW (5.1.10)-1) date 2022-02-04 18:44:23*
%MOMM*%
%LPD*%
G01*
G04 APERTURE LIST*
%ADD10O,1.400000X1.400000*%
%ADD11C,1.400000*%
%ADD12C,3.200000*%
%ADD13C,1.600000*%
%ADD14R,1.600000X1.600000*%
%ADD15O,1.600000X1.600000*%
%ADD16C,1.700000*%
%ADD17O,4.000000X2.500000*%
%ADD18O,2.500000X1.700000*%
%ADD19O,1.700000X2.500000*%
%ADD20C,2.000000*%
%ADD21O,1.700000X2.000000*%
%ADD22R,1.600000X2.400000*%
%ADD23O,1.600000X2.400000*%
G04 APERTURE END LIST*
D10*
%TO.C,R15*%
X49530000Y-76835000D03*
D11*
X57150000Y-76835000D03*
%TD*%
D12*
%TO.C,REF\u002A\u002A*%
X55000000Y-95885000D03*
%TD*%
D13*
%TO.C,C2*%
X67905000Y-52705000D03*
D14*
X65405000Y-52705000D03*
%TD*%
D13*
%TO.C,C3*%
X62865000Y-62230000D03*
X57865000Y-62230000D03*
%TD*%
%TO.C,C4*%
X59770000Y-77470000D03*
X64770000Y-77470000D03*
%TD*%
D14*
%TO.C,C5*%
X65405000Y-58420000D03*
D13*
X67905000Y-58420000D03*
%TD*%
%TO.C,C8*%
X42625000Y-98425000D03*
X47625000Y-98425000D03*
%TD*%
%TO.C,C9*%
X46990000Y-92075000D03*
X41990000Y-92075000D03*
%TD*%
%TO.C,C12*%
X46910000Y-80645000D03*
X41910000Y-80645000D03*
%TD*%
%TO.C,C13*%
X41910000Y-76200000D03*
X46910000Y-76200000D03*
%TD*%
%TO.C,FB2*%
X61214000Y-58420000D03*
D15*
X51214000Y-58420000D03*
%TD*%
%TO.C,FB3*%
X51595000Y-52705000D03*
D13*
X61595000Y-52705000D03*
%TD*%
%TO.C,J1*%
G36*
G01*
X42965000Y-68545000D02*
X42965000Y-67345000D01*
G75*
G02*
X43215000Y-67095000I250000J0D01*
G01*
X44415000Y-67095000D01*
G75*
G02*
X44665000Y-67345000I0J-250000D01*
G01*
X44665000Y-68545000D01*
G75*
G02*
X44415000Y-68795000I-250000J0D01*
G01*
X43215000Y-68795000D01*
G75*
G02*
X42965000Y-68545000I0J250000D01*
G01*
G37*
D16*
X43815000Y-65405000D03*
X43815000Y-62865000D03*
X43815000Y-60325000D03*
X43815000Y-57785000D03*
X43815000Y-55245000D03*
X43815000Y-52705000D03*
X43815000Y-50165000D03*
X46355000Y-67945000D03*
X46355000Y-65405000D03*
X46355000Y-62865000D03*
X46355000Y-60325000D03*
X46355000Y-57785000D03*
X46355000Y-55245000D03*
X46355000Y-52705000D03*
X46355000Y-50165000D03*
%TD*%
D17*
%TO.C,J2*%
X62865000Y-31925000D03*
X62865000Y-34925000D03*
X62865000Y-43125000D03*
%TD*%
%TO.C,J3*%
X47625000Y-43125000D03*
X47625000Y-34925000D03*
X47625000Y-31925000D03*
%TD*%
D18*
%TO.C,J4*%
X52300000Y-86140000D03*
X58600000Y-90390000D03*
D19*
X59350000Y-87865000D03*
D18*
X53900000Y-90390000D03*
D19*
X51450000Y-88665000D03*
D20*
X55000000Y-88265000D03*
%TD*%
%TO.C,J5*%
G36*
G01*
X63285000Y-97905000D02*
X63285000Y-96405000D01*
G75*
G02*
X63535000Y-96155000I250000J0D01*
G01*
X64735000Y-96155000D01*
G75*
G02*
X64985000Y-96405000I0J-250000D01*
G01*
X64985000Y-97905000D01*
G75*
G02*
X64735000Y-98155000I-250000J0D01*
G01*
X63535000Y-98155000D01*
G75*
G02*
X63285000Y-97905000I0J250000D01*
G01*
G37*
D21*
X66635000Y-97155000D03*
%TD*%
D10*
%TO.C,R9*%
X57150000Y-80010000D03*
D11*
X49530000Y-80010000D03*
%TD*%
%TO.C,R10*%
X41275000Y-95250000D03*
D10*
X48895000Y-95250000D03*
%TD*%
%TO.C,R11*%
X62230000Y-90805000D03*
D11*
X62230000Y-83185000D03*
%TD*%
%TO.C,R12*%
X65405000Y-83185000D03*
D10*
X65405000Y-90805000D03*
%TD*%
D11*
%TO.C,R13*%
X67310000Y-80645000D03*
D10*
X59690000Y-80645000D03*
%TD*%
%TO.C,R14*%
X68580000Y-83185000D03*
D11*
X68580000Y-90805000D03*
%TD*%
%TO.C,R16*%
X49530000Y-83185000D03*
D10*
X57150000Y-83185000D03*
%TD*%
D22*
%TO.C,U1*%
X51689000Y-66040000D03*
D23*
X66929000Y-73660000D03*
X54229000Y-66040000D03*
X64389000Y-73660000D03*
X56769000Y-66040000D03*
X61849000Y-73660000D03*
X59309000Y-66040000D03*
X59309000Y-73660000D03*
X61849000Y-66040000D03*
X56769000Y-73660000D03*
X64389000Y-66040000D03*
X54229000Y-73660000D03*
X66929000Y-66040000D03*
X51689000Y-73660000D03*
%TD*%
M02*
