M48
; DRILL file {KiCad (5.1.10)-1} date 01/02/22 13:33:00
; FORMAT={-:-/ absolute / inch / decimal}
; #@! TF.CreationDate,2022-01-02T13:33:00-05:00
; #@! TF.GenerationSoftware,Kicad,Pcbnew,(5.1.10)-1
; #@! TF.FileFunction,Plated,1,2,PTH
FMAT,2
INCH
T1C0.0157
T2C0.0315
T3C0.0394
T4C0.0433
T5C0.0472
T6C0.0591
T7C0.0598
T8C0.0630
T9C0.0689
T10C0.0984
%
G90
G05
T1
X3.2468Y-1.4168
X3.4866Y-1.5706
X3.6882Y-1.7412
X4.1396Y-2.9922
X4.1428Y-3.3352
X4.5416Y-3.7832
X4.5454Y-3.938
X4.6324Y-3.87
X4.7406Y-3.3116
X4.7594Y-3.5476
X5.011Y-2.0306
X5.2496Y-1.6714
X5.2786Y-2.319
X5.5278Y-3.5134
X5.5302Y-2.0228
X5.5544Y-3.9186
X5.588Y-2.3794
X5.603Y-3.4398
X5.7558Y-3.9376
X5.8408Y-3.8148
X5.844Y-3.2478
X5.8842Y-2.0174
X6.0298Y-3.1158
X6.1634Y-3.2202
X6.3Y-3.1128
X6.6668Y-3.383
X6.7582Y-3.9236
X7.0684Y-3.919
X7.3266Y-3.004
X7.4888Y-2.6036
T2
X1.4363Y-1.5205
X1.4363Y-1.7505
X1.4366Y-1.3048
X1.4866Y-2.2998
X1.7316Y-1.5848
X1.7316Y-1.8148
X1.7319Y-1.3691
X1.7866Y-2.2998
X3.5259Y-3.3422
X3.7228Y-3.3422
X3.9388Y-3.3926
X3.9388Y-3.491
X4.2026Y-1.9528
X4.2026Y-2.1497
X4.3232Y-3.3884
X4.3232Y-3.4868
X4.4877Y-2.1548
X4.6846Y-2.1548
X5.1041Y-3.3134
X5.1041Y-3.5103
X5.4773Y-3.3399
X5.6742Y-3.3399
X5.9104Y-3.3866
X5.9104Y-3.485
X6.2066Y-1.9429
X6.2066Y-2.1398
X6.209Y-3.3754
X6.209Y-3.4738
X6.4947Y-2.1498
X6.6916Y-2.1498
X7.0556Y-3.3284
X7.0556Y-3.5253
T3
X7.3666Y-1.3323
X7.3666Y-1.4307
T4
X4.2156Y-4.2523
X4.2186Y-2.8523
X4.2236Y-1.4998
X4.3156Y-4.2523
X4.3186Y-2.8523
X4.3236Y-1.4998
X4.3876Y-1.9708
X4.4156Y-4.2523
X4.4186Y-2.8523
X4.4236Y-1.4998
X4.5366Y-3.3353
X4.5366Y-3.5128
X4.7876Y-1.9708
X4.9366Y-3.3353
X4.9366Y-3.5128
X6.1726Y-4.2623
X6.1916Y-2.8523
X6.2066Y-1.4998
X6.2726Y-4.2623
X6.2916Y-2.8523
X6.3066Y-1.4998
X6.3726Y-4.2623
X6.3866Y-1.9623
X6.3916Y-2.8523
X6.4066Y-1.4998
X6.4881Y-3.3303
X6.4886Y-3.5028
X6.7866Y-1.9623
X6.8881Y-3.3303
X6.8886Y-3.5028
T5
X2.0816Y-1.9948
X2.0816Y-3.2948
X2.3769Y-1.9948
X2.3769Y-3.2948
X2.4563Y-2.6448
X2.4663Y-1.3348
X2.7516Y-2.6448
X2.7616Y-1.3348
X2.8266Y-1.9948
X2.8266Y-3.3098
X3.1219Y-1.9948
X3.1219Y-3.3098
T6
X1.6166Y-2.6348
X1.6166Y-3.5246
T7
X1.1166Y-1.3048
X1.1166Y-1.5048
X1.1166Y-1.7048
X1.1166Y-1.9048
X1.1166Y-2.1948
X1.1166Y-2.3948
X1.1166Y-2.5948
X1.1166Y-2.7948
X1.1166Y-3.0998
X1.1166Y-3.2998
X1.1166Y-3.4998
X1.1166Y-3.6998
X1.1166Y-4.0098
X1.1166Y-4.2098
X1.5504Y-4.4248
X1.6144Y-1.0061
X1.7504Y-4.4248
X1.8144Y-1.0061
X1.9504Y-4.4248
X2.0144Y-1.0061
X2.1504Y-4.4248
X2.544Y-4.425
X2.744Y-4.425
X2.944Y-4.425
X3.144Y-4.425
X7.3716Y-1.7298
X7.3716Y-1.9298
X7.3716Y-2.1298
X7.3716Y-2.3298
X7.4296Y-3.1148
X7.4296Y-3.3148
X7.4296Y-3.5148
X7.4296Y-3.7148
T8
X1.5516Y-3.9748
X1.7516Y-3.9748
X1.9516Y-3.9748
X2.1516Y-3.9748
X2.5466Y-3.9748
X2.7466Y-3.9748
X2.9466Y-3.9748
X3.1466Y-3.9748
T9
X4.8866Y-3.9294
X5.0324Y-3.9294
T10
X3.8106Y-4.1173
X3.8186Y-2.7173
X3.8236Y-1.3698
X4.8106Y-4.1173
X4.8186Y-2.7173
X4.8236Y-1.3698
X5.7676Y-4.1273
X5.7966Y-1.3648
X5.7966Y-2.7173
X6.7676Y-4.1273
X6.7966Y-1.3648
X6.7966Y-2.7173
T0
M30
