%TF.GenerationSoftware,KiCad,Pcbnew,(5.1.10)-1*%
%TF.CreationDate,2022-02-04T18:42:06-05:00*%
%TF.ProjectId,OutputBoard,4f757470-7574-4426-9f61-72642e6b6963,rev?*%
%TF.SameCoordinates,Original*%
%TF.FileFunction,Soldermask,Top*%
%TF.FilePolarity,Negative*%
%FSLAX46Y46*%
G04 Gerber Fmt 4.6, Leading zero omitted, Abs format (unit mm)*
G04 Created by KiCad (PCBNEW (5.1.10)-1) date 2022-02-04 18:42:06*
%MOMM*%
%LPD*%
G01*
G04 APERTURE LIST*
%ADD10C,3.200000*%
%ADD11O,1.600000X2.400000*%
%ADD12R,1.600000X2.400000*%
%ADD13R,1.600000X1.600000*%
%ADD14C,1.600000*%
%ADD15C,1.700000*%
%ADD16R,1.700000X1.700000*%
%ADD17O,1.700000X1.700000*%
%ADD18C,1.400000*%
%ADD19O,1.400000X1.400000*%
%ADD20R,2.400000X1.600000*%
%ADD21O,2.400000X1.600000*%
G04 APERTURE END LIST*
D10*
%TO.C,REF\u002A\u002A*%
X48895000Y-93980000D03*
%TD*%
%TO.C,REF\u002A\u002A*%
X81280000Y-31750000D03*
%TD*%
D11*
%TO.C,U2*%
X72136000Y-49530000D03*
X56896000Y-57150000D03*
X69596000Y-49530000D03*
X59436000Y-57150000D03*
X67056000Y-49530000D03*
X61976000Y-57150000D03*
X64516000Y-49530000D03*
X64516000Y-57150000D03*
X61976000Y-49530000D03*
X67056000Y-57150000D03*
X59436000Y-49530000D03*
X69596000Y-57150000D03*
X56896000Y-49530000D03*
D12*
X72136000Y-57150000D03*
%TD*%
D13*
%TO.C,C1*%
X56896000Y-92710000D03*
D14*
X54396000Y-92710000D03*
%TD*%
%TO.C,C2*%
X48300000Y-56134000D03*
D13*
X50800000Y-56134000D03*
%TD*%
%TO.C,C5*%
X50800000Y-50038000D03*
D14*
X48300000Y-50038000D03*
%TD*%
%TO.C,C6*%
X64436000Y-83312000D03*
X59436000Y-83312000D03*
%TD*%
%TO.C,C7*%
X68660000Y-61976000D03*
X73660000Y-61976000D03*
%TD*%
%TO.C,C8*%
X70866000Y-33020000D03*
X70866000Y-38020000D03*
%TD*%
%TO.C,C9*%
X57404000Y-44196000D03*
X62404000Y-44196000D03*
%TD*%
%TO.C,C10*%
X74422000Y-30560000D03*
X74422000Y-35560000D03*
%TD*%
%TO.C,C11*%
X81788000Y-54356000D03*
X81788000Y-59356000D03*
%TD*%
%TO.C,C12*%
X59008000Y-30734000D03*
X64008000Y-30734000D03*
%TD*%
%TO.C,C13*%
X50292000Y-38020000D03*
X50292000Y-33020000D03*
%TD*%
%TO.C,J1*%
G36*
G01*
X49188000Y-83150000D02*
X49188000Y-81950000D01*
G75*
G02*
X49438000Y-81700000I250000J0D01*
G01*
X50638000Y-81700000D01*
G75*
G02*
X50888000Y-81950000I0J-250000D01*
G01*
X50888000Y-83150000D01*
G75*
G02*
X50638000Y-83400000I-250000J0D01*
G01*
X49438000Y-83400000D01*
G75*
G02*
X49188000Y-83150000I0J250000D01*
G01*
G37*
D15*
X50038000Y-80010000D03*
X50038000Y-77470000D03*
X50038000Y-74930000D03*
X50038000Y-72390000D03*
X50038000Y-69850000D03*
X50038000Y-67310000D03*
X50038000Y-64770000D03*
X52578000Y-82550000D03*
X52578000Y-80010000D03*
X52578000Y-77470000D03*
X52578000Y-74930000D03*
X52578000Y-72390000D03*
X52578000Y-69850000D03*
X52578000Y-67310000D03*
X52578000Y-64770000D03*
%TD*%
D16*
%TO.C,J3*%
X80518000Y-62484000D03*
D17*
X83058000Y-62484000D03*
X80518000Y-65024000D03*
X83058000Y-65024000D03*
X80518000Y-67564000D03*
X83058000Y-67564000D03*
X80518000Y-70104000D03*
X83058000Y-70104000D03*
X80518000Y-72644000D03*
X83058000Y-72644000D03*
X80518000Y-75184000D03*
X83058000Y-75184000D03*
X80518000Y-77724000D03*
X83058000Y-77724000D03*
X80518000Y-80264000D03*
X83058000Y-80264000D03*
X80518000Y-82804000D03*
X83058000Y-82804000D03*
X80518000Y-85344000D03*
X83058000Y-85344000D03*
X80518000Y-87884000D03*
X83058000Y-87884000D03*
X80518000Y-90424000D03*
X83058000Y-90424000D03*
X80518000Y-92964000D03*
X83058000Y-92964000D03*
X80518000Y-95504000D03*
X83058000Y-95504000D03*
%TD*%
D18*
%TO.C,R1*%
X76200000Y-79502000D03*
D19*
X68580000Y-79502000D03*
%TD*%
%TO.C,R2*%
X76200000Y-83312000D03*
D18*
X68580000Y-83312000D03*
%TD*%
%TO.C,R3*%
X65532000Y-65786000D03*
D19*
X57912000Y-65786000D03*
%TD*%
%TO.C,R4*%
X57912000Y-61976000D03*
D18*
X65532000Y-61976000D03*
%TD*%
%TO.C,R5*%
X57912000Y-73914000D03*
D19*
X65532000Y-73914000D03*
%TD*%
%TO.C,R6*%
X57912000Y-69850000D03*
D18*
X65532000Y-69850000D03*
%TD*%
D19*
%TO.C,R7*%
X68580000Y-71374000D03*
D18*
X76200000Y-71374000D03*
%TD*%
%TO.C,R8*%
X68580000Y-75438000D03*
D19*
X76200000Y-75438000D03*
%TD*%
%TO.C,R9*%
X64770000Y-41910000D03*
D18*
X72390000Y-41910000D03*
%TD*%
%TO.C,R10*%
X66548000Y-38100000D03*
D19*
X66548000Y-30480000D03*
%TD*%
D18*
%TO.C,R11*%
X64770000Y-45720000D03*
D19*
X72390000Y-45720000D03*
%TD*%
%TO.C,R12*%
X46990000Y-41656000D03*
D18*
X46990000Y-34036000D03*
%TD*%
D19*
%TO.C,R13*%
X75692000Y-38100000D03*
D18*
X83312000Y-38100000D03*
%TD*%
%TO.C,R14*%
X76708000Y-60706000D03*
D19*
X76708000Y-53086000D03*
%TD*%
%TO.C,R15*%
X54610000Y-32766000D03*
D18*
X54610000Y-40386000D03*
%TD*%
%TO.C,R16*%
X55880000Y-30226000D03*
D19*
X48260000Y-30226000D03*
%TD*%
D12*
%TO.C,U1*%
X60452000Y-86868000D03*
D11*
X75692000Y-94488000D03*
X62992000Y-86868000D03*
X73152000Y-94488000D03*
X65532000Y-86868000D03*
X70612000Y-94488000D03*
X68072000Y-86868000D03*
X68072000Y-94488000D03*
X70612000Y-86868000D03*
X65532000Y-94488000D03*
X73152000Y-86868000D03*
X62992000Y-94488000D03*
X75692000Y-86868000D03*
X60452000Y-94488000D03*
%TD*%
D20*
%TO.C,U3*%
X83058000Y-42418000D03*
D21*
X75438000Y-50038000D03*
X83058000Y-44958000D03*
X75438000Y-47498000D03*
X83058000Y-47498000D03*
X75438000Y-44958000D03*
X83058000Y-50038000D03*
X75438000Y-42418000D03*
%TD*%
D14*
%TO.C,C3*%
X64436000Y-78232000D03*
X59436000Y-78232000D03*
%TD*%
%TO.C,C4*%
X73660000Y-67056000D03*
X68660000Y-67056000D03*
%TD*%
M02*
