%TF.GenerationSoftware,KiCad,Pcbnew,(5.1.10)-1*%
%TF.CreationDate,2022-02-04T18:42:06-05:00*%
%TF.ProjectId,OutputBoard,4f757470-7574-4426-9f61-72642e6b6963,rev?*%
%TF.SameCoordinates,Original*%
%TF.FileFunction,Paste,Bot*%
%TF.FilePolarity,Positive*%
%FSLAX46Y46*%
G04 Gerber Fmt 4.6, Leading zero omitted, Abs format (unit mm)*
G04 Created by KiCad (PCBNEW (5.1.10)-1) date 2022-02-04 18:42:06*
%MOMM*%
%LPD*%
G01*
G04 APERTURE LIST*
G04 APERTURE END LIST*
%TO.C,IC1*%
G36*
G01*
X64410000Y-34267000D02*
X64410000Y-34567000D01*
G75*
G02*
X64260000Y-34717000I-150000J0D01*
G01*
X62610000Y-34717000D01*
G75*
G02*
X62460000Y-34567000I0J150000D01*
G01*
X62460000Y-34267000D01*
G75*
G02*
X62610000Y-34117000I150000J0D01*
G01*
X64260000Y-34117000D01*
G75*
G02*
X64410000Y-34267000I0J-150000D01*
G01*
G37*
G36*
G01*
X64410000Y-35537000D02*
X64410000Y-35837000D01*
G75*
G02*
X64260000Y-35987000I-150000J0D01*
G01*
X62610000Y-35987000D01*
G75*
G02*
X62460000Y-35837000I0J150000D01*
G01*
X62460000Y-35537000D01*
G75*
G02*
X62610000Y-35387000I150000J0D01*
G01*
X64260000Y-35387000D01*
G75*
G02*
X64410000Y-35537000I0J-150000D01*
G01*
G37*
G36*
G01*
X64410000Y-36807000D02*
X64410000Y-37107000D01*
G75*
G02*
X64260000Y-37257000I-150000J0D01*
G01*
X62610000Y-37257000D01*
G75*
G02*
X62460000Y-37107000I0J150000D01*
G01*
X62460000Y-36807000D01*
G75*
G02*
X62610000Y-36657000I150000J0D01*
G01*
X64260000Y-36657000D01*
G75*
G02*
X64410000Y-36807000I0J-150000D01*
G01*
G37*
G36*
G01*
X64410000Y-38077000D02*
X64410000Y-38377000D01*
G75*
G02*
X64260000Y-38527000I-150000J0D01*
G01*
X62610000Y-38527000D01*
G75*
G02*
X62460000Y-38377000I0J150000D01*
G01*
X62460000Y-38077000D01*
G75*
G02*
X62610000Y-37927000I150000J0D01*
G01*
X64260000Y-37927000D01*
G75*
G02*
X64410000Y-38077000I0J-150000D01*
G01*
G37*
G36*
G01*
X59460000Y-38077000D02*
X59460000Y-38377000D01*
G75*
G02*
X59310000Y-38527000I-150000J0D01*
G01*
X57660000Y-38527000D01*
G75*
G02*
X57510000Y-38377000I0J150000D01*
G01*
X57510000Y-38077000D01*
G75*
G02*
X57660000Y-37927000I150000J0D01*
G01*
X59310000Y-37927000D01*
G75*
G02*
X59460000Y-38077000I0J-150000D01*
G01*
G37*
G36*
G01*
X59460000Y-36807000D02*
X59460000Y-37107000D01*
G75*
G02*
X59310000Y-37257000I-150000J0D01*
G01*
X57660000Y-37257000D01*
G75*
G02*
X57510000Y-37107000I0J150000D01*
G01*
X57510000Y-36807000D01*
G75*
G02*
X57660000Y-36657000I150000J0D01*
G01*
X59310000Y-36657000D01*
G75*
G02*
X59460000Y-36807000I0J-150000D01*
G01*
G37*
G36*
G01*
X59460000Y-35537000D02*
X59460000Y-35837000D01*
G75*
G02*
X59310000Y-35987000I-150000J0D01*
G01*
X57660000Y-35987000D01*
G75*
G02*
X57510000Y-35837000I0J150000D01*
G01*
X57510000Y-35537000D01*
G75*
G02*
X57660000Y-35387000I150000J0D01*
G01*
X59310000Y-35387000D01*
G75*
G02*
X59460000Y-35537000I0J-150000D01*
G01*
G37*
G36*
G01*
X59460000Y-34267000D02*
X59460000Y-34567000D01*
G75*
G02*
X59310000Y-34717000I-150000J0D01*
G01*
X57660000Y-34717000D01*
G75*
G02*
X57510000Y-34567000I0J150000D01*
G01*
X57510000Y-34267000D01*
G75*
G02*
X57660000Y-34117000I150000J0D01*
G01*
X59310000Y-34117000D01*
G75*
G02*
X59460000Y-34267000I0J-150000D01*
G01*
G37*
%TD*%
M02*
