M48
; DRILL file {KiCad (5.1.10)-1} date 02/04/22 18:42:09
; FORMAT={-:-/ absolute / inch / decimal}
; #@! TF.CreationDate,2022-02-04T18:42:09-05:00
; #@! TF.GenerationSoftware,Kicad,Pcbnew,(5.1.10)-1
; #@! TF.FileFunction,Plated,1,2,PTH
FMAT,2
INCH
T1C0.0157
T2C0.0197
T3C0.0276
T4C0.0315
T5C0.0394
%
G90
G05
T1
X2.38Y-2.59
X2.44Y-2.08
X2.54Y-2.08
X2.64Y-2.08
X2.68Y-3.53
X2.69Y-1.36
X2.74Y-2.08
X2.78Y-3.53
X2.84Y-3.05
X2.88Y-3.53
X2.975Y-2.225
X2.9796Y-2.5296
X2.98Y-3.53
T2
X3.11Y-1.865
X3.11Y-1.97
T3
X1.85Y-1.34
X1.85Y-1.64
X1.9Y-1.19
X2.15Y-1.29
X2.15Y-1.59
X2.2Y-1.19
X2.28Y-2.44
X2.28Y-2.59
X2.28Y-2.75
X2.28Y-2.91
X2.55Y-1.65
X2.55Y-1.8
X2.58Y-2.44
X2.58Y-2.59
X2.58Y-2.75
X2.58Y-2.91
X2.62Y-1.2
X2.62Y-1.5
X2.7Y-2.81
X2.7Y-2.97
X2.7Y-3.13
X2.7Y-3.28
X2.85Y-1.65
X2.85Y-1.8
X2.98Y-1.5
X3.0Y-2.81
X3.0Y-2.97
X3.0Y-3.13
X3.0Y-3.28
X3.02Y-2.09
X3.02Y-2.39
X3.28Y-1.5
T4
X1.9016Y-1.97
X1.9016Y-2.21
X1.98Y-1.3
X1.98Y-1.4969
X2.0Y-1.97
X2.0Y-2.21
X2.1416Y-3.65
X2.24Y-1.95
X2.24Y-2.25
X2.24Y-3.65
X2.26Y-1.74
X2.3231Y-1.21
X2.34Y-1.95
X2.34Y-2.25
X2.34Y-3.08
X2.34Y-3.28
X2.38Y-3.42
X2.38Y-3.72
X2.44Y-1.95
X2.44Y-2.25
X2.4569Y-1.74
X2.48Y-3.42
X2.48Y-3.72
X2.52Y-1.21
X2.5369Y-3.08
X2.5369Y-3.28
X2.54Y-1.95
X2.54Y-2.25
X2.58Y-3.42
X2.58Y-3.72
X2.64Y-1.95
X2.64Y-2.25
X2.68Y-3.42
X2.68Y-3.72
X2.7031Y-2.44
X2.7031Y-2.64
X2.74Y-1.95
X2.74Y-2.25
X2.78Y-3.42
X2.78Y-3.72
X2.79Y-1.3
X2.79Y-1.4969
X2.84Y-1.95
X2.84Y-2.25
X2.88Y-3.42
X2.88Y-3.72
X2.9Y-2.44
X2.9Y-2.64
X2.93Y-1.2031
X2.93Y-1.4
X2.97Y-1.67
X2.97Y-1.77
X2.97Y-1.87
X2.97Y-1.97
X2.98Y-3.42
X2.98Y-3.72
X3.22Y-2.14
X3.22Y-2.3369
X3.27Y-1.67
X3.27Y-1.77
X3.27Y-1.87
X3.27Y-1.97
T5
X1.97Y-2.55
X1.97Y-2.65
X1.97Y-2.75
X1.97Y-2.85
X1.97Y-2.95
X1.97Y-3.05
X1.97Y-3.15
X1.97Y-3.25
X2.07Y-2.55
X2.07Y-2.65
X2.07Y-2.75
X2.07Y-2.85
X2.07Y-2.95
X2.07Y-3.05
X2.07Y-3.15
X2.07Y-3.25
X3.17Y-2.46
X3.17Y-2.56
X3.17Y-2.66
X3.17Y-2.76
X3.17Y-2.86
X3.17Y-2.96
X3.17Y-3.06
X3.17Y-3.16
X3.17Y-3.26
X3.17Y-3.36
X3.17Y-3.46
X3.17Y-3.56
X3.17Y-3.66
X3.17Y-3.76
X3.27Y-2.46
X3.27Y-2.56
X3.27Y-2.66
X3.27Y-2.76
X3.27Y-2.86
X3.27Y-2.96
X3.27Y-3.06
X3.27Y-3.16
X3.27Y-3.26
X3.27Y-3.36
X3.27Y-3.46
X3.27Y-3.56
X3.27Y-3.66
X3.27Y-3.76
T0
M30
