%TF.GenerationSoftware,KiCad,Pcbnew,(5.1.10)-1*%
%TF.CreationDate,2022-02-04T18:42:06-05:00*%
%TF.ProjectId,OutputBoard,4f757470-7574-4426-9f61-72642e6b6963,rev?*%
%TF.SameCoordinates,Original*%
%TF.FileFunction,Copper,L1,Top*%
%TF.FilePolarity,Positive*%
%FSLAX46Y46*%
G04 Gerber Fmt 4.6, Leading zero omitted, Abs format (unit mm)*
G04 Created by KiCad (PCBNEW (5.1.10)-1) date 2022-02-04 18:42:06*
%MOMM*%
%LPD*%
G01*
G04 APERTURE LIST*
%TA.AperFunction,ComponentPad*%
%ADD10O,1.600000X2.400000*%
%TD*%
%TA.AperFunction,ComponentPad*%
%ADD11R,1.600000X2.400000*%
%TD*%
%TA.AperFunction,ComponentPad*%
%ADD12R,1.600000X1.600000*%
%TD*%
%TA.AperFunction,ComponentPad*%
%ADD13C,1.600000*%
%TD*%
%TA.AperFunction,ComponentPad*%
%ADD14C,1.700000*%
%TD*%
%TA.AperFunction,ComponentPad*%
%ADD15R,1.700000X1.700000*%
%TD*%
%TA.AperFunction,ComponentPad*%
%ADD16O,1.700000X1.700000*%
%TD*%
%TA.AperFunction,ComponentPad*%
%ADD17C,1.400000*%
%TD*%
%TA.AperFunction,ComponentPad*%
%ADD18O,1.400000X1.400000*%
%TD*%
%TA.AperFunction,ComponentPad*%
%ADD19R,2.400000X1.600000*%
%TD*%
%TA.AperFunction,ComponentPad*%
%ADD20O,2.400000X1.600000*%
%TD*%
%TA.AperFunction,ViaPad*%
%ADD21C,1.500000*%
%TD*%
%TA.AperFunction,ViaPad*%
%ADD22C,0.800000*%
%TD*%
%TA.AperFunction,Conductor*%
%ADD23C,1.000000*%
%TD*%
%TA.AperFunction,Conductor*%
%ADD24C,1.500000*%
%TD*%
%TA.AperFunction,Conductor*%
%ADD25C,0.500000*%
%TD*%
%TA.AperFunction,Conductor*%
%ADD26C,0.250000*%
%TD*%
G04 APERTURE END LIST*
D10*
%TO.P,U2,14*%
%TO.N,GND*%
X72136000Y-49530000D03*
%TO.P,U2,7*%
%TO.N,LED4_1*%
X56896000Y-57150000D03*
%TO.P,U2,13*%
%TO.N,LED10_1*%
X69596000Y-49530000D03*
%TO.P,U2,6*%
%TO.N,LED3_1*%
X59436000Y-57150000D03*
%TO.P,U2,12*%
%TO.N,LED9_1*%
X67056000Y-49530000D03*
%TO.P,U2,5*%
%TO.N,LED2_1*%
X61976000Y-57150000D03*
%TO.P,U2,11*%
%TO.N,LED8_1*%
X64516000Y-49530000D03*
%TO.P,U2,4*%
%TO.N,Net-(U2-Pad4)*%
X64516000Y-57150000D03*
%TO.P,U2,10*%
%TO.N,LED7_1*%
X61976000Y-49530000D03*
%TO.P,U2,3*%
%TO.N,Net-(C4-Pad1)*%
X67056000Y-57150000D03*
%TO.P,U2,9*%
%TO.N,LED6_1*%
X59436000Y-49530000D03*
%TO.P,U2,2*%
%TO.N,LED1_1*%
X69596000Y-57150000D03*
%TO.P,U2,8*%
%TO.N,LED5_1*%
X56896000Y-49530000D03*
D11*
%TO.P,U2,1*%
%TO.N,+5V*%
X72136000Y-57150000D03*
%TD*%
D12*
%TO.P,C1,1*%
%TO.N,+5V*%
X56896000Y-92710000D03*
D13*
%TO.P,C1,2*%
%TO.N,GND*%
X54396000Y-92710000D03*
%TD*%
%TO.P,C2,2*%
%TO.N,GND*%
X48300000Y-56134000D03*
D12*
%TO.P,C2,1*%
%TO.N,+12V*%
X50800000Y-56134000D03*
%TD*%
%TO.P,C5,1*%
%TO.N,GND*%
X50800000Y-50038000D03*
D13*
%TO.P,C5,2*%
%TO.N,-12V*%
X48300000Y-50038000D03*
%TD*%
%TO.P,C6,2*%
%TO.N,GND*%
X64436000Y-83312000D03*
%TO.P,C6,1*%
%TO.N,+5V*%
X59436000Y-83312000D03*
%TD*%
%TO.P,C7,2*%
%TO.N,GND*%
X68660000Y-61976000D03*
%TO.P,C7,1*%
%TO.N,+5V*%
X73660000Y-61976000D03*
%TD*%
%TO.P,C8,1*%
%TO.N,Left_phone*%
X70866000Y-33020000D03*
%TO.P,C8,2*%
%TO.N,Net-(C8-Pad2)*%
X70866000Y-38020000D03*
%TD*%
%TO.P,C9,1*%
%TO.N,GND*%
X57404000Y-44196000D03*
%TO.P,C9,2*%
%TO.N,-12V*%
X62404000Y-44196000D03*
%TD*%
%TO.P,C10,2*%
%TO.N,+12V*%
X74422000Y-30560000D03*
%TO.P,C10,1*%
%TO.N,GND*%
X74422000Y-35560000D03*
%TD*%
%TO.P,C11,1*%
%TO.N,GND*%
X81788000Y-54356000D03*
%TO.P,C11,2*%
%TO.N,-12V*%
X81788000Y-59356000D03*
%TD*%
%TO.P,C12,2*%
%TO.N,+12V*%
X59008000Y-30734000D03*
%TO.P,C12,1*%
%TO.N,GND*%
X64008000Y-30734000D03*
%TD*%
%TO.P,C13,2*%
%TO.N,Right_phone*%
X50292000Y-38020000D03*
%TO.P,C13,1*%
%TO.N,Net-(C13-Pad1)*%
X50292000Y-33020000D03*
%TD*%
%TO.P,J1,1*%
%TO.N,-12V*%
%TA.AperFunction,ComponentPad*%
G36*
G01*
X49188000Y-83150000D02*
X49188000Y-81950000D01*
G75*
G02*
X49438000Y-81700000I250000J0D01*
G01*
X50638000Y-81700000D01*
G75*
G02*
X50888000Y-81950000I0J-250000D01*
G01*
X50888000Y-83150000D01*
G75*
G02*
X50638000Y-83400000I-250000J0D01*
G01*
X49438000Y-83400000D01*
G75*
G02*
X49188000Y-83150000I0J250000D01*
G01*
G37*
%TD.AperFunction*%
D14*
%TO.P,J1,3*%
%TO.N,GND*%
X50038000Y-80010000D03*
%TO.P,J1,5*%
X50038000Y-77470000D03*
%TO.P,J1,7*%
X50038000Y-74930000D03*
%TO.P,J1,9*%
%TO.N,+12V*%
X50038000Y-72390000D03*
%TO.P,J1,11*%
%TO.N,+5V*%
X50038000Y-69850000D03*
%TO.P,J1,13*%
%TO.N,Right*%
X50038000Y-67310000D03*
%TO.P,J1,15*%
%TO.N,Left*%
X50038000Y-64770000D03*
%TO.P,J1,2*%
%TO.N,-12V*%
X52578000Y-82550000D03*
%TO.P,J1,4*%
%TO.N,GND*%
X52578000Y-80010000D03*
%TO.P,J1,6*%
X52578000Y-77470000D03*
%TO.P,J1,8*%
X52578000Y-74930000D03*
%TO.P,J1,10*%
%TO.N,+12V*%
X52578000Y-72390000D03*
%TO.P,J1,12*%
%TO.N,+5V*%
X52578000Y-69850000D03*
%TO.P,J1,14*%
%TO.N,Right*%
X52578000Y-67310000D03*
%TO.P,J1,16*%
%TO.N,Left*%
X52578000Y-64770000D03*
%TD*%
D15*
%TO.P,J3,1*%
%TO.N,Right*%
X80518000Y-62484000D03*
D16*
%TO.P,J3,2*%
%TO.N,GND*%
X83058000Y-62484000D03*
%TO.P,J3,3*%
%TO.N,Left*%
X80518000Y-65024000D03*
%TO.P,J3,4*%
%TO.N,GND*%
X83058000Y-65024000D03*
%TO.P,J3,5*%
%TO.N,Right_phone*%
X80518000Y-67564000D03*
%TO.P,J3,6*%
%TO.N,Mono_Line*%
X83058000Y-67564000D03*
%TO.P,J3,7*%
%TO.N,Left_phone*%
X80518000Y-70104000D03*
%TO.P,J3,8*%
%TO.N,Mono_Line*%
X83058000Y-70104000D03*
%TO.P,J3,9*%
%TO.N,LED1_1*%
X80518000Y-72644000D03*
%TO.P,J3,10*%
%TO.N,LED1_2*%
X83058000Y-72644000D03*
%TO.P,J3,11*%
%TO.N,LED2_1*%
X80518000Y-75184000D03*
%TO.P,J3,12*%
%TO.N,LED2_2*%
X83058000Y-75184000D03*
%TO.P,J3,13*%
%TO.N,LED3_1*%
X80518000Y-77724000D03*
%TO.P,J3,14*%
%TO.N,LED3_2*%
X83058000Y-77724000D03*
%TO.P,J3,15*%
%TO.N,LED4_1*%
X80518000Y-80264000D03*
%TO.P,J3,16*%
%TO.N,LED4_2*%
X83058000Y-80264000D03*
%TO.P,J3,17*%
%TO.N,LED5_1*%
X80518000Y-82804000D03*
%TO.P,J3,18*%
%TO.N,LED5_2*%
X83058000Y-82804000D03*
%TO.P,J3,19*%
%TO.N,LED6_1*%
X80518000Y-85344000D03*
%TO.P,J3,20*%
%TO.N,LED6_2*%
X83058000Y-85344000D03*
%TO.P,J3,21*%
%TO.N,LED7_1*%
X80518000Y-87884000D03*
%TO.P,J3,22*%
%TO.N,LED7_2*%
X83058000Y-87884000D03*
%TO.P,J3,23*%
%TO.N,LED8_1*%
X80518000Y-90424000D03*
%TO.P,J3,24*%
%TO.N,LED8_2*%
X83058000Y-90424000D03*
%TO.P,J3,25*%
%TO.N,LED9_1*%
X80518000Y-92964000D03*
%TO.P,J3,26*%
%TO.N,LED9_2*%
X83058000Y-92964000D03*
%TO.P,J3,27*%
%TO.N,LED10_1*%
X80518000Y-95504000D03*
%TO.P,J3,28*%
%TO.N,LED10_2*%
X83058000Y-95504000D03*
%TD*%
D17*
%TO.P,R1,1*%
%TO.N,Right*%
X76200000Y-79502000D03*
D18*
%TO.P,R1,2*%
%TO.N,Net-(C3-Pad2)*%
X68580000Y-79502000D03*
%TD*%
%TO.P,R2,2*%
%TO.N,GND*%
X76200000Y-83312000D03*
D17*
%TO.P,R2,1*%
%TO.N,Net-(C3-Pad2)*%
X68580000Y-83312000D03*
%TD*%
%TO.P,R3,1*%
%TO.N,Left*%
X65532000Y-65786000D03*
D18*
%TO.P,R3,2*%
%TO.N,Net-(C4-Pad2)*%
X57912000Y-65786000D03*
%TD*%
%TO.P,R4,2*%
%TO.N,GND*%
X57912000Y-61976000D03*
D17*
%TO.P,R4,1*%
%TO.N,Net-(C4-Pad2)*%
X65532000Y-61976000D03*
%TD*%
%TO.P,R5,1*%
%TO.N,+5V*%
X57912000Y-73914000D03*
D18*
%TO.P,R5,2*%
%TO.N,Net-(C3-Pad1)*%
X65532000Y-73914000D03*
%TD*%
%TO.P,R6,2*%
%TO.N,GND*%
X57912000Y-69850000D03*
D17*
%TO.P,R6,1*%
%TO.N,Net-(C3-Pad1)*%
X65532000Y-69850000D03*
%TD*%
D18*
%TO.P,R7,2*%
%TO.N,Net-(C4-Pad1)*%
X68580000Y-71374000D03*
D17*
%TO.P,R7,1*%
%TO.N,+5V*%
X76200000Y-71374000D03*
%TD*%
%TO.P,R8,1*%
%TO.N,Net-(C4-Pad1)*%
X68580000Y-75438000D03*
D18*
%TO.P,R8,2*%
%TO.N,GND*%
X76200000Y-75438000D03*
%TD*%
%TO.P,R9,2*%
%TO.N,Left*%
X64770000Y-41910000D03*
D17*
%TO.P,R9,1*%
%TO.N,Net-(C8-Pad2)*%
X72390000Y-41910000D03*
%TD*%
%TO.P,R10,1*%
%TO.N,Net-(C8-Pad2)*%
X66548000Y-38100000D03*
D18*
%TO.P,R10,2*%
%TO.N,Left_phone*%
X66548000Y-30480000D03*
%TD*%
D17*
%TO.P,R11,1*%
%TO.N,Net-(R11-Pad1)*%
X64770000Y-45720000D03*
D18*
%TO.P,R11,2*%
%TO.N,Left_phone*%
X72390000Y-45720000D03*
%TD*%
%TO.P,R12,2*%
%TO.N,Right_phone*%
X46990000Y-41656000D03*
D17*
%TO.P,R12,1*%
%TO.N,Net-(R11-Pad1)*%
X46990000Y-34036000D03*
%TD*%
D18*
%TO.P,R13,2*%
%TO.N,Net-(R11-Pad1)*%
X75692000Y-38100000D03*
D17*
%TO.P,R13,1*%
%TO.N,Net-(R13-Pad1)*%
X83312000Y-38100000D03*
%TD*%
%TO.P,R14,1*%
%TO.N,Mono_Line*%
X76708000Y-60706000D03*
D18*
%TO.P,R14,2*%
%TO.N,Net-(R13-Pad1)*%
X76708000Y-53086000D03*
%TD*%
%TO.P,R15,2*%
%TO.N,Net-(C13-Pad1)*%
X54610000Y-32766000D03*
D17*
%TO.P,R15,1*%
%TO.N,Right_phone*%
X54610000Y-40386000D03*
%TD*%
%TO.P,R16,1*%
%TO.N,Net-(C13-Pad1)*%
X55880000Y-30226000D03*
D18*
%TO.P,R16,2*%
%TO.N,Right*%
X48260000Y-30226000D03*
%TD*%
D11*
%TO.P,U1,1*%
%TO.N,+5V*%
X60452000Y-86868000D03*
D10*
%TO.P,U1,8*%
%TO.N,LED5_2*%
X75692000Y-94488000D03*
%TO.P,U1,2*%
%TO.N,LED1_2*%
X62992000Y-86868000D03*
%TO.P,U1,9*%
%TO.N,LED6_2*%
X73152000Y-94488000D03*
%TO.P,U1,3*%
%TO.N,Net-(C3-Pad1)*%
X65532000Y-86868000D03*
%TO.P,U1,10*%
%TO.N,LED7_2*%
X70612000Y-94488000D03*
%TO.P,U1,4*%
%TO.N,Net-(U1-Pad4)*%
X68072000Y-86868000D03*
%TO.P,U1,11*%
%TO.N,LED8_2*%
X68072000Y-94488000D03*
%TO.P,U1,5*%
%TO.N,LED2_2*%
X70612000Y-86868000D03*
%TO.P,U1,12*%
%TO.N,LED9_2*%
X65532000Y-94488000D03*
%TO.P,U1,6*%
%TO.N,LED3_2*%
X73152000Y-86868000D03*
%TO.P,U1,13*%
%TO.N,LED10_2*%
X62992000Y-94488000D03*
%TO.P,U1,7*%
%TO.N,LED4_2*%
X75692000Y-86868000D03*
%TO.P,U1,14*%
%TO.N,GND*%
X60452000Y-94488000D03*
%TD*%
D19*
%TO.P,U3,1*%
%TO.N,Net-(U3-Pad1)*%
X83058000Y-42418000D03*
D20*
%TO.P,U3,5*%
%TO.N,Net-(U3-Pad5)*%
X75438000Y-50038000D03*
%TO.P,U3,2*%
%TO.N,Net-(R11-Pad1)*%
X83058000Y-44958000D03*
%TO.P,U3,6*%
%TO.N,Net-(R13-Pad1)*%
X75438000Y-47498000D03*
%TO.P,U3,3*%
%TO.N,GND*%
X83058000Y-47498000D03*
%TO.P,U3,7*%
%TO.N,+12V*%
X75438000Y-44958000D03*
%TO.P,U3,4*%
%TO.N,-12V*%
X83058000Y-50038000D03*
%TO.P,U3,8*%
%TO.N,Net-(U3-Pad8)*%
X75438000Y-42418000D03*
%TD*%
D13*
%TO.P,C3,2*%
%TO.N,Net-(C3-Pad2)*%
X64436000Y-78232000D03*
%TO.P,C3,1*%
%TO.N,Net-(C3-Pad1)*%
X59436000Y-78232000D03*
%TD*%
%TO.P,C4,1*%
%TO.N,Net-(C4-Pad1)*%
X73660000Y-67056000D03*
%TO.P,C4,2*%
%TO.N,Net-(C4-Pad2)*%
X68660000Y-67056000D03*
%TD*%
D21*
%TO.N,GND*%
X78994000Y-50038000D03*
X78994000Y-47371000D03*
D22*
%TO.N,Left_phone*%
X75682999Y-64252999D03*
%TO.N,Net-(C8-Pad2)*%
X68326000Y-34544000D03*
%TO.N,Right_phone*%
X75565000Y-56515000D03*
%TO.N,Right*%
X72136000Y-77470000D03*
%TO.N,Left*%
X60452000Y-65786000D03*
%TO.N,LED5_2*%
X75692000Y-89662000D03*
%TO.N,LED6_2*%
X73152000Y-89662000D03*
%TO.N,LED7_1*%
X61976000Y-52832000D03*
%TO.N,LED7_2*%
X70612000Y-89662000D03*
%TO.N,LED8_1*%
X64516000Y-52832000D03*
%TO.N,LED8_2*%
X68072000Y-89662000D03*
%TO.N,LED9_1*%
X67056000Y-52832000D03*
%TO.N,LED10_1*%
X69596000Y-52832000D03*
%TD*%
D23*
%TO.N,+5V*%
X56274676Y-55249990D02*
X54128001Y-57396665D01*
X54128001Y-57396665D02*
X54128001Y-68299999D01*
X70235990Y-55249990D02*
X56274676Y-55249990D01*
X54128001Y-68299999D02*
X52578000Y-69850000D01*
X72136000Y-57150000D02*
X70235990Y-55249990D01*
D24*
%TO.N,GND*%
X52832000Y-74930000D02*
X57912000Y-69850000D01*
X52578000Y-74930000D02*
X52832000Y-74930000D01*
X56261999Y-63626001D02*
X57912000Y-61976000D01*
X56261999Y-68199999D02*
X56261999Y-63626001D01*
X57912000Y-69850000D02*
X56261999Y-68199999D01*
X67009999Y-60325999D02*
X68660000Y-61976000D01*
X59562001Y-60325999D02*
X67009999Y-60325999D01*
X57912000Y-61976000D02*
X59562001Y-60325999D01*
X48300000Y-52538000D02*
X50800000Y-50038000D01*
X48300000Y-56134000D02*
X48300000Y-52538000D01*
X57404000Y-37338000D02*
X64008000Y-30734000D01*
X57404000Y-44196000D02*
X57404000Y-37338000D01*
X71020002Y-61976000D02*
X73914000Y-59082002D01*
X68660000Y-61976000D02*
X71020002Y-61976000D01*
X72136000Y-53594000D02*
X72136000Y-49530000D01*
X73914000Y-55372000D02*
X72136000Y-53594000D01*
X73960999Y-58627001D02*
X73914000Y-58674000D01*
X73914000Y-59082002D02*
X73914000Y-58674000D01*
X73960999Y-57865001D02*
X73914000Y-57912000D01*
X78278999Y-57865001D02*
X73960999Y-57865001D01*
X81788000Y-54356000D02*
X78278999Y-57865001D01*
X73914000Y-57912000D02*
X73914000Y-55372000D01*
X73914000Y-58674000D02*
X73914000Y-57912000D01*
X72169998Y-75438000D02*
X76149991Y-75438000D01*
X70785999Y-76821999D02*
X72169998Y-75438000D01*
X70785999Y-78887948D02*
X70785999Y-76821999D01*
X76200000Y-83312000D02*
X75210051Y-83312000D01*
X69468001Y-81661999D02*
X71514025Y-79615975D01*
X66086001Y-81661999D02*
X69468001Y-81661999D01*
X64436000Y-83312000D02*
X66086001Y-81661999D01*
X71514025Y-79615975D02*
X70785999Y-78887948D01*
X75210051Y-83312000D02*
X71514025Y-79615975D01*
X64436000Y-83312000D02*
X61134000Y-80010000D01*
X54396000Y-93841370D02*
X54396000Y-92710000D01*
X55042630Y-94488000D02*
X54396000Y-93841370D01*
X60452000Y-94488000D02*
X55042630Y-94488000D01*
X54396000Y-92710000D02*
X54396000Y-80224000D01*
X54610000Y-80010000D02*
X52578000Y-80010000D01*
X54396000Y-80224000D02*
X54610000Y-80010000D01*
X61134000Y-80010000D02*
X54610000Y-80010000D01*
X81788000Y-54356000D02*
X79248000Y-51816000D01*
X79248000Y-50292000D02*
X78994000Y-50038000D01*
X79248000Y-51816000D02*
X79248000Y-50292000D01*
X82931000Y-47371000D02*
X83058000Y-47498000D01*
X78994000Y-47371000D02*
X82931000Y-47371000D01*
D23*
%TO.N,+12V*%
X60662001Y-29079999D02*
X59008000Y-30734000D01*
X72941999Y-29079999D02*
X60662001Y-29079999D01*
X74422000Y-30560000D02*
X72941999Y-29079999D01*
X74799999Y-44319999D02*
X75438000Y-44958000D01*
X72727997Y-44319999D02*
X74799999Y-44319999D01*
X70989999Y-41237999D02*
X70989999Y-42582001D01*
X70989999Y-42582001D02*
X72727997Y-44319999D01*
X72921999Y-39305999D02*
X70989999Y-41237999D01*
X72921999Y-32060001D02*
X72921999Y-39305999D01*
X74422000Y-30560000D02*
X72921999Y-32060001D01*
D25*
%TO.N,Net-(C3-Pad1)*%
X65532000Y-69850000D02*
X65532000Y-73914000D01*
X61214000Y-78232000D02*
X65532000Y-73914000D01*
X59436000Y-78232000D02*
X61214000Y-78232000D01*
%TO.N,Net-(C4-Pad1)*%
X72898000Y-67056000D02*
X73660000Y-67056000D01*
X68580000Y-71374000D02*
X72898000Y-67056000D01*
X68580000Y-75438000D02*
X68580000Y-71374000D01*
%TO.N,Net-(C4-Pad2)*%
X61722000Y-61976000D02*
X57912000Y-65786000D01*
X65532000Y-61976000D02*
X61722000Y-61976000D01*
D23*
%TO.N,-12V*%
X50038000Y-82550000D02*
X46228000Y-78740000D01*
X46228000Y-52110000D02*
X48300000Y-50038000D01*
X46228000Y-78740000D02*
X46228000Y-52110000D01*
X83738011Y-50718011D02*
X83058000Y-50038000D01*
X83738011Y-57405989D02*
X83738011Y-50718011D01*
X81788000Y-59356000D02*
X83738011Y-57405989D01*
D26*
%TO.N,Left_phone*%
X72390000Y-45720000D02*
X73912990Y-47242990D01*
X73912990Y-47963994D02*
X74572006Y-48623010D01*
X73912990Y-47242990D02*
X73912990Y-47963994D01*
X74572006Y-48623010D02*
X76014014Y-48623010D01*
X75682999Y-64252999D02*
X75682999Y-64252999D01*
D25*
X69615999Y-34270001D02*
X70866000Y-33020000D01*
X69615999Y-42945999D02*
X69615999Y-34270001D01*
X72390000Y-45720000D02*
X69615999Y-42945999D01*
D26*
X82913001Y-53815999D02*
X82913001Y-55516999D01*
X76014014Y-48623010D02*
X77720012Y-48623010D01*
X82913001Y-55516999D02*
X79756000Y-58674000D01*
X76215999Y-59680999D02*
X75682999Y-60213999D01*
X75682999Y-60213999D02*
X75682999Y-64252999D01*
X78749001Y-59680999D02*
X76215999Y-59680999D01*
X79756000Y-58674000D02*
X78749001Y-59680999D01*
X77720012Y-48623010D02*
X79652006Y-48623010D01*
X82913001Y-51884005D02*
X82913001Y-53815999D01*
X79652006Y-48623010D02*
X82913001Y-51884005D01*
D25*
%TO.N,Net-(C8-Pad2)*%
X68326000Y-36322000D02*
X66548000Y-38100000D01*
X68326000Y-34544000D02*
X68326000Y-36322000D01*
%TO.N,Right_phone*%
X52244000Y-38020000D02*
X54610000Y-40386000D01*
X50292000Y-38020000D02*
X52244000Y-38020000D01*
D26*
X54610000Y-44196000D02*
X54610000Y-40386000D01*
X57658000Y-47244000D02*
X54610000Y-44196000D01*
X72390000Y-47244000D02*
X57658000Y-47244000D01*
X73660000Y-48514000D02*
X72390000Y-47244000D01*
X75565000Y-55499000D02*
X73660000Y-53594000D01*
X73660000Y-53594000D02*
X73660000Y-48514000D01*
X75565000Y-56515000D02*
X75565000Y-55499000D01*
D25*
%TO.N,Right*%
X52578000Y-67310000D02*
X50038000Y-67310000D01*
X48737999Y-66009999D02*
X50038000Y-67310000D01*
X48737999Y-60990001D02*
X48737999Y-66009999D01*
X52050001Y-57677999D02*
X48737999Y-60990001D01*
X45839999Y-37203999D02*
X52050001Y-43414001D01*
X45839999Y-32646001D02*
X45839999Y-37203999D01*
X52050001Y-43414001D02*
X52050001Y-57677999D01*
X48260000Y-30226000D02*
X45839999Y-32646001D01*
D26*
X81082001Y-71279001D02*
X81882999Y-70478003D01*
X80104999Y-71279001D02*
X81082001Y-71279001D01*
X81882999Y-70478003D02*
X81882999Y-64167001D01*
X77225001Y-74158999D02*
X80104999Y-71279001D01*
X77225001Y-78476999D02*
X77225001Y-74158999D01*
X76200000Y-79502000D02*
X77225001Y-78476999D01*
X80518000Y-62802002D02*
X80518000Y-62484000D01*
X81882999Y-64167001D02*
X80518000Y-62802002D01*
X76200000Y-79502000D02*
X74168000Y-79502000D01*
X72263000Y-77597000D02*
X72136000Y-77470000D01*
X74168000Y-79502000D02*
X72263000Y-77597000D01*
X72136000Y-77470000D02*
X72136000Y-77470000D01*
D25*
%TO.N,Left*%
X50038000Y-64770000D02*
X52578000Y-64770000D01*
X52324000Y-64516000D02*
X52578000Y-64770000D01*
D26*
X79756000Y-65786000D02*
X80518000Y-65024000D01*
X65532000Y-65786000D02*
X79756000Y-65786000D01*
X60452000Y-65786000D02*
X65532000Y-65786000D01*
%TO.N,Mono_Line*%
X82794003Y-60481001D02*
X78515001Y-60481001D01*
X84233001Y-61919999D02*
X82794003Y-60481001D01*
X84233001Y-66388999D02*
X84233001Y-61919999D01*
X83058000Y-67564000D02*
X84233001Y-66388999D01*
X78290002Y-60706000D02*
X76708000Y-60706000D01*
X78515001Y-60481001D02*
X78290002Y-60706000D01*
X83058000Y-70104000D02*
X83058000Y-67564000D01*
%TO.N,LED1_2*%
X65417030Y-84442970D02*
X77096190Y-84442970D01*
X62992000Y-86868000D02*
X65417030Y-84442970D01*
X81882999Y-73819001D02*
X83058000Y-72644000D01*
X80143997Y-73819001D02*
X81882999Y-73819001D01*
X77781990Y-76181008D02*
X80143997Y-73819001D01*
X77781990Y-83757170D02*
X77781990Y-76181008D01*
X77096190Y-84442970D02*
X77781990Y-83757170D01*
%TO.N,LED2_2*%
X70612000Y-86868000D02*
X72587020Y-84892980D01*
X72587020Y-84892980D02*
X77282590Y-84892980D01*
X77282590Y-84892980D02*
X78232000Y-83943570D01*
X81882999Y-76359001D02*
X83058000Y-75184000D01*
X80143997Y-76359001D02*
X81882999Y-76359001D01*
X78232000Y-78270998D02*
X80143997Y-76359001D01*
X78232000Y-83943570D02*
X78232000Y-78270998D01*
%TO.N,LED3_2*%
X74677010Y-85342990D02*
X77468990Y-85342990D01*
X73152000Y-86868000D02*
X74677010Y-85342990D01*
X77468990Y-85342990D02*
X78737980Y-84074000D01*
X81882999Y-78899001D02*
X83058000Y-77724000D01*
X80143997Y-78899001D02*
X81882999Y-78899001D01*
X78737980Y-80305018D02*
X80143997Y-78899001D01*
X78737980Y-84074000D02*
X78737980Y-80305018D01*
%TO.N,LED4_2*%
X75692000Y-86868000D02*
X76618588Y-86868000D01*
X76618588Y-86868000D02*
X79248000Y-84238588D01*
X81788000Y-81534000D02*
X83058000Y-80264000D01*
X80048998Y-81534000D02*
X81788000Y-81534000D01*
X79248000Y-82334998D02*
X80048998Y-81534000D01*
X79248000Y-84238588D02*
X79248000Y-82334998D01*
%TO.N,LED5_2*%
X76817010Y-87305988D02*
X76817010Y-88536990D01*
X79953999Y-84168999D02*
X76817010Y-87305988D01*
X81693001Y-84168999D02*
X79953999Y-84168999D01*
X83058000Y-82804000D02*
X81693001Y-84168999D01*
X76817010Y-88536990D02*
X75692000Y-89662000D01*
X75692000Y-89662000D02*
X75692000Y-89662000D01*
%TO.N,LED6_2*%
X79953999Y-86708999D02*
X76454000Y-90208998D01*
X81693001Y-86708999D02*
X79953999Y-86708999D01*
X83058000Y-85344000D02*
X81693001Y-86708999D01*
X76454000Y-90208998D02*
X76415002Y-90208998D01*
X76415002Y-90208998D02*
X75692000Y-90932000D01*
X75692000Y-90932000D02*
X74422000Y-90932000D01*
X74422000Y-90932000D02*
X73152000Y-89662000D01*
X73152000Y-89662000D02*
X73152000Y-89662000D01*
%TO.N,LED7_1*%
X61976000Y-52832000D02*
X61976000Y-49530000D01*
%TO.N,LED7_2*%
X75878400Y-91382010D02*
X72332010Y-91382010D01*
X76113408Y-91186000D02*
X76074410Y-91186000D01*
X78050409Y-89248999D02*
X76113408Y-91186000D01*
X81693001Y-89248999D02*
X78050409Y-89248999D01*
X76074410Y-91186000D02*
X75878400Y-91382010D01*
X83058000Y-87884000D02*
X81693001Y-89248999D01*
X72332010Y-91382010D02*
X70612000Y-89662000D01*
X70612000Y-89662000D02*
X70612000Y-89662000D01*
%TO.N,LED8_1*%
X64516000Y-49530000D02*
X64516000Y-51816000D01*
X64516000Y-51816000D02*
X64516000Y-52832000D01*
%TO.N,LED8_2*%
X83058000Y-90424000D02*
X81693001Y-91788999D01*
X76064800Y-91832020D02*
X70242020Y-91832020D01*
X76107821Y-91788999D02*
X76064800Y-91832020D01*
X81693001Y-91788999D02*
X76107821Y-91788999D01*
X70242020Y-91832020D02*
X68072000Y-89662000D01*
X68072000Y-89662000D02*
X68072000Y-89662000D01*
%TO.N,LED9_1*%
X67056000Y-49530000D02*
X67056000Y-51816000D01*
X67056000Y-51816000D02*
X67056000Y-52832000D01*
%TO.N,LED9_2*%
X67057010Y-96013010D02*
X65532000Y-94488000D01*
X76706990Y-96013010D02*
X67057010Y-96013010D01*
X78580999Y-94139001D02*
X76706990Y-96013010D01*
X81882999Y-94139001D02*
X78580999Y-94139001D01*
X83058000Y-92964000D02*
X81882999Y-94139001D01*
%TO.N,LED10_1*%
X69596000Y-49530000D02*
X69596000Y-51816000D01*
X69596000Y-51816000D02*
X69596000Y-52832000D01*
%TO.N,LED10_2*%
X65183001Y-96679001D02*
X81882999Y-96679001D01*
X81882999Y-96679001D02*
X83058000Y-95504000D01*
X62992000Y-94488000D02*
X65183001Y-96679001D01*
D25*
%TO.N,Net-(R11-Pad1)*%
X83058000Y-44958000D02*
X80772000Y-44958000D01*
X80772000Y-44958000D02*
X78994000Y-43180000D01*
X78994000Y-41402000D02*
X75692000Y-38100000D01*
X78994000Y-43180000D02*
X78994000Y-41402000D01*
X57077998Y-45720000D02*
X56134000Y-44776002D01*
X64770000Y-45720000D02*
X57077998Y-45720000D01*
X52696001Y-36769999D02*
X48066001Y-36769999D01*
X56134000Y-40207998D02*
X52696001Y-36769999D01*
X56134000Y-44776002D02*
X56134000Y-40207998D01*
X46990000Y-35693998D02*
X46990000Y-34036000D01*
X48066001Y-36769999D02*
X46990000Y-35693998D01*
D26*
%TO.N,Net-(R13-Pad1)*%
X84583010Y-45423994D02*
X84583010Y-39371010D01*
X83923994Y-46083010D02*
X84583010Y-45423994D01*
X76852990Y-46083010D02*
X83923994Y-46083010D01*
X84583010Y-39371010D02*
X83312000Y-38100000D01*
X75438000Y-47498000D02*
X76852990Y-46083010D01*
%TD*%
M02*
