%TF.GenerationSoftware,KiCad,Pcbnew,(5.1.10)-1*%
%TF.CreationDate,2022-02-04T18:42:06-05:00*%
%TF.ProjectId,OutputBoard,4f757470-7574-4426-9f61-72642e6b6963,rev?*%
%TF.SameCoordinates,Original*%
%TF.FileFunction,Copper,L2,Bot*%
%TF.FilePolarity,Positive*%
%FSLAX46Y46*%
G04 Gerber Fmt 4.6, Leading zero omitted, Abs format (unit mm)*
G04 Created by KiCad (PCBNEW (5.1.10)-1) date 2022-02-04 18:42:06*
%MOMM*%
%LPD*%
G01*
G04 APERTURE LIST*
%TA.AperFunction,ComponentPad*%
%ADD10O,1.600000X2.400000*%
%TD*%
%TA.AperFunction,ComponentPad*%
%ADD11R,1.600000X2.400000*%
%TD*%
%TA.AperFunction,ComponentPad*%
%ADD12R,1.600000X1.600000*%
%TD*%
%TA.AperFunction,ComponentPad*%
%ADD13C,1.600000*%
%TD*%
%TA.AperFunction,ComponentPad*%
%ADD14C,1.700000*%
%TD*%
%TA.AperFunction,ComponentPad*%
%ADD15R,1.700000X1.700000*%
%TD*%
%TA.AperFunction,ComponentPad*%
%ADD16O,1.700000X1.700000*%
%TD*%
%TA.AperFunction,ComponentPad*%
%ADD17C,1.400000*%
%TD*%
%TA.AperFunction,ComponentPad*%
%ADD18O,1.400000X1.400000*%
%TD*%
%TA.AperFunction,ComponentPad*%
%ADD19R,2.400000X1.600000*%
%TD*%
%TA.AperFunction,ComponentPad*%
%ADD20O,2.400000X1.600000*%
%TD*%
%TA.AperFunction,ViaPad*%
%ADD21C,1.500000*%
%TD*%
%TA.AperFunction,ViaPad*%
%ADD22C,0.800000*%
%TD*%
%TA.AperFunction,Conductor*%
%ADD23C,1.000000*%
%TD*%
%TA.AperFunction,Conductor*%
%ADD24C,1.500000*%
%TD*%
%TA.AperFunction,Conductor*%
%ADD25C,0.500000*%
%TD*%
%TA.AperFunction,Conductor*%
%ADD26C,0.250000*%
%TD*%
G04 APERTURE END LIST*
D10*
%TO.P,U2,14*%
%TO.N,GND*%
X72136000Y-49530000D03*
%TO.P,U2,7*%
%TO.N,LED4_1*%
X56896000Y-57150000D03*
%TO.P,U2,13*%
%TO.N,LED10_1*%
X69596000Y-49530000D03*
%TO.P,U2,6*%
%TO.N,LED3_1*%
X59436000Y-57150000D03*
%TO.P,U2,12*%
%TO.N,LED9_1*%
X67056000Y-49530000D03*
%TO.P,U2,5*%
%TO.N,LED2_1*%
X61976000Y-57150000D03*
%TO.P,U2,11*%
%TO.N,LED8_1*%
X64516000Y-49530000D03*
%TO.P,U2,4*%
%TO.N,Net-(U2-Pad4)*%
X64516000Y-57150000D03*
%TO.P,U2,10*%
%TO.N,LED7_1*%
X61976000Y-49530000D03*
%TO.P,U2,3*%
%TO.N,Net-(C4-Pad1)*%
X67056000Y-57150000D03*
%TO.P,U2,9*%
%TO.N,LED6_1*%
X59436000Y-49530000D03*
%TO.P,U2,2*%
%TO.N,LED1_1*%
X69596000Y-57150000D03*
%TO.P,U2,8*%
%TO.N,LED5_1*%
X56896000Y-49530000D03*
D11*
%TO.P,U2,1*%
%TO.N,+5V*%
X72136000Y-57150000D03*
%TD*%
%TO.P,IC1,1*%
%TO.N,Left_phone*%
%TA.AperFunction,SMDPad,CuDef*%
G36*
G01*
X64410000Y-34267000D02*
X64410000Y-34567000D01*
G75*
G02*
X64260000Y-34717000I-150000J0D01*
G01*
X62610000Y-34717000D01*
G75*
G02*
X62460000Y-34567000I0J150000D01*
G01*
X62460000Y-34267000D01*
G75*
G02*
X62610000Y-34117000I150000J0D01*
G01*
X64260000Y-34117000D01*
G75*
G02*
X64410000Y-34267000I0J-150000D01*
G01*
G37*
%TD.AperFunction*%
%TO.P,IC1,2*%
%TO.N,Net-(C8-Pad2)*%
%TA.AperFunction,SMDPad,CuDef*%
G36*
G01*
X64410000Y-35537000D02*
X64410000Y-35837000D01*
G75*
G02*
X64260000Y-35987000I-150000J0D01*
G01*
X62610000Y-35987000D01*
G75*
G02*
X62460000Y-35837000I0J150000D01*
G01*
X62460000Y-35537000D01*
G75*
G02*
X62610000Y-35387000I150000J0D01*
G01*
X64260000Y-35387000D01*
G75*
G02*
X64410000Y-35537000I0J-150000D01*
G01*
G37*
%TD.AperFunction*%
%TO.P,IC1,3*%
%TO.N,GND*%
%TA.AperFunction,SMDPad,CuDef*%
G36*
G01*
X64410000Y-36807000D02*
X64410000Y-37107000D01*
G75*
G02*
X64260000Y-37257000I-150000J0D01*
G01*
X62610000Y-37257000D01*
G75*
G02*
X62460000Y-37107000I0J150000D01*
G01*
X62460000Y-36807000D01*
G75*
G02*
X62610000Y-36657000I150000J0D01*
G01*
X64260000Y-36657000D01*
G75*
G02*
X64410000Y-36807000I0J-150000D01*
G01*
G37*
%TD.AperFunction*%
%TO.P,IC1,4*%
%TO.N,-12V*%
%TA.AperFunction,SMDPad,CuDef*%
G36*
G01*
X64410000Y-38077000D02*
X64410000Y-38377000D01*
G75*
G02*
X64260000Y-38527000I-150000J0D01*
G01*
X62610000Y-38527000D01*
G75*
G02*
X62460000Y-38377000I0J150000D01*
G01*
X62460000Y-38077000D01*
G75*
G02*
X62610000Y-37927000I150000J0D01*
G01*
X64260000Y-37927000D01*
G75*
G02*
X64410000Y-38077000I0J-150000D01*
G01*
G37*
%TD.AperFunction*%
%TO.P,IC1,5*%
%TO.N,GND*%
%TA.AperFunction,SMDPad,CuDef*%
G36*
G01*
X59460000Y-38077000D02*
X59460000Y-38377000D01*
G75*
G02*
X59310000Y-38527000I-150000J0D01*
G01*
X57660000Y-38527000D01*
G75*
G02*
X57510000Y-38377000I0J150000D01*
G01*
X57510000Y-38077000D01*
G75*
G02*
X57660000Y-37927000I150000J0D01*
G01*
X59310000Y-37927000D01*
G75*
G02*
X59460000Y-38077000I0J-150000D01*
G01*
G37*
%TD.AperFunction*%
%TO.P,IC1,6*%
%TO.N,Net-(C13-Pad1)*%
%TA.AperFunction,SMDPad,CuDef*%
G36*
G01*
X59460000Y-36807000D02*
X59460000Y-37107000D01*
G75*
G02*
X59310000Y-37257000I-150000J0D01*
G01*
X57660000Y-37257000D01*
G75*
G02*
X57510000Y-37107000I0J150000D01*
G01*
X57510000Y-36807000D01*
G75*
G02*
X57660000Y-36657000I150000J0D01*
G01*
X59310000Y-36657000D01*
G75*
G02*
X59460000Y-36807000I0J-150000D01*
G01*
G37*
%TD.AperFunction*%
%TO.P,IC1,7*%
%TO.N,Right_phone*%
%TA.AperFunction,SMDPad,CuDef*%
G36*
G01*
X59460000Y-35537000D02*
X59460000Y-35837000D01*
G75*
G02*
X59310000Y-35987000I-150000J0D01*
G01*
X57660000Y-35987000D01*
G75*
G02*
X57510000Y-35837000I0J150000D01*
G01*
X57510000Y-35537000D01*
G75*
G02*
X57660000Y-35387000I150000J0D01*
G01*
X59310000Y-35387000D01*
G75*
G02*
X59460000Y-35537000I0J-150000D01*
G01*
G37*
%TD.AperFunction*%
%TO.P,IC1,8*%
%TO.N,+12V*%
%TA.AperFunction,SMDPad,CuDef*%
G36*
G01*
X59460000Y-34267000D02*
X59460000Y-34567000D01*
G75*
G02*
X59310000Y-34717000I-150000J0D01*
G01*
X57660000Y-34717000D01*
G75*
G02*
X57510000Y-34567000I0J150000D01*
G01*
X57510000Y-34267000D01*
G75*
G02*
X57660000Y-34117000I150000J0D01*
G01*
X59310000Y-34117000D01*
G75*
G02*
X59460000Y-34267000I0J-150000D01*
G01*
G37*
%TD.AperFunction*%
%TD*%
D12*
%TO.P,C1,1*%
%TO.N,+5V*%
X56896000Y-92710000D03*
D13*
%TO.P,C1,2*%
%TO.N,GND*%
X54396000Y-92710000D03*
%TD*%
%TO.P,C2,2*%
%TO.N,GND*%
X48300000Y-56134000D03*
D12*
%TO.P,C2,1*%
%TO.N,+12V*%
X50800000Y-56134000D03*
%TD*%
%TO.P,C5,1*%
%TO.N,GND*%
X50800000Y-50038000D03*
D13*
%TO.P,C5,2*%
%TO.N,-12V*%
X48300000Y-50038000D03*
%TD*%
%TO.P,C6,2*%
%TO.N,GND*%
X64436000Y-83312000D03*
%TO.P,C6,1*%
%TO.N,+5V*%
X59436000Y-83312000D03*
%TD*%
%TO.P,C7,2*%
%TO.N,GND*%
X68660000Y-61976000D03*
%TO.P,C7,1*%
%TO.N,+5V*%
X73660000Y-61976000D03*
%TD*%
%TO.P,C8,1*%
%TO.N,Left_phone*%
X70866000Y-33020000D03*
%TO.P,C8,2*%
%TO.N,Net-(C8-Pad2)*%
X70866000Y-38020000D03*
%TD*%
%TO.P,C9,1*%
%TO.N,GND*%
X57404000Y-44196000D03*
%TO.P,C9,2*%
%TO.N,-12V*%
X62404000Y-44196000D03*
%TD*%
%TO.P,C10,2*%
%TO.N,+12V*%
X74422000Y-30560000D03*
%TO.P,C10,1*%
%TO.N,GND*%
X74422000Y-35560000D03*
%TD*%
%TO.P,C11,1*%
%TO.N,GND*%
X81788000Y-54356000D03*
%TO.P,C11,2*%
%TO.N,-12V*%
X81788000Y-59356000D03*
%TD*%
%TO.P,C12,2*%
%TO.N,+12V*%
X59008000Y-30734000D03*
%TO.P,C12,1*%
%TO.N,GND*%
X64008000Y-30734000D03*
%TD*%
%TO.P,C13,2*%
%TO.N,Right_phone*%
X50292000Y-38020000D03*
%TO.P,C13,1*%
%TO.N,Net-(C13-Pad1)*%
X50292000Y-33020000D03*
%TD*%
%TO.P,J1,1*%
%TO.N,-12V*%
%TA.AperFunction,ComponentPad*%
G36*
G01*
X49188000Y-83150000D02*
X49188000Y-81950000D01*
G75*
G02*
X49438000Y-81700000I250000J0D01*
G01*
X50638000Y-81700000D01*
G75*
G02*
X50888000Y-81950000I0J-250000D01*
G01*
X50888000Y-83150000D01*
G75*
G02*
X50638000Y-83400000I-250000J0D01*
G01*
X49438000Y-83400000D01*
G75*
G02*
X49188000Y-83150000I0J250000D01*
G01*
G37*
%TD.AperFunction*%
D14*
%TO.P,J1,3*%
%TO.N,GND*%
X50038000Y-80010000D03*
%TO.P,J1,5*%
X50038000Y-77470000D03*
%TO.P,J1,7*%
X50038000Y-74930000D03*
%TO.P,J1,9*%
%TO.N,+12V*%
X50038000Y-72390000D03*
%TO.P,J1,11*%
%TO.N,+5V*%
X50038000Y-69850000D03*
%TO.P,J1,13*%
%TO.N,Right*%
X50038000Y-67310000D03*
%TO.P,J1,15*%
%TO.N,Left*%
X50038000Y-64770000D03*
%TO.P,J1,2*%
%TO.N,-12V*%
X52578000Y-82550000D03*
%TO.P,J1,4*%
%TO.N,GND*%
X52578000Y-80010000D03*
%TO.P,J1,6*%
X52578000Y-77470000D03*
%TO.P,J1,8*%
X52578000Y-74930000D03*
%TO.P,J1,10*%
%TO.N,+12V*%
X52578000Y-72390000D03*
%TO.P,J1,12*%
%TO.N,+5V*%
X52578000Y-69850000D03*
%TO.P,J1,14*%
%TO.N,Right*%
X52578000Y-67310000D03*
%TO.P,J1,16*%
%TO.N,Left*%
X52578000Y-64770000D03*
%TD*%
D15*
%TO.P,J3,1*%
%TO.N,Right*%
X80518000Y-62484000D03*
D16*
%TO.P,J3,2*%
%TO.N,GND*%
X83058000Y-62484000D03*
%TO.P,J3,3*%
%TO.N,Left*%
X80518000Y-65024000D03*
%TO.P,J3,4*%
%TO.N,GND*%
X83058000Y-65024000D03*
%TO.P,J3,5*%
%TO.N,Right_phone*%
X80518000Y-67564000D03*
%TO.P,J3,6*%
%TO.N,Mono_Line*%
X83058000Y-67564000D03*
%TO.P,J3,7*%
%TO.N,Left_phone*%
X80518000Y-70104000D03*
%TO.P,J3,8*%
%TO.N,Mono_Line*%
X83058000Y-70104000D03*
%TO.P,J3,9*%
%TO.N,LED1_1*%
X80518000Y-72644000D03*
%TO.P,J3,10*%
%TO.N,LED1_2*%
X83058000Y-72644000D03*
%TO.P,J3,11*%
%TO.N,LED2_1*%
X80518000Y-75184000D03*
%TO.P,J3,12*%
%TO.N,LED2_2*%
X83058000Y-75184000D03*
%TO.P,J3,13*%
%TO.N,LED3_1*%
X80518000Y-77724000D03*
%TO.P,J3,14*%
%TO.N,LED3_2*%
X83058000Y-77724000D03*
%TO.P,J3,15*%
%TO.N,LED4_1*%
X80518000Y-80264000D03*
%TO.P,J3,16*%
%TO.N,LED4_2*%
X83058000Y-80264000D03*
%TO.P,J3,17*%
%TO.N,LED5_1*%
X80518000Y-82804000D03*
%TO.P,J3,18*%
%TO.N,LED5_2*%
X83058000Y-82804000D03*
%TO.P,J3,19*%
%TO.N,LED6_1*%
X80518000Y-85344000D03*
%TO.P,J3,20*%
%TO.N,LED6_2*%
X83058000Y-85344000D03*
%TO.P,J3,21*%
%TO.N,LED7_1*%
X80518000Y-87884000D03*
%TO.P,J3,22*%
%TO.N,LED7_2*%
X83058000Y-87884000D03*
%TO.P,J3,23*%
%TO.N,LED8_1*%
X80518000Y-90424000D03*
%TO.P,J3,24*%
%TO.N,LED8_2*%
X83058000Y-90424000D03*
%TO.P,J3,25*%
%TO.N,LED9_1*%
X80518000Y-92964000D03*
%TO.P,J3,26*%
%TO.N,LED9_2*%
X83058000Y-92964000D03*
%TO.P,J3,27*%
%TO.N,LED10_1*%
X80518000Y-95504000D03*
%TO.P,J3,28*%
%TO.N,LED10_2*%
X83058000Y-95504000D03*
%TD*%
D17*
%TO.P,R1,1*%
%TO.N,Right*%
X76200000Y-79502000D03*
D18*
%TO.P,R1,2*%
%TO.N,Net-(C3-Pad2)*%
X68580000Y-79502000D03*
%TD*%
%TO.P,R2,2*%
%TO.N,GND*%
X76200000Y-83312000D03*
D17*
%TO.P,R2,1*%
%TO.N,Net-(C3-Pad2)*%
X68580000Y-83312000D03*
%TD*%
%TO.P,R3,1*%
%TO.N,Left*%
X65532000Y-65786000D03*
D18*
%TO.P,R3,2*%
%TO.N,Net-(C4-Pad2)*%
X57912000Y-65786000D03*
%TD*%
%TO.P,R4,2*%
%TO.N,GND*%
X57912000Y-61976000D03*
D17*
%TO.P,R4,1*%
%TO.N,Net-(C4-Pad2)*%
X65532000Y-61976000D03*
%TD*%
%TO.P,R5,1*%
%TO.N,+5V*%
X57912000Y-73914000D03*
D18*
%TO.P,R5,2*%
%TO.N,Net-(C3-Pad1)*%
X65532000Y-73914000D03*
%TD*%
%TO.P,R6,2*%
%TO.N,GND*%
X57912000Y-69850000D03*
D17*
%TO.P,R6,1*%
%TO.N,Net-(C3-Pad1)*%
X65532000Y-69850000D03*
%TD*%
D18*
%TO.P,R7,2*%
%TO.N,Net-(C4-Pad1)*%
X68580000Y-71374000D03*
D17*
%TO.P,R7,1*%
%TO.N,+5V*%
X76200000Y-71374000D03*
%TD*%
%TO.P,R8,1*%
%TO.N,Net-(C4-Pad1)*%
X68580000Y-75438000D03*
D18*
%TO.P,R8,2*%
%TO.N,GND*%
X76200000Y-75438000D03*
%TD*%
%TO.P,R9,2*%
%TO.N,Left*%
X64770000Y-41910000D03*
D17*
%TO.P,R9,1*%
%TO.N,Net-(C8-Pad2)*%
X72390000Y-41910000D03*
%TD*%
%TO.P,R10,1*%
%TO.N,Net-(C8-Pad2)*%
X66548000Y-38100000D03*
D18*
%TO.P,R10,2*%
%TO.N,Left_phone*%
X66548000Y-30480000D03*
%TD*%
D17*
%TO.P,R11,1*%
%TO.N,Net-(R11-Pad1)*%
X64770000Y-45720000D03*
D18*
%TO.P,R11,2*%
%TO.N,Left_phone*%
X72390000Y-45720000D03*
%TD*%
%TO.P,R12,2*%
%TO.N,Right_phone*%
X46990000Y-41656000D03*
D17*
%TO.P,R12,1*%
%TO.N,Net-(R11-Pad1)*%
X46990000Y-34036000D03*
%TD*%
D18*
%TO.P,R13,2*%
%TO.N,Net-(R11-Pad1)*%
X75692000Y-38100000D03*
D17*
%TO.P,R13,1*%
%TO.N,Net-(R13-Pad1)*%
X83312000Y-38100000D03*
%TD*%
%TO.P,R14,1*%
%TO.N,Mono_Line*%
X76708000Y-60706000D03*
D18*
%TO.P,R14,2*%
%TO.N,Net-(R13-Pad1)*%
X76708000Y-53086000D03*
%TD*%
%TO.P,R15,2*%
%TO.N,Net-(C13-Pad1)*%
X54610000Y-32766000D03*
D17*
%TO.P,R15,1*%
%TO.N,Right_phone*%
X54610000Y-40386000D03*
%TD*%
%TO.P,R16,1*%
%TO.N,Net-(C13-Pad1)*%
X55880000Y-30226000D03*
D18*
%TO.P,R16,2*%
%TO.N,Right*%
X48260000Y-30226000D03*
%TD*%
D11*
%TO.P,U1,1*%
%TO.N,+5V*%
X60452000Y-86868000D03*
D10*
%TO.P,U1,8*%
%TO.N,LED5_2*%
X75692000Y-94488000D03*
%TO.P,U1,2*%
%TO.N,LED1_2*%
X62992000Y-86868000D03*
%TO.P,U1,9*%
%TO.N,LED6_2*%
X73152000Y-94488000D03*
%TO.P,U1,3*%
%TO.N,Net-(C3-Pad1)*%
X65532000Y-86868000D03*
%TO.P,U1,10*%
%TO.N,LED7_2*%
X70612000Y-94488000D03*
%TO.P,U1,4*%
%TO.N,Net-(U1-Pad4)*%
X68072000Y-86868000D03*
%TO.P,U1,11*%
%TO.N,LED8_2*%
X68072000Y-94488000D03*
%TO.P,U1,5*%
%TO.N,LED2_2*%
X70612000Y-86868000D03*
%TO.P,U1,12*%
%TO.N,LED9_2*%
X65532000Y-94488000D03*
%TO.P,U1,6*%
%TO.N,LED3_2*%
X73152000Y-86868000D03*
%TO.P,U1,13*%
%TO.N,LED10_2*%
X62992000Y-94488000D03*
%TO.P,U1,7*%
%TO.N,LED4_2*%
X75692000Y-86868000D03*
%TO.P,U1,14*%
%TO.N,GND*%
X60452000Y-94488000D03*
%TD*%
D19*
%TO.P,U3,1*%
%TO.N,Net-(U3-Pad1)*%
X83058000Y-42418000D03*
D20*
%TO.P,U3,5*%
%TO.N,Net-(U3-Pad5)*%
X75438000Y-50038000D03*
%TO.P,U3,2*%
%TO.N,Net-(R11-Pad1)*%
X83058000Y-44958000D03*
%TO.P,U3,6*%
%TO.N,Net-(R13-Pad1)*%
X75438000Y-47498000D03*
%TO.P,U3,3*%
%TO.N,GND*%
X83058000Y-47498000D03*
%TO.P,U3,7*%
%TO.N,+12V*%
X75438000Y-44958000D03*
%TO.P,U3,4*%
%TO.N,-12V*%
X83058000Y-50038000D03*
%TO.P,U3,8*%
%TO.N,Net-(U3-Pad8)*%
X75438000Y-42418000D03*
%TD*%
D13*
%TO.P,C3,2*%
%TO.N,Net-(C3-Pad2)*%
X64436000Y-78232000D03*
%TO.P,C3,1*%
%TO.N,Net-(C3-Pad1)*%
X59436000Y-78232000D03*
%TD*%
%TO.P,C4,1*%
%TO.N,Net-(C4-Pad1)*%
X73660000Y-67056000D03*
%TO.P,C4,2*%
%TO.N,Net-(C4-Pad2)*%
X68660000Y-67056000D03*
%TD*%
D21*
%TO.N,GND*%
X78994000Y-50038000D03*
X78994000Y-47371000D03*
D22*
%TO.N,Left_phone*%
X75682999Y-64252999D03*
%TO.N,Net-(C8-Pad2)*%
X68326000Y-34544000D03*
%TO.N,Right_phone*%
X75565000Y-56515000D03*
%TO.N,Right*%
X72136000Y-77470000D03*
%TO.N,Left*%
X60452000Y-65786000D03*
%TO.N,LED5_2*%
X75692000Y-89662000D03*
%TO.N,LED6_2*%
X73152000Y-89662000D03*
%TO.N,LED7_1*%
X61976000Y-52832000D03*
%TO.N,LED7_2*%
X70612000Y-89662000D03*
%TO.N,LED8_1*%
X64516000Y-52832000D03*
%TO.N,LED8_2*%
X68072000Y-89662000D03*
%TO.N,LED9_1*%
X67056000Y-52832000D03*
%TO.N,LED10_1*%
X69596000Y-52832000D03*
%TD*%
D23*
%TO.N,+5V*%
X56896000Y-90424000D02*
X60452000Y-86868000D01*
X56896000Y-92710000D02*
X56896000Y-90424000D01*
X59436000Y-85852000D02*
X60452000Y-86868000D01*
X59436000Y-83312000D02*
X59436000Y-85852000D01*
X59436000Y-83312000D02*
X57912000Y-83312000D01*
X57912000Y-83312000D02*
X54610000Y-80010000D01*
X54610000Y-71882000D02*
X52578000Y-69850000D01*
X54864000Y-73914000D02*
X54610000Y-73660000D01*
X57912000Y-73914000D02*
X54864000Y-73914000D01*
X54610000Y-73660000D02*
X54610000Y-71882000D01*
X54610000Y-80010000D02*
X54610000Y-73660000D01*
X50038000Y-69850000D02*
X52578000Y-69850000D01*
X72136000Y-60452000D02*
X73660000Y-61976000D01*
X72136000Y-57150000D02*
X72136000Y-60452000D01*
X72159999Y-63476001D02*
X73660000Y-61976000D01*
X72159999Y-68323948D02*
X72159999Y-63476001D01*
X75210051Y-71374000D02*
X72159999Y-68323948D01*
X76200000Y-71374000D02*
X75210051Y-71374000D01*
D24*
%TO.N,GND*%
X52578000Y-74930000D02*
X50038000Y-74930000D01*
X50038000Y-80010000D02*
X50038000Y-74930000D01*
X50038000Y-80010000D02*
X52578000Y-77470000D01*
X52578000Y-74930000D02*
X52578000Y-80010000D01*
X52578000Y-80010000D02*
X50038000Y-77470000D01*
X50038000Y-80010000D02*
X52578000Y-80010000D01*
X52578000Y-74930000D02*
X50038000Y-77470000D01*
X52578000Y-77470000D02*
X50038000Y-74930000D01*
X50038000Y-77470000D02*
X52578000Y-77470000D01*
X56642000Y-44196000D02*
X57404000Y-44196000D01*
X50800000Y-50038000D02*
X56642000Y-44196000D01*
X49913998Y-74930000D02*
X50038000Y-74930000D01*
X47037989Y-72053991D02*
X49913998Y-74930000D01*
X47037989Y-57396011D02*
X47037989Y-72053991D01*
X48300000Y-56134000D02*
X47037989Y-57396011D01*
D23*
X57404000Y-39308000D02*
X58485000Y-38227000D01*
X57404000Y-44196000D02*
X57404000Y-39308000D01*
X64410000Y-36957000D02*
X64791000Y-36576000D01*
X63435000Y-36957000D02*
X64410000Y-36957000D01*
X64791000Y-36576000D02*
X69850000Y-36576000D01*
X70866000Y-35560000D02*
X74422000Y-35560000D01*
X69850000Y-36576000D02*
X70866000Y-35560000D01*
X83288001Y-55856001D02*
X81788000Y-54356000D01*
X83288001Y-62253999D02*
X83288001Y-55856001D01*
X83058000Y-62484000D02*
X83288001Y-62253999D01*
X83058000Y-65024000D02*
X83058000Y-62484000D01*
D24*
X74422000Y-35560000D02*
X76454000Y-35560000D01*
X76454000Y-35560000D02*
X78994000Y-38100000D01*
X78994000Y-38100000D02*
X78994000Y-47371000D01*
X78994000Y-50038000D02*
X78994000Y-50038000D01*
X78994000Y-47371000D02*
X78994000Y-50038000D01*
X78994000Y-47371000D02*
X78994000Y-47371000D01*
D23*
%TO.N,+12V*%
X52578000Y-72390000D02*
X50038000Y-72390000D01*
X58485000Y-31257000D02*
X59008000Y-30734000D01*
X58485000Y-34417000D02*
X58485000Y-31257000D01*
X50800000Y-56134000D02*
X50546000Y-56134000D01*
X46228000Y-45699000D02*
X57510000Y-34417000D01*
X57510000Y-34417000D02*
X58485000Y-34417000D01*
X46228000Y-51816000D02*
X46228000Y-45699000D01*
X50546000Y-56134000D02*
X46228000Y-51816000D01*
X48487999Y-58446001D02*
X50800000Y-56134000D01*
X48487999Y-70839999D02*
X48487999Y-58446001D01*
X50038000Y-72390000D02*
X48487999Y-70839999D01*
D25*
%TO.N,Net-(C3-Pad1)*%
X61206002Y-78232000D02*
X59436000Y-78232000D01*
X65686001Y-82711999D02*
X61206002Y-78232000D01*
X65686001Y-86713999D02*
X65686001Y-82711999D01*
X65532000Y-86868000D02*
X65686001Y-86713999D01*
X61206002Y-78232000D02*
X61214000Y-78232000D01*
%TO.N,Net-(C3-Pad2)*%
X68580000Y-83312000D02*
X68580000Y-79502000D01*
X67310000Y-78232000D02*
X68580000Y-79502000D01*
X64436000Y-78232000D02*
X67310000Y-78232000D01*
%TO.N,Net-(C4-Pad1)*%
X73386001Y-55589999D02*
X73296001Y-55499999D01*
X73386001Y-56356003D02*
X73386001Y-55589999D01*
X74930000Y-57900002D02*
X73386001Y-56356003D01*
X74930000Y-62556002D02*
X74930000Y-57900002D01*
X68706001Y-55499999D02*
X67056000Y-57150000D01*
X73296001Y-55499999D02*
X68706001Y-55499999D01*
X73660000Y-63826002D02*
X74930000Y-62556002D01*
X73660000Y-67056000D02*
X73660000Y-63826002D01*
%TO.N,Net-(C4-Pad2)*%
X68660000Y-65104000D02*
X65532000Y-61976000D01*
X68660000Y-67056000D02*
X68660000Y-65104000D01*
D23*
%TO.N,-12V*%
X52578000Y-82550000D02*
X50038000Y-82550000D01*
X62165000Y-43957000D02*
X62404000Y-44196000D01*
X63435000Y-38227000D02*
X62484000Y-39178000D01*
X62484000Y-44116000D02*
X62404000Y-44196000D01*
X63435000Y-38227000D02*
X61849000Y-38227000D01*
X61849000Y-38227000D02*
X61468000Y-37846000D01*
X61468000Y-37846000D02*
X61468000Y-30480000D01*
X61468000Y-30480000D02*
X63246000Y-28702000D01*
X74784002Y-28702000D02*
X79248000Y-33165998D01*
X63246000Y-28702000D02*
X74784002Y-28702000D01*
X62484000Y-42164000D02*
X62484000Y-44116000D01*
X62484000Y-39178000D02*
X62484000Y-42164000D01*
X57218702Y-45696001D02*
X60903999Y-45696001D01*
X52832000Y-50082703D02*
X57218702Y-45696001D01*
X52832000Y-50866002D02*
X52832000Y-50082703D01*
X52160001Y-51538001D02*
X52832000Y-50866002D01*
X48668631Y-51538001D02*
X52160001Y-51538001D01*
X60903999Y-45696001D02*
X62404000Y-44196000D01*
X48300000Y-51169370D02*
X48668631Y-51538001D01*
X48300000Y-50038000D02*
X48300000Y-51169370D01*
X83058000Y-50038000D02*
X81026000Y-48006000D01*
X81026000Y-34943998D02*
X79248000Y-33165998D01*
X81026000Y-48006000D02*
X81026000Y-34943998D01*
D25*
%TO.N,Left_phone*%
X63435000Y-33593000D02*
X66548000Y-30480000D01*
X63435000Y-34417000D02*
X63435000Y-33593000D01*
X68326000Y-30480000D02*
X70866000Y-33020000D01*
X66548000Y-30480000D02*
X68326000Y-30480000D01*
D26*
X75682999Y-65268999D02*
X80518000Y-70104000D01*
X75682999Y-64252999D02*
X75682999Y-65268999D01*
D25*
%TO.N,Net-(C8-Pad2)*%
X64135000Y-35687000D02*
X63435000Y-35687000D01*
X70786000Y-38100000D02*
X70866000Y-38020000D01*
X66548000Y-38100000D02*
X70786000Y-38100000D01*
X72390000Y-39544000D02*
X70866000Y-38020000D01*
X72390000Y-41910000D02*
X72390000Y-39544000D01*
X64410000Y-35687000D02*
X65553000Y-34544000D01*
X63435000Y-35687000D02*
X64410000Y-35687000D01*
X65553000Y-34544000D02*
X68326000Y-34544000D01*
X68326000Y-34544000D02*
X68326000Y-34544000D01*
%TO.N,Right_phone*%
X50292000Y-38354000D02*
X50292000Y-38020000D01*
X46990000Y-41656000D02*
X50292000Y-38354000D01*
X57931456Y-35687000D02*
X58485000Y-35687000D01*
X54610000Y-39008456D02*
X57931456Y-35687000D01*
X54610000Y-40386000D02*
X54610000Y-39008456D01*
D26*
X75682999Y-62728999D02*
X75682999Y-56632999D01*
X75682999Y-56632999D02*
X75565000Y-56515000D01*
X80518000Y-67564000D02*
X75682999Y-62728999D01*
D25*
%TO.N,Net-(C13-Pad1)*%
X54610000Y-31496000D02*
X55880000Y-30226000D01*
X54610000Y-32766000D02*
X54610000Y-31496000D01*
X54356000Y-33020000D02*
X54610000Y-32766000D01*
X50292000Y-33020000D02*
X54356000Y-33020000D01*
X59460000Y-36957000D02*
X60198000Y-36219000D01*
X58485000Y-36957000D02*
X59460000Y-36957000D01*
X56622001Y-29483999D02*
X55880000Y-30226000D01*
X59608001Y-29483999D02*
X56622001Y-29483999D01*
X60258001Y-30133999D02*
X59608001Y-29483999D01*
X60258001Y-31334001D02*
X60258001Y-30133999D01*
X60198000Y-31394002D02*
X60258001Y-31334001D01*
X60198000Y-36219000D02*
X60198000Y-31394002D01*
D26*
%TO.N,Right*%
X53854998Y-67310000D02*
X52578000Y-67310000D01*
X63614999Y-77070001D02*
X53854998Y-67310000D01*
X71736001Y-77070001D02*
X63614999Y-77070001D01*
X72136000Y-77470000D02*
X71736001Y-77070001D01*
D25*
%TO.N,Left*%
X64770000Y-43680002D02*
X64770000Y-41910000D01*
X63004001Y-45446001D02*
X64770000Y-43680002D01*
D26*
X53427999Y-63920001D02*
X58586001Y-63920001D01*
X52578000Y-64770000D02*
X53427999Y-63920001D01*
X58586001Y-63920001D02*
X60452000Y-65786000D01*
X60452000Y-65786000D02*
X60452000Y-65786000D01*
D25*
X63004001Y-45446001D02*
X63004001Y-45453999D01*
X57335230Y-46922990D02*
X57082110Y-47176110D01*
X61535010Y-46922990D02*
X57335230Y-46922990D01*
X63004001Y-45453999D02*
X61535010Y-46922990D01*
X52578000Y-64770000D02*
X53845953Y-63502047D01*
X53845953Y-50412265D02*
X54161109Y-50097109D01*
X53845953Y-63502047D02*
X53845953Y-50412265D01*
X57082110Y-47176110D02*
X54161109Y-50097109D01*
D26*
%TO.N,LED1_1*%
X69596000Y-57150000D02*
X69596000Y-59690000D01*
X69596000Y-59690000D02*
X70866000Y-60960000D01*
X70866000Y-60960000D02*
X70866000Y-68834000D01*
X74676000Y-72644000D02*
X80518000Y-72644000D01*
X70866000Y-68834000D02*
X74676000Y-72644000D01*
%TO.N,LED2_1*%
X69975590Y-68580000D02*
X74547590Y-73152000D01*
X78486000Y-73152000D02*
X80518000Y-75184000D01*
X74547590Y-73152000D02*
X78486000Y-73152000D01*
X69975590Y-68580000D02*
X68580000Y-68580000D01*
X68580000Y-68580000D02*
X67310000Y-67310000D01*
X65538998Y-67310000D02*
X64262000Y-66033002D01*
X67310000Y-67310000D02*
X65538998Y-67310000D01*
X64262000Y-59436000D02*
X61976000Y-57150000D01*
X64262000Y-66033002D02*
X64262000Y-59436000D01*
%TO.N,LED3_1*%
X65352598Y-67760010D02*
X67123600Y-67760010D01*
X67123600Y-67760010D02*
X68393600Y-69030010D01*
X68393600Y-69030010D02*
X69789190Y-69030010D01*
X69789190Y-69030010D02*
X74361190Y-73602010D01*
X74361190Y-73602010D02*
X78299600Y-73602010D01*
X78299600Y-73602010D02*
X78740000Y-74042410D01*
X78740000Y-75946000D02*
X80518000Y-77724000D01*
X78740000Y-74042410D02*
X78740000Y-75946000D01*
X63811990Y-66219402D02*
X64074294Y-66481706D01*
X63811990Y-61525990D02*
X63811990Y-66219402D01*
X59436000Y-57150000D02*
X63811990Y-61525990D01*
X64074294Y-66481706D02*
X65352598Y-67760010D01*
%TO.N,LED4_1*%
X77862020Y-74052020D02*
X78289990Y-74479990D01*
X74174790Y-74052020D02*
X77862020Y-74052020D01*
X68207200Y-69480020D02*
X69602790Y-69480020D01*
X66937200Y-68210020D02*
X68207200Y-69480020D01*
X65166198Y-68210020D02*
X66937200Y-68210020D01*
X63361981Y-66405803D02*
X65166198Y-68210020D01*
X69602790Y-69480020D02*
X74174790Y-74052020D01*
X63361980Y-61712390D02*
X63361981Y-66405803D01*
X78289990Y-74479990D02*
X78289990Y-78035990D01*
X60641795Y-58992205D02*
X63361980Y-61712390D01*
X78289990Y-78035990D02*
X80518000Y-80264000D01*
X58738205Y-58992205D02*
X60641795Y-58992205D01*
X56896000Y-57150000D02*
X58738205Y-58992205D01*
%TO.N,LED5_1*%
X58928000Y-47498000D02*
X56896000Y-49530000D01*
X72731414Y-47498000D02*
X58928000Y-47498000D01*
X73711020Y-48477606D02*
X72731414Y-47498000D01*
X73711020Y-51359020D02*
X73711020Y-51606022D01*
X73711020Y-51359020D02*
X73711020Y-48477606D01*
X76330499Y-54225501D02*
X77085501Y-54225501D01*
X73711020Y-51606022D02*
X76330499Y-54225501D01*
X77085501Y-54225501D02*
X79495002Y-51816000D01*
X79495002Y-51816000D02*
X83566000Y-51816000D01*
X81318998Y-82804000D02*
X80518000Y-82804000D01*
X82683997Y-81439001D02*
X81318998Y-82804000D01*
X83622001Y-81439001D02*
X82683997Y-81439001D01*
X84683011Y-80377991D02*
X83622001Y-81439001D01*
X84683011Y-52933011D02*
X84683011Y-80377991D01*
X83566000Y-51816000D02*
X84683011Y-52933011D01*
%TO.N,LED5_2*%
X75692000Y-94488000D02*
X75692000Y-89662000D01*
%TO.N,LED6_1*%
X73261011Y-51792423D02*
X73261011Y-51706990D01*
X80518000Y-85344000D02*
X79342999Y-84168999D01*
X80048998Y-81534000D02*
X80987002Y-81534000D01*
X79342999Y-84168999D02*
X79342999Y-82239999D01*
X84233001Y-78288001D02*
X84233001Y-60135999D01*
X81882999Y-79510001D02*
X82493999Y-78899001D01*
X79342999Y-82239999D02*
X80048998Y-81534000D01*
X81882999Y-80638003D02*
X81882999Y-79510001D01*
X80987002Y-81534000D02*
X81882999Y-80638003D01*
X82493999Y-78899001D02*
X83622001Y-78899001D01*
X83622001Y-78899001D02*
X84233001Y-78288001D01*
X60961010Y-48004990D02*
X59436000Y-49530000D01*
X72601994Y-48004990D02*
X60961010Y-48004990D01*
X73261010Y-48664006D02*
X72601994Y-48004990D01*
X73261011Y-51792423D02*
X73261010Y-48664006D01*
X76144099Y-54675511D02*
X77271902Y-54675510D01*
X76012294Y-54543706D02*
X76144099Y-54675511D01*
X76012294Y-54543706D02*
X73261011Y-51792423D01*
X77271902Y-54675510D02*
X79681402Y-52266010D01*
X79681402Y-52266010D02*
X83379600Y-52266010D01*
X84233001Y-53180999D02*
X84233001Y-60135999D01*
X84233001Y-53119411D02*
X83628795Y-52515205D01*
X84233001Y-53180999D02*
X84233001Y-53119411D01*
X83379600Y-52266010D02*
X83628795Y-52515205D01*
%TO.N,LED6_2*%
X73152000Y-94488000D02*
X73152000Y-89662000D01*
%TO.N,LED7_1*%
X60455395Y-59442215D02*
X62911971Y-61898791D01*
X78892990Y-79647992D02*
X78892990Y-86258990D01*
X78892990Y-86258990D02*
X80518000Y-87884000D01*
X55770990Y-56284006D02*
X55770990Y-58015994D01*
X62911971Y-61898791D02*
X62911972Y-66592204D01*
X55770990Y-58015994D02*
X57197211Y-59442215D01*
X57197211Y-59442215D02*
X60455395Y-59442215D01*
X62911972Y-66592204D02*
X64979798Y-68660030D01*
X69175028Y-69930030D02*
X78892990Y-79647992D01*
X64979798Y-68660030D02*
X66750800Y-68660030D01*
X66750800Y-68660030D02*
X68020800Y-69930030D01*
X68020800Y-69930030D02*
X69175028Y-69930030D01*
X55770990Y-56284006D02*
X55770990Y-55612240D01*
X55770990Y-55612240D02*
X58978190Y-52405040D01*
X58978190Y-52405040D02*
X61549040Y-52405040D01*
X61549040Y-52405040D02*
X61976000Y-52832000D01*
X61976000Y-52832000D02*
X61976000Y-52832000D01*
%TO.N,LED7_2*%
X70612000Y-94488000D02*
X70612000Y-89662000D01*
%TO.N,LED8_1*%
X63639030Y-51955030D02*
X64516000Y-52832000D01*
X58791790Y-51955030D02*
X63639030Y-51955030D01*
X55320980Y-55425840D02*
X58791790Y-51955030D01*
X55320981Y-58202395D02*
X55320980Y-55425840D01*
X80518000Y-90424000D02*
X78442980Y-88348980D01*
X65039999Y-70875001D02*
X62461962Y-68296964D01*
X57010811Y-59892225D02*
X55320981Y-58202395D01*
X78442980Y-79834392D02*
X70998588Y-72390000D01*
X69078999Y-72399001D02*
X68062999Y-72399001D01*
X70998588Y-72390000D02*
X69088000Y-72390000D01*
X69088000Y-72390000D02*
X69078999Y-72399001D01*
X68062999Y-72399001D02*
X66538999Y-70875001D01*
X78442980Y-88348980D02*
X78442980Y-79834392D01*
X66538999Y-70875001D02*
X65039999Y-70875001D01*
X62461962Y-68296964D02*
X62461962Y-62085192D01*
X62461962Y-62085192D02*
X60268995Y-59892225D01*
X60268995Y-59892225D02*
X57010811Y-59892225D01*
%TO.N,LED8_2*%
X68072000Y-94488000D02*
X68072000Y-89662000D01*
%TO.N,LED9_1*%
X65729020Y-51505020D02*
X67056000Y-52832000D01*
X54870971Y-55239439D02*
X58605390Y-51505020D01*
X56824411Y-60342235D02*
X54870972Y-58388796D01*
X60082595Y-60342235D02*
X56824411Y-60342235D01*
X62011952Y-62271592D02*
X60082595Y-60342235D01*
X62011953Y-68483365D02*
X62011952Y-62271592D01*
X80518000Y-92964000D02*
X77978000Y-90424000D01*
X74930000Y-76962000D02*
X70808010Y-72840010D01*
X54870972Y-58388796D02*
X54870971Y-55239439D01*
X77206999Y-80527001D02*
X75707999Y-80527001D01*
X74930000Y-79749002D02*
X74930000Y-76962000D01*
X64853599Y-71325011D02*
X62011953Y-68483365D01*
X77978000Y-81298002D02*
X77206999Y-80527001D01*
X70808010Y-72840010D02*
X69653990Y-72840010D01*
X58605390Y-51505020D02*
X65729020Y-51505020D01*
X75707999Y-80527001D02*
X74930000Y-79749002D01*
X77978000Y-90424000D02*
X77978000Y-81298002D01*
X69653990Y-72840010D02*
X69644989Y-72849011D01*
X66352599Y-71325011D02*
X64853599Y-71325011D01*
X69644989Y-72849011D02*
X67876599Y-72849011D01*
X67876599Y-72849011D02*
X66352599Y-71325011D01*
%TO.N,LED10_1*%
X67819010Y-51055010D02*
X69596000Y-52832000D01*
X58418990Y-51055010D02*
X67819010Y-51055010D01*
X54420962Y-55053038D02*
X58418990Y-51055010D01*
X54420963Y-58575195D02*
X54420962Y-55053038D01*
X56638010Y-60792244D02*
X54420963Y-58575195D01*
X59896195Y-60792245D02*
X56638010Y-60792244D01*
X61561944Y-68669764D02*
X61561944Y-62457994D01*
X80518000Y-95504000D02*
X77527990Y-92513990D01*
X69840390Y-73290020D02*
X69831389Y-73299021D01*
X77527990Y-81591990D02*
X76913011Y-80977011D01*
X69831389Y-73299021D02*
X67690198Y-73299020D01*
X67690198Y-73299020D02*
X66166199Y-71775021D01*
X61561944Y-62457994D02*
X59896195Y-60792245D01*
X75521598Y-80977010D02*
X74479990Y-79935402D01*
X77527990Y-92513990D02*
X77527990Y-81591990D01*
X74479990Y-79935402D02*
X74479990Y-77148400D01*
X66166199Y-71775021D02*
X64667198Y-71775020D01*
X76913011Y-80977011D02*
X75521598Y-80977010D01*
X74479990Y-77148400D02*
X70621610Y-73290020D01*
X70621610Y-73290020D02*
X69840390Y-73290020D01*
X64667198Y-71775020D02*
X61561944Y-68669764D01*
D25*
%TO.N,Net-(R11-Pad1)*%
X75692000Y-39292000D02*
X75692000Y-38100000D01*
X73540001Y-41443999D02*
X75692000Y-39292000D01*
X73540001Y-46272001D02*
X73540001Y-41443999D01*
X72942001Y-46870001D02*
X73540001Y-46272001D01*
X65920001Y-46870001D02*
X72942001Y-46870001D01*
X64770000Y-45720000D02*
X65920001Y-46870001D01*
%TO.N,Net-(R13-Pad1)*%
X77407999Y-49467999D02*
X75438000Y-47498000D01*
X77407999Y-52386001D02*
X77407999Y-49467999D01*
X76708000Y-53086000D02*
X77407999Y-52386001D01*
%TD*%
M02*
