%TF.GenerationSoftware,KiCad,Pcbnew,(5.1.10)-1*%
%TF.CreationDate,2022-02-04T18:42:06-05:00*%
%TF.ProjectId,OutputBoard,4f757470-7574-4426-9f61-72642e6b6963,rev?*%
%TF.SameCoordinates,Original*%
%TF.FileFunction,Legend,Top*%
%TF.FilePolarity,Positive*%
%FSLAX46Y46*%
G04 Gerber Fmt 4.6, Leading zero omitted, Abs format (unit mm)*
G04 Created by KiCad (PCBNEW (5.1.10)-1) date 2022-02-04 18:42:06*
%MOMM*%
%LPD*%
G01*
G04 APERTURE LIST*
%ADD10C,0.120000*%
%ADD11C,0.150000*%
G04 APERTURE END LIST*
D10*
%TO.C,J3*%
X79188000Y-61154000D02*
X80518000Y-61154000D01*
X79188000Y-62484000D02*
X79188000Y-61154000D01*
X81788000Y-61154000D02*
X84388000Y-61154000D01*
X81788000Y-63754000D02*
X81788000Y-61154000D01*
X79188000Y-63754000D02*
X81788000Y-63754000D01*
X84388000Y-61154000D02*
X84388000Y-96834000D01*
X79188000Y-63754000D02*
X79188000Y-96834000D01*
X79188000Y-96834000D02*
X84388000Y-96834000D01*
%TO.C,REF\u002A\u002A*%
D11*
X47561666Y-90232380D02*
X47228333Y-89756190D01*
X46990238Y-90232380D02*
X46990238Y-89232380D01*
X47371190Y-89232380D01*
X47466428Y-89280000D01*
X47514047Y-89327619D01*
X47561666Y-89422857D01*
X47561666Y-89565714D01*
X47514047Y-89660952D01*
X47466428Y-89708571D01*
X47371190Y-89756190D01*
X46990238Y-89756190D01*
X47990238Y-89708571D02*
X48323571Y-89708571D01*
X48466428Y-90232380D02*
X47990238Y-90232380D01*
X47990238Y-89232380D01*
X48466428Y-89232380D01*
X49228333Y-89708571D02*
X48895000Y-89708571D01*
X48895000Y-90232380D02*
X48895000Y-89232380D01*
X49371190Y-89232380D01*
X49895000Y-89232380D02*
X49895000Y-89470476D01*
X49656904Y-89375238D02*
X49895000Y-89470476D01*
X50133095Y-89375238D01*
X49752142Y-89660952D02*
X49895000Y-89470476D01*
X50037857Y-89660952D01*
X50656904Y-89232380D02*
X50656904Y-89470476D01*
X50418809Y-89375238D02*
X50656904Y-89470476D01*
X50895000Y-89375238D01*
X50514047Y-89660952D02*
X50656904Y-89470476D01*
X50799761Y-89660952D01*
X79946666Y-28002380D02*
X79613333Y-27526190D01*
X79375238Y-28002380D02*
X79375238Y-27002380D01*
X79756190Y-27002380D01*
X79851428Y-27050000D01*
X79899047Y-27097619D01*
X79946666Y-27192857D01*
X79946666Y-27335714D01*
X79899047Y-27430952D01*
X79851428Y-27478571D01*
X79756190Y-27526190D01*
X79375238Y-27526190D01*
X80375238Y-27478571D02*
X80708571Y-27478571D01*
X80851428Y-28002380D02*
X80375238Y-28002380D01*
X80375238Y-27002380D01*
X80851428Y-27002380D01*
X81613333Y-27478571D02*
X81280000Y-27478571D01*
X81280000Y-28002380D02*
X81280000Y-27002380D01*
X81756190Y-27002380D01*
X82280000Y-27002380D02*
X82280000Y-27240476D01*
X82041904Y-27145238D02*
X82280000Y-27240476D01*
X82518095Y-27145238D01*
X82137142Y-27430952D02*
X82280000Y-27240476D01*
X82422857Y-27430952D01*
X83041904Y-27002380D02*
X83041904Y-27240476D01*
X82803809Y-27145238D02*
X83041904Y-27240476D01*
X83280000Y-27145238D01*
X82899047Y-27430952D02*
X83041904Y-27240476D01*
X83184761Y-27430952D01*
%TO.C,J3*%
X77176380Y-96599333D02*
X77890666Y-96599333D01*
X78033523Y-96646952D01*
X78128761Y-96742190D01*
X78176380Y-96885047D01*
X78176380Y-96980285D01*
X77176380Y-96218380D02*
X77176380Y-95599333D01*
X77557333Y-95932666D01*
X77557333Y-95789809D01*
X77604952Y-95694571D01*
X77652571Y-95646952D01*
X77747809Y-95599333D01*
X77985904Y-95599333D01*
X78081142Y-95646952D01*
X78128761Y-95694571D01*
X78176380Y-95789809D01*
X78176380Y-96075523D01*
X78128761Y-96170761D01*
X78081142Y-96218380D01*
%TD*%
M02*
