%TF.GenerationSoftware,KiCad,Pcbnew,(5.1.10)-1*%
%TF.CreationDate,2021-10-01T01:08:29-04:00*%
%TF.ProjectId,regulator,72656775-6c61-4746-9f72-2e6b69636164,rev?*%
%TF.SameCoordinates,Original*%
%TF.FileFunction,Soldermask,Bot*%
%TF.FilePolarity,Negative*%
%FSLAX46Y46*%
G04 Gerber Fmt 4.6, Leading zero omitted, Abs format (unit mm)*
G04 Created by KiCad (PCBNEW (5.1.10)-1) date 2021-10-01 01:08:29*
%MOMM*%
%LPD*%
G01*
G04 APERTURE LIST*
%ADD10C,3.200000*%
%ADD11C,4.000000*%
%ADD12C,1.600000*%
%ADD13R,1.600000X1.600000*%
%ADD14R,1.800000X1.800000*%
%ADD15O,1.800000X1.800000*%
%ADD16C,3.000000*%
%ADD17R,3.000000X3.000000*%
%ADD18R,1.905000X2.000000*%
%ADD19O,1.905000X2.000000*%
%ADD20R,2.000000X1.905000*%
%ADD21O,2.000000X1.905000*%
%ADD22R,1.700000X1.700000*%
%ADD23O,1.700000X1.700000*%
G04 APERTURE END LIST*
D10*
%TO.C,m3*%
X213995000Y-151765000D03*
%TD*%
%TO.C,m3*%
X113665000Y-151765000D03*
%TD*%
%TO.C,m3*%
X113665000Y-87630000D03*
%TD*%
%TO.C,m3*%
X213995000Y-87630000D03*
%TD*%
D11*
%TO.C,L7912*%
X128270000Y-144780000D03*
X153670000Y-144780000D03*
%TD*%
%TO.C,L7812*%
X183515000Y-132080000D03*
X183515000Y-106680000D03*
%TD*%
%TO.C,L7805*%
X153670000Y-94615000D03*
X128270000Y-94615000D03*
%TD*%
D12*
%TO.C,C1*%
X123190000Y-111760000D03*
X128190000Y-111760000D03*
%TD*%
%TO.C,C2*%
X138510000Y-109855000D03*
X143510000Y-109855000D03*
%TD*%
%TO.C,C3*%
X123190000Y-119380000D03*
X128190000Y-119380000D03*
%TD*%
%TO.C,C4*%
X168275000Y-121920000D03*
X168275000Y-116920000D03*
%TD*%
D13*
%TO.C,C5*%
X127000000Y-127000000D03*
D12*
X124500000Y-127000000D03*
%TD*%
D13*
%TO.C,C6*%
X139700000Y-128905000D03*
D12*
X142200000Y-128905000D03*
%TD*%
D14*
%TO.C,D1*%
X144780000Y-115570000D03*
D15*
X137160000Y-115570000D03*
%TD*%
D14*
%TO.C,D2*%
X163830000Y-123190000D03*
D15*
X163830000Y-115570000D03*
%TD*%
%TO.C,D3*%
X144780000Y-123190000D03*
D14*
X137160000Y-123190000D03*
%TD*%
D16*
%TO.C,J1*%
X115570000Y-116840000D03*
X115570000Y-121920000D03*
D17*
X115570000Y-111760000D03*
D16*
X115570000Y-127000000D03*
%TD*%
D18*
%TO.C,U1*%
X138430000Y-97790000D03*
D19*
X140970000Y-97790000D03*
X143510000Y-97790000D03*
%TD*%
D20*
%TO.C,U2*%
X180340000Y-116840000D03*
D21*
X180340000Y-119380000D03*
X180340000Y-121920000D03*
%TD*%
D19*
%TO.C,U3*%
X143510000Y-147955000D03*
X140970000Y-147955000D03*
D18*
X138430000Y-147955000D03*
%TD*%
D22*
%TO.C,J2*%
X213995000Y-96520000D03*
D23*
X216535000Y-96520000D03*
X213995000Y-99060000D03*
X216535000Y-99060000D03*
X213995000Y-101600000D03*
X216535000Y-101600000D03*
X213995000Y-104140000D03*
X216535000Y-104140000D03*
X213995000Y-106680000D03*
X216535000Y-106680000D03*
X213995000Y-109220000D03*
X216535000Y-109220000D03*
X213995000Y-111760000D03*
X216535000Y-111760000D03*
X213995000Y-114300000D03*
X216535000Y-114300000D03*
%TD*%
%TO.C,J3*%
X213995000Y-125730000D03*
X216535000Y-125730000D03*
X213995000Y-128270000D03*
X216535000Y-128270000D03*
X213995000Y-130810000D03*
X216535000Y-130810000D03*
X213995000Y-133350000D03*
X216535000Y-133350000D03*
X213995000Y-135890000D03*
X216535000Y-135890000D03*
X213995000Y-138430000D03*
X216535000Y-138430000D03*
X213995000Y-140970000D03*
X216535000Y-140970000D03*
X213995000Y-143510000D03*
D22*
X216535000Y-143510000D03*
%TD*%
%TO.C,J4*%
X182880000Y-151765000D03*
D23*
X180340000Y-151765000D03*
%TD*%
M02*
