M48
; DRILL file {KiCad (5.1.10)-1} date 10/01/21 01:08:37
; FORMAT={-:-/ absolute / inch / decimal}
; #@! TF.CreationDate,2021-10-01T01:08:37-04:00
; #@! TF.GenerationSoftware,Kicad,Pcbnew,(5.1.10)-1
; #@! TF.FileFunction,Plated,1,2,PTH
FMAT,2
INCH
T1C0.0315
T2C0.0354
T3C0.0394
T4C0.0433
T5C0.0598
T6C0.0984
%
G90
G05
T1
X4.85Y-4.4
X4.85Y-4.7
X4.9016Y-5.0
X5.0Y-5.0
X5.0469Y-4.4
X5.0469Y-4.7
X5.4531Y-4.325
X5.5Y-5.075
X5.5984Y-5.075
X5.65Y-4.325
X6.625Y-4.6031
X6.625Y-4.8
T2
X5.4Y-4.55
X5.4Y-4.85
X5.7Y-4.55
X5.7Y-4.85
X6.45Y-4.55
X6.45Y-4.85
T3
X7.1Y-5.975
X7.2Y-5.975
X8.425Y-3.8
X8.425Y-3.9
X8.425Y-4.0
X8.425Y-4.1
X8.425Y-4.2
X8.425Y-4.3
X8.425Y-4.4
X8.425Y-4.5
X8.425Y-4.95
X8.425Y-5.05
X8.425Y-5.15
X8.425Y-5.25
X8.425Y-5.35
X8.425Y-5.45
X8.425Y-5.55
X8.425Y-5.65
X8.525Y-3.8
X8.525Y-3.9
X8.525Y-4.0
X8.525Y-4.1
X8.525Y-4.2
X8.525Y-4.3
X8.525Y-4.4
X8.525Y-4.5
X8.525Y-4.95
X8.525Y-5.05
X8.525Y-5.15
X8.525Y-5.25
X8.525Y-5.35
X8.525Y-5.45
X8.525Y-5.55
X8.525Y-5.65
T4
X5.45Y-3.85
X5.45Y-5.825
X5.55Y-3.85
X5.55Y-5.825
X5.65Y-3.85
X5.65Y-5.825
X7.1Y-4.6
X7.1Y-4.7
X7.1Y-4.8
T5
X4.55Y-4.4
X4.55Y-4.6
X4.55Y-4.8
X4.55Y-5.0
T6
X5.05Y-3.725
X5.05Y-5.7
X6.05Y-3.725
X6.05Y-5.7
X7.225Y-4.2
X7.225Y-5.2
T0
M30
