%TF.GenerationSoftware,KiCad,Pcbnew,(5.1.10)-1*%
%TF.CreationDate,2021-10-01T01:08:29-04:00*%
%TF.ProjectId,regulator,72656775-6c61-4746-9f72-2e6b69636164,rev?*%
%TF.SameCoordinates,Original*%
%TF.FileFunction,Legend,Top*%
%TF.FilePolarity,Positive*%
%FSLAX46Y46*%
G04 Gerber Fmt 4.6, Leading zero omitted, Abs format (unit mm)*
G04 Created by KiCad (PCBNEW (5.1.10)-1) date 2021-10-01 01:08:29*
%MOMM*%
%LPD*%
G01*
G04 APERTURE LIST*
%ADD10C,0.150000*%
%ADD11C,0.120000*%
G04 APERTURE END LIST*
D10*
X109783571Y-125285714D02*
X109783571Y-126047619D01*
X109402619Y-127047619D02*
X109402619Y-126476190D01*
X109402619Y-126761904D02*
X110402619Y-126761904D01*
X110259761Y-126666666D01*
X110164523Y-126571428D01*
X110116904Y-126476190D01*
X110307380Y-127428571D02*
X110355000Y-127476190D01*
X110402619Y-127571428D01*
X110402619Y-127809523D01*
X110355000Y-127904761D01*
X110307380Y-127952380D01*
X110212142Y-128000000D01*
X110116904Y-128000000D01*
X109974047Y-127952380D01*
X109402619Y-127380952D01*
X109402619Y-128000000D01*
X110069285Y-128333333D02*
X109402619Y-128571428D01*
X110069285Y-128809523D01*
X110355000Y-121158095D02*
X110402619Y-121062857D01*
X110402619Y-120920000D01*
X110355000Y-120777142D01*
X110259761Y-120681904D01*
X110164523Y-120634285D01*
X109974047Y-120586666D01*
X109831190Y-120586666D01*
X109640714Y-120634285D01*
X109545476Y-120681904D01*
X109450238Y-120777142D01*
X109402619Y-120920000D01*
X109402619Y-121015238D01*
X109450238Y-121158095D01*
X109497857Y-121205714D01*
X109831190Y-121205714D01*
X109831190Y-121015238D01*
X109402619Y-121634285D02*
X110402619Y-121634285D01*
X109402619Y-122205714D01*
X110402619Y-122205714D01*
X109402619Y-122681904D02*
X110402619Y-122681904D01*
X110402619Y-122920000D01*
X110355000Y-123062857D01*
X110259761Y-123158095D01*
X110164523Y-123205714D01*
X109974047Y-123253333D01*
X109831190Y-123253333D01*
X109640714Y-123205714D01*
X109545476Y-123158095D01*
X109450238Y-123062857D01*
X109402619Y-122920000D01*
X109402619Y-122681904D01*
X109783571Y-115125714D02*
X109783571Y-115887619D01*
X109402619Y-115506666D02*
X110164523Y-115506666D01*
X109402619Y-116887619D02*
X109402619Y-116316190D01*
X109402619Y-116601904D02*
X110402619Y-116601904D01*
X110259761Y-116506666D01*
X110164523Y-116411428D01*
X110116904Y-116316190D01*
X110307380Y-117268571D02*
X110355000Y-117316190D01*
X110402619Y-117411428D01*
X110402619Y-117649523D01*
X110355000Y-117744761D01*
X110307380Y-117792380D01*
X110212142Y-117840000D01*
X110116904Y-117840000D01*
X109974047Y-117792380D01*
X109402619Y-117220952D01*
X109402619Y-117840000D01*
X110069285Y-118173333D02*
X109402619Y-118411428D01*
X110069285Y-118649523D01*
X109783571Y-110521904D02*
X109783571Y-111283809D01*
X109402619Y-110902857D02*
X110164523Y-110902857D01*
X110402619Y-112236190D02*
X110402619Y-111760000D01*
X109926428Y-111712380D01*
X109974047Y-111760000D01*
X110021666Y-111855238D01*
X110021666Y-112093333D01*
X109974047Y-112188571D01*
X109926428Y-112236190D01*
X109831190Y-112283809D01*
X109593095Y-112283809D01*
X109497857Y-112236190D01*
X109450238Y-112188571D01*
X109402619Y-112093333D01*
X109402619Y-111855238D01*
X109450238Y-111760000D01*
X109497857Y-111712380D01*
X110069285Y-112617142D02*
X109402619Y-112855238D01*
X110069285Y-113093333D01*
D11*
%TO.C,L7912*%
X132570000Y-145890000D02*
X140970000Y-145890000D01*
X132570000Y-143670000D02*
X140970000Y-143670000D01*
X120080000Y-138250000D02*
X126590000Y-143260000D01*
X124160000Y-138410000D02*
X120600000Y-137190000D01*
X120080000Y-133210000D02*
X124330000Y-138190000D01*
X120080000Y-156350000D02*
X124330000Y-151370000D01*
X124360000Y-156820000D02*
X125110000Y-153830000D01*
X124860000Y-153680000D02*
X120830000Y-157270000D01*
X124860000Y-135880000D02*
X120830000Y-132290000D01*
X124360000Y-132740000D02*
X125110000Y-135730000D01*
X120080000Y-151310000D02*
X126590000Y-146300000D01*
X124160000Y-151150000D02*
X120600000Y-152370000D01*
X128540000Y-137980000D02*
X125450000Y-132410000D01*
X131390000Y-132620000D02*
X130580000Y-137580000D01*
X132560000Y-132710000D02*
X132570000Y-143670000D01*
X128540000Y-151580000D02*
X125450000Y-157150000D01*
X131390000Y-156940000D02*
X130580000Y-151980000D01*
X132560000Y-156850000D02*
X132570000Y-145890000D01*
X149370000Y-143670000D02*
X140970000Y-143670000D01*
X161860000Y-138250000D02*
X155350000Y-143260000D01*
X157780000Y-138410000D02*
X161340000Y-137190000D01*
X161860000Y-133210000D02*
X157610000Y-138190000D01*
X157080000Y-135880000D02*
X161110000Y-132290000D01*
X157580000Y-132740000D02*
X156830000Y-135730000D01*
X153400000Y-137980000D02*
X156490000Y-132410000D01*
X149380000Y-132710000D02*
X149370000Y-143670000D01*
X150550000Y-132620000D02*
X151360000Y-137580000D01*
X149380000Y-156850000D02*
X149370000Y-145890000D01*
X149370000Y-145890000D02*
X140970000Y-145890000D01*
X150550000Y-156940000D02*
X151360000Y-151980000D01*
X153400000Y-151580000D02*
X156490000Y-157150000D01*
X157580000Y-156820000D02*
X156830000Y-153830000D01*
X157080000Y-153680000D02*
X161110000Y-157270000D01*
X161860000Y-156350000D02*
X157610000Y-151370000D01*
X157780000Y-151150000D02*
X161340000Y-152370000D01*
X161860000Y-151310000D02*
X155350000Y-146300000D01*
X120087990Y-138250923D02*
G75*
G02*
X120610000Y-137190000I382010J470923D01*
G01*
X124328995Y-138187156D02*
G75*
G02*
X124160000Y-138410000I-108995J-92844D01*
G01*
X120086639Y-156349810D02*
G75*
G03*
X120850000Y-157250000I393361J-440190D01*
G01*
X124362704Y-156809866D02*
G75*
G03*
X125460000Y-157140000I607296J29866D01*
G01*
X125107261Y-153853206D02*
G75*
G03*
X124860000Y-153670000I-137261J73206D01*
G01*
X120086432Y-133210005D02*
G75*
G02*
X120850000Y-132310000I393568J440005D01*
G01*
X125107354Y-135706968D02*
G75*
G02*
X124860000Y-135890000I-137354J-73032D01*
G01*
X124362746Y-132749286D02*
G75*
G02*
X125460000Y-132420000I607254J-30714D01*
G01*
X124328994Y-151372846D02*
G75*
G03*
X124160000Y-151150000I-108994J92846D01*
G01*
X120088754Y-151308458D02*
G75*
G03*
X120610000Y-152370000I381246J-471542D01*
G01*
X130591275Y-137541577D02*
G75*
G02*
X128540000Y-137970000I-1131275J291577D01*
G01*
X131391633Y-132641715D02*
G75*
G02*
X132560000Y-132740000I578367J-118285D01*
G01*
X131391505Y-156917659D02*
G75*
G03*
X132560000Y-156820000I578495J117659D01*
G01*
X130591511Y-152019338D02*
G75*
G03*
X128540000Y-151590000I-1131511J-290662D01*
G01*
X161853361Y-133210190D02*
G75*
G03*
X161090000Y-132310000I-393361J440190D01*
G01*
X157577296Y-132750134D02*
G75*
G03*
X156480000Y-132420000I-607296J-29866D01*
G01*
X161851246Y-138251542D02*
G75*
G03*
X161330000Y-137190000I-381246J471542D01*
G01*
X157611006Y-138187154D02*
G75*
G03*
X157780000Y-138410000I108994J-92846D01*
G01*
X156832739Y-135706794D02*
G75*
G03*
X157080000Y-135890000I137261J-73206D01*
G01*
X151348489Y-137540662D02*
G75*
G03*
X153400000Y-137970000I1131511J290662D01*
G01*
X150548495Y-132642341D02*
G75*
G03*
X149380000Y-132740000I-578495J-117659D01*
G01*
X157611005Y-151372844D02*
G75*
G02*
X157780000Y-151150000I108995J92844D01*
G01*
X156832646Y-153853032D02*
G75*
G02*
X157080000Y-153670000I137354J73032D01*
G01*
X161852010Y-151309077D02*
G75*
G02*
X161330000Y-152370000I-382010J-470923D01*
G01*
X161853568Y-156349995D02*
G75*
G02*
X161090000Y-157250000I-393568J-440005D01*
G01*
X157577254Y-156810714D02*
G75*
G02*
X156480000Y-157140000I-607254J30714D01*
G01*
X150548367Y-156918285D02*
G75*
G02*
X149380000Y-156820000I-578367J118285D01*
G01*
X151348725Y-152018423D02*
G75*
G02*
X153400000Y-151590000I1131275J-291577D01*
G01*
%TO.C,L7812*%
X176985000Y-140270000D02*
X181995000Y-133760000D01*
X177145000Y-136190000D02*
X175925000Y-139750000D01*
X171945000Y-140270000D02*
X176925000Y-136020000D01*
X174615000Y-135490000D02*
X171025000Y-139520000D01*
X171475000Y-135990000D02*
X174465000Y-135240000D01*
X176715000Y-131810000D02*
X171145000Y-134900000D01*
X171355000Y-128960000D02*
X176315000Y-129770000D01*
X182405000Y-127780000D02*
X182405000Y-119380000D01*
X171445000Y-127790000D02*
X182405000Y-127780000D01*
X195675000Y-128960000D02*
X190715000Y-129770000D01*
X195585000Y-127790000D02*
X184625000Y-127780000D01*
X190315000Y-131810000D02*
X195885000Y-134900000D01*
X195555000Y-135990000D02*
X192565000Y-135240000D01*
X192415000Y-135490000D02*
X196005000Y-139520000D01*
X195085000Y-140270000D02*
X190105000Y-136020000D01*
X189885000Y-136190000D02*
X191105000Y-139750000D01*
X190045000Y-140270000D02*
X185035000Y-133760000D01*
X184625000Y-127780000D02*
X184625000Y-119380000D01*
X171445000Y-110970000D02*
X182405000Y-110980000D01*
X171355000Y-109800000D02*
X176315000Y-108990000D01*
X176715000Y-106950000D02*
X171145000Y-103860000D01*
X195585000Y-110970000D02*
X184625000Y-110980000D01*
X195675000Y-109800000D02*
X190715000Y-108990000D01*
X190315000Y-106950000D02*
X195885000Y-103860000D01*
X177145000Y-102570000D02*
X175925000Y-99010000D01*
X176985000Y-98490000D02*
X181995000Y-105000000D01*
X195555000Y-102770000D02*
X192565000Y-103520000D01*
X192415000Y-103270000D02*
X196005000Y-99240000D01*
X174615000Y-103270000D02*
X171025000Y-99240000D01*
X171475000Y-102770000D02*
X174465000Y-103520000D01*
X171945000Y-98490000D02*
X176925000Y-102740000D01*
X195085000Y-98490000D02*
X190105000Y-102740000D01*
X189885000Y-102570000D02*
X191105000Y-99010000D01*
X190045000Y-98490000D02*
X185035000Y-105000000D01*
X184625000Y-110980000D02*
X184625000Y-119380000D01*
X182405000Y-110980000D02*
X182405000Y-119380000D01*
X176276577Y-129758725D02*
G75*
G02*
X176705000Y-131810000I-291577J-1131275D01*
G01*
X171376715Y-128958367D02*
G75*
G02*
X171475000Y-127790000I118285J578367D01*
G01*
X171484286Y-135987254D02*
G75*
G02*
X171155000Y-134890000I30714J607254D01*
G01*
X171945005Y-140263568D02*
G75*
G02*
X171045000Y-139500000I-440005J393568D01*
G01*
X176985923Y-140262010D02*
G75*
G02*
X175925000Y-139740000I-470923J382010D01*
G01*
X174441968Y-135242646D02*
G75*
G02*
X174625000Y-135490000I73032J-137354D01*
G01*
X176922156Y-136021005D02*
G75*
G02*
X177145000Y-136190000I92844J-108995D01*
G01*
X195652659Y-128958495D02*
G75*
G03*
X195555000Y-127790000I-117659J578495D01*
G01*
X190754338Y-129758489D02*
G75*
G03*
X190325000Y-131810000I290662J-1131511D01*
G01*
X192588206Y-135242739D02*
G75*
G03*
X192405000Y-135490000I-73206J-137261D01*
G01*
X190107846Y-136021006D02*
G75*
G03*
X189885000Y-136190000I-92846J-108994D01*
G01*
X190043458Y-140261246D02*
G75*
G03*
X191105000Y-139740000I471542J381246D01*
G01*
X195544866Y-135987296D02*
G75*
G03*
X195875000Y-134890000I-29866J607296D01*
G01*
X195084810Y-140263361D02*
G75*
G03*
X195985000Y-139500000I440190J393361D01*
G01*
X176275662Y-109001511D02*
G75*
G03*
X176705000Y-106950000I-290662J1131511D01*
G01*
X171377341Y-109801505D02*
G75*
G03*
X171475000Y-110970000I117659J-578495D01*
G01*
X195653285Y-109801633D02*
G75*
G02*
X195555000Y-110970000I-118285J-578367D01*
G01*
X190753423Y-109001275D02*
G75*
G02*
X190325000Y-106950000I291577J1131275D01*
G01*
X176986542Y-98498754D02*
G75*
G03*
X175925000Y-99020000I-471542J-381246D01*
G01*
X176922154Y-102738994D02*
G75*
G03*
X177145000Y-102570000I92846J108994D01*
G01*
X195545714Y-102772746D02*
G75*
G02*
X195875000Y-103870000I-30714J-607254D01*
G01*
X192588032Y-103517354D02*
G75*
G02*
X192405000Y-103270000I-73032J137354D01*
G01*
X195084995Y-98496432D02*
G75*
G02*
X195985000Y-99260000I440005J-393568D01*
G01*
X174441794Y-103517261D02*
G75*
G03*
X174625000Y-103270000I73206J137261D01*
G01*
X171485134Y-102772704D02*
G75*
G03*
X171155000Y-103870000I29866J-607296D01*
G01*
X171945190Y-98496639D02*
G75*
G03*
X171045000Y-99260000I-440190J-393361D01*
G01*
X190107844Y-102738995D02*
G75*
G02*
X189885000Y-102570000I-92844J108995D01*
G01*
X190044077Y-98497990D02*
G75*
G02*
X191105000Y-99020000I470923J-382010D01*
G01*
%TO.C,L7805*%
X149370000Y-93505000D02*
X140970000Y-93505000D01*
X149370000Y-95725000D02*
X140970000Y-95725000D01*
X161860000Y-101145000D02*
X155350000Y-96135000D01*
X157780000Y-100985000D02*
X161340000Y-102205000D01*
X161860000Y-106185000D02*
X157610000Y-101205000D01*
X161860000Y-83045000D02*
X157610000Y-88025000D01*
X157580000Y-82575000D02*
X156830000Y-85565000D01*
X157080000Y-85715000D02*
X161110000Y-82125000D01*
X157080000Y-103515000D02*
X161110000Y-107105000D01*
X157580000Y-106655000D02*
X156830000Y-103665000D01*
X161860000Y-88085000D02*
X155350000Y-93095000D01*
X157780000Y-88245000D02*
X161340000Y-87025000D01*
X153400000Y-101415000D02*
X156490000Y-106985000D01*
X150550000Y-106775000D02*
X151360000Y-101815000D01*
X149380000Y-106685000D02*
X149370000Y-95725000D01*
X153400000Y-87815000D02*
X156490000Y-82245000D01*
X150550000Y-82455000D02*
X151360000Y-87415000D01*
X149380000Y-82545000D02*
X149370000Y-93505000D01*
X132570000Y-95725000D02*
X140970000Y-95725000D01*
X120080000Y-101145000D02*
X126590000Y-96135000D01*
X124160000Y-100985000D02*
X120600000Y-102205000D01*
X120080000Y-106185000D02*
X124330000Y-101205000D01*
X124860000Y-103515000D02*
X120830000Y-107105000D01*
X124360000Y-106655000D02*
X125110000Y-103665000D01*
X128540000Y-101415000D02*
X125450000Y-106985000D01*
X132560000Y-106685000D02*
X132570000Y-95725000D01*
X131390000Y-106775000D02*
X130580000Y-101815000D01*
X132560000Y-82545000D02*
X132570000Y-93505000D01*
X132570000Y-93505000D02*
X140970000Y-93505000D01*
X131390000Y-82455000D02*
X130580000Y-87415000D01*
X128540000Y-87815000D02*
X125450000Y-82245000D01*
X124360000Y-82575000D02*
X125110000Y-85565000D01*
X124860000Y-85715000D02*
X120830000Y-82125000D01*
X120080000Y-83045000D02*
X124330000Y-88025000D01*
X124160000Y-88245000D02*
X120600000Y-87025000D01*
X120080000Y-88085000D02*
X126590000Y-93095000D01*
X161852010Y-101144077D02*
G75*
G02*
X161330000Y-102205000I-382010J-470923D01*
G01*
X157611005Y-101207844D02*
G75*
G02*
X157780000Y-100985000I108995J92844D01*
G01*
X161853361Y-83045190D02*
G75*
G03*
X161090000Y-82145000I-393361J440190D01*
G01*
X157577296Y-82585134D02*
G75*
G03*
X156480000Y-82255000I-607296J-29866D01*
G01*
X156832739Y-85541794D02*
G75*
G03*
X157080000Y-85725000I137261J-73206D01*
G01*
X161853568Y-106184995D02*
G75*
G02*
X161090000Y-107085000I-393568J-440005D01*
G01*
X156832646Y-103688032D02*
G75*
G02*
X157080000Y-103505000I137354J73032D01*
G01*
X157577254Y-106645714D02*
G75*
G02*
X156480000Y-106975000I-607254J30714D01*
G01*
X157611006Y-88022154D02*
G75*
G03*
X157780000Y-88245000I108994J-92846D01*
G01*
X161851246Y-88086542D02*
G75*
G03*
X161330000Y-87025000I-381246J471542D01*
G01*
X151348725Y-101853423D02*
G75*
G02*
X153400000Y-101425000I1131275J-291577D01*
G01*
X150548367Y-106753285D02*
G75*
G02*
X149380000Y-106655000I-578367J118285D01*
G01*
X150548495Y-82477341D02*
G75*
G03*
X149380000Y-82575000I-578495J-117659D01*
G01*
X151348489Y-87375662D02*
G75*
G03*
X153400000Y-87805000I1131511J290662D01*
G01*
X120086639Y-106184810D02*
G75*
G03*
X120850000Y-107085000I393361J-440190D01*
G01*
X124362704Y-106644866D02*
G75*
G03*
X125460000Y-106975000I607296J29866D01*
G01*
X120088754Y-101143458D02*
G75*
G03*
X120610000Y-102205000I381246J-471542D01*
G01*
X124328994Y-101207846D02*
G75*
G03*
X124160000Y-100985000I-108994J92846D01*
G01*
X125107261Y-103688206D02*
G75*
G03*
X124860000Y-103505000I-137261J73206D01*
G01*
X130591511Y-101854338D02*
G75*
G03*
X128540000Y-101425000I-1131511J-290662D01*
G01*
X131391505Y-106752659D02*
G75*
G03*
X132560000Y-106655000I578495J117659D01*
G01*
X124328995Y-88022156D02*
G75*
G02*
X124160000Y-88245000I-108995J-92844D01*
G01*
X125107354Y-85541968D02*
G75*
G02*
X124860000Y-85725000I-137354J-73032D01*
G01*
X120087990Y-88085923D02*
G75*
G02*
X120610000Y-87025000I382010J470923D01*
G01*
X120086432Y-83045005D02*
G75*
G02*
X120850000Y-82145000I393568J440005D01*
G01*
X124362746Y-82584286D02*
G75*
G02*
X125460000Y-82255000I607254J-30714D01*
G01*
X131391633Y-82476715D02*
G75*
G02*
X132560000Y-82575000I578367J-118285D01*
G01*
X130591275Y-87376577D02*
G75*
G02*
X128540000Y-87805000I-1131275J291577D01*
G01*
%TO.C,C1*%
X123420000Y-110690000D02*
X127960000Y-110690000D01*
X123420000Y-112830000D02*
X127960000Y-112830000D01*
X123420000Y-110690000D02*
X123420000Y-110705000D01*
X123420000Y-112815000D02*
X123420000Y-112830000D01*
X127960000Y-110690000D02*
X127960000Y-110705000D01*
X127960000Y-112815000D02*
X127960000Y-112830000D01*
%TO.C,C2*%
X138740000Y-108800000D02*
X138740000Y-108785000D01*
X138740000Y-110925000D02*
X138740000Y-110910000D01*
X143280000Y-108800000D02*
X143280000Y-108785000D01*
X143280000Y-110925000D02*
X143280000Y-110910000D01*
X143280000Y-108785000D02*
X138740000Y-108785000D01*
X143280000Y-110925000D02*
X138740000Y-110925000D01*
%TO.C,C3*%
X123420000Y-118310000D02*
X127960000Y-118310000D01*
X123420000Y-120450000D02*
X127960000Y-120450000D01*
X123420000Y-118310000D02*
X123420000Y-118325000D01*
X123420000Y-120435000D02*
X123420000Y-120450000D01*
X127960000Y-118310000D02*
X127960000Y-118325000D01*
X127960000Y-120435000D02*
X127960000Y-120450000D01*
%TO.C,C4*%
X167205000Y-121690000D02*
X167205000Y-117150000D01*
X169345000Y-121690000D02*
X169345000Y-117150000D01*
X167205000Y-121690000D02*
X167220000Y-121690000D01*
X169330000Y-121690000D02*
X169345000Y-121690000D01*
X167205000Y-117150000D02*
X167220000Y-117150000D01*
X169330000Y-117150000D02*
X169345000Y-117150000D01*
%TO.C,C5*%
X128287288Y-128335000D02*
X127837288Y-128335000D01*
X128062288Y-128560000D02*
X128062288Y-128110000D01*
X127869740Y-125940000D02*
G75*
G03*
X127869741Y-128060000I-2119740J-1060000D01*
G01*
%TO.C,C6*%
X143570000Y-128905000D02*
G75*
G03*
X143570000Y-128905000I-2620000J0D01*
G01*
X140950000Y-126325000D02*
X140950000Y-131485000D01*
X140990000Y-126325000D02*
X140990000Y-131485000D01*
X141030000Y-126326000D02*
X141030000Y-131484000D01*
X141070000Y-126327000D02*
X141070000Y-131483000D01*
X141110000Y-126329000D02*
X141110000Y-131481000D01*
X141150000Y-126332000D02*
X141150000Y-131478000D01*
X141190000Y-126336000D02*
X141190000Y-127865000D01*
X141190000Y-129945000D02*
X141190000Y-131474000D01*
X141230000Y-126340000D02*
X141230000Y-127865000D01*
X141230000Y-129945000D02*
X141230000Y-131470000D01*
X141270000Y-126344000D02*
X141270000Y-127865000D01*
X141270000Y-129945000D02*
X141270000Y-131466000D01*
X141310000Y-126349000D02*
X141310000Y-127865000D01*
X141310000Y-129945000D02*
X141310000Y-131461000D01*
X141350000Y-126355000D02*
X141350000Y-127865000D01*
X141350000Y-129945000D02*
X141350000Y-131455000D01*
X141390000Y-126362000D02*
X141390000Y-127865000D01*
X141390000Y-129945000D02*
X141390000Y-131448000D01*
X141430000Y-126369000D02*
X141430000Y-127865000D01*
X141430000Y-129945000D02*
X141430000Y-131441000D01*
X141470000Y-126377000D02*
X141470000Y-127865000D01*
X141470000Y-129945000D02*
X141470000Y-131433000D01*
X141510000Y-126385000D02*
X141510000Y-127865000D01*
X141510000Y-129945000D02*
X141510000Y-131425000D01*
X141550000Y-126394000D02*
X141550000Y-127865000D01*
X141550000Y-129945000D02*
X141550000Y-131416000D01*
X141590000Y-126404000D02*
X141590000Y-127865000D01*
X141590000Y-129945000D02*
X141590000Y-131406000D01*
X141630000Y-126414000D02*
X141630000Y-127865000D01*
X141630000Y-129945000D02*
X141630000Y-131396000D01*
X141671000Y-126425000D02*
X141671000Y-127865000D01*
X141671000Y-129945000D02*
X141671000Y-131385000D01*
X141711000Y-126437000D02*
X141711000Y-127865000D01*
X141711000Y-129945000D02*
X141711000Y-131373000D01*
X141751000Y-126450000D02*
X141751000Y-127865000D01*
X141751000Y-129945000D02*
X141751000Y-131360000D01*
X141791000Y-126463000D02*
X141791000Y-127865000D01*
X141791000Y-129945000D02*
X141791000Y-131347000D01*
X141831000Y-126477000D02*
X141831000Y-127865000D01*
X141831000Y-129945000D02*
X141831000Y-131333000D01*
X141871000Y-126491000D02*
X141871000Y-127865000D01*
X141871000Y-129945000D02*
X141871000Y-131319000D01*
X141911000Y-126507000D02*
X141911000Y-127865000D01*
X141911000Y-129945000D02*
X141911000Y-131303000D01*
X141951000Y-126523000D02*
X141951000Y-127865000D01*
X141951000Y-129945000D02*
X141951000Y-131287000D01*
X141991000Y-126540000D02*
X141991000Y-127865000D01*
X141991000Y-129945000D02*
X141991000Y-131270000D01*
X142031000Y-126557000D02*
X142031000Y-127865000D01*
X142031000Y-129945000D02*
X142031000Y-131253000D01*
X142071000Y-126576000D02*
X142071000Y-127865000D01*
X142071000Y-129945000D02*
X142071000Y-131234000D01*
X142111000Y-126595000D02*
X142111000Y-127865000D01*
X142111000Y-129945000D02*
X142111000Y-131215000D01*
X142151000Y-126615000D02*
X142151000Y-127865000D01*
X142151000Y-129945000D02*
X142151000Y-131195000D01*
X142191000Y-126637000D02*
X142191000Y-127865000D01*
X142191000Y-129945000D02*
X142191000Y-131173000D01*
X142231000Y-126658000D02*
X142231000Y-127865000D01*
X142231000Y-129945000D02*
X142231000Y-131152000D01*
X142271000Y-126681000D02*
X142271000Y-127865000D01*
X142271000Y-129945000D02*
X142271000Y-131129000D01*
X142311000Y-126705000D02*
X142311000Y-127865000D01*
X142311000Y-129945000D02*
X142311000Y-131105000D01*
X142351000Y-126730000D02*
X142351000Y-127865000D01*
X142351000Y-129945000D02*
X142351000Y-131080000D01*
X142391000Y-126756000D02*
X142391000Y-127865000D01*
X142391000Y-129945000D02*
X142391000Y-131054000D01*
X142431000Y-126783000D02*
X142431000Y-127865000D01*
X142431000Y-129945000D02*
X142431000Y-131027000D01*
X142471000Y-126810000D02*
X142471000Y-127865000D01*
X142471000Y-129945000D02*
X142471000Y-131000000D01*
X142511000Y-126840000D02*
X142511000Y-127865000D01*
X142511000Y-129945000D02*
X142511000Y-130970000D01*
X142551000Y-126870000D02*
X142551000Y-127865000D01*
X142551000Y-129945000D02*
X142551000Y-130940000D01*
X142591000Y-126901000D02*
X142591000Y-127865000D01*
X142591000Y-129945000D02*
X142591000Y-130909000D01*
X142631000Y-126934000D02*
X142631000Y-127865000D01*
X142631000Y-129945000D02*
X142631000Y-130876000D01*
X142671000Y-126968000D02*
X142671000Y-127865000D01*
X142671000Y-129945000D02*
X142671000Y-130842000D01*
X142711000Y-127004000D02*
X142711000Y-127865000D01*
X142711000Y-129945000D02*
X142711000Y-130806000D01*
X142751000Y-127041000D02*
X142751000Y-127865000D01*
X142751000Y-129945000D02*
X142751000Y-130769000D01*
X142791000Y-127079000D02*
X142791000Y-127865000D01*
X142791000Y-129945000D02*
X142791000Y-130731000D01*
X142831000Y-127120000D02*
X142831000Y-127865000D01*
X142831000Y-129945000D02*
X142831000Y-130690000D01*
X142871000Y-127162000D02*
X142871000Y-127865000D01*
X142871000Y-129945000D02*
X142871000Y-130648000D01*
X142911000Y-127206000D02*
X142911000Y-127865000D01*
X142911000Y-129945000D02*
X142911000Y-130604000D01*
X142951000Y-127252000D02*
X142951000Y-127865000D01*
X142951000Y-129945000D02*
X142951000Y-130558000D01*
X142991000Y-127300000D02*
X142991000Y-127865000D01*
X142991000Y-129945000D02*
X142991000Y-130510000D01*
X143031000Y-127351000D02*
X143031000Y-127865000D01*
X143031000Y-129945000D02*
X143031000Y-130459000D01*
X143071000Y-127405000D02*
X143071000Y-127865000D01*
X143071000Y-129945000D02*
X143071000Y-130405000D01*
X143111000Y-127462000D02*
X143111000Y-127865000D01*
X143111000Y-129945000D02*
X143111000Y-130348000D01*
X143151000Y-127522000D02*
X143151000Y-127865000D01*
X143151000Y-129945000D02*
X143151000Y-130288000D01*
X143191000Y-127586000D02*
X143191000Y-127865000D01*
X143191000Y-129945000D02*
X143191000Y-130224000D01*
X143231000Y-127654000D02*
X143231000Y-127865000D01*
X143231000Y-129945000D02*
X143231000Y-130156000D01*
X143271000Y-127727000D02*
X143271000Y-130083000D01*
X143311000Y-127807000D02*
X143311000Y-130003000D01*
X143351000Y-127894000D02*
X143351000Y-129916000D01*
X143391000Y-127990000D02*
X143391000Y-129820000D01*
X143431000Y-128100000D02*
X143431000Y-129710000D01*
X143471000Y-128228000D02*
X143471000Y-129582000D01*
X143511000Y-128387000D02*
X143511000Y-129423000D01*
X143551000Y-128621000D02*
X143551000Y-129189000D01*
X138145225Y-127430000D02*
X138645225Y-127430000D01*
X138395225Y-127180000D02*
X138395225Y-127680000D01*
%TO.C,D1*%
X143690000Y-116710000D02*
X143690000Y-117040000D01*
X143690000Y-117040000D02*
X138250000Y-117040000D01*
X138250000Y-117040000D02*
X138250000Y-116710000D01*
X143690000Y-114430000D02*
X143690000Y-114100000D01*
X143690000Y-114100000D02*
X138250000Y-114100000D01*
X138250000Y-114100000D02*
X138250000Y-114430000D01*
X142790000Y-117040000D02*
X142790000Y-114100000D01*
X142670000Y-117040000D02*
X142670000Y-114100000D01*
X142910000Y-117040000D02*
X142910000Y-114100000D01*
%TO.C,D2*%
X162690000Y-122100000D02*
X162360000Y-122100000D01*
X162360000Y-122100000D02*
X162360000Y-116660000D01*
X162360000Y-116660000D02*
X162690000Y-116660000D01*
X164970000Y-122100000D02*
X165300000Y-122100000D01*
X165300000Y-122100000D02*
X165300000Y-116660000D01*
X165300000Y-116660000D02*
X164970000Y-116660000D01*
X162360000Y-121200000D02*
X165300000Y-121200000D01*
X162360000Y-121080000D02*
X165300000Y-121080000D01*
X162360000Y-121320000D02*
X165300000Y-121320000D01*
%TO.C,D3*%
X139030000Y-121720000D02*
X139030000Y-124660000D01*
X139270000Y-121720000D02*
X139270000Y-124660000D01*
X139150000Y-121720000D02*
X139150000Y-124660000D01*
X143690000Y-124660000D02*
X143690000Y-124330000D01*
X138250000Y-124660000D02*
X143690000Y-124660000D01*
X138250000Y-124330000D02*
X138250000Y-124660000D01*
X143690000Y-121720000D02*
X143690000Y-122050000D01*
X138250000Y-121720000D02*
X143690000Y-121720000D01*
X138250000Y-122050000D02*
X138250000Y-121720000D01*
%TO.C,J1*%
X119380000Y-109220000D02*
X111760000Y-109220000D01*
X111760000Y-129540000D02*
X119380000Y-129540000D01*
X113030000Y-129540000D02*
X113030000Y-109220000D01*
X119380000Y-109220000D02*
X119380000Y-129540000D01*
X111760000Y-109220000D02*
X111760000Y-129540000D01*
%TO.C,U1*%
X135850000Y-94520000D02*
X146090000Y-94520000D01*
X135850000Y-99161000D02*
X146090000Y-99161000D01*
X135850000Y-94520000D02*
X135850000Y-99161000D01*
X146090000Y-94520000D02*
X146090000Y-99161000D01*
X135850000Y-96030000D02*
X146090000Y-96030000D01*
X139120000Y-94520000D02*
X139120000Y-96030000D01*
X142821000Y-94520000D02*
X142821000Y-96030000D01*
%TO.C,U2*%
X183610000Y-114260000D02*
X183610000Y-124500000D01*
X178969000Y-114260000D02*
X178969000Y-124500000D01*
X183610000Y-114260000D02*
X178969000Y-114260000D01*
X183610000Y-124500000D02*
X178969000Y-124500000D01*
X182100000Y-114260000D02*
X182100000Y-124500000D01*
X183610000Y-117530000D02*
X182100000Y-117530000D01*
X183610000Y-121231000D02*
X182100000Y-121231000D01*
%TO.C,U3*%
X142821000Y-144685000D02*
X142821000Y-146195000D01*
X139120000Y-144685000D02*
X139120000Y-146195000D01*
X135850000Y-146195000D02*
X146090000Y-146195000D01*
X146090000Y-144685000D02*
X146090000Y-149326000D01*
X135850000Y-144685000D02*
X135850000Y-149326000D01*
X135850000Y-149326000D02*
X146090000Y-149326000D01*
X135850000Y-144685000D02*
X146090000Y-144685000D01*
%TO.C,J2*%
X212665000Y-115630000D02*
X217865000Y-115630000D01*
X212665000Y-97790000D02*
X212665000Y-115630000D01*
X217865000Y-95190000D02*
X217865000Y-115630000D01*
X212665000Y-97790000D02*
X215265000Y-97790000D01*
X215265000Y-97790000D02*
X215265000Y-95190000D01*
X215265000Y-95190000D02*
X217865000Y-95190000D01*
X212665000Y-96520000D02*
X212665000Y-95190000D01*
X212665000Y-95190000D02*
X213995000Y-95190000D01*
%TO.C,J3*%
X217865000Y-144840000D02*
X216535000Y-144840000D01*
X217865000Y-143510000D02*
X217865000Y-144840000D01*
X215265000Y-144840000D02*
X212665000Y-144840000D01*
X215265000Y-142240000D02*
X215265000Y-144840000D01*
X217865000Y-142240000D02*
X215265000Y-142240000D01*
X212665000Y-144840000D02*
X212665000Y-124400000D01*
X217865000Y-142240000D02*
X217865000Y-124400000D01*
X217865000Y-124400000D02*
X212665000Y-124400000D01*
%TO.C,J4*%
X184210000Y-150435000D02*
X184210000Y-151765000D01*
X182880000Y-150435000D02*
X184210000Y-150435000D01*
X181610000Y-150435000D02*
X181610000Y-153095000D01*
X181610000Y-153095000D02*
X179010000Y-153095000D01*
X181610000Y-150435000D02*
X179010000Y-150435000D01*
X179010000Y-150435000D02*
X179010000Y-153095000D01*
%TO.C,m3*%
D10*
X213090238Y-148017380D02*
X213090238Y-147350714D01*
X213090238Y-147445952D02*
X213137857Y-147398333D01*
X213233095Y-147350714D01*
X213375952Y-147350714D01*
X213471190Y-147398333D01*
X213518809Y-147493571D01*
X213518809Y-148017380D01*
X213518809Y-147493571D02*
X213566428Y-147398333D01*
X213661666Y-147350714D01*
X213804523Y-147350714D01*
X213899761Y-147398333D01*
X213947380Y-147493571D01*
X213947380Y-148017380D01*
X214328333Y-147017380D02*
X214947380Y-147017380D01*
X214614047Y-147398333D01*
X214756904Y-147398333D01*
X214852142Y-147445952D01*
X214899761Y-147493571D01*
X214947380Y-147588809D01*
X214947380Y-147826904D01*
X214899761Y-147922142D01*
X214852142Y-147969761D01*
X214756904Y-148017380D01*
X214471190Y-148017380D01*
X214375952Y-147969761D01*
X214328333Y-147922142D01*
X112760238Y-148017380D02*
X112760238Y-147350714D01*
X112760238Y-147445952D02*
X112807857Y-147398333D01*
X112903095Y-147350714D01*
X113045952Y-147350714D01*
X113141190Y-147398333D01*
X113188809Y-147493571D01*
X113188809Y-148017380D01*
X113188809Y-147493571D02*
X113236428Y-147398333D01*
X113331666Y-147350714D01*
X113474523Y-147350714D01*
X113569761Y-147398333D01*
X113617380Y-147493571D01*
X113617380Y-148017380D01*
X113998333Y-147017380D02*
X114617380Y-147017380D01*
X114284047Y-147398333D01*
X114426904Y-147398333D01*
X114522142Y-147445952D01*
X114569761Y-147493571D01*
X114617380Y-147588809D01*
X114617380Y-147826904D01*
X114569761Y-147922142D01*
X114522142Y-147969761D01*
X114426904Y-148017380D01*
X114141190Y-148017380D01*
X114045952Y-147969761D01*
X113998333Y-147922142D01*
X112760238Y-83882380D02*
X112760238Y-83215714D01*
X112760238Y-83310952D02*
X112807857Y-83263333D01*
X112903095Y-83215714D01*
X113045952Y-83215714D01*
X113141190Y-83263333D01*
X113188809Y-83358571D01*
X113188809Y-83882380D01*
X113188809Y-83358571D02*
X113236428Y-83263333D01*
X113331666Y-83215714D01*
X113474523Y-83215714D01*
X113569761Y-83263333D01*
X113617380Y-83358571D01*
X113617380Y-83882380D01*
X113998333Y-82882380D02*
X114617380Y-82882380D01*
X114284047Y-83263333D01*
X114426904Y-83263333D01*
X114522142Y-83310952D01*
X114569761Y-83358571D01*
X114617380Y-83453809D01*
X114617380Y-83691904D01*
X114569761Y-83787142D01*
X114522142Y-83834761D01*
X114426904Y-83882380D01*
X114141190Y-83882380D01*
X114045952Y-83834761D01*
X113998333Y-83787142D01*
X213090238Y-83882380D02*
X213090238Y-83215714D01*
X213090238Y-83310952D02*
X213137857Y-83263333D01*
X213233095Y-83215714D01*
X213375952Y-83215714D01*
X213471190Y-83263333D01*
X213518809Y-83358571D01*
X213518809Y-83882380D01*
X213518809Y-83358571D02*
X213566428Y-83263333D01*
X213661666Y-83215714D01*
X213804523Y-83215714D01*
X213899761Y-83263333D01*
X213947380Y-83358571D01*
X213947380Y-83882380D01*
X214328333Y-82882380D02*
X214947380Y-82882380D01*
X214614047Y-83263333D01*
X214756904Y-83263333D01*
X214852142Y-83310952D01*
X214899761Y-83358571D01*
X214947380Y-83453809D01*
X214947380Y-83691904D01*
X214899761Y-83787142D01*
X214852142Y-83834761D01*
X214756904Y-83882380D01*
X214471190Y-83882380D01*
X214375952Y-83834761D01*
X214328333Y-83787142D01*
%TO.C,L7912*%
X139374761Y-150947380D02*
X138898571Y-150947380D01*
X138898571Y-149947380D01*
X139612857Y-149947380D02*
X140279523Y-149947380D01*
X139850952Y-150947380D01*
X140708095Y-150947380D02*
X140898571Y-150947380D01*
X140993809Y-150899761D01*
X141041428Y-150852142D01*
X141136666Y-150709285D01*
X141184285Y-150518809D01*
X141184285Y-150137857D01*
X141136666Y-150042619D01*
X141089047Y-149995000D01*
X140993809Y-149947380D01*
X140803333Y-149947380D01*
X140708095Y-149995000D01*
X140660476Y-150042619D01*
X140612857Y-150137857D01*
X140612857Y-150375952D01*
X140660476Y-150471190D01*
X140708095Y-150518809D01*
X140803333Y-150566428D01*
X140993809Y-150566428D01*
X141089047Y-150518809D01*
X141136666Y-150471190D01*
X141184285Y-150375952D01*
X142136666Y-150947380D02*
X141565238Y-150947380D01*
X141850952Y-150947380D02*
X141850952Y-149947380D01*
X141755714Y-150090238D01*
X141660476Y-150185476D01*
X141565238Y-150233095D01*
X142517619Y-150042619D02*
X142565238Y-149995000D01*
X142660476Y-149947380D01*
X142898571Y-149947380D01*
X142993809Y-149995000D01*
X143041428Y-150042619D01*
X143089047Y-150137857D01*
X143089047Y-150233095D01*
X143041428Y-150375952D01*
X142470000Y-150947380D01*
X143089047Y-150947380D01*
%TO.C,L7812*%
X178252380Y-120975238D02*
X178252380Y-121451428D01*
X177252380Y-121451428D01*
X177252380Y-120737142D02*
X177252380Y-120070476D01*
X178252380Y-120499047D01*
X177680952Y-119546666D02*
X177633333Y-119641904D01*
X177585714Y-119689523D01*
X177490476Y-119737142D01*
X177442857Y-119737142D01*
X177347619Y-119689523D01*
X177300000Y-119641904D01*
X177252380Y-119546666D01*
X177252380Y-119356190D01*
X177300000Y-119260952D01*
X177347619Y-119213333D01*
X177442857Y-119165714D01*
X177490476Y-119165714D01*
X177585714Y-119213333D01*
X177633333Y-119260952D01*
X177680952Y-119356190D01*
X177680952Y-119546666D01*
X177728571Y-119641904D01*
X177776190Y-119689523D01*
X177871428Y-119737142D01*
X178061904Y-119737142D01*
X178157142Y-119689523D01*
X178204761Y-119641904D01*
X178252380Y-119546666D01*
X178252380Y-119356190D01*
X178204761Y-119260952D01*
X178157142Y-119213333D01*
X178061904Y-119165714D01*
X177871428Y-119165714D01*
X177776190Y-119213333D01*
X177728571Y-119260952D01*
X177680952Y-119356190D01*
X178252380Y-118213333D02*
X178252380Y-118784761D01*
X178252380Y-118499047D02*
X177252380Y-118499047D01*
X177395238Y-118594285D01*
X177490476Y-118689523D01*
X177538095Y-118784761D01*
X177347619Y-117832380D02*
X177300000Y-117784761D01*
X177252380Y-117689523D01*
X177252380Y-117451428D01*
X177300000Y-117356190D01*
X177347619Y-117308571D01*
X177442857Y-117260952D01*
X177538095Y-117260952D01*
X177680952Y-117308571D01*
X178252380Y-117880000D01*
X178252380Y-117260952D01*
%TO.C,L7805*%
X139374761Y-100782380D02*
X138898571Y-100782380D01*
X138898571Y-99782380D01*
X139612857Y-99782380D02*
X140279523Y-99782380D01*
X139850952Y-100782380D01*
X140803333Y-100210952D02*
X140708095Y-100163333D01*
X140660476Y-100115714D01*
X140612857Y-100020476D01*
X140612857Y-99972857D01*
X140660476Y-99877619D01*
X140708095Y-99830000D01*
X140803333Y-99782380D01*
X140993809Y-99782380D01*
X141089047Y-99830000D01*
X141136666Y-99877619D01*
X141184285Y-99972857D01*
X141184285Y-100020476D01*
X141136666Y-100115714D01*
X141089047Y-100163333D01*
X140993809Y-100210952D01*
X140803333Y-100210952D01*
X140708095Y-100258571D01*
X140660476Y-100306190D01*
X140612857Y-100401428D01*
X140612857Y-100591904D01*
X140660476Y-100687142D01*
X140708095Y-100734761D01*
X140803333Y-100782380D01*
X140993809Y-100782380D01*
X141089047Y-100734761D01*
X141136666Y-100687142D01*
X141184285Y-100591904D01*
X141184285Y-100401428D01*
X141136666Y-100306190D01*
X141089047Y-100258571D01*
X140993809Y-100210952D01*
X141803333Y-99782380D02*
X141898571Y-99782380D01*
X141993809Y-99830000D01*
X142041428Y-99877619D01*
X142089047Y-99972857D01*
X142136666Y-100163333D01*
X142136666Y-100401428D01*
X142089047Y-100591904D01*
X142041428Y-100687142D01*
X141993809Y-100734761D01*
X141898571Y-100782380D01*
X141803333Y-100782380D01*
X141708095Y-100734761D01*
X141660476Y-100687142D01*
X141612857Y-100591904D01*
X141565238Y-100401428D01*
X141565238Y-100163333D01*
X141612857Y-99972857D01*
X141660476Y-99877619D01*
X141708095Y-99830000D01*
X141803333Y-99782380D01*
X143041428Y-99782380D02*
X142565238Y-99782380D01*
X142517619Y-100258571D01*
X142565238Y-100210952D01*
X142660476Y-100163333D01*
X142898571Y-100163333D01*
X142993809Y-100210952D01*
X143041428Y-100258571D01*
X143089047Y-100353809D01*
X143089047Y-100591904D01*
X143041428Y-100687142D01*
X142993809Y-100734761D01*
X142898571Y-100782380D01*
X142660476Y-100782380D01*
X142565238Y-100734761D01*
X142517619Y-100687142D01*
%TO.C,C1*%
X125523333Y-109917142D02*
X125475714Y-109964761D01*
X125332857Y-110012380D01*
X125237619Y-110012380D01*
X125094761Y-109964761D01*
X124999523Y-109869523D01*
X124951904Y-109774285D01*
X124904285Y-109583809D01*
X124904285Y-109440952D01*
X124951904Y-109250476D01*
X124999523Y-109155238D01*
X125094761Y-109060000D01*
X125237619Y-109012380D01*
X125332857Y-109012380D01*
X125475714Y-109060000D01*
X125523333Y-109107619D01*
X126475714Y-110012380D02*
X125904285Y-110012380D01*
X126190000Y-110012380D02*
X126190000Y-109012380D01*
X126094761Y-109155238D01*
X125999523Y-109250476D01*
X125904285Y-109298095D01*
%TO.C,C2*%
X140843333Y-112412142D02*
X140795714Y-112459761D01*
X140652857Y-112507380D01*
X140557619Y-112507380D01*
X140414761Y-112459761D01*
X140319523Y-112364523D01*
X140271904Y-112269285D01*
X140224285Y-112078809D01*
X140224285Y-111935952D01*
X140271904Y-111745476D01*
X140319523Y-111650238D01*
X140414761Y-111555000D01*
X140557619Y-111507380D01*
X140652857Y-111507380D01*
X140795714Y-111555000D01*
X140843333Y-111602619D01*
X141224285Y-111602619D02*
X141271904Y-111555000D01*
X141367142Y-111507380D01*
X141605238Y-111507380D01*
X141700476Y-111555000D01*
X141748095Y-111602619D01*
X141795714Y-111697857D01*
X141795714Y-111793095D01*
X141748095Y-111935952D01*
X141176666Y-112507380D01*
X141795714Y-112507380D01*
%TO.C,C3*%
X125523333Y-117537142D02*
X125475714Y-117584761D01*
X125332857Y-117632380D01*
X125237619Y-117632380D01*
X125094761Y-117584761D01*
X124999523Y-117489523D01*
X124951904Y-117394285D01*
X124904285Y-117203809D01*
X124904285Y-117060952D01*
X124951904Y-116870476D01*
X124999523Y-116775238D01*
X125094761Y-116680000D01*
X125237619Y-116632380D01*
X125332857Y-116632380D01*
X125475714Y-116680000D01*
X125523333Y-116727619D01*
X125856666Y-116632380D02*
X126475714Y-116632380D01*
X126142380Y-117013333D01*
X126285238Y-117013333D01*
X126380476Y-117060952D01*
X126428095Y-117108571D01*
X126475714Y-117203809D01*
X126475714Y-117441904D01*
X126428095Y-117537142D01*
X126380476Y-117584761D01*
X126285238Y-117632380D01*
X125999523Y-117632380D01*
X125904285Y-117584761D01*
X125856666Y-117537142D01*
%TO.C,C4*%
X166432142Y-119586666D02*
X166479761Y-119634285D01*
X166527380Y-119777142D01*
X166527380Y-119872380D01*
X166479761Y-120015238D01*
X166384523Y-120110476D01*
X166289285Y-120158095D01*
X166098809Y-120205714D01*
X165955952Y-120205714D01*
X165765476Y-120158095D01*
X165670238Y-120110476D01*
X165575000Y-120015238D01*
X165527380Y-119872380D01*
X165527380Y-119777142D01*
X165575000Y-119634285D01*
X165622619Y-119586666D01*
X165860714Y-118729523D02*
X166527380Y-118729523D01*
X165479761Y-118967619D02*
X166194047Y-119205714D01*
X166194047Y-118586666D01*
%TO.C,C5*%
X125583333Y-130857142D02*
X125535714Y-130904761D01*
X125392857Y-130952380D01*
X125297619Y-130952380D01*
X125154761Y-130904761D01*
X125059523Y-130809523D01*
X125011904Y-130714285D01*
X124964285Y-130523809D01*
X124964285Y-130380952D01*
X125011904Y-130190476D01*
X125059523Y-130095238D01*
X125154761Y-130000000D01*
X125297619Y-129952380D01*
X125392857Y-129952380D01*
X125535714Y-130000000D01*
X125583333Y-130047619D01*
X126488095Y-129952380D02*
X126011904Y-129952380D01*
X125964285Y-130428571D01*
X126011904Y-130380952D01*
X126107142Y-130333333D01*
X126345238Y-130333333D01*
X126440476Y-130380952D01*
X126488095Y-130428571D01*
X126535714Y-130523809D01*
X126535714Y-130761904D01*
X126488095Y-130857142D01*
X126440476Y-130904761D01*
X126345238Y-130952380D01*
X126107142Y-130952380D01*
X126011904Y-130904761D01*
X125964285Y-130857142D01*
%TO.C,C6*%
X140783333Y-125512142D02*
X140735714Y-125559761D01*
X140592857Y-125607380D01*
X140497619Y-125607380D01*
X140354761Y-125559761D01*
X140259523Y-125464523D01*
X140211904Y-125369285D01*
X140164285Y-125178809D01*
X140164285Y-125035952D01*
X140211904Y-124845476D01*
X140259523Y-124750238D01*
X140354761Y-124655000D01*
X140497619Y-124607380D01*
X140592857Y-124607380D01*
X140735714Y-124655000D01*
X140783333Y-124702619D01*
X141640476Y-124607380D02*
X141450000Y-124607380D01*
X141354761Y-124655000D01*
X141307142Y-124702619D01*
X141211904Y-124845476D01*
X141164285Y-125035952D01*
X141164285Y-125416904D01*
X141211904Y-125512142D01*
X141259523Y-125559761D01*
X141354761Y-125607380D01*
X141545238Y-125607380D01*
X141640476Y-125559761D01*
X141688095Y-125512142D01*
X141735714Y-125416904D01*
X141735714Y-125178809D01*
X141688095Y-125083571D01*
X141640476Y-125035952D01*
X141545238Y-124988333D01*
X141354761Y-124988333D01*
X141259523Y-125035952D01*
X141211904Y-125083571D01*
X141164285Y-125178809D01*
%TO.C,D1*%
X140231904Y-118492380D02*
X140231904Y-117492380D01*
X140470000Y-117492380D01*
X140612857Y-117540000D01*
X140708095Y-117635238D01*
X140755714Y-117730476D01*
X140803333Y-117920952D01*
X140803333Y-118063809D01*
X140755714Y-118254285D01*
X140708095Y-118349523D01*
X140612857Y-118444761D01*
X140470000Y-118492380D01*
X140231904Y-118492380D01*
X141755714Y-118492380D02*
X141184285Y-118492380D01*
X141470000Y-118492380D02*
X141470000Y-117492380D01*
X141374761Y-117635238D01*
X141279523Y-117730476D01*
X141184285Y-117778095D01*
X144518095Y-117922380D02*
X144518095Y-116922380D01*
X145089523Y-117922380D02*
X144660952Y-117350952D01*
X145089523Y-116922380D02*
X144518095Y-117493809D01*
%TO.C,D2*%
X161812380Y-120118095D02*
X160812380Y-120118095D01*
X160812380Y-119880000D01*
X160860000Y-119737142D01*
X160955238Y-119641904D01*
X161050476Y-119594285D01*
X161240952Y-119546666D01*
X161383809Y-119546666D01*
X161574285Y-119594285D01*
X161669523Y-119641904D01*
X161764761Y-119737142D01*
X161812380Y-119880000D01*
X161812380Y-120118095D01*
X160907619Y-119165714D02*
X160860000Y-119118095D01*
X160812380Y-119022857D01*
X160812380Y-118784761D01*
X160860000Y-118689523D01*
X160907619Y-118641904D01*
X161002857Y-118594285D01*
X161098095Y-118594285D01*
X161240952Y-118641904D01*
X161812380Y-119213333D01*
X161812380Y-118594285D01*
X162382380Y-123451904D02*
X161382380Y-123451904D01*
X162382380Y-122880476D02*
X161810952Y-123309047D01*
X161382380Y-122880476D02*
X161953809Y-123451904D01*
%TO.C,D3*%
X140231904Y-121172380D02*
X140231904Y-120172380D01*
X140470000Y-120172380D01*
X140612857Y-120220000D01*
X140708095Y-120315238D01*
X140755714Y-120410476D01*
X140803333Y-120600952D01*
X140803333Y-120743809D01*
X140755714Y-120934285D01*
X140708095Y-121029523D01*
X140612857Y-121124761D01*
X140470000Y-121172380D01*
X140231904Y-121172380D01*
X141136666Y-120172380D02*
X141755714Y-120172380D01*
X141422380Y-120553333D01*
X141565238Y-120553333D01*
X141660476Y-120600952D01*
X141708095Y-120648571D01*
X141755714Y-120743809D01*
X141755714Y-120981904D01*
X141708095Y-121077142D01*
X141660476Y-121124761D01*
X141565238Y-121172380D01*
X141279523Y-121172380D01*
X141184285Y-121124761D01*
X141136666Y-121077142D01*
X136898095Y-121742380D02*
X136898095Y-120742380D01*
X137469523Y-121742380D02*
X137040952Y-121170952D01*
X137469523Y-120742380D02*
X136898095Y-121313809D01*
%TO.C,J1*%
X119822380Y-119693333D02*
X120536666Y-119693333D01*
X120679523Y-119740952D01*
X120774761Y-119836190D01*
X120822380Y-119979047D01*
X120822380Y-120074285D01*
X120822380Y-118693333D02*
X120822380Y-119264761D01*
X120822380Y-118979047D02*
X119822380Y-118979047D01*
X119965238Y-119074285D01*
X120060476Y-119169523D01*
X120108095Y-119264761D01*
%TO.C,U1*%
X140208095Y-92972380D02*
X140208095Y-93781904D01*
X140255714Y-93877142D01*
X140303333Y-93924761D01*
X140398571Y-93972380D01*
X140589047Y-93972380D01*
X140684285Y-93924761D01*
X140731904Y-93877142D01*
X140779523Y-93781904D01*
X140779523Y-92972380D01*
X141779523Y-93972380D02*
X141208095Y-93972380D01*
X141493809Y-93972380D02*
X141493809Y-92972380D01*
X141398571Y-93115238D01*
X141303333Y-93210476D01*
X141208095Y-93258095D01*
%TO.C,U2*%
X184062380Y-120141904D02*
X184871904Y-120141904D01*
X184967142Y-120094285D01*
X185014761Y-120046666D01*
X185062380Y-119951428D01*
X185062380Y-119760952D01*
X185014761Y-119665714D01*
X184967142Y-119618095D01*
X184871904Y-119570476D01*
X184062380Y-119570476D01*
X184157619Y-119141904D02*
X184110000Y-119094285D01*
X184062380Y-118999047D01*
X184062380Y-118760952D01*
X184110000Y-118665714D01*
X184157619Y-118618095D01*
X184252857Y-118570476D01*
X184348095Y-118570476D01*
X184490952Y-118618095D01*
X185062380Y-119189523D01*
X185062380Y-118570476D01*
%TO.C,U3*%
X140208095Y-143137380D02*
X140208095Y-143946904D01*
X140255714Y-144042142D01*
X140303333Y-144089761D01*
X140398571Y-144137380D01*
X140589047Y-144137380D01*
X140684285Y-144089761D01*
X140731904Y-144042142D01*
X140779523Y-143946904D01*
X140779523Y-143137380D01*
X141160476Y-143137380D02*
X141779523Y-143137380D01*
X141446190Y-143518333D01*
X141589047Y-143518333D01*
X141684285Y-143565952D01*
X141731904Y-143613571D01*
X141779523Y-143708809D01*
X141779523Y-143946904D01*
X141731904Y-144042142D01*
X141684285Y-144089761D01*
X141589047Y-144137380D01*
X141303333Y-144137380D01*
X141208095Y-144089761D01*
X141160476Y-144042142D01*
%TO.C,J2*%
X214931666Y-93642380D02*
X214931666Y-94356666D01*
X214884047Y-94499523D01*
X214788809Y-94594761D01*
X214645952Y-94642380D01*
X214550714Y-94642380D01*
X215360238Y-93737619D02*
X215407857Y-93690000D01*
X215503095Y-93642380D01*
X215741190Y-93642380D01*
X215836428Y-93690000D01*
X215884047Y-93737619D01*
X215931666Y-93832857D01*
X215931666Y-93928095D01*
X215884047Y-94070952D01*
X215312619Y-94642380D01*
X215931666Y-94642380D01*
%TO.C,J3*%
X214931666Y-145292380D02*
X214931666Y-146006666D01*
X214884047Y-146149523D01*
X214788809Y-146244761D01*
X214645952Y-146292380D01*
X214550714Y-146292380D01*
X215312619Y-145292380D02*
X215931666Y-145292380D01*
X215598333Y-145673333D01*
X215741190Y-145673333D01*
X215836428Y-145720952D01*
X215884047Y-145768571D01*
X215931666Y-145863809D01*
X215931666Y-146101904D01*
X215884047Y-146197142D01*
X215836428Y-146244761D01*
X215741190Y-146292380D01*
X215455476Y-146292380D01*
X215360238Y-146244761D01*
X215312619Y-146197142D01*
%TO.C,J4*%
X184662380Y-152098333D02*
X185376666Y-152098333D01*
X185519523Y-152145952D01*
X185614761Y-152241190D01*
X185662380Y-152384047D01*
X185662380Y-152479285D01*
X184995714Y-151193571D02*
X185662380Y-151193571D01*
X184614761Y-151431666D02*
X185329047Y-151669761D01*
X185329047Y-151050714D01*
%TD*%
M02*
