%TF.GenerationSoftware,KiCad,Pcbnew,(5.1.10)-1*%
%TF.CreationDate,2021-10-01T01:08:29-04:00*%
%TF.ProjectId,regulator,72656775-6c61-4746-9f72-2e6b69636164,rev?*%
%TF.SameCoordinates,Original*%
%TF.FileFunction,Copper,L1,Top*%
%TF.FilePolarity,Positive*%
%FSLAX46Y46*%
G04 Gerber Fmt 4.6, Leading zero omitted, Abs format (unit mm)*
G04 Created by KiCad (PCBNEW (5.1.10)-1) date 2021-10-01 01:08:29*
%MOMM*%
%LPD*%
G01*
G04 APERTURE LIST*
%TA.AperFunction,ComponentPad*%
%ADD10C,4.000000*%
%TD*%
%TA.AperFunction,ComponentPad*%
%ADD11C,1.600000*%
%TD*%
%TA.AperFunction,ComponentPad*%
%ADD12R,1.600000X1.600000*%
%TD*%
%TA.AperFunction,ComponentPad*%
%ADD13R,1.800000X1.800000*%
%TD*%
%TA.AperFunction,ComponentPad*%
%ADD14O,1.800000X1.800000*%
%TD*%
%TA.AperFunction,ComponentPad*%
%ADD15C,3.000000*%
%TD*%
%TA.AperFunction,ComponentPad*%
%ADD16R,3.000000X3.000000*%
%TD*%
%TA.AperFunction,ComponentPad*%
%ADD17R,1.905000X2.000000*%
%TD*%
%TA.AperFunction,ComponentPad*%
%ADD18O,1.905000X2.000000*%
%TD*%
%TA.AperFunction,ComponentPad*%
%ADD19R,2.000000X1.905000*%
%TD*%
%TA.AperFunction,ComponentPad*%
%ADD20O,2.000000X1.905000*%
%TD*%
%TA.AperFunction,ComponentPad*%
%ADD21R,1.700000X1.700000*%
%TD*%
%TA.AperFunction,ComponentPad*%
%ADD22O,1.700000X1.700000*%
%TD*%
%TA.AperFunction,Conductor*%
%ADD23C,1.500000*%
%TD*%
%TA.AperFunction,Conductor*%
%ADD24C,0.254000*%
%TD*%
%TA.AperFunction,Conductor*%
%ADD25C,0.100000*%
%TD*%
G04 APERTURE END LIST*
D10*
%TO.P,L7912,1*%
%TO.N,N/C*%
X128270000Y-144780000D03*
X153670000Y-144780000D03*
%TD*%
%TO.P,L7812,1*%
%TO.N,N/C*%
X183515000Y-132080000D03*
X183515000Y-106680000D03*
%TD*%
%TO.P,L7805,1*%
%TO.N,N/C*%
X153670000Y-94615000D03*
X128270000Y-94615000D03*
%TD*%
D11*
%TO.P,C1,1*%
%TO.N,Net-(C1-Pad1)*%
X123190000Y-111760000D03*
%TO.P,C1,2*%
%TO.N,Net-(C1-Pad2)*%
X128190000Y-111760000D03*
%TD*%
%TO.P,C2,2*%
%TO.N,Net-(C1-Pad2)*%
X138510000Y-109855000D03*
%TO.P,C2,1*%
%TO.N,Net-(C2-Pad1)*%
X143510000Y-109855000D03*
%TD*%
%TO.P,C3,1*%
%TO.N,Net-(C3-Pad1)*%
X123190000Y-119380000D03*
%TO.P,C3,2*%
%TO.N,Net-(C1-Pad2)*%
X128190000Y-119380000D03*
%TD*%
%TO.P,C4,1*%
%TO.N,Net-(C4-Pad1)*%
X168275000Y-121920000D03*
%TO.P,C4,2*%
%TO.N,Net-(C1-Pad2)*%
X168275000Y-116920000D03*
%TD*%
D12*
%TO.P,C5,1*%
%TO.N,Net-(C1-Pad2)*%
X127000000Y-127000000D03*
D11*
%TO.P,C5,2*%
%TO.N,Net-(C5-Pad2)*%
X124500000Y-127000000D03*
%TD*%
D12*
%TO.P,C6,1*%
%TO.N,Net-(C1-Pad2)*%
X139700000Y-128905000D03*
D11*
%TO.P,C6,2*%
%TO.N,Net-(C6-Pad2)*%
X142200000Y-128905000D03*
%TD*%
D13*
%TO.P,D1,1*%
%TO.N,Net-(C2-Pad1)*%
X144780000Y-115570000D03*
D14*
%TO.P,D1,2*%
%TO.N,Net-(C1-Pad2)*%
X137160000Y-115570000D03*
%TD*%
D13*
%TO.P,D2,1*%
%TO.N,Net-(C4-Pad1)*%
X163830000Y-123190000D03*
D14*
%TO.P,D2,2*%
%TO.N,Net-(C1-Pad2)*%
X163830000Y-115570000D03*
%TD*%
%TO.P,D3,2*%
%TO.N,Net-(C6-Pad2)*%
X144780000Y-123190000D03*
D13*
%TO.P,D3,1*%
%TO.N,Net-(C1-Pad2)*%
X137160000Y-123190000D03*
%TD*%
D15*
%TO.P,J1,2*%
%TO.N,Net-(C3-Pad1)*%
X115570000Y-116840000D03*
%TO.P,J1,3*%
%TO.N,Net-(C1-Pad2)*%
X115570000Y-121920000D03*
D16*
%TO.P,J1,1*%
%TO.N,Net-(C1-Pad1)*%
X115570000Y-111760000D03*
D15*
%TO.P,J1,4*%
%TO.N,Net-(C5-Pad2)*%
X115570000Y-127000000D03*
%TD*%
D17*
%TO.P,U1,1*%
%TO.N,Net-(C1-Pad1)*%
X138430000Y-97790000D03*
D18*
%TO.P,U1,2*%
%TO.N,Net-(C1-Pad2)*%
X140970000Y-97790000D03*
%TO.P,U1,3*%
%TO.N,Net-(C2-Pad1)*%
X143510000Y-97790000D03*
%TD*%
D19*
%TO.P,U2,1*%
%TO.N,Net-(C3-Pad1)*%
X180340000Y-116840000D03*
D20*
%TO.P,U2,2*%
%TO.N,Net-(C1-Pad2)*%
X180340000Y-119380000D03*
%TO.P,U2,3*%
%TO.N,Net-(C4-Pad1)*%
X180340000Y-121920000D03*
%TD*%
D18*
%TO.P,U3,3*%
%TO.N,Net-(C6-Pad2)*%
X143510000Y-147955000D03*
%TO.P,U3,2*%
%TO.N,Net-(C5-Pad2)*%
X140970000Y-147955000D03*
D17*
%TO.P,U3,1*%
%TO.N,Net-(C1-Pad2)*%
X138430000Y-147955000D03*
%TD*%
D21*
%TO.P,J2,1*%
%TO.N,Net-(C6-Pad2)*%
X213995000Y-96520000D03*
D22*
%TO.P,J2,2*%
X216535000Y-96520000D03*
%TO.P,J2,3*%
%TO.N,Net-(C1-Pad2)*%
X213995000Y-99060000D03*
%TO.P,J2,4*%
X216535000Y-99060000D03*
%TO.P,J2,5*%
X213995000Y-101600000D03*
%TO.P,J2,6*%
X216535000Y-101600000D03*
%TO.P,J2,7*%
X213995000Y-104140000D03*
%TO.P,J2,8*%
X216535000Y-104140000D03*
%TO.P,J2,9*%
%TO.N,Net-(C4-Pad1)*%
X213995000Y-106680000D03*
%TO.P,J2,10*%
X216535000Y-106680000D03*
%TO.P,J2,11*%
%TO.N,Net-(C2-Pad1)*%
X213995000Y-109220000D03*
%TO.P,J2,12*%
X216535000Y-109220000D03*
%TO.P,J2,13*%
%TO.N,Net-(J2-Pad13)*%
X213995000Y-111760000D03*
%TO.P,J2,14*%
X216535000Y-111760000D03*
%TO.P,J2,15*%
%TO.N,Net-(J2-Pad15)*%
X213995000Y-114300000D03*
%TO.P,J2,16*%
X216535000Y-114300000D03*
%TD*%
%TO.P,J3,16*%
%TO.N,Net-(J2-Pad15)*%
X213995000Y-125730000D03*
%TO.P,J3,15*%
X216535000Y-125730000D03*
%TO.P,J3,14*%
%TO.N,Net-(J2-Pad13)*%
X213995000Y-128270000D03*
%TO.P,J3,13*%
X216535000Y-128270000D03*
%TO.P,J3,12*%
%TO.N,Net-(C2-Pad1)*%
X213995000Y-130810000D03*
%TO.P,J3,11*%
X216535000Y-130810000D03*
%TO.P,J3,10*%
%TO.N,Net-(C4-Pad1)*%
X213995000Y-133350000D03*
%TO.P,J3,9*%
X216535000Y-133350000D03*
%TO.P,J3,8*%
%TO.N,Net-(C1-Pad2)*%
X213995000Y-135890000D03*
%TO.P,J3,7*%
X216535000Y-135890000D03*
%TO.P,J3,6*%
X213995000Y-138430000D03*
%TO.P,J3,5*%
X216535000Y-138430000D03*
%TO.P,J3,4*%
X213995000Y-140970000D03*
%TO.P,J3,3*%
X216535000Y-140970000D03*
%TO.P,J3,2*%
%TO.N,Net-(C6-Pad2)*%
X213995000Y-143510000D03*
D21*
%TO.P,J3,1*%
X216535000Y-143510000D03*
%TD*%
%TO.P,J4,1*%
%TO.N,Net-(C4-Pad1)*%
X182880000Y-151765000D03*
D22*
%TO.P,J4,2*%
%TO.N,Net-(C1-Pad2)*%
X180340000Y-151765000D03*
%TD*%
D23*
%TO.N,Net-(C2-Pad1)*%
X213995000Y-130810000D02*
X210185000Y-130810000D01*
X210185000Y-130810000D02*
X208280000Y-128905000D01*
X208280000Y-128905000D02*
X208280000Y-112395000D01*
X208280000Y-112395000D02*
X211455000Y-109220000D01*
X211455000Y-109220000D02*
X213995000Y-109220000D01*
%TO.N,Net-(C4-Pad1)*%
X213995000Y-133350000D02*
X207645000Y-133350000D01*
X207645000Y-133350000D02*
X204470000Y-130175000D01*
X204470000Y-130175000D02*
X204470000Y-111125000D01*
X204470000Y-111125000D02*
X208915000Y-106680000D01*
X208915000Y-106680000D02*
X213995000Y-106680000D01*
%TO.N,Net-(C6-Pad2)*%
X213870998Y-96520000D02*
X213995000Y-96520000D01*
X213995000Y-143510000D02*
X204470000Y-143510000D01*
X204470000Y-143510000D02*
X196215000Y-135255000D01*
X196215000Y-135255000D02*
X196215000Y-105410000D01*
X205105000Y-96520000D02*
X213995000Y-96520000D01*
X196215000Y-105410000D02*
X205105000Y-96520000D01*
%TO.N,Net-(J2-Pad15)*%
X213995000Y-125730000D02*
X213995000Y-114300000D01*
%TO.N,Net-(J2-Pad13)*%
X213870998Y-111760000D02*
X213995000Y-111760000D01*
X212792919Y-111760000D02*
X213995000Y-111760000D01*
X211455000Y-113097919D02*
X212792919Y-111760000D01*
X211455000Y-127635000D02*
X211455000Y-113097919D01*
X212090000Y-128270000D02*
X211455000Y-127635000D01*
X213995000Y-128270000D02*
X212090000Y-128270000D01*
%TD*%
D24*
%TO.N,Net-(C1-Pad2)*%
X219050001Y-156820000D02*
X108610000Y-156820000D01*
X108610000Y-151544872D01*
X111430000Y-151544872D01*
X111430000Y-151985128D01*
X111515890Y-152416925D01*
X111684369Y-152823669D01*
X111928962Y-153189729D01*
X112240271Y-153501038D01*
X112606331Y-153745631D01*
X113013075Y-153914110D01*
X113444872Y-154000000D01*
X113885128Y-154000000D01*
X114316925Y-153914110D01*
X114723669Y-153745631D01*
X115089729Y-153501038D01*
X115401038Y-153189729D01*
X115645631Y-152823669D01*
X115814110Y-152416925D01*
X115872796Y-152121891D01*
X178898519Y-152121891D01*
X178995843Y-152396252D01*
X179144822Y-152646355D01*
X179339731Y-152862588D01*
X179573080Y-153036641D01*
X179835901Y-153161825D01*
X179983110Y-153206476D01*
X180213000Y-153085155D01*
X180213000Y-151892000D01*
X179019186Y-151892000D01*
X178898519Y-152121891D01*
X115872796Y-152121891D01*
X115900000Y-151985128D01*
X115900000Y-151544872D01*
X115872797Y-151408109D01*
X178898519Y-151408109D01*
X179019186Y-151638000D01*
X180213000Y-151638000D01*
X180213000Y-150444845D01*
X180467000Y-150444845D01*
X180467000Y-151638000D01*
X180487000Y-151638000D01*
X180487000Y-151892000D01*
X180467000Y-151892000D01*
X180467000Y-153085155D01*
X180696890Y-153206476D01*
X180844099Y-153161825D01*
X181106920Y-153036641D01*
X181340269Y-152862588D01*
X181416034Y-152778534D01*
X181440498Y-152859180D01*
X181499463Y-152969494D01*
X181578815Y-153066185D01*
X181675506Y-153145537D01*
X181785820Y-153204502D01*
X181905518Y-153240812D01*
X182030000Y-153253072D01*
X183730000Y-153253072D01*
X183854482Y-153240812D01*
X183974180Y-153204502D01*
X184084494Y-153145537D01*
X184181185Y-153066185D01*
X184260537Y-152969494D01*
X184319502Y-152859180D01*
X184355812Y-152739482D01*
X184368072Y-152615000D01*
X184368072Y-151544872D01*
X211760000Y-151544872D01*
X211760000Y-151985128D01*
X211845890Y-152416925D01*
X212014369Y-152823669D01*
X212258962Y-153189729D01*
X212570271Y-153501038D01*
X212936331Y-153745631D01*
X213343075Y-153914110D01*
X213774872Y-154000000D01*
X214215128Y-154000000D01*
X214646925Y-153914110D01*
X215053669Y-153745631D01*
X215419729Y-153501038D01*
X215731038Y-153189729D01*
X215975631Y-152823669D01*
X216144110Y-152416925D01*
X216230000Y-151985128D01*
X216230000Y-151544872D01*
X216144110Y-151113075D01*
X215975631Y-150706331D01*
X215731038Y-150340271D01*
X215419729Y-150028962D01*
X215053669Y-149784369D01*
X214646925Y-149615890D01*
X214215128Y-149530000D01*
X213774872Y-149530000D01*
X213343075Y-149615890D01*
X212936331Y-149784369D01*
X212570271Y-150028962D01*
X212258962Y-150340271D01*
X212014369Y-150706331D01*
X211845890Y-151113075D01*
X211760000Y-151544872D01*
X184368072Y-151544872D01*
X184368072Y-150915000D01*
X184355812Y-150790518D01*
X184319502Y-150670820D01*
X184260537Y-150560506D01*
X184181185Y-150463815D01*
X184084494Y-150384463D01*
X183974180Y-150325498D01*
X183854482Y-150289188D01*
X183730000Y-150276928D01*
X182030000Y-150276928D01*
X181905518Y-150289188D01*
X181785820Y-150325498D01*
X181675506Y-150384463D01*
X181578815Y-150463815D01*
X181499463Y-150560506D01*
X181440498Y-150670820D01*
X181416034Y-150751466D01*
X181340269Y-150667412D01*
X181106920Y-150493359D01*
X180844099Y-150368175D01*
X180696890Y-150323524D01*
X180467000Y-150444845D01*
X180213000Y-150444845D01*
X179983110Y-150323524D01*
X179835901Y-150368175D01*
X179573080Y-150493359D01*
X179339731Y-150667412D01*
X179144822Y-150883645D01*
X178995843Y-151133748D01*
X178898519Y-151408109D01*
X115872797Y-151408109D01*
X115814110Y-151113075D01*
X115645631Y-150706331D01*
X115401038Y-150340271D01*
X115089729Y-150028962D01*
X114723669Y-149784369D01*
X114316925Y-149615890D01*
X113885128Y-149530000D01*
X113444872Y-149530000D01*
X113013075Y-149615890D01*
X112606331Y-149784369D01*
X112240271Y-150028962D01*
X111928962Y-150340271D01*
X111684369Y-150706331D01*
X111515890Y-151113075D01*
X111430000Y-151544872D01*
X108610000Y-151544872D01*
X108610000Y-148955000D01*
X136839428Y-148955000D01*
X136851688Y-149079482D01*
X136887998Y-149199180D01*
X136946963Y-149309494D01*
X137026315Y-149406185D01*
X137123006Y-149485537D01*
X137233320Y-149544502D01*
X137353018Y-149580812D01*
X137477500Y-149593072D01*
X138144250Y-149590000D01*
X138303000Y-149431250D01*
X138303000Y-148082000D01*
X137001250Y-148082000D01*
X136842500Y-148240750D01*
X136839428Y-148955000D01*
X108610000Y-148955000D01*
X108610000Y-144520475D01*
X125635000Y-144520475D01*
X125635000Y-145039525D01*
X125736261Y-145548601D01*
X125934893Y-146028141D01*
X126223262Y-146459715D01*
X126590285Y-146826738D01*
X127021859Y-147115107D01*
X127501399Y-147313739D01*
X128010475Y-147415000D01*
X128529525Y-147415000D01*
X129038601Y-147313739D01*
X129518141Y-147115107D01*
X129757757Y-146955000D01*
X136839428Y-146955000D01*
X136842500Y-147669250D01*
X137001250Y-147828000D01*
X138303000Y-147828000D01*
X138303000Y-146478750D01*
X138557000Y-146478750D01*
X138557000Y-147828000D01*
X138577000Y-147828000D01*
X138577000Y-148082000D01*
X138557000Y-148082000D01*
X138557000Y-149431250D01*
X138715750Y-149590000D01*
X139382500Y-149593072D01*
X139506982Y-149580812D01*
X139626680Y-149544502D01*
X139736994Y-149485537D01*
X139833685Y-149406185D01*
X139913037Y-149309494D01*
X139957905Y-149225553D01*
X140083766Y-149328845D01*
X140359552Y-149476255D01*
X140658797Y-149567030D01*
X140970000Y-149597681D01*
X141281204Y-149567030D01*
X141580449Y-149476255D01*
X141856235Y-149328845D01*
X142097963Y-149130463D01*
X142240000Y-148957391D01*
X142382037Y-149130463D01*
X142623766Y-149328845D01*
X142899552Y-149476255D01*
X143198797Y-149567030D01*
X143510000Y-149597681D01*
X143821204Y-149567030D01*
X144120449Y-149476255D01*
X144396235Y-149328845D01*
X144637963Y-149130463D01*
X144836345Y-148888734D01*
X144983755Y-148612948D01*
X145074530Y-148313703D01*
X145097500Y-148080485D01*
X145097500Y-147829514D01*
X145074530Y-147596296D01*
X144983755Y-147297051D01*
X144836345Y-147021265D01*
X144637963Y-146779537D01*
X144396234Y-146581155D01*
X144120448Y-146433745D01*
X143821203Y-146342970D01*
X143510000Y-146312319D01*
X143198796Y-146342970D01*
X142899551Y-146433745D01*
X142623765Y-146581155D01*
X142382037Y-146779537D01*
X142240000Y-146952609D01*
X142097963Y-146779537D01*
X141856234Y-146581155D01*
X141580448Y-146433745D01*
X141281203Y-146342970D01*
X140970000Y-146312319D01*
X140658796Y-146342970D01*
X140359551Y-146433745D01*
X140083765Y-146581155D01*
X139957905Y-146684446D01*
X139913037Y-146600506D01*
X139833685Y-146503815D01*
X139736994Y-146424463D01*
X139626680Y-146365498D01*
X139506982Y-146329188D01*
X139382500Y-146316928D01*
X138715750Y-146320000D01*
X138557000Y-146478750D01*
X138303000Y-146478750D01*
X138144250Y-146320000D01*
X137477500Y-146316928D01*
X137353018Y-146329188D01*
X137233320Y-146365498D01*
X137123006Y-146424463D01*
X137026315Y-146503815D01*
X136946963Y-146600506D01*
X136887998Y-146710820D01*
X136851688Y-146830518D01*
X136839428Y-146955000D01*
X129757757Y-146955000D01*
X129949715Y-146826738D01*
X130316738Y-146459715D01*
X130605107Y-146028141D01*
X130803739Y-145548601D01*
X130905000Y-145039525D01*
X130905000Y-144520475D01*
X151035000Y-144520475D01*
X151035000Y-145039525D01*
X151136261Y-145548601D01*
X151334893Y-146028141D01*
X151623262Y-146459715D01*
X151990285Y-146826738D01*
X152421859Y-147115107D01*
X152901399Y-147313739D01*
X153410475Y-147415000D01*
X153929525Y-147415000D01*
X154438601Y-147313739D01*
X154918141Y-147115107D01*
X155349715Y-146826738D01*
X155716738Y-146459715D01*
X156005107Y-146028141D01*
X156203739Y-145548601D01*
X156305000Y-145039525D01*
X156305000Y-144520475D01*
X156203739Y-144011399D01*
X156005107Y-143531859D01*
X155716738Y-143100285D01*
X155349715Y-142733262D01*
X154918141Y-142444893D01*
X154438601Y-142246261D01*
X153929525Y-142145000D01*
X153410475Y-142145000D01*
X152901399Y-142246261D01*
X152421859Y-142444893D01*
X151990285Y-142733262D01*
X151623262Y-143100285D01*
X151334893Y-143531859D01*
X151136261Y-144011399D01*
X151035000Y-144520475D01*
X130905000Y-144520475D01*
X130803739Y-144011399D01*
X130605107Y-143531859D01*
X130316738Y-143100285D01*
X129949715Y-142733262D01*
X129518141Y-142444893D01*
X129038601Y-142246261D01*
X128529525Y-142145000D01*
X128010475Y-142145000D01*
X127501399Y-142246261D01*
X127021859Y-142444893D01*
X126590285Y-142733262D01*
X126223262Y-143100285D01*
X125934893Y-143531859D01*
X125736261Y-144011399D01*
X125635000Y-144520475D01*
X108610000Y-144520475D01*
X108610000Y-131820475D01*
X180880000Y-131820475D01*
X180880000Y-132339525D01*
X180981261Y-132848601D01*
X181179893Y-133328141D01*
X181468262Y-133759715D01*
X181835285Y-134126738D01*
X182266859Y-134415107D01*
X182746399Y-134613739D01*
X183255475Y-134715000D01*
X183774525Y-134715000D01*
X184283601Y-134613739D01*
X184763141Y-134415107D01*
X185194715Y-134126738D01*
X185561738Y-133759715D01*
X185850107Y-133328141D01*
X186048739Y-132848601D01*
X186150000Y-132339525D01*
X186150000Y-131820475D01*
X186048739Y-131311399D01*
X185850107Y-130831859D01*
X185561738Y-130400285D01*
X185194715Y-130033262D01*
X184763141Y-129744893D01*
X184283601Y-129546261D01*
X183774525Y-129445000D01*
X183255475Y-129445000D01*
X182746399Y-129546261D01*
X182266859Y-129744893D01*
X181835285Y-130033262D01*
X181468262Y-130400285D01*
X181179893Y-130831859D01*
X180981261Y-131311399D01*
X180880000Y-131820475D01*
X108610000Y-131820475D01*
X108610000Y-129705000D01*
X138261928Y-129705000D01*
X138274188Y-129829482D01*
X138310498Y-129949180D01*
X138369463Y-130059494D01*
X138448815Y-130156185D01*
X138545506Y-130235537D01*
X138655820Y-130294502D01*
X138775518Y-130330812D01*
X138900000Y-130343072D01*
X139414250Y-130340000D01*
X139573000Y-130181250D01*
X139573000Y-129032000D01*
X138423750Y-129032000D01*
X138265000Y-129190750D01*
X138261928Y-129705000D01*
X108610000Y-129705000D01*
X108610000Y-126789721D01*
X113435000Y-126789721D01*
X113435000Y-127210279D01*
X113517047Y-127622756D01*
X113677988Y-128011302D01*
X113911637Y-128360983D01*
X114209017Y-128658363D01*
X114558698Y-128892012D01*
X114947244Y-129052953D01*
X115359721Y-129135000D01*
X115780279Y-129135000D01*
X116192756Y-129052953D01*
X116581302Y-128892012D01*
X116930983Y-128658363D01*
X117228363Y-128360983D01*
X117462012Y-128011302D01*
X117622953Y-127622756D01*
X117705000Y-127210279D01*
X117705000Y-126858665D01*
X123065000Y-126858665D01*
X123065000Y-127141335D01*
X123120147Y-127418574D01*
X123228320Y-127679727D01*
X123385363Y-127914759D01*
X123585241Y-128114637D01*
X123820273Y-128271680D01*
X124081426Y-128379853D01*
X124358665Y-128435000D01*
X124641335Y-128435000D01*
X124918574Y-128379853D01*
X125179727Y-128271680D01*
X125414759Y-128114637D01*
X125581339Y-127948057D01*
X125610498Y-128044180D01*
X125669463Y-128154494D01*
X125748815Y-128251185D01*
X125845506Y-128330537D01*
X125955820Y-128389502D01*
X126075518Y-128425812D01*
X126200000Y-128438072D01*
X126714250Y-128435000D01*
X126873000Y-128276250D01*
X126873000Y-127127000D01*
X127127000Y-127127000D01*
X127127000Y-128276250D01*
X127285750Y-128435000D01*
X127800000Y-128438072D01*
X127924482Y-128425812D01*
X128044180Y-128389502D01*
X128154494Y-128330537D01*
X128251185Y-128251185D01*
X128330537Y-128154494D01*
X128356992Y-128105000D01*
X138261928Y-128105000D01*
X138265000Y-128619250D01*
X138423750Y-128778000D01*
X139573000Y-128778000D01*
X139573000Y-127628750D01*
X139827000Y-127628750D01*
X139827000Y-128778000D01*
X139847000Y-128778000D01*
X139847000Y-129032000D01*
X139827000Y-129032000D01*
X139827000Y-130181250D01*
X139985750Y-130340000D01*
X140500000Y-130343072D01*
X140624482Y-130330812D01*
X140744180Y-130294502D01*
X140854494Y-130235537D01*
X140951185Y-130156185D01*
X141030537Y-130059494D01*
X141089502Y-129949180D01*
X141118661Y-129853057D01*
X141285241Y-130019637D01*
X141520273Y-130176680D01*
X141781426Y-130284853D01*
X142058665Y-130340000D01*
X142341335Y-130340000D01*
X142618574Y-130284853D01*
X142879727Y-130176680D01*
X143114759Y-130019637D01*
X143314637Y-129819759D01*
X143471680Y-129584727D01*
X143579853Y-129323574D01*
X143635000Y-129046335D01*
X143635000Y-128763665D01*
X143579853Y-128486426D01*
X143471680Y-128225273D01*
X143314637Y-127990241D01*
X143114759Y-127790363D01*
X142879727Y-127633320D01*
X142618574Y-127525147D01*
X142341335Y-127470000D01*
X142058665Y-127470000D01*
X141781426Y-127525147D01*
X141520273Y-127633320D01*
X141285241Y-127790363D01*
X141118661Y-127956943D01*
X141089502Y-127860820D01*
X141030537Y-127750506D01*
X140951185Y-127653815D01*
X140854494Y-127574463D01*
X140744180Y-127515498D01*
X140624482Y-127479188D01*
X140500000Y-127466928D01*
X139985750Y-127470000D01*
X139827000Y-127628750D01*
X139573000Y-127628750D01*
X139414250Y-127470000D01*
X138900000Y-127466928D01*
X138775518Y-127479188D01*
X138655820Y-127515498D01*
X138545506Y-127574463D01*
X138448815Y-127653815D01*
X138369463Y-127750506D01*
X138310498Y-127860820D01*
X138274188Y-127980518D01*
X138261928Y-128105000D01*
X128356992Y-128105000D01*
X128389502Y-128044180D01*
X128425812Y-127924482D01*
X128438072Y-127800000D01*
X128435000Y-127285750D01*
X128276250Y-127127000D01*
X127127000Y-127127000D01*
X126873000Y-127127000D01*
X126853000Y-127127000D01*
X126853000Y-126873000D01*
X126873000Y-126873000D01*
X126873000Y-125723750D01*
X127127000Y-125723750D01*
X127127000Y-126873000D01*
X128276250Y-126873000D01*
X128435000Y-126714250D01*
X128438072Y-126200000D01*
X128425812Y-126075518D01*
X128389502Y-125955820D01*
X128330537Y-125845506D01*
X128251185Y-125748815D01*
X128154494Y-125669463D01*
X128044180Y-125610498D01*
X127924482Y-125574188D01*
X127800000Y-125561928D01*
X127285750Y-125565000D01*
X127127000Y-125723750D01*
X126873000Y-125723750D01*
X126714250Y-125565000D01*
X126200000Y-125561928D01*
X126075518Y-125574188D01*
X125955820Y-125610498D01*
X125845506Y-125669463D01*
X125748815Y-125748815D01*
X125669463Y-125845506D01*
X125610498Y-125955820D01*
X125581339Y-126051943D01*
X125414759Y-125885363D01*
X125179727Y-125728320D01*
X124918574Y-125620147D01*
X124641335Y-125565000D01*
X124358665Y-125565000D01*
X124081426Y-125620147D01*
X123820273Y-125728320D01*
X123585241Y-125885363D01*
X123385363Y-126085241D01*
X123228320Y-126320273D01*
X123120147Y-126581426D01*
X123065000Y-126858665D01*
X117705000Y-126858665D01*
X117705000Y-126789721D01*
X117622953Y-126377244D01*
X117462012Y-125988698D01*
X117228363Y-125639017D01*
X116930983Y-125341637D01*
X116581302Y-125107988D01*
X116192756Y-124947047D01*
X115780279Y-124865000D01*
X115359721Y-124865000D01*
X114947244Y-124947047D01*
X114558698Y-125107988D01*
X114209017Y-125341637D01*
X113911637Y-125639017D01*
X113677988Y-125988698D01*
X113517047Y-126377244D01*
X113435000Y-126789721D01*
X108610000Y-126789721D01*
X108610000Y-124090000D01*
X135621928Y-124090000D01*
X135634188Y-124214482D01*
X135670498Y-124334180D01*
X135729463Y-124444494D01*
X135808815Y-124541185D01*
X135905506Y-124620537D01*
X136015820Y-124679502D01*
X136135518Y-124715812D01*
X136260000Y-124728072D01*
X136874250Y-124725000D01*
X137033000Y-124566250D01*
X137033000Y-123317000D01*
X137287000Y-123317000D01*
X137287000Y-124566250D01*
X137445750Y-124725000D01*
X138060000Y-124728072D01*
X138184482Y-124715812D01*
X138304180Y-124679502D01*
X138414494Y-124620537D01*
X138511185Y-124541185D01*
X138590537Y-124444494D01*
X138649502Y-124334180D01*
X138685812Y-124214482D01*
X138698072Y-124090000D01*
X138695000Y-123475750D01*
X138536250Y-123317000D01*
X137287000Y-123317000D01*
X137033000Y-123317000D01*
X135783750Y-123317000D01*
X135625000Y-123475750D01*
X135621928Y-124090000D01*
X108610000Y-124090000D01*
X108610000Y-123411653D01*
X114257952Y-123411653D01*
X114413962Y-123727214D01*
X114788745Y-123918020D01*
X115193551Y-124032044D01*
X115612824Y-124064902D01*
X116030451Y-124015334D01*
X116430383Y-123885243D01*
X116726038Y-123727214D01*
X116882048Y-123411653D01*
X115570000Y-122099605D01*
X114257952Y-123411653D01*
X108610000Y-123411653D01*
X108610000Y-121962824D01*
X113425098Y-121962824D01*
X113474666Y-122380451D01*
X113604757Y-122780383D01*
X113762786Y-123076038D01*
X114078347Y-123232048D01*
X115390395Y-121920000D01*
X115749605Y-121920000D01*
X117061653Y-123232048D01*
X117377214Y-123076038D01*
X117568020Y-122701255D01*
X117682044Y-122296449D01*
X117682549Y-122290000D01*
X135621928Y-122290000D01*
X135625000Y-122904250D01*
X135783750Y-123063000D01*
X137033000Y-123063000D01*
X137033000Y-121813750D01*
X137287000Y-121813750D01*
X137287000Y-123063000D01*
X138536250Y-123063000D01*
X138560434Y-123038816D01*
X143245000Y-123038816D01*
X143245000Y-123341184D01*
X143303989Y-123637743D01*
X143419701Y-123917095D01*
X143587688Y-124168505D01*
X143801495Y-124382312D01*
X144052905Y-124550299D01*
X144332257Y-124666011D01*
X144628816Y-124725000D01*
X144931184Y-124725000D01*
X145227743Y-124666011D01*
X145507095Y-124550299D01*
X145758505Y-124382312D01*
X145972312Y-124168505D01*
X146140299Y-123917095D01*
X146256011Y-123637743D01*
X146315000Y-123341184D01*
X146315000Y-123038816D01*
X146256011Y-122742257D01*
X146140299Y-122462905D01*
X146024768Y-122290000D01*
X162291928Y-122290000D01*
X162291928Y-124090000D01*
X162304188Y-124214482D01*
X162340498Y-124334180D01*
X162399463Y-124444494D01*
X162478815Y-124541185D01*
X162575506Y-124620537D01*
X162685820Y-124679502D01*
X162805518Y-124715812D01*
X162930000Y-124728072D01*
X164730000Y-124728072D01*
X164854482Y-124715812D01*
X164974180Y-124679502D01*
X165084494Y-124620537D01*
X165181185Y-124541185D01*
X165260537Y-124444494D01*
X165319502Y-124334180D01*
X165355812Y-124214482D01*
X165368072Y-124090000D01*
X165368072Y-122290000D01*
X165355812Y-122165518D01*
X165319502Y-122045820D01*
X165260537Y-121935506D01*
X165181185Y-121838815D01*
X165107892Y-121778665D01*
X166840000Y-121778665D01*
X166840000Y-122061335D01*
X166895147Y-122338574D01*
X167003320Y-122599727D01*
X167160363Y-122834759D01*
X167360241Y-123034637D01*
X167595273Y-123191680D01*
X167856426Y-123299853D01*
X168133665Y-123355000D01*
X168416335Y-123355000D01*
X168693574Y-123299853D01*
X168954727Y-123191680D01*
X169189759Y-123034637D01*
X169389637Y-122834759D01*
X169546680Y-122599727D01*
X169654853Y-122338574D01*
X169710000Y-122061335D01*
X169710000Y-121920000D01*
X178697319Y-121920000D01*
X178727970Y-122231204D01*
X178818745Y-122530449D01*
X178966155Y-122806235D01*
X179164537Y-123047963D01*
X179406265Y-123246345D01*
X179682051Y-123393755D01*
X179981296Y-123484530D01*
X180214514Y-123507500D01*
X180465486Y-123507500D01*
X180698704Y-123484530D01*
X180997949Y-123393755D01*
X181273735Y-123246345D01*
X181515463Y-123047963D01*
X181713845Y-122806235D01*
X181861255Y-122530449D01*
X181952030Y-122231204D01*
X181982681Y-121920000D01*
X181952030Y-121608796D01*
X181861255Y-121309551D01*
X181713845Y-121033765D01*
X181515463Y-120792037D01*
X181336101Y-120644837D01*
X181521315Y-120489437D01*
X181715969Y-120246923D01*
X181859571Y-119971094D01*
X181930563Y-119752980D01*
X181810594Y-119507000D01*
X180467000Y-119507000D01*
X180467000Y-119527000D01*
X180213000Y-119527000D01*
X180213000Y-119507000D01*
X178869406Y-119507000D01*
X178749437Y-119752980D01*
X178820429Y-119971094D01*
X178964031Y-120246923D01*
X179158685Y-120489437D01*
X179343899Y-120644837D01*
X179164537Y-120792037D01*
X178966155Y-121033765D01*
X178818745Y-121309551D01*
X178727970Y-121608796D01*
X178697319Y-121920000D01*
X169710000Y-121920000D01*
X169710000Y-121778665D01*
X169654853Y-121501426D01*
X169546680Y-121240273D01*
X169389637Y-121005241D01*
X169189759Y-120805363D01*
X168954727Y-120648320D01*
X168693574Y-120540147D01*
X168416335Y-120485000D01*
X168133665Y-120485000D01*
X167856426Y-120540147D01*
X167595273Y-120648320D01*
X167360241Y-120805363D01*
X167160363Y-121005241D01*
X167003320Y-121240273D01*
X166895147Y-121501426D01*
X166840000Y-121778665D01*
X165107892Y-121778665D01*
X165084494Y-121759463D01*
X164974180Y-121700498D01*
X164854482Y-121664188D01*
X164730000Y-121651928D01*
X162930000Y-121651928D01*
X162805518Y-121664188D01*
X162685820Y-121700498D01*
X162575506Y-121759463D01*
X162478815Y-121838815D01*
X162399463Y-121935506D01*
X162340498Y-122045820D01*
X162304188Y-122165518D01*
X162291928Y-122290000D01*
X146024768Y-122290000D01*
X145972312Y-122211495D01*
X145758505Y-121997688D01*
X145507095Y-121829701D01*
X145227743Y-121713989D01*
X144931184Y-121655000D01*
X144628816Y-121655000D01*
X144332257Y-121713989D01*
X144052905Y-121829701D01*
X143801495Y-121997688D01*
X143587688Y-122211495D01*
X143419701Y-122462905D01*
X143303989Y-122742257D01*
X143245000Y-123038816D01*
X138560434Y-123038816D01*
X138695000Y-122904250D01*
X138698072Y-122290000D01*
X138685812Y-122165518D01*
X138649502Y-122045820D01*
X138590537Y-121935506D01*
X138511185Y-121838815D01*
X138414494Y-121759463D01*
X138304180Y-121700498D01*
X138184482Y-121664188D01*
X138060000Y-121651928D01*
X137445750Y-121655000D01*
X137287000Y-121813750D01*
X137033000Y-121813750D01*
X136874250Y-121655000D01*
X136260000Y-121651928D01*
X136135518Y-121664188D01*
X136015820Y-121700498D01*
X135905506Y-121759463D01*
X135808815Y-121838815D01*
X135729463Y-121935506D01*
X135670498Y-122045820D01*
X135634188Y-122165518D01*
X135621928Y-122290000D01*
X117682549Y-122290000D01*
X117714902Y-121877176D01*
X117665334Y-121459549D01*
X117535243Y-121059617D01*
X117377214Y-120763962D01*
X117061653Y-120607952D01*
X115749605Y-121920000D01*
X115390395Y-121920000D01*
X114078347Y-120607952D01*
X113762786Y-120763962D01*
X113571980Y-121138745D01*
X113457956Y-121543551D01*
X113425098Y-121962824D01*
X108610000Y-121962824D01*
X108610000Y-120428347D01*
X114257952Y-120428347D01*
X115570000Y-121740395D01*
X116882048Y-120428347D01*
X116726038Y-120112786D01*
X116351255Y-119921980D01*
X115946449Y-119807956D01*
X115527176Y-119775098D01*
X115109549Y-119824666D01*
X114709617Y-119954757D01*
X114413962Y-120112786D01*
X114257952Y-120428347D01*
X108610000Y-120428347D01*
X108610000Y-119238665D01*
X121755000Y-119238665D01*
X121755000Y-119521335D01*
X121810147Y-119798574D01*
X121918320Y-120059727D01*
X122075363Y-120294759D01*
X122275241Y-120494637D01*
X122510273Y-120651680D01*
X122771426Y-120759853D01*
X123048665Y-120815000D01*
X123331335Y-120815000D01*
X123608574Y-120759853D01*
X123869727Y-120651680D01*
X124104759Y-120494637D01*
X124226694Y-120372702D01*
X127376903Y-120372702D01*
X127448486Y-120616671D01*
X127703996Y-120737571D01*
X127978184Y-120806300D01*
X128260512Y-120820217D01*
X128540130Y-120778787D01*
X128806292Y-120683603D01*
X128931514Y-120616671D01*
X129003097Y-120372702D01*
X128190000Y-119559605D01*
X127376903Y-120372702D01*
X124226694Y-120372702D01*
X124304637Y-120294759D01*
X124461680Y-120059727D01*
X124569853Y-119798574D01*
X124625000Y-119521335D01*
X124625000Y-119450512D01*
X126749783Y-119450512D01*
X126791213Y-119730130D01*
X126886397Y-119996292D01*
X126953329Y-120121514D01*
X127197298Y-120193097D01*
X128010395Y-119380000D01*
X128369605Y-119380000D01*
X129182702Y-120193097D01*
X129426671Y-120121514D01*
X129547571Y-119866004D01*
X129616300Y-119591816D01*
X129630217Y-119309488D01*
X129588787Y-119029870D01*
X129493603Y-118763708D01*
X129426671Y-118638486D01*
X129182702Y-118566903D01*
X128369605Y-119380000D01*
X128010395Y-119380000D01*
X127197298Y-118566903D01*
X126953329Y-118638486D01*
X126832429Y-118893996D01*
X126763700Y-119168184D01*
X126749783Y-119450512D01*
X124625000Y-119450512D01*
X124625000Y-119238665D01*
X124569853Y-118961426D01*
X124461680Y-118700273D01*
X124304637Y-118465241D01*
X124226694Y-118387298D01*
X127376903Y-118387298D01*
X128190000Y-119200395D01*
X129003097Y-118387298D01*
X128931514Y-118143329D01*
X128676004Y-118022429D01*
X128401816Y-117953700D01*
X128119488Y-117939783D01*
X127839870Y-117981213D01*
X127573708Y-118076397D01*
X127448486Y-118143329D01*
X127376903Y-118387298D01*
X124226694Y-118387298D01*
X124104759Y-118265363D01*
X123869727Y-118108320D01*
X123608574Y-118000147D01*
X123331335Y-117945000D01*
X123048665Y-117945000D01*
X122771426Y-118000147D01*
X122510273Y-118108320D01*
X122275241Y-118265363D01*
X122075363Y-118465241D01*
X121918320Y-118700273D01*
X121810147Y-118961426D01*
X121755000Y-119238665D01*
X108610000Y-119238665D01*
X108610000Y-116629721D01*
X113435000Y-116629721D01*
X113435000Y-117050279D01*
X113517047Y-117462756D01*
X113677988Y-117851302D01*
X113911637Y-118200983D01*
X114209017Y-118498363D01*
X114558698Y-118732012D01*
X114947244Y-118892953D01*
X115359721Y-118975000D01*
X115780279Y-118975000D01*
X116192756Y-118892953D01*
X116581302Y-118732012D01*
X116930983Y-118498363D01*
X117228363Y-118200983D01*
X117420985Y-117912702D01*
X167461903Y-117912702D01*
X167533486Y-118156671D01*
X167788996Y-118277571D01*
X168063184Y-118346300D01*
X168345512Y-118360217D01*
X168625130Y-118318787D01*
X168891292Y-118223603D01*
X169016514Y-118156671D01*
X169088097Y-117912702D01*
X168275000Y-117099605D01*
X167461903Y-117912702D01*
X117420985Y-117912702D01*
X117462012Y-117851302D01*
X117622953Y-117462756D01*
X117705000Y-117050279D01*
X117705000Y-116629721D01*
X117622953Y-116217244D01*
X117505937Y-115934740D01*
X135668964Y-115934740D01*
X135717606Y-116095107D01*
X135847764Y-116366414D01*
X136028351Y-116607116D01*
X136252427Y-116807962D01*
X136511380Y-116961234D01*
X136795259Y-117061041D01*
X137033000Y-116940992D01*
X137033000Y-115697000D01*
X137287000Y-115697000D01*
X137287000Y-116940992D01*
X137524741Y-117061041D01*
X137808620Y-116961234D01*
X138067573Y-116807962D01*
X138291649Y-116607116D01*
X138472236Y-116366414D01*
X138602394Y-116095107D01*
X138651036Y-115934740D01*
X138530378Y-115697000D01*
X137287000Y-115697000D01*
X137033000Y-115697000D01*
X135789622Y-115697000D01*
X135668964Y-115934740D01*
X117505937Y-115934740D01*
X117462012Y-115828698D01*
X117228363Y-115479017D01*
X116954606Y-115205260D01*
X135668964Y-115205260D01*
X135789622Y-115443000D01*
X137033000Y-115443000D01*
X137033000Y-114199008D01*
X137287000Y-114199008D01*
X137287000Y-115443000D01*
X138530378Y-115443000D01*
X138651036Y-115205260D01*
X138602394Y-115044893D01*
X138472236Y-114773586D01*
X138394521Y-114670000D01*
X143241928Y-114670000D01*
X143241928Y-116470000D01*
X143254188Y-116594482D01*
X143290498Y-116714180D01*
X143349463Y-116824494D01*
X143428815Y-116921185D01*
X143525506Y-117000537D01*
X143635820Y-117059502D01*
X143755518Y-117095812D01*
X143880000Y-117108072D01*
X145680000Y-117108072D01*
X145804482Y-117095812D01*
X145924180Y-117059502D01*
X146034494Y-117000537D01*
X146131185Y-116921185D01*
X146210537Y-116824494D01*
X146269502Y-116714180D01*
X146305812Y-116594482D01*
X146318072Y-116470000D01*
X146318072Y-115934741D01*
X162338959Y-115934741D01*
X162438766Y-116218620D01*
X162592038Y-116477573D01*
X162792884Y-116701649D01*
X163033586Y-116882236D01*
X163304893Y-117012394D01*
X163465260Y-117061036D01*
X163703000Y-116940378D01*
X163703000Y-115697000D01*
X163957000Y-115697000D01*
X163957000Y-116940378D01*
X164194740Y-117061036D01*
X164355107Y-117012394D01*
X164400718Y-116990512D01*
X166834783Y-116990512D01*
X166876213Y-117270130D01*
X166971397Y-117536292D01*
X167038329Y-117661514D01*
X167282298Y-117733097D01*
X168095395Y-116920000D01*
X168454605Y-116920000D01*
X169267702Y-117733097D01*
X169511671Y-117661514D01*
X169632571Y-117406004D01*
X169701300Y-117131816D01*
X169715217Y-116849488D01*
X169673787Y-116569870D01*
X169578603Y-116303708D01*
X169511671Y-116178486D01*
X169267702Y-116106903D01*
X168454605Y-116920000D01*
X168095395Y-116920000D01*
X167282298Y-116106903D01*
X167038329Y-116178486D01*
X166917429Y-116433996D01*
X166848700Y-116708184D01*
X166834783Y-116990512D01*
X164400718Y-116990512D01*
X164626414Y-116882236D01*
X164867116Y-116701649D01*
X165067962Y-116477573D01*
X165221234Y-116218620D01*
X165321041Y-115934741D01*
X165317283Y-115927298D01*
X167461903Y-115927298D01*
X168275000Y-116740395D01*
X169088097Y-115927298D01*
X169076420Y-115887500D01*
X178701928Y-115887500D01*
X178701928Y-117792500D01*
X178714188Y-117916982D01*
X178750498Y-118036680D01*
X178809463Y-118146994D01*
X178888815Y-118243685D01*
X178985506Y-118323037D01*
X179077219Y-118372059D01*
X178964031Y-118513077D01*
X178820429Y-118788906D01*
X178749437Y-119007020D01*
X178869406Y-119253000D01*
X180213000Y-119253000D01*
X180213000Y-119233000D01*
X180467000Y-119233000D01*
X180467000Y-119253000D01*
X181810594Y-119253000D01*
X181930563Y-119007020D01*
X181859571Y-118788906D01*
X181715969Y-118513077D01*
X181602781Y-118372059D01*
X181694494Y-118323037D01*
X181791185Y-118243685D01*
X181870537Y-118146994D01*
X181929502Y-118036680D01*
X181965812Y-117916982D01*
X181978072Y-117792500D01*
X181978072Y-115887500D01*
X181965812Y-115763018D01*
X181929502Y-115643320D01*
X181870537Y-115533006D01*
X181791185Y-115436315D01*
X181694494Y-115356963D01*
X181584180Y-115297998D01*
X181464482Y-115261688D01*
X181340000Y-115249428D01*
X179340000Y-115249428D01*
X179215518Y-115261688D01*
X179095820Y-115297998D01*
X178985506Y-115356963D01*
X178888815Y-115436315D01*
X178809463Y-115533006D01*
X178750498Y-115643320D01*
X178714188Y-115763018D01*
X178701928Y-115887500D01*
X169076420Y-115887500D01*
X169016514Y-115683329D01*
X168761004Y-115562429D01*
X168486816Y-115493700D01*
X168204488Y-115479783D01*
X167924870Y-115521213D01*
X167658708Y-115616397D01*
X167533486Y-115683329D01*
X167461903Y-115927298D01*
X165317283Y-115927298D01*
X165200992Y-115697000D01*
X163957000Y-115697000D01*
X163703000Y-115697000D01*
X162459008Y-115697000D01*
X162338959Y-115934741D01*
X146318072Y-115934741D01*
X146318072Y-115205259D01*
X162338959Y-115205259D01*
X162459008Y-115443000D01*
X163703000Y-115443000D01*
X163703000Y-114199622D01*
X163957000Y-114199622D01*
X163957000Y-115443000D01*
X165200992Y-115443000D01*
X165321041Y-115205259D01*
X165221234Y-114921380D01*
X165067962Y-114662427D01*
X164867116Y-114438351D01*
X164626414Y-114257764D01*
X164355107Y-114127606D01*
X164194740Y-114078964D01*
X163957000Y-114199622D01*
X163703000Y-114199622D01*
X163465260Y-114078964D01*
X163304893Y-114127606D01*
X163033586Y-114257764D01*
X162792884Y-114438351D01*
X162592038Y-114662427D01*
X162438766Y-114921380D01*
X162338959Y-115205259D01*
X146318072Y-115205259D01*
X146318072Y-114670000D01*
X146305812Y-114545518D01*
X146269502Y-114425820D01*
X146210537Y-114315506D01*
X146131185Y-114218815D01*
X146034494Y-114139463D01*
X145924180Y-114080498D01*
X145804482Y-114044188D01*
X145680000Y-114031928D01*
X143880000Y-114031928D01*
X143755518Y-114044188D01*
X143635820Y-114080498D01*
X143525506Y-114139463D01*
X143428815Y-114218815D01*
X143349463Y-114315506D01*
X143290498Y-114425820D01*
X143254188Y-114545518D01*
X143241928Y-114670000D01*
X138394521Y-114670000D01*
X138291649Y-114532884D01*
X138067573Y-114332038D01*
X137808620Y-114178766D01*
X137524741Y-114078959D01*
X137287000Y-114199008D01*
X137033000Y-114199008D01*
X136795259Y-114078959D01*
X136511380Y-114178766D01*
X136252427Y-114332038D01*
X136028351Y-114532884D01*
X135847764Y-114773586D01*
X135717606Y-115044893D01*
X135668964Y-115205260D01*
X116954606Y-115205260D01*
X116930983Y-115181637D01*
X116581302Y-114947988D01*
X116192756Y-114787047D01*
X115780279Y-114705000D01*
X115359721Y-114705000D01*
X114947244Y-114787047D01*
X114558698Y-114947988D01*
X114209017Y-115181637D01*
X113911637Y-115479017D01*
X113677988Y-115828698D01*
X113517047Y-116217244D01*
X113435000Y-116629721D01*
X108610000Y-116629721D01*
X108610000Y-110260000D01*
X113431928Y-110260000D01*
X113431928Y-113260000D01*
X113444188Y-113384482D01*
X113480498Y-113504180D01*
X113539463Y-113614494D01*
X113618815Y-113711185D01*
X113715506Y-113790537D01*
X113825820Y-113849502D01*
X113945518Y-113885812D01*
X114070000Y-113898072D01*
X117070000Y-113898072D01*
X117194482Y-113885812D01*
X117314180Y-113849502D01*
X117424494Y-113790537D01*
X117521185Y-113711185D01*
X117600537Y-113614494D01*
X117659502Y-113504180D01*
X117695812Y-113384482D01*
X117708072Y-113260000D01*
X117708072Y-111618665D01*
X121755000Y-111618665D01*
X121755000Y-111901335D01*
X121810147Y-112178574D01*
X121918320Y-112439727D01*
X122075363Y-112674759D01*
X122275241Y-112874637D01*
X122510273Y-113031680D01*
X122771426Y-113139853D01*
X123048665Y-113195000D01*
X123331335Y-113195000D01*
X123608574Y-113139853D01*
X123869727Y-113031680D01*
X124104759Y-112874637D01*
X124226694Y-112752702D01*
X127376903Y-112752702D01*
X127448486Y-112996671D01*
X127703996Y-113117571D01*
X127978184Y-113186300D01*
X128260512Y-113200217D01*
X128540130Y-113158787D01*
X128806292Y-113063603D01*
X128931514Y-112996671D01*
X129003097Y-112752702D01*
X128190000Y-111939605D01*
X127376903Y-112752702D01*
X124226694Y-112752702D01*
X124304637Y-112674759D01*
X124461680Y-112439727D01*
X124569853Y-112178574D01*
X124625000Y-111901335D01*
X124625000Y-111830512D01*
X126749783Y-111830512D01*
X126791213Y-112110130D01*
X126886397Y-112376292D01*
X126953329Y-112501514D01*
X127197298Y-112573097D01*
X128010395Y-111760000D01*
X128369605Y-111760000D01*
X129182702Y-112573097D01*
X129426671Y-112501514D01*
X129547571Y-112246004D01*
X129616300Y-111971816D01*
X129630217Y-111689488D01*
X129588787Y-111409870D01*
X129493603Y-111143708D01*
X129426671Y-111018486D01*
X129182702Y-110946903D01*
X128369605Y-111760000D01*
X128010395Y-111760000D01*
X127197298Y-110946903D01*
X126953329Y-111018486D01*
X126832429Y-111273996D01*
X126763700Y-111548184D01*
X126749783Y-111830512D01*
X124625000Y-111830512D01*
X124625000Y-111618665D01*
X124569853Y-111341426D01*
X124461680Y-111080273D01*
X124304637Y-110845241D01*
X124226694Y-110767298D01*
X127376903Y-110767298D01*
X128190000Y-111580395D01*
X128922693Y-110847702D01*
X137696903Y-110847702D01*
X137768486Y-111091671D01*
X138023996Y-111212571D01*
X138298184Y-111281300D01*
X138580512Y-111295217D01*
X138860130Y-111253787D01*
X139126292Y-111158603D01*
X139251514Y-111091671D01*
X139323097Y-110847702D01*
X138510000Y-110034605D01*
X137696903Y-110847702D01*
X128922693Y-110847702D01*
X129003097Y-110767298D01*
X128931514Y-110523329D01*
X128676004Y-110402429D01*
X128401816Y-110333700D01*
X128119488Y-110319783D01*
X127839870Y-110361213D01*
X127573708Y-110456397D01*
X127448486Y-110523329D01*
X127376903Y-110767298D01*
X124226694Y-110767298D01*
X124104759Y-110645363D01*
X123869727Y-110488320D01*
X123608574Y-110380147D01*
X123331335Y-110325000D01*
X123048665Y-110325000D01*
X122771426Y-110380147D01*
X122510273Y-110488320D01*
X122275241Y-110645363D01*
X122075363Y-110845241D01*
X121918320Y-111080273D01*
X121810147Y-111341426D01*
X121755000Y-111618665D01*
X117708072Y-111618665D01*
X117708072Y-110260000D01*
X117695812Y-110135518D01*
X117659502Y-110015820D01*
X117611231Y-109925512D01*
X137069783Y-109925512D01*
X137111213Y-110205130D01*
X137206397Y-110471292D01*
X137273329Y-110596514D01*
X137517298Y-110668097D01*
X138330395Y-109855000D01*
X138689605Y-109855000D01*
X139502702Y-110668097D01*
X139746671Y-110596514D01*
X139867571Y-110341004D01*
X139936300Y-110066816D01*
X139950217Y-109784488D01*
X139939724Y-109713665D01*
X142075000Y-109713665D01*
X142075000Y-109996335D01*
X142130147Y-110273574D01*
X142238320Y-110534727D01*
X142395363Y-110769759D01*
X142595241Y-110969637D01*
X142830273Y-111126680D01*
X143091426Y-111234853D01*
X143368665Y-111290000D01*
X143651335Y-111290000D01*
X143928574Y-111234853D01*
X144189727Y-111126680D01*
X144424759Y-110969637D01*
X144624637Y-110769759D01*
X144781680Y-110534727D01*
X144889853Y-110273574D01*
X144945000Y-109996335D01*
X144945000Y-109713665D01*
X144889853Y-109436426D01*
X144781680Y-109175273D01*
X144624637Y-108940241D01*
X144424759Y-108740363D01*
X144189727Y-108583320D01*
X143928574Y-108475147D01*
X143651335Y-108420000D01*
X143368665Y-108420000D01*
X143091426Y-108475147D01*
X142830273Y-108583320D01*
X142595241Y-108740363D01*
X142395363Y-108940241D01*
X142238320Y-109175273D01*
X142130147Y-109436426D01*
X142075000Y-109713665D01*
X139939724Y-109713665D01*
X139908787Y-109504870D01*
X139813603Y-109238708D01*
X139746671Y-109113486D01*
X139502702Y-109041903D01*
X138689605Y-109855000D01*
X138330395Y-109855000D01*
X137517298Y-109041903D01*
X137273329Y-109113486D01*
X137152429Y-109368996D01*
X137083700Y-109643184D01*
X137069783Y-109925512D01*
X117611231Y-109925512D01*
X117600537Y-109905506D01*
X117521185Y-109808815D01*
X117424494Y-109729463D01*
X117314180Y-109670498D01*
X117194482Y-109634188D01*
X117070000Y-109621928D01*
X114070000Y-109621928D01*
X113945518Y-109634188D01*
X113825820Y-109670498D01*
X113715506Y-109729463D01*
X113618815Y-109808815D01*
X113539463Y-109905506D01*
X113480498Y-110015820D01*
X113444188Y-110135518D01*
X113431928Y-110260000D01*
X108610000Y-110260000D01*
X108610000Y-108862298D01*
X137696903Y-108862298D01*
X138510000Y-109675395D01*
X139323097Y-108862298D01*
X139251514Y-108618329D01*
X138996004Y-108497429D01*
X138721816Y-108428700D01*
X138439488Y-108414783D01*
X138159870Y-108456213D01*
X137893708Y-108551397D01*
X137768486Y-108618329D01*
X137696903Y-108862298D01*
X108610000Y-108862298D01*
X108610000Y-106420475D01*
X180880000Y-106420475D01*
X180880000Y-106939525D01*
X180981261Y-107448601D01*
X181179893Y-107928141D01*
X181468262Y-108359715D01*
X181835285Y-108726738D01*
X182266859Y-109015107D01*
X182746399Y-109213739D01*
X183255475Y-109315000D01*
X183774525Y-109315000D01*
X184283601Y-109213739D01*
X184763141Y-109015107D01*
X185194715Y-108726738D01*
X185561738Y-108359715D01*
X185850107Y-107928141D01*
X186048739Y-107448601D01*
X186150000Y-106939525D01*
X186150000Y-106420475D01*
X186048739Y-105911399D01*
X185850107Y-105431859D01*
X185835502Y-105410000D01*
X194823300Y-105410000D01*
X194830001Y-105478039D01*
X194830000Y-135186971D01*
X194823300Y-135255000D01*
X194830000Y-135323029D01*
X194830000Y-135323036D01*
X194850040Y-135526506D01*
X194929236Y-135787580D01*
X195057843Y-136028187D01*
X195230919Y-136239080D01*
X195283765Y-136282450D01*
X203442550Y-144441236D01*
X203485919Y-144494081D01*
X203538764Y-144537450D01*
X203538766Y-144537452D01*
X203651099Y-144629641D01*
X203696812Y-144667157D01*
X203937419Y-144795764D01*
X204198492Y-144874960D01*
X204221892Y-144877265D01*
X204401963Y-144895000D01*
X204401971Y-144895000D01*
X204470000Y-144901700D01*
X204538029Y-144895000D01*
X213458195Y-144895000D01*
X213561842Y-144937932D01*
X213848740Y-144995000D01*
X214141260Y-144995000D01*
X214428158Y-144937932D01*
X214698411Y-144825990D01*
X214941632Y-144663475D01*
X215073487Y-144531620D01*
X215095498Y-144604180D01*
X215154463Y-144714494D01*
X215233815Y-144811185D01*
X215330506Y-144890537D01*
X215440820Y-144949502D01*
X215560518Y-144985812D01*
X215685000Y-144998072D01*
X217385000Y-144998072D01*
X217509482Y-144985812D01*
X217629180Y-144949502D01*
X217739494Y-144890537D01*
X217836185Y-144811185D01*
X217915537Y-144714494D01*
X217974502Y-144604180D01*
X218010812Y-144484482D01*
X218023072Y-144360000D01*
X218023072Y-142660000D01*
X218010812Y-142535518D01*
X217974502Y-142415820D01*
X217915537Y-142305506D01*
X217836185Y-142208815D01*
X217739494Y-142129463D01*
X217629180Y-142070498D01*
X217548534Y-142046034D01*
X217632588Y-141970269D01*
X217806641Y-141736920D01*
X217931825Y-141474099D01*
X217976476Y-141326890D01*
X217855155Y-141097000D01*
X216662000Y-141097000D01*
X216662000Y-141117000D01*
X216408000Y-141117000D01*
X216408000Y-141097000D01*
X214122000Y-141097000D01*
X214122000Y-141117000D01*
X213868000Y-141117000D01*
X213868000Y-141097000D01*
X212674845Y-141097000D01*
X212553524Y-141326890D01*
X212598175Y-141474099D01*
X212723359Y-141736920D01*
X212897412Y-141970269D01*
X213069071Y-142125000D01*
X205043686Y-142125000D01*
X201705576Y-138786890D01*
X212553524Y-138786890D01*
X212598175Y-138934099D01*
X212723359Y-139196920D01*
X212897412Y-139430269D01*
X213113645Y-139625178D01*
X213239255Y-139700000D01*
X213113645Y-139774822D01*
X212897412Y-139969731D01*
X212723359Y-140203080D01*
X212598175Y-140465901D01*
X212553524Y-140613110D01*
X212674845Y-140843000D01*
X213868000Y-140843000D01*
X213868000Y-138557000D01*
X214122000Y-138557000D01*
X214122000Y-140843000D01*
X216408000Y-140843000D01*
X216408000Y-138557000D01*
X216662000Y-138557000D01*
X216662000Y-140843000D01*
X217855155Y-140843000D01*
X217976476Y-140613110D01*
X217931825Y-140465901D01*
X217806641Y-140203080D01*
X217632588Y-139969731D01*
X217416355Y-139774822D01*
X217290745Y-139700000D01*
X217416355Y-139625178D01*
X217632588Y-139430269D01*
X217806641Y-139196920D01*
X217931825Y-138934099D01*
X217976476Y-138786890D01*
X217855155Y-138557000D01*
X216662000Y-138557000D01*
X216408000Y-138557000D01*
X214122000Y-138557000D01*
X213868000Y-138557000D01*
X212674845Y-138557000D01*
X212553524Y-138786890D01*
X201705576Y-138786890D01*
X199165576Y-136246890D01*
X212553524Y-136246890D01*
X212598175Y-136394099D01*
X212723359Y-136656920D01*
X212897412Y-136890269D01*
X213113645Y-137085178D01*
X213239255Y-137160000D01*
X213113645Y-137234822D01*
X212897412Y-137429731D01*
X212723359Y-137663080D01*
X212598175Y-137925901D01*
X212553524Y-138073110D01*
X212674845Y-138303000D01*
X213868000Y-138303000D01*
X213868000Y-136017000D01*
X214122000Y-136017000D01*
X214122000Y-138303000D01*
X216408000Y-138303000D01*
X216408000Y-136017000D01*
X216662000Y-136017000D01*
X216662000Y-138303000D01*
X217855155Y-138303000D01*
X217976476Y-138073110D01*
X217931825Y-137925901D01*
X217806641Y-137663080D01*
X217632588Y-137429731D01*
X217416355Y-137234822D01*
X217290745Y-137160000D01*
X217416355Y-137085178D01*
X217632588Y-136890269D01*
X217806641Y-136656920D01*
X217931825Y-136394099D01*
X217976476Y-136246890D01*
X217855155Y-136017000D01*
X216662000Y-136017000D01*
X216408000Y-136017000D01*
X214122000Y-136017000D01*
X213868000Y-136017000D01*
X212674845Y-136017000D01*
X212553524Y-136246890D01*
X199165576Y-136246890D01*
X197600000Y-134681315D01*
X197600000Y-111125000D01*
X203078300Y-111125000D01*
X203085001Y-111193039D01*
X203085000Y-130106971D01*
X203078300Y-130175000D01*
X203085000Y-130243029D01*
X203085000Y-130243036D01*
X203105040Y-130446506D01*
X203184236Y-130707580D01*
X203312843Y-130948187D01*
X203485919Y-131159080D01*
X203538765Y-131202450D01*
X206617550Y-134281236D01*
X206660919Y-134334081D01*
X206713764Y-134377450D01*
X206713766Y-134377452D01*
X206759649Y-134415107D01*
X206871812Y-134507157D01*
X207112419Y-134635764D01*
X207373493Y-134714960D01*
X207576963Y-134735000D01*
X207576972Y-134735000D01*
X207644999Y-134741700D01*
X207713026Y-134735000D01*
X213069071Y-134735000D01*
X212897412Y-134889731D01*
X212723359Y-135123080D01*
X212598175Y-135385901D01*
X212553524Y-135533110D01*
X212674845Y-135763000D01*
X213868000Y-135763000D01*
X213868000Y-135743000D01*
X214122000Y-135743000D01*
X214122000Y-135763000D01*
X216408000Y-135763000D01*
X216408000Y-135743000D01*
X216662000Y-135743000D01*
X216662000Y-135763000D01*
X217855155Y-135763000D01*
X217976476Y-135533110D01*
X217931825Y-135385901D01*
X217806641Y-135123080D01*
X217632588Y-134889731D01*
X217416355Y-134694822D01*
X217299466Y-134625195D01*
X217481632Y-134503475D01*
X217688475Y-134296632D01*
X217850990Y-134053411D01*
X217962932Y-133783158D01*
X218020000Y-133496260D01*
X218020000Y-133203740D01*
X217962932Y-132916842D01*
X217850990Y-132646589D01*
X217688475Y-132403368D01*
X217481632Y-132196525D01*
X217307240Y-132080000D01*
X217481632Y-131963475D01*
X217688475Y-131756632D01*
X217850990Y-131513411D01*
X217962932Y-131243158D01*
X218020000Y-130956260D01*
X218020000Y-130663740D01*
X217962932Y-130376842D01*
X217850990Y-130106589D01*
X217688475Y-129863368D01*
X217481632Y-129656525D01*
X217307240Y-129540000D01*
X217481632Y-129423475D01*
X217688475Y-129216632D01*
X217850990Y-128973411D01*
X217962932Y-128703158D01*
X218020000Y-128416260D01*
X218020000Y-128123740D01*
X217962932Y-127836842D01*
X217850990Y-127566589D01*
X217688475Y-127323368D01*
X217481632Y-127116525D01*
X217307240Y-127000000D01*
X217481632Y-126883475D01*
X217688475Y-126676632D01*
X217850990Y-126433411D01*
X217962932Y-126163158D01*
X218020000Y-125876260D01*
X218020000Y-125583740D01*
X217962932Y-125296842D01*
X217850990Y-125026589D01*
X217688475Y-124783368D01*
X217481632Y-124576525D01*
X217238411Y-124414010D01*
X216968158Y-124302068D01*
X216681260Y-124245000D01*
X216388740Y-124245000D01*
X216101842Y-124302068D01*
X215831589Y-124414010D01*
X215588368Y-124576525D01*
X215381525Y-124783368D01*
X215380000Y-124785650D01*
X215380000Y-115244350D01*
X215381525Y-115246632D01*
X215588368Y-115453475D01*
X215831589Y-115615990D01*
X216101842Y-115727932D01*
X216388740Y-115785000D01*
X216681260Y-115785000D01*
X216968158Y-115727932D01*
X217238411Y-115615990D01*
X217481632Y-115453475D01*
X217688475Y-115246632D01*
X217850990Y-115003411D01*
X217962932Y-114733158D01*
X218020000Y-114446260D01*
X218020000Y-114153740D01*
X217962932Y-113866842D01*
X217850990Y-113596589D01*
X217688475Y-113353368D01*
X217481632Y-113146525D01*
X217307240Y-113030000D01*
X217481632Y-112913475D01*
X217688475Y-112706632D01*
X217850990Y-112463411D01*
X217962932Y-112193158D01*
X218020000Y-111906260D01*
X218020000Y-111613740D01*
X217962932Y-111326842D01*
X217850990Y-111056589D01*
X217688475Y-110813368D01*
X217481632Y-110606525D01*
X217307240Y-110490000D01*
X217481632Y-110373475D01*
X217688475Y-110166632D01*
X217850990Y-109923411D01*
X217962932Y-109653158D01*
X218020000Y-109366260D01*
X218020000Y-109073740D01*
X217962932Y-108786842D01*
X217850990Y-108516589D01*
X217688475Y-108273368D01*
X217481632Y-108066525D01*
X217307240Y-107950000D01*
X217481632Y-107833475D01*
X217688475Y-107626632D01*
X217850990Y-107383411D01*
X217962932Y-107113158D01*
X218020000Y-106826260D01*
X218020000Y-106533740D01*
X217962932Y-106246842D01*
X217850990Y-105976589D01*
X217688475Y-105733368D01*
X217481632Y-105526525D01*
X217299466Y-105404805D01*
X217416355Y-105335178D01*
X217632588Y-105140269D01*
X217806641Y-104906920D01*
X217931825Y-104644099D01*
X217976476Y-104496890D01*
X217855155Y-104267000D01*
X216662000Y-104267000D01*
X216662000Y-104287000D01*
X216408000Y-104287000D01*
X216408000Y-104267000D01*
X214122000Y-104267000D01*
X214122000Y-104287000D01*
X213868000Y-104287000D01*
X213868000Y-104267000D01*
X212674845Y-104267000D01*
X212553524Y-104496890D01*
X212598175Y-104644099D01*
X212723359Y-104906920D01*
X212897412Y-105140269D01*
X213069071Y-105295000D01*
X208983026Y-105295000D01*
X208914999Y-105288300D01*
X208846972Y-105295000D01*
X208846963Y-105295000D01*
X208643493Y-105315040D01*
X208382419Y-105394236D01*
X208141812Y-105522843D01*
X208096099Y-105560359D01*
X207983766Y-105652548D01*
X207983764Y-105652550D01*
X207930919Y-105695919D01*
X207887550Y-105748764D01*
X203538764Y-110097551D01*
X203485920Y-110140919D01*
X203442551Y-110193764D01*
X203442548Y-110193767D01*
X203312844Y-110351812D01*
X203184236Y-110592420D01*
X203105040Y-110853493D01*
X203078300Y-111125000D01*
X197600000Y-111125000D01*
X197600000Y-105983685D01*
X201626795Y-101956890D01*
X212553524Y-101956890D01*
X212598175Y-102104099D01*
X212723359Y-102366920D01*
X212897412Y-102600269D01*
X213113645Y-102795178D01*
X213239255Y-102870000D01*
X213113645Y-102944822D01*
X212897412Y-103139731D01*
X212723359Y-103373080D01*
X212598175Y-103635901D01*
X212553524Y-103783110D01*
X212674845Y-104013000D01*
X213868000Y-104013000D01*
X213868000Y-101727000D01*
X214122000Y-101727000D01*
X214122000Y-104013000D01*
X216408000Y-104013000D01*
X216408000Y-101727000D01*
X216662000Y-101727000D01*
X216662000Y-104013000D01*
X217855155Y-104013000D01*
X217976476Y-103783110D01*
X217931825Y-103635901D01*
X217806641Y-103373080D01*
X217632588Y-103139731D01*
X217416355Y-102944822D01*
X217290745Y-102870000D01*
X217416355Y-102795178D01*
X217632588Y-102600269D01*
X217806641Y-102366920D01*
X217931825Y-102104099D01*
X217976476Y-101956890D01*
X217855155Y-101727000D01*
X216662000Y-101727000D01*
X216408000Y-101727000D01*
X214122000Y-101727000D01*
X213868000Y-101727000D01*
X212674845Y-101727000D01*
X212553524Y-101956890D01*
X201626795Y-101956890D01*
X204166795Y-99416890D01*
X212553524Y-99416890D01*
X212598175Y-99564099D01*
X212723359Y-99826920D01*
X212897412Y-100060269D01*
X213113645Y-100255178D01*
X213239255Y-100330000D01*
X213113645Y-100404822D01*
X212897412Y-100599731D01*
X212723359Y-100833080D01*
X212598175Y-101095901D01*
X212553524Y-101243110D01*
X212674845Y-101473000D01*
X213868000Y-101473000D01*
X213868000Y-99187000D01*
X214122000Y-99187000D01*
X214122000Y-101473000D01*
X216408000Y-101473000D01*
X216408000Y-99187000D01*
X216662000Y-99187000D01*
X216662000Y-101473000D01*
X217855155Y-101473000D01*
X217976476Y-101243110D01*
X217931825Y-101095901D01*
X217806641Y-100833080D01*
X217632588Y-100599731D01*
X217416355Y-100404822D01*
X217290745Y-100330000D01*
X217416355Y-100255178D01*
X217632588Y-100060269D01*
X217806641Y-99826920D01*
X217931825Y-99564099D01*
X217976476Y-99416890D01*
X217855155Y-99187000D01*
X216662000Y-99187000D01*
X216408000Y-99187000D01*
X214122000Y-99187000D01*
X213868000Y-99187000D01*
X212674845Y-99187000D01*
X212553524Y-99416890D01*
X204166795Y-99416890D01*
X205678686Y-97905000D01*
X212798856Y-97905000D01*
X212900820Y-97959502D01*
X212981466Y-97983966D01*
X212897412Y-98059731D01*
X212723359Y-98293080D01*
X212598175Y-98555901D01*
X212553524Y-98703110D01*
X212674845Y-98933000D01*
X213868000Y-98933000D01*
X213868000Y-98913000D01*
X214122000Y-98913000D01*
X214122000Y-98933000D01*
X216408000Y-98933000D01*
X216408000Y-98913000D01*
X216662000Y-98913000D01*
X216662000Y-98933000D01*
X217855155Y-98933000D01*
X217976476Y-98703110D01*
X217931825Y-98555901D01*
X217806641Y-98293080D01*
X217632588Y-98059731D01*
X217416355Y-97864822D01*
X217299466Y-97795195D01*
X217481632Y-97673475D01*
X217688475Y-97466632D01*
X217850990Y-97223411D01*
X217962932Y-96953158D01*
X218020000Y-96666260D01*
X218020000Y-96373740D01*
X217962932Y-96086842D01*
X217850990Y-95816589D01*
X217688475Y-95573368D01*
X217481632Y-95366525D01*
X217238411Y-95204010D01*
X216968158Y-95092068D01*
X216681260Y-95035000D01*
X216388740Y-95035000D01*
X216101842Y-95092068D01*
X215831589Y-95204010D01*
X215588368Y-95366525D01*
X215456513Y-95498380D01*
X215434502Y-95425820D01*
X215375537Y-95315506D01*
X215296185Y-95218815D01*
X215199494Y-95139463D01*
X215089180Y-95080498D01*
X214969482Y-95044188D01*
X214845000Y-95031928D01*
X213145000Y-95031928D01*
X213020518Y-95044188D01*
X212900820Y-95080498D01*
X212798856Y-95135000D01*
X205173037Y-95135000D01*
X205105000Y-95128299D01*
X205036963Y-95135000D01*
X204833493Y-95155040D01*
X204572419Y-95234236D01*
X204331812Y-95362843D01*
X204173766Y-95492548D01*
X204173764Y-95492550D01*
X204120919Y-95535919D01*
X204077550Y-95588764D01*
X195283764Y-104382551D01*
X195230920Y-104425919D01*
X195187551Y-104478764D01*
X195187548Y-104478767D01*
X195057844Y-104636812D01*
X194929236Y-104877420D01*
X194850040Y-105138493D01*
X194823300Y-105410000D01*
X185835502Y-105410000D01*
X185561738Y-105000285D01*
X185194715Y-104633262D01*
X184763141Y-104344893D01*
X184283601Y-104146261D01*
X183774525Y-104045000D01*
X183255475Y-104045000D01*
X182746399Y-104146261D01*
X182266859Y-104344893D01*
X181835285Y-104633262D01*
X181468262Y-105000285D01*
X181179893Y-105431859D01*
X180981261Y-105911399D01*
X180880000Y-106420475D01*
X108610000Y-106420475D01*
X108610000Y-94355475D01*
X125635000Y-94355475D01*
X125635000Y-94874525D01*
X125736261Y-95383601D01*
X125934893Y-95863141D01*
X126223262Y-96294715D01*
X126590285Y-96661738D01*
X127021859Y-96950107D01*
X127501399Y-97148739D01*
X128010475Y-97250000D01*
X128529525Y-97250000D01*
X129038601Y-97148739D01*
X129518141Y-96950107D01*
X129757757Y-96790000D01*
X136839428Y-96790000D01*
X136839428Y-98790000D01*
X136851688Y-98914482D01*
X136887998Y-99034180D01*
X136946963Y-99144494D01*
X137026315Y-99241185D01*
X137123006Y-99320537D01*
X137233320Y-99379502D01*
X137353018Y-99415812D01*
X137477500Y-99428072D01*
X139382500Y-99428072D01*
X139506982Y-99415812D01*
X139626680Y-99379502D01*
X139736994Y-99320537D01*
X139833685Y-99241185D01*
X139913037Y-99144494D01*
X139962059Y-99052781D01*
X140103077Y-99165969D01*
X140378906Y-99309571D01*
X140597020Y-99380563D01*
X140843000Y-99260594D01*
X140843000Y-97917000D01*
X140823000Y-97917000D01*
X140823000Y-97663000D01*
X140843000Y-97663000D01*
X140843000Y-96319406D01*
X141097000Y-96319406D01*
X141097000Y-97663000D01*
X141117000Y-97663000D01*
X141117000Y-97917000D01*
X141097000Y-97917000D01*
X141097000Y-99260594D01*
X141342980Y-99380563D01*
X141561094Y-99309571D01*
X141836923Y-99165969D01*
X142079437Y-98971315D01*
X142234837Y-98786101D01*
X142382037Y-98965463D01*
X142623766Y-99163845D01*
X142899552Y-99311255D01*
X143198797Y-99402030D01*
X143510000Y-99432681D01*
X143821204Y-99402030D01*
X144120449Y-99311255D01*
X144396235Y-99163845D01*
X144637963Y-98965463D01*
X144836345Y-98723734D01*
X144983755Y-98447948D01*
X145074530Y-98148703D01*
X145097500Y-97915485D01*
X145097500Y-97664514D01*
X145074530Y-97431296D01*
X144983755Y-97132051D01*
X144836345Y-96856265D01*
X144637963Y-96614537D01*
X144396234Y-96416155D01*
X144120448Y-96268745D01*
X143821203Y-96177970D01*
X143510000Y-96147319D01*
X143198796Y-96177970D01*
X142899551Y-96268745D01*
X142623765Y-96416155D01*
X142382037Y-96614537D01*
X142234838Y-96793900D01*
X142079437Y-96608685D01*
X141836923Y-96414031D01*
X141561094Y-96270429D01*
X141342980Y-96199437D01*
X141097000Y-96319406D01*
X140843000Y-96319406D01*
X140597020Y-96199437D01*
X140378906Y-96270429D01*
X140103077Y-96414031D01*
X139962059Y-96527219D01*
X139913037Y-96435506D01*
X139833685Y-96338815D01*
X139736994Y-96259463D01*
X139626680Y-96200498D01*
X139506982Y-96164188D01*
X139382500Y-96151928D01*
X137477500Y-96151928D01*
X137353018Y-96164188D01*
X137233320Y-96200498D01*
X137123006Y-96259463D01*
X137026315Y-96338815D01*
X136946963Y-96435506D01*
X136887998Y-96545820D01*
X136851688Y-96665518D01*
X136839428Y-96790000D01*
X129757757Y-96790000D01*
X129949715Y-96661738D01*
X130316738Y-96294715D01*
X130605107Y-95863141D01*
X130803739Y-95383601D01*
X130905000Y-94874525D01*
X130905000Y-94355475D01*
X151035000Y-94355475D01*
X151035000Y-94874525D01*
X151136261Y-95383601D01*
X151334893Y-95863141D01*
X151623262Y-96294715D01*
X151990285Y-96661738D01*
X152421859Y-96950107D01*
X152901399Y-97148739D01*
X153410475Y-97250000D01*
X153929525Y-97250000D01*
X154438601Y-97148739D01*
X154918141Y-96950107D01*
X155349715Y-96661738D01*
X155716738Y-96294715D01*
X156005107Y-95863141D01*
X156203739Y-95383601D01*
X156305000Y-94874525D01*
X156305000Y-94355475D01*
X156203739Y-93846399D01*
X156005107Y-93366859D01*
X155716738Y-92935285D01*
X155349715Y-92568262D01*
X154918141Y-92279893D01*
X154438601Y-92081261D01*
X153929525Y-91980000D01*
X153410475Y-91980000D01*
X152901399Y-92081261D01*
X152421859Y-92279893D01*
X151990285Y-92568262D01*
X151623262Y-92935285D01*
X151334893Y-93366859D01*
X151136261Y-93846399D01*
X151035000Y-94355475D01*
X130905000Y-94355475D01*
X130803739Y-93846399D01*
X130605107Y-93366859D01*
X130316738Y-92935285D01*
X129949715Y-92568262D01*
X129518141Y-92279893D01*
X129038601Y-92081261D01*
X128529525Y-91980000D01*
X128010475Y-91980000D01*
X127501399Y-92081261D01*
X127021859Y-92279893D01*
X126590285Y-92568262D01*
X126223262Y-92935285D01*
X125934893Y-93366859D01*
X125736261Y-93846399D01*
X125635000Y-94355475D01*
X108610000Y-94355475D01*
X108610000Y-87409872D01*
X111430000Y-87409872D01*
X111430000Y-87850128D01*
X111515890Y-88281925D01*
X111684369Y-88688669D01*
X111928962Y-89054729D01*
X112240271Y-89366038D01*
X112606331Y-89610631D01*
X113013075Y-89779110D01*
X113444872Y-89865000D01*
X113885128Y-89865000D01*
X114316925Y-89779110D01*
X114723669Y-89610631D01*
X115089729Y-89366038D01*
X115401038Y-89054729D01*
X115645631Y-88688669D01*
X115814110Y-88281925D01*
X115900000Y-87850128D01*
X115900000Y-87409872D01*
X211760000Y-87409872D01*
X211760000Y-87850128D01*
X211845890Y-88281925D01*
X212014369Y-88688669D01*
X212258962Y-89054729D01*
X212570271Y-89366038D01*
X212936331Y-89610631D01*
X213343075Y-89779110D01*
X213774872Y-89865000D01*
X214215128Y-89865000D01*
X214646925Y-89779110D01*
X215053669Y-89610631D01*
X215419729Y-89366038D01*
X215731038Y-89054729D01*
X215975631Y-88688669D01*
X216144110Y-88281925D01*
X216230000Y-87850128D01*
X216230000Y-87409872D01*
X216144110Y-86978075D01*
X215975631Y-86571331D01*
X215731038Y-86205271D01*
X215419729Y-85893962D01*
X215053669Y-85649369D01*
X214646925Y-85480890D01*
X214215128Y-85395000D01*
X213774872Y-85395000D01*
X213343075Y-85480890D01*
X212936331Y-85649369D01*
X212570271Y-85893962D01*
X212258962Y-86205271D01*
X212014369Y-86571331D01*
X211845890Y-86978075D01*
X211760000Y-87409872D01*
X115900000Y-87409872D01*
X115814110Y-86978075D01*
X115645631Y-86571331D01*
X115401038Y-86205271D01*
X115089729Y-85893962D01*
X114723669Y-85649369D01*
X114316925Y-85480890D01*
X113885128Y-85395000D01*
X113444872Y-85395000D01*
X113013075Y-85480890D01*
X112606331Y-85649369D01*
X112240271Y-85893962D01*
X111928962Y-86205271D01*
X111684369Y-86571331D01*
X111515890Y-86978075D01*
X111430000Y-87409872D01*
X108610000Y-87409872D01*
X108610000Y-82575000D01*
X219050000Y-82575000D01*
X219050001Y-156820000D01*
%TA.AperFunction,Conductor*%
D25*
G36*
X219050001Y-156820000D02*
G01*
X108610000Y-156820000D01*
X108610000Y-151544872D01*
X111430000Y-151544872D01*
X111430000Y-151985128D01*
X111515890Y-152416925D01*
X111684369Y-152823669D01*
X111928962Y-153189729D01*
X112240271Y-153501038D01*
X112606331Y-153745631D01*
X113013075Y-153914110D01*
X113444872Y-154000000D01*
X113885128Y-154000000D01*
X114316925Y-153914110D01*
X114723669Y-153745631D01*
X115089729Y-153501038D01*
X115401038Y-153189729D01*
X115645631Y-152823669D01*
X115814110Y-152416925D01*
X115872796Y-152121891D01*
X178898519Y-152121891D01*
X178995843Y-152396252D01*
X179144822Y-152646355D01*
X179339731Y-152862588D01*
X179573080Y-153036641D01*
X179835901Y-153161825D01*
X179983110Y-153206476D01*
X180213000Y-153085155D01*
X180213000Y-151892000D01*
X179019186Y-151892000D01*
X178898519Y-152121891D01*
X115872796Y-152121891D01*
X115900000Y-151985128D01*
X115900000Y-151544872D01*
X115872797Y-151408109D01*
X178898519Y-151408109D01*
X179019186Y-151638000D01*
X180213000Y-151638000D01*
X180213000Y-150444845D01*
X180467000Y-150444845D01*
X180467000Y-151638000D01*
X180487000Y-151638000D01*
X180487000Y-151892000D01*
X180467000Y-151892000D01*
X180467000Y-153085155D01*
X180696890Y-153206476D01*
X180844099Y-153161825D01*
X181106920Y-153036641D01*
X181340269Y-152862588D01*
X181416034Y-152778534D01*
X181440498Y-152859180D01*
X181499463Y-152969494D01*
X181578815Y-153066185D01*
X181675506Y-153145537D01*
X181785820Y-153204502D01*
X181905518Y-153240812D01*
X182030000Y-153253072D01*
X183730000Y-153253072D01*
X183854482Y-153240812D01*
X183974180Y-153204502D01*
X184084494Y-153145537D01*
X184181185Y-153066185D01*
X184260537Y-152969494D01*
X184319502Y-152859180D01*
X184355812Y-152739482D01*
X184368072Y-152615000D01*
X184368072Y-151544872D01*
X211760000Y-151544872D01*
X211760000Y-151985128D01*
X211845890Y-152416925D01*
X212014369Y-152823669D01*
X212258962Y-153189729D01*
X212570271Y-153501038D01*
X212936331Y-153745631D01*
X213343075Y-153914110D01*
X213774872Y-154000000D01*
X214215128Y-154000000D01*
X214646925Y-153914110D01*
X215053669Y-153745631D01*
X215419729Y-153501038D01*
X215731038Y-153189729D01*
X215975631Y-152823669D01*
X216144110Y-152416925D01*
X216230000Y-151985128D01*
X216230000Y-151544872D01*
X216144110Y-151113075D01*
X215975631Y-150706331D01*
X215731038Y-150340271D01*
X215419729Y-150028962D01*
X215053669Y-149784369D01*
X214646925Y-149615890D01*
X214215128Y-149530000D01*
X213774872Y-149530000D01*
X213343075Y-149615890D01*
X212936331Y-149784369D01*
X212570271Y-150028962D01*
X212258962Y-150340271D01*
X212014369Y-150706331D01*
X211845890Y-151113075D01*
X211760000Y-151544872D01*
X184368072Y-151544872D01*
X184368072Y-150915000D01*
X184355812Y-150790518D01*
X184319502Y-150670820D01*
X184260537Y-150560506D01*
X184181185Y-150463815D01*
X184084494Y-150384463D01*
X183974180Y-150325498D01*
X183854482Y-150289188D01*
X183730000Y-150276928D01*
X182030000Y-150276928D01*
X181905518Y-150289188D01*
X181785820Y-150325498D01*
X181675506Y-150384463D01*
X181578815Y-150463815D01*
X181499463Y-150560506D01*
X181440498Y-150670820D01*
X181416034Y-150751466D01*
X181340269Y-150667412D01*
X181106920Y-150493359D01*
X180844099Y-150368175D01*
X180696890Y-150323524D01*
X180467000Y-150444845D01*
X180213000Y-150444845D01*
X179983110Y-150323524D01*
X179835901Y-150368175D01*
X179573080Y-150493359D01*
X179339731Y-150667412D01*
X179144822Y-150883645D01*
X178995843Y-151133748D01*
X178898519Y-151408109D01*
X115872797Y-151408109D01*
X115814110Y-151113075D01*
X115645631Y-150706331D01*
X115401038Y-150340271D01*
X115089729Y-150028962D01*
X114723669Y-149784369D01*
X114316925Y-149615890D01*
X113885128Y-149530000D01*
X113444872Y-149530000D01*
X113013075Y-149615890D01*
X112606331Y-149784369D01*
X112240271Y-150028962D01*
X111928962Y-150340271D01*
X111684369Y-150706331D01*
X111515890Y-151113075D01*
X111430000Y-151544872D01*
X108610000Y-151544872D01*
X108610000Y-148955000D01*
X136839428Y-148955000D01*
X136851688Y-149079482D01*
X136887998Y-149199180D01*
X136946963Y-149309494D01*
X137026315Y-149406185D01*
X137123006Y-149485537D01*
X137233320Y-149544502D01*
X137353018Y-149580812D01*
X137477500Y-149593072D01*
X138144250Y-149590000D01*
X138303000Y-149431250D01*
X138303000Y-148082000D01*
X137001250Y-148082000D01*
X136842500Y-148240750D01*
X136839428Y-148955000D01*
X108610000Y-148955000D01*
X108610000Y-144520475D01*
X125635000Y-144520475D01*
X125635000Y-145039525D01*
X125736261Y-145548601D01*
X125934893Y-146028141D01*
X126223262Y-146459715D01*
X126590285Y-146826738D01*
X127021859Y-147115107D01*
X127501399Y-147313739D01*
X128010475Y-147415000D01*
X128529525Y-147415000D01*
X129038601Y-147313739D01*
X129518141Y-147115107D01*
X129757757Y-146955000D01*
X136839428Y-146955000D01*
X136842500Y-147669250D01*
X137001250Y-147828000D01*
X138303000Y-147828000D01*
X138303000Y-146478750D01*
X138557000Y-146478750D01*
X138557000Y-147828000D01*
X138577000Y-147828000D01*
X138577000Y-148082000D01*
X138557000Y-148082000D01*
X138557000Y-149431250D01*
X138715750Y-149590000D01*
X139382500Y-149593072D01*
X139506982Y-149580812D01*
X139626680Y-149544502D01*
X139736994Y-149485537D01*
X139833685Y-149406185D01*
X139913037Y-149309494D01*
X139957905Y-149225553D01*
X140083766Y-149328845D01*
X140359552Y-149476255D01*
X140658797Y-149567030D01*
X140970000Y-149597681D01*
X141281204Y-149567030D01*
X141580449Y-149476255D01*
X141856235Y-149328845D01*
X142097963Y-149130463D01*
X142240000Y-148957391D01*
X142382037Y-149130463D01*
X142623766Y-149328845D01*
X142899552Y-149476255D01*
X143198797Y-149567030D01*
X143510000Y-149597681D01*
X143821204Y-149567030D01*
X144120449Y-149476255D01*
X144396235Y-149328845D01*
X144637963Y-149130463D01*
X144836345Y-148888734D01*
X144983755Y-148612948D01*
X145074530Y-148313703D01*
X145097500Y-148080485D01*
X145097500Y-147829514D01*
X145074530Y-147596296D01*
X144983755Y-147297051D01*
X144836345Y-147021265D01*
X144637963Y-146779537D01*
X144396234Y-146581155D01*
X144120448Y-146433745D01*
X143821203Y-146342970D01*
X143510000Y-146312319D01*
X143198796Y-146342970D01*
X142899551Y-146433745D01*
X142623765Y-146581155D01*
X142382037Y-146779537D01*
X142240000Y-146952609D01*
X142097963Y-146779537D01*
X141856234Y-146581155D01*
X141580448Y-146433745D01*
X141281203Y-146342970D01*
X140970000Y-146312319D01*
X140658796Y-146342970D01*
X140359551Y-146433745D01*
X140083765Y-146581155D01*
X139957905Y-146684446D01*
X139913037Y-146600506D01*
X139833685Y-146503815D01*
X139736994Y-146424463D01*
X139626680Y-146365498D01*
X139506982Y-146329188D01*
X139382500Y-146316928D01*
X138715750Y-146320000D01*
X138557000Y-146478750D01*
X138303000Y-146478750D01*
X138144250Y-146320000D01*
X137477500Y-146316928D01*
X137353018Y-146329188D01*
X137233320Y-146365498D01*
X137123006Y-146424463D01*
X137026315Y-146503815D01*
X136946963Y-146600506D01*
X136887998Y-146710820D01*
X136851688Y-146830518D01*
X136839428Y-146955000D01*
X129757757Y-146955000D01*
X129949715Y-146826738D01*
X130316738Y-146459715D01*
X130605107Y-146028141D01*
X130803739Y-145548601D01*
X130905000Y-145039525D01*
X130905000Y-144520475D01*
X151035000Y-144520475D01*
X151035000Y-145039525D01*
X151136261Y-145548601D01*
X151334893Y-146028141D01*
X151623262Y-146459715D01*
X151990285Y-146826738D01*
X152421859Y-147115107D01*
X152901399Y-147313739D01*
X153410475Y-147415000D01*
X153929525Y-147415000D01*
X154438601Y-147313739D01*
X154918141Y-147115107D01*
X155349715Y-146826738D01*
X155716738Y-146459715D01*
X156005107Y-146028141D01*
X156203739Y-145548601D01*
X156305000Y-145039525D01*
X156305000Y-144520475D01*
X156203739Y-144011399D01*
X156005107Y-143531859D01*
X155716738Y-143100285D01*
X155349715Y-142733262D01*
X154918141Y-142444893D01*
X154438601Y-142246261D01*
X153929525Y-142145000D01*
X153410475Y-142145000D01*
X152901399Y-142246261D01*
X152421859Y-142444893D01*
X151990285Y-142733262D01*
X151623262Y-143100285D01*
X151334893Y-143531859D01*
X151136261Y-144011399D01*
X151035000Y-144520475D01*
X130905000Y-144520475D01*
X130803739Y-144011399D01*
X130605107Y-143531859D01*
X130316738Y-143100285D01*
X129949715Y-142733262D01*
X129518141Y-142444893D01*
X129038601Y-142246261D01*
X128529525Y-142145000D01*
X128010475Y-142145000D01*
X127501399Y-142246261D01*
X127021859Y-142444893D01*
X126590285Y-142733262D01*
X126223262Y-143100285D01*
X125934893Y-143531859D01*
X125736261Y-144011399D01*
X125635000Y-144520475D01*
X108610000Y-144520475D01*
X108610000Y-131820475D01*
X180880000Y-131820475D01*
X180880000Y-132339525D01*
X180981261Y-132848601D01*
X181179893Y-133328141D01*
X181468262Y-133759715D01*
X181835285Y-134126738D01*
X182266859Y-134415107D01*
X182746399Y-134613739D01*
X183255475Y-134715000D01*
X183774525Y-134715000D01*
X184283601Y-134613739D01*
X184763141Y-134415107D01*
X185194715Y-134126738D01*
X185561738Y-133759715D01*
X185850107Y-133328141D01*
X186048739Y-132848601D01*
X186150000Y-132339525D01*
X186150000Y-131820475D01*
X186048739Y-131311399D01*
X185850107Y-130831859D01*
X185561738Y-130400285D01*
X185194715Y-130033262D01*
X184763141Y-129744893D01*
X184283601Y-129546261D01*
X183774525Y-129445000D01*
X183255475Y-129445000D01*
X182746399Y-129546261D01*
X182266859Y-129744893D01*
X181835285Y-130033262D01*
X181468262Y-130400285D01*
X181179893Y-130831859D01*
X180981261Y-131311399D01*
X180880000Y-131820475D01*
X108610000Y-131820475D01*
X108610000Y-129705000D01*
X138261928Y-129705000D01*
X138274188Y-129829482D01*
X138310498Y-129949180D01*
X138369463Y-130059494D01*
X138448815Y-130156185D01*
X138545506Y-130235537D01*
X138655820Y-130294502D01*
X138775518Y-130330812D01*
X138900000Y-130343072D01*
X139414250Y-130340000D01*
X139573000Y-130181250D01*
X139573000Y-129032000D01*
X138423750Y-129032000D01*
X138265000Y-129190750D01*
X138261928Y-129705000D01*
X108610000Y-129705000D01*
X108610000Y-126789721D01*
X113435000Y-126789721D01*
X113435000Y-127210279D01*
X113517047Y-127622756D01*
X113677988Y-128011302D01*
X113911637Y-128360983D01*
X114209017Y-128658363D01*
X114558698Y-128892012D01*
X114947244Y-129052953D01*
X115359721Y-129135000D01*
X115780279Y-129135000D01*
X116192756Y-129052953D01*
X116581302Y-128892012D01*
X116930983Y-128658363D01*
X117228363Y-128360983D01*
X117462012Y-128011302D01*
X117622953Y-127622756D01*
X117705000Y-127210279D01*
X117705000Y-126858665D01*
X123065000Y-126858665D01*
X123065000Y-127141335D01*
X123120147Y-127418574D01*
X123228320Y-127679727D01*
X123385363Y-127914759D01*
X123585241Y-128114637D01*
X123820273Y-128271680D01*
X124081426Y-128379853D01*
X124358665Y-128435000D01*
X124641335Y-128435000D01*
X124918574Y-128379853D01*
X125179727Y-128271680D01*
X125414759Y-128114637D01*
X125581339Y-127948057D01*
X125610498Y-128044180D01*
X125669463Y-128154494D01*
X125748815Y-128251185D01*
X125845506Y-128330537D01*
X125955820Y-128389502D01*
X126075518Y-128425812D01*
X126200000Y-128438072D01*
X126714250Y-128435000D01*
X126873000Y-128276250D01*
X126873000Y-127127000D01*
X127127000Y-127127000D01*
X127127000Y-128276250D01*
X127285750Y-128435000D01*
X127800000Y-128438072D01*
X127924482Y-128425812D01*
X128044180Y-128389502D01*
X128154494Y-128330537D01*
X128251185Y-128251185D01*
X128330537Y-128154494D01*
X128356992Y-128105000D01*
X138261928Y-128105000D01*
X138265000Y-128619250D01*
X138423750Y-128778000D01*
X139573000Y-128778000D01*
X139573000Y-127628750D01*
X139827000Y-127628750D01*
X139827000Y-128778000D01*
X139847000Y-128778000D01*
X139847000Y-129032000D01*
X139827000Y-129032000D01*
X139827000Y-130181250D01*
X139985750Y-130340000D01*
X140500000Y-130343072D01*
X140624482Y-130330812D01*
X140744180Y-130294502D01*
X140854494Y-130235537D01*
X140951185Y-130156185D01*
X141030537Y-130059494D01*
X141089502Y-129949180D01*
X141118661Y-129853057D01*
X141285241Y-130019637D01*
X141520273Y-130176680D01*
X141781426Y-130284853D01*
X142058665Y-130340000D01*
X142341335Y-130340000D01*
X142618574Y-130284853D01*
X142879727Y-130176680D01*
X143114759Y-130019637D01*
X143314637Y-129819759D01*
X143471680Y-129584727D01*
X143579853Y-129323574D01*
X143635000Y-129046335D01*
X143635000Y-128763665D01*
X143579853Y-128486426D01*
X143471680Y-128225273D01*
X143314637Y-127990241D01*
X143114759Y-127790363D01*
X142879727Y-127633320D01*
X142618574Y-127525147D01*
X142341335Y-127470000D01*
X142058665Y-127470000D01*
X141781426Y-127525147D01*
X141520273Y-127633320D01*
X141285241Y-127790363D01*
X141118661Y-127956943D01*
X141089502Y-127860820D01*
X141030537Y-127750506D01*
X140951185Y-127653815D01*
X140854494Y-127574463D01*
X140744180Y-127515498D01*
X140624482Y-127479188D01*
X140500000Y-127466928D01*
X139985750Y-127470000D01*
X139827000Y-127628750D01*
X139573000Y-127628750D01*
X139414250Y-127470000D01*
X138900000Y-127466928D01*
X138775518Y-127479188D01*
X138655820Y-127515498D01*
X138545506Y-127574463D01*
X138448815Y-127653815D01*
X138369463Y-127750506D01*
X138310498Y-127860820D01*
X138274188Y-127980518D01*
X138261928Y-128105000D01*
X128356992Y-128105000D01*
X128389502Y-128044180D01*
X128425812Y-127924482D01*
X128438072Y-127800000D01*
X128435000Y-127285750D01*
X128276250Y-127127000D01*
X127127000Y-127127000D01*
X126873000Y-127127000D01*
X126853000Y-127127000D01*
X126853000Y-126873000D01*
X126873000Y-126873000D01*
X126873000Y-125723750D01*
X127127000Y-125723750D01*
X127127000Y-126873000D01*
X128276250Y-126873000D01*
X128435000Y-126714250D01*
X128438072Y-126200000D01*
X128425812Y-126075518D01*
X128389502Y-125955820D01*
X128330537Y-125845506D01*
X128251185Y-125748815D01*
X128154494Y-125669463D01*
X128044180Y-125610498D01*
X127924482Y-125574188D01*
X127800000Y-125561928D01*
X127285750Y-125565000D01*
X127127000Y-125723750D01*
X126873000Y-125723750D01*
X126714250Y-125565000D01*
X126200000Y-125561928D01*
X126075518Y-125574188D01*
X125955820Y-125610498D01*
X125845506Y-125669463D01*
X125748815Y-125748815D01*
X125669463Y-125845506D01*
X125610498Y-125955820D01*
X125581339Y-126051943D01*
X125414759Y-125885363D01*
X125179727Y-125728320D01*
X124918574Y-125620147D01*
X124641335Y-125565000D01*
X124358665Y-125565000D01*
X124081426Y-125620147D01*
X123820273Y-125728320D01*
X123585241Y-125885363D01*
X123385363Y-126085241D01*
X123228320Y-126320273D01*
X123120147Y-126581426D01*
X123065000Y-126858665D01*
X117705000Y-126858665D01*
X117705000Y-126789721D01*
X117622953Y-126377244D01*
X117462012Y-125988698D01*
X117228363Y-125639017D01*
X116930983Y-125341637D01*
X116581302Y-125107988D01*
X116192756Y-124947047D01*
X115780279Y-124865000D01*
X115359721Y-124865000D01*
X114947244Y-124947047D01*
X114558698Y-125107988D01*
X114209017Y-125341637D01*
X113911637Y-125639017D01*
X113677988Y-125988698D01*
X113517047Y-126377244D01*
X113435000Y-126789721D01*
X108610000Y-126789721D01*
X108610000Y-124090000D01*
X135621928Y-124090000D01*
X135634188Y-124214482D01*
X135670498Y-124334180D01*
X135729463Y-124444494D01*
X135808815Y-124541185D01*
X135905506Y-124620537D01*
X136015820Y-124679502D01*
X136135518Y-124715812D01*
X136260000Y-124728072D01*
X136874250Y-124725000D01*
X137033000Y-124566250D01*
X137033000Y-123317000D01*
X137287000Y-123317000D01*
X137287000Y-124566250D01*
X137445750Y-124725000D01*
X138060000Y-124728072D01*
X138184482Y-124715812D01*
X138304180Y-124679502D01*
X138414494Y-124620537D01*
X138511185Y-124541185D01*
X138590537Y-124444494D01*
X138649502Y-124334180D01*
X138685812Y-124214482D01*
X138698072Y-124090000D01*
X138695000Y-123475750D01*
X138536250Y-123317000D01*
X137287000Y-123317000D01*
X137033000Y-123317000D01*
X135783750Y-123317000D01*
X135625000Y-123475750D01*
X135621928Y-124090000D01*
X108610000Y-124090000D01*
X108610000Y-123411653D01*
X114257952Y-123411653D01*
X114413962Y-123727214D01*
X114788745Y-123918020D01*
X115193551Y-124032044D01*
X115612824Y-124064902D01*
X116030451Y-124015334D01*
X116430383Y-123885243D01*
X116726038Y-123727214D01*
X116882048Y-123411653D01*
X115570000Y-122099605D01*
X114257952Y-123411653D01*
X108610000Y-123411653D01*
X108610000Y-121962824D01*
X113425098Y-121962824D01*
X113474666Y-122380451D01*
X113604757Y-122780383D01*
X113762786Y-123076038D01*
X114078347Y-123232048D01*
X115390395Y-121920000D01*
X115749605Y-121920000D01*
X117061653Y-123232048D01*
X117377214Y-123076038D01*
X117568020Y-122701255D01*
X117682044Y-122296449D01*
X117682549Y-122290000D01*
X135621928Y-122290000D01*
X135625000Y-122904250D01*
X135783750Y-123063000D01*
X137033000Y-123063000D01*
X137033000Y-121813750D01*
X137287000Y-121813750D01*
X137287000Y-123063000D01*
X138536250Y-123063000D01*
X138560434Y-123038816D01*
X143245000Y-123038816D01*
X143245000Y-123341184D01*
X143303989Y-123637743D01*
X143419701Y-123917095D01*
X143587688Y-124168505D01*
X143801495Y-124382312D01*
X144052905Y-124550299D01*
X144332257Y-124666011D01*
X144628816Y-124725000D01*
X144931184Y-124725000D01*
X145227743Y-124666011D01*
X145507095Y-124550299D01*
X145758505Y-124382312D01*
X145972312Y-124168505D01*
X146140299Y-123917095D01*
X146256011Y-123637743D01*
X146315000Y-123341184D01*
X146315000Y-123038816D01*
X146256011Y-122742257D01*
X146140299Y-122462905D01*
X146024768Y-122290000D01*
X162291928Y-122290000D01*
X162291928Y-124090000D01*
X162304188Y-124214482D01*
X162340498Y-124334180D01*
X162399463Y-124444494D01*
X162478815Y-124541185D01*
X162575506Y-124620537D01*
X162685820Y-124679502D01*
X162805518Y-124715812D01*
X162930000Y-124728072D01*
X164730000Y-124728072D01*
X164854482Y-124715812D01*
X164974180Y-124679502D01*
X165084494Y-124620537D01*
X165181185Y-124541185D01*
X165260537Y-124444494D01*
X165319502Y-124334180D01*
X165355812Y-124214482D01*
X165368072Y-124090000D01*
X165368072Y-122290000D01*
X165355812Y-122165518D01*
X165319502Y-122045820D01*
X165260537Y-121935506D01*
X165181185Y-121838815D01*
X165107892Y-121778665D01*
X166840000Y-121778665D01*
X166840000Y-122061335D01*
X166895147Y-122338574D01*
X167003320Y-122599727D01*
X167160363Y-122834759D01*
X167360241Y-123034637D01*
X167595273Y-123191680D01*
X167856426Y-123299853D01*
X168133665Y-123355000D01*
X168416335Y-123355000D01*
X168693574Y-123299853D01*
X168954727Y-123191680D01*
X169189759Y-123034637D01*
X169389637Y-122834759D01*
X169546680Y-122599727D01*
X169654853Y-122338574D01*
X169710000Y-122061335D01*
X169710000Y-121920000D01*
X178697319Y-121920000D01*
X178727970Y-122231204D01*
X178818745Y-122530449D01*
X178966155Y-122806235D01*
X179164537Y-123047963D01*
X179406265Y-123246345D01*
X179682051Y-123393755D01*
X179981296Y-123484530D01*
X180214514Y-123507500D01*
X180465486Y-123507500D01*
X180698704Y-123484530D01*
X180997949Y-123393755D01*
X181273735Y-123246345D01*
X181515463Y-123047963D01*
X181713845Y-122806235D01*
X181861255Y-122530449D01*
X181952030Y-122231204D01*
X181982681Y-121920000D01*
X181952030Y-121608796D01*
X181861255Y-121309551D01*
X181713845Y-121033765D01*
X181515463Y-120792037D01*
X181336101Y-120644837D01*
X181521315Y-120489437D01*
X181715969Y-120246923D01*
X181859571Y-119971094D01*
X181930563Y-119752980D01*
X181810594Y-119507000D01*
X180467000Y-119507000D01*
X180467000Y-119527000D01*
X180213000Y-119527000D01*
X180213000Y-119507000D01*
X178869406Y-119507000D01*
X178749437Y-119752980D01*
X178820429Y-119971094D01*
X178964031Y-120246923D01*
X179158685Y-120489437D01*
X179343899Y-120644837D01*
X179164537Y-120792037D01*
X178966155Y-121033765D01*
X178818745Y-121309551D01*
X178727970Y-121608796D01*
X178697319Y-121920000D01*
X169710000Y-121920000D01*
X169710000Y-121778665D01*
X169654853Y-121501426D01*
X169546680Y-121240273D01*
X169389637Y-121005241D01*
X169189759Y-120805363D01*
X168954727Y-120648320D01*
X168693574Y-120540147D01*
X168416335Y-120485000D01*
X168133665Y-120485000D01*
X167856426Y-120540147D01*
X167595273Y-120648320D01*
X167360241Y-120805363D01*
X167160363Y-121005241D01*
X167003320Y-121240273D01*
X166895147Y-121501426D01*
X166840000Y-121778665D01*
X165107892Y-121778665D01*
X165084494Y-121759463D01*
X164974180Y-121700498D01*
X164854482Y-121664188D01*
X164730000Y-121651928D01*
X162930000Y-121651928D01*
X162805518Y-121664188D01*
X162685820Y-121700498D01*
X162575506Y-121759463D01*
X162478815Y-121838815D01*
X162399463Y-121935506D01*
X162340498Y-122045820D01*
X162304188Y-122165518D01*
X162291928Y-122290000D01*
X146024768Y-122290000D01*
X145972312Y-122211495D01*
X145758505Y-121997688D01*
X145507095Y-121829701D01*
X145227743Y-121713989D01*
X144931184Y-121655000D01*
X144628816Y-121655000D01*
X144332257Y-121713989D01*
X144052905Y-121829701D01*
X143801495Y-121997688D01*
X143587688Y-122211495D01*
X143419701Y-122462905D01*
X143303989Y-122742257D01*
X143245000Y-123038816D01*
X138560434Y-123038816D01*
X138695000Y-122904250D01*
X138698072Y-122290000D01*
X138685812Y-122165518D01*
X138649502Y-122045820D01*
X138590537Y-121935506D01*
X138511185Y-121838815D01*
X138414494Y-121759463D01*
X138304180Y-121700498D01*
X138184482Y-121664188D01*
X138060000Y-121651928D01*
X137445750Y-121655000D01*
X137287000Y-121813750D01*
X137033000Y-121813750D01*
X136874250Y-121655000D01*
X136260000Y-121651928D01*
X136135518Y-121664188D01*
X136015820Y-121700498D01*
X135905506Y-121759463D01*
X135808815Y-121838815D01*
X135729463Y-121935506D01*
X135670498Y-122045820D01*
X135634188Y-122165518D01*
X135621928Y-122290000D01*
X117682549Y-122290000D01*
X117714902Y-121877176D01*
X117665334Y-121459549D01*
X117535243Y-121059617D01*
X117377214Y-120763962D01*
X117061653Y-120607952D01*
X115749605Y-121920000D01*
X115390395Y-121920000D01*
X114078347Y-120607952D01*
X113762786Y-120763962D01*
X113571980Y-121138745D01*
X113457956Y-121543551D01*
X113425098Y-121962824D01*
X108610000Y-121962824D01*
X108610000Y-120428347D01*
X114257952Y-120428347D01*
X115570000Y-121740395D01*
X116882048Y-120428347D01*
X116726038Y-120112786D01*
X116351255Y-119921980D01*
X115946449Y-119807956D01*
X115527176Y-119775098D01*
X115109549Y-119824666D01*
X114709617Y-119954757D01*
X114413962Y-120112786D01*
X114257952Y-120428347D01*
X108610000Y-120428347D01*
X108610000Y-119238665D01*
X121755000Y-119238665D01*
X121755000Y-119521335D01*
X121810147Y-119798574D01*
X121918320Y-120059727D01*
X122075363Y-120294759D01*
X122275241Y-120494637D01*
X122510273Y-120651680D01*
X122771426Y-120759853D01*
X123048665Y-120815000D01*
X123331335Y-120815000D01*
X123608574Y-120759853D01*
X123869727Y-120651680D01*
X124104759Y-120494637D01*
X124226694Y-120372702D01*
X127376903Y-120372702D01*
X127448486Y-120616671D01*
X127703996Y-120737571D01*
X127978184Y-120806300D01*
X128260512Y-120820217D01*
X128540130Y-120778787D01*
X128806292Y-120683603D01*
X128931514Y-120616671D01*
X129003097Y-120372702D01*
X128190000Y-119559605D01*
X127376903Y-120372702D01*
X124226694Y-120372702D01*
X124304637Y-120294759D01*
X124461680Y-120059727D01*
X124569853Y-119798574D01*
X124625000Y-119521335D01*
X124625000Y-119450512D01*
X126749783Y-119450512D01*
X126791213Y-119730130D01*
X126886397Y-119996292D01*
X126953329Y-120121514D01*
X127197298Y-120193097D01*
X128010395Y-119380000D01*
X128369605Y-119380000D01*
X129182702Y-120193097D01*
X129426671Y-120121514D01*
X129547571Y-119866004D01*
X129616300Y-119591816D01*
X129630217Y-119309488D01*
X129588787Y-119029870D01*
X129493603Y-118763708D01*
X129426671Y-118638486D01*
X129182702Y-118566903D01*
X128369605Y-119380000D01*
X128010395Y-119380000D01*
X127197298Y-118566903D01*
X126953329Y-118638486D01*
X126832429Y-118893996D01*
X126763700Y-119168184D01*
X126749783Y-119450512D01*
X124625000Y-119450512D01*
X124625000Y-119238665D01*
X124569853Y-118961426D01*
X124461680Y-118700273D01*
X124304637Y-118465241D01*
X124226694Y-118387298D01*
X127376903Y-118387298D01*
X128190000Y-119200395D01*
X129003097Y-118387298D01*
X128931514Y-118143329D01*
X128676004Y-118022429D01*
X128401816Y-117953700D01*
X128119488Y-117939783D01*
X127839870Y-117981213D01*
X127573708Y-118076397D01*
X127448486Y-118143329D01*
X127376903Y-118387298D01*
X124226694Y-118387298D01*
X124104759Y-118265363D01*
X123869727Y-118108320D01*
X123608574Y-118000147D01*
X123331335Y-117945000D01*
X123048665Y-117945000D01*
X122771426Y-118000147D01*
X122510273Y-118108320D01*
X122275241Y-118265363D01*
X122075363Y-118465241D01*
X121918320Y-118700273D01*
X121810147Y-118961426D01*
X121755000Y-119238665D01*
X108610000Y-119238665D01*
X108610000Y-116629721D01*
X113435000Y-116629721D01*
X113435000Y-117050279D01*
X113517047Y-117462756D01*
X113677988Y-117851302D01*
X113911637Y-118200983D01*
X114209017Y-118498363D01*
X114558698Y-118732012D01*
X114947244Y-118892953D01*
X115359721Y-118975000D01*
X115780279Y-118975000D01*
X116192756Y-118892953D01*
X116581302Y-118732012D01*
X116930983Y-118498363D01*
X117228363Y-118200983D01*
X117420985Y-117912702D01*
X167461903Y-117912702D01*
X167533486Y-118156671D01*
X167788996Y-118277571D01*
X168063184Y-118346300D01*
X168345512Y-118360217D01*
X168625130Y-118318787D01*
X168891292Y-118223603D01*
X169016514Y-118156671D01*
X169088097Y-117912702D01*
X168275000Y-117099605D01*
X167461903Y-117912702D01*
X117420985Y-117912702D01*
X117462012Y-117851302D01*
X117622953Y-117462756D01*
X117705000Y-117050279D01*
X117705000Y-116629721D01*
X117622953Y-116217244D01*
X117505937Y-115934740D01*
X135668964Y-115934740D01*
X135717606Y-116095107D01*
X135847764Y-116366414D01*
X136028351Y-116607116D01*
X136252427Y-116807962D01*
X136511380Y-116961234D01*
X136795259Y-117061041D01*
X137033000Y-116940992D01*
X137033000Y-115697000D01*
X137287000Y-115697000D01*
X137287000Y-116940992D01*
X137524741Y-117061041D01*
X137808620Y-116961234D01*
X138067573Y-116807962D01*
X138291649Y-116607116D01*
X138472236Y-116366414D01*
X138602394Y-116095107D01*
X138651036Y-115934740D01*
X138530378Y-115697000D01*
X137287000Y-115697000D01*
X137033000Y-115697000D01*
X135789622Y-115697000D01*
X135668964Y-115934740D01*
X117505937Y-115934740D01*
X117462012Y-115828698D01*
X117228363Y-115479017D01*
X116954606Y-115205260D01*
X135668964Y-115205260D01*
X135789622Y-115443000D01*
X137033000Y-115443000D01*
X137033000Y-114199008D01*
X137287000Y-114199008D01*
X137287000Y-115443000D01*
X138530378Y-115443000D01*
X138651036Y-115205260D01*
X138602394Y-115044893D01*
X138472236Y-114773586D01*
X138394521Y-114670000D01*
X143241928Y-114670000D01*
X143241928Y-116470000D01*
X143254188Y-116594482D01*
X143290498Y-116714180D01*
X143349463Y-116824494D01*
X143428815Y-116921185D01*
X143525506Y-117000537D01*
X143635820Y-117059502D01*
X143755518Y-117095812D01*
X143880000Y-117108072D01*
X145680000Y-117108072D01*
X145804482Y-117095812D01*
X145924180Y-117059502D01*
X146034494Y-117000537D01*
X146131185Y-116921185D01*
X146210537Y-116824494D01*
X146269502Y-116714180D01*
X146305812Y-116594482D01*
X146318072Y-116470000D01*
X146318072Y-115934741D01*
X162338959Y-115934741D01*
X162438766Y-116218620D01*
X162592038Y-116477573D01*
X162792884Y-116701649D01*
X163033586Y-116882236D01*
X163304893Y-117012394D01*
X163465260Y-117061036D01*
X163703000Y-116940378D01*
X163703000Y-115697000D01*
X163957000Y-115697000D01*
X163957000Y-116940378D01*
X164194740Y-117061036D01*
X164355107Y-117012394D01*
X164400718Y-116990512D01*
X166834783Y-116990512D01*
X166876213Y-117270130D01*
X166971397Y-117536292D01*
X167038329Y-117661514D01*
X167282298Y-117733097D01*
X168095395Y-116920000D01*
X168454605Y-116920000D01*
X169267702Y-117733097D01*
X169511671Y-117661514D01*
X169632571Y-117406004D01*
X169701300Y-117131816D01*
X169715217Y-116849488D01*
X169673787Y-116569870D01*
X169578603Y-116303708D01*
X169511671Y-116178486D01*
X169267702Y-116106903D01*
X168454605Y-116920000D01*
X168095395Y-116920000D01*
X167282298Y-116106903D01*
X167038329Y-116178486D01*
X166917429Y-116433996D01*
X166848700Y-116708184D01*
X166834783Y-116990512D01*
X164400718Y-116990512D01*
X164626414Y-116882236D01*
X164867116Y-116701649D01*
X165067962Y-116477573D01*
X165221234Y-116218620D01*
X165321041Y-115934741D01*
X165317283Y-115927298D01*
X167461903Y-115927298D01*
X168275000Y-116740395D01*
X169088097Y-115927298D01*
X169076420Y-115887500D01*
X178701928Y-115887500D01*
X178701928Y-117792500D01*
X178714188Y-117916982D01*
X178750498Y-118036680D01*
X178809463Y-118146994D01*
X178888815Y-118243685D01*
X178985506Y-118323037D01*
X179077219Y-118372059D01*
X178964031Y-118513077D01*
X178820429Y-118788906D01*
X178749437Y-119007020D01*
X178869406Y-119253000D01*
X180213000Y-119253000D01*
X180213000Y-119233000D01*
X180467000Y-119233000D01*
X180467000Y-119253000D01*
X181810594Y-119253000D01*
X181930563Y-119007020D01*
X181859571Y-118788906D01*
X181715969Y-118513077D01*
X181602781Y-118372059D01*
X181694494Y-118323037D01*
X181791185Y-118243685D01*
X181870537Y-118146994D01*
X181929502Y-118036680D01*
X181965812Y-117916982D01*
X181978072Y-117792500D01*
X181978072Y-115887500D01*
X181965812Y-115763018D01*
X181929502Y-115643320D01*
X181870537Y-115533006D01*
X181791185Y-115436315D01*
X181694494Y-115356963D01*
X181584180Y-115297998D01*
X181464482Y-115261688D01*
X181340000Y-115249428D01*
X179340000Y-115249428D01*
X179215518Y-115261688D01*
X179095820Y-115297998D01*
X178985506Y-115356963D01*
X178888815Y-115436315D01*
X178809463Y-115533006D01*
X178750498Y-115643320D01*
X178714188Y-115763018D01*
X178701928Y-115887500D01*
X169076420Y-115887500D01*
X169016514Y-115683329D01*
X168761004Y-115562429D01*
X168486816Y-115493700D01*
X168204488Y-115479783D01*
X167924870Y-115521213D01*
X167658708Y-115616397D01*
X167533486Y-115683329D01*
X167461903Y-115927298D01*
X165317283Y-115927298D01*
X165200992Y-115697000D01*
X163957000Y-115697000D01*
X163703000Y-115697000D01*
X162459008Y-115697000D01*
X162338959Y-115934741D01*
X146318072Y-115934741D01*
X146318072Y-115205259D01*
X162338959Y-115205259D01*
X162459008Y-115443000D01*
X163703000Y-115443000D01*
X163703000Y-114199622D01*
X163957000Y-114199622D01*
X163957000Y-115443000D01*
X165200992Y-115443000D01*
X165321041Y-115205259D01*
X165221234Y-114921380D01*
X165067962Y-114662427D01*
X164867116Y-114438351D01*
X164626414Y-114257764D01*
X164355107Y-114127606D01*
X164194740Y-114078964D01*
X163957000Y-114199622D01*
X163703000Y-114199622D01*
X163465260Y-114078964D01*
X163304893Y-114127606D01*
X163033586Y-114257764D01*
X162792884Y-114438351D01*
X162592038Y-114662427D01*
X162438766Y-114921380D01*
X162338959Y-115205259D01*
X146318072Y-115205259D01*
X146318072Y-114670000D01*
X146305812Y-114545518D01*
X146269502Y-114425820D01*
X146210537Y-114315506D01*
X146131185Y-114218815D01*
X146034494Y-114139463D01*
X145924180Y-114080498D01*
X145804482Y-114044188D01*
X145680000Y-114031928D01*
X143880000Y-114031928D01*
X143755518Y-114044188D01*
X143635820Y-114080498D01*
X143525506Y-114139463D01*
X143428815Y-114218815D01*
X143349463Y-114315506D01*
X143290498Y-114425820D01*
X143254188Y-114545518D01*
X143241928Y-114670000D01*
X138394521Y-114670000D01*
X138291649Y-114532884D01*
X138067573Y-114332038D01*
X137808620Y-114178766D01*
X137524741Y-114078959D01*
X137287000Y-114199008D01*
X137033000Y-114199008D01*
X136795259Y-114078959D01*
X136511380Y-114178766D01*
X136252427Y-114332038D01*
X136028351Y-114532884D01*
X135847764Y-114773586D01*
X135717606Y-115044893D01*
X135668964Y-115205260D01*
X116954606Y-115205260D01*
X116930983Y-115181637D01*
X116581302Y-114947988D01*
X116192756Y-114787047D01*
X115780279Y-114705000D01*
X115359721Y-114705000D01*
X114947244Y-114787047D01*
X114558698Y-114947988D01*
X114209017Y-115181637D01*
X113911637Y-115479017D01*
X113677988Y-115828698D01*
X113517047Y-116217244D01*
X113435000Y-116629721D01*
X108610000Y-116629721D01*
X108610000Y-110260000D01*
X113431928Y-110260000D01*
X113431928Y-113260000D01*
X113444188Y-113384482D01*
X113480498Y-113504180D01*
X113539463Y-113614494D01*
X113618815Y-113711185D01*
X113715506Y-113790537D01*
X113825820Y-113849502D01*
X113945518Y-113885812D01*
X114070000Y-113898072D01*
X117070000Y-113898072D01*
X117194482Y-113885812D01*
X117314180Y-113849502D01*
X117424494Y-113790537D01*
X117521185Y-113711185D01*
X117600537Y-113614494D01*
X117659502Y-113504180D01*
X117695812Y-113384482D01*
X117708072Y-113260000D01*
X117708072Y-111618665D01*
X121755000Y-111618665D01*
X121755000Y-111901335D01*
X121810147Y-112178574D01*
X121918320Y-112439727D01*
X122075363Y-112674759D01*
X122275241Y-112874637D01*
X122510273Y-113031680D01*
X122771426Y-113139853D01*
X123048665Y-113195000D01*
X123331335Y-113195000D01*
X123608574Y-113139853D01*
X123869727Y-113031680D01*
X124104759Y-112874637D01*
X124226694Y-112752702D01*
X127376903Y-112752702D01*
X127448486Y-112996671D01*
X127703996Y-113117571D01*
X127978184Y-113186300D01*
X128260512Y-113200217D01*
X128540130Y-113158787D01*
X128806292Y-113063603D01*
X128931514Y-112996671D01*
X129003097Y-112752702D01*
X128190000Y-111939605D01*
X127376903Y-112752702D01*
X124226694Y-112752702D01*
X124304637Y-112674759D01*
X124461680Y-112439727D01*
X124569853Y-112178574D01*
X124625000Y-111901335D01*
X124625000Y-111830512D01*
X126749783Y-111830512D01*
X126791213Y-112110130D01*
X126886397Y-112376292D01*
X126953329Y-112501514D01*
X127197298Y-112573097D01*
X128010395Y-111760000D01*
X128369605Y-111760000D01*
X129182702Y-112573097D01*
X129426671Y-112501514D01*
X129547571Y-112246004D01*
X129616300Y-111971816D01*
X129630217Y-111689488D01*
X129588787Y-111409870D01*
X129493603Y-111143708D01*
X129426671Y-111018486D01*
X129182702Y-110946903D01*
X128369605Y-111760000D01*
X128010395Y-111760000D01*
X127197298Y-110946903D01*
X126953329Y-111018486D01*
X126832429Y-111273996D01*
X126763700Y-111548184D01*
X126749783Y-111830512D01*
X124625000Y-111830512D01*
X124625000Y-111618665D01*
X124569853Y-111341426D01*
X124461680Y-111080273D01*
X124304637Y-110845241D01*
X124226694Y-110767298D01*
X127376903Y-110767298D01*
X128190000Y-111580395D01*
X128922693Y-110847702D01*
X137696903Y-110847702D01*
X137768486Y-111091671D01*
X138023996Y-111212571D01*
X138298184Y-111281300D01*
X138580512Y-111295217D01*
X138860130Y-111253787D01*
X139126292Y-111158603D01*
X139251514Y-111091671D01*
X139323097Y-110847702D01*
X138510000Y-110034605D01*
X137696903Y-110847702D01*
X128922693Y-110847702D01*
X129003097Y-110767298D01*
X128931514Y-110523329D01*
X128676004Y-110402429D01*
X128401816Y-110333700D01*
X128119488Y-110319783D01*
X127839870Y-110361213D01*
X127573708Y-110456397D01*
X127448486Y-110523329D01*
X127376903Y-110767298D01*
X124226694Y-110767298D01*
X124104759Y-110645363D01*
X123869727Y-110488320D01*
X123608574Y-110380147D01*
X123331335Y-110325000D01*
X123048665Y-110325000D01*
X122771426Y-110380147D01*
X122510273Y-110488320D01*
X122275241Y-110645363D01*
X122075363Y-110845241D01*
X121918320Y-111080273D01*
X121810147Y-111341426D01*
X121755000Y-111618665D01*
X117708072Y-111618665D01*
X117708072Y-110260000D01*
X117695812Y-110135518D01*
X117659502Y-110015820D01*
X117611231Y-109925512D01*
X137069783Y-109925512D01*
X137111213Y-110205130D01*
X137206397Y-110471292D01*
X137273329Y-110596514D01*
X137517298Y-110668097D01*
X138330395Y-109855000D01*
X138689605Y-109855000D01*
X139502702Y-110668097D01*
X139746671Y-110596514D01*
X139867571Y-110341004D01*
X139936300Y-110066816D01*
X139950217Y-109784488D01*
X139939724Y-109713665D01*
X142075000Y-109713665D01*
X142075000Y-109996335D01*
X142130147Y-110273574D01*
X142238320Y-110534727D01*
X142395363Y-110769759D01*
X142595241Y-110969637D01*
X142830273Y-111126680D01*
X143091426Y-111234853D01*
X143368665Y-111290000D01*
X143651335Y-111290000D01*
X143928574Y-111234853D01*
X144189727Y-111126680D01*
X144424759Y-110969637D01*
X144624637Y-110769759D01*
X144781680Y-110534727D01*
X144889853Y-110273574D01*
X144945000Y-109996335D01*
X144945000Y-109713665D01*
X144889853Y-109436426D01*
X144781680Y-109175273D01*
X144624637Y-108940241D01*
X144424759Y-108740363D01*
X144189727Y-108583320D01*
X143928574Y-108475147D01*
X143651335Y-108420000D01*
X143368665Y-108420000D01*
X143091426Y-108475147D01*
X142830273Y-108583320D01*
X142595241Y-108740363D01*
X142395363Y-108940241D01*
X142238320Y-109175273D01*
X142130147Y-109436426D01*
X142075000Y-109713665D01*
X139939724Y-109713665D01*
X139908787Y-109504870D01*
X139813603Y-109238708D01*
X139746671Y-109113486D01*
X139502702Y-109041903D01*
X138689605Y-109855000D01*
X138330395Y-109855000D01*
X137517298Y-109041903D01*
X137273329Y-109113486D01*
X137152429Y-109368996D01*
X137083700Y-109643184D01*
X137069783Y-109925512D01*
X117611231Y-109925512D01*
X117600537Y-109905506D01*
X117521185Y-109808815D01*
X117424494Y-109729463D01*
X117314180Y-109670498D01*
X117194482Y-109634188D01*
X117070000Y-109621928D01*
X114070000Y-109621928D01*
X113945518Y-109634188D01*
X113825820Y-109670498D01*
X113715506Y-109729463D01*
X113618815Y-109808815D01*
X113539463Y-109905506D01*
X113480498Y-110015820D01*
X113444188Y-110135518D01*
X113431928Y-110260000D01*
X108610000Y-110260000D01*
X108610000Y-108862298D01*
X137696903Y-108862298D01*
X138510000Y-109675395D01*
X139323097Y-108862298D01*
X139251514Y-108618329D01*
X138996004Y-108497429D01*
X138721816Y-108428700D01*
X138439488Y-108414783D01*
X138159870Y-108456213D01*
X137893708Y-108551397D01*
X137768486Y-108618329D01*
X137696903Y-108862298D01*
X108610000Y-108862298D01*
X108610000Y-106420475D01*
X180880000Y-106420475D01*
X180880000Y-106939525D01*
X180981261Y-107448601D01*
X181179893Y-107928141D01*
X181468262Y-108359715D01*
X181835285Y-108726738D01*
X182266859Y-109015107D01*
X182746399Y-109213739D01*
X183255475Y-109315000D01*
X183774525Y-109315000D01*
X184283601Y-109213739D01*
X184763141Y-109015107D01*
X185194715Y-108726738D01*
X185561738Y-108359715D01*
X185850107Y-107928141D01*
X186048739Y-107448601D01*
X186150000Y-106939525D01*
X186150000Y-106420475D01*
X186048739Y-105911399D01*
X185850107Y-105431859D01*
X185835502Y-105410000D01*
X194823300Y-105410000D01*
X194830001Y-105478039D01*
X194830000Y-135186971D01*
X194823300Y-135255000D01*
X194830000Y-135323029D01*
X194830000Y-135323036D01*
X194850040Y-135526506D01*
X194929236Y-135787580D01*
X195057843Y-136028187D01*
X195230919Y-136239080D01*
X195283765Y-136282450D01*
X203442550Y-144441236D01*
X203485919Y-144494081D01*
X203538764Y-144537450D01*
X203538766Y-144537452D01*
X203651099Y-144629641D01*
X203696812Y-144667157D01*
X203937419Y-144795764D01*
X204198492Y-144874960D01*
X204221892Y-144877265D01*
X204401963Y-144895000D01*
X204401971Y-144895000D01*
X204470000Y-144901700D01*
X204538029Y-144895000D01*
X213458195Y-144895000D01*
X213561842Y-144937932D01*
X213848740Y-144995000D01*
X214141260Y-144995000D01*
X214428158Y-144937932D01*
X214698411Y-144825990D01*
X214941632Y-144663475D01*
X215073487Y-144531620D01*
X215095498Y-144604180D01*
X215154463Y-144714494D01*
X215233815Y-144811185D01*
X215330506Y-144890537D01*
X215440820Y-144949502D01*
X215560518Y-144985812D01*
X215685000Y-144998072D01*
X217385000Y-144998072D01*
X217509482Y-144985812D01*
X217629180Y-144949502D01*
X217739494Y-144890537D01*
X217836185Y-144811185D01*
X217915537Y-144714494D01*
X217974502Y-144604180D01*
X218010812Y-144484482D01*
X218023072Y-144360000D01*
X218023072Y-142660000D01*
X218010812Y-142535518D01*
X217974502Y-142415820D01*
X217915537Y-142305506D01*
X217836185Y-142208815D01*
X217739494Y-142129463D01*
X217629180Y-142070498D01*
X217548534Y-142046034D01*
X217632588Y-141970269D01*
X217806641Y-141736920D01*
X217931825Y-141474099D01*
X217976476Y-141326890D01*
X217855155Y-141097000D01*
X216662000Y-141097000D01*
X216662000Y-141117000D01*
X216408000Y-141117000D01*
X216408000Y-141097000D01*
X214122000Y-141097000D01*
X214122000Y-141117000D01*
X213868000Y-141117000D01*
X213868000Y-141097000D01*
X212674845Y-141097000D01*
X212553524Y-141326890D01*
X212598175Y-141474099D01*
X212723359Y-141736920D01*
X212897412Y-141970269D01*
X213069071Y-142125000D01*
X205043686Y-142125000D01*
X201705576Y-138786890D01*
X212553524Y-138786890D01*
X212598175Y-138934099D01*
X212723359Y-139196920D01*
X212897412Y-139430269D01*
X213113645Y-139625178D01*
X213239255Y-139700000D01*
X213113645Y-139774822D01*
X212897412Y-139969731D01*
X212723359Y-140203080D01*
X212598175Y-140465901D01*
X212553524Y-140613110D01*
X212674845Y-140843000D01*
X213868000Y-140843000D01*
X213868000Y-138557000D01*
X214122000Y-138557000D01*
X214122000Y-140843000D01*
X216408000Y-140843000D01*
X216408000Y-138557000D01*
X216662000Y-138557000D01*
X216662000Y-140843000D01*
X217855155Y-140843000D01*
X217976476Y-140613110D01*
X217931825Y-140465901D01*
X217806641Y-140203080D01*
X217632588Y-139969731D01*
X217416355Y-139774822D01*
X217290745Y-139700000D01*
X217416355Y-139625178D01*
X217632588Y-139430269D01*
X217806641Y-139196920D01*
X217931825Y-138934099D01*
X217976476Y-138786890D01*
X217855155Y-138557000D01*
X216662000Y-138557000D01*
X216408000Y-138557000D01*
X214122000Y-138557000D01*
X213868000Y-138557000D01*
X212674845Y-138557000D01*
X212553524Y-138786890D01*
X201705576Y-138786890D01*
X199165576Y-136246890D01*
X212553524Y-136246890D01*
X212598175Y-136394099D01*
X212723359Y-136656920D01*
X212897412Y-136890269D01*
X213113645Y-137085178D01*
X213239255Y-137160000D01*
X213113645Y-137234822D01*
X212897412Y-137429731D01*
X212723359Y-137663080D01*
X212598175Y-137925901D01*
X212553524Y-138073110D01*
X212674845Y-138303000D01*
X213868000Y-138303000D01*
X213868000Y-136017000D01*
X214122000Y-136017000D01*
X214122000Y-138303000D01*
X216408000Y-138303000D01*
X216408000Y-136017000D01*
X216662000Y-136017000D01*
X216662000Y-138303000D01*
X217855155Y-138303000D01*
X217976476Y-138073110D01*
X217931825Y-137925901D01*
X217806641Y-137663080D01*
X217632588Y-137429731D01*
X217416355Y-137234822D01*
X217290745Y-137160000D01*
X217416355Y-137085178D01*
X217632588Y-136890269D01*
X217806641Y-136656920D01*
X217931825Y-136394099D01*
X217976476Y-136246890D01*
X217855155Y-136017000D01*
X216662000Y-136017000D01*
X216408000Y-136017000D01*
X214122000Y-136017000D01*
X213868000Y-136017000D01*
X212674845Y-136017000D01*
X212553524Y-136246890D01*
X199165576Y-136246890D01*
X197600000Y-134681315D01*
X197600000Y-111125000D01*
X203078300Y-111125000D01*
X203085001Y-111193039D01*
X203085000Y-130106971D01*
X203078300Y-130175000D01*
X203085000Y-130243029D01*
X203085000Y-130243036D01*
X203105040Y-130446506D01*
X203184236Y-130707580D01*
X203312843Y-130948187D01*
X203485919Y-131159080D01*
X203538765Y-131202450D01*
X206617550Y-134281236D01*
X206660919Y-134334081D01*
X206713764Y-134377450D01*
X206713766Y-134377452D01*
X206759649Y-134415107D01*
X206871812Y-134507157D01*
X207112419Y-134635764D01*
X207373493Y-134714960D01*
X207576963Y-134735000D01*
X207576972Y-134735000D01*
X207644999Y-134741700D01*
X207713026Y-134735000D01*
X213069071Y-134735000D01*
X212897412Y-134889731D01*
X212723359Y-135123080D01*
X212598175Y-135385901D01*
X212553524Y-135533110D01*
X212674845Y-135763000D01*
X213868000Y-135763000D01*
X213868000Y-135743000D01*
X214122000Y-135743000D01*
X214122000Y-135763000D01*
X216408000Y-135763000D01*
X216408000Y-135743000D01*
X216662000Y-135743000D01*
X216662000Y-135763000D01*
X217855155Y-135763000D01*
X217976476Y-135533110D01*
X217931825Y-135385901D01*
X217806641Y-135123080D01*
X217632588Y-134889731D01*
X217416355Y-134694822D01*
X217299466Y-134625195D01*
X217481632Y-134503475D01*
X217688475Y-134296632D01*
X217850990Y-134053411D01*
X217962932Y-133783158D01*
X218020000Y-133496260D01*
X218020000Y-133203740D01*
X217962932Y-132916842D01*
X217850990Y-132646589D01*
X217688475Y-132403368D01*
X217481632Y-132196525D01*
X217307240Y-132080000D01*
X217481632Y-131963475D01*
X217688475Y-131756632D01*
X217850990Y-131513411D01*
X217962932Y-131243158D01*
X218020000Y-130956260D01*
X218020000Y-130663740D01*
X217962932Y-130376842D01*
X217850990Y-130106589D01*
X217688475Y-129863368D01*
X217481632Y-129656525D01*
X217307240Y-129540000D01*
X217481632Y-129423475D01*
X217688475Y-129216632D01*
X217850990Y-128973411D01*
X217962932Y-128703158D01*
X218020000Y-128416260D01*
X218020000Y-128123740D01*
X217962932Y-127836842D01*
X217850990Y-127566589D01*
X217688475Y-127323368D01*
X217481632Y-127116525D01*
X217307240Y-127000000D01*
X217481632Y-126883475D01*
X217688475Y-126676632D01*
X217850990Y-126433411D01*
X217962932Y-126163158D01*
X218020000Y-125876260D01*
X218020000Y-125583740D01*
X217962932Y-125296842D01*
X217850990Y-125026589D01*
X217688475Y-124783368D01*
X217481632Y-124576525D01*
X217238411Y-124414010D01*
X216968158Y-124302068D01*
X216681260Y-124245000D01*
X216388740Y-124245000D01*
X216101842Y-124302068D01*
X215831589Y-124414010D01*
X215588368Y-124576525D01*
X215381525Y-124783368D01*
X215380000Y-124785650D01*
X215380000Y-115244350D01*
X215381525Y-115246632D01*
X215588368Y-115453475D01*
X215831589Y-115615990D01*
X216101842Y-115727932D01*
X216388740Y-115785000D01*
X216681260Y-115785000D01*
X216968158Y-115727932D01*
X217238411Y-115615990D01*
X217481632Y-115453475D01*
X217688475Y-115246632D01*
X217850990Y-115003411D01*
X217962932Y-114733158D01*
X218020000Y-114446260D01*
X218020000Y-114153740D01*
X217962932Y-113866842D01*
X217850990Y-113596589D01*
X217688475Y-113353368D01*
X217481632Y-113146525D01*
X217307240Y-113030000D01*
X217481632Y-112913475D01*
X217688475Y-112706632D01*
X217850990Y-112463411D01*
X217962932Y-112193158D01*
X218020000Y-111906260D01*
X218020000Y-111613740D01*
X217962932Y-111326842D01*
X217850990Y-111056589D01*
X217688475Y-110813368D01*
X217481632Y-110606525D01*
X217307240Y-110490000D01*
X217481632Y-110373475D01*
X217688475Y-110166632D01*
X217850990Y-109923411D01*
X217962932Y-109653158D01*
X218020000Y-109366260D01*
X218020000Y-109073740D01*
X217962932Y-108786842D01*
X217850990Y-108516589D01*
X217688475Y-108273368D01*
X217481632Y-108066525D01*
X217307240Y-107950000D01*
X217481632Y-107833475D01*
X217688475Y-107626632D01*
X217850990Y-107383411D01*
X217962932Y-107113158D01*
X218020000Y-106826260D01*
X218020000Y-106533740D01*
X217962932Y-106246842D01*
X217850990Y-105976589D01*
X217688475Y-105733368D01*
X217481632Y-105526525D01*
X217299466Y-105404805D01*
X217416355Y-105335178D01*
X217632588Y-105140269D01*
X217806641Y-104906920D01*
X217931825Y-104644099D01*
X217976476Y-104496890D01*
X217855155Y-104267000D01*
X216662000Y-104267000D01*
X216662000Y-104287000D01*
X216408000Y-104287000D01*
X216408000Y-104267000D01*
X214122000Y-104267000D01*
X214122000Y-104287000D01*
X213868000Y-104287000D01*
X213868000Y-104267000D01*
X212674845Y-104267000D01*
X212553524Y-104496890D01*
X212598175Y-104644099D01*
X212723359Y-104906920D01*
X212897412Y-105140269D01*
X213069071Y-105295000D01*
X208983026Y-105295000D01*
X208914999Y-105288300D01*
X208846972Y-105295000D01*
X208846963Y-105295000D01*
X208643493Y-105315040D01*
X208382419Y-105394236D01*
X208141812Y-105522843D01*
X208096099Y-105560359D01*
X207983766Y-105652548D01*
X207983764Y-105652550D01*
X207930919Y-105695919D01*
X207887550Y-105748764D01*
X203538764Y-110097551D01*
X203485920Y-110140919D01*
X203442551Y-110193764D01*
X203442548Y-110193767D01*
X203312844Y-110351812D01*
X203184236Y-110592420D01*
X203105040Y-110853493D01*
X203078300Y-111125000D01*
X197600000Y-111125000D01*
X197600000Y-105983685D01*
X201626795Y-101956890D01*
X212553524Y-101956890D01*
X212598175Y-102104099D01*
X212723359Y-102366920D01*
X212897412Y-102600269D01*
X213113645Y-102795178D01*
X213239255Y-102870000D01*
X213113645Y-102944822D01*
X212897412Y-103139731D01*
X212723359Y-103373080D01*
X212598175Y-103635901D01*
X212553524Y-103783110D01*
X212674845Y-104013000D01*
X213868000Y-104013000D01*
X213868000Y-101727000D01*
X214122000Y-101727000D01*
X214122000Y-104013000D01*
X216408000Y-104013000D01*
X216408000Y-101727000D01*
X216662000Y-101727000D01*
X216662000Y-104013000D01*
X217855155Y-104013000D01*
X217976476Y-103783110D01*
X217931825Y-103635901D01*
X217806641Y-103373080D01*
X217632588Y-103139731D01*
X217416355Y-102944822D01*
X217290745Y-102870000D01*
X217416355Y-102795178D01*
X217632588Y-102600269D01*
X217806641Y-102366920D01*
X217931825Y-102104099D01*
X217976476Y-101956890D01*
X217855155Y-101727000D01*
X216662000Y-101727000D01*
X216408000Y-101727000D01*
X214122000Y-101727000D01*
X213868000Y-101727000D01*
X212674845Y-101727000D01*
X212553524Y-101956890D01*
X201626795Y-101956890D01*
X204166795Y-99416890D01*
X212553524Y-99416890D01*
X212598175Y-99564099D01*
X212723359Y-99826920D01*
X212897412Y-100060269D01*
X213113645Y-100255178D01*
X213239255Y-100330000D01*
X213113645Y-100404822D01*
X212897412Y-100599731D01*
X212723359Y-100833080D01*
X212598175Y-101095901D01*
X212553524Y-101243110D01*
X212674845Y-101473000D01*
X213868000Y-101473000D01*
X213868000Y-99187000D01*
X214122000Y-99187000D01*
X214122000Y-101473000D01*
X216408000Y-101473000D01*
X216408000Y-99187000D01*
X216662000Y-99187000D01*
X216662000Y-101473000D01*
X217855155Y-101473000D01*
X217976476Y-101243110D01*
X217931825Y-101095901D01*
X217806641Y-100833080D01*
X217632588Y-100599731D01*
X217416355Y-100404822D01*
X217290745Y-100330000D01*
X217416355Y-100255178D01*
X217632588Y-100060269D01*
X217806641Y-99826920D01*
X217931825Y-99564099D01*
X217976476Y-99416890D01*
X217855155Y-99187000D01*
X216662000Y-99187000D01*
X216408000Y-99187000D01*
X214122000Y-99187000D01*
X213868000Y-99187000D01*
X212674845Y-99187000D01*
X212553524Y-99416890D01*
X204166795Y-99416890D01*
X205678686Y-97905000D01*
X212798856Y-97905000D01*
X212900820Y-97959502D01*
X212981466Y-97983966D01*
X212897412Y-98059731D01*
X212723359Y-98293080D01*
X212598175Y-98555901D01*
X212553524Y-98703110D01*
X212674845Y-98933000D01*
X213868000Y-98933000D01*
X213868000Y-98913000D01*
X214122000Y-98913000D01*
X214122000Y-98933000D01*
X216408000Y-98933000D01*
X216408000Y-98913000D01*
X216662000Y-98913000D01*
X216662000Y-98933000D01*
X217855155Y-98933000D01*
X217976476Y-98703110D01*
X217931825Y-98555901D01*
X217806641Y-98293080D01*
X217632588Y-98059731D01*
X217416355Y-97864822D01*
X217299466Y-97795195D01*
X217481632Y-97673475D01*
X217688475Y-97466632D01*
X217850990Y-97223411D01*
X217962932Y-96953158D01*
X218020000Y-96666260D01*
X218020000Y-96373740D01*
X217962932Y-96086842D01*
X217850990Y-95816589D01*
X217688475Y-95573368D01*
X217481632Y-95366525D01*
X217238411Y-95204010D01*
X216968158Y-95092068D01*
X216681260Y-95035000D01*
X216388740Y-95035000D01*
X216101842Y-95092068D01*
X215831589Y-95204010D01*
X215588368Y-95366525D01*
X215456513Y-95498380D01*
X215434502Y-95425820D01*
X215375537Y-95315506D01*
X215296185Y-95218815D01*
X215199494Y-95139463D01*
X215089180Y-95080498D01*
X214969482Y-95044188D01*
X214845000Y-95031928D01*
X213145000Y-95031928D01*
X213020518Y-95044188D01*
X212900820Y-95080498D01*
X212798856Y-95135000D01*
X205173037Y-95135000D01*
X205105000Y-95128299D01*
X205036963Y-95135000D01*
X204833493Y-95155040D01*
X204572419Y-95234236D01*
X204331812Y-95362843D01*
X204173766Y-95492548D01*
X204173764Y-95492550D01*
X204120919Y-95535919D01*
X204077550Y-95588764D01*
X195283764Y-104382551D01*
X195230920Y-104425919D01*
X195187551Y-104478764D01*
X195187548Y-104478767D01*
X195057844Y-104636812D01*
X194929236Y-104877420D01*
X194850040Y-105138493D01*
X194823300Y-105410000D01*
X185835502Y-105410000D01*
X185561738Y-105000285D01*
X185194715Y-104633262D01*
X184763141Y-104344893D01*
X184283601Y-104146261D01*
X183774525Y-104045000D01*
X183255475Y-104045000D01*
X182746399Y-104146261D01*
X182266859Y-104344893D01*
X181835285Y-104633262D01*
X181468262Y-105000285D01*
X181179893Y-105431859D01*
X180981261Y-105911399D01*
X180880000Y-106420475D01*
X108610000Y-106420475D01*
X108610000Y-94355475D01*
X125635000Y-94355475D01*
X125635000Y-94874525D01*
X125736261Y-95383601D01*
X125934893Y-95863141D01*
X126223262Y-96294715D01*
X126590285Y-96661738D01*
X127021859Y-96950107D01*
X127501399Y-97148739D01*
X128010475Y-97250000D01*
X128529525Y-97250000D01*
X129038601Y-97148739D01*
X129518141Y-96950107D01*
X129757757Y-96790000D01*
X136839428Y-96790000D01*
X136839428Y-98790000D01*
X136851688Y-98914482D01*
X136887998Y-99034180D01*
X136946963Y-99144494D01*
X137026315Y-99241185D01*
X137123006Y-99320537D01*
X137233320Y-99379502D01*
X137353018Y-99415812D01*
X137477500Y-99428072D01*
X139382500Y-99428072D01*
X139506982Y-99415812D01*
X139626680Y-99379502D01*
X139736994Y-99320537D01*
X139833685Y-99241185D01*
X139913037Y-99144494D01*
X139962059Y-99052781D01*
X140103077Y-99165969D01*
X140378906Y-99309571D01*
X140597020Y-99380563D01*
X140843000Y-99260594D01*
X140843000Y-97917000D01*
X140823000Y-97917000D01*
X140823000Y-97663000D01*
X140843000Y-97663000D01*
X140843000Y-96319406D01*
X141097000Y-96319406D01*
X141097000Y-97663000D01*
X141117000Y-97663000D01*
X141117000Y-97917000D01*
X141097000Y-97917000D01*
X141097000Y-99260594D01*
X141342980Y-99380563D01*
X141561094Y-99309571D01*
X141836923Y-99165969D01*
X142079437Y-98971315D01*
X142234837Y-98786101D01*
X142382037Y-98965463D01*
X142623766Y-99163845D01*
X142899552Y-99311255D01*
X143198797Y-99402030D01*
X143510000Y-99432681D01*
X143821204Y-99402030D01*
X144120449Y-99311255D01*
X144396235Y-99163845D01*
X144637963Y-98965463D01*
X144836345Y-98723734D01*
X144983755Y-98447948D01*
X145074530Y-98148703D01*
X145097500Y-97915485D01*
X145097500Y-97664514D01*
X145074530Y-97431296D01*
X144983755Y-97132051D01*
X144836345Y-96856265D01*
X144637963Y-96614537D01*
X144396234Y-96416155D01*
X144120448Y-96268745D01*
X143821203Y-96177970D01*
X143510000Y-96147319D01*
X143198796Y-96177970D01*
X142899551Y-96268745D01*
X142623765Y-96416155D01*
X142382037Y-96614537D01*
X142234838Y-96793900D01*
X142079437Y-96608685D01*
X141836923Y-96414031D01*
X141561094Y-96270429D01*
X141342980Y-96199437D01*
X141097000Y-96319406D01*
X140843000Y-96319406D01*
X140597020Y-96199437D01*
X140378906Y-96270429D01*
X140103077Y-96414031D01*
X139962059Y-96527219D01*
X139913037Y-96435506D01*
X139833685Y-96338815D01*
X139736994Y-96259463D01*
X139626680Y-96200498D01*
X139506982Y-96164188D01*
X139382500Y-96151928D01*
X137477500Y-96151928D01*
X137353018Y-96164188D01*
X137233320Y-96200498D01*
X137123006Y-96259463D01*
X137026315Y-96338815D01*
X136946963Y-96435506D01*
X136887998Y-96545820D01*
X136851688Y-96665518D01*
X136839428Y-96790000D01*
X129757757Y-96790000D01*
X129949715Y-96661738D01*
X130316738Y-96294715D01*
X130605107Y-95863141D01*
X130803739Y-95383601D01*
X130905000Y-94874525D01*
X130905000Y-94355475D01*
X151035000Y-94355475D01*
X151035000Y-94874525D01*
X151136261Y-95383601D01*
X151334893Y-95863141D01*
X151623262Y-96294715D01*
X151990285Y-96661738D01*
X152421859Y-96950107D01*
X152901399Y-97148739D01*
X153410475Y-97250000D01*
X153929525Y-97250000D01*
X154438601Y-97148739D01*
X154918141Y-96950107D01*
X155349715Y-96661738D01*
X155716738Y-96294715D01*
X156005107Y-95863141D01*
X156203739Y-95383601D01*
X156305000Y-94874525D01*
X156305000Y-94355475D01*
X156203739Y-93846399D01*
X156005107Y-93366859D01*
X155716738Y-92935285D01*
X155349715Y-92568262D01*
X154918141Y-92279893D01*
X154438601Y-92081261D01*
X153929525Y-91980000D01*
X153410475Y-91980000D01*
X152901399Y-92081261D01*
X152421859Y-92279893D01*
X151990285Y-92568262D01*
X151623262Y-92935285D01*
X151334893Y-93366859D01*
X151136261Y-93846399D01*
X151035000Y-94355475D01*
X130905000Y-94355475D01*
X130803739Y-93846399D01*
X130605107Y-93366859D01*
X130316738Y-92935285D01*
X129949715Y-92568262D01*
X129518141Y-92279893D01*
X129038601Y-92081261D01*
X128529525Y-91980000D01*
X128010475Y-91980000D01*
X127501399Y-92081261D01*
X127021859Y-92279893D01*
X126590285Y-92568262D01*
X126223262Y-92935285D01*
X125934893Y-93366859D01*
X125736261Y-93846399D01*
X125635000Y-94355475D01*
X108610000Y-94355475D01*
X108610000Y-87409872D01*
X111430000Y-87409872D01*
X111430000Y-87850128D01*
X111515890Y-88281925D01*
X111684369Y-88688669D01*
X111928962Y-89054729D01*
X112240271Y-89366038D01*
X112606331Y-89610631D01*
X113013075Y-89779110D01*
X113444872Y-89865000D01*
X113885128Y-89865000D01*
X114316925Y-89779110D01*
X114723669Y-89610631D01*
X115089729Y-89366038D01*
X115401038Y-89054729D01*
X115645631Y-88688669D01*
X115814110Y-88281925D01*
X115900000Y-87850128D01*
X115900000Y-87409872D01*
X211760000Y-87409872D01*
X211760000Y-87850128D01*
X211845890Y-88281925D01*
X212014369Y-88688669D01*
X212258962Y-89054729D01*
X212570271Y-89366038D01*
X212936331Y-89610631D01*
X213343075Y-89779110D01*
X213774872Y-89865000D01*
X214215128Y-89865000D01*
X214646925Y-89779110D01*
X215053669Y-89610631D01*
X215419729Y-89366038D01*
X215731038Y-89054729D01*
X215975631Y-88688669D01*
X216144110Y-88281925D01*
X216230000Y-87850128D01*
X216230000Y-87409872D01*
X216144110Y-86978075D01*
X215975631Y-86571331D01*
X215731038Y-86205271D01*
X215419729Y-85893962D01*
X215053669Y-85649369D01*
X214646925Y-85480890D01*
X214215128Y-85395000D01*
X213774872Y-85395000D01*
X213343075Y-85480890D01*
X212936331Y-85649369D01*
X212570271Y-85893962D01*
X212258962Y-86205271D01*
X212014369Y-86571331D01*
X211845890Y-86978075D01*
X211760000Y-87409872D01*
X115900000Y-87409872D01*
X115814110Y-86978075D01*
X115645631Y-86571331D01*
X115401038Y-86205271D01*
X115089729Y-85893962D01*
X114723669Y-85649369D01*
X114316925Y-85480890D01*
X113885128Y-85395000D01*
X113444872Y-85395000D01*
X113013075Y-85480890D01*
X112606331Y-85649369D01*
X112240271Y-85893962D01*
X111928962Y-86205271D01*
X111684369Y-86571331D01*
X111515890Y-86978075D01*
X111430000Y-87409872D01*
X108610000Y-87409872D01*
X108610000Y-82575000D01*
X219050000Y-82575000D01*
X219050001Y-156820000D01*
G37*
%TD.AperFunction*%
%TD*%
M02*
