%TF.GenerationSoftware,KiCad,Pcbnew,(5.1.10)-1*%
%TF.CreationDate,2021-10-01T01:20:56-04:00*%
%TF.ProjectId,Circuit Protector,43697263-7569-4742-9050-726f74656374,rev?*%
%TF.SameCoordinates,Original*%
%TF.FileFunction,Legend,Top*%
%TF.FilePolarity,Positive*%
%FSLAX46Y46*%
G04 Gerber Fmt 4.6, Leading zero omitted, Abs format (unit mm)*
G04 Created by KiCad (PCBNEW (5.1.10)-1) date 2021-10-01 01:20:56*
%MOMM*%
%LPD*%
G01*
G04 APERTURE LIST*
%ADD10C,0.150000*%
%ADD11C,0.120000*%
G04 APERTURE END LIST*
D10*
X165092000Y-121165904D02*
X165139619Y-121070666D01*
X165139619Y-120927809D01*
X165092000Y-120784952D01*
X164996761Y-120689714D01*
X164901523Y-120642095D01*
X164711047Y-120594476D01*
X164568190Y-120594476D01*
X164377714Y-120642095D01*
X164282476Y-120689714D01*
X164187238Y-120784952D01*
X164139619Y-120927809D01*
X164139619Y-121023047D01*
X164187238Y-121165904D01*
X164234857Y-121213523D01*
X164568190Y-121213523D01*
X164568190Y-121023047D01*
X165044380Y-116109714D02*
X164044380Y-116109714D01*
X165044380Y-115538285D01*
X164044380Y-115538285D01*
X164139619Y-111053523D02*
X164139619Y-110577333D01*
X165139619Y-110577333D01*
D11*
%TO.C,Ground*%
X197535000Y-141080000D02*
X197535000Y-120280000D01*
X197535000Y-120280000D02*
X202585000Y-120280000D01*
X202585000Y-120280000D02*
X202335000Y-120780000D01*
X202335000Y-120780000D02*
X207735000Y-120780000D01*
X207735000Y-120780000D02*
X207435000Y-120230000D01*
X207435000Y-120230000D02*
X209485000Y-120230000D01*
X209485000Y-120230000D02*
X209185000Y-120780000D01*
X209185000Y-120780000D02*
X210135000Y-120780000D01*
X210135000Y-120780000D02*
X210135000Y-141080000D01*
X210135000Y-141080000D02*
X197535000Y-141080000D01*
%TO.C,Input*%
X178512000Y-108094000D02*
X165912000Y-108094000D01*
X165912000Y-108094000D02*
X165912000Y-123494000D01*
X165912000Y-123494000D02*
X166862000Y-123494000D01*
X166862000Y-123494000D02*
X166562000Y-123994000D01*
X166562000Y-123994000D02*
X168562000Y-123994000D01*
X168562000Y-123994000D02*
X168312000Y-123494000D01*
X168312000Y-123494000D02*
X173712000Y-123494000D01*
X173712000Y-123494000D02*
X173462000Y-123994000D01*
X173462000Y-123994000D02*
X178512000Y-123994000D01*
X178512000Y-123994000D02*
X178512000Y-108094000D01*
%TO.C,Line*%
X197535000Y-92820000D02*
X197535000Y-72020000D01*
X197535000Y-72020000D02*
X202585000Y-72020000D01*
X202585000Y-72020000D02*
X202335000Y-72520000D01*
X202335000Y-72520000D02*
X207735000Y-72520000D01*
X207735000Y-72520000D02*
X207435000Y-71970000D01*
X207435000Y-71970000D02*
X209485000Y-71970000D01*
X209485000Y-71970000D02*
X209185000Y-72520000D01*
X209185000Y-72520000D02*
X210135000Y-72520000D01*
X210135000Y-72520000D02*
X210135000Y-92820000D01*
X210135000Y-92820000D02*
X197535000Y-92820000D01*
%TO.C,Neutral*%
X210135000Y-116950000D02*
X197535000Y-116950000D01*
X210135000Y-96650000D02*
X210135000Y-116950000D01*
X209185000Y-96650000D02*
X210135000Y-96650000D01*
X209485000Y-96100000D02*
X209185000Y-96650000D01*
X207435000Y-96100000D02*
X209485000Y-96100000D01*
X207735000Y-96650000D02*
X207435000Y-96100000D01*
X202335000Y-96650000D02*
X207735000Y-96650000D01*
X202585000Y-96150000D02*
X202335000Y-96650000D01*
X197535000Y-96150000D02*
X202585000Y-96150000D01*
X197535000Y-116950000D02*
X197535000Y-96150000D01*
%TO.C,MOV*%
X193596000Y-87463000D02*
X193596000Y-103803000D01*
X184356000Y-87463000D02*
X184356000Y-103803000D01*
X193596000Y-87463000D02*
X184356000Y-87463000D01*
X193596000Y-103803000D02*
X184356000Y-103803000D01*
X193596000Y-89082000D02*
X184356000Y-89082000D01*
X193596000Y-102184000D02*
X184356000Y-102184000D01*
X193596000Y-125552000D02*
X184356000Y-125552000D01*
X193596000Y-112450000D02*
X184356000Y-112450000D01*
X193596000Y-127171000D02*
X184356000Y-127171000D01*
X193596000Y-110831000D02*
X184356000Y-110831000D01*
X184356000Y-110831000D02*
X184356000Y-127171000D01*
X193596000Y-110831000D02*
X193596000Y-127171000D01*
X182285000Y-103680000D02*
X165945000Y-103680000D01*
X182285000Y-94440000D02*
X165945000Y-94440000D01*
X182285000Y-103680000D02*
X182285000Y-94440000D01*
X165945000Y-103680000D02*
X165945000Y-94440000D01*
X180666000Y-103680000D02*
X180666000Y-94440000D01*
X167564000Y-103680000D02*
X167564000Y-94440000D01*
%TO.C,NTC*%
X188436000Y-80796000D02*
X188436000Y-81126000D01*
X188436000Y-81126000D02*
X181896000Y-81126000D01*
X181896000Y-81126000D02*
X181896000Y-80796000D01*
X188436000Y-78716000D02*
X188436000Y-78386000D01*
X188436000Y-78386000D02*
X181896000Y-78386000D01*
X181896000Y-78386000D02*
X181896000Y-78716000D01*
%TO.C,m3*%
D10*
X167243238Y-72452380D02*
X167243238Y-71785714D01*
X167243238Y-71880952D02*
X167290857Y-71833333D01*
X167386095Y-71785714D01*
X167528952Y-71785714D01*
X167624190Y-71833333D01*
X167671809Y-71928571D01*
X167671809Y-72452380D01*
X167671809Y-71928571D02*
X167719428Y-71833333D01*
X167814666Y-71785714D01*
X167957523Y-71785714D01*
X168052761Y-71833333D01*
X168100380Y-71928571D01*
X168100380Y-72452380D01*
X168481333Y-71452380D02*
X169100380Y-71452380D01*
X168767047Y-71833333D01*
X168909904Y-71833333D01*
X169005142Y-71880952D01*
X169052761Y-71928571D01*
X169100380Y-72023809D01*
X169100380Y-72261904D01*
X169052761Y-72357142D01*
X169005142Y-72404761D01*
X168909904Y-72452380D01*
X168624190Y-72452380D01*
X168528952Y-72404761D01*
X168481333Y-72357142D01*
X167243238Y-133412380D02*
X167243238Y-132745714D01*
X167243238Y-132840952D02*
X167290857Y-132793333D01*
X167386095Y-132745714D01*
X167528952Y-132745714D01*
X167624190Y-132793333D01*
X167671809Y-132888571D01*
X167671809Y-133412380D01*
X167671809Y-132888571D02*
X167719428Y-132793333D01*
X167814666Y-132745714D01*
X167957523Y-132745714D01*
X168052761Y-132793333D01*
X168100380Y-132888571D01*
X168100380Y-133412380D01*
X168481333Y-132412380D02*
X169100380Y-132412380D01*
X168767047Y-132793333D01*
X168909904Y-132793333D01*
X169005142Y-132840952D01*
X169052761Y-132888571D01*
X169100380Y-132983809D01*
X169100380Y-133221904D01*
X169052761Y-133317142D01*
X169005142Y-133364761D01*
X168909904Y-133412380D01*
X168624190Y-133412380D01*
X168528952Y-133364761D01*
X168481333Y-133317142D01*
%TO.C,Ground*%
X196185000Y-132787142D02*
X196137380Y-132882380D01*
X196137380Y-133025238D01*
X196185000Y-133168095D01*
X196280238Y-133263333D01*
X196375476Y-133310952D01*
X196565952Y-133358571D01*
X196708809Y-133358571D01*
X196899285Y-133310952D01*
X196994523Y-133263333D01*
X197089761Y-133168095D01*
X197137380Y-133025238D01*
X197137380Y-132930000D01*
X197089761Y-132787142D01*
X197042142Y-132739523D01*
X196708809Y-132739523D01*
X196708809Y-132930000D01*
X197137380Y-132310952D02*
X196470714Y-132310952D01*
X196661190Y-132310952D02*
X196565952Y-132263333D01*
X196518333Y-132215714D01*
X196470714Y-132120476D01*
X196470714Y-132025238D01*
X197137380Y-131549047D02*
X197089761Y-131644285D01*
X197042142Y-131691904D01*
X196946904Y-131739523D01*
X196661190Y-131739523D01*
X196565952Y-131691904D01*
X196518333Y-131644285D01*
X196470714Y-131549047D01*
X196470714Y-131406190D01*
X196518333Y-131310952D01*
X196565952Y-131263333D01*
X196661190Y-131215714D01*
X196946904Y-131215714D01*
X197042142Y-131263333D01*
X197089761Y-131310952D01*
X197137380Y-131406190D01*
X197137380Y-131549047D01*
X196470714Y-130358571D02*
X197137380Y-130358571D01*
X196470714Y-130787142D02*
X196994523Y-130787142D01*
X197089761Y-130739523D01*
X197137380Y-130644285D01*
X197137380Y-130501428D01*
X197089761Y-130406190D01*
X197042142Y-130358571D01*
X196470714Y-129882380D02*
X197137380Y-129882380D01*
X196565952Y-129882380D02*
X196518333Y-129834761D01*
X196470714Y-129739523D01*
X196470714Y-129596666D01*
X196518333Y-129501428D01*
X196613571Y-129453809D01*
X197137380Y-129453809D01*
X197137380Y-128549047D02*
X196137380Y-128549047D01*
X197089761Y-128549047D02*
X197137380Y-128644285D01*
X197137380Y-128834761D01*
X197089761Y-128930000D01*
X197042142Y-128977619D01*
X196946904Y-129025238D01*
X196661190Y-129025238D01*
X196565952Y-128977619D01*
X196518333Y-128930000D01*
X196470714Y-128834761D01*
X196470714Y-128644285D01*
X196518333Y-128549047D01*
%TO.C,Input*%
X179764380Y-117386857D02*
X178764380Y-117386857D01*
X179097714Y-116910666D02*
X179764380Y-116910666D01*
X179192952Y-116910666D02*
X179145333Y-116863047D01*
X179097714Y-116767809D01*
X179097714Y-116624952D01*
X179145333Y-116529714D01*
X179240571Y-116482095D01*
X179764380Y-116482095D01*
X179097714Y-116005904D02*
X180097714Y-116005904D01*
X179145333Y-116005904D02*
X179097714Y-115910666D01*
X179097714Y-115720190D01*
X179145333Y-115624952D01*
X179192952Y-115577333D01*
X179288190Y-115529714D01*
X179573904Y-115529714D01*
X179669142Y-115577333D01*
X179716761Y-115624952D01*
X179764380Y-115720190D01*
X179764380Y-115910666D01*
X179716761Y-116005904D01*
X179097714Y-114672571D02*
X179764380Y-114672571D01*
X179097714Y-115101142D02*
X179621523Y-115101142D01*
X179716761Y-115053523D01*
X179764380Y-114958285D01*
X179764380Y-114815428D01*
X179716761Y-114720190D01*
X179669142Y-114672571D01*
X179097714Y-114339238D02*
X179097714Y-113958285D01*
X178764380Y-114196380D02*
X179621523Y-114196380D01*
X179716761Y-114148761D01*
X179764380Y-114053523D01*
X179764380Y-113958285D01*
%TO.C,Line*%
X197137380Y-83479523D02*
X197137380Y-83955714D01*
X196137380Y-83955714D01*
X197137380Y-83146190D02*
X196470714Y-83146190D01*
X196137380Y-83146190D02*
X196185000Y-83193809D01*
X196232619Y-83146190D01*
X196185000Y-83098571D01*
X196137380Y-83146190D01*
X196232619Y-83146190D01*
X196470714Y-82670000D02*
X197137380Y-82670000D01*
X196565952Y-82670000D02*
X196518333Y-82622380D01*
X196470714Y-82527142D01*
X196470714Y-82384285D01*
X196518333Y-82289047D01*
X196613571Y-82241428D01*
X197137380Y-82241428D01*
X197089761Y-81384285D02*
X197137380Y-81479523D01*
X197137380Y-81670000D01*
X197089761Y-81765238D01*
X196994523Y-81812857D01*
X196613571Y-81812857D01*
X196518333Y-81765238D01*
X196470714Y-81670000D01*
X196470714Y-81479523D01*
X196518333Y-81384285D01*
X196613571Y-81336666D01*
X196708809Y-81336666D01*
X196804047Y-81812857D01*
%TO.C,Neutral*%
X197137380Y-109276190D02*
X196137380Y-109276190D01*
X197137380Y-108704761D01*
X196137380Y-108704761D01*
X197089761Y-107847619D02*
X197137380Y-107942857D01*
X197137380Y-108133333D01*
X197089761Y-108228571D01*
X196994523Y-108276190D01*
X196613571Y-108276190D01*
X196518333Y-108228571D01*
X196470714Y-108133333D01*
X196470714Y-107942857D01*
X196518333Y-107847619D01*
X196613571Y-107800000D01*
X196708809Y-107800000D01*
X196804047Y-108276190D01*
X196470714Y-106942857D02*
X197137380Y-106942857D01*
X196470714Y-107371428D02*
X196994523Y-107371428D01*
X197089761Y-107323809D01*
X197137380Y-107228571D01*
X197137380Y-107085714D01*
X197089761Y-106990476D01*
X197042142Y-106942857D01*
X196470714Y-106609523D02*
X196470714Y-106228571D01*
X196137380Y-106466666D02*
X196994523Y-106466666D01*
X197089761Y-106419047D01*
X197137380Y-106323809D01*
X197137380Y-106228571D01*
X197137380Y-105895238D02*
X196470714Y-105895238D01*
X196661190Y-105895238D02*
X196565952Y-105847619D01*
X196518333Y-105800000D01*
X196470714Y-105704761D01*
X196470714Y-105609523D01*
X197137380Y-104847619D02*
X196613571Y-104847619D01*
X196518333Y-104895238D01*
X196470714Y-104990476D01*
X196470714Y-105180952D01*
X196518333Y-105276190D01*
X197089761Y-104847619D02*
X197137380Y-104942857D01*
X197137380Y-105180952D01*
X197089761Y-105276190D01*
X196994523Y-105323809D01*
X196899285Y-105323809D01*
X196804047Y-105276190D01*
X196756428Y-105180952D01*
X196756428Y-104942857D01*
X196708809Y-104847619D01*
X197137380Y-104228571D02*
X197089761Y-104323809D01*
X196994523Y-104371428D01*
X196137380Y-104371428D01*
%TO.C,MOV*%
X195178380Y-96918714D02*
X194178380Y-96918714D01*
X194892666Y-96585380D01*
X194178380Y-96252047D01*
X195178380Y-96252047D01*
X194178380Y-95585380D02*
X194178380Y-95394904D01*
X194226000Y-95299666D01*
X194321238Y-95204428D01*
X194511714Y-95156809D01*
X194845047Y-95156809D01*
X195035523Y-95204428D01*
X195130761Y-95299666D01*
X195178380Y-95394904D01*
X195178380Y-95585380D01*
X195130761Y-95680619D01*
X195035523Y-95775857D01*
X194845047Y-95823476D01*
X194511714Y-95823476D01*
X194321238Y-95775857D01*
X194226000Y-95680619D01*
X194178380Y-95585380D01*
X194178380Y-94871095D02*
X195178380Y-94537761D01*
X194178380Y-94204428D01*
X195178380Y-120286714D02*
X194178380Y-120286714D01*
X194892666Y-119953380D01*
X194178380Y-119620047D01*
X195178380Y-119620047D01*
X194178380Y-118953380D02*
X194178380Y-118762904D01*
X194226000Y-118667666D01*
X194321238Y-118572428D01*
X194511714Y-118524809D01*
X194845047Y-118524809D01*
X195035523Y-118572428D01*
X195130761Y-118667666D01*
X195178380Y-118762904D01*
X195178380Y-118953380D01*
X195130761Y-119048619D01*
X195035523Y-119143857D01*
X194845047Y-119191476D01*
X194511714Y-119191476D01*
X194321238Y-119143857D01*
X194226000Y-119048619D01*
X194178380Y-118953380D01*
X194178380Y-118239095D02*
X195178380Y-117905761D01*
X194178380Y-117572428D01*
X172829285Y-105262380D02*
X172829285Y-104262380D01*
X173162619Y-104976666D01*
X173495952Y-104262380D01*
X173495952Y-105262380D01*
X174162619Y-104262380D02*
X174353095Y-104262380D01*
X174448333Y-104310000D01*
X174543571Y-104405238D01*
X174591190Y-104595714D01*
X174591190Y-104929047D01*
X174543571Y-105119523D01*
X174448333Y-105214761D01*
X174353095Y-105262380D01*
X174162619Y-105262380D01*
X174067380Y-105214761D01*
X173972142Y-105119523D01*
X173924523Y-104929047D01*
X173924523Y-104595714D01*
X173972142Y-104405238D01*
X174067380Y-104310000D01*
X174162619Y-104262380D01*
X174876904Y-104262380D02*
X175210238Y-105262380D01*
X175543571Y-104262380D01*
%TO.C,NTC*%
X183999333Y-82578380D02*
X183999333Y-81578380D01*
X184570761Y-82578380D01*
X184570761Y-81578380D01*
X184904095Y-81578380D02*
X185475523Y-81578380D01*
X185189809Y-82578380D02*
X185189809Y-81578380D01*
X186380285Y-82483142D02*
X186332666Y-82530761D01*
X186189809Y-82578380D01*
X186094571Y-82578380D01*
X185951714Y-82530761D01*
X185856476Y-82435523D01*
X185808857Y-82340285D01*
X185761238Y-82149809D01*
X185761238Y-82006952D01*
X185808857Y-81816476D01*
X185856476Y-81721238D01*
X185951714Y-81626000D01*
X186094571Y-81578380D01*
X186189809Y-81578380D01*
X186332666Y-81626000D01*
X186380285Y-81673619D01*
%TD*%
M02*
