M48
; DRILL file {KiCad (5.1.10)-1} date 10/30/21 12:16:29
; FORMAT={-:-/ absolute / inch / decimal}
; #@! TF.CreationDate,2021-10-30T12:16:29-04:00
; #@! TF.GenerationSoftware,Kicad,Pcbnew,(5.1.10)-1
; #@! TF.FileFunction,Plated,1,2,PTH
FMAT,2
INCH
T1C0.0157
T2C0.0295
T3C0.0354
T4C0.0394
T5C0.0433
T6C0.0591
T7C0.0630
%
G90
G05
T1
X1.576Y-3.27
X1.598Y-3.156
X1.8918Y-2.7037
X1.8968Y-2.9683
X2.058Y-2.708
X2.1762Y-4.275
X2.1812Y-4.41
X2.75Y-4.294
X2.75Y-4.468
X2.806Y-3.412
X2.81Y-3.52
X2.916Y-2.876
X2.916Y-2.964
X3.0815Y-3.2925
X3.082Y-3.218
X3.4405Y-4.3455
X3.448Y-3.602
X3.88Y-2.896
X3.892Y-1.49
X3.96Y-1.494
X3.968Y-4.45
X3.998Y-4.756
X4.018Y-1.496
X4.072Y-1.496
X4.126Y-4.812
X4.238Y-4.754
X4.319Y-4.057
X4.35Y-4.812
X4.464Y-4.75
X4.574Y-4.812
X4.584Y-2.274
X4.688Y-4.752
X4.798Y-4.812
X4.884Y-4.466
X4.9Y-4.134
X4.916Y-1.742
X4.926Y-4.658
X4.9319Y-2.258
X4.9838Y-3.9842
X5.0101Y-4.8
X5.013Y-3.319
X5.0317Y-4.8523
X5.034Y-4.522
X5.056Y-4.334
X5.074Y-4.234
X5.084Y-4.284
X5.084Y-4.816
X5.09Y-4.654
X5.157Y-4.379
X5.1709Y-4.8365
X5.298Y-3.01
X5.3074Y-4.4574
X5.32Y-4.796
X5.384Y-4.808
X5.388Y-4.334
X5.388Y-4.376
X5.389Y-4.279
X5.393Y-4.229
X5.4524Y-3.9624
X5.498Y-1.902
X5.502Y-1.444
X5.5355Y-4.4045
X5.541Y-4.777
X5.552Y-2.552
X5.763Y-4.773
X5.994Y-4.776
X6.216Y-4.776
X6.334Y-4.224
X6.34Y-4.774
X6.39Y-4.74
X6.406Y-4.462
X6.411Y-3.965
X6.442Y-4.816
X6.446Y-4.874
X6.4831Y-4.2711
X6.4954Y-4.374
X6.529Y-4.311
X6.586Y-4.868
X6.724Y-4.124
X6.724Y-4.174
X6.73Y-4.074
X6.768Y-3.994
X6.808Y-4.868
X7.009Y-4.365
X7.034Y-4.868
X7.05Y-4.224
X7.15Y-4.64
X7.15Y-4.736
X7.186Y-2.224
X7.1882Y-4.074
X7.196Y-4.124
X7.196Y-4.174
X7.22Y-4.024
X7.238Y-1.9
X7.242Y-4.07
X7.255Y-4.861
X7.291Y-3.323
X7.352Y-4.64
X7.352Y-4.73
X7.414Y-4.826
X7.464Y-4.826
X7.588Y-2.28
X7.606Y-2.364
X7.662Y-3.67
X7.749Y-4.805
X7.757Y-1.411
X7.774Y-2.018
X7.798Y-1.956
X7.901Y-3.674
X7.932Y-4.958
X8.054Y-4.556
X8.108Y-4.558
X8.142Y-3.37
X8.162Y-2.322
X8.162Y-2.984
X8.162Y-3.92
X8.17Y-4.966
X8.218Y-3.922
X8.269Y-3.673
X8.272Y-1.564
X8.32Y-4.334
X8.414Y-4.986
X8.427Y-2.667
X8.428Y-3.672
X8.5288Y-4.8852
X8.652Y-5.0
X8.724Y-3.836
X8.734Y-2.794
X8.762Y-1.956
X8.762Y-2.036
X8.762Y-2.224
X8.788Y-1.894
X8.8465Y-4.1285
X8.878Y-2.138
X9.066Y-2.944
X9.254Y-1.522
X9.278Y-1.35
X9.348Y-2.944
X9.352Y-2.138
T2
X1.506Y-4.282
X1.556Y-4.282
X1.606Y-4.282
X8.88Y-1.4225
X8.88Y-2.2425
X8.88Y-3.8725
X8.89Y-3.0525
X8.93Y-1.4225
X8.93Y-2.2425
X8.93Y-3.8725
X8.94Y-3.0525
X8.98Y-1.4225
X8.98Y-2.2425
X8.98Y-3.8725
X8.99Y-3.0525
T3
X1.556Y-3.93
X1.556Y-4.03
X3.59Y-2.6519
X3.59Y-2.7425
X3.59Y-2.8331
X3.59Y-2.9236
X3.59Y-3.0142
X3.59Y-3.1047
X4.651Y-1.294
X4.651Y-1.394
X4.651Y-1.494
X4.651Y-1.624
X4.651Y-1.724
X4.651Y-1.824
X4.651Y-1.944
X4.651Y-2.044
X4.651Y-2.144
X4.651Y-2.274
X4.651Y-2.374
X4.651Y-2.474
X4.651Y-2.604
X4.651Y-2.704
X4.651Y-2.804
X4.651Y-2.924
X4.651Y-3.024
X4.651Y-3.124
X4.651Y-3.254
X4.651Y-3.354
X4.651Y-3.454
X4.651Y-3.574
X4.651Y-3.674
X4.651Y-3.774
X5.221Y-1.294
X5.221Y-1.394
X5.221Y-1.494
X5.221Y-1.624
X5.221Y-1.724
X5.221Y-1.824
X5.221Y-1.944
X5.221Y-2.044
X5.221Y-2.144
X5.221Y-2.274
X5.221Y-2.374
X5.221Y-2.474
X5.221Y-2.604
X5.221Y-2.704
X5.221Y-2.804
X5.221Y-2.924
X5.221Y-3.024
X5.221Y-3.124
X5.221Y-3.254
X5.221Y-3.354
X5.221Y-3.454
X5.221Y-3.574
X5.221Y-3.674
X5.221Y-3.774
X5.791Y-1.294
X5.791Y-1.394
X5.791Y-1.494
X5.791Y-1.624
X5.791Y-1.724
X5.791Y-1.824
X5.791Y-1.944
X5.791Y-2.044
X5.791Y-2.144
X5.791Y-2.274
X5.791Y-2.374
X5.791Y-2.474
X5.791Y-2.604
X5.791Y-2.704
X5.791Y-2.804
X5.791Y-2.924
X5.791Y-3.024
X5.791Y-3.124
X5.791Y-3.254
X5.791Y-3.354
X5.791Y-3.454
X5.791Y-3.574
X5.791Y-3.674
X5.791Y-3.774
X6.361Y-1.294
X6.361Y-1.394
X6.361Y-1.494
X6.361Y-1.624
X6.361Y-1.724
X6.361Y-1.824
X6.361Y-1.944
X6.361Y-2.044
X6.361Y-2.144
X6.361Y-2.274
X6.361Y-2.374
X6.361Y-2.474
X6.361Y-2.604
X6.361Y-2.704
X6.361Y-2.804
X6.361Y-2.924
X6.361Y-3.024
X6.361Y-3.124
X6.361Y-3.254
X6.361Y-3.354
X6.361Y-3.454
X6.361Y-3.574
X6.361Y-3.674
X6.361Y-3.774
X6.931Y-1.294
X6.931Y-1.394
X6.931Y-1.494
X6.931Y-1.624
X6.931Y-1.724
X6.931Y-1.824
X6.931Y-1.944
X6.931Y-2.044
X6.931Y-2.144
X6.931Y-2.274
X6.931Y-2.374
X6.931Y-2.474
X6.931Y-2.604
X6.931Y-2.704
X6.931Y-2.804
X6.931Y-2.924
X6.931Y-3.024
X6.931Y-3.124
X6.931Y-3.254
X6.931Y-3.354
X6.931Y-3.454
X6.931Y-3.574
X6.931Y-3.674
X6.931Y-3.774
X7.501Y-1.294
X7.501Y-1.394
X7.501Y-1.494
X7.501Y-1.624
X7.501Y-1.724
X7.501Y-1.824
X7.501Y-1.944
X7.501Y-2.044
X7.501Y-2.144
X7.501Y-2.274
X7.501Y-2.374
X7.501Y-2.474
X7.501Y-2.604
X7.501Y-2.704
X7.501Y-2.804
X7.501Y-2.924
X7.501Y-3.024
X7.501Y-3.124
X7.501Y-3.254
X7.501Y-3.354
X7.501Y-3.454
X7.501Y-3.574
X7.501Y-3.674
X7.501Y-3.774
X8.071Y-1.294
X8.071Y-1.394
X8.071Y-1.494
X8.071Y-1.624
X8.071Y-1.724
X8.071Y-1.824
X8.071Y-1.944
X8.071Y-2.044
X8.071Y-2.144
X8.071Y-2.274
X8.071Y-2.374
X8.071Y-2.474
X8.071Y-2.604
X8.071Y-2.704
X8.071Y-2.804
X8.071Y-2.924
X8.071Y-3.024
X8.071Y-3.124
X8.071Y-3.254
X8.071Y-3.354
X8.071Y-3.454
X8.071Y-3.574
X8.071Y-3.674
X8.071Y-3.774
X8.641Y-1.294
X8.641Y-1.394
X8.641Y-1.494
X8.641Y-1.624
X8.641Y-1.724
X8.641Y-1.824
X8.641Y-1.944
X8.641Y-2.044
X8.641Y-2.144
X8.641Y-2.274
X8.641Y-2.374
X8.641Y-2.474
X8.641Y-2.604
X8.641Y-2.704
X8.641Y-2.804
X8.641Y-2.924
X8.641Y-3.024
X8.641Y-3.124
X8.641Y-3.254
X8.641Y-3.354
X8.641Y-3.454
X8.641Y-3.574
X8.641Y-3.674
X8.641Y-3.774
X8.92Y-3.4225
X8.92Y-3.5225
X8.92Y-4.2525
X8.92Y-4.3525
X8.93Y-1.7825
X8.93Y-1.8825
X8.93Y-2.6025
X8.93Y-2.7025
T4
X1.7011Y-2.7371
X1.7011Y-2.934
X1.9711Y-4.244
X1.9711Y-4.4409
X1.9751Y-3.498
X1.9751Y-3.6949
X2.272Y-2.7371
X2.272Y-2.8356
X2.272Y-2.934
X2.542Y-4.244
X2.542Y-4.3424
X2.542Y-4.4409
X2.546Y-3.498
X2.546Y-3.5965
X2.546Y-3.6949
X3.0131Y-4.248
X3.0131Y-4.4449
X3.016Y-3.502
X3.016Y-3.6989
X3.584Y-4.248
X3.584Y-4.3464
X3.584Y-4.4449
X3.5869Y-3.502
X3.5869Y-3.6004
X3.5869Y-3.6989
X3.798Y-1.186
X3.798Y-1.286
X3.798Y-1.386
X3.798Y-1.486
X3.798Y-1.586
X3.798Y-1.686
X3.798Y-1.786
X3.798Y-1.886
X3.798Y-1.986
X3.798Y-2.086
X3.798Y-2.186
X3.798Y-2.286
X3.798Y-2.386
X3.798Y-2.486
X3.798Y-2.586
X3.798Y-2.686
X3.798Y-2.786
X3.798Y-2.886
X3.798Y-2.986
X3.798Y-3.086
X3.798Y-3.186
X3.798Y-3.286
X3.798Y-3.386
X3.798Y-3.486
X3.798Y-3.586
X3.798Y-3.686
X3.798Y-3.786
X3.798Y-3.886
X3.798Y-3.986
X3.798Y-4.086
X3.798Y-4.186
X3.798Y-4.286
X4.088Y-3.172
X4.088Y-3.2704
X4.088Y-3.5076
X4.088Y-3.606
X4.088Y-3.8436
X4.088Y-3.942
X4.088Y-4.188
X4.088Y-4.2864
T5
X1.6741Y-4.776
X1.6741Y-4.9532
X1.93Y-4.776
X1.93Y-4.9532
X2.2341Y-4.776
X2.2341Y-4.9532
X2.4601Y-2.618
X2.4601Y-2.7952
X2.4601Y-2.942
X2.4601Y-3.1192
X2.49Y-4.776
X2.49Y-4.9532
X2.716Y-2.618
X2.716Y-2.7952
X2.716Y-2.942
X2.716Y-3.1192
X2.7841Y-4.776
X2.7841Y-4.9532
X3.04Y-4.776
X3.04Y-4.9532
X3.094Y-2.6168
X3.094Y-2.794
X3.094Y-2.9408
X3.094Y-3.118
X3.3321Y-4.7748
X3.3321Y-4.952
X3.3499Y-2.6168
X3.3499Y-2.794
X3.3499Y-2.9408
X3.3499Y-3.118
X3.588Y-4.7748
X3.588Y-4.952
X4.2352Y-2.934
X4.2352Y-3.1112
X4.24Y-2.284
X4.24Y-2.4612
X4.2411Y-1.304
X4.2411Y-1.4812
X4.2411Y-1.634
X4.2411Y-1.8112
X4.2411Y-1.954
X4.2411Y-2.1312
X4.2411Y-2.614
X4.2411Y-2.7912
X4.2411Y-3.264
X4.2411Y-3.4412
X4.2411Y-3.584
X4.2411Y-3.7612
X4.4911Y-2.934
X4.4911Y-3.1112
X4.4959Y-2.284
X4.4959Y-2.4612
X4.497Y-1.304
X4.497Y-1.4812
X4.497Y-1.634
X4.497Y-1.8112
X4.497Y-1.954
X4.497Y-2.1312
X4.497Y-2.614
X4.497Y-2.7912
X4.497Y-3.264
X4.497Y-3.4412
X4.497Y-3.584
X4.497Y-3.7612
X4.8052Y-1.304
X4.8052Y-1.4812
X4.8052Y-1.634
X4.8052Y-1.8112
X4.8052Y-1.954
X4.8052Y-2.1312
X4.8052Y-2.284
X4.8052Y-2.4612
X4.8052Y-2.614
X4.8052Y-2.7912
X4.8052Y-2.934
X4.8052Y-3.1112
X4.8052Y-3.264
X4.8052Y-3.4412
X4.8052Y-3.584
X4.8052Y-3.7612
X5.0611Y-1.304
X5.0611Y-1.4812
X5.0611Y-1.634
X5.0611Y-1.8112
X5.0611Y-1.954
X5.0611Y-2.1312
X5.0611Y-2.284
X5.0611Y-2.4612
X5.0611Y-2.614
X5.0611Y-2.7912
X5.0611Y-2.934
X5.0611Y-3.1112
X5.0611Y-3.264
X5.0611Y-3.4412
X5.0611Y-3.584
X5.0611Y-3.7612
X5.3811Y-1.304
X5.3811Y-1.4812
X5.3811Y-1.634
X5.3811Y-1.8112
X5.3811Y-1.954
X5.3811Y-2.1312
X5.3811Y-2.284
X5.3811Y-2.4612
X5.3811Y-2.614
X5.3811Y-2.7912
X5.3811Y-2.934
X5.3811Y-3.1112
X5.3811Y-3.264
X5.3811Y-3.4412
X5.3811Y-3.584
X5.3811Y-3.7612
X5.637Y-1.304
X5.637Y-1.4812
X5.637Y-1.634
X5.637Y-1.8112
X5.637Y-1.954
X5.637Y-2.1312
X5.637Y-2.284
X5.637Y-2.4612
X5.637Y-2.614
X5.637Y-2.7912
X5.637Y-2.934
X5.637Y-3.1112
X5.637Y-3.264
X5.637Y-3.4412
X5.637Y-3.584
X5.637Y-3.7612
X5.9511Y-1.304
X5.9511Y-1.4812
X5.9511Y-1.634
X5.9511Y-1.8112
X5.9511Y-1.954
X5.9511Y-2.1312
X5.9511Y-2.284
X5.9511Y-2.4612
X5.9511Y-2.614
X5.9511Y-2.7912
X5.9511Y-2.934
X5.9511Y-3.1112
X5.9511Y-3.264
X5.9511Y-3.4412
X5.9511Y-3.584
X5.9511Y-3.7612
X6.207Y-1.304
X6.207Y-1.4812
X6.207Y-1.634
X6.207Y-1.8112
X6.207Y-1.954
X6.207Y-2.1312
X6.207Y-2.284
X6.207Y-2.4612
X6.207Y-2.614
X6.207Y-2.7912
X6.207Y-2.934
X6.207Y-3.1112
X6.207Y-3.264
X6.207Y-3.4412
X6.207Y-3.584
X6.207Y-3.7612
X6.5201Y-1.6348
X6.5201Y-1.812
X6.5201Y-1.954
X6.5201Y-2.1312
X6.5211Y-1.304
X6.5211Y-1.4812
X6.5211Y-2.2868
X6.5211Y-2.464
X6.5211Y-2.614
X6.5211Y-2.7912
X6.5211Y-2.934
X6.5211Y-3.1112
X6.5211Y-3.264
X6.5211Y-3.4412
X6.5211Y-3.584
X6.5211Y-3.7612
X6.776Y-1.6348
X6.776Y-1.812
X6.776Y-1.954
X6.776Y-2.1312
X6.777Y-1.304
X6.777Y-1.4812
X6.777Y-2.2868
X6.777Y-2.464
X6.777Y-2.614
X6.777Y-2.7912
X6.777Y-2.934
X6.777Y-3.1112
X6.777Y-3.264
X6.777Y-3.4412
X6.777Y-3.584
X6.777Y-3.7612
X7.09Y-3.584
X7.09Y-3.7612
X7.0911Y-1.304
X7.0911Y-1.4812
X7.0911Y-1.634
X7.0911Y-1.8112
X7.0911Y-1.954
X7.0911Y-2.1312
X7.0911Y-2.284
X7.0911Y-2.4612
X7.0911Y-2.614
X7.0911Y-2.7912
X7.0911Y-2.934
X7.0911Y-3.1112
X7.0911Y-3.264
X7.0911Y-3.4412
X7.3459Y-3.584
X7.3459Y-3.7612
X7.347Y-1.304
X7.347Y-1.4812
X7.347Y-1.634
X7.347Y-1.8112
X7.347Y-1.954
X7.347Y-2.1312
X7.347Y-2.284
X7.347Y-2.4612
X7.347Y-2.614
X7.347Y-2.7912
X7.347Y-2.934
X7.347Y-3.1112
X7.347Y-3.264
X7.347Y-3.4412
X7.6611Y-1.304
X7.6611Y-1.4812
X7.6611Y-1.634
X7.6611Y-1.8112
X7.6611Y-1.954
X7.6611Y-2.1312
X7.6611Y-2.284
X7.6611Y-2.4612
X7.6611Y-2.614
X7.6611Y-2.7912
X7.6611Y-2.934
X7.6611Y-3.1112
X7.6611Y-3.264
X7.6611Y-3.4412
X7.6611Y-3.584
X7.6611Y-3.7612
X7.917Y-1.304
X7.917Y-1.4812
X7.917Y-1.634
X7.917Y-1.8112
X7.917Y-1.954
X7.917Y-2.1312
X7.917Y-2.284
X7.917Y-2.4612
X7.917Y-2.614
X7.917Y-2.7912
X7.917Y-2.934
X7.917Y-3.1112
X7.917Y-3.264
X7.917Y-3.4412
X7.917Y-3.584
X7.917Y-3.7612
X8.23Y-1.954
X8.23Y-2.1312
X8.2301Y-1.634
X8.2301Y-1.8112
X8.2301Y-3.584
X8.2301Y-3.7612
X8.2311Y-1.304
X8.2311Y-1.4812
X8.2311Y-2.284
X8.2311Y-2.4612
X8.2311Y-2.614
X8.2311Y-2.7912
X8.2311Y-2.934
X8.2311Y-3.1112
X8.2311Y-3.264
X8.2311Y-3.4412
X8.4859Y-1.954
X8.4859Y-2.1312
X8.486Y-1.634
X8.486Y-1.8112
X8.486Y-3.584
X8.486Y-3.7612
X8.487Y-1.304
X8.487Y-1.4812
X8.487Y-2.284
X8.487Y-2.4612
X8.487Y-2.614
X8.487Y-2.7912
X8.487Y-2.934
X8.487Y-3.1112
X8.487Y-3.264
X8.487Y-3.4412
T7
X1.3872Y-3.602
X1.71Y-3.602
X1.8281Y-3.602
X9.0079Y-1.622
X9.0079Y-2.034
X9.0079Y-2.852
X9.0079Y-3.262
X9.0079Y-3.67
X9.0079Y-4.082
X9.0079Y-4.494
X9.0091Y-2.442
X9.126Y-1.622
X9.126Y-2.034
X9.126Y-2.852
X9.126Y-3.262
X9.126Y-3.67
X9.126Y-4.082
X9.126Y-4.494
X9.1272Y-2.442
X9.4488Y-1.622
X9.4488Y-2.034
X9.4488Y-2.852
X9.4488Y-3.262
X9.4488Y-3.67
X9.4488Y-4.082
X9.4488Y-4.494
X9.45Y-2.442
T6
G00X2.0023Y-2.6151
M15
G01X1.9511Y-2.6151
M16
G05
G00X2.0023Y-3.056
M15
G01X1.9511Y-3.056
M16
G05
G00X2.2723Y-4.122
M15
G01X2.2211Y-4.122
M16
G05
G00X2.2723Y-4.5629
M15
G01X2.2211Y-4.5629
M16
G05
G00X2.2763Y-3.376
M15
G01X2.2251Y-3.376
M16
G05
G00X2.2763Y-3.8169
M15
G01X2.2251Y-3.8169
M16
G05
G00X3.3143Y-4.126
M15
G01X3.2631Y-4.126
M16
G05
G00X3.3143Y-4.5669
M15
G01X3.2631Y-4.5669
M16
G05
G00X3.3172Y-3.38
M15
G01X3.266Y-3.38
M16
G05
G00X3.3172Y-3.8209
M15
G01X3.266Y-3.8209
M16
G05
T0
M30
