%TF.GenerationSoftware,KiCad,Pcbnew,(5.1.10)-1*%
%TF.CreationDate,2021-10-30T12:16:07-04:00*%
%TF.ProjectId,Control Board,436f6e74-726f-46c2-9042-6f6172642e6b,rev?*%
%TF.SameCoordinates,Original*%
%TF.FileFunction,Legend,Top*%
%TF.FilePolarity,Positive*%
%FSLAX46Y46*%
G04 Gerber Fmt 4.6, Leading zero omitted, Abs format (unit mm)*
G04 Created by KiCad (PCBNEW (5.1.10)-1) date 2021-10-30 12:16:07*
%MOMM*%
%LPD*%
G01*
G04 APERTURE LIST*
%ADD10C,0.120000*%
%ADD11C,0.100000*%
%ADD12C,0.150000*%
%ADD13C,0.254000*%
G04 APERTURE END LIST*
D10*
%TO.C,R94*%
X234958936Y-109685500D02*
X236413064Y-109685500D01*
X234958936Y-107865500D02*
X236413064Y-107865500D01*
%TO.C,R34*%
X36986800Y-113446536D02*
X36986800Y-114900664D01*
X38806800Y-113446536D02*
X38806800Y-114900664D01*
%TO.C,R50*%
X122622264Y-123134800D02*
X121168136Y-123134800D01*
X122622264Y-121314800D02*
X121168136Y-121314800D01*
%TO.C,R47*%
X105501464Y-121314800D02*
X104047336Y-121314800D01*
X105501464Y-123134800D02*
X104047336Y-123134800D01*
%TO.C,R48*%
X111243064Y-121314800D02*
X109788936Y-121314800D01*
X111243064Y-123134800D02*
X109788936Y-123134800D01*
%TO.C,R49*%
X116983464Y-121314800D02*
X115529336Y-121314800D01*
X116983464Y-123134800D02*
X115529336Y-123134800D01*
%TO.C,R63*%
X104124136Y-125827200D02*
X105578264Y-125827200D01*
X104124136Y-124007200D02*
X105578264Y-124007200D01*
%TO.C,R64*%
X109838536Y-124058000D02*
X111292664Y-124058000D01*
X109838536Y-125878000D02*
X111292664Y-125878000D01*
%TO.C,R65*%
X115578936Y-125878000D02*
X117033064Y-125878000D01*
X115578936Y-124058000D02*
X117033064Y-124058000D01*
%TO.C,R66*%
X121166936Y-124007200D02*
X122621064Y-124007200D01*
X121166936Y-125827200D02*
X122621064Y-125827200D01*
%TO.C,C1*%
X49353800Y-74706152D02*
X49353800Y-74183648D01*
X50823800Y-74706152D02*
X50823800Y-74183648D01*
%TO.C,C2*%
X49353800Y-69357648D02*
X49353800Y-69880152D01*
X50823800Y-69357648D02*
X50823800Y-69880152D01*
%TO.C,C3*%
X56440400Y-94111752D02*
X56440400Y-93589248D01*
X57910400Y-94111752D02*
X57910400Y-93589248D01*
%TO.C,C4*%
X56440400Y-88514248D02*
X56440400Y-89036752D01*
X57910400Y-88514248D02*
X57910400Y-89036752D01*
%TO.C,C5*%
X82907200Y-94149852D02*
X82907200Y-93627348D01*
X84377200Y-94149852D02*
X84377200Y-93627348D01*
%TO.C,C6*%
X82907200Y-88674348D02*
X82907200Y-89196852D01*
X84377200Y-88674348D02*
X84377200Y-89196852D01*
%TO.C,C7*%
X56313400Y-112971252D02*
X56313400Y-112448748D01*
X57783400Y-112971252D02*
X57783400Y-112448748D01*
%TO.C,C8*%
X56313400Y-107500748D02*
X56313400Y-108023252D01*
X57783400Y-107500748D02*
X57783400Y-108023252D01*
%TO.C,C9*%
X82843700Y-113151552D02*
X82843700Y-112629048D01*
X84313700Y-113151552D02*
X84313700Y-112629048D01*
%TO.C,C10*%
X82843700Y-107615048D02*
X82843700Y-108137552D01*
X84313700Y-107615048D02*
X84313700Y-108137552D01*
%TO.C,J1*%
X106585200Y-77718800D02*
X105335200Y-77718800D01*
X106585200Y-78968800D02*
X106585200Y-77718800D01*
X101085200Y-84868800D02*
X101085200Y-81818800D01*
X104035200Y-84868800D02*
X101085200Y-84868800D01*
X104035200Y-85618800D02*
X104035200Y-84868800D01*
X101085200Y-81818800D02*
X101085200Y-79828800D01*
X104035200Y-78768800D02*
X102695200Y-78768800D01*
X104035200Y-78018800D02*
X104035200Y-78768800D01*
X106285200Y-85618800D02*
X106285200Y-83818800D01*
X105535200Y-85618800D02*
X106285200Y-85618800D01*
X105535200Y-83818800D02*
X105535200Y-85618800D01*
X106285200Y-83818800D02*
X105535200Y-83818800D01*
X106285200Y-79818800D02*
X106285200Y-78018800D01*
X105535200Y-79818800D02*
X106285200Y-79818800D01*
X105535200Y-78018800D02*
X105535200Y-79818800D01*
X106285200Y-78018800D02*
X105535200Y-78018800D01*
X106285200Y-82318800D02*
X106285200Y-81318800D01*
X105535200Y-82318800D02*
X106285200Y-82318800D01*
X105535200Y-81318800D02*
X105535200Y-82318800D01*
X106285200Y-81318800D02*
X105535200Y-81318800D01*
X106295200Y-85628800D02*
X106295200Y-78008800D01*
X100325200Y-85628800D02*
X106295200Y-85628800D01*
X100325200Y-78008800D02*
X100325200Y-85628800D01*
X106295200Y-78008800D02*
X100325200Y-78008800D01*
%TO.C,J2*%
X106295200Y-86532400D02*
X100325200Y-86532400D01*
X100325200Y-86532400D02*
X100325200Y-94152400D01*
X100325200Y-94152400D02*
X106295200Y-94152400D01*
X106295200Y-94152400D02*
X106295200Y-86532400D01*
X106285200Y-89842400D02*
X105535200Y-89842400D01*
X105535200Y-89842400D02*
X105535200Y-90842400D01*
X105535200Y-90842400D02*
X106285200Y-90842400D01*
X106285200Y-90842400D02*
X106285200Y-89842400D01*
X106285200Y-86542400D02*
X105535200Y-86542400D01*
X105535200Y-86542400D02*
X105535200Y-88342400D01*
X105535200Y-88342400D02*
X106285200Y-88342400D01*
X106285200Y-88342400D02*
X106285200Y-86542400D01*
X106285200Y-92342400D02*
X105535200Y-92342400D01*
X105535200Y-92342400D02*
X105535200Y-94142400D01*
X105535200Y-94142400D02*
X106285200Y-94142400D01*
X106285200Y-94142400D02*
X106285200Y-92342400D01*
X104035200Y-86542400D02*
X104035200Y-87292400D01*
X104035200Y-87292400D02*
X102695200Y-87292400D01*
X101085200Y-90342400D02*
X101085200Y-88352400D01*
X104035200Y-94142400D02*
X104035200Y-93392400D01*
X104035200Y-93392400D02*
X101085200Y-93392400D01*
X101085200Y-93392400D02*
X101085200Y-90342400D01*
X106585200Y-87492400D02*
X106585200Y-86242400D01*
X106585200Y-86242400D02*
X105335200Y-86242400D01*
%TO.C,J3*%
X106585200Y-94776800D02*
X105335200Y-94776800D01*
X106585200Y-96026800D02*
X106585200Y-94776800D01*
X101085200Y-101926800D02*
X101085200Y-98876800D01*
X104035200Y-101926800D02*
X101085200Y-101926800D01*
X104035200Y-102676800D02*
X104035200Y-101926800D01*
X101085200Y-98876800D02*
X101085200Y-96886800D01*
X104035200Y-95826800D02*
X102695200Y-95826800D01*
X104035200Y-95076800D02*
X104035200Y-95826800D01*
X106285200Y-102676800D02*
X106285200Y-100876800D01*
X105535200Y-102676800D02*
X106285200Y-102676800D01*
X105535200Y-100876800D02*
X105535200Y-102676800D01*
X106285200Y-100876800D02*
X105535200Y-100876800D01*
X106285200Y-96876800D02*
X106285200Y-95076800D01*
X105535200Y-96876800D02*
X106285200Y-96876800D01*
X105535200Y-95076800D02*
X105535200Y-96876800D01*
X106285200Y-95076800D02*
X105535200Y-95076800D01*
X106285200Y-99376800D02*
X106285200Y-98376800D01*
X105535200Y-99376800D02*
X106285200Y-99376800D01*
X105535200Y-98376800D02*
X105535200Y-99376800D01*
X106285200Y-98376800D02*
X105535200Y-98376800D01*
X106295200Y-102686800D02*
X106295200Y-95066800D01*
X100325200Y-102686800D02*
X106295200Y-102686800D01*
X100325200Y-95066800D02*
X100325200Y-102686800D01*
X106295200Y-95066800D02*
X100325200Y-95066800D01*
%TO.C,J4*%
X106295200Y-103815200D02*
X100325200Y-103815200D01*
X100325200Y-103815200D02*
X100325200Y-111435200D01*
X100325200Y-111435200D02*
X106295200Y-111435200D01*
X106295200Y-111435200D02*
X106295200Y-103815200D01*
X106285200Y-107125200D02*
X105535200Y-107125200D01*
X105535200Y-107125200D02*
X105535200Y-108125200D01*
X105535200Y-108125200D02*
X106285200Y-108125200D01*
X106285200Y-108125200D02*
X106285200Y-107125200D01*
X106285200Y-103825200D02*
X105535200Y-103825200D01*
X105535200Y-103825200D02*
X105535200Y-105625200D01*
X105535200Y-105625200D02*
X106285200Y-105625200D01*
X106285200Y-105625200D02*
X106285200Y-103825200D01*
X106285200Y-109625200D02*
X105535200Y-109625200D01*
X105535200Y-109625200D02*
X105535200Y-111425200D01*
X105535200Y-111425200D02*
X106285200Y-111425200D01*
X106285200Y-111425200D02*
X106285200Y-109625200D01*
X104035200Y-103825200D02*
X104035200Y-104575200D01*
X104035200Y-104575200D02*
X102695200Y-104575200D01*
X101085200Y-107625200D02*
X101085200Y-105635200D01*
X104035200Y-111425200D02*
X104035200Y-110675200D01*
X104035200Y-110675200D02*
X101085200Y-110675200D01*
X101085200Y-110675200D02*
X101085200Y-107625200D01*
X106585200Y-104775200D02*
X106585200Y-103525200D01*
X106585200Y-103525200D02*
X105335200Y-103525200D01*
%TO.C,J5*%
X97799200Y-28794400D02*
X95139200Y-28794400D01*
X97799200Y-107594400D02*
X97799200Y-28794400D01*
X95139200Y-107594400D02*
X95139200Y-28794400D01*
X97799200Y-107594400D02*
X95139200Y-107594400D01*
X97799200Y-108864400D02*
X97799200Y-110194400D01*
X97799200Y-110194400D02*
X96469200Y-110194400D01*
%TO.C,R1*%
X190052336Y-102357600D02*
X191506464Y-102357600D01*
X190052336Y-100537600D02*
X191506464Y-100537600D01*
%TO.C,R2*%
X195920336Y-100537600D02*
X197374464Y-100537600D01*
X195920336Y-102357600D02*
X197374464Y-102357600D01*
%TO.C,R3*%
X190078336Y-104093600D02*
X191532464Y-104093600D01*
X190078336Y-105913600D02*
X191532464Y-105913600D01*
%TO.C,R4*%
X195920336Y-105913600D02*
X197374464Y-105913600D01*
X195920336Y-104093600D02*
X197374464Y-104093600D01*
%TO.C,R5*%
X190078336Y-107649600D02*
X191532464Y-107649600D01*
X190078336Y-109469600D02*
X191532464Y-109469600D01*
%TO.C,R6*%
X195920336Y-109469600D02*
X197374464Y-109469600D01*
X195920336Y-107649600D02*
X197374464Y-107649600D01*
%TO.C,R7*%
X190078336Y-111205600D02*
X191532464Y-111205600D01*
X190078336Y-113025600D02*
X191532464Y-113025600D01*
%TO.C,R8*%
X195920336Y-113025600D02*
X197374464Y-113025600D01*
X195920336Y-111205600D02*
X197374464Y-111205600D01*
%TO.C,R9*%
X147792464Y-113025600D02*
X146338336Y-113025600D01*
X147792464Y-111205600D02*
X146338336Y-111205600D01*
%TO.C,R10*%
X153380464Y-111205600D02*
X151926336Y-111205600D01*
X153380464Y-113025600D02*
X151926336Y-113025600D01*
%TO.C,R11*%
X147792464Y-109469600D02*
X146338336Y-109469600D01*
X147792464Y-107649600D02*
X146338336Y-107649600D01*
%TO.C,R12*%
X153380464Y-107649600D02*
X151926336Y-107649600D01*
X153380464Y-109469600D02*
X151926336Y-109469600D01*
%TO.C,R13*%
X147792464Y-105913600D02*
X146338336Y-105913600D01*
X147792464Y-104093600D02*
X146338336Y-104093600D01*
%TO.C,R14*%
X153380464Y-104093600D02*
X151926336Y-104093600D01*
X153380464Y-105913600D02*
X151926336Y-105913600D01*
%TO.C,R15*%
X147792464Y-102357600D02*
X146338336Y-102357600D01*
X147792464Y-100537600D02*
X146338336Y-100537600D01*
%TO.C,R16*%
X153380464Y-100537600D02*
X151926336Y-100537600D01*
X153380464Y-102357600D02*
X151926336Y-102357600D01*
%TO.C,R17*%
X116112336Y-100537600D02*
X117566464Y-100537600D01*
X116112336Y-102357600D02*
X117566464Y-102357600D01*
%TO.C,R18*%
X110524336Y-102357600D02*
X111978464Y-102357600D01*
X110524336Y-100537600D02*
X111978464Y-100537600D01*
%TO.C,R19*%
X116112336Y-104093600D02*
X117566464Y-104093600D01*
X116112336Y-105913600D02*
X117566464Y-105913600D01*
%TO.C,R20*%
X110524336Y-105913600D02*
X111978464Y-105913600D01*
X110524336Y-104093600D02*
X111978464Y-104093600D01*
%TO.C,R21*%
X116112336Y-107649600D02*
X117566464Y-107649600D01*
X116112336Y-109469600D02*
X117566464Y-109469600D01*
%TO.C,R22*%
X110524336Y-109469600D02*
X111978464Y-109469600D01*
X110524336Y-107649600D02*
X111978464Y-107649600D01*
%TO.C,R23*%
X116112336Y-111205600D02*
X117566464Y-111205600D01*
X116112336Y-113025600D02*
X117566464Y-113025600D01*
%TO.C,R24*%
X110524336Y-113025600D02*
X111978464Y-113025600D01*
X110524336Y-111205600D02*
X111978464Y-111205600D01*
%TO.C,R25*%
X217204336Y-102357600D02*
X218658464Y-102357600D01*
X217204336Y-100537600D02*
X218658464Y-100537600D01*
%TO.C,R26*%
X217204336Y-104093600D02*
X218658464Y-104093600D01*
X217204336Y-105913600D02*
X218658464Y-105913600D01*
%TO.C,R27*%
X217204336Y-109469600D02*
X218658464Y-109469600D01*
X217204336Y-107649600D02*
X218658464Y-107649600D01*
%TO.C,R28*%
X217204336Y-111205600D02*
X218658464Y-111205600D01*
X217204336Y-113025600D02*
X218658464Y-113025600D01*
%TO.C,R29*%
X205196464Y-113025600D02*
X203742336Y-113025600D01*
X205196464Y-111205600D02*
X203742336Y-111205600D01*
%TO.C,R30*%
X205248464Y-109469600D02*
X203794336Y-109469600D01*
X205248464Y-107649600D02*
X203794336Y-107649600D01*
%TO.C,R31*%
X205248464Y-104093600D02*
X203794336Y-104093600D01*
X205248464Y-105913600D02*
X203794336Y-105913600D01*
%TO.C,R32*%
X205196464Y-102357600D02*
X203742336Y-102357600D01*
X205196464Y-100537600D02*
X203742336Y-100537600D01*
%TO.C,R33*%
X40565400Y-113345736D02*
X40565400Y-113799864D01*
X42035400Y-113345736D02*
X42035400Y-113799864D01*
%TO.C,R35*%
X80678700Y-114405364D02*
X80678700Y-112951236D01*
X78858700Y-114405364D02*
X78858700Y-112951236D01*
%TO.C,R36*%
X88298700Y-114405364D02*
X88298700Y-112951236D01*
X86478700Y-114405364D02*
X86478700Y-112951236D01*
%TO.C,R37*%
X88298700Y-106422236D02*
X88298700Y-107876364D01*
X86478700Y-106422236D02*
X86478700Y-107876364D01*
%TO.C,R38*%
X80678700Y-106422236D02*
X80678700Y-107876364D01*
X78858700Y-106422236D02*
X78858700Y-107876364D01*
%TO.C,R39*%
X54148400Y-114291064D02*
X54148400Y-112836936D01*
X52328400Y-114291064D02*
X52328400Y-112836936D01*
%TO.C,R40*%
X59948400Y-114291064D02*
X59948400Y-112836936D01*
X61768400Y-114291064D02*
X61768400Y-112836936D01*
%TO.C,R41*%
X61768400Y-106307936D02*
X61768400Y-107762064D01*
X59948400Y-106307936D02*
X59948400Y-107762064D01*
%TO.C,R42*%
X54148400Y-106307936D02*
X54148400Y-107762064D01*
X52328400Y-106307936D02*
X52328400Y-107762064D01*
%TO.C,R43*%
X80742200Y-95469664D02*
X80742200Y-94015536D01*
X78922200Y-95469664D02*
X78922200Y-94015536D01*
%TO.C,R44*%
X86669200Y-95469664D02*
X86669200Y-94015536D01*
X88489200Y-95469664D02*
X88489200Y-94015536D01*
%TO.C,R45*%
X88362200Y-87486536D02*
X88362200Y-88940664D01*
X86542200Y-87486536D02*
X86542200Y-88940664D01*
%TO.C,R46*%
X80742200Y-87486536D02*
X80742200Y-88940664D01*
X78922200Y-87486536D02*
X78922200Y-88940664D01*
%TO.C,R51*%
X158638264Y-121822800D02*
X157184136Y-121822800D01*
X158638264Y-123642800D02*
X157184136Y-123642800D01*
%TO.C,R52*%
X152949864Y-123642800D02*
X151495736Y-123642800D01*
X152949864Y-121822800D02*
X151495736Y-121822800D01*
%TO.C,R53*%
X147208264Y-121822800D02*
X145754136Y-121822800D01*
X147208264Y-123642800D02*
X145754136Y-123642800D01*
%TO.C,R54*%
X141467864Y-123642800D02*
X140013736Y-123642800D01*
X141467864Y-121822800D02*
X140013736Y-121822800D01*
%TO.C,R55*%
X54148400Y-95304564D02*
X54148400Y-93850436D01*
X52328400Y-95304564D02*
X52328400Y-93850436D01*
%TO.C,R56*%
X60075400Y-95304564D02*
X60075400Y-93850436D01*
X61895400Y-95304564D02*
X61895400Y-93850436D01*
%TO.C,R57*%
X60075400Y-87321436D02*
X60075400Y-88775564D01*
X61895400Y-87321436D02*
X61895400Y-88775564D01*
%TO.C,R58*%
X54148400Y-87321436D02*
X54148400Y-88775564D01*
X52328400Y-87321436D02*
X52328400Y-88775564D01*
%TO.C,R59*%
X45368800Y-75771964D02*
X45368800Y-74317836D01*
X47188800Y-75771964D02*
X47188800Y-74317836D01*
%TO.C,R60*%
X54935800Y-75771964D02*
X54935800Y-74317836D01*
X53115800Y-75771964D02*
X53115800Y-74317836D01*
%TO.C,R61*%
X54935800Y-68221836D02*
X54935800Y-69675964D01*
X53115800Y-68221836D02*
X53115800Y-69675964D01*
%TO.C,R62*%
X45368800Y-68169836D02*
X45368800Y-69623964D01*
X47188800Y-68169836D02*
X47188800Y-69623964D01*
%TO.C,R67*%
X157184136Y-120696400D02*
X158638264Y-120696400D01*
X157184136Y-118876400D02*
X158638264Y-118876400D01*
%TO.C,R68*%
X151494536Y-118876400D02*
X152948664Y-118876400D01*
X151494536Y-120696400D02*
X152948664Y-120696400D01*
%TO.C,R69*%
X145703336Y-118876400D02*
X147157464Y-118876400D01*
X145703336Y-120696400D02*
X147157464Y-120696400D01*
%TO.C,R70*%
X140013736Y-120696400D02*
X141467864Y-120696400D01*
X140013736Y-118876400D02*
X141467864Y-118876400D01*
%TO.C,R71*%
X167934664Y-123134800D02*
X166480536Y-123134800D01*
X167934664Y-121314800D02*
X166480536Y-121314800D01*
%TO.C,R72*%
X173675064Y-121314800D02*
X172220936Y-121314800D01*
X173675064Y-123134800D02*
X172220936Y-123134800D01*
%TO.C,R73*%
X179365864Y-123134800D02*
X177911736Y-123134800D01*
X179365864Y-121314800D02*
X177911736Y-121314800D01*
%TO.C,R74*%
X185054264Y-121264000D02*
X183600136Y-121264000D01*
X185054264Y-123084000D02*
X183600136Y-123084000D01*
%TO.C,R75*%
X220463064Y-123896800D02*
X219008936Y-123896800D01*
X220463064Y-122076800D02*
X219008936Y-122076800D01*
%TO.C,R76*%
X214367064Y-121975200D02*
X212912936Y-121975200D01*
X214367064Y-123795200D02*
X212912936Y-123795200D01*
%TO.C,R77*%
X208245064Y-123795200D02*
X206790936Y-123795200D01*
X208245064Y-121975200D02*
X206790936Y-121975200D01*
%TO.C,R78*%
X202225864Y-121975200D02*
X200771736Y-121975200D01*
X202225864Y-123795200D02*
X200771736Y-123795200D01*
%TO.C,R79*%
X166480536Y-125878000D02*
X167934664Y-125878000D01*
X166480536Y-124058000D02*
X167934664Y-124058000D01*
%TO.C,R80*%
X172170136Y-124058000D02*
X173624264Y-124058000D01*
X172170136Y-125878000D02*
X173624264Y-125878000D01*
%TO.C,R81*%
X177910536Y-125827200D02*
X179364664Y-125827200D01*
X177910536Y-124007200D02*
X179364664Y-124007200D01*
%TO.C,R82*%
X183600136Y-124007200D02*
X185054264Y-124007200D01*
X183600136Y-125827200D02*
X185054264Y-125827200D01*
%TO.C,R83*%
X219007736Y-118927200D02*
X220461864Y-118927200D01*
X219007736Y-120747200D02*
X220461864Y-120747200D01*
%TO.C,R84*%
X212911736Y-120747200D02*
X214365864Y-120747200D01*
X212911736Y-118927200D02*
X214365864Y-118927200D01*
%TO.C,R85*%
X206764936Y-118927200D02*
X208219064Y-118927200D01*
X206764936Y-120747200D02*
X208219064Y-120747200D01*
%TO.C,R86*%
X200770536Y-120747200D02*
X202224664Y-120747200D01*
X200770536Y-118927200D02*
X202224664Y-118927200D01*
%TO.C,R87*%
X235500936Y-36866500D02*
X235955064Y-36866500D01*
X235500936Y-35396500D02*
X235955064Y-35396500D01*
%TO.C,R88*%
X235212936Y-47455500D02*
X236667064Y-47455500D01*
X235212936Y-45635500D02*
X236667064Y-45635500D01*
%TO.C,R89*%
X235754936Y-56224500D02*
X236209064Y-56224500D01*
X235754936Y-57694500D02*
X236209064Y-57694500D01*
%TO.C,R90*%
X235212936Y-66209500D02*
X236667064Y-66209500D01*
X235212936Y-68029500D02*
X236667064Y-68029500D01*
%TO.C,R91*%
X235754936Y-76798500D02*
X236209064Y-76798500D01*
X235754936Y-78268500D02*
X236209064Y-78268500D01*
%TO.C,R92*%
X235212936Y-88857500D02*
X236667064Y-88857500D01*
X235212936Y-87037500D02*
X236667064Y-87037500D01*
%TO.C,R93*%
X235500936Y-97626500D02*
X235955064Y-97626500D01*
X235500936Y-99096500D02*
X235955064Y-99096500D01*
D11*
%TO.C,S1*%
X88686000Y-83109500D02*
X88686000Y-63109500D01*
X93686000Y-83109500D02*
X88686000Y-83109500D01*
X93686000Y-63109500D02*
X93686000Y-83109500D01*
X88686000Y-63109500D02*
X93686000Y-63109500D01*
D10*
%TO.C,U1*%
X171256400Y-101594600D02*
X169306400Y-101594600D01*
X171256400Y-101594600D02*
X173206400Y-101594600D01*
X171256400Y-111714600D02*
X169306400Y-111714600D01*
X171256400Y-111714600D02*
X174706400Y-111714600D01*
%TO.C,U2*%
X135915400Y-101721600D02*
X132465400Y-101721600D01*
X135915400Y-101721600D02*
X137865400Y-101721600D01*
X135915400Y-111841600D02*
X133965400Y-111841600D01*
X135915400Y-111841600D02*
X137865400Y-111841600D01*
%TO.C,U3*%
X183378400Y-101594600D02*
X181428400Y-101594600D01*
X183378400Y-101594600D02*
X185328400Y-101594600D01*
X183378400Y-111714600D02*
X181428400Y-111714600D01*
X183378400Y-111714600D02*
X186828400Y-111714600D01*
%TO.C,U4*%
X160264400Y-111714600D02*
X162214400Y-111714600D01*
X160264400Y-111714600D02*
X158314400Y-111714600D01*
X160264400Y-101594600D02*
X162214400Y-101594600D01*
X160264400Y-101594600D02*
X156814400Y-101594600D01*
%TO.C,U5*%
X124012400Y-111968600D02*
X125962400Y-111968600D01*
X124012400Y-111968600D02*
X122062400Y-111968600D01*
X124012400Y-101848600D02*
X125962400Y-101848600D01*
X124012400Y-101848600D02*
X120562400Y-101848600D01*
%TO.C,U6*%
X211318400Y-111968600D02*
X214768400Y-111968600D01*
X211318400Y-111968600D02*
X209368400Y-111968600D01*
X211318400Y-101848600D02*
X213268400Y-101848600D01*
X211318400Y-101848600D02*
X209368400Y-101848600D01*
%TO.C,U8*%
X127248600Y-122342200D02*
X127248600Y-125792200D01*
X127248600Y-122342200D02*
X127248600Y-120392200D01*
X137368600Y-122342200D02*
X137368600Y-124292200D01*
X137368600Y-122342200D02*
X137368600Y-120392200D01*
%TO.C,U9*%
X197820600Y-122391400D02*
X197820600Y-120441400D01*
X197820600Y-122391400D02*
X197820600Y-124341400D01*
X187700600Y-122391400D02*
X187700600Y-120441400D01*
X187700600Y-122391400D02*
X187700600Y-125841400D01*
%TO.C,C11*%
X179738348Y-112142600D02*
X180260852Y-112142600D01*
X179738348Y-113612600D02*
X180260852Y-113612600D01*
%TO.C,C12*%
X126617400Y-123568052D02*
X126617400Y-123045548D01*
X125147400Y-123568052D02*
X125147400Y-123045548D01*
%TO.C,C13*%
X168444852Y-113815800D02*
X167922348Y-113815800D01*
X168444852Y-112345800D02*
X167922348Y-112345800D01*
%TO.C,C14*%
X189862052Y-116460600D02*
X189339548Y-116460600D01*
X189862052Y-117930600D02*
X189339548Y-117930600D01*
%TO.C,C15*%
X121724748Y-112701400D02*
X122247252Y-112701400D01*
X121724748Y-114171400D02*
X122247252Y-114171400D01*
%TO.C,C16*%
X138133148Y-113815800D02*
X138655652Y-113815800D01*
X138133148Y-112345800D02*
X138655652Y-112345800D01*
%TO.C,C17*%
X209811948Y-114120600D02*
X210334452Y-114120600D01*
X209811948Y-112650600D02*
X210334452Y-112650600D01*
%TO.C,C18*%
X160215252Y-114069800D02*
X159692748Y-114069800D01*
X160215252Y-112599800D02*
X159692748Y-112599800D01*
%TO.C,REF\u002A\u002A*%
D12*
X100723866Y-54621580D02*
X100390533Y-54145390D01*
X100152438Y-54621580D02*
X100152438Y-53621580D01*
X100533390Y-53621580D01*
X100628628Y-53669200D01*
X100676247Y-53716819D01*
X100723866Y-53812057D01*
X100723866Y-53954914D01*
X100676247Y-54050152D01*
X100628628Y-54097771D01*
X100533390Y-54145390D01*
X100152438Y-54145390D01*
X101152438Y-54097771D02*
X101485771Y-54097771D01*
X101628628Y-54621580D02*
X101152438Y-54621580D01*
X101152438Y-53621580D01*
X101628628Y-53621580D01*
X102390533Y-54097771D02*
X102057200Y-54097771D01*
X102057200Y-54621580D02*
X102057200Y-53621580D01*
X102533390Y-53621580D01*
X103057200Y-53621580D02*
X103057200Y-53859676D01*
X102819104Y-53764438D02*
X103057200Y-53859676D01*
X103295295Y-53764438D01*
X102914342Y-54050152D02*
X103057200Y-53859676D01*
X103200057Y-54050152D01*
X103819104Y-53621580D02*
X103819104Y-53859676D01*
X103581009Y-53764438D02*
X103819104Y-53859676D01*
X104057200Y-53764438D01*
X103676247Y-54050152D02*
X103819104Y-53859676D01*
X103961961Y-54050152D01*
%TO.C,R94*%
X235043142Y-107407880D02*
X234709809Y-106931690D01*
X234471714Y-107407880D02*
X234471714Y-106407880D01*
X234852666Y-106407880D01*
X234947904Y-106455500D01*
X234995523Y-106503119D01*
X235043142Y-106598357D01*
X235043142Y-106741214D01*
X234995523Y-106836452D01*
X234947904Y-106884071D01*
X234852666Y-106931690D01*
X234471714Y-106931690D01*
X235519333Y-107407880D02*
X235709809Y-107407880D01*
X235805047Y-107360261D01*
X235852666Y-107312642D01*
X235947904Y-107169785D01*
X235995523Y-106979309D01*
X235995523Y-106598357D01*
X235947904Y-106503119D01*
X235900285Y-106455500D01*
X235805047Y-106407880D01*
X235614571Y-106407880D01*
X235519333Y-106455500D01*
X235471714Y-106503119D01*
X235424095Y-106598357D01*
X235424095Y-106836452D01*
X235471714Y-106931690D01*
X235519333Y-106979309D01*
X235614571Y-107026928D01*
X235805047Y-107026928D01*
X235900285Y-106979309D01*
X235947904Y-106931690D01*
X235995523Y-106836452D01*
X236852666Y-106741214D02*
X236852666Y-107407880D01*
X236614571Y-106360261D02*
X236376476Y-107074547D01*
X236995523Y-107074547D01*
%TO.C,R34*%
X40169180Y-114816457D02*
X39692990Y-115149790D01*
X40169180Y-115387885D02*
X39169180Y-115387885D01*
X39169180Y-115006933D01*
X39216800Y-114911695D01*
X39264419Y-114864076D01*
X39359657Y-114816457D01*
X39502514Y-114816457D01*
X39597752Y-114864076D01*
X39645371Y-114911695D01*
X39692990Y-115006933D01*
X39692990Y-115387885D01*
X39169180Y-114483123D02*
X39169180Y-113864076D01*
X39550133Y-114197409D01*
X39550133Y-114054552D01*
X39597752Y-113959314D01*
X39645371Y-113911695D01*
X39740609Y-113864076D01*
X39978704Y-113864076D01*
X40073942Y-113911695D01*
X40121561Y-113959314D01*
X40169180Y-114054552D01*
X40169180Y-114340266D01*
X40121561Y-114435504D01*
X40073942Y-114483123D01*
X39502514Y-113006933D02*
X40169180Y-113006933D01*
X39121561Y-113245028D02*
X39835847Y-113483123D01*
X39835847Y-112864076D01*
%TO.C,R50*%
X121226342Y-120899180D02*
X120893009Y-120422990D01*
X120654914Y-120899180D02*
X120654914Y-119899180D01*
X121035866Y-119899180D01*
X121131104Y-119946800D01*
X121178723Y-119994419D01*
X121226342Y-120089657D01*
X121226342Y-120232514D01*
X121178723Y-120327752D01*
X121131104Y-120375371D01*
X121035866Y-120422990D01*
X120654914Y-120422990D01*
X122131104Y-119899180D02*
X121654914Y-119899180D01*
X121607295Y-120375371D01*
X121654914Y-120327752D01*
X121750152Y-120280133D01*
X121988247Y-120280133D01*
X122083485Y-120327752D01*
X122131104Y-120375371D01*
X122178723Y-120470609D01*
X122178723Y-120708704D01*
X122131104Y-120803942D01*
X122083485Y-120851561D01*
X121988247Y-120899180D01*
X121750152Y-120899180D01*
X121654914Y-120851561D01*
X121607295Y-120803942D01*
X122797771Y-119899180D02*
X122893009Y-119899180D01*
X122988247Y-119946800D01*
X123035866Y-119994419D01*
X123083485Y-120089657D01*
X123131104Y-120280133D01*
X123131104Y-120518228D01*
X123083485Y-120708704D01*
X123035866Y-120803942D01*
X122988247Y-120851561D01*
X122893009Y-120899180D01*
X122797771Y-120899180D01*
X122702533Y-120851561D01*
X122654914Y-120803942D01*
X122607295Y-120708704D01*
X122559676Y-120518228D01*
X122559676Y-120280133D01*
X122607295Y-120089657D01*
X122654914Y-119994419D01*
X122702533Y-119946800D01*
X122797771Y-119899180D01*
%TO.C,R47*%
X104259142Y-120899180D02*
X103925809Y-120422990D01*
X103687714Y-120899180D02*
X103687714Y-119899180D01*
X104068666Y-119899180D01*
X104163904Y-119946800D01*
X104211523Y-119994419D01*
X104259142Y-120089657D01*
X104259142Y-120232514D01*
X104211523Y-120327752D01*
X104163904Y-120375371D01*
X104068666Y-120422990D01*
X103687714Y-120422990D01*
X105116285Y-120232514D02*
X105116285Y-120899180D01*
X104878190Y-119851561D02*
X104640095Y-120565847D01*
X105259142Y-120565847D01*
X105544857Y-119899180D02*
X106211523Y-119899180D01*
X105782952Y-120899180D01*
%TO.C,R48*%
X109948742Y-120848380D02*
X109615409Y-120372190D01*
X109377314Y-120848380D02*
X109377314Y-119848380D01*
X109758266Y-119848380D01*
X109853504Y-119896000D01*
X109901123Y-119943619D01*
X109948742Y-120038857D01*
X109948742Y-120181714D01*
X109901123Y-120276952D01*
X109853504Y-120324571D01*
X109758266Y-120372190D01*
X109377314Y-120372190D01*
X110805885Y-120181714D02*
X110805885Y-120848380D01*
X110567790Y-119800761D02*
X110329695Y-120515047D01*
X110948742Y-120515047D01*
X111472552Y-120276952D02*
X111377314Y-120229333D01*
X111329695Y-120181714D01*
X111282076Y-120086476D01*
X111282076Y-120038857D01*
X111329695Y-119943619D01*
X111377314Y-119896000D01*
X111472552Y-119848380D01*
X111663028Y-119848380D01*
X111758266Y-119896000D01*
X111805885Y-119943619D01*
X111853504Y-120038857D01*
X111853504Y-120086476D01*
X111805885Y-120181714D01*
X111758266Y-120229333D01*
X111663028Y-120276952D01*
X111472552Y-120276952D01*
X111377314Y-120324571D01*
X111329695Y-120372190D01*
X111282076Y-120467428D01*
X111282076Y-120657904D01*
X111329695Y-120753142D01*
X111377314Y-120800761D01*
X111472552Y-120848380D01*
X111663028Y-120848380D01*
X111758266Y-120800761D01*
X111805885Y-120753142D01*
X111853504Y-120657904D01*
X111853504Y-120467428D01*
X111805885Y-120372190D01*
X111758266Y-120324571D01*
X111663028Y-120276952D01*
%TO.C,R49*%
X115613542Y-120899180D02*
X115280209Y-120422990D01*
X115042114Y-120899180D02*
X115042114Y-119899180D01*
X115423066Y-119899180D01*
X115518304Y-119946800D01*
X115565923Y-119994419D01*
X115613542Y-120089657D01*
X115613542Y-120232514D01*
X115565923Y-120327752D01*
X115518304Y-120375371D01*
X115423066Y-120422990D01*
X115042114Y-120422990D01*
X116470685Y-120232514D02*
X116470685Y-120899180D01*
X116232590Y-119851561D02*
X115994495Y-120565847D01*
X116613542Y-120565847D01*
X117042114Y-120899180D02*
X117232590Y-120899180D01*
X117327828Y-120851561D01*
X117375447Y-120803942D01*
X117470685Y-120661085D01*
X117518304Y-120470609D01*
X117518304Y-120089657D01*
X117470685Y-119994419D01*
X117423066Y-119946800D01*
X117327828Y-119899180D01*
X117137352Y-119899180D01*
X117042114Y-119946800D01*
X116994495Y-119994419D01*
X116946876Y-120089657D01*
X116946876Y-120327752D01*
X116994495Y-120422990D01*
X117042114Y-120470609D01*
X117137352Y-120518228D01*
X117327828Y-120518228D01*
X117423066Y-120470609D01*
X117470685Y-120422990D01*
X117518304Y-120327752D01*
%TO.C,R63*%
X104259142Y-127198380D02*
X103925809Y-126722190D01*
X103687714Y-127198380D02*
X103687714Y-126198380D01*
X104068666Y-126198380D01*
X104163904Y-126246000D01*
X104211523Y-126293619D01*
X104259142Y-126388857D01*
X104259142Y-126531714D01*
X104211523Y-126626952D01*
X104163904Y-126674571D01*
X104068666Y-126722190D01*
X103687714Y-126722190D01*
X105116285Y-126198380D02*
X104925809Y-126198380D01*
X104830571Y-126246000D01*
X104782952Y-126293619D01*
X104687714Y-126436476D01*
X104640095Y-126626952D01*
X104640095Y-127007904D01*
X104687714Y-127103142D01*
X104735333Y-127150761D01*
X104830571Y-127198380D01*
X105021047Y-127198380D01*
X105116285Y-127150761D01*
X105163904Y-127103142D01*
X105211523Y-127007904D01*
X105211523Y-126769809D01*
X105163904Y-126674571D01*
X105116285Y-126626952D01*
X105021047Y-126579333D01*
X104830571Y-126579333D01*
X104735333Y-126626952D01*
X104687714Y-126674571D01*
X104640095Y-126769809D01*
X105544857Y-126198380D02*
X106163904Y-126198380D01*
X105830571Y-126579333D01*
X105973428Y-126579333D01*
X106068666Y-126626952D01*
X106116285Y-126674571D01*
X106163904Y-126769809D01*
X106163904Y-127007904D01*
X106116285Y-127103142D01*
X106068666Y-127150761D01*
X105973428Y-127198380D01*
X105687714Y-127198380D01*
X105592476Y-127150761D01*
X105544857Y-127103142D01*
%TO.C,R64*%
X109847142Y-127299980D02*
X109513809Y-126823790D01*
X109275714Y-127299980D02*
X109275714Y-126299980D01*
X109656666Y-126299980D01*
X109751904Y-126347600D01*
X109799523Y-126395219D01*
X109847142Y-126490457D01*
X109847142Y-126633314D01*
X109799523Y-126728552D01*
X109751904Y-126776171D01*
X109656666Y-126823790D01*
X109275714Y-126823790D01*
X110704285Y-126299980D02*
X110513809Y-126299980D01*
X110418571Y-126347600D01*
X110370952Y-126395219D01*
X110275714Y-126538076D01*
X110228095Y-126728552D01*
X110228095Y-127109504D01*
X110275714Y-127204742D01*
X110323333Y-127252361D01*
X110418571Y-127299980D01*
X110609047Y-127299980D01*
X110704285Y-127252361D01*
X110751904Y-127204742D01*
X110799523Y-127109504D01*
X110799523Y-126871409D01*
X110751904Y-126776171D01*
X110704285Y-126728552D01*
X110609047Y-126680933D01*
X110418571Y-126680933D01*
X110323333Y-126728552D01*
X110275714Y-126776171D01*
X110228095Y-126871409D01*
X111656666Y-126633314D02*
X111656666Y-127299980D01*
X111418571Y-126252361D02*
X111180476Y-126966647D01*
X111799523Y-126966647D01*
%TO.C,R65*%
X115536742Y-127299980D02*
X115203409Y-126823790D01*
X114965314Y-127299980D02*
X114965314Y-126299980D01*
X115346266Y-126299980D01*
X115441504Y-126347600D01*
X115489123Y-126395219D01*
X115536742Y-126490457D01*
X115536742Y-126633314D01*
X115489123Y-126728552D01*
X115441504Y-126776171D01*
X115346266Y-126823790D01*
X114965314Y-126823790D01*
X116393885Y-126299980D02*
X116203409Y-126299980D01*
X116108171Y-126347600D01*
X116060552Y-126395219D01*
X115965314Y-126538076D01*
X115917695Y-126728552D01*
X115917695Y-127109504D01*
X115965314Y-127204742D01*
X116012933Y-127252361D01*
X116108171Y-127299980D01*
X116298647Y-127299980D01*
X116393885Y-127252361D01*
X116441504Y-127204742D01*
X116489123Y-127109504D01*
X116489123Y-126871409D01*
X116441504Y-126776171D01*
X116393885Y-126728552D01*
X116298647Y-126680933D01*
X116108171Y-126680933D01*
X116012933Y-126728552D01*
X115965314Y-126776171D01*
X115917695Y-126871409D01*
X117393885Y-126299980D02*
X116917695Y-126299980D01*
X116870076Y-126776171D01*
X116917695Y-126728552D01*
X117012933Y-126680933D01*
X117251028Y-126680933D01*
X117346266Y-126728552D01*
X117393885Y-126776171D01*
X117441504Y-126871409D01*
X117441504Y-127109504D01*
X117393885Y-127204742D01*
X117346266Y-127252361D01*
X117251028Y-127299980D01*
X117012933Y-127299980D01*
X116917695Y-127252361D01*
X116870076Y-127204742D01*
%TO.C,R66*%
X121327942Y-127198380D02*
X120994609Y-126722190D01*
X120756514Y-127198380D02*
X120756514Y-126198380D01*
X121137466Y-126198380D01*
X121232704Y-126246000D01*
X121280323Y-126293619D01*
X121327942Y-126388857D01*
X121327942Y-126531714D01*
X121280323Y-126626952D01*
X121232704Y-126674571D01*
X121137466Y-126722190D01*
X120756514Y-126722190D01*
X122185085Y-126198380D02*
X121994609Y-126198380D01*
X121899371Y-126246000D01*
X121851752Y-126293619D01*
X121756514Y-126436476D01*
X121708895Y-126626952D01*
X121708895Y-127007904D01*
X121756514Y-127103142D01*
X121804133Y-127150761D01*
X121899371Y-127198380D01*
X122089847Y-127198380D01*
X122185085Y-127150761D01*
X122232704Y-127103142D01*
X122280323Y-127007904D01*
X122280323Y-126769809D01*
X122232704Y-126674571D01*
X122185085Y-126626952D01*
X122089847Y-126579333D01*
X121899371Y-126579333D01*
X121804133Y-126626952D01*
X121756514Y-126674571D01*
X121708895Y-126769809D01*
X123137466Y-126198380D02*
X122946990Y-126198380D01*
X122851752Y-126246000D01*
X122804133Y-126293619D01*
X122708895Y-126436476D01*
X122661276Y-126626952D01*
X122661276Y-127007904D01*
X122708895Y-127103142D01*
X122756514Y-127150761D01*
X122851752Y-127198380D01*
X123042228Y-127198380D01*
X123137466Y-127150761D01*
X123185085Y-127103142D01*
X123232704Y-127007904D01*
X123232704Y-126769809D01*
X123185085Y-126674571D01*
X123137466Y-126626952D01*
X123042228Y-126579333D01*
X122851752Y-126579333D01*
X122756514Y-126626952D01*
X122708895Y-126674571D01*
X122661276Y-126769809D01*
%TO.C,REF\u002A\u002A*%
X237934666Y-27875380D02*
X237601333Y-27399190D01*
X237363238Y-27875380D02*
X237363238Y-26875380D01*
X237744190Y-26875380D01*
X237839428Y-26923000D01*
X237887047Y-26970619D01*
X237934666Y-27065857D01*
X237934666Y-27208714D01*
X237887047Y-27303952D01*
X237839428Y-27351571D01*
X237744190Y-27399190D01*
X237363238Y-27399190D01*
X238363238Y-27351571D02*
X238696571Y-27351571D01*
X238839428Y-27875380D02*
X238363238Y-27875380D01*
X238363238Y-26875380D01*
X238839428Y-26875380D01*
X239601333Y-27351571D02*
X239268000Y-27351571D01*
X239268000Y-27875380D02*
X239268000Y-26875380D01*
X239744190Y-26875380D01*
X240268000Y-26875380D02*
X240268000Y-27113476D01*
X240029904Y-27018238D02*
X240268000Y-27113476D01*
X240506095Y-27018238D01*
X240125142Y-27303952D02*
X240268000Y-27113476D01*
X240410857Y-27303952D01*
X241029904Y-26875380D02*
X241029904Y-27113476D01*
X240791809Y-27018238D02*
X241029904Y-27113476D01*
X241268000Y-27018238D01*
X240887047Y-27303952D02*
X241029904Y-27113476D01*
X241172761Y-27303952D01*
X35193466Y-60768380D02*
X34860133Y-60292190D01*
X34622038Y-60768380D02*
X34622038Y-59768380D01*
X35002990Y-59768380D01*
X35098228Y-59816000D01*
X35145847Y-59863619D01*
X35193466Y-59958857D01*
X35193466Y-60101714D01*
X35145847Y-60196952D01*
X35098228Y-60244571D01*
X35002990Y-60292190D01*
X34622038Y-60292190D01*
X35622038Y-60244571D02*
X35955371Y-60244571D01*
X36098228Y-60768380D02*
X35622038Y-60768380D01*
X35622038Y-59768380D01*
X36098228Y-59768380D01*
X36860133Y-60244571D02*
X36526800Y-60244571D01*
X36526800Y-60768380D02*
X36526800Y-59768380D01*
X37002990Y-59768380D01*
X37526800Y-59768380D02*
X37526800Y-60006476D01*
X37288704Y-59911238D02*
X37526800Y-60006476D01*
X37764895Y-59911238D01*
X37383942Y-60196952D02*
X37526800Y-60006476D01*
X37669657Y-60196952D01*
X38288704Y-59768380D02*
X38288704Y-60006476D01*
X38050609Y-59911238D02*
X38288704Y-60006476D01*
X38526800Y-59911238D01*
X38145847Y-60196952D02*
X38288704Y-60006476D01*
X38431561Y-60196952D01*
X35269666Y-120558380D02*
X34936333Y-120082190D01*
X34698238Y-120558380D02*
X34698238Y-119558380D01*
X35079190Y-119558380D01*
X35174428Y-119606000D01*
X35222047Y-119653619D01*
X35269666Y-119748857D01*
X35269666Y-119891714D01*
X35222047Y-119986952D01*
X35174428Y-120034571D01*
X35079190Y-120082190D01*
X34698238Y-120082190D01*
X35698238Y-120034571D02*
X36031571Y-120034571D01*
X36174428Y-120558380D02*
X35698238Y-120558380D01*
X35698238Y-119558380D01*
X36174428Y-119558380D01*
X36936333Y-120034571D02*
X36603000Y-120034571D01*
X36603000Y-120558380D02*
X36603000Y-119558380D01*
X37079190Y-119558380D01*
X37603000Y-119558380D02*
X37603000Y-119796476D01*
X37364904Y-119701238D02*
X37603000Y-119796476D01*
X37841095Y-119701238D01*
X37460142Y-119986952D02*
X37603000Y-119796476D01*
X37745857Y-119986952D01*
X38364904Y-119558380D02*
X38364904Y-119796476D01*
X38126809Y-119701238D02*
X38364904Y-119796476D01*
X38603000Y-119701238D01*
X38222047Y-119986952D02*
X38364904Y-119796476D01*
X38507761Y-119986952D01*
X237883866Y-120356780D02*
X237550533Y-119880590D01*
X237312438Y-120356780D02*
X237312438Y-119356780D01*
X237693390Y-119356780D01*
X237788628Y-119404400D01*
X237836247Y-119452019D01*
X237883866Y-119547257D01*
X237883866Y-119690114D01*
X237836247Y-119785352D01*
X237788628Y-119832971D01*
X237693390Y-119880590D01*
X237312438Y-119880590D01*
X238312438Y-119832971D02*
X238645771Y-119832971D01*
X238788628Y-120356780D02*
X238312438Y-120356780D01*
X238312438Y-119356780D01*
X238788628Y-119356780D01*
X239550533Y-119832971D02*
X239217200Y-119832971D01*
X239217200Y-120356780D02*
X239217200Y-119356780D01*
X239693390Y-119356780D01*
X240217200Y-119356780D02*
X240217200Y-119594876D01*
X239979104Y-119499638D02*
X240217200Y-119594876D01*
X240455295Y-119499638D01*
X240074342Y-119785352D02*
X240217200Y-119594876D01*
X240360057Y-119785352D01*
X240979104Y-119356780D02*
X240979104Y-119594876D01*
X240741009Y-119499638D02*
X240979104Y-119594876D01*
X241217200Y-119499638D01*
X240836247Y-119785352D02*
X240979104Y-119594876D01*
X241121961Y-119785352D01*
%TO.C,C1*%
X48765942Y-74611566D02*
X48813561Y-74659185D01*
X48861180Y-74802042D01*
X48861180Y-74897280D01*
X48813561Y-75040138D01*
X48718323Y-75135376D01*
X48623085Y-75182995D01*
X48432609Y-75230614D01*
X48289752Y-75230614D01*
X48099276Y-75182995D01*
X48004038Y-75135376D01*
X47908800Y-75040138D01*
X47861180Y-74897280D01*
X47861180Y-74802042D01*
X47908800Y-74659185D01*
X47956419Y-74611566D01*
X48861180Y-73659185D02*
X48861180Y-74230614D01*
X48861180Y-73944900D02*
X47861180Y-73944900D01*
X48004038Y-74040138D01*
X48099276Y-74135376D01*
X48146895Y-74230614D01*
%TO.C,C2*%
X52125942Y-69785566D02*
X52173561Y-69833185D01*
X52221180Y-69976042D01*
X52221180Y-70071280D01*
X52173561Y-70214138D01*
X52078323Y-70309376D01*
X51983085Y-70356995D01*
X51792609Y-70404614D01*
X51649752Y-70404614D01*
X51459276Y-70356995D01*
X51364038Y-70309376D01*
X51268800Y-70214138D01*
X51221180Y-70071280D01*
X51221180Y-69976042D01*
X51268800Y-69833185D01*
X51316419Y-69785566D01*
X51316419Y-69404614D02*
X51268800Y-69356995D01*
X51221180Y-69261757D01*
X51221180Y-69023661D01*
X51268800Y-68928423D01*
X51316419Y-68880804D01*
X51411657Y-68833185D01*
X51506895Y-68833185D01*
X51649752Y-68880804D01*
X52221180Y-69452233D01*
X52221180Y-68833185D01*
%TO.C,C3*%
X55852542Y-94017166D02*
X55900161Y-94064785D01*
X55947780Y-94207642D01*
X55947780Y-94302880D01*
X55900161Y-94445738D01*
X55804923Y-94540976D01*
X55709685Y-94588595D01*
X55519209Y-94636214D01*
X55376352Y-94636214D01*
X55185876Y-94588595D01*
X55090638Y-94540976D01*
X54995400Y-94445738D01*
X54947780Y-94302880D01*
X54947780Y-94207642D01*
X54995400Y-94064785D01*
X55043019Y-94017166D01*
X54947780Y-93683833D02*
X54947780Y-93064785D01*
X55328733Y-93398119D01*
X55328733Y-93255261D01*
X55376352Y-93160023D01*
X55423971Y-93112404D01*
X55519209Y-93064785D01*
X55757304Y-93064785D01*
X55852542Y-93112404D01*
X55900161Y-93160023D01*
X55947780Y-93255261D01*
X55947780Y-93540976D01*
X55900161Y-93636214D01*
X55852542Y-93683833D01*
%TO.C,C4*%
X59212542Y-88942166D02*
X59260161Y-88989785D01*
X59307780Y-89132642D01*
X59307780Y-89227880D01*
X59260161Y-89370738D01*
X59164923Y-89465976D01*
X59069685Y-89513595D01*
X58879209Y-89561214D01*
X58736352Y-89561214D01*
X58545876Y-89513595D01*
X58450638Y-89465976D01*
X58355400Y-89370738D01*
X58307780Y-89227880D01*
X58307780Y-89132642D01*
X58355400Y-88989785D01*
X58403019Y-88942166D01*
X58641114Y-88085023D02*
X59307780Y-88085023D01*
X58260161Y-88323119D02*
X58974447Y-88561214D01*
X58974447Y-87942166D01*
%TO.C,C5*%
X82319342Y-94055266D02*
X82366961Y-94102885D01*
X82414580Y-94245742D01*
X82414580Y-94340980D01*
X82366961Y-94483838D01*
X82271723Y-94579076D01*
X82176485Y-94626695D01*
X81986009Y-94674314D01*
X81843152Y-94674314D01*
X81652676Y-94626695D01*
X81557438Y-94579076D01*
X81462200Y-94483838D01*
X81414580Y-94340980D01*
X81414580Y-94245742D01*
X81462200Y-94102885D01*
X81509819Y-94055266D01*
X81414580Y-93150504D02*
X81414580Y-93626695D01*
X81890771Y-93674314D01*
X81843152Y-93626695D01*
X81795533Y-93531457D01*
X81795533Y-93293361D01*
X81843152Y-93198123D01*
X81890771Y-93150504D01*
X81986009Y-93102885D01*
X82224104Y-93102885D01*
X82319342Y-93150504D01*
X82366961Y-93198123D01*
X82414580Y-93293361D01*
X82414580Y-93531457D01*
X82366961Y-93626695D01*
X82319342Y-93674314D01*
%TO.C,C6*%
X85679342Y-89102266D02*
X85726961Y-89149885D01*
X85774580Y-89292742D01*
X85774580Y-89387980D01*
X85726961Y-89530838D01*
X85631723Y-89626076D01*
X85536485Y-89673695D01*
X85346009Y-89721314D01*
X85203152Y-89721314D01*
X85012676Y-89673695D01*
X84917438Y-89626076D01*
X84822200Y-89530838D01*
X84774580Y-89387980D01*
X84774580Y-89292742D01*
X84822200Y-89149885D01*
X84869819Y-89102266D01*
X84774580Y-88245123D02*
X84774580Y-88435600D01*
X84822200Y-88530838D01*
X84869819Y-88578457D01*
X85012676Y-88673695D01*
X85203152Y-88721314D01*
X85584104Y-88721314D01*
X85679342Y-88673695D01*
X85726961Y-88626076D01*
X85774580Y-88530838D01*
X85774580Y-88340361D01*
X85726961Y-88245123D01*
X85679342Y-88197504D01*
X85584104Y-88149885D01*
X85346009Y-88149885D01*
X85250771Y-88197504D01*
X85203152Y-88245123D01*
X85155533Y-88340361D01*
X85155533Y-88530838D01*
X85203152Y-88626076D01*
X85250771Y-88673695D01*
X85346009Y-88721314D01*
%TO.C,C7*%
X55725542Y-112876666D02*
X55773161Y-112924285D01*
X55820780Y-113067142D01*
X55820780Y-113162380D01*
X55773161Y-113305238D01*
X55677923Y-113400476D01*
X55582685Y-113448095D01*
X55392209Y-113495714D01*
X55249352Y-113495714D01*
X55058876Y-113448095D01*
X54963638Y-113400476D01*
X54868400Y-113305238D01*
X54820780Y-113162380D01*
X54820780Y-113067142D01*
X54868400Y-112924285D01*
X54916019Y-112876666D01*
X54820780Y-112543333D02*
X54820780Y-111876666D01*
X55820780Y-112305238D01*
%TO.C,C8*%
X59085542Y-107928666D02*
X59133161Y-107976285D01*
X59180780Y-108119142D01*
X59180780Y-108214380D01*
X59133161Y-108357238D01*
X59037923Y-108452476D01*
X58942685Y-108500095D01*
X58752209Y-108547714D01*
X58609352Y-108547714D01*
X58418876Y-108500095D01*
X58323638Y-108452476D01*
X58228400Y-108357238D01*
X58180780Y-108214380D01*
X58180780Y-108119142D01*
X58228400Y-107976285D01*
X58276019Y-107928666D01*
X58609352Y-107357238D02*
X58561733Y-107452476D01*
X58514114Y-107500095D01*
X58418876Y-107547714D01*
X58371257Y-107547714D01*
X58276019Y-107500095D01*
X58228400Y-107452476D01*
X58180780Y-107357238D01*
X58180780Y-107166761D01*
X58228400Y-107071523D01*
X58276019Y-107023904D01*
X58371257Y-106976285D01*
X58418876Y-106976285D01*
X58514114Y-107023904D01*
X58561733Y-107071523D01*
X58609352Y-107166761D01*
X58609352Y-107357238D01*
X58656971Y-107452476D01*
X58704590Y-107500095D01*
X58799828Y-107547714D01*
X58990304Y-107547714D01*
X59085542Y-107500095D01*
X59133161Y-107452476D01*
X59180780Y-107357238D01*
X59180780Y-107166761D01*
X59133161Y-107071523D01*
X59085542Y-107023904D01*
X58990304Y-106976285D01*
X58799828Y-106976285D01*
X58704590Y-107023904D01*
X58656971Y-107071523D01*
X58609352Y-107166761D01*
%TO.C,C9*%
X82255842Y-113056966D02*
X82303461Y-113104585D01*
X82351080Y-113247442D01*
X82351080Y-113342680D01*
X82303461Y-113485538D01*
X82208223Y-113580776D01*
X82112985Y-113628395D01*
X81922509Y-113676014D01*
X81779652Y-113676014D01*
X81589176Y-113628395D01*
X81493938Y-113580776D01*
X81398700Y-113485538D01*
X81351080Y-113342680D01*
X81351080Y-113247442D01*
X81398700Y-113104585D01*
X81446319Y-113056966D01*
X82351080Y-112580776D02*
X82351080Y-112390300D01*
X82303461Y-112295061D01*
X82255842Y-112247442D01*
X82112985Y-112152204D01*
X81922509Y-112104585D01*
X81541557Y-112104585D01*
X81446319Y-112152204D01*
X81398700Y-112199823D01*
X81351080Y-112295061D01*
X81351080Y-112485538D01*
X81398700Y-112580776D01*
X81446319Y-112628395D01*
X81541557Y-112676014D01*
X81779652Y-112676014D01*
X81874890Y-112628395D01*
X81922509Y-112580776D01*
X81970128Y-112485538D01*
X81970128Y-112295061D01*
X81922509Y-112199823D01*
X81874890Y-112152204D01*
X81779652Y-112104585D01*
%TO.C,C10*%
X85615842Y-108519157D02*
X85663461Y-108566776D01*
X85711080Y-108709633D01*
X85711080Y-108804871D01*
X85663461Y-108947728D01*
X85568223Y-109042966D01*
X85472985Y-109090585D01*
X85282509Y-109138204D01*
X85139652Y-109138204D01*
X84949176Y-109090585D01*
X84853938Y-109042966D01*
X84758700Y-108947728D01*
X84711080Y-108804871D01*
X84711080Y-108709633D01*
X84758700Y-108566776D01*
X84806319Y-108519157D01*
X85711080Y-107566776D02*
X85711080Y-108138204D01*
X85711080Y-107852490D02*
X84711080Y-107852490D01*
X84853938Y-107947728D01*
X84949176Y-108042966D01*
X84996795Y-108138204D01*
X84711080Y-106947728D02*
X84711080Y-106852490D01*
X84758700Y-106757252D01*
X84806319Y-106709633D01*
X84901557Y-106662014D01*
X85092033Y-106614395D01*
X85330128Y-106614395D01*
X85520604Y-106662014D01*
X85615842Y-106709633D01*
X85663461Y-106757252D01*
X85711080Y-106852490D01*
X85711080Y-106947728D01*
X85663461Y-107042966D01*
X85615842Y-107090585D01*
X85520604Y-107138204D01*
X85330128Y-107185823D01*
X85092033Y-107185823D01*
X84901557Y-107138204D01*
X84806319Y-107090585D01*
X84758700Y-107042966D01*
X84711080Y-106947728D01*
%TO.C,J1*%
X106837580Y-82152133D02*
X107551866Y-82152133D01*
X107694723Y-82199752D01*
X107789961Y-82294990D01*
X107837580Y-82437847D01*
X107837580Y-82533085D01*
X107837580Y-81152133D02*
X107837580Y-81723561D01*
X107837580Y-81437847D02*
X106837580Y-81437847D01*
X106980438Y-81533085D01*
X107075676Y-81628323D01*
X107123295Y-81723561D01*
%TO.C,J2*%
X106837580Y-90675733D02*
X107551866Y-90675733D01*
X107694723Y-90723352D01*
X107789961Y-90818590D01*
X107837580Y-90961447D01*
X107837580Y-91056685D01*
X106932819Y-90247161D02*
X106885200Y-90199542D01*
X106837580Y-90104304D01*
X106837580Y-89866209D01*
X106885200Y-89770971D01*
X106932819Y-89723352D01*
X107028057Y-89675733D01*
X107123295Y-89675733D01*
X107266152Y-89723352D01*
X107837580Y-90294780D01*
X107837580Y-89675733D01*
%TO.C,J3*%
X106837580Y-99210133D02*
X107551866Y-99210133D01*
X107694723Y-99257752D01*
X107789961Y-99352990D01*
X107837580Y-99495847D01*
X107837580Y-99591085D01*
X106837580Y-98829180D02*
X106837580Y-98210133D01*
X107218533Y-98543466D01*
X107218533Y-98400609D01*
X107266152Y-98305371D01*
X107313771Y-98257752D01*
X107409009Y-98210133D01*
X107647104Y-98210133D01*
X107742342Y-98257752D01*
X107789961Y-98305371D01*
X107837580Y-98400609D01*
X107837580Y-98686323D01*
X107789961Y-98781561D01*
X107742342Y-98829180D01*
%TO.C,J4*%
X106837580Y-107958533D02*
X107551866Y-107958533D01*
X107694723Y-108006152D01*
X107789961Y-108101390D01*
X107837580Y-108244247D01*
X107837580Y-108339485D01*
X107170914Y-107053771D02*
X107837580Y-107053771D01*
X106789961Y-107291866D02*
X107504247Y-107529961D01*
X107504247Y-106910914D01*
%TO.C,J5*%
X96135866Y-110646780D02*
X96135866Y-111361066D01*
X96088247Y-111503923D01*
X95993009Y-111599161D01*
X95850152Y-111646780D01*
X95754914Y-111646780D01*
X97088247Y-110646780D02*
X96612057Y-110646780D01*
X96564438Y-111122971D01*
X96612057Y-111075352D01*
X96707295Y-111027733D01*
X96945390Y-111027733D01*
X97040628Y-111075352D01*
X97088247Y-111122971D01*
X97135866Y-111218209D01*
X97135866Y-111456304D01*
X97088247Y-111551542D01*
X97040628Y-111599161D01*
X96945390Y-111646780D01*
X96707295Y-111646780D01*
X96612057Y-111599161D01*
X96564438Y-111551542D01*
%TO.C,R1*%
X190612733Y-100079980D02*
X190279400Y-99603790D01*
X190041304Y-100079980D02*
X190041304Y-99079980D01*
X190422257Y-99079980D01*
X190517495Y-99127600D01*
X190565114Y-99175219D01*
X190612733Y-99270457D01*
X190612733Y-99413314D01*
X190565114Y-99508552D01*
X190517495Y-99556171D01*
X190422257Y-99603790D01*
X190041304Y-99603790D01*
X191565114Y-100079980D02*
X190993685Y-100079980D01*
X191279400Y-100079980D02*
X191279400Y-99079980D01*
X191184161Y-99222838D01*
X191088923Y-99318076D01*
X190993685Y-99365695D01*
%TO.C,R2*%
X196480733Y-100079980D02*
X196147400Y-99603790D01*
X195909304Y-100079980D02*
X195909304Y-99079980D01*
X196290257Y-99079980D01*
X196385495Y-99127600D01*
X196433114Y-99175219D01*
X196480733Y-99270457D01*
X196480733Y-99413314D01*
X196433114Y-99508552D01*
X196385495Y-99556171D01*
X196290257Y-99603790D01*
X195909304Y-99603790D01*
X196861685Y-99175219D02*
X196909304Y-99127600D01*
X197004542Y-99079980D01*
X197242638Y-99079980D01*
X197337876Y-99127600D01*
X197385495Y-99175219D01*
X197433114Y-99270457D01*
X197433114Y-99365695D01*
X197385495Y-99508552D01*
X196814066Y-100079980D01*
X197433114Y-100079980D01*
%TO.C,R3*%
X190638733Y-103635980D02*
X190305400Y-103159790D01*
X190067304Y-103635980D02*
X190067304Y-102635980D01*
X190448257Y-102635980D01*
X190543495Y-102683600D01*
X190591114Y-102731219D01*
X190638733Y-102826457D01*
X190638733Y-102969314D01*
X190591114Y-103064552D01*
X190543495Y-103112171D01*
X190448257Y-103159790D01*
X190067304Y-103159790D01*
X190972066Y-102635980D02*
X191591114Y-102635980D01*
X191257780Y-103016933D01*
X191400638Y-103016933D01*
X191495876Y-103064552D01*
X191543495Y-103112171D01*
X191591114Y-103207409D01*
X191591114Y-103445504D01*
X191543495Y-103540742D01*
X191495876Y-103588361D01*
X191400638Y-103635980D01*
X191114923Y-103635980D01*
X191019685Y-103588361D01*
X190972066Y-103540742D01*
%TO.C,R4*%
X196480733Y-103635980D02*
X196147400Y-103159790D01*
X195909304Y-103635980D02*
X195909304Y-102635980D01*
X196290257Y-102635980D01*
X196385495Y-102683600D01*
X196433114Y-102731219D01*
X196480733Y-102826457D01*
X196480733Y-102969314D01*
X196433114Y-103064552D01*
X196385495Y-103112171D01*
X196290257Y-103159790D01*
X195909304Y-103159790D01*
X197337876Y-102969314D02*
X197337876Y-103635980D01*
X197099780Y-102588361D02*
X196861685Y-103302647D01*
X197480733Y-103302647D01*
%TO.C,R5*%
X190638733Y-107191980D02*
X190305400Y-106715790D01*
X190067304Y-107191980D02*
X190067304Y-106191980D01*
X190448257Y-106191980D01*
X190543495Y-106239600D01*
X190591114Y-106287219D01*
X190638733Y-106382457D01*
X190638733Y-106525314D01*
X190591114Y-106620552D01*
X190543495Y-106668171D01*
X190448257Y-106715790D01*
X190067304Y-106715790D01*
X191543495Y-106191980D02*
X191067304Y-106191980D01*
X191019685Y-106668171D01*
X191067304Y-106620552D01*
X191162542Y-106572933D01*
X191400638Y-106572933D01*
X191495876Y-106620552D01*
X191543495Y-106668171D01*
X191591114Y-106763409D01*
X191591114Y-107001504D01*
X191543495Y-107096742D01*
X191495876Y-107144361D01*
X191400638Y-107191980D01*
X191162542Y-107191980D01*
X191067304Y-107144361D01*
X191019685Y-107096742D01*
%TO.C,R6*%
X196480733Y-107191980D02*
X196147400Y-106715790D01*
X195909304Y-107191980D02*
X195909304Y-106191980D01*
X196290257Y-106191980D01*
X196385495Y-106239600D01*
X196433114Y-106287219D01*
X196480733Y-106382457D01*
X196480733Y-106525314D01*
X196433114Y-106620552D01*
X196385495Y-106668171D01*
X196290257Y-106715790D01*
X195909304Y-106715790D01*
X197337876Y-106191980D02*
X197147400Y-106191980D01*
X197052161Y-106239600D01*
X197004542Y-106287219D01*
X196909304Y-106430076D01*
X196861685Y-106620552D01*
X196861685Y-107001504D01*
X196909304Y-107096742D01*
X196956923Y-107144361D01*
X197052161Y-107191980D01*
X197242638Y-107191980D01*
X197337876Y-107144361D01*
X197385495Y-107096742D01*
X197433114Y-107001504D01*
X197433114Y-106763409D01*
X197385495Y-106668171D01*
X197337876Y-106620552D01*
X197242638Y-106572933D01*
X197052161Y-106572933D01*
X196956923Y-106620552D01*
X196909304Y-106668171D01*
X196861685Y-106763409D01*
%TO.C,R7*%
X190638733Y-110747980D02*
X190305400Y-110271790D01*
X190067304Y-110747980D02*
X190067304Y-109747980D01*
X190448257Y-109747980D01*
X190543495Y-109795600D01*
X190591114Y-109843219D01*
X190638733Y-109938457D01*
X190638733Y-110081314D01*
X190591114Y-110176552D01*
X190543495Y-110224171D01*
X190448257Y-110271790D01*
X190067304Y-110271790D01*
X190972066Y-109747980D02*
X191638733Y-109747980D01*
X191210161Y-110747980D01*
%TO.C,R8*%
X196480733Y-110747980D02*
X196147400Y-110271790D01*
X195909304Y-110747980D02*
X195909304Y-109747980D01*
X196290257Y-109747980D01*
X196385495Y-109795600D01*
X196433114Y-109843219D01*
X196480733Y-109938457D01*
X196480733Y-110081314D01*
X196433114Y-110176552D01*
X196385495Y-110224171D01*
X196290257Y-110271790D01*
X195909304Y-110271790D01*
X197052161Y-110176552D02*
X196956923Y-110128933D01*
X196909304Y-110081314D01*
X196861685Y-109986076D01*
X196861685Y-109938457D01*
X196909304Y-109843219D01*
X196956923Y-109795600D01*
X197052161Y-109747980D01*
X197242638Y-109747980D01*
X197337876Y-109795600D01*
X197385495Y-109843219D01*
X197433114Y-109938457D01*
X197433114Y-109986076D01*
X197385495Y-110081314D01*
X197337876Y-110128933D01*
X197242638Y-110176552D01*
X197052161Y-110176552D01*
X196956923Y-110224171D01*
X196909304Y-110271790D01*
X196861685Y-110367028D01*
X196861685Y-110557504D01*
X196909304Y-110652742D01*
X196956923Y-110700361D01*
X197052161Y-110747980D01*
X197242638Y-110747980D01*
X197337876Y-110700361D01*
X197385495Y-110652742D01*
X197433114Y-110557504D01*
X197433114Y-110367028D01*
X197385495Y-110271790D01*
X197337876Y-110224171D01*
X197242638Y-110176552D01*
%TO.C,R9*%
X146898733Y-114387980D02*
X146565400Y-113911790D01*
X146327304Y-114387980D02*
X146327304Y-113387980D01*
X146708257Y-113387980D01*
X146803495Y-113435600D01*
X146851114Y-113483219D01*
X146898733Y-113578457D01*
X146898733Y-113721314D01*
X146851114Y-113816552D01*
X146803495Y-113864171D01*
X146708257Y-113911790D01*
X146327304Y-113911790D01*
X147374923Y-114387980D02*
X147565400Y-114387980D01*
X147660638Y-114340361D01*
X147708257Y-114292742D01*
X147803495Y-114149885D01*
X147851114Y-113959409D01*
X147851114Y-113578457D01*
X147803495Y-113483219D01*
X147755876Y-113435600D01*
X147660638Y-113387980D01*
X147470161Y-113387980D01*
X147374923Y-113435600D01*
X147327304Y-113483219D01*
X147279685Y-113578457D01*
X147279685Y-113816552D01*
X147327304Y-113911790D01*
X147374923Y-113959409D01*
X147470161Y-114007028D01*
X147660638Y-114007028D01*
X147755876Y-113959409D01*
X147803495Y-113911790D01*
X147851114Y-113816552D01*
%TO.C,R10*%
X152010542Y-114387980D02*
X151677209Y-113911790D01*
X151439114Y-114387980D02*
X151439114Y-113387980D01*
X151820066Y-113387980D01*
X151915304Y-113435600D01*
X151962923Y-113483219D01*
X152010542Y-113578457D01*
X152010542Y-113721314D01*
X151962923Y-113816552D01*
X151915304Y-113864171D01*
X151820066Y-113911790D01*
X151439114Y-113911790D01*
X152962923Y-114387980D02*
X152391495Y-114387980D01*
X152677209Y-114387980D02*
X152677209Y-113387980D01*
X152581971Y-113530838D01*
X152486733Y-113626076D01*
X152391495Y-113673695D01*
X153581971Y-113387980D02*
X153677209Y-113387980D01*
X153772447Y-113435600D01*
X153820066Y-113483219D01*
X153867685Y-113578457D01*
X153915304Y-113768933D01*
X153915304Y-114007028D01*
X153867685Y-114197504D01*
X153820066Y-114292742D01*
X153772447Y-114340361D01*
X153677209Y-114387980D01*
X153581971Y-114387980D01*
X153486733Y-114340361D01*
X153439114Y-114292742D01*
X153391495Y-114197504D01*
X153343876Y-114007028D01*
X153343876Y-113768933D01*
X153391495Y-113578457D01*
X153439114Y-113483219D01*
X153486733Y-113435600D01*
X153581971Y-113387980D01*
%TO.C,R11*%
X146422542Y-110831980D02*
X146089209Y-110355790D01*
X145851114Y-110831980D02*
X145851114Y-109831980D01*
X146232066Y-109831980D01*
X146327304Y-109879600D01*
X146374923Y-109927219D01*
X146422542Y-110022457D01*
X146422542Y-110165314D01*
X146374923Y-110260552D01*
X146327304Y-110308171D01*
X146232066Y-110355790D01*
X145851114Y-110355790D01*
X147374923Y-110831980D02*
X146803495Y-110831980D01*
X147089209Y-110831980D02*
X147089209Y-109831980D01*
X146993971Y-109974838D01*
X146898733Y-110070076D01*
X146803495Y-110117695D01*
X148327304Y-110831980D02*
X147755876Y-110831980D01*
X148041590Y-110831980D02*
X148041590Y-109831980D01*
X147946352Y-109974838D01*
X147851114Y-110070076D01*
X147755876Y-110117695D01*
%TO.C,R12*%
X152010542Y-110831980D02*
X151677209Y-110355790D01*
X151439114Y-110831980D02*
X151439114Y-109831980D01*
X151820066Y-109831980D01*
X151915304Y-109879600D01*
X151962923Y-109927219D01*
X152010542Y-110022457D01*
X152010542Y-110165314D01*
X151962923Y-110260552D01*
X151915304Y-110308171D01*
X151820066Y-110355790D01*
X151439114Y-110355790D01*
X152962923Y-110831980D02*
X152391495Y-110831980D01*
X152677209Y-110831980D02*
X152677209Y-109831980D01*
X152581971Y-109974838D01*
X152486733Y-110070076D01*
X152391495Y-110117695D01*
X153343876Y-109927219D02*
X153391495Y-109879600D01*
X153486733Y-109831980D01*
X153724828Y-109831980D01*
X153820066Y-109879600D01*
X153867685Y-109927219D01*
X153915304Y-110022457D01*
X153915304Y-110117695D01*
X153867685Y-110260552D01*
X153296257Y-110831980D01*
X153915304Y-110831980D01*
%TO.C,R13*%
X146422542Y-107275980D02*
X146089209Y-106799790D01*
X145851114Y-107275980D02*
X145851114Y-106275980D01*
X146232066Y-106275980D01*
X146327304Y-106323600D01*
X146374923Y-106371219D01*
X146422542Y-106466457D01*
X146422542Y-106609314D01*
X146374923Y-106704552D01*
X146327304Y-106752171D01*
X146232066Y-106799790D01*
X145851114Y-106799790D01*
X147374923Y-107275980D02*
X146803495Y-107275980D01*
X147089209Y-107275980D02*
X147089209Y-106275980D01*
X146993971Y-106418838D01*
X146898733Y-106514076D01*
X146803495Y-106561695D01*
X147708257Y-106275980D02*
X148327304Y-106275980D01*
X147993971Y-106656933D01*
X148136828Y-106656933D01*
X148232066Y-106704552D01*
X148279685Y-106752171D01*
X148327304Y-106847409D01*
X148327304Y-107085504D01*
X148279685Y-107180742D01*
X148232066Y-107228361D01*
X148136828Y-107275980D01*
X147851114Y-107275980D01*
X147755876Y-107228361D01*
X147708257Y-107180742D01*
%TO.C,R14*%
X152010542Y-107275980D02*
X151677209Y-106799790D01*
X151439114Y-107275980D02*
X151439114Y-106275980D01*
X151820066Y-106275980D01*
X151915304Y-106323600D01*
X151962923Y-106371219D01*
X152010542Y-106466457D01*
X152010542Y-106609314D01*
X151962923Y-106704552D01*
X151915304Y-106752171D01*
X151820066Y-106799790D01*
X151439114Y-106799790D01*
X152962923Y-107275980D02*
X152391495Y-107275980D01*
X152677209Y-107275980D02*
X152677209Y-106275980D01*
X152581971Y-106418838D01*
X152486733Y-106514076D01*
X152391495Y-106561695D01*
X153820066Y-106609314D02*
X153820066Y-107275980D01*
X153581971Y-106228361D02*
X153343876Y-106942647D01*
X153962923Y-106942647D01*
%TO.C,R15*%
X146422542Y-103719980D02*
X146089209Y-103243790D01*
X145851114Y-103719980D02*
X145851114Y-102719980D01*
X146232066Y-102719980D01*
X146327304Y-102767600D01*
X146374923Y-102815219D01*
X146422542Y-102910457D01*
X146422542Y-103053314D01*
X146374923Y-103148552D01*
X146327304Y-103196171D01*
X146232066Y-103243790D01*
X145851114Y-103243790D01*
X147374923Y-103719980D02*
X146803495Y-103719980D01*
X147089209Y-103719980D02*
X147089209Y-102719980D01*
X146993971Y-102862838D01*
X146898733Y-102958076D01*
X146803495Y-103005695D01*
X148279685Y-102719980D02*
X147803495Y-102719980D01*
X147755876Y-103196171D01*
X147803495Y-103148552D01*
X147898733Y-103100933D01*
X148136828Y-103100933D01*
X148232066Y-103148552D01*
X148279685Y-103196171D01*
X148327304Y-103291409D01*
X148327304Y-103529504D01*
X148279685Y-103624742D01*
X148232066Y-103672361D01*
X148136828Y-103719980D01*
X147898733Y-103719980D01*
X147803495Y-103672361D01*
X147755876Y-103624742D01*
%TO.C,R16*%
X152010542Y-103719980D02*
X151677209Y-103243790D01*
X151439114Y-103719980D02*
X151439114Y-102719980D01*
X151820066Y-102719980D01*
X151915304Y-102767600D01*
X151962923Y-102815219D01*
X152010542Y-102910457D01*
X152010542Y-103053314D01*
X151962923Y-103148552D01*
X151915304Y-103196171D01*
X151820066Y-103243790D01*
X151439114Y-103243790D01*
X152962923Y-103719980D02*
X152391495Y-103719980D01*
X152677209Y-103719980D02*
X152677209Y-102719980D01*
X152581971Y-102862838D01*
X152486733Y-102958076D01*
X152391495Y-103005695D01*
X153820066Y-102719980D02*
X153629590Y-102719980D01*
X153534352Y-102767600D01*
X153486733Y-102815219D01*
X153391495Y-102958076D01*
X153343876Y-103148552D01*
X153343876Y-103529504D01*
X153391495Y-103624742D01*
X153439114Y-103672361D01*
X153534352Y-103719980D01*
X153724828Y-103719980D01*
X153820066Y-103672361D01*
X153867685Y-103624742D01*
X153915304Y-103529504D01*
X153915304Y-103291409D01*
X153867685Y-103196171D01*
X153820066Y-103148552D01*
X153724828Y-103100933D01*
X153534352Y-103100933D01*
X153439114Y-103148552D01*
X153391495Y-103196171D01*
X153343876Y-103291409D01*
%TO.C,R17*%
X116196542Y-100079980D02*
X115863209Y-99603790D01*
X115625114Y-100079980D02*
X115625114Y-99079980D01*
X116006066Y-99079980D01*
X116101304Y-99127600D01*
X116148923Y-99175219D01*
X116196542Y-99270457D01*
X116196542Y-99413314D01*
X116148923Y-99508552D01*
X116101304Y-99556171D01*
X116006066Y-99603790D01*
X115625114Y-99603790D01*
X117148923Y-100079980D02*
X116577495Y-100079980D01*
X116863209Y-100079980D02*
X116863209Y-99079980D01*
X116767971Y-99222838D01*
X116672733Y-99318076D01*
X116577495Y-99365695D01*
X117482257Y-99079980D02*
X118148923Y-99079980D01*
X117720352Y-100079980D01*
%TO.C,R18*%
X110608542Y-100079980D02*
X110275209Y-99603790D01*
X110037114Y-100079980D02*
X110037114Y-99079980D01*
X110418066Y-99079980D01*
X110513304Y-99127600D01*
X110560923Y-99175219D01*
X110608542Y-99270457D01*
X110608542Y-99413314D01*
X110560923Y-99508552D01*
X110513304Y-99556171D01*
X110418066Y-99603790D01*
X110037114Y-99603790D01*
X111560923Y-100079980D02*
X110989495Y-100079980D01*
X111275209Y-100079980D02*
X111275209Y-99079980D01*
X111179971Y-99222838D01*
X111084733Y-99318076D01*
X110989495Y-99365695D01*
X112132352Y-99508552D02*
X112037114Y-99460933D01*
X111989495Y-99413314D01*
X111941876Y-99318076D01*
X111941876Y-99270457D01*
X111989495Y-99175219D01*
X112037114Y-99127600D01*
X112132352Y-99079980D01*
X112322828Y-99079980D01*
X112418066Y-99127600D01*
X112465685Y-99175219D01*
X112513304Y-99270457D01*
X112513304Y-99318076D01*
X112465685Y-99413314D01*
X112418066Y-99460933D01*
X112322828Y-99508552D01*
X112132352Y-99508552D01*
X112037114Y-99556171D01*
X111989495Y-99603790D01*
X111941876Y-99699028D01*
X111941876Y-99889504D01*
X111989495Y-99984742D01*
X112037114Y-100032361D01*
X112132352Y-100079980D01*
X112322828Y-100079980D01*
X112418066Y-100032361D01*
X112465685Y-99984742D01*
X112513304Y-99889504D01*
X112513304Y-99699028D01*
X112465685Y-99603790D01*
X112418066Y-99556171D01*
X112322828Y-99508552D01*
%TO.C,R19*%
X116196542Y-103635980D02*
X115863209Y-103159790D01*
X115625114Y-103635980D02*
X115625114Y-102635980D01*
X116006066Y-102635980D01*
X116101304Y-102683600D01*
X116148923Y-102731219D01*
X116196542Y-102826457D01*
X116196542Y-102969314D01*
X116148923Y-103064552D01*
X116101304Y-103112171D01*
X116006066Y-103159790D01*
X115625114Y-103159790D01*
X117148923Y-103635980D02*
X116577495Y-103635980D01*
X116863209Y-103635980D02*
X116863209Y-102635980D01*
X116767971Y-102778838D01*
X116672733Y-102874076D01*
X116577495Y-102921695D01*
X117625114Y-103635980D02*
X117815590Y-103635980D01*
X117910828Y-103588361D01*
X117958447Y-103540742D01*
X118053685Y-103397885D01*
X118101304Y-103207409D01*
X118101304Y-102826457D01*
X118053685Y-102731219D01*
X118006066Y-102683600D01*
X117910828Y-102635980D01*
X117720352Y-102635980D01*
X117625114Y-102683600D01*
X117577495Y-102731219D01*
X117529876Y-102826457D01*
X117529876Y-103064552D01*
X117577495Y-103159790D01*
X117625114Y-103207409D01*
X117720352Y-103255028D01*
X117910828Y-103255028D01*
X118006066Y-103207409D01*
X118053685Y-103159790D01*
X118101304Y-103064552D01*
%TO.C,R20*%
X110608542Y-103635980D02*
X110275209Y-103159790D01*
X110037114Y-103635980D02*
X110037114Y-102635980D01*
X110418066Y-102635980D01*
X110513304Y-102683600D01*
X110560923Y-102731219D01*
X110608542Y-102826457D01*
X110608542Y-102969314D01*
X110560923Y-103064552D01*
X110513304Y-103112171D01*
X110418066Y-103159790D01*
X110037114Y-103159790D01*
X110989495Y-102731219D02*
X111037114Y-102683600D01*
X111132352Y-102635980D01*
X111370447Y-102635980D01*
X111465685Y-102683600D01*
X111513304Y-102731219D01*
X111560923Y-102826457D01*
X111560923Y-102921695D01*
X111513304Y-103064552D01*
X110941876Y-103635980D01*
X111560923Y-103635980D01*
X112179971Y-102635980D02*
X112275209Y-102635980D01*
X112370447Y-102683600D01*
X112418066Y-102731219D01*
X112465685Y-102826457D01*
X112513304Y-103016933D01*
X112513304Y-103255028D01*
X112465685Y-103445504D01*
X112418066Y-103540742D01*
X112370447Y-103588361D01*
X112275209Y-103635980D01*
X112179971Y-103635980D01*
X112084733Y-103588361D01*
X112037114Y-103540742D01*
X111989495Y-103445504D01*
X111941876Y-103255028D01*
X111941876Y-103016933D01*
X111989495Y-102826457D01*
X112037114Y-102731219D01*
X112084733Y-102683600D01*
X112179971Y-102635980D01*
%TO.C,R21*%
X116196542Y-107191980D02*
X115863209Y-106715790D01*
X115625114Y-107191980D02*
X115625114Y-106191980D01*
X116006066Y-106191980D01*
X116101304Y-106239600D01*
X116148923Y-106287219D01*
X116196542Y-106382457D01*
X116196542Y-106525314D01*
X116148923Y-106620552D01*
X116101304Y-106668171D01*
X116006066Y-106715790D01*
X115625114Y-106715790D01*
X116577495Y-106287219D02*
X116625114Y-106239600D01*
X116720352Y-106191980D01*
X116958447Y-106191980D01*
X117053685Y-106239600D01*
X117101304Y-106287219D01*
X117148923Y-106382457D01*
X117148923Y-106477695D01*
X117101304Y-106620552D01*
X116529876Y-107191980D01*
X117148923Y-107191980D01*
X118101304Y-107191980D02*
X117529876Y-107191980D01*
X117815590Y-107191980D02*
X117815590Y-106191980D01*
X117720352Y-106334838D01*
X117625114Y-106430076D01*
X117529876Y-106477695D01*
%TO.C,R22*%
X110608542Y-107191980D02*
X110275209Y-106715790D01*
X110037114Y-107191980D02*
X110037114Y-106191980D01*
X110418066Y-106191980D01*
X110513304Y-106239600D01*
X110560923Y-106287219D01*
X110608542Y-106382457D01*
X110608542Y-106525314D01*
X110560923Y-106620552D01*
X110513304Y-106668171D01*
X110418066Y-106715790D01*
X110037114Y-106715790D01*
X110989495Y-106287219D02*
X111037114Y-106239600D01*
X111132352Y-106191980D01*
X111370447Y-106191980D01*
X111465685Y-106239600D01*
X111513304Y-106287219D01*
X111560923Y-106382457D01*
X111560923Y-106477695D01*
X111513304Y-106620552D01*
X110941876Y-107191980D01*
X111560923Y-107191980D01*
X111941876Y-106287219D02*
X111989495Y-106239600D01*
X112084733Y-106191980D01*
X112322828Y-106191980D01*
X112418066Y-106239600D01*
X112465685Y-106287219D01*
X112513304Y-106382457D01*
X112513304Y-106477695D01*
X112465685Y-106620552D01*
X111894257Y-107191980D01*
X112513304Y-107191980D01*
%TO.C,R23*%
X116196542Y-110747980D02*
X115863209Y-110271790D01*
X115625114Y-110747980D02*
X115625114Y-109747980D01*
X116006066Y-109747980D01*
X116101304Y-109795600D01*
X116148923Y-109843219D01*
X116196542Y-109938457D01*
X116196542Y-110081314D01*
X116148923Y-110176552D01*
X116101304Y-110224171D01*
X116006066Y-110271790D01*
X115625114Y-110271790D01*
X116577495Y-109843219D02*
X116625114Y-109795600D01*
X116720352Y-109747980D01*
X116958447Y-109747980D01*
X117053685Y-109795600D01*
X117101304Y-109843219D01*
X117148923Y-109938457D01*
X117148923Y-110033695D01*
X117101304Y-110176552D01*
X116529876Y-110747980D01*
X117148923Y-110747980D01*
X117482257Y-109747980D02*
X118101304Y-109747980D01*
X117767971Y-110128933D01*
X117910828Y-110128933D01*
X118006066Y-110176552D01*
X118053685Y-110224171D01*
X118101304Y-110319409D01*
X118101304Y-110557504D01*
X118053685Y-110652742D01*
X118006066Y-110700361D01*
X117910828Y-110747980D01*
X117625114Y-110747980D01*
X117529876Y-110700361D01*
X117482257Y-110652742D01*
%TO.C,R24*%
X110608542Y-110747980D02*
X110275209Y-110271790D01*
X110037114Y-110747980D02*
X110037114Y-109747980D01*
X110418066Y-109747980D01*
X110513304Y-109795600D01*
X110560923Y-109843219D01*
X110608542Y-109938457D01*
X110608542Y-110081314D01*
X110560923Y-110176552D01*
X110513304Y-110224171D01*
X110418066Y-110271790D01*
X110037114Y-110271790D01*
X110989495Y-109843219D02*
X111037114Y-109795600D01*
X111132352Y-109747980D01*
X111370447Y-109747980D01*
X111465685Y-109795600D01*
X111513304Y-109843219D01*
X111560923Y-109938457D01*
X111560923Y-110033695D01*
X111513304Y-110176552D01*
X110941876Y-110747980D01*
X111560923Y-110747980D01*
X112418066Y-110081314D02*
X112418066Y-110747980D01*
X112179971Y-109700361D02*
X111941876Y-110414647D01*
X112560923Y-110414647D01*
%TO.C,R25*%
X217288542Y-100079980D02*
X216955209Y-99603790D01*
X216717114Y-100079980D02*
X216717114Y-99079980D01*
X217098066Y-99079980D01*
X217193304Y-99127600D01*
X217240923Y-99175219D01*
X217288542Y-99270457D01*
X217288542Y-99413314D01*
X217240923Y-99508552D01*
X217193304Y-99556171D01*
X217098066Y-99603790D01*
X216717114Y-99603790D01*
X217669495Y-99175219D02*
X217717114Y-99127600D01*
X217812352Y-99079980D01*
X218050447Y-99079980D01*
X218145685Y-99127600D01*
X218193304Y-99175219D01*
X218240923Y-99270457D01*
X218240923Y-99365695D01*
X218193304Y-99508552D01*
X217621876Y-100079980D01*
X218240923Y-100079980D01*
X219145685Y-99079980D02*
X218669495Y-99079980D01*
X218621876Y-99556171D01*
X218669495Y-99508552D01*
X218764733Y-99460933D01*
X219002828Y-99460933D01*
X219098066Y-99508552D01*
X219145685Y-99556171D01*
X219193304Y-99651409D01*
X219193304Y-99889504D01*
X219145685Y-99984742D01*
X219098066Y-100032361D01*
X219002828Y-100079980D01*
X218764733Y-100079980D01*
X218669495Y-100032361D01*
X218621876Y-99984742D01*
%TO.C,R26*%
X217288542Y-103635980D02*
X216955209Y-103159790D01*
X216717114Y-103635980D02*
X216717114Y-102635980D01*
X217098066Y-102635980D01*
X217193304Y-102683600D01*
X217240923Y-102731219D01*
X217288542Y-102826457D01*
X217288542Y-102969314D01*
X217240923Y-103064552D01*
X217193304Y-103112171D01*
X217098066Y-103159790D01*
X216717114Y-103159790D01*
X217669495Y-102731219D02*
X217717114Y-102683600D01*
X217812352Y-102635980D01*
X218050447Y-102635980D01*
X218145685Y-102683600D01*
X218193304Y-102731219D01*
X218240923Y-102826457D01*
X218240923Y-102921695D01*
X218193304Y-103064552D01*
X217621876Y-103635980D01*
X218240923Y-103635980D01*
X219098066Y-102635980D02*
X218907590Y-102635980D01*
X218812352Y-102683600D01*
X218764733Y-102731219D01*
X218669495Y-102874076D01*
X218621876Y-103064552D01*
X218621876Y-103445504D01*
X218669495Y-103540742D01*
X218717114Y-103588361D01*
X218812352Y-103635980D01*
X219002828Y-103635980D01*
X219098066Y-103588361D01*
X219145685Y-103540742D01*
X219193304Y-103445504D01*
X219193304Y-103207409D01*
X219145685Y-103112171D01*
X219098066Y-103064552D01*
X219002828Y-103016933D01*
X218812352Y-103016933D01*
X218717114Y-103064552D01*
X218669495Y-103112171D01*
X218621876Y-103207409D01*
%TO.C,R27*%
X217288542Y-107191980D02*
X216955209Y-106715790D01*
X216717114Y-107191980D02*
X216717114Y-106191980D01*
X217098066Y-106191980D01*
X217193304Y-106239600D01*
X217240923Y-106287219D01*
X217288542Y-106382457D01*
X217288542Y-106525314D01*
X217240923Y-106620552D01*
X217193304Y-106668171D01*
X217098066Y-106715790D01*
X216717114Y-106715790D01*
X217669495Y-106287219D02*
X217717114Y-106239600D01*
X217812352Y-106191980D01*
X218050447Y-106191980D01*
X218145685Y-106239600D01*
X218193304Y-106287219D01*
X218240923Y-106382457D01*
X218240923Y-106477695D01*
X218193304Y-106620552D01*
X217621876Y-107191980D01*
X218240923Y-107191980D01*
X218574257Y-106191980D02*
X219240923Y-106191980D01*
X218812352Y-107191980D01*
%TO.C,R28*%
X217288542Y-110747980D02*
X216955209Y-110271790D01*
X216717114Y-110747980D02*
X216717114Y-109747980D01*
X217098066Y-109747980D01*
X217193304Y-109795600D01*
X217240923Y-109843219D01*
X217288542Y-109938457D01*
X217288542Y-110081314D01*
X217240923Y-110176552D01*
X217193304Y-110224171D01*
X217098066Y-110271790D01*
X216717114Y-110271790D01*
X217669495Y-109843219D02*
X217717114Y-109795600D01*
X217812352Y-109747980D01*
X218050447Y-109747980D01*
X218145685Y-109795600D01*
X218193304Y-109843219D01*
X218240923Y-109938457D01*
X218240923Y-110033695D01*
X218193304Y-110176552D01*
X217621876Y-110747980D01*
X218240923Y-110747980D01*
X218812352Y-110176552D02*
X218717114Y-110128933D01*
X218669495Y-110081314D01*
X218621876Y-109986076D01*
X218621876Y-109938457D01*
X218669495Y-109843219D01*
X218717114Y-109795600D01*
X218812352Y-109747980D01*
X219002828Y-109747980D01*
X219098066Y-109795600D01*
X219145685Y-109843219D01*
X219193304Y-109938457D01*
X219193304Y-109986076D01*
X219145685Y-110081314D01*
X219098066Y-110128933D01*
X219002828Y-110176552D01*
X218812352Y-110176552D01*
X218717114Y-110224171D01*
X218669495Y-110271790D01*
X218621876Y-110367028D01*
X218621876Y-110557504D01*
X218669495Y-110652742D01*
X218717114Y-110700361D01*
X218812352Y-110747980D01*
X219002828Y-110747980D01*
X219098066Y-110700361D01*
X219145685Y-110652742D01*
X219193304Y-110557504D01*
X219193304Y-110367028D01*
X219145685Y-110271790D01*
X219098066Y-110224171D01*
X219002828Y-110176552D01*
%TO.C,R29*%
X203826542Y-114387980D02*
X203493209Y-113911790D01*
X203255114Y-114387980D02*
X203255114Y-113387980D01*
X203636066Y-113387980D01*
X203731304Y-113435600D01*
X203778923Y-113483219D01*
X203826542Y-113578457D01*
X203826542Y-113721314D01*
X203778923Y-113816552D01*
X203731304Y-113864171D01*
X203636066Y-113911790D01*
X203255114Y-113911790D01*
X204207495Y-113483219D02*
X204255114Y-113435600D01*
X204350352Y-113387980D01*
X204588447Y-113387980D01*
X204683685Y-113435600D01*
X204731304Y-113483219D01*
X204778923Y-113578457D01*
X204778923Y-113673695D01*
X204731304Y-113816552D01*
X204159876Y-114387980D01*
X204778923Y-114387980D01*
X205255114Y-114387980D02*
X205445590Y-114387980D01*
X205540828Y-114340361D01*
X205588447Y-114292742D01*
X205683685Y-114149885D01*
X205731304Y-113959409D01*
X205731304Y-113578457D01*
X205683685Y-113483219D01*
X205636066Y-113435600D01*
X205540828Y-113387980D01*
X205350352Y-113387980D01*
X205255114Y-113435600D01*
X205207495Y-113483219D01*
X205159876Y-113578457D01*
X205159876Y-113816552D01*
X205207495Y-113911790D01*
X205255114Y-113959409D01*
X205350352Y-114007028D01*
X205540828Y-114007028D01*
X205636066Y-113959409D01*
X205683685Y-113911790D01*
X205731304Y-113816552D01*
%TO.C,R30*%
X203878542Y-110831980D02*
X203545209Y-110355790D01*
X203307114Y-110831980D02*
X203307114Y-109831980D01*
X203688066Y-109831980D01*
X203783304Y-109879600D01*
X203830923Y-109927219D01*
X203878542Y-110022457D01*
X203878542Y-110165314D01*
X203830923Y-110260552D01*
X203783304Y-110308171D01*
X203688066Y-110355790D01*
X203307114Y-110355790D01*
X204211876Y-109831980D02*
X204830923Y-109831980D01*
X204497590Y-110212933D01*
X204640447Y-110212933D01*
X204735685Y-110260552D01*
X204783304Y-110308171D01*
X204830923Y-110403409D01*
X204830923Y-110641504D01*
X204783304Y-110736742D01*
X204735685Y-110784361D01*
X204640447Y-110831980D01*
X204354733Y-110831980D01*
X204259495Y-110784361D01*
X204211876Y-110736742D01*
X205449971Y-109831980D02*
X205545209Y-109831980D01*
X205640447Y-109879600D01*
X205688066Y-109927219D01*
X205735685Y-110022457D01*
X205783304Y-110212933D01*
X205783304Y-110451028D01*
X205735685Y-110641504D01*
X205688066Y-110736742D01*
X205640447Y-110784361D01*
X205545209Y-110831980D01*
X205449971Y-110831980D01*
X205354733Y-110784361D01*
X205307114Y-110736742D01*
X205259495Y-110641504D01*
X205211876Y-110451028D01*
X205211876Y-110212933D01*
X205259495Y-110022457D01*
X205307114Y-109927219D01*
X205354733Y-109879600D01*
X205449971Y-109831980D01*
%TO.C,R31*%
X203878542Y-107275980D02*
X203545209Y-106799790D01*
X203307114Y-107275980D02*
X203307114Y-106275980D01*
X203688066Y-106275980D01*
X203783304Y-106323600D01*
X203830923Y-106371219D01*
X203878542Y-106466457D01*
X203878542Y-106609314D01*
X203830923Y-106704552D01*
X203783304Y-106752171D01*
X203688066Y-106799790D01*
X203307114Y-106799790D01*
X204211876Y-106275980D02*
X204830923Y-106275980D01*
X204497590Y-106656933D01*
X204640447Y-106656933D01*
X204735685Y-106704552D01*
X204783304Y-106752171D01*
X204830923Y-106847409D01*
X204830923Y-107085504D01*
X204783304Y-107180742D01*
X204735685Y-107228361D01*
X204640447Y-107275980D01*
X204354733Y-107275980D01*
X204259495Y-107228361D01*
X204211876Y-107180742D01*
X205783304Y-107275980D02*
X205211876Y-107275980D01*
X205497590Y-107275980D02*
X205497590Y-106275980D01*
X205402352Y-106418838D01*
X205307114Y-106514076D01*
X205211876Y-106561695D01*
%TO.C,R32*%
X203826542Y-103719980D02*
X203493209Y-103243790D01*
X203255114Y-103719980D02*
X203255114Y-102719980D01*
X203636066Y-102719980D01*
X203731304Y-102767600D01*
X203778923Y-102815219D01*
X203826542Y-102910457D01*
X203826542Y-103053314D01*
X203778923Y-103148552D01*
X203731304Y-103196171D01*
X203636066Y-103243790D01*
X203255114Y-103243790D01*
X204159876Y-102719980D02*
X204778923Y-102719980D01*
X204445590Y-103100933D01*
X204588447Y-103100933D01*
X204683685Y-103148552D01*
X204731304Y-103196171D01*
X204778923Y-103291409D01*
X204778923Y-103529504D01*
X204731304Y-103624742D01*
X204683685Y-103672361D01*
X204588447Y-103719980D01*
X204302733Y-103719980D01*
X204207495Y-103672361D01*
X204159876Y-103624742D01*
X205159876Y-102815219D02*
X205207495Y-102767600D01*
X205302733Y-102719980D01*
X205540828Y-102719980D01*
X205636066Y-102767600D01*
X205683685Y-102815219D01*
X205731304Y-102910457D01*
X205731304Y-103005695D01*
X205683685Y-103148552D01*
X205112257Y-103719980D01*
X205731304Y-103719980D01*
%TO.C,R33*%
X43402780Y-114215657D02*
X42926590Y-114548990D01*
X43402780Y-114787085D02*
X42402780Y-114787085D01*
X42402780Y-114406133D01*
X42450400Y-114310895D01*
X42498019Y-114263276D01*
X42593257Y-114215657D01*
X42736114Y-114215657D01*
X42831352Y-114263276D01*
X42878971Y-114310895D01*
X42926590Y-114406133D01*
X42926590Y-114787085D01*
X42402780Y-113882323D02*
X42402780Y-113263276D01*
X42783733Y-113596609D01*
X42783733Y-113453752D01*
X42831352Y-113358514D01*
X42878971Y-113310895D01*
X42974209Y-113263276D01*
X43212304Y-113263276D01*
X43307542Y-113310895D01*
X43355161Y-113358514D01*
X43402780Y-113453752D01*
X43402780Y-113739466D01*
X43355161Y-113834704D01*
X43307542Y-113882323D01*
X42402780Y-112929942D02*
X42402780Y-112310895D01*
X42783733Y-112644228D01*
X42783733Y-112501371D01*
X42831352Y-112406133D01*
X42878971Y-112358514D01*
X42974209Y-112310895D01*
X43212304Y-112310895D01*
X43307542Y-112358514D01*
X43355161Y-112406133D01*
X43402780Y-112501371D01*
X43402780Y-112787085D01*
X43355161Y-112882323D01*
X43307542Y-112929942D01*
%TO.C,R35*%
X78401080Y-114321157D02*
X77924890Y-114654490D01*
X78401080Y-114892585D02*
X77401080Y-114892585D01*
X77401080Y-114511633D01*
X77448700Y-114416395D01*
X77496319Y-114368776D01*
X77591557Y-114321157D01*
X77734414Y-114321157D01*
X77829652Y-114368776D01*
X77877271Y-114416395D01*
X77924890Y-114511633D01*
X77924890Y-114892585D01*
X77401080Y-113987823D02*
X77401080Y-113368776D01*
X77782033Y-113702109D01*
X77782033Y-113559252D01*
X77829652Y-113464014D01*
X77877271Y-113416395D01*
X77972509Y-113368776D01*
X78210604Y-113368776D01*
X78305842Y-113416395D01*
X78353461Y-113464014D01*
X78401080Y-113559252D01*
X78401080Y-113844966D01*
X78353461Y-113940204D01*
X78305842Y-113987823D01*
X77401080Y-112464014D02*
X77401080Y-112940204D01*
X77877271Y-112987823D01*
X77829652Y-112940204D01*
X77782033Y-112844966D01*
X77782033Y-112606871D01*
X77829652Y-112511633D01*
X77877271Y-112464014D01*
X77972509Y-112416395D01*
X78210604Y-112416395D01*
X78305842Y-112464014D01*
X78353461Y-112511633D01*
X78401080Y-112606871D01*
X78401080Y-112844966D01*
X78353461Y-112940204D01*
X78305842Y-112987823D01*
%TO.C,R36*%
X86021080Y-114321157D02*
X85544890Y-114654490D01*
X86021080Y-114892585D02*
X85021080Y-114892585D01*
X85021080Y-114511633D01*
X85068700Y-114416395D01*
X85116319Y-114368776D01*
X85211557Y-114321157D01*
X85354414Y-114321157D01*
X85449652Y-114368776D01*
X85497271Y-114416395D01*
X85544890Y-114511633D01*
X85544890Y-114892585D01*
X85021080Y-113987823D02*
X85021080Y-113368776D01*
X85402033Y-113702109D01*
X85402033Y-113559252D01*
X85449652Y-113464014D01*
X85497271Y-113416395D01*
X85592509Y-113368776D01*
X85830604Y-113368776D01*
X85925842Y-113416395D01*
X85973461Y-113464014D01*
X86021080Y-113559252D01*
X86021080Y-113844966D01*
X85973461Y-113940204D01*
X85925842Y-113987823D01*
X85021080Y-112511633D02*
X85021080Y-112702109D01*
X85068700Y-112797347D01*
X85116319Y-112844966D01*
X85259176Y-112940204D01*
X85449652Y-112987823D01*
X85830604Y-112987823D01*
X85925842Y-112940204D01*
X85973461Y-112892585D01*
X86021080Y-112797347D01*
X86021080Y-112606871D01*
X85973461Y-112511633D01*
X85925842Y-112464014D01*
X85830604Y-112416395D01*
X85592509Y-112416395D01*
X85497271Y-112464014D01*
X85449652Y-112511633D01*
X85402033Y-112606871D01*
X85402033Y-112797347D01*
X85449652Y-112892585D01*
X85497271Y-112940204D01*
X85592509Y-112987823D01*
%TO.C,R37*%
X89661080Y-107792157D02*
X89184890Y-108125490D01*
X89661080Y-108363585D02*
X88661080Y-108363585D01*
X88661080Y-107982633D01*
X88708700Y-107887395D01*
X88756319Y-107839776D01*
X88851557Y-107792157D01*
X88994414Y-107792157D01*
X89089652Y-107839776D01*
X89137271Y-107887395D01*
X89184890Y-107982633D01*
X89184890Y-108363585D01*
X88661080Y-107458823D02*
X88661080Y-106839776D01*
X89042033Y-107173109D01*
X89042033Y-107030252D01*
X89089652Y-106935014D01*
X89137271Y-106887395D01*
X89232509Y-106839776D01*
X89470604Y-106839776D01*
X89565842Y-106887395D01*
X89613461Y-106935014D01*
X89661080Y-107030252D01*
X89661080Y-107315966D01*
X89613461Y-107411204D01*
X89565842Y-107458823D01*
X88661080Y-106506442D02*
X88661080Y-105839776D01*
X89661080Y-106268347D01*
%TO.C,R38*%
X82041080Y-107792157D02*
X81564890Y-108125490D01*
X82041080Y-108363585D02*
X81041080Y-108363585D01*
X81041080Y-107982633D01*
X81088700Y-107887395D01*
X81136319Y-107839776D01*
X81231557Y-107792157D01*
X81374414Y-107792157D01*
X81469652Y-107839776D01*
X81517271Y-107887395D01*
X81564890Y-107982633D01*
X81564890Y-108363585D01*
X81041080Y-107458823D02*
X81041080Y-106839776D01*
X81422033Y-107173109D01*
X81422033Y-107030252D01*
X81469652Y-106935014D01*
X81517271Y-106887395D01*
X81612509Y-106839776D01*
X81850604Y-106839776D01*
X81945842Y-106887395D01*
X81993461Y-106935014D01*
X82041080Y-107030252D01*
X82041080Y-107315966D01*
X81993461Y-107411204D01*
X81945842Y-107458823D01*
X81469652Y-106268347D02*
X81422033Y-106363585D01*
X81374414Y-106411204D01*
X81279176Y-106458823D01*
X81231557Y-106458823D01*
X81136319Y-106411204D01*
X81088700Y-106363585D01*
X81041080Y-106268347D01*
X81041080Y-106077871D01*
X81088700Y-105982633D01*
X81136319Y-105935014D01*
X81231557Y-105887395D01*
X81279176Y-105887395D01*
X81374414Y-105935014D01*
X81422033Y-105982633D01*
X81469652Y-106077871D01*
X81469652Y-106268347D01*
X81517271Y-106363585D01*
X81564890Y-106411204D01*
X81660128Y-106458823D01*
X81850604Y-106458823D01*
X81945842Y-106411204D01*
X81993461Y-106363585D01*
X82041080Y-106268347D01*
X82041080Y-106077871D01*
X81993461Y-105982633D01*
X81945842Y-105935014D01*
X81850604Y-105887395D01*
X81660128Y-105887395D01*
X81564890Y-105935014D01*
X81517271Y-105982633D01*
X81469652Y-106077871D01*
%TO.C,R39*%
X51870780Y-114206857D02*
X51394590Y-114540190D01*
X51870780Y-114778285D02*
X50870780Y-114778285D01*
X50870780Y-114397333D01*
X50918400Y-114302095D01*
X50966019Y-114254476D01*
X51061257Y-114206857D01*
X51204114Y-114206857D01*
X51299352Y-114254476D01*
X51346971Y-114302095D01*
X51394590Y-114397333D01*
X51394590Y-114778285D01*
X50870780Y-113873523D02*
X50870780Y-113254476D01*
X51251733Y-113587809D01*
X51251733Y-113444952D01*
X51299352Y-113349714D01*
X51346971Y-113302095D01*
X51442209Y-113254476D01*
X51680304Y-113254476D01*
X51775542Y-113302095D01*
X51823161Y-113349714D01*
X51870780Y-113444952D01*
X51870780Y-113730666D01*
X51823161Y-113825904D01*
X51775542Y-113873523D01*
X51870780Y-112778285D02*
X51870780Y-112587809D01*
X51823161Y-112492571D01*
X51775542Y-112444952D01*
X51632685Y-112349714D01*
X51442209Y-112302095D01*
X51061257Y-112302095D01*
X50966019Y-112349714D01*
X50918400Y-112397333D01*
X50870780Y-112492571D01*
X50870780Y-112683047D01*
X50918400Y-112778285D01*
X50966019Y-112825904D01*
X51061257Y-112873523D01*
X51299352Y-112873523D01*
X51394590Y-112825904D01*
X51442209Y-112778285D01*
X51489828Y-112683047D01*
X51489828Y-112492571D01*
X51442209Y-112397333D01*
X51394590Y-112349714D01*
X51299352Y-112302095D01*
%TO.C,R40*%
X59490780Y-114206857D02*
X59014590Y-114540190D01*
X59490780Y-114778285D02*
X58490780Y-114778285D01*
X58490780Y-114397333D01*
X58538400Y-114302095D01*
X58586019Y-114254476D01*
X58681257Y-114206857D01*
X58824114Y-114206857D01*
X58919352Y-114254476D01*
X58966971Y-114302095D01*
X59014590Y-114397333D01*
X59014590Y-114778285D01*
X58824114Y-113349714D02*
X59490780Y-113349714D01*
X58443161Y-113587809D02*
X59157447Y-113825904D01*
X59157447Y-113206857D01*
X58490780Y-112635428D02*
X58490780Y-112540190D01*
X58538400Y-112444952D01*
X58586019Y-112397333D01*
X58681257Y-112349714D01*
X58871733Y-112302095D01*
X59109828Y-112302095D01*
X59300304Y-112349714D01*
X59395542Y-112397333D01*
X59443161Y-112444952D01*
X59490780Y-112540190D01*
X59490780Y-112635428D01*
X59443161Y-112730666D01*
X59395542Y-112778285D01*
X59300304Y-112825904D01*
X59109828Y-112873523D01*
X58871733Y-112873523D01*
X58681257Y-112825904D01*
X58586019Y-112778285D01*
X58538400Y-112730666D01*
X58490780Y-112635428D01*
%TO.C,R41*%
X63130780Y-107677857D02*
X62654590Y-108011190D01*
X63130780Y-108249285D02*
X62130780Y-108249285D01*
X62130780Y-107868333D01*
X62178400Y-107773095D01*
X62226019Y-107725476D01*
X62321257Y-107677857D01*
X62464114Y-107677857D01*
X62559352Y-107725476D01*
X62606971Y-107773095D01*
X62654590Y-107868333D01*
X62654590Y-108249285D01*
X62464114Y-106820714D02*
X63130780Y-106820714D01*
X62083161Y-107058809D02*
X62797447Y-107296904D01*
X62797447Y-106677857D01*
X63130780Y-105773095D02*
X63130780Y-106344523D01*
X63130780Y-106058809D02*
X62130780Y-106058809D01*
X62273638Y-106154047D01*
X62368876Y-106249285D01*
X62416495Y-106344523D01*
%TO.C,R42*%
X55510780Y-107677857D02*
X55034590Y-108011190D01*
X55510780Y-108249285D02*
X54510780Y-108249285D01*
X54510780Y-107868333D01*
X54558400Y-107773095D01*
X54606019Y-107725476D01*
X54701257Y-107677857D01*
X54844114Y-107677857D01*
X54939352Y-107725476D01*
X54986971Y-107773095D01*
X55034590Y-107868333D01*
X55034590Y-108249285D01*
X54844114Y-106820714D02*
X55510780Y-106820714D01*
X54463161Y-107058809D02*
X55177447Y-107296904D01*
X55177447Y-106677857D01*
X54606019Y-106344523D02*
X54558400Y-106296904D01*
X54510780Y-106201666D01*
X54510780Y-105963571D01*
X54558400Y-105868333D01*
X54606019Y-105820714D01*
X54701257Y-105773095D01*
X54796495Y-105773095D01*
X54939352Y-105820714D01*
X55510780Y-106392142D01*
X55510780Y-105773095D01*
%TO.C,R43*%
X78464580Y-95385457D02*
X77988390Y-95718790D01*
X78464580Y-95956885D02*
X77464580Y-95956885D01*
X77464580Y-95575933D01*
X77512200Y-95480695D01*
X77559819Y-95433076D01*
X77655057Y-95385457D01*
X77797914Y-95385457D01*
X77893152Y-95433076D01*
X77940771Y-95480695D01*
X77988390Y-95575933D01*
X77988390Y-95956885D01*
X77797914Y-94528314D02*
X78464580Y-94528314D01*
X77416961Y-94766409D02*
X78131247Y-95004504D01*
X78131247Y-94385457D01*
X77464580Y-94099742D02*
X77464580Y-93480695D01*
X77845533Y-93814028D01*
X77845533Y-93671171D01*
X77893152Y-93575933D01*
X77940771Y-93528314D01*
X78036009Y-93480695D01*
X78274104Y-93480695D01*
X78369342Y-93528314D01*
X78416961Y-93575933D01*
X78464580Y-93671171D01*
X78464580Y-93956885D01*
X78416961Y-94052123D01*
X78369342Y-94099742D01*
%TO.C,R44*%
X86211580Y-95385457D02*
X85735390Y-95718790D01*
X86211580Y-95956885D02*
X85211580Y-95956885D01*
X85211580Y-95575933D01*
X85259200Y-95480695D01*
X85306819Y-95433076D01*
X85402057Y-95385457D01*
X85544914Y-95385457D01*
X85640152Y-95433076D01*
X85687771Y-95480695D01*
X85735390Y-95575933D01*
X85735390Y-95956885D01*
X85544914Y-94528314D02*
X86211580Y-94528314D01*
X85163961Y-94766409D02*
X85878247Y-95004504D01*
X85878247Y-94385457D01*
X85544914Y-93575933D02*
X86211580Y-93575933D01*
X85163961Y-93814028D02*
X85878247Y-94052123D01*
X85878247Y-93433076D01*
%TO.C,R45*%
X89724580Y-88856457D02*
X89248390Y-89189790D01*
X89724580Y-89427885D02*
X88724580Y-89427885D01*
X88724580Y-89046933D01*
X88772200Y-88951695D01*
X88819819Y-88904076D01*
X88915057Y-88856457D01*
X89057914Y-88856457D01*
X89153152Y-88904076D01*
X89200771Y-88951695D01*
X89248390Y-89046933D01*
X89248390Y-89427885D01*
X89057914Y-87999314D02*
X89724580Y-87999314D01*
X88676961Y-88237409D02*
X89391247Y-88475504D01*
X89391247Y-87856457D01*
X88724580Y-86999314D02*
X88724580Y-87475504D01*
X89200771Y-87523123D01*
X89153152Y-87475504D01*
X89105533Y-87380266D01*
X89105533Y-87142171D01*
X89153152Y-87046933D01*
X89200771Y-86999314D01*
X89296009Y-86951695D01*
X89534104Y-86951695D01*
X89629342Y-86999314D01*
X89676961Y-87046933D01*
X89724580Y-87142171D01*
X89724580Y-87380266D01*
X89676961Y-87475504D01*
X89629342Y-87523123D01*
%TO.C,R46*%
X82104580Y-88856457D02*
X81628390Y-89189790D01*
X82104580Y-89427885D02*
X81104580Y-89427885D01*
X81104580Y-89046933D01*
X81152200Y-88951695D01*
X81199819Y-88904076D01*
X81295057Y-88856457D01*
X81437914Y-88856457D01*
X81533152Y-88904076D01*
X81580771Y-88951695D01*
X81628390Y-89046933D01*
X81628390Y-89427885D01*
X81437914Y-87999314D02*
X82104580Y-87999314D01*
X81056961Y-88237409D02*
X81771247Y-88475504D01*
X81771247Y-87856457D01*
X81104580Y-87046933D02*
X81104580Y-87237409D01*
X81152200Y-87332647D01*
X81199819Y-87380266D01*
X81342676Y-87475504D01*
X81533152Y-87523123D01*
X81914104Y-87523123D01*
X82009342Y-87475504D01*
X82056961Y-87427885D01*
X82104580Y-87332647D01*
X82104580Y-87142171D01*
X82056961Y-87046933D01*
X82009342Y-86999314D01*
X81914104Y-86951695D01*
X81676009Y-86951695D01*
X81580771Y-86999314D01*
X81533152Y-87046933D01*
X81485533Y-87142171D01*
X81485533Y-87332647D01*
X81533152Y-87427885D01*
X81580771Y-87475504D01*
X81676009Y-87523123D01*
%TO.C,R51*%
X157345142Y-125166380D02*
X157011809Y-124690190D01*
X156773714Y-125166380D02*
X156773714Y-124166380D01*
X157154666Y-124166380D01*
X157249904Y-124214000D01*
X157297523Y-124261619D01*
X157345142Y-124356857D01*
X157345142Y-124499714D01*
X157297523Y-124594952D01*
X157249904Y-124642571D01*
X157154666Y-124690190D01*
X156773714Y-124690190D01*
X158249904Y-124166380D02*
X157773714Y-124166380D01*
X157726095Y-124642571D01*
X157773714Y-124594952D01*
X157868952Y-124547333D01*
X158107047Y-124547333D01*
X158202285Y-124594952D01*
X158249904Y-124642571D01*
X158297523Y-124737809D01*
X158297523Y-124975904D01*
X158249904Y-125071142D01*
X158202285Y-125118761D01*
X158107047Y-125166380D01*
X157868952Y-125166380D01*
X157773714Y-125118761D01*
X157726095Y-125071142D01*
X159249904Y-125166380D02*
X158678476Y-125166380D01*
X158964190Y-125166380D02*
X158964190Y-124166380D01*
X158868952Y-124309238D01*
X158773714Y-124404476D01*
X158678476Y-124452095D01*
%TO.C,R52*%
X151503142Y-121559580D02*
X151169809Y-121083390D01*
X150931714Y-121559580D02*
X150931714Y-120559580D01*
X151312666Y-120559580D01*
X151407904Y-120607200D01*
X151455523Y-120654819D01*
X151503142Y-120750057D01*
X151503142Y-120892914D01*
X151455523Y-120988152D01*
X151407904Y-121035771D01*
X151312666Y-121083390D01*
X150931714Y-121083390D01*
X152407904Y-120559580D02*
X151931714Y-120559580D01*
X151884095Y-121035771D01*
X151931714Y-120988152D01*
X152026952Y-120940533D01*
X152265047Y-120940533D01*
X152360285Y-120988152D01*
X152407904Y-121035771D01*
X152455523Y-121131009D01*
X152455523Y-121369104D01*
X152407904Y-121464342D01*
X152360285Y-121511961D01*
X152265047Y-121559580D01*
X152026952Y-121559580D01*
X151931714Y-121511961D01*
X151884095Y-121464342D01*
X152836476Y-120654819D02*
X152884095Y-120607200D01*
X152979333Y-120559580D01*
X153217428Y-120559580D01*
X153312666Y-120607200D01*
X153360285Y-120654819D01*
X153407904Y-120750057D01*
X153407904Y-120845295D01*
X153360285Y-120988152D01*
X152788857Y-121559580D01*
X153407904Y-121559580D01*
%TO.C,R53*%
X145787542Y-121508780D02*
X145454209Y-121032590D01*
X145216114Y-121508780D02*
X145216114Y-120508780D01*
X145597066Y-120508780D01*
X145692304Y-120556400D01*
X145739923Y-120604019D01*
X145787542Y-120699257D01*
X145787542Y-120842114D01*
X145739923Y-120937352D01*
X145692304Y-120984971D01*
X145597066Y-121032590D01*
X145216114Y-121032590D01*
X146692304Y-120508780D02*
X146216114Y-120508780D01*
X146168495Y-120984971D01*
X146216114Y-120937352D01*
X146311352Y-120889733D01*
X146549447Y-120889733D01*
X146644685Y-120937352D01*
X146692304Y-120984971D01*
X146739923Y-121080209D01*
X146739923Y-121318304D01*
X146692304Y-121413542D01*
X146644685Y-121461161D01*
X146549447Y-121508780D01*
X146311352Y-121508780D01*
X146216114Y-121461161D01*
X146168495Y-121413542D01*
X147073257Y-120508780D02*
X147692304Y-120508780D01*
X147358971Y-120889733D01*
X147501828Y-120889733D01*
X147597066Y-120937352D01*
X147644685Y-120984971D01*
X147692304Y-121080209D01*
X147692304Y-121318304D01*
X147644685Y-121413542D01*
X147597066Y-121461161D01*
X147501828Y-121508780D01*
X147216114Y-121508780D01*
X147120876Y-121461161D01*
X147073257Y-121413542D01*
%TO.C,R54*%
X140097942Y-121356380D02*
X139764609Y-120880190D01*
X139526514Y-121356380D02*
X139526514Y-120356380D01*
X139907466Y-120356380D01*
X140002704Y-120404000D01*
X140050323Y-120451619D01*
X140097942Y-120546857D01*
X140097942Y-120689714D01*
X140050323Y-120784952D01*
X140002704Y-120832571D01*
X139907466Y-120880190D01*
X139526514Y-120880190D01*
X141002704Y-120356380D02*
X140526514Y-120356380D01*
X140478895Y-120832571D01*
X140526514Y-120784952D01*
X140621752Y-120737333D01*
X140859847Y-120737333D01*
X140955085Y-120784952D01*
X141002704Y-120832571D01*
X141050323Y-120927809D01*
X141050323Y-121165904D01*
X141002704Y-121261142D01*
X140955085Y-121308761D01*
X140859847Y-121356380D01*
X140621752Y-121356380D01*
X140526514Y-121308761D01*
X140478895Y-121261142D01*
X141907466Y-120689714D02*
X141907466Y-121356380D01*
X141669371Y-120308761D02*
X141431276Y-121023047D01*
X142050323Y-121023047D01*
%TO.C,R55*%
X51870780Y-95220357D02*
X51394590Y-95553690D01*
X51870780Y-95791785D02*
X50870780Y-95791785D01*
X50870780Y-95410833D01*
X50918400Y-95315595D01*
X50966019Y-95267976D01*
X51061257Y-95220357D01*
X51204114Y-95220357D01*
X51299352Y-95267976D01*
X51346971Y-95315595D01*
X51394590Y-95410833D01*
X51394590Y-95791785D01*
X50870780Y-94315595D02*
X50870780Y-94791785D01*
X51346971Y-94839404D01*
X51299352Y-94791785D01*
X51251733Y-94696547D01*
X51251733Y-94458452D01*
X51299352Y-94363214D01*
X51346971Y-94315595D01*
X51442209Y-94267976D01*
X51680304Y-94267976D01*
X51775542Y-94315595D01*
X51823161Y-94363214D01*
X51870780Y-94458452D01*
X51870780Y-94696547D01*
X51823161Y-94791785D01*
X51775542Y-94839404D01*
X50870780Y-93363214D02*
X50870780Y-93839404D01*
X51346971Y-93887023D01*
X51299352Y-93839404D01*
X51251733Y-93744166D01*
X51251733Y-93506071D01*
X51299352Y-93410833D01*
X51346971Y-93363214D01*
X51442209Y-93315595D01*
X51680304Y-93315595D01*
X51775542Y-93363214D01*
X51823161Y-93410833D01*
X51870780Y-93506071D01*
X51870780Y-93744166D01*
X51823161Y-93839404D01*
X51775542Y-93887023D01*
%TO.C,R56*%
X59617780Y-95220357D02*
X59141590Y-95553690D01*
X59617780Y-95791785D02*
X58617780Y-95791785D01*
X58617780Y-95410833D01*
X58665400Y-95315595D01*
X58713019Y-95267976D01*
X58808257Y-95220357D01*
X58951114Y-95220357D01*
X59046352Y-95267976D01*
X59093971Y-95315595D01*
X59141590Y-95410833D01*
X59141590Y-95791785D01*
X58617780Y-94315595D02*
X58617780Y-94791785D01*
X59093971Y-94839404D01*
X59046352Y-94791785D01*
X58998733Y-94696547D01*
X58998733Y-94458452D01*
X59046352Y-94363214D01*
X59093971Y-94315595D01*
X59189209Y-94267976D01*
X59427304Y-94267976D01*
X59522542Y-94315595D01*
X59570161Y-94363214D01*
X59617780Y-94458452D01*
X59617780Y-94696547D01*
X59570161Y-94791785D01*
X59522542Y-94839404D01*
X58617780Y-93410833D02*
X58617780Y-93601309D01*
X58665400Y-93696547D01*
X58713019Y-93744166D01*
X58855876Y-93839404D01*
X59046352Y-93887023D01*
X59427304Y-93887023D01*
X59522542Y-93839404D01*
X59570161Y-93791785D01*
X59617780Y-93696547D01*
X59617780Y-93506071D01*
X59570161Y-93410833D01*
X59522542Y-93363214D01*
X59427304Y-93315595D01*
X59189209Y-93315595D01*
X59093971Y-93363214D01*
X59046352Y-93410833D01*
X58998733Y-93506071D01*
X58998733Y-93696547D01*
X59046352Y-93791785D01*
X59093971Y-93839404D01*
X59189209Y-93887023D01*
%TO.C,R57*%
X63257780Y-88691357D02*
X62781590Y-89024690D01*
X63257780Y-89262785D02*
X62257780Y-89262785D01*
X62257780Y-88881833D01*
X62305400Y-88786595D01*
X62353019Y-88738976D01*
X62448257Y-88691357D01*
X62591114Y-88691357D01*
X62686352Y-88738976D01*
X62733971Y-88786595D01*
X62781590Y-88881833D01*
X62781590Y-89262785D01*
X62257780Y-87786595D02*
X62257780Y-88262785D01*
X62733971Y-88310404D01*
X62686352Y-88262785D01*
X62638733Y-88167547D01*
X62638733Y-87929452D01*
X62686352Y-87834214D01*
X62733971Y-87786595D01*
X62829209Y-87738976D01*
X63067304Y-87738976D01*
X63162542Y-87786595D01*
X63210161Y-87834214D01*
X63257780Y-87929452D01*
X63257780Y-88167547D01*
X63210161Y-88262785D01*
X63162542Y-88310404D01*
X62257780Y-87405642D02*
X62257780Y-86738976D01*
X63257780Y-87167547D01*
%TO.C,R58*%
X55510780Y-88691357D02*
X55034590Y-89024690D01*
X55510780Y-89262785D02*
X54510780Y-89262785D01*
X54510780Y-88881833D01*
X54558400Y-88786595D01*
X54606019Y-88738976D01*
X54701257Y-88691357D01*
X54844114Y-88691357D01*
X54939352Y-88738976D01*
X54986971Y-88786595D01*
X55034590Y-88881833D01*
X55034590Y-89262785D01*
X54510780Y-87786595D02*
X54510780Y-88262785D01*
X54986971Y-88310404D01*
X54939352Y-88262785D01*
X54891733Y-88167547D01*
X54891733Y-87929452D01*
X54939352Y-87834214D01*
X54986971Y-87786595D01*
X55082209Y-87738976D01*
X55320304Y-87738976D01*
X55415542Y-87786595D01*
X55463161Y-87834214D01*
X55510780Y-87929452D01*
X55510780Y-88167547D01*
X55463161Y-88262785D01*
X55415542Y-88310404D01*
X54939352Y-87167547D02*
X54891733Y-87262785D01*
X54844114Y-87310404D01*
X54748876Y-87358023D01*
X54701257Y-87358023D01*
X54606019Y-87310404D01*
X54558400Y-87262785D01*
X54510780Y-87167547D01*
X54510780Y-86977071D01*
X54558400Y-86881833D01*
X54606019Y-86834214D01*
X54701257Y-86786595D01*
X54748876Y-86786595D01*
X54844114Y-86834214D01*
X54891733Y-86881833D01*
X54939352Y-86977071D01*
X54939352Y-87167547D01*
X54986971Y-87262785D01*
X55034590Y-87310404D01*
X55129828Y-87358023D01*
X55320304Y-87358023D01*
X55415542Y-87310404D01*
X55463161Y-87262785D01*
X55510780Y-87167547D01*
X55510780Y-86977071D01*
X55463161Y-86881833D01*
X55415542Y-86834214D01*
X55320304Y-86786595D01*
X55129828Y-86786595D01*
X55034590Y-86834214D01*
X54986971Y-86881833D01*
X54939352Y-86977071D01*
%TO.C,R59*%
X44911180Y-75687757D02*
X44434990Y-76021090D01*
X44911180Y-76259185D02*
X43911180Y-76259185D01*
X43911180Y-75878233D01*
X43958800Y-75782995D01*
X44006419Y-75735376D01*
X44101657Y-75687757D01*
X44244514Y-75687757D01*
X44339752Y-75735376D01*
X44387371Y-75782995D01*
X44434990Y-75878233D01*
X44434990Y-76259185D01*
X43911180Y-74782995D02*
X43911180Y-75259185D01*
X44387371Y-75306804D01*
X44339752Y-75259185D01*
X44292133Y-75163947D01*
X44292133Y-74925852D01*
X44339752Y-74830614D01*
X44387371Y-74782995D01*
X44482609Y-74735376D01*
X44720704Y-74735376D01*
X44815942Y-74782995D01*
X44863561Y-74830614D01*
X44911180Y-74925852D01*
X44911180Y-75163947D01*
X44863561Y-75259185D01*
X44815942Y-75306804D01*
X44911180Y-74259185D02*
X44911180Y-74068709D01*
X44863561Y-73973471D01*
X44815942Y-73925852D01*
X44673085Y-73830614D01*
X44482609Y-73782995D01*
X44101657Y-73782995D01*
X44006419Y-73830614D01*
X43958800Y-73878233D01*
X43911180Y-73973471D01*
X43911180Y-74163947D01*
X43958800Y-74259185D01*
X44006419Y-74306804D01*
X44101657Y-74354423D01*
X44339752Y-74354423D01*
X44434990Y-74306804D01*
X44482609Y-74259185D01*
X44530228Y-74163947D01*
X44530228Y-73973471D01*
X44482609Y-73878233D01*
X44434990Y-73830614D01*
X44339752Y-73782995D01*
%TO.C,R60*%
X52658180Y-75687757D02*
X52181990Y-76021090D01*
X52658180Y-76259185D02*
X51658180Y-76259185D01*
X51658180Y-75878233D01*
X51705800Y-75782995D01*
X51753419Y-75735376D01*
X51848657Y-75687757D01*
X51991514Y-75687757D01*
X52086752Y-75735376D01*
X52134371Y-75782995D01*
X52181990Y-75878233D01*
X52181990Y-76259185D01*
X51658180Y-74830614D02*
X51658180Y-75021090D01*
X51705800Y-75116328D01*
X51753419Y-75163947D01*
X51896276Y-75259185D01*
X52086752Y-75306804D01*
X52467704Y-75306804D01*
X52562942Y-75259185D01*
X52610561Y-75211566D01*
X52658180Y-75116328D01*
X52658180Y-74925852D01*
X52610561Y-74830614D01*
X52562942Y-74782995D01*
X52467704Y-74735376D01*
X52229609Y-74735376D01*
X52134371Y-74782995D01*
X52086752Y-74830614D01*
X52039133Y-74925852D01*
X52039133Y-75116328D01*
X52086752Y-75211566D01*
X52134371Y-75259185D01*
X52229609Y-75306804D01*
X51658180Y-74116328D02*
X51658180Y-74021090D01*
X51705800Y-73925852D01*
X51753419Y-73878233D01*
X51848657Y-73830614D01*
X52039133Y-73782995D01*
X52277228Y-73782995D01*
X52467704Y-73830614D01*
X52562942Y-73878233D01*
X52610561Y-73925852D01*
X52658180Y-74021090D01*
X52658180Y-74116328D01*
X52610561Y-74211566D01*
X52562942Y-74259185D01*
X52467704Y-74306804D01*
X52277228Y-74354423D01*
X52039133Y-74354423D01*
X51848657Y-74306804D01*
X51753419Y-74259185D01*
X51705800Y-74211566D01*
X51658180Y-74116328D01*
%TO.C,R61*%
X56298180Y-69591757D02*
X55821990Y-69925090D01*
X56298180Y-70163185D02*
X55298180Y-70163185D01*
X55298180Y-69782233D01*
X55345800Y-69686995D01*
X55393419Y-69639376D01*
X55488657Y-69591757D01*
X55631514Y-69591757D01*
X55726752Y-69639376D01*
X55774371Y-69686995D01*
X55821990Y-69782233D01*
X55821990Y-70163185D01*
X55298180Y-68734614D02*
X55298180Y-68925090D01*
X55345800Y-69020328D01*
X55393419Y-69067947D01*
X55536276Y-69163185D01*
X55726752Y-69210804D01*
X56107704Y-69210804D01*
X56202942Y-69163185D01*
X56250561Y-69115566D01*
X56298180Y-69020328D01*
X56298180Y-68829852D01*
X56250561Y-68734614D01*
X56202942Y-68686995D01*
X56107704Y-68639376D01*
X55869609Y-68639376D01*
X55774371Y-68686995D01*
X55726752Y-68734614D01*
X55679133Y-68829852D01*
X55679133Y-69020328D01*
X55726752Y-69115566D01*
X55774371Y-69163185D01*
X55869609Y-69210804D01*
X56298180Y-67686995D02*
X56298180Y-68258423D01*
X56298180Y-67972709D02*
X55298180Y-67972709D01*
X55441038Y-68067947D01*
X55536276Y-68163185D01*
X55583895Y-68258423D01*
%TO.C,R62*%
X48551180Y-69539757D02*
X48074990Y-69873090D01*
X48551180Y-70111185D02*
X47551180Y-70111185D01*
X47551180Y-69730233D01*
X47598800Y-69634995D01*
X47646419Y-69587376D01*
X47741657Y-69539757D01*
X47884514Y-69539757D01*
X47979752Y-69587376D01*
X48027371Y-69634995D01*
X48074990Y-69730233D01*
X48074990Y-70111185D01*
X47551180Y-68682614D02*
X47551180Y-68873090D01*
X47598800Y-68968328D01*
X47646419Y-69015947D01*
X47789276Y-69111185D01*
X47979752Y-69158804D01*
X48360704Y-69158804D01*
X48455942Y-69111185D01*
X48503561Y-69063566D01*
X48551180Y-68968328D01*
X48551180Y-68777852D01*
X48503561Y-68682614D01*
X48455942Y-68634995D01*
X48360704Y-68587376D01*
X48122609Y-68587376D01*
X48027371Y-68634995D01*
X47979752Y-68682614D01*
X47932133Y-68777852D01*
X47932133Y-68968328D01*
X47979752Y-69063566D01*
X48027371Y-69111185D01*
X48122609Y-69158804D01*
X47646419Y-68206423D02*
X47598800Y-68158804D01*
X47551180Y-68063566D01*
X47551180Y-67825471D01*
X47598800Y-67730233D01*
X47646419Y-67682614D01*
X47741657Y-67634995D01*
X47836895Y-67634995D01*
X47979752Y-67682614D01*
X48551180Y-68254042D01*
X48551180Y-67634995D01*
%TO.C,R67*%
X157243542Y-118409980D02*
X156910209Y-117933790D01*
X156672114Y-118409980D02*
X156672114Y-117409980D01*
X157053066Y-117409980D01*
X157148304Y-117457600D01*
X157195923Y-117505219D01*
X157243542Y-117600457D01*
X157243542Y-117743314D01*
X157195923Y-117838552D01*
X157148304Y-117886171D01*
X157053066Y-117933790D01*
X156672114Y-117933790D01*
X158100685Y-117409980D02*
X157910209Y-117409980D01*
X157814971Y-117457600D01*
X157767352Y-117505219D01*
X157672114Y-117648076D01*
X157624495Y-117838552D01*
X157624495Y-118219504D01*
X157672114Y-118314742D01*
X157719733Y-118362361D01*
X157814971Y-118409980D01*
X158005447Y-118409980D01*
X158100685Y-118362361D01*
X158148304Y-118314742D01*
X158195923Y-118219504D01*
X158195923Y-117981409D01*
X158148304Y-117886171D01*
X158100685Y-117838552D01*
X158005447Y-117790933D01*
X157814971Y-117790933D01*
X157719733Y-117838552D01*
X157672114Y-117886171D01*
X157624495Y-117981409D01*
X158529257Y-117409980D02*
X159195923Y-117409980D01*
X158767352Y-118409980D01*
%TO.C,R68*%
X151553942Y-122016780D02*
X151220609Y-121540590D01*
X150982514Y-122016780D02*
X150982514Y-121016780D01*
X151363466Y-121016780D01*
X151458704Y-121064400D01*
X151506323Y-121112019D01*
X151553942Y-121207257D01*
X151553942Y-121350114D01*
X151506323Y-121445352D01*
X151458704Y-121492971D01*
X151363466Y-121540590D01*
X150982514Y-121540590D01*
X152411085Y-121016780D02*
X152220609Y-121016780D01*
X152125371Y-121064400D01*
X152077752Y-121112019D01*
X151982514Y-121254876D01*
X151934895Y-121445352D01*
X151934895Y-121826304D01*
X151982514Y-121921542D01*
X152030133Y-121969161D01*
X152125371Y-122016780D01*
X152315847Y-122016780D01*
X152411085Y-121969161D01*
X152458704Y-121921542D01*
X152506323Y-121826304D01*
X152506323Y-121588209D01*
X152458704Y-121492971D01*
X152411085Y-121445352D01*
X152315847Y-121397733D01*
X152125371Y-121397733D01*
X152030133Y-121445352D01*
X151982514Y-121492971D01*
X151934895Y-121588209D01*
X153077752Y-121445352D02*
X152982514Y-121397733D01*
X152934895Y-121350114D01*
X152887276Y-121254876D01*
X152887276Y-121207257D01*
X152934895Y-121112019D01*
X152982514Y-121064400D01*
X153077752Y-121016780D01*
X153268228Y-121016780D01*
X153363466Y-121064400D01*
X153411085Y-121112019D01*
X153458704Y-121207257D01*
X153458704Y-121254876D01*
X153411085Y-121350114D01*
X153363466Y-121397733D01*
X153268228Y-121445352D01*
X153077752Y-121445352D01*
X152982514Y-121492971D01*
X152934895Y-121540590D01*
X152887276Y-121635828D01*
X152887276Y-121826304D01*
X152934895Y-121921542D01*
X152982514Y-121969161D01*
X153077752Y-122016780D01*
X153268228Y-122016780D01*
X153363466Y-121969161D01*
X153411085Y-121921542D01*
X153458704Y-121826304D01*
X153458704Y-121635828D01*
X153411085Y-121540590D01*
X153363466Y-121492971D01*
X153268228Y-121445352D01*
%TO.C,R69*%
X145787542Y-122169180D02*
X145454209Y-121692990D01*
X145216114Y-122169180D02*
X145216114Y-121169180D01*
X145597066Y-121169180D01*
X145692304Y-121216800D01*
X145739923Y-121264419D01*
X145787542Y-121359657D01*
X145787542Y-121502514D01*
X145739923Y-121597752D01*
X145692304Y-121645371D01*
X145597066Y-121692990D01*
X145216114Y-121692990D01*
X146644685Y-121169180D02*
X146454209Y-121169180D01*
X146358971Y-121216800D01*
X146311352Y-121264419D01*
X146216114Y-121407276D01*
X146168495Y-121597752D01*
X146168495Y-121978704D01*
X146216114Y-122073942D01*
X146263733Y-122121561D01*
X146358971Y-122169180D01*
X146549447Y-122169180D01*
X146644685Y-122121561D01*
X146692304Y-122073942D01*
X146739923Y-121978704D01*
X146739923Y-121740609D01*
X146692304Y-121645371D01*
X146644685Y-121597752D01*
X146549447Y-121550133D01*
X146358971Y-121550133D01*
X146263733Y-121597752D01*
X146216114Y-121645371D01*
X146168495Y-121740609D01*
X147216114Y-122169180D02*
X147406590Y-122169180D01*
X147501828Y-122121561D01*
X147549447Y-122073942D01*
X147644685Y-121931085D01*
X147692304Y-121740609D01*
X147692304Y-121359657D01*
X147644685Y-121264419D01*
X147597066Y-121216800D01*
X147501828Y-121169180D01*
X147311352Y-121169180D01*
X147216114Y-121216800D01*
X147168495Y-121264419D01*
X147120876Y-121359657D01*
X147120876Y-121597752D01*
X147168495Y-121692990D01*
X147216114Y-121740609D01*
X147311352Y-121788228D01*
X147501828Y-121788228D01*
X147597066Y-121740609D01*
X147644685Y-121692990D01*
X147692304Y-121597752D01*
%TO.C,R70*%
X140073142Y-121965980D02*
X139739809Y-121489790D01*
X139501714Y-121965980D02*
X139501714Y-120965980D01*
X139882666Y-120965980D01*
X139977904Y-121013600D01*
X140025523Y-121061219D01*
X140073142Y-121156457D01*
X140073142Y-121299314D01*
X140025523Y-121394552D01*
X139977904Y-121442171D01*
X139882666Y-121489790D01*
X139501714Y-121489790D01*
X140406476Y-120965980D02*
X141073142Y-120965980D01*
X140644571Y-121965980D01*
X141644571Y-120965980D02*
X141739809Y-120965980D01*
X141835047Y-121013600D01*
X141882666Y-121061219D01*
X141930285Y-121156457D01*
X141977904Y-121346933D01*
X141977904Y-121585028D01*
X141930285Y-121775504D01*
X141882666Y-121870742D01*
X141835047Y-121918361D01*
X141739809Y-121965980D01*
X141644571Y-121965980D01*
X141549333Y-121918361D01*
X141501714Y-121870742D01*
X141454095Y-121775504D01*
X141406476Y-121585028D01*
X141406476Y-121346933D01*
X141454095Y-121156457D01*
X141501714Y-121061219D01*
X141549333Y-121013600D01*
X141644571Y-120965980D01*
%TO.C,R71*%
X166640342Y-120899180D02*
X166307009Y-120422990D01*
X166068914Y-120899180D02*
X166068914Y-119899180D01*
X166449866Y-119899180D01*
X166545104Y-119946800D01*
X166592723Y-119994419D01*
X166640342Y-120089657D01*
X166640342Y-120232514D01*
X166592723Y-120327752D01*
X166545104Y-120375371D01*
X166449866Y-120422990D01*
X166068914Y-120422990D01*
X166973676Y-119899180D02*
X167640342Y-119899180D01*
X167211771Y-120899180D01*
X168545104Y-120899180D02*
X167973676Y-120899180D01*
X168259390Y-120899180D02*
X168259390Y-119899180D01*
X168164152Y-120042038D01*
X168068914Y-120137276D01*
X167973676Y-120184895D01*
%TO.C,R72*%
X172329942Y-120899180D02*
X171996609Y-120422990D01*
X171758514Y-120899180D02*
X171758514Y-119899180D01*
X172139466Y-119899180D01*
X172234704Y-119946800D01*
X172282323Y-119994419D01*
X172329942Y-120089657D01*
X172329942Y-120232514D01*
X172282323Y-120327752D01*
X172234704Y-120375371D01*
X172139466Y-120422990D01*
X171758514Y-120422990D01*
X172663276Y-119899180D02*
X173329942Y-119899180D01*
X172901371Y-120899180D01*
X173663276Y-119994419D02*
X173710895Y-119946800D01*
X173806133Y-119899180D01*
X174044228Y-119899180D01*
X174139466Y-119946800D01*
X174187085Y-119994419D01*
X174234704Y-120089657D01*
X174234704Y-120184895D01*
X174187085Y-120327752D01*
X173615657Y-120899180D01*
X174234704Y-120899180D01*
%TO.C,R73*%
X178071542Y-120899180D02*
X177738209Y-120422990D01*
X177500114Y-120899180D02*
X177500114Y-119899180D01*
X177881066Y-119899180D01*
X177976304Y-119946800D01*
X178023923Y-119994419D01*
X178071542Y-120089657D01*
X178071542Y-120232514D01*
X178023923Y-120327752D01*
X177976304Y-120375371D01*
X177881066Y-120422990D01*
X177500114Y-120422990D01*
X178404876Y-119899180D02*
X179071542Y-119899180D01*
X178642971Y-120899180D01*
X179357257Y-119899180D02*
X179976304Y-119899180D01*
X179642971Y-120280133D01*
X179785828Y-120280133D01*
X179881066Y-120327752D01*
X179928685Y-120375371D01*
X179976304Y-120470609D01*
X179976304Y-120708704D01*
X179928685Y-120803942D01*
X179881066Y-120851561D01*
X179785828Y-120899180D01*
X179500114Y-120899180D01*
X179404876Y-120851561D01*
X179357257Y-120803942D01*
%TO.C,R74*%
X183761142Y-120899180D02*
X183427809Y-120422990D01*
X183189714Y-120899180D02*
X183189714Y-119899180D01*
X183570666Y-119899180D01*
X183665904Y-119946800D01*
X183713523Y-119994419D01*
X183761142Y-120089657D01*
X183761142Y-120232514D01*
X183713523Y-120327752D01*
X183665904Y-120375371D01*
X183570666Y-120422990D01*
X183189714Y-120422990D01*
X184094476Y-119899180D02*
X184761142Y-119899180D01*
X184332571Y-120899180D01*
X185570666Y-120232514D02*
X185570666Y-120899180D01*
X185332571Y-119851561D02*
X185094476Y-120565847D01*
X185713523Y-120565847D01*
%TO.C,R75*%
X219093142Y-125259180D02*
X218759809Y-124782990D01*
X218521714Y-125259180D02*
X218521714Y-124259180D01*
X218902666Y-124259180D01*
X218997904Y-124306800D01*
X219045523Y-124354419D01*
X219093142Y-124449657D01*
X219093142Y-124592514D01*
X219045523Y-124687752D01*
X218997904Y-124735371D01*
X218902666Y-124782990D01*
X218521714Y-124782990D01*
X219426476Y-124259180D02*
X220093142Y-124259180D01*
X219664571Y-125259180D01*
X220950285Y-124259180D02*
X220474095Y-124259180D01*
X220426476Y-124735371D01*
X220474095Y-124687752D01*
X220569333Y-124640133D01*
X220807428Y-124640133D01*
X220902666Y-124687752D01*
X220950285Y-124735371D01*
X220997904Y-124830609D01*
X220997904Y-125068704D01*
X220950285Y-125163942D01*
X220902666Y-125211561D01*
X220807428Y-125259180D01*
X220569333Y-125259180D01*
X220474095Y-125211561D01*
X220426476Y-125163942D01*
%TO.C,R76*%
X212997142Y-125157580D02*
X212663809Y-124681390D01*
X212425714Y-125157580D02*
X212425714Y-124157580D01*
X212806666Y-124157580D01*
X212901904Y-124205200D01*
X212949523Y-124252819D01*
X212997142Y-124348057D01*
X212997142Y-124490914D01*
X212949523Y-124586152D01*
X212901904Y-124633771D01*
X212806666Y-124681390D01*
X212425714Y-124681390D01*
X213330476Y-124157580D02*
X213997142Y-124157580D01*
X213568571Y-125157580D01*
X214806666Y-124157580D02*
X214616190Y-124157580D01*
X214520952Y-124205200D01*
X214473333Y-124252819D01*
X214378095Y-124395676D01*
X214330476Y-124586152D01*
X214330476Y-124967104D01*
X214378095Y-125062342D01*
X214425714Y-125109961D01*
X214520952Y-125157580D01*
X214711428Y-125157580D01*
X214806666Y-125109961D01*
X214854285Y-125062342D01*
X214901904Y-124967104D01*
X214901904Y-124729009D01*
X214854285Y-124633771D01*
X214806666Y-124586152D01*
X214711428Y-124538533D01*
X214520952Y-124538533D01*
X214425714Y-124586152D01*
X214378095Y-124633771D01*
X214330476Y-124729009D01*
%TO.C,R77*%
X206875142Y-125157580D02*
X206541809Y-124681390D01*
X206303714Y-125157580D02*
X206303714Y-124157580D01*
X206684666Y-124157580D01*
X206779904Y-124205200D01*
X206827523Y-124252819D01*
X206875142Y-124348057D01*
X206875142Y-124490914D01*
X206827523Y-124586152D01*
X206779904Y-124633771D01*
X206684666Y-124681390D01*
X206303714Y-124681390D01*
X207208476Y-124157580D02*
X207875142Y-124157580D01*
X207446571Y-125157580D01*
X208160857Y-124157580D02*
X208827523Y-124157580D01*
X208398952Y-125157580D01*
%TO.C,R78*%
X200855942Y-125157580D02*
X200522609Y-124681390D01*
X200284514Y-125157580D02*
X200284514Y-124157580D01*
X200665466Y-124157580D01*
X200760704Y-124205200D01*
X200808323Y-124252819D01*
X200855942Y-124348057D01*
X200855942Y-124490914D01*
X200808323Y-124586152D01*
X200760704Y-124633771D01*
X200665466Y-124681390D01*
X200284514Y-124681390D01*
X201189276Y-124157580D02*
X201855942Y-124157580D01*
X201427371Y-125157580D01*
X202379752Y-124586152D02*
X202284514Y-124538533D01*
X202236895Y-124490914D01*
X202189276Y-124395676D01*
X202189276Y-124348057D01*
X202236895Y-124252819D01*
X202284514Y-124205200D01*
X202379752Y-124157580D01*
X202570228Y-124157580D01*
X202665466Y-124205200D01*
X202713085Y-124252819D01*
X202760704Y-124348057D01*
X202760704Y-124395676D01*
X202713085Y-124490914D01*
X202665466Y-124538533D01*
X202570228Y-124586152D01*
X202379752Y-124586152D01*
X202284514Y-124633771D01*
X202236895Y-124681390D01*
X202189276Y-124776628D01*
X202189276Y-124967104D01*
X202236895Y-125062342D01*
X202284514Y-125109961D01*
X202379752Y-125157580D01*
X202570228Y-125157580D01*
X202665466Y-125109961D01*
X202713085Y-125062342D01*
X202760704Y-124967104D01*
X202760704Y-124776628D01*
X202713085Y-124681390D01*
X202665466Y-124633771D01*
X202570228Y-124586152D01*
%TO.C,R79*%
X166539942Y-127249180D02*
X166206609Y-126772990D01*
X165968514Y-127249180D02*
X165968514Y-126249180D01*
X166349466Y-126249180D01*
X166444704Y-126296800D01*
X166492323Y-126344419D01*
X166539942Y-126439657D01*
X166539942Y-126582514D01*
X166492323Y-126677752D01*
X166444704Y-126725371D01*
X166349466Y-126772990D01*
X165968514Y-126772990D01*
X166873276Y-126249180D02*
X167539942Y-126249180D01*
X167111371Y-127249180D01*
X167968514Y-127249180D02*
X168158990Y-127249180D01*
X168254228Y-127201561D01*
X168301847Y-127153942D01*
X168397085Y-127011085D01*
X168444704Y-126820609D01*
X168444704Y-126439657D01*
X168397085Y-126344419D01*
X168349466Y-126296800D01*
X168254228Y-126249180D01*
X168063752Y-126249180D01*
X167968514Y-126296800D01*
X167920895Y-126344419D01*
X167873276Y-126439657D01*
X167873276Y-126677752D01*
X167920895Y-126772990D01*
X167968514Y-126820609D01*
X168063752Y-126868228D01*
X168254228Y-126868228D01*
X168349466Y-126820609D01*
X168397085Y-126772990D01*
X168444704Y-126677752D01*
%TO.C,R80*%
X172178742Y-127249180D02*
X171845409Y-126772990D01*
X171607314Y-127249180D02*
X171607314Y-126249180D01*
X171988266Y-126249180D01*
X172083504Y-126296800D01*
X172131123Y-126344419D01*
X172178742Y-126439657D01*
X172178742Y-126582514D01*
X172131123Y-126677752D01*
X172083504Y-126725371D01*
X171988266Y-126772990D01*
X171607314Y-126772990D01*
X172750171Y-126677752D02*
X172654933Y-126630133D01*
X172607314Y-126582514D01*
X172559695Y-126487276D01*
X172559695Y-126439657D01*
X172607314Y-126344419D01*
X172654933Y-126296800D01*
X172750171Y-126249180D01*
X172940647Y-126249180D01*
X173035885Y-126296800D01*
X173083504Y-126344419D01*
X173131123Y-126439657D01*
X173131123Y-126487276D01*
X173083504Y-126582514D01*
X173035885Y-126630133D01*
X172940647Y-126677752D01*
X172750171Y-126677752D01*
X172654933Y-126725371D01*
X172607314Y-126772990D01*
X172559695Y-126868228D01*
X172559695Y-127058704D01*
X172607314Y-127153942D01*
X172654933Y-127201561D01*
X172750171Y-127249180D01*
X172940647Y-127249180D01*
X173035885Y-127201561D01*
X173083504Y-127153942D01*
X173131123Y-127058704D01*
X173131123Y-126868228D01*
X173083504Y-126772990D01*
X173035885Y-126725371D01*
X172940647Y-126677752D01*
X173750171Y-126249180D02*
X173845409Y-126249180D01*
X173940647Y-126296800D01*
X173988266Y-126344419D01*
X174035885Y-126439657D01*
X174083504Y-126630133D01*
X174083504Y-126868228D01*
X174035885Y-127058704D01*
X173988266Y-127153942D01*
X173940647Y-127201561D01*
X173845409Y-127249180D01*
X173750171Y-127249180D01*
X173654933Y-127201561D01*
X173607314Y-127153942D01*
X173559695Y-127058704D01*
X173512076Y-126868228D01*
X173512076Y-126630133D01*
X173559695Y-126439657D01*
X173607314Y-126344419D01*
X173654933Y-126296800D01*
X173750171Y-126249180D01*
%TO.C,R81*%
X177969942Y-127198380D02*
X177636609Y-126722190D01*
X177398514Y-127198380D02*
X177398514Y-126198380D01*
X177779466Y-126198380D01*
X177874704Y-126246000D01*
X177922323Y-126293619D01*
X177969942Y-126388857D01*
X177969942Y-126531714D01*
X177922323Y-126626952D01*
X177874704Y-126674571D01*
X177779466Y-126722190D01*
X177398514Y-126722190D01*
X178541371Y-126626952D02*
X178446133Y-126579333D01*
X178398514Y-126531714D01*
X178350895Y-126436476D01*
X178350895Y-126388857D01*
X178398514Y-126293619D01*
X178446133Y-126246000D01*
X178541371Y-126198380D01*
X178731847Y-126198380D01*
X178827085Y-126246000D01*
X178874704Y-126293619D01*
X178922323Y-126388857D01*
X178922323Y-126436476D01*
X178874704Y-126531714D01*
X178827085Y-126579333D01*
X178731847Y-126626952D01*
X178541371Y-126626952D01*
X178446133Y-126674571D01*
X178398514Y-126722190D01*
X178350895Y-126817428D01*
X178350895Y-127007904D01*
X178398514Y-127103142D01*
X178446133Y-127150761D01*
X178541371Y-127198380D01*
X178731847Y-127198380D01*
X178827085Y-127150761D01*
X178874704Y-127103142D01*
X178922323Y-127007904D01*
X178922323Y-126817428D01*
X178874704Y-126722190D01*
X178827085Y-126674571D01*
X178731847Y-126626952D01*
X179874704Y-127198380D02*
X179303276Y-127198380D01*
X179588990Y-127198380D02*
X179588990Y-126198380D01*
X179493752Y-126341238D01*
X179398514Y-126436476D01*
X179303276Y-126484095D01*
%TO.C,R82*%
X183659542Y-127147580D02*
X183326209Y-126671390D01*
X183088114Y-127147580D02*
X183088114Y-126147580D01*
X183469066Y-126147580D01*
X183564304Y-126195200D01*
X183611923Y-126242819D01*
X183659542Y-126338057D01*
X183659542Y-126480914D01*
X183611923Y-126576152D01*
X183564304Y-126623771D01*
X183469066Y-126671390D01*
X183088114Y-126671390D01*
X184230971Y-126576152D02*
X184135733Y-126528533D01*
X184088114Y-126480914D01*
X184040495Y-126385676D01*
X184040495Y-126338057D01*
X184088114Y-126242819D01*
X184135733Y-126195200D01*
X184230971Y-126147580D01*
X184421447Y-126147580D01*
X184516685Y-126195200D01*
X184564304Y-126242819D01*
X184611923Y-126338057D01*
X184611923Y-126385676D01*
X184564304Y-126480914D01*
X184516685Y-126528533D01*
X184421447Y-126576152D01*
X184230971Y-126576152D01*
X184135733Y-126623771D01*
X184088114Y-126671390D01*
X184040495Y-126766628D01*
X184040495Y-126957104D01*
X184088114Y-127052342D01*
X184135733Y-127099961D01*
X184230971Y-127147580D01*
X184421447Y-127147580D01*
X184516685Y-127099961D01*
X184564304Y-127052342D01*
X184611923Y-126957104D01*
X184611923Y-126766628D01*
X184564304Y-126671390D01*
X184516685Y-126623771D01*
X184421447Y-126576152D01*
X184992876Y-126242819D02*
X185040495Y-126195200D01*
X185135733Y-126147580D01*
X185373828Y-126147580D01*
X185469066Y-126195200D01*
X185516685Y-126242819D01*
X185564304Y-126338057D01*
X185564304Y-126433295D01*
X185516685Y-126576152D01*
X184945257Y-127147580D01*
X185564304Y-127147580D01*
%TO.C,R83*%
X219091942Y-118469580D02*
X218758609Y-117993390D01*
X218520514Y-118469580D02*
X218520514Y-117469580D01*
X218901466Y-117469580D01*
X218996704Y-117517200D01*
X219044323Y-117564819D01*
X219091942Y-117660057D01*
X219091942Y-117802914D01*
X219044323Y-117898152D01*
X218996704Y-117945771D01*
X218901466Y-117993390D01*
X218520514Y-117993390D01*
X219663371Y-117898152D02*
X219568133Y-117850533D01*
X219520514Y-117802914D01*
X219472895Y-117707676D01*
X219472895Y-117660057D01*
X219520514Y-117564819D01*
X219568133Y-117517200D01*
X219663371Y-117469580D01*
X219853847Y-117469580D01*
X219949085Y-117517200D01*
X219996704Y-117564819D01*
X220044323Y-117660057D01*
X220044323Y-117707676D01*
X219996704Y-117802914D01*
X219949085Y-117850533D01*
X219853847Y-117898152D01*
X219663371Y-117898152D01*
X219568133Y-117945771D01*
X219520514Y-117993390D01*
X219472895Y-118088628D01*
X219472895Y-118279104D01*
X219520514Y-118374342D01*
X219568133Y-118421961D01*
X219663371Y-118469580D01*
X219853847Y-118469580D01*
X219949085Y-118421961D01*
X219996704Y-118374342D01*
X220044323Y-118279104D01*
X220044323Y-118088628D01*
X219996704Y-117993390D01*
X219949085Y-117945771D01*
X219853847Y-117898152D01*
X220377657Y-117469580D02*
X220996704Y-117469580D01*
X220663371Y-117850533D01*
X220806228Y-117850533D01*
X220901466Y-117898152D01*
X220949085Y-117945771D01*
X220996704Y-118041009D01*
X220996704Y-118279104D01*
X220949085Y-118374342D01*
X220901466Y-118421961D01*
X220806228Y-118469580D01*
X220520514Y-118469580D01*
X220425276Y-118421961D01*
X220377657Y-118374342D01*
%TO.C,R84*%
X212995942Y-118469580D02*
X212662609Y-117993390D01*
X212424514Y-118469580D02*
X212424514Y-117469580D01*
X212805466Y-117469580D01*
X212900704Y-117517200D01*
X212948323Y-117564819D01*
X212995942Y-117660057D01*
X212995942Y-117802914D01*
X212948323Y-117898152D01*
X212900704Y-117945771D01*
X212805466Y-117993390D01*
X212424514Y-117993390D01*
X213567371Y-117898152D02*
X213472133Y-117850533D01*
X213424514Y-117802914D01*
X213376895Y-117707676D01*
X213376895Y-117660057D01*
X213424514Y-117564819D01*
X213472133Y-117517200D01*
X213567371Y-117469580D01*
X213757847Y-117469580D01*
X213853085Y-117517200D01*
X213900704Y-117564819D01*
X213948323Y-117660057D01*
X213948323Y-117707676D01*
X213900704Y-117802914D01*
X213853085Y-117850533D01*
X213757847Y-117898152D01*
X213567371Y-117898152D01*
X213472133Y-117945771D01*
X213424514Y-117993390D01*
X213376895Y-118088628D01*
X213376895Y-118279104D01*
X213424514Y-118374342D01*
X213472133Y-118421961D01*
X213567371Y-118469580D01*
X213757847Y-118469580D01*
X213853085Y-118421961D01*
X213900704Y-118374342D01*
X213948323Y-118279104D01*
X213948323Y-118088628D01*
X213900704Y-117993390D01*
X213853085Y-117945771D01*
X213757847Y-117898152D01*
X214805466Y-117802914D02*
X214805466Y-118469580D01*
X214567371Y-117421961D02*
X214329276Y-118136247D01*
X214948323Y-118136247D01*
%TO.C,R85*%
X206849142Y-118469580D02*
X206515809Y-117993390D01*
X206277714Y-118469580D02*
X206277714Y-117469580D01*
X206658666Y-117469580D01*
X206753904Y-117517200D01*
X206801523Y-117564819D01*
X206849142Y-117660057D01*
X206849142Y-117802914D01*
X206801523Y-117898152D01*
X206753904Y-117945771D01*
X206658666Y-117993390D01*
X206277714Y-117993390D01*
X207420571Y-117898152D02*
X207325333Y-117850533D01*
X207277714Y-117802914D01*
X207230095Y-117707676D01*
X207230095Y-117660057D01*
X207277714Y-117564819D01*
X207325333Y-117517200D01*
X207420571Y-117469580D01*
X207611047Y-117469580D01*
X207706285Y-117517200D01*
X207753904Y-117564819D01*
X207801523Y-117660057D01*
X207801523Y-117707676D01*
X207753904Y-117802914D01*
X207706285Y-117850533D01*
X207611047Y-117898152D01*
X207420571Y-117898152D01*
X207325333Y-117945771D01*
X207277714Y-117993390D01*
X207230095Y-118088628D01*
X207230095Y-118279104D01*
X207277714Y-118374342D01*
X207325333Y-118421961D01*
X207420571Y-118469580D01*
X207611047Y-118469580D01*
X207706285Y-118421961D01*
X207753904Y-118374342D01*
X207801523Y-118279104D01*
X207801523Y-118088628D01*
X207753904Y-117993390D01*
X207706285Y-117945771D01*
X207611047Y-117898152D01*
X208706285Y-117469580D02*
X208230095Y-117469580D01*
X208182476Y-117945771D01*
X208230095Y-117898152D01*
X208325333Y-117850533D01*
X208563428Y-117850533D01*
X208658666Y-117898152D01*
X208706285Y-117945771D01*
X208753904Y-118041009D01*
X208753904Y-118279104D01*
X208706285Y-118374342D01*
X208658666Y-118421961D01*
X208563428Y-118469580D01*
X208325333Y-118469580D01*
X208230095Y-118421961D01*
X208182476Y-118374342D01*
%TO.C,R86*%
X200854742Y-118469580D02*
X200521409Y-117993390D01*
X200283314Y-118469580D02*
X200283314Y-117469580D01*
X200664266Y-117469580D01*
X200759504Y-117517200D01*
X200807123Y-117564819D01*
X200854742Y-117660057D01*
X200854742Y-117802914D01*
X200807123Y-117898152D01*
X200759504Y-117945771D01*
X200664266Y-117993390D01*
X200283314Y-117993390D01*
X201426171Y-117898152D02*
X201330933Y-117850533D01*
X201283314Y-117802914D01*
X201235695Y-117707676D01*
X201235695Y-117660057D01*
X201283314Y-117564819D01*
X201330933Y-117517200D01*
X201426171Y-117469580D01*
X201616647Y-117469580D01*
X201711885Y-117517200D01*
X201759504Y-117564819D01*
X201807123Y-117660057D01*
X201807123Y-117707676D01*
X201759504Y-117802914D01*
X201711885Y-117850533D01*
X201616647Y-117898152D01*
X201426171Y-117898152D01*
X201330933Y-117945771D01*
X201283314Y-117993390D01*
X201235695Y-118088628D01*
X201235695Y-118279104D01*
X201283314Y-118374342D01*
X201330933Y-118421961D01*
X201426171Y-118469580D01*
X201616647Y-118469580D01*
X201711885Y-118421961D01*
X201759504Y-118374342D01*
X201807123Y-118279104D01*
X201807123Y-118088628D01*
X201759504Y-117993390D01*
X201711885Y-117945771D01*
X201616647Y-117898152D01*
X202664266Y-117469580D02*
X202473790Y-117469580D01*
X202378552Y-117517200D01*
X202330933Y-117564819D01*
X202235695Y-117707676D01*
X202188076Y-117898152D01*
X202188076Y-118279104D01*
X202235695Y-118374342D01*
X202283314Y-118421961D01*
X202378552Y-118469580D01*
X202569028Y-118469580D01*
X202664266Y-118421961D01*
X202711885Y-118374342D01*
X202759504Y-118279104D01*
X202759504Y-118041009D01*
X202711885Y-117945771D01*
X202664266Y-117898152D01*
X202569028Y-117850533D01*
X202378552Y-117850533D01*
X202283314Y-117898152D01*
X202235695Y-117945771D01*
X202188076Y-118041009D01*
%TO.C,R87*%
X235085142Y-34933880D02*
X234751809Y-34457690D01*
X234513714Y-34933880D02*
X234513714Y-33933880D01*
X234894666Y-33933880D01*
X234989904Y-33981500D01*
X235037523Y-34029119D01*
X235085142Y-34124357D01*
X235085142Y-34267214D01*
X235037523Y-34362452D01*
X234989904Y-34410071D01*
X234894666Y-34457690D01*
X234513714Y-34457690D01*
X235656571Y-34362452D02*
X235561333Y-34314833D01*
X235513714Y-34267214D01*
X235466095Y-34171976D01*
X235466095Y-34124357D01*
X235513714Y-34029119D01*
X235561333Y-33981500D01*
X235656571Y-33933880D01*
X235847047Y-33933880D01*
X235942285Y-33981500D01*
X235989904Y-34029119D01*
X236037523Y-34124357D01*
X236037523Y-34171976D01*
X235989904Y-34267214D01*
X235942285Y-34314833D01*
X235847047Y-34362452D01*
X235656571Y-34362452D01*
X235561333Y-34410071D01*
X235513714Y-34457690D01*
X235466095Y-34552928D01*
X235466095Y-34743404D01*
X235513714Y-34838642D01*
X235561333Y-34886261D01*
X235656571Y-34933880D01*
X235847047Y-34933880D01*
X235942285Y-34886261D01*
X235989904Y-34838642D01*
X236037523Y-34743404D01*
X236037523Y-34552928D01*
X235989904Y-34457690D01*
X235942285Y-34410071D01*
X235847047Y-34362452D01*
X236370857Y-33933880D02*
X237037523Y-33933880D01*
X236608952Y-34933880D01*
%TO.C,R88*%
X235297142Y-45177880D02*
X234963809Y-44701690D01*
X234725714Y-45177880D02*
X234725714Y-44177880D01*
X235106666Y-44177880D01*
X235201904Y-44225500D01*
X235249523Y-44273119D01*
X235297142Y-44368357D01*
X235297142Y-44511214D01*
X235249523Y-44606452D01*
X235201904Y-44654071D01*
X235106666Y-44701690D01*
X234725714Y-44701690D01*
X235868571Y-44606452D02*
X235773333Y-44558833D01*
X235725714Y-44511214D01*
X235678095Y-44415976D01*
X235678095Y-44368357D01*
X235725714Y-44273119D01*
X235773333Y-44225500D01*
X235868571Y-44177880D01*
X236059047Y-44177880D01*
X236154285Y-44225500D01*
X236201904Y-44273119D01*
X236249523Y-44368357D01*
X236249523Y-44415976D01*
X236201904Y-44511214D01*
X236154285Y-44558833D01*
X236059047Y-44606452D01*
X235868571Y-44606452D01*
X235773333Y-44654071D01*
X235725714Y-44701690D01*
X235678095Y-44796928D01*
X235678095Y-44987404D01*
X235725714Y-45082642D01*
X235773333Y-45130261D01*
X235868571Y-45177880D01*
X236059047Y-45177880D01*
X236154285Y-45130261D01*
X236201904Y-45082642D01*
X236249523Y-44987404D01*
X236249523Y-44796928D01*
X236201904Y-44701690D01*
X236154285Y-44654071D01*
X236059047Y-44606452D01*
X236820952Y-44606452D02*
X236725714Y-44558833D01*
X236678095Y-44511214D01*
X236630476Y-44415976D01*
X236630476Y-44368357D01*
X236678095Y-44273119D01*
X236725714Y-44225500D01*
X236820952Y-44177880D01*
X237011428Y-44177880D01*
X237106666Y-44225500D01*
X237154285Y-44273119D01*
X237201904Y-44368357D01*
X237201904Y-44415976D01*
X237154285Y-44511214D01*
X237106666Y-44558833D01*
X237011428Y-44606452D01*
X236820952Y-44606452D01*
X236725714Y-44654071D01*
X236678095Y-44701690D01*
X236630476Y-44796928D01*
X236630476Y-44987404D01*
X236678095Y-45082642D01*
X236725714Y-45130261D01*
X236820952Y-45177880D01*
X237011428Y-45177880D01*
X237106666Y-45130261D01*
X237154285Y-45082642D01*
X237201904Y-44987404D01*
X237201904Y-44796928D01*
X237154285Y-44701690D01*
X237106666Y-44654071D01*
X237011428Y-44606452D01*
%TO.C,R89*%
X235339142Y-55761880D02*
X235005809Y-55285690D01*
X234767714Y-55761880D02*
X234767714Y-54761880D01*
X235148666Y-54761880D01*
X235243904Y-54809500D01*
X235291523Y-54857119D01*
X235339142Y-54952357D01*
X235339142Y-55095214D01*
X235291523Y-55190452D01*
X235243904Y-55238071D01*
X235148666Y-55285690D01*
X234767714Y-55285690D01*
X235910571Y-55190452D02*
X235815333Y-55142833D01*
X235767714Y-55095214D01*
X235720095Y-54999976D01*
X235720095Y-54952357D01*
X235767714Y-54857119D01*
X235815333Y-54809500D01*
X235910571Y-54761880D01*
X236101047Y-54761880D01*
X236196285Y-54809500D01*
X236243904Y-54857119D01*
X236291523Y-54952357D01*
X236291523Y-54999976D01*
X236243904Y-55095214D01*
X236196285Y-55142833D01*
X236101047Y-55190452D01*
X235910571Y-55190452D01*
X235815333Y-55238071D01*
X235767714Y-55285690D01*
X235720095Y-55380928D01*
X235720095Y-55571404D01*
X235767714Y-55666642D01*
X235815333Y-55714261D01*
X235910571Y-55761880D01*
X236101047Y-55761880D01*
X236196285Y-55714261D01*
X236243904Y-55666642D01*
X236291523Y-55571404D01*
X236291523Y-55380928D01*
X236243904Y-55285690D01*
X236196285Y-55238071D01*
X236101047Y-55190452D01*
X236767714Y-55761880D02*
X236958190Y-55761880D01*
X237053428Y-55714261D01*
X237101047Y-55666642D01*
X237196285Y-55523785D01*
X237243904Y-55333309D01*
X237243904Y-54952357D01*
X237196285Y-54857119D01*
X237148666Y-54809500D01*
X237053428Y-54761880D01*
X236862952Y-54761880D01*
X236767714Y-54809500D01*
X236720095Y-54857119D01*
X236672476Y-54952357D01*
X236672476Y-55190452D01*
X236720095Y-55285690D01*
X236767714Y-55333309D01*
X236862952Y-55380928D01*
X237053428Y-55380928D01*
X237148666Y-55333309D01*
X237196285Y-55285690D01*
X237243904Y-55190452D01*
%TO.C,R90*%
X235297142Y-65751880D02*
X234963809Y-65275690D01*
X234725714Y-65751880D02*
X234725714Y-64751880D01*
X235106666Y-64751880D01*
X235201904Y-64799500D01*
X235249523Y-64847119D01*
X235297142Y-64942357D01*
X235297142Y-65085214D01*
X235249523Y-65180452D01*
X235201904Y-65228071D01*
X235106666Y-65275690D01*
X234725714Y-65275690D01*
X235773333Y-65751880D02*
X235963809Y-65751880D01*
X236059047Y-65704261D01*
X236106666Y-65656642D01*
X236201904Y-65513785D01*
X236249523Y-65323309D01*
X236249523Y-64942357D01*
X236201904Y-64847119D01*
X236154285Y-64799500D01*
X236059047Y-64751880D01*
X235868571Y-64751880D01*
X235773333Y-64799500D01*
X235725714Y-64847119D01*
X235678095Y-64942357D01*
X235678095Y-65180452D01*
X235725714Y-65275690D01*
X235773333Y-65323309D01*
X235868571Y-65370928D01*
X236059047Y-65370928D01*
X236154285Y-65323309D01*
X236201904Y-65275690D01*
X236249523Y-65180452D01*
X236868571Y-64751880D02*
X236963809Y-64751880D01*
X237059047Y-64799500D01*
X237106666Y-64847119D01*
X237154285Y-64942357D01*
X237201904Y-65132833D01*
X237201904Y-65370928D01*
X237154285Y-65561404D01*
X237106666Y-65656642D01*
X237059047Y-65704261D01*
X236963809Y-65751880D01*
X236868571Y-65751880D01*
X236773333Y-65704261D01*
X236725714Y-65656642D01*
X236678095Y-65561404D01*
X236630476Y-65370928D01*
X236630476Y-65132833D01*
X236678095Y-64942357D01*
X236725714Y-64847119D01*
X236773333Y-64799500D01*
X236868571Y-64751880D01*
%TO.C,R91*%
X235339142Y-76335880D02*
X235005809Y-75859690D01*
X234767714Y-76335880D02*
X234767714Y-75335880D01*
X235148666Y-75335880D01*
X235243904Y-75383500D01*
X235291523Y-75431119D01*
X235339142Y-75526357D01*
X235339142Y-75669214D01*
X235291523Y-75764452D01*
X235243904Y-75812071D01*
X235148666Y-75859690D01*
X234767714Y-75859690D01*
X235815333Y-76335880D02*
X236005809Y-76335880D01*
X236101047Y-76288261D01*
X236148666Y-76240642D01*
X236243904Y-76097785D01*
X236291523Y-75907309D01*
X236291523Y-75526357D01*
X236243904Y-75431119D01*
X236196285Y-75383500D01*
X236101047Y-75335880D01*
X235910571Y-75335880D01*
X235815333Y-75383500D01*
X235767714Y-75431119D01*
X235720095Y-75526357D01*
X235720095Y-75764452D01*
X235767714Y-75859690D01*
X235815333Y-75907309D01*
X235910571Y-75954928D01*
X236101047Y-75954928D01*
X236196285Y-75907309D01*
X236243904Y-75859690D01*
X236291523Y-75764452D01*
X237243904Y-76335880D02*
X236672476Y-76335880D01*
X236958190Y-76335880D02*
X236958190Y-75335880D01*
X236862952Y-75478738D01*
X236767714Y-75573976D01*
X236672476Y-75621595D01*
%TO.C,R92*%
X235297142Y-86579880D02*
X234963809Y-86103690D01*
X234725714Y-86579880D02*
X234725714Y-85579880D01*
X235106666Y-85579880D01*
X235201904Y-85627500D01*
X235249523Y-85675119D01*
X235297142Y-85770357D01*
X235297142Y-85913214D01*
X235249523Y-86008452D01*
X235201904Y-86056071D01*
X235106666Y-86103690D01*
X234725714Y-86103690D01*
X235773333Y-86579880D02*
X235963809Y-86579880D01*
X236059047Y-86532261D01*
X236106666Y-86484642D01*
X236201904Y-86341785D01*
X236249523Y-86151309D01*
X236249523Y-85770357D01*
X236201904Y-85675119D01*
X236154285Y-85627500D01*
X236059047Y-85579880D01*
X235868571Y-85579880D01*
X235773333Y-85627500D01*
X235725714Y-85675119D01*
X235678095Y-85770357D01*
X235678095Y-86008452D01*
X235725714Y-86103690D01*
X235773333Y-86151309D01*
X235868571Y-86198928D01*
X236059047Y-86198928D01*
X236154285Y-86151309D01*
X236201904Y-86103690D01*
X236249523Y-86008452D01*
X236630476Y-85675119D02*
X236678095Y-85627500D01*
X236773333Y-85579880D01*
X237011428Y-85579880D01*
X237106666Y-85627500D01*
X237154285Y-85675119D01*
X237201904Y-85770357D01*
X237201904Y-85865595D01*
X237154285Y-86008452D01*
X236582857Y-86579880D01*
X237201904Y-86579880D01*
%TO.C,R93*%
X235085142Y-97163880D02*
X234751809Y-96687690D01*
X234513714Y-97163880D02*
X234513714Y-96163880D01*
X234894666Y-96163880D01*
X234989904Y-96211500D01*
X235037523Y-96259119D01*
X235085142Y-96354357D01*
X235085142Y-96497214D01*
X235037523Y-96592452D01*
X234989904Y-96640071D01*
X234894666Y-96687690D01*
X234513714Y-96687690D01*
X235561333Y-97163880D02*
X235751809Y-97163880D01*
X235847047Y-97116261D01*
X235894666Y-97068642D01*
X235989904Y-96925785D01*
X236037523Y-96735309D01*
X236037523Y-96354357D01*
X235989904Y-96259119D01*
X235942285Y-96211500D01*
X235847047Y-96163880D01*
X235656571Y-96163880D01*
X235561333Y-96211500D01*
X235513714Y-96259119D01*
X235466095Y-96354357D01*
X235466095Y-96592452D01*
X235513714Y-96687690D01*
X235561333Y-96735309D01*
X235656571Y-96782928D01*
X235847047Y-96782928D01*
X235942285Y-96735309D01*
X235989904Y-96687690D01*
X236037523Y-96592452D01*
X236370857Y-96163880D02*
X236989904Y-96163880D01*
X236656571Y-96544833D01*
X236799428Y-96544833D01*
X236894666Y-96592452D01*
X236942285Y-96640071D01*
X236989904Y-96735309D01*
X236989904Y-96973404D01*
X236942285Y-97068642D01*
X236894666Y-97116261D01*
X236799428Y-97163880D01*
X236513714Y-97163880D01*
X236418476Y-97116261D01*
X236370857Y-97068642D01*
%TO.C,S1*%
D13*
X90218380Y-73623547D02*
X90399809Y-73684023D01*
X90702190Y-73684023D01*
X90823142Y-73623547D01*
X90883619Y-73563071D01*
X90944095Y-73442119D01*
X90944095Y-73321166D01*
X90883619Y-73200214D01*
X90823142Y-73139738D01*
X90702190Y-73079261D01*
X90460285Y-73018785D01*
X90339333Y-72958309D01*
X90278857Y-72897833D01*
X90218380Y-72776880D01*
X90218380Y-72655928D01*
X90278857Y-72534976D01*
X90339333Y-72474500D01*
X90460285Y-72414023D01*
X90762666Y-72414023D01*
X90944095Y-72474500D01*
X92153619Y-73684023D02*
X91427904Y-73684023D01*
X91790761Y-73684023D02*
X91790761Y-72414023D01*
X91669809Y-72595452D01*
X91548857Y-72716404D01*
X91427904Y-72776880D01*
%TO.C,U1*%
D12*
X170494495Y-112006980D02*
X170494495Y-112816504D01*
X170542114Y-112911742D01*
X170589733Y-112959361D01*
X170684971Y-113006980D01*
X170875447Y-113006980D01*
X170970685Y-112959361D01*
X171018304Y-112911742D01*
X171065923Y-112816504D01*
X171065923Y-112006980D01*
X172065923Y-113006980D02*
X171494495Y-113006980D01*
X171780209Y-113006980D02*
X171780209Y-112006980D01*
X171684971Y-112149838D01*
X171589733Y-112245076D01*
X171494495Y-112292695D01*
%TO.C,U2*%
X135153495Y-100333980D02*
X135153495Y-101143504D01*
X135201114Y-101238742D01*
X135248733Y-101286361D01*
X135343971Y-101333980D01*
X135534447Y-101333980D01*
X135629685Y-101286361D01*
X135677304Y-101238742D01*
X135724923Y-101143504D01*
X135724923Y-100333980D01*
X136153495Y-100429219D02*
X136201114Y-100381600D01*
X136296352Y-100333980D01*
X136534447Y-100333980D01*
X136629685Y-100381600D01*
X136677304Y-100429219D01*
X136724923Y-100524457D01*
X136724923Y-100619695D01*
X136677304Y-100762552D01*
X136105876Y-101333980D01*
X136724923Y-101333980D01*
%TO.C,U3*%
X182616495Y-112006980D02*
X182616495Y-112816504D01*
X182664114Y-112911742D01*
X182711733Y-112959361D01*
X182806971Y-113006980D01*
X182997447Y-113006980D01*
X183092685Y-112959361D01*
X183140304Y-112911742D01*
X183187923Y-112816504D01*
X183187923Y-112006980D01*
X183568876Y-112006980D02*
X184187923Y-112006980D01*
X183854590Y-112387933D01*
X183997447Y-112387933D01*
X184092685Y-112435552D01*
X184140304Y-112483171D01*
X184187923Y-112578409D01*
X184187923Y-112816504D01*
X184140304Y-112911742D01*
X184092685Y-112959361D01*
X183997447Y-113006980D01*
X183711733Y-113006980D01*
X183616495Y-112959361D01*
X183568876Y-112911742D01*
%TO.C,U4*%
X159502495Y-100206980D02*
X159502495Y-101016504D01*
X159550114Y-101111742D01*
X159597733Y-101159361D01*
X159692971Y-101206980D01*
X159883447Y-101206980D01*
X159978685Y-101159361D01*
X160026304Y-101111742D01*
X160073923Y-101016504D01*
X160073923Y-100206980D01*
X160978685Y-100540314D02*
X160978685Y-101206980D01*
X160740590Y-100159361D02*
X160502495Y-100873647D01*
X161121542Y-100873647D01*
%TO.C,U5*%
X123250495Y-100460980D02*
X123250495Y-101270504D01*
X123298114Y-101365742D01*
X123345733Y-101413361D01*
X123440971Y-101460980D01*
X123631447Y-101460980D01*
X123726685Y-101413361D01*
X123774304Y-101365742D01*
X123821923Y-101270504D01*
X123821923Y-100460980D01*
X124774304Y-100460980D02*
X124298114Y-100460980D01*
X124250495Y-100937171D01*
X124298114Y-100889552D01*
X124393352Y-100841933D01*
X124631447Y-100841933D01*
X124726685Y-100889552D01*
X124774304Y-100937171D01*
X124821923Y-101032409D01*
X124821923Y-101270504D01*
X124774304Y-101365742D01*
X124726685Y-101413361D01*
X124631447Y-101460980D01*
X124393352Y-101460980D01*
X124298114Y-101413361D01*
X124250495Y-101365742D01*
%TO.C,U6*%
X210556495Y-112260980D02*
X210556495Y-113070504D01*
X210604114Y-113165742D01*
X210651733Y-113213361D01*
X210746971Y-113260980D01*
X210937447Y-113260980D01*
X211032685Y-113213361D01*
X211080304Y-113165742D01*
X211127923Y-113070504D01*
X211127923Y-112260980D01*
X212032685Y-112260980D02*
X211842209Y-112260980D01*
X211746971Y-112308600D01*
X211699352Y-112356219D01*
X211604114Y-112499076D01*
X211556495Y-112689552D01*
X211556495Y-113070504D01*
X211604114Y-113165742D01*
X211651733Y-113213361D01*
X211746971Y-113260980D01*
X211937447Y-113260980D01*
X212032685Y-113213361D01*
X212080304Y-113165742D01*
X212127923Y-113070504D01*
X212127923Y-112832409D01*
X212080304Y-112737171D01*
X212032685Y-112689552D01*
X211937447Y-112641933D01*
X211746971Y-112641933D01*
X211651733Y-112689552D01*
X211604114Y-112737171D01*
X211556495Y-112832409D01*
%TO.C,U8*%
X125860980Y-123104104D02*
X126670504Y-123104104D01*
X126765742Y-123056485D01*
X126813361Y-123008866D01*
X126860980Y-122913628D01*
X126860980Y-122723152D01*
X126813361Y-122627914D01*
X126765742Y-122580295D01*
X126670504Y-122532676D01*
X125860980Y-122532676D01*
X126289552Y-121913628D02*
X126241933Y-122008866D01*
X126194314Y-122056485D01*
X126099076Y-122104104D01*
X126051457Y-122104104D01*
X125956219Y-122056485D01*
X125908600Y-122008866D01*
X125860980Y-121913628D01*
X125860980Y-121723152D01*
X125908600Y-121627914D01*
X125956219Y-121580295D01*
X126051457Y-121532676D01*
X126099076Y-121532676D01*
X126194314Y-121580295D01*
X126241933Y-121627914D01*
X126289552Y-121723152D01*
X126289552Y-121913628D01*
X126337171Y-122008866D01*
X126384790Y-122056485D01*
X126480028Y-122104104D01*
X126670504Y-122104104D01*
X126765742Y-122056485D01*
X126813361Y-122008866D01*
X126860980Y-121913628D01*
X126860980Y-121723152D01*
X126813361Y-121627914D01*
X126765742Y-121580295D01*
X126670504Y-121532676D01*
X126480028Y-121532676D01*
X126384790Y-121580295D01*
X126337171Y-121627914D01*
X126289552Y-121723152D01*
%TO.C,U9*%
X186312980Y-123153304D02*
X187122504Y-123153304D01*
X187217742Y-123105685D01*
X187265361Y-123058066D01*
X187312980Y-122962828D01*
X187312980Y-122772352D01*
X187265361Y-122677114D01*
X187217742Y-122629495D01*
X187122504Y-122581876D01*
X186312980Y-122581876D01*
X187312980Y-122058066D02*
X187312980Y-121867590D01*
X187265361Y-121772352D01*
X187217742Y-121724733D01*
X187074885Y-121629495D01*
X186884409Y-121581876D01*
X186503457Y-121581876D01*
X186408219Y-121629495D01*
X186360600Y-121677114D01*
X186312980Y-121772352D01*
X186312980Y-121962828D01*
X186360600Y-122058066D01*
X186408219Y-122105685D01*
X186503457Y-122153304D01*
X186741552Y-122153304D01*
X186836790Y-122105685D01*
X186884409Y-122058066D01*
X186932028Y-121962828D01*
X186932028Y-121772352D01*
X186884409Y-121677114D01*
X186836790Y-121629495D01*
X186741552Y-121581876D01*
%TO.C,C11*%
X179356742Y-111554742D02*
X179309123Y-111602361D01*
X179166266Y-111649980D01*
X179071028Y-111649980D01*
X178928171Y-111602361D01*
X178832933Y-111507123D01*
X178785314Y-111411885D01*
X178737695Y-111221409D01*
X178737695Y-111078552D01*
X178785314Y-110888076D01*
X178832933Y-110792838D01*
X178928171Y-110697600D01*
X179071028Y-110649980D01*
X179166266Y-110649980D01*
X179309123Y-110697600D01*
X179356742Y-110745219D01*
X180309123Y-111649980D02*
X179737695Y-111649980D01*
X180023409Y-111649980D02*
X180023409Y-110649980D01*
X179928171Y-110792838D01*
X179832933Y-110888076D01*
X179737695Y-110935695D01*
X181261504Y-111649980D02*
X180690076Y-111649980D01*
X180975790Y-111649980D02*
X180975790Y-110649980D01*
X180880552Y-110792838D01*
X180785314Y-110888076D01*
X180690076Y-110935695D01*
%TO.C,C12*%
X124559542Y-123949657D02*
X124607161Y-123997276D01*
X124654780Y-124140133D01*
X124654780Y-124235371D01*
X124607161Y-124378228D01*
X124511923Y-124473466D01*
X124416685Y-124521085D01*
X124226209Y-124568704D01*
X124083352Y-124568704D01*
X123892876Y-124521085D01*
X123797638Y-124473466D01*
X123702400Y-124378228D01*
X123654780Y-124235371D01*
X123654780Y-124140133D01*
X123702400Y-123997276D01*
X123750019Y-123949657D01*
X124654780Y-122997276D02*
X124654780Y-123568704D01*
X124654780Y-123282990D02*
X123654780Y-123282990D01*
X123797638Y-123378228D01*
X123892876Y-123473466D01*
X123940495Y-123568704D01*
X123750019Y-122616323D02*
X123702400Y-122568704D01*
X123654780Y-122473466D01*
X123654780Y-122235371D01*
X123702400Y-122140133D01*
X123750019Y-122092514D01*
X123845257Y-122044895D01*
X123940495Y-122044895D01*
X124083352Y-122092514D01*
X124654780Y-122663942D01*
X124654780Y-122044895D01*
%TO.C,C13*%
X167540742Y-115117942D02*
X167493123Y-115165561D01*
X167350266Y-115213180D01*
X167255028Y-115213180D01*
X167112171Y-115165561D01*
X167016933Y-115070323D01*
X166969314Y-114975085D01*
X166921695Y-114784609D01*
X166921695Y-114641752D01*
X166969314Y-114451276D01*
X167016933Y-114356038D01*
X167112171Y-114260800D01*
X167255028Y-114213180D01*
X167350266Y-114213180D01*
X167493123Y-114260800D01*
X167540742Y-114308419D01*
X168493123Y-115213180D02*
X167921695Y-115213180D01*
X168207409Y-115213180D02*
X168207409Y-114213180D01*
X168112171Y-114356038D01*
X168016933Y-114451276D01*
X167921695Y-114498895D01*
X168826457Y-114213180D02*
X169445504Y-114213180D01*
X169112171Y-114594133D01*
X169255028Y-114594133D01*
X169350266Y-114641752D01*
X169397885Y-114689371D01*
X169445504Y-114784609D01*
X169445504Y-115022704D01*
X169397885Y-115117942D01*
X169350266Y-115165561D01*
X169255028Y-115213180D01*
X168969314Y-115213180D01*
X168874076Y-115165561D01*
X168826457Y-115117942D01*
%TO.C,C14*%
X188957942Y-119232742D02*
X188910323Y-119280361D01*
X188767466Y-119327980D01*
X188672228Y-119327980D01*
X188529371Y-119280361D01*
X188434133Y-119185123D01*
X188386514Y-119089885D01*
X188338895Y-118899409D01*
X188338895Y-118756552D01*
X188386514Y-118566076D01*
X188434133Y-118470838D01*
X188529371Y-118375600D01*
X188672228Y-118327980D01*
X188767466Y-118327980D01*
X188910323Y-118375600D01*
X188957942Y-118423219D01*
X189910323Y-119327980D02*
X189338895Y-119327980D01*
X189624609Y-119327980D02*
X189624609Y-118327980D01*
X189529371Y-118470838D01*
X189434133Y-118566076D01*
X189338895Y-118613695D01*
X190767466Y-118661314D02*
X190767466Y-119327980D01*
X190529371Y-118280361D02*
X190291276Y-118994647D01*
X190910323Y-118994647D01*
%TO.C,C15*%
X121343142Y-112113542D02*
X121295523Y-112161161D01*
X121152666Y-112208780D01*
X121057428Y-112208780D01*
X120914571Y-112161161D01*
X120819333Y-112065923D01*
X120771714Y-111970685D01*
X120724095Y-111780209D01*
X120724095Y-111637352D01*
X120771714Y-111446876D01*
X120819333Y-111351638D01*
X120914571Y-111256400D01*
X121057428Y-111208780D01*
X121152666Y-111208780D01*
X121295523Y-111256400D01*
X121343142Y-111304019D01*
X122295523Y-112208780D02*
X121724095Y-112208780D01*
X122009809Y-112208780D02*
X122009809Y-111208780D01*
X121914571Y-111351638D01*
X121819333Y-111446876D01*
X121724095Y-111494495D01*
X123200285Y-111208780D02*
X122724095Y-111208780D01*
X122676476Y-111684971D01*
X122724095Y-111637352D01*
X122819333Y-111589733D01*
X123057428Y-111589733D01*
X123152666Y-111637352D01*
X123200285Y-111684971D01*
X123247904Y-111780209D01*
X123247904Y-112018304D01*
X123200285Y-112113542D01*
X123152666Y-112161161D01*
X123057428Y-112208780D01*
X122819333Y-112208780D01*
X122724095Y-112161161D01*
X122676476Y-112113542D01*
%TO.C,C16*%
X137751542Y-111757942D02*
X137703923Y-111805561D01*
X137561066Y-111853180D01*
X137465828Y-111853180D01*
X137322971Y-111805561D01*
X137227733Y-111710323D01*
X137180114Y-111615085D01*
X137132495Y-111424609D01*
X137132495Y-111281752D01*
X137180114Y-111091276D01*
X137227733Y-110996038D01*
X137322971Y-110900800D01*
X137465828Y-110853180D01*
X137561066Y-110853180D01*
X137703923Y-110900800D01*
X137751542Y-110948419D01*
X138703923Y-111853180D02*
X138132495Y-111853180D01*
X138418209Y-111853180D02*
X138418209Y-110853180D01*
X138322971Y-110996038D01*
X138227733Y-111091276D01*
X138132495Y-111138895D01*
X139561066Y-110853180D02*
X139370590Y-110853180D01*
X139275352Y-110900800D01*
X139227733Y-110948419D01*
X139132495Y-111091276D01*
X139084876Y-111281752D01*
X139084876Y-111662704D01*
X139132495Y-111757942D01*
X139180114Y-111805561D01*
X139275352Y-111853180D01*
X139465828Y-111853180D01*
X139561066Y-111805561D01*
X139608685Y-111757942D01*
X139656304Y-111662704D01*
X139656304Y-111424609D01*
X139608685Y-111329371D01*
X139561066Y-111281752D01*
X139465828Y-111234133D01*
X139275352Y-111234133D01*
X139180114Y-111281752D01*
X139132495Y-111329371D01*
X139084876Y-111424609D01*
%TO.C,C17*%
X209430342Y-112062742D02*
X209382723Y-112110361D01*
X209239866Y-112157980D01*
X209144628Y-112157980D01*
X209001771Y-112110361D01*
X208906533Y-112015123D01*
X208858914Y-111919885D01*
X208811295Y-111729409D01*
X208811295Y-111586552D01*
X208858914Y-111396076D01*
X208906533Y-111300838D01*
X209001771Y-111205600D01*
X209144628Y-111157980D01*
X209239866Y-111157980D01*
X209382723Y-111205600D01*
X209430342Y-111253219D01*
X210382723Y-112157980D02*
X209811295Y-112157980D01*
X210097009Y-112157980D02*
X210097009Y-111157980D01*
X210001771Y-111300838D01*
X209906533Y-111396076D01*
X209811295Y-111443695D01*
X210716057Y-111157980D02*
X211382723Y-111157980D01*
X210954152Y-112157980D01*
%TO.C,C18*%
X159311142Y-115371942D02*
X159263523Y-115419561D01*
X159120666Y-115467180D01*
X159025428Y-115467180D01*
X158882571Y-115419561D01*
X158787333Y-115324323D01*
X158739714Y-115229085D01*
X158692095Y-115038609D01*
X158692095Y-114895752D01*
X158739714Y-114705276D01*
X158787333Y-114610038D01*
X158882571Y-114514800D01*
X159025428Y-114467180D01*
X159120666Y-114467180D01*
X159263523Y-114514800D01*
X159311142Y-114562419D01*
X160263523Y-115467180D02*
X159692095Y-115467180D01*
X159977809Y-115467180D02*
X159977809Y-114467180D01*
X159882571Y-114610038D01*
X159787333Y-114705276D01*
X159692095Y-114752895D01*
X160834952Y-114895752D02*
X160739714Y-114848133D01*
X160692095Y-114800514D01*
X160644476Y-114705276D01*
X160644476Y-114657657D01*
X160692095Y-114562419D01*
X160739714Y-114514800D01*
X160834952Y-114467180D01*
X161025428Y-114467180D01*
X161120666Y-114514800D01*
X161168285Y-114562419D01*
X161215904Y-114657657D01*
X161215904Y-114705276D01*
X161168285Y-114800514D01*
X161120666Y-114848133D01*
X161025428Y-114895752D01*
X160834952Y-114895752D01*
X160739714Y-114943371D01*
X160692095Y-114990990D01*
X160644476Y-115086228D01*
X160644476Y-115276704D01*
X160692095Y-115371942D01*
X160739714Y-115419561D01*
X160834952Y-115467180D01*
X161025428Y-115467180D01*
X161120666Y-115419561D01*
X161168285Y-115371942D01*
X161215904Y-115276704D01*
X161215904Y-115086228D01*
X161168285Y-114990990D01*
X161120666Y-114943371D01*
X161025428Y-114895752D01*
%TD*%
M02*
