M48
; DRILL file {KiCad (5.1.10)-1} date 11/14/21 10:27:30
; FORMAT={-:-/ absolute / inch / decimal}
; #@! TF.CreationDate,2021-11-14T10:27:30-05:00
; #@! TF.GenerationSoftware,Kicad,Pcbnew,(5.1.10)-1
; #@! TF.FileFunction,Plated,1,2,PTH
FMAT,2
INCH
T1C0.0276
T2C0.0315
T3C0.0394
T4C0.0598
%
G90
G05
T1
X9.3Y-2.5
X9.3Y-2.8
X9.45Y-2.3
X9.45Y-2.6
X9.45Y-2.7
X9.45Y-3.0
T2
X9.65Y-2.3
X9.65Y-2.3984
X9.65Y-2.6
X9.65Y-2.6984
X9.65Y-2.9
X9.65Y-2.9984
T3
X2.65Y-2.3
X2.65Y-2.4
X2.65Y-2.5
X2.65Y-2.6
X2.65Y-2.7
X2.65Y-2.8
X2.65Y-2.9
X2.65Y-3.0
X2.75Y-2.3
X2.75Y-2.4
X2.75Y-2.5
X2.75Y-2.6
X2.75Y-2.7
X2.75Y-2.8
X2.75Y-2.9
X2.75Y-3.0
X3.55Y-2.3
X3.55Y-2.4
X3.55Y-2.5
X3.55Y-2.6
X3.55Y-2.7
X3.55Y-2.8
X3.55Y-2.9
X3.55Y-3.0
X3.65Y-2.3
X3.65Y-2.4
X3.65Y-2.5
X3.65Y-2.6
X3.65Y-2.7
X3.65Y-2.8
X3.65Y-2.9
X3.65Y-3.0
X4.45Y-2.3
X4.45Y-2.4
X4.45Y-2.5
X4.45Y-2.6
X4.45Y-2.7
X4.45Y-2.8
X4.45Y-2.9
X4.45Y-3.0
X4.55Y-2.3
X4.55Y-2.4
X4.55Y-2.5
X4.55Y-2.6
X4.55Y-2.7
X4.55Y-2.8
X4.55Y-2.9
X4.55Y-3.0
X5.35Y-2.3
X5.35Y-2.4
X5.35Y-2.5
X5.35Y-2.6
X5.35Y-2.7
X5.35Y-2.8
X5.35Y-2.9
X5.35Y-3.0
X5.45Y-2.3
X5.45Y-2.4
X5.45Y-2.5
X5.45Y-2.6
X5.45Y-2.7
X5.45Y-2.8
X5.45Y-2.9
X5.45Y-3.0
X6.25Y-2.3
X6.25Y-2.4
X6.25Y-2.5
X6.25Y-2.6
X6.25Y-2.7
X6.25Y-2.8
X6.25Y-2.9
X6.25Y-3.0
X6.35Y-2.3
X6.35Y-2.4
X6.35Y-2.5
X6.35Y-2.6
X6.35Y-2.7
X6.35Y-2.8
X6.35Y-2.9
X6.35Y-3.0
X7.15Y-2.3
X7.15Y-2.4
X7.15Y-2.5
X7.15Y-2.6
X7.15Y-2.7
X7.15Y-2.8
X7.15Y-2.9
X7.15Y-3.0
X7.25Y-2.3
X7.25Y-2.4
X7.25Y-2.5
X7.25Y-2.6
X7.25Y-2.7
X7.25Y-2.8
X7.25Y-2.9
X7.25Y-3.0
X8.05Y-2.3
X8.05Y-2.4
X8.05Y-2.5
X8.05Y-2.6
X8.05Y-2.7
X8.05Y-2.8
X8.05Y-2.9
X8.05Y-3.0
X8.15Y-2.3
X8.15Y-2.4
X8.15Y-2.5
X8.15Y-2.6
X8.15Y-2.7
X8.15Y-2.8
X8.15Y-2.9
X8.15Y-3.0
X8.95Y-2.3
X8.95Y-2.4
X8.95Y-2.5
X8.95Y-2.6
X8.95Y-2.7
X8.95Y-2.8
X8.95Y-2.9
X8.95Y-3.0
X9.05Y-2.3
X9.05Y-2.4
X9.05Y-2.5
X9.05Y-2.6
X9.05Y-2.7
X9.05Y-2.8
X9.05Y-2.9
X9.05Y-3.0
T4
X2.25Y-2.3484
X2.25Y-2.5484
X2.25Y-2.7484
X2.25Y-2.9484
T0
M30
