%TF.GenerationSoftware,KiCad,Pcbnew,7.0.2*%
%TF.CreationDate,2023-06-19T12:03:48-04:00*%
%TF.ProjectId,SSI2130_Faceplate,53534932-3133-4305-9f46-616365706c61,rev?*%
%TF.SameCoordinates,Original*%
%TF.FileFunction,Soldermask,Bot*%
%TF.FilePolarity,Negative*%
%FSLAX46Y46*%
G04 Gerber Fmt 4.6, Leading zero omitted, Abs format (unit mm)*
G04 Created by KiCad (PCBNEW 7.0.2) date 2023-06-19 12:03:48*
%MOMM*%
%LPD*%
G01*
G04 APERTURE LIST*
%ADD10C,0.150000*%
%ADD11C,11.425703*%
%ADD12C,11.227885*%
%ADD13C,2.100000*%
%ADD14C,6.500000*%
%ADD15C,8.400000*%
%ADD16C,3.500000*%
%ADD17C,10.000000*%
G04 APERTURE END LIST*
D10*
X175434703Y-81788000D02*
X185848703Y-81788000D01*
X185848703Y-116332000D01*
X175434703Y-116332000D01*
X175434703Y-81788000D01*
G36*
X175434703Y-81788000D02*
G01*
X185848703Y-81788000D01*
X185848703Y-116332000D01*
X175434703Y-116332000D01*
X175434703Y-81788000D01*
G37*
D11*
X166494851Y-80518000D02*
G75*
G03*
X166494851Y-80518000I-5712851J0D01*
G01*
X136522851Y-51816000D02*
G75*
G03*
X136522851Y-51816000I-5712851J0D01*
G01*
D12*
X136090645Y-25400000D02*
G75*
G03*
X136090645Y-25400000I-5613942J0D01*
G01*
D11*
X172257554Y-52578000D02*
G75*
G03*
X172257554Y-52578000I-5712851J0D01*
G01*
D10*
X104060703Y-12446000D02*
X115998703Y-12446000D01*
X115998703Y-117348000D01*
X104060703Y-117348000D01*
X104060703Y-12446000D01*
G36*
X104060703Y-12446000D02*
G01*
X115998703Y-12446000D01*
X115998703Y-117348000D01*
X104060703Y-117348000D01*
X104060703Y-12446000D01*
G37*
D11*
X142698148Y-77724000D02*
G75*
G03*
X142698148Y-77724000I-5712851J0D01*
G01*
X171749554Y-27178000D02*
G75*
G03*
X171749554Y-27178000I-5712851J0D01*
G01*
X137205554Y-108712000D02*
G75*
G03*
X137205554Y-108712000I-5712851J0D01*
G01*
X166415554Y-107696000D02*
G75*
G03*
X166415554Y-107696000I-5712851J0D01*
G01*
D13*
%TO.C,-*%
X183134000Y-49022000D03*
%TD*%
D14*
%TO.C,REF\u002A\u002A*%
X183134000Y-42418000D03*
%TD*%
D13*
%TO.C,-*%
X183134000Y-35306000D03*
%TD*%
%TO.C,-*%
X186944000Y-35306000D03*
%TD*%
%TO.C,-*%
X179578000Y-35306000D03*
%TD*%
D15*
%TO.C,REF*%
X130858000Y-51708000D03*
%TD*%
D16*
%TO.C,REF\u002A\u002A*%
X181400000Y-3000000D03*
%TD*%
D14*
%TO.C,REF\u002A\u002A*%
X180932000Y-88310000D03*
%TD*%
D17*
%TO.C,REF166.43*%
X166430000Y-26040000D03*
%TD*%
D15*
%TO.C,REF\u002A\u002A*%
X130830000Y-24676000D03*
%TD*%
D14*
%TO.C,REF\u002A\u002A*%
X110320000Y-108840000D03*
%TD*%
D16*
%TO.C,REF\u002A\u002A*%
X110000000Y-125500000D03*
%TD*%
%TO.C,Base*%
X127254000Y-97081000D03*
%TD*%
%TO.C,REF\u002A\u002A*%
X110000000Y-3000000D03*
%TD*%
D15*
%TO.C,REF\u002A\u002A*%
X131418000Y-107494000D03*
%TD*%
D14*
%TO.C,REF110.32*%
X110320000Y-86418000D03*
%TD*%
D15*
%TO.C,REF\u002A\u002A*%
X131706000Y-79154000D03*
%TD*%
D14*
%TO.C,REF\u002A\u002A*%
X180932000Y-98724000D03*
%TD*%
D15*
%TO.C,REF\u002A\u002A*%
X167180000Y-51708000D03*
%TD*%
D16*
%TO.C,REF\u002A\u002A*%
X181400000Y-125500000D03*
%TD*%
D14*
%TO.C,REF\u002A\u002A*%
X110320000Y-58294000D03*
%TD*%
D15*
%TO.C,REF\u002A\u002A*%
X161390000Y-107494000D03*
%TD*%
D14*
%TO.C,REF\u002A\u002A*%
X110320000Y-41530000D03*
%TD*%
%TO.C,REF\u002A\u002A*%
X110320000Y-19730000D03*
%TD*%
%TO.C,REF\u002A\u002A*%
X110320000Y-97664000D03*
%TD*%
%TO.C,REF\u002A\u002A*%
X110320000Y-30630000D03*
%TD*%
%TO.C,REF\u002A\u002A*%
X110320000Y-75312000D03*
%TD*%
D16*
%TO.C,HF*%
X122622000Y-78718000D03*
%TD*%
D15*
%TO.C,REF*%
X161418000Y-79154000D03*
%TD*%
D16*
%TO.C,Scale*%
X127281000Y-91600000D03*
%TD*%
D14*
%TO.C,REF\u002A\u002A*%
X180932000Y-109138000D03*
%TD*%
M02*
