%TF.GenerationSoftware,KiCad,Pcbnew,7.0.2*%
%TF.CreationDate,2023-06-19T12:03:47-04:00*%
%TF.ProjectId,SSI2130_Faceplate,53534932-3133-4305-9f46-616365706c61,rev?*%
%TF.SameCoordinates,Original*%
%TF.FileFunction,Copper,L1,Top*%
%TF.FilePolarity,Positive*%
%FSLAX46Y46*%
G04 Gerber Fmt 4.6, Leading zero omitted, Abs format (unit mm)*
G04 Created by KiCad (PCBNEW 7.0.2) date 2023-06-19 12:03:47*
%MOMM*%
%LPD*%
G01*
G04 APERTURE LIST*
G04 APERTURE END LIST*
%TA.AperFunction,NonConductor*%
G36*
X191382539Y-20185D02*
G01*
X191428294Y-72989D01*
X191439500Y-124500D01*
X191439500Y-128375500D01*
X191419815Y-128442539D01*
X191367011Y-128488294D01*
X191315500Y-128499500D01*
X100124500Y-128499500D01*
X100057461Y-128479815D01*
X100011706Y-128427011D01*
X100000500Y-128375500D01*
X100000500Y-125500000D01*
X107994389Y-125500000D01*
X108014804Y-125785429D01*
X108075629Y-126065041D01*
X108175634Y-126333163D01*
X108312772Y-126584313D01*
X108398517Y-126698855D01*
X108484261Y-126813395D01*
X108686605Y-127015739D01*
X108858414Y-127144354D01*
X108915686Y-127187227D01*
X109055435Y-127263535D01*
X109166839Y-127324367D01*
X109434954Y-127424369D01*
X109434957Y-127424369D01*
X109434958Y-127424370D01*
X109487217Y-127435738D01*
X109714572Y-127485196D01*
X109928552Y-127500500D01*
X109930767Y-127500500D01*
X110069233Y-127500500D01*
X110071448Y-127500500D01*
X110285428Y-127485196D01*
X110565046Y-127424369D01*
X110833161Y-127324367D01*
X111084315Y-127187226D01*
X111313395Y-127015739D01*
X111515739Y-126813395D01*
X111687226Y-126584315D01*
X111824367Y-126333161D01*
X111924369Y-126065046D01*
X111985196Y-125785428D01*
X112005610Y-125500000D01*
X179394389Y-125500000D01*
X179414804Y-125785429D01*
X179475629Y-126065041D01*
X179575634Y-126333163D01*
X179712772Y-126584313D01*
X179798517Y-126698854D01*
X179884261Y-126813395D01*
X180086605Y-127015739D01*
X180258414Y-127144354D01*
X180315686Y-127187227D01*
X180455435Y-127263535D01*
X180566839Y-127324367D01*
X180834954Y-127424369D01*
X180834957Y-127424369D01*
X180834958Y-127424370D01*
X180887217Y-127435738D01*
X181114572Y-127485196D01*
X181328552Y-127500500D01*
X181330767Y-127500500D01*
X181469233Y-127500500D01*
X181471448Y-127500500D01*
X181685428Y-127485196D01*
X181965046Y-127424369D01*
X182233161Y-127324367D01*
X182484315Y-127187226D01*
X182713395Y-127015739D01*
X182915739Y-126813395D01*
X183087226Y-126584315D01*
X183224367Y-126333161D01*
X183324369Y-126065046D01*
X183385196Y-125785428D01*
X183405610Y-125500000D01*
X183385196Y-125214572D01*
X183324369Y-124934954D01*
X183224367Y-124666839D01*
X183087226Y-124415685D01*
X182915739Y-124186605D01*
X182713395Y-123984261D01*
X182598855Y-123898517D01*
X182484313Y-123812772D01*
X182233163Y-123675634D01*
X182233162Y-123675633D01*
X182233161Y-123675633D01*
X181965046Y-123575631D01*
X181965041Y-123575629D01*
X181685429Y-123514804D01*
X181473658Y-123499658D01*
X181473656Y-123499657D01*
X181471448Y-123499500D01*
X181328552Y-123499500D01*
X181326344Y-123499657D01*
X181326341Y-123499658D01*
X181114570Y-123514804D01*
X180834958Y-123575629D01*
X180566836Y-123675634D01*
X180315686Y-123812772D01*
X180086602Y-123984263D01*
X179884263Y-124186602D01*
X179712772Y-124415686D01*
X179575634Y-124666836D01*
X179475629Y-124934958D01*
X179414804Y-125214570D01*
X179394389Y-125500000D01*
X112005610Y-125500000D01*
X111985196Y-125214572D01*
X111924369Y-124934954D01*
X111824367Y-124666839D01*
X111687226Y-124415685D01*
X111515739Y-124186605D01*
X111313395Y-123984261D01*
X111198854Y-123898517D01*
X111084313Y-123812772D01*
X110833163Y-123675634D01*
X110833162Y-123675633D01*
X110833161Y-123675633D01*
X110565046Y-123575631D01*
X110565041Y-123575629D01*
X110285429Y-123514804D01*
X110073658Y-123499658D01*
X110073656Y-123499657D01*
X110071448Y-123499500D01*
X109928552Y-123499500D01*
X109926344Y-123499657D01*
X109926341Y-123499658D01*
X109714570Y-123514804D01*
X109434958Y-123575629D01*
X109166836Y-123675634D01*
X108915686Y-123812772D01*
X108686602Y-123984263D01*
X108484263Y-124186602D01*
X108312772Y-124415686D01*
X108175634Y-124666836D01*
X108075629Y-124934958D01*
X108014804Y-125214570D01*
X107994389Y-125500000D01*
X100000500Y-125500000D01*
X100000500Y-108933317D01*
X106815774Y-108933317D01*
X106816035Y-108936584D01*
X106816036Y-108936602D01*
X106845281Y-109301976D01*
X106845282Y-109301989D01*
X106845545Y-109305265D01*
X106846155Y-109308503D01*
X106846156Y-109308506D01*
X106901735Y-109603265D01*
X106914684Y-109671941D01*
X106915637Y-109675101D01*
X106968006Y-109848782D01*
X107022405Y-110029191D01*
X107023680Y-110032213D01*
X107023684Y-110032223D01*
X107166205Y-110369924D01*
X107166210Y-110369935D01*
X107167490Y-110372967D01*
X107348294Y-110699374D01*
X107350194Y-110702080D01*
X107350196Y-110702082D01*
X107555502Y-110994368D01*
X107562769Y-111004713D01*
X107564937Y-111007191D01*
X107564942Y-111007197D01*
X107692434Y-111152899D01*
X107808484Y-111285525D01*
X107810905Y-111287760D01*
X107810909Y-111287764D01*
X107829793Y-111305197D01*
X108082655Y-111538628D01*
X108382177Y-111761155D01*
X108703655Y-111950584D01*
X109043447Y-112104769D01*
X109397702Y-112221963D01*
X109762408Y-112300838D01*
X110133431Y-112340500D01*
X110136722Y-112340500D01*
X110411557Y-112340500D01*
X110413213Y-112340500D01*
X110692608Y-112325609D01*
X111060995Y-112266256D01*
X111420986Y-112168083D01*
X111768502Y-112032201D01*
X112099606Y-111860150D01*
X112410547Y-111653880D01*
X112697800Y-111415727D01*
X112958113Y-111148391D01*
X113188534Y-110854899D01*
X113386454Y-110538578D01*
X113549630Y-110203011D01*
X113676212Y-109852000D01*
X113764768Y-109489524D01*
X113814293Y-109119688D01*
X113824226Y-108746683D01*
X113794455Y-108374735D01*
X113725316Y-108008059D01*
X113634238Y-107706003D01*
X126967500Y-107706003D01*
X126967779Y-107708932D01*
X126967780Y-107708938D01*
X127007523Y-108125155D01*
X127007525Y-108125170D01*
X127007804Y-108128090D01*
X127008362Y-108130988D01*
X127008363Y-108130991D01*
X127077262Y-108488476D01*
X127088048Y-108544435D01*
X127088876Y-108547256D01*
X127088880Y-108547271D01*
X127180210Y-108858312D01*
X127207504Y-108951267D01*
X127365092Y-109344901D01*
X127559383Y-109721773D01*
X127560973Y-109724247D01*
X127560977Y-109724254D01*
X127787024Y-110075990D01*
X127787029Y-110075998D01*
X127788619Y-110078471D01*
X127790433Y-110080778D01*
X127790434Y-110080779D01*
X128017819Y-110369924D01*
X128050722Y-110411763D01*
X128052754Y-110413894D01*
X128341294Y-110716506D01*
X128341302Y-110716514D01*
X128343321Y-110718631D01*
X128345537Y-110720552D01*
X128345539Y-110720553D01*
X128661537Y-110994368D01*
X128661545Y-110994374D01*
X128663764Y-110996297D01*
X128666166Y-110998007D01*
X128666168Y-110998009D01*
X128679071Y-111007197D01*
X129009149Y-111242245D01*
X129109201Y-111300010D01*
X129366842Y-111448759D01*
X129376350Y-111454248D01*
X129379029Y-111455471D01*
X129379034Y-111455474D01*
X129664329Y-111585764D01*
X129762040Y-111630387D01*
X130162727Y-111769066D01*
X130574782Y-111869029D01*
X130994473Y-111929372D01*
X131312050Y-111944500D01*
X131313517Y-111944500D01*
X131522483Y-111944500D01*
X131523950Y-111944500D01*
X131841527Y-111929372D01*
X132261218Y-111869029D01*
X132673273Y-111769066D01*
X133073960Y-111630387D01*
X133459650Y-111454248D01*
X133826851Y-111242245D01*
X134172236Y-110996297D01*
X134492679Y-110718631D01*
X134785278Y-110411763D01*
X135047381Y-110078471D01*
X135276617Y-109721774D01*
X135470908Y-109344901D01*
X135628496Y-108951267D01*
X135747952Y-108544435D01*
X135828196Y-108128090D01*
X135868500Y-107706003D01*
X156939500Y-107706003D01*
X156939779Y-107708932D01*
X156939780Y-107708938D01*
X156979523Y-108125155D01*
X156979525Y-108125170D01*
X156979804Y-108128090D01*
X156980362Y-108130988D01*
X156980363Y-108130991D01*
X157049262Y-108488476D01*
X157060048Y-108544435D01*
X157060876Y-108547256D01*
X157060880Y-108547271D01*
X157152210Y-108858312D01*
X157179504Y-108951267D01*
X157337092Y-109344901D01*
X157531383Y-109721773D01*
X157532973Y-109724247D01*
X157532977Y-109724254D01*
X157759024Y-110075990D01*
X157759029Y-110075998D01*
X157760619Y-110078471D01*
X157762433Y-110080778D01*
X157762434Y-110080779D01*
X157989819Y-110369924D01*
X158022722Y-110411763D01*
X158024754Y-110413894D01*
X158313294Y-110716506D01*
X158313302Y-110716514D01*
X158315321Y-110718631D01*
X158317537Y-110720552D01*
X158317539Y-110720553D01*
X158633537Y-110994368D01*
X158633545Y-110994374D01*
X158635764Y-110996297D01*
X158638166Y-110998007D01*
X158638168Y-110998009D01*
X158651071Y-111007197D01*
X158981149Y-111242245D01*
X159081201Y-111300010D01*
X159338842Y-111448759D01*
X159348350Y-111454248D01*
X159351029Y-111455471D01*
X159351034Y-111455474D01*
X159636329Y-111585764D01*
X159734040Y-111630387D01*
X160134727Y-111769066D01*
X160546782Y-111869029D01*
X160966473Y-111929372D01*
X161284050Y-111944500D01*
X161285517Y-111944500D01*
X161494483Y-111944500D01*
X161495950Y-111944500D01*
X161813527Y-111929372D01*
X162233218Y-111869029D01*
X162645273Y-111769066D01*
X163045960Y-111630387D01*
X163431650Y-111454248D01*
X163798851Y-111242245D01*
X164144236Y-110996297D01*
X164464679Y-110718631D01*
X164757278Y-110411763D01*
X165019381Y-110078471D01*
X165248617Y-109721774D01*
X165442908Y-109344901D01*
X165488380Y-109231317D01*
X177427774Y-109231317D01*
X177428035Y-109234584D01*
X177428036Y-109234602D01*
X177457281Y-109599976D01*
X177457282Y-109599989D01*
X177457545Y-109603265D01*
X177458155Y-109606503D01*
X177458156Y-109606506D01*
X177505033Y-109855114D01*
X177526684Y-109969941D01*
X177527637Y-109973101D01*
X177597855Y-110205977D01*
X177634405Y-110327191D01*
X177635680Y-110330213D01*
X177635684Y-110330223D01*
X177778205Y-110667924D01*
X177778210Y-110667935D01*
X177779490Y-110670967D01*
X177960294Y-110997374D01*
X177962194Y-111000080D01*
X177962196Y-111000082D01*
X178164268Y-111287764D01*
X178174769Y-111302713D01*
X178176937Y-111305191D01*
X178176942Y-111305197D01*
X178308437Y-111455474D01*
X178420484Y-111583525D01*
X178422905Y-111585760D01*
X178422909Y-111585764D01*
X178621469Y-111769066D01*
X178694655Y-111836628D01*
X178994177Y-112059155D01*
X179315655Y-112248584D01*
X179655447Y-112402769D01*
X180009702Y-112519963D01*
X180374408Y-112598838D01*
X180745431Y-112638500D01*
X180748722Y-112638500D01*
X181023557Y-112638500D01*
X181025213Y-112638500D01*
X181304608Y-112623609D01*
X181672995Y-112564256D01*
X182032986Y-112466083D01*
X182380502Y-112330201D01*
X182711606Y-112158150D01*
X183022547Y-111951880D01*
X183309800Y-111713727D01*
X183570113Y-111446391D01*
X183800534Y-111152899D01*
X183998454Y-110836578D01*
X184161630Y-110501011D01*
X184288212Y-110150000D01*
X184376768Y-109787524D01*
X184426293Y-109417688D01*
X184436226Y-109044683D01*
X184406455Y-108672735D01*
X184337316Y-108306059D01*
X184229595Y-107948809D01*
X184154985Y-107772022D01*
X184085794Y-107608075D01*
X184085792Y-107608072D01*
X184084510Y-107605033D01*
X183903706Y-107278626D01*
X183689231Y-106973287D01*
X183563510Y-106829609D01*
X183445691Y-106694961D01*
X183443516Y-106692475D01*
X183427824Y-106677989D01*
X183171763Y-106441604D01*
X183171760Y-106441602D01*
X183169345Y-106439372D01*
X182869823Y-106216845D01*
X182866981Y-106215170D01*
X182866976Y-106215167D01*
X182551184Y-106029089D01*
X182548345Y-106027416D01*
X182545346Y-106026055D01*
X182545340Y-106026052D01*
X182211567Y-105874598D01*
X182211556Y-105874594D01*
X182208553Y-105873231D01*
X182205411Y-105872191D01*
X182205407Y-105872190D01*
X181857424Y-105757071D01*
X181857421Y-105757070D01*
X181854298Y-105756037D01*
X181851085Y-105755342D01*
X181851081Y-105755341D01*
X181492820Y-105677860D01*
X181492817Y-105677859D01*
X181489592Y-105677162D01*
X181486312Y-105676811D01*
X181486310Y-105676811D01*
X181121836Y-105637849D01*
X181121831Y-105637848D01*
X181118569Y-105637500D01*
X180838787Y-105637500D01*
X180837143Y-105637587D01*
X180837128Y-105637588D01*
X180562703Y-105652214D01*
X180562693Y-105652215D01*
X180559392Y-105652391D01*
X180556127Y-105652917D01*
X180556118Y-105652918D01*
X180194267Y-105711218D01*
X180194259Y-105711219D01*
X180191005Y-105711744D01*
X180187820Y-105712612D01*
X180187818Y-105712613D01*
X179834209Y-105809045D01*
X179834197Y-105809048D01*
X179831014Y-105809917D01*
X179827944Y-105811117D01*
X179827933Y-105811121D01*
X179486577Y-105944594D01*
X179486559Y-105944601D01*
X179483498Y-105945799D01*
X179480581Y-105947314D01*
X179480565Y-105947322D01*
X179155316Y-106116331D01*
X179155306Y-106116336D01*
X179152394Y-106117850D01*
X179149653Y-106119668D01*
X179149645Y-106119673D01*
X178844211Y-106322290D01*
X178844205Y-106322293D01*
X178841453Y-106324120D01*
X178838910Y-106326228D01*
X178838901Y-106326235D01*
X178556753Y-106560155D01*
X178556738Y-106560168D01*
X178554200Y-106562273D01*
X178551901Y-106564633D01*
X178551889Y-106564645D01*
X178296192Y-106827240D01*
X178296176Y-106827257D01*
X178293887Y-106829609D01*
X178291856Y-106832195D01*
X178291848Y-106832205D01*
X178065503Y-107120505D01*
X178065493Y-107120518D01*
X178063466Y-107123101D01*
X178061719Y-107125892D01*
X178061712Y-107125903D01*
X177867296Y-107436623D01*
X177867285Y-107436641D01*
X177865546Y-107439422D01*
X177864112Y-107442369D01*
X177864103Y-107442387D01*
X177703812Y-107772022D01*
X177703807Y-107772033D01*
X177702370Y-107774989D01*
X177701251Y-107778089D01*
X177701250Y-107778094D01*
X177640781Y-107945776D01*
X177575788Y-108126000D01*
X177575006Y-108129198D01*
X177575001Y-108129217D01*
X177488014Y-108485273D01*
X177488012Y-108485282D01*
X177487232Y-108488476D01*
X177486796Y-108491726D01*
X177486794Y-108491741D01*
X177438145Y-108855034D01*
X177438143Y-108855051D01*
X177437707Y-108858312D01*
X177437619Y-108861599D01*
X177437618Y-108861618D01*
X177427861Y-109228019D01*
X177427861Y-109228034D01*
X177427774Y-109231317D01*
X165488380Y-109231317D01*
X165600496Y-108951267D01*
X165719952Y-108544435D01*
X165800196Y-108128090D01*
X165840500Y-107706003D01*
X165840500Y-107281997D01*
X165800196Y-106859910D01*
X165719952Y-106443565D01*
X165600496Y-106036733D01*
X165442908Y-105643099D01*
X165248617Y-105266227D01*
X165247019Y-105263740D01*
X165020975Y-104912009D01*
X165020972Y-104912006D01*
X165019381Y-104909529D01*
X164757278Y-104576237D01*
X164711759Y-104528498D01*
X164466705Y-104271493D01*
X164466696Y-104271484D01*
X164464679Y-104269369D01*
X164462460Y-104267446D01*
X164146462Y-103993631D01*
X164146451Y-103993622D01*
X164144236Y-103991703D01*
X164141836Y-103989994D01*
X164141831Y-103989990D01*
X163974713Y-103870986D01*
X163798851Y-103745755D01*
X163796288Y-103744275D01*
X163434206Y-103535227D01*
X163434194Y-103535221D01*
X163431650Y-103533752D01*
X163428978Y-103532532D01*
X163428965Y-103532525D01*
X163048646Y-103358839D01*
X163048634Y-103358834D01*
X163045960Y-103357613D01*
X163043173Y-103356648D01*
X163043167Y-103356646D01*
X162648071Y-103219902D01*
X162648063Y-103219899D01*
X162645273Y-103218934D01*
X162642400Y-103218237D01*
X162236089Y-103119667D01*
X162236079Y-103119665D01*
X162233218Y-103118971D01*
X162230294Y-103118550D01*
X162230291Y-103118550D01*
X161816439Y-103059046D01*
X161816424Y-103059044D01*
X161813527Y-103058628D01*
X161810591Y-103058488D01*
X161810590Y-103058488D01*
X161497406Y-103043569D01*
X161497391Y-103043568D01*
X161495950Y-103043500D01*
X161284050Y-103043500D01*
X161282609Y-103043568D01*
X161282593Y-103043569D01*
X160969409Y-103058488D01*
X160969406Y-103058488D01*
X160966473Y-103058628D01*
X160963577Y-103059044D01*
X160963560Y-103059046D01*
X160549708Y-103118550D01*
X160549701Y-103118551D01*
X160546782Y-103118971D01*
X160543924Y-103119664D01*
X160543910Y-103119667D01*
X160137599Y-103218237D01*
X160137593Y-103218238D01*
X160134727Y-103218934D01*
X160131942Y-103219897D01*
X160131928Y-103219902D01*
X159736832Y-103356646D01*
X159736819Y-103356651D01*
X159734040Y-103357613D01*
X159731372Y-103358831D01*
X159731353Y-103358839D01*
X159351034Y-103532525D01*
X159351012Y-103532536D01*
X159348350Y-103533752D01*
X159345813Y-103535216D01*
X159345793Y-103535227D01*
X158983711Y-103744275D01*
X158983698Y-103744283D01*
X158981149Y-103745755D01*
X158978740Y-103747470D01*
X158978736Y-103747473D01*
X158638168Y-103989990D01*
X158638152Y-103990001D01*
X158635764Y-103991703D01*
X158633558Y-103993614D01*
X158633537Y-103993631D01*
X158317539Y-104267446D01*
X158317526Y-104267457D01*
X158315321Y-104269369D01*
X158313313Y-104271474D01*
X158313294Y-104271493D01*
X158024754Y-104574105D01*
X158024745Y-104574114D01*
X158022722Y-104576237D01*
X158020911Y-104578538D01*
X158020903Y-104578549D01*
X157762438Y-104907215D01*
X157762430Y-104907225D01*
X157760619Y-104909529D01*
X157759029Y-104912002D01*
X157759024Y-104912010D01*
X157532980Y-105263740D01*
X157532977Y-105263745D01*
X157531383Y-105266226D01*
X157530033Y-105268843D01*
X157530031Y-105268848D01*
X157339799Y-105637849D01*
X157337092Y-105643099D01*
X157335996Y-105645836D01*
X157335994Y-105645841D01*
X157183753Y-106026120D01*
X157179504Y-106036733D01*
X157178675Y-106039554D01*
X157178674Y-106039559D01*
X157060880Y-106440728D01*
X157060875Y-106440747D01*
X157060048Y-106443565D01*
X157059490Y-106446458D01*
X157059488Y-106446468D01*
X156980363Y-106857008D01*
X156979804Y-106859910D01*
X156979525Y-106862826D01*
X156979523Y-106862844D01*
X156939822Y-107278626D01*
X156939500Y-107281997D01*
X156939500Y-107706003D01*
X135868500Y-107706003D01*
X135868500Y-107281997D01*
X135828196Y-106859910D01*
X135747952Y-106443565D01*
X135628496Y-106036733D01*
X135470908Y-105643099D01*
X135276617Y-105266227D01*
X135275019Y-105263740D01*
X135048975Y-104912009D01*
X135048972Y-104912006D01*
X135047381Y-104909529D01*
X134785278Y-104576237D01*
X134739759Y-104528498D01*
X134494705Y-104271493D01*
X134494696Y-104271484D01*
X134492679Y-104269369D01*
X134490460Y-104267446D01*
X134174462Y-103993631D01*
X134174451Y-103993622D01*
X134172236Y-103991703D01*
X134169836Y-103989994D01*
X134169831Y-103989990D01*
X134002713Y-103870986D01*
X133826851Y-103745755D01*
X133824288Y-103744275D01*
X133462206Y-103535227D01*
X133462194Y-103535221D01*
X133459650Y-103533752D01*
X133456978Y-103532532D01*
X133456965Y-103532525D01*
X133076646Y-103358839D01*
X133076634Y-103358834D01*
X133073960Y-103357613D01*
X133071173Y-103356648D01*
X133071167Y-103356646D01*
X132676071Y-103219902D01*
X132676063Y-103219899D01*
X132673273Y-103218934D01*
X132670400Y-103218237D01*
X132264089Y-103119667D01*
X132264079Y-103119665D01*
X132261218Y-103118971D01*
X132258294Y-103118550D01*
X132258291Y-103118550D01*
X131844439Y-103059046D01*
X131844424Y-103059044D01*
X131841527Y-103058628D01*
X131838591Y-103058488D01*
X131838590Y-103058488D01*
X131525406Y-103043569D01*
X131525391Y-103043568D01*
X131523950Y-103043500D01*
X131312050Y-103043500D01*
X131310609Y-103043568D01*
X131310593Y-103043569D01*
X130997409Y-103058488D01*
X130997406Y-103058488D01*
X130994473Y-103058628D01*
X130991577Y-103059044D01*
X130991560Y-103059046D01*
X130577708Y-103118550D01*
X130577701Y-103118551D01*
X130574782Y-103118971D01*
X130571924Y-103119664D01*
X130571910Y-103119667D01*
X130165599Y-103218237D01*
X130165593Y-103218238D01*
X130162727Y-103218934D01*
X130159942Y-103219897D01*
X130159928Y-103219902D01*
X129764832Y-103356646D01*
X129764819Y-103356651D01*
X129762040Y-103357613D01*
X129759372Y-103358831D01*
X129759353Y-103358839D01*
X129379034Y-103532525D01*
X129379012Y-103532536D01*
X129376350Y-103533752D01*
X129373813Y-103535216D01*
X129373793Y-103535227D01*
X129011711Y-103744275D01*
X129011698Y-103744283D01*
X129009149Y-103745755D01*
X129006740Y-103747470D01*
X129006736Y-103747473D01*
X128666168Y-103989990D01*
X128666152Y-103990001D01*
X128663764Y-103991703D01*
X128661558Y-103993614D01*
X128661537Y-103993631D01*
X128345539Y-104267446D01*
X128345526Y-104267457D01*
X128343321Y-104269369D01*
X128341313Y-104271474D01*
X128341294Y-104271493D01*
X128052754Y-104574105D01*
X128052745Y-104574114D01*
X128050722Y-104576237D01*
X128048911Y-104578538D01*
X128048903Y-104578549D01*
X127790438Y-104907215D01*
X127790430Y-104907225D01*
X127788619Y-104909529D01*
X127787029Y-104912002D01*
X127787024Y-104912010D01*
X127560980Y-105263740D01*
X127560977Y-105263745D01*
X127559383Y-105266226D01*
X127558033Y-105268843D01*
X127558031Y-105268848D01*
X127367799Y-105637849D01*
X127365092Y-105643099D01*
X127363996Y-105645836D01*
X127363994Y-105645841D01*
X127211753Y-106026120D01*
X127207504Y-106036733D01*
X127206675Y-106039554D01*
X127206674Y-106039559D01*
X127088880Y-106440728D01*
X127088875Y-106440747D01*
X127088048Y-106443565D01*
X127087490Y-106446458D01*
X127087488Y-106446468D01*
X127008363Y-106857008D01*
X127007804Y-106859910D01*
X127007525Y-106862826D01*
X127007523Y-106862844D01*
X126967822Y-107278626D01*
X126967500Y-107281997D01*
X126967500Y-107706003D01*
X113634238Y-107706003D01*
X113617595Y-107650809D01*
X113472510Y-107307033D01*
X113291706Y-106980626D01*
X113077231Y-106675287D01*
X112980417Y-106564645D01*
X112877011Y-106446468D01*
X112831516Y-106394475D01*
X112753322Y-106322290D01*
X112559763Y-106143604D01*
X112559760Y-106143602D01*
X112557345Y-106141372D01*
X112257823Y-105918845D01*
X112254981Y-105917170D01*
X112254976Y-105917167D01*
X111939184Y-105731089D01*
X111936345Y-105729416D01*
X111933346Y-105728055D01*
X111933340Y-105728052D01*
X111599567Y-105576598D01*
X111599556Y-105576594D01*
X111596553Y-105575231D01*
X111593411Y-105574191D01*
X111593407Y-105574190D01*
X111245424Y-105459071D01*
X111245421Y-105459070D01*
X111242298Y-105458037D01*
X111239085Y-105457342D01*
X111239081Y-105457341D01*
X110880820Y-105379860D01*
X110880817Y-105379859D01*
X110877592Y-105379162D01*
X110874312Y-105378811D01*
X110874310Y-105378811D01*
X110509836Y-105339849D01*
X110509831Y-105339848D01*
X110506569Y-105339500D01*
X110226787Y-105339500D01*
X110225143Y-105339587D01*
X110225128Y-105339588D01*
X109950703Y-105354214D01*
X109950693Y-105354215D01*
X109947392Y-105354391D01*
X109944127Y-105354917D01*
X109944118Y-105354918D01*
X109582267Y-105413218D01*
X109582259Y-105413219D01*
X109579005Y-105413744D01*
X109575820Y-105414612D01*
X109575818Y-105414613D01*
X109222209Y-105511045D01*
X109222197Y-105511048D01*
X109219014Y-105511917D01*
X109215944Y-105513117D01*
X109215933Y-105513121D01*
X108874577Y-105646594D01*
X108874559Y-105646601D01*
X108871498Y-105647799D01*
X108868581Y-105649314D01*
X108868565Y-105649322D01*
X108543316Y-105818331D01*
X108543306Y-105818336D01*
X108540394Y-105819850D01*
X108537653Y-105821668D01*
X108537645Y-105821673D01*
X108232211Y-106024290D01*
X108232205Y-106024293D01*
X108229453Y-106026120D01*
X108226910Y-106028228D01*
X108226901Y-106028235D01*
X107944753Y-106262155D01*
X107944738Y-106262168D01*
X107942200Y-106264273D01*
X107939901Y-106266633D01*
X107939889Y-106266645D01*
X107684192Y-106529240D01*
X107684176Y-106529257D01*
X107681887Y-106531609D01*
X107679856Y-106534195D01*
X107679848Y-106534205D01*
X107453503Y-106822505D01*
X107453493Y-106822518D01*
X107451466Y-106825101D01*
X107449719Y-106827892D01*
X107449712Y-106827903D01*
X107255296Y-107138623D01*
X107255285Y-107138641D01*
X107253546Y-107141422D01*
X107252112Y-107144369D01*
X107252103Y-107144387D01*
X107091812Y-107474022D01*
X107091807Y-107474033D01*
X107090370Y-107476989D01*
X107089251Y-107480089D01*
X107089250Y-107480094D01*
X107007783Y-107706003D01*
X106963788Y-107828000D01*
X106963006Y-107831198D01*
X106963001Y-107831217D01*
X106876014Y-108187273D01*
X106876012Y-108187282D01*
X106875232Y-108190476D01*
X106874796Y-108193726D01*
X106874794Y-108193741D01*
X106826145Y-108557034D01*
X106826143Y-108557051D01*
X106825707Y-108560312D01*
X106825619Y-108563599D01*
X106825618Y-108563618D01*
X106815861Y-108930019D01*
X106815861Y-108930034D01*
X106815774Y-108933317D01*
X100000500Y-108933317D01*
X100000500Y-97757317D01*
X106815774Y-97757317D01*
X106816035Y-97760584D01*
X106816036Y-97760602D01*
X106845281Y-98125976D01*
X106845282Y-98125989D01*
X106845545Y-98129265D01*
X106914684Y-98495941D01*
X106915637Y-98499101D01*
X107010593Y-98814019D01*
X107022405Y-98853191D01*
X107023680Y-98856213D01*
X107023684Y-98856223D01*
X107166205Y-99193924D01*
X107166210Y-99193935D01*
X107167490Y-99196967D01*
X107348294Y-99523374D01*
X107350194Y-99526080D01*
X107350196Y-99526082D01*
X107495385Y-99732782D01*
X107562769Y-99828713D01*
X107564937Y-99831191D01*
X107564942Y-99831197D01*
X107749840Y-100042505D01*
X107808484Y-100109525D01*
X107810905Y-100111760D01*
X107810909Y-100111764D01*
X107968199Y-100256967D01*
X108082655Y-100362628D01*
X108382177Y-100585155D01*
X108703655Y-100774584D01*
X109043447Y-100928769D01*
X109397702Y-101045963D01*
X109762408Y-101124838D01*
X110133431Y-101164500D01*
X110136722Y-101164500D01*
X110411557Y-101164500D01*
X110413213Y-101164500D01*
X110692608Y-101149609D01*
X111060995Y-101090256D01*
X111420986Y-100992083D01*
X111768502Y-100856201D01*
X112099606Y-100684150D01*
X112410547Y-100477880D01*
X112697800Y-100239727D01*
X112958113Y-99972391D01*
X113188534Y-99678899D01*
X113386454Y-99362578D01*
X113549630Y-99027011D01*
X113676212Y-98676000D01*
X113764768Y-98313524D01*
X113814293Y-97943688D01*
X113824226Y-97570683D01*
X113794455Y-97198735D01*
X113772255Y-97081000D01*
X125248389Y-97081000D01*
X125268804Y-97366429D01*
X125329629Y-97646041D01*
X125364347Y-97739123D01*
X125422597Y-97895298D01*
X125429634Y-97914163D01*
X125566772Y-98165313D01*
X125634280Y-98255493D01*
X125738261Y-98394395D01*
X125940605Y-98596739D01*
X126112414Y-98725354D01*
X126169686Y-98768227D01*
X126253548Y-98814019D01*
X126420839Y-98905367D01*
X126688954Y-99005369D01*
X126688957Y-99005369D01*
X126688958Y-99005370D01*
X126741217Y-99016738D01*
X126968572Y-99066196D01*
X127182552Y-99081500D01*
X127184767Y-99081500D01*
X127323233Y-99081500D01*
X127325448Y-99081500D01*
X127539428Y-99066196D01*
X127819046Y-99005369D01*
X128087161Y-98905367D01*
X128248412Y-98817317D01*
X177427774Y-98817317D01*
X177428035Y-98820584D01*
X177428036Y-98820602D01*
X177457281Y-99185976D01*
X177457282Y-99185989D01*
X177457545Y-99189265D01*
X177526684Y-99555941D01*
X177527637Y-99559101D01*
X177580006Y-99732782D01*
X177634405Y-99913191D01*
X177635680Y-99916213D01*
X177635684Y-99916223D01*
X177778205Y-100253924D01*
X177778210Y-100253935D01*
X177779490Y-100256967D01*
X177960294Y-100583374D01*
X177962194Y-100586080D01*
X177962196Y-100586082D01*
X178152777Y-100857405D01*
X178174769Y-100888713D01*
X178176937Y-100891191D01*
X178176942Y-100891197D01*
X178312365Y-101045963D01*
X178420484Y-101169525D01*
X178694655Y-101422628D01*
X178994177Y-101645155D01*
X179315655Y-101834584D01*
X179655447Y-101988769D01*
X180009702Y-102105963D01*
X180374408Y-102184838D01*
X180745431Y-102224500D01*
X180748722Y-102224500D01*
X181023557Y-102224500D01*
X181025213Y-102224500D01*
X181304608Y-102209609D01*
X181672995Y-102150256D01*
X182032986Y-102052083D01*
X182380502Y-101916201D01*
X182711606Y-101744150D01*
X183022547Y-101537880D01*
X183309800Y-101299727D01*
X183570113Y-101032391D01*
X183800534Y-100738899D01*
X183998454Y-100422578D01*
X184161630Y-100087011D01*
X184288212Y-99736000D01*
X184376768Y-99373524D01*
X184426293Y-99003688D01*
X184436226Y-98630683D01*
X184406455Y-98258735D01*
X184337316Y-97892059D01*
X184229595Y-97534809D01*
X184228315Y-97531776D01*
X184085794Y-97194075D01*
X184085792Y-97194072D01*
X184084510Y-97191033D01*
X183903706Y-96864626D01*
X183689231Y-96559287D01*
X183651317Y-96515958D01*
X183445691Y-96280961D01*
X183443516Y-96278475D01*
X183287096Y-96134075D01*
X183171763Y-96027604D01*
X183171760Y-96027602D01*
X183169345Y-96025372D01*
X182869823Y-95802845D01*
X182866981Y-95801170D01*
X182866976Y-95801167D01*
X182551184Y-95615089D01*
X182548345Y-95613416D01*
X182545346Y-95612055D01*
X182545340Y-95612052D01*
X182211567Y-95460598D01*
X182211556Y-95460594D01*
X182208553Y-95459231D01*
X182205411Y-95458191D01*
X182205407Y-95458190D01*
X181857424Y-95343071D01*
X181857421Y-95343070D01*
X181854298Y-95342037D01*
X181851085Y-95341342D01*
X181851081Y-95341341D01*
X181492820Y-95263860D01*
X181492817Y-95263859D01*
X181489592Y-95263162D01*
X181486312Y-95262811D01*
X181486310Y-95262811D01*
X181121836Y-95223849D01*
X181121831Y-95223848D01*
X181118569Y-95223500D01*
X180838787Y-95223500D01*
X180837143Y-95223587D01*
X180837128Y-95223588D01*
X180562703Y-95238214D01*
X180562693Y-95238215D01*
X180559392Y-95238391D01*
X180556127Y-95238917D01*
X180556118Y-95238918D01*
X180194267Y-95297218D01*
X180194259Y-95297219D01*
X180191005Y-95297744D01*
X180187820Y-95298612D01*
X180187818Y-95298613D01*
X179834209Y-95395045D01*
X179834197Y-95395048D01*
X179831014Y-95395917D01*
X179827944Y-95397117D01*
X179827933Y-95397121D01*
X179486577Y-95530594D01*
X179486559Y-95530601D01*
X179483498Y-95531799D01*
X179480581Y-95533314D01*
X179480565Y-95533322D01*
X179155316Y-95702331D01*
X179155306Y-95702336D01*
X179152394Y-95703850D01*
X179149653Y-95705668D01*
X179149645Y-95705673D01*
X178844211Y-95908290D01*
X178844205Y-95908293D01*
X178841453Y-95910120D01*
X178838910Y-95912228D01*
X178838901Y-95912235D01*
X178556753Y-96146155D01*
X178556738Y-96146168D01*
X178554200Y-96148273D01*
X178551901Y-96150633D01*
X178551889Y-96150645D01*
X178296192Y-96413240D01*
X178296176Y-96413257D01*
X178293887Y-96415609D01*
X178291856Y-96418195D01*
X178291848Y-96418205D01*
X178065503Y-96706505D01*
X178065493Y-96706518D01*
X178063466Y-96709101D01*
X178061719Y-96711892D01*
X178061712Y-96711903D01*
X177867296Y-97022623D01*
X177867285Y-97022641D01*
X177865546Y-97025422D01*
X177864112Y-97028369D01*
X177864103Y-97028387D01*
X177703812Y-97358022D01*
X177703807Y-97358033D01*
X177702370Y-97360989D01*
X177701251Y-97364089D01*
X177701250Y-97364094D01*
X177640781Y-97531776D01*
X177575788Y-97712000D01*
X177575006Y-97715198D01*
X177575001Y-97715217D01*
X177488014Y-98071273D01*
X177488012Y-98071282D01*
X177487232Y-98074476D01*
X177486796Y-98077726D01*
X177486794Y-98077741D01*
X177438145Y-98441034D01*
X177438143Y-98441051D01*
X177437707Y-98444312D01*
X177437619Y-98447599D01*
X177437618Y-98447618D01*
X177427861Y-98814019D01*
X177427861Y-98814034D01*
X177427774Y-98817317D01*
X128248412Y-98817317D01*
X128338315Y-98768226D01*
X128567395Y-98596739D01*
X128769739Y-98394395D01*
X128941226Y-98165315D01*
X129078367Y-97914161D01*
X129178369Y-97646046D01*
X129239196Y-97366428D01*
X129259610Y-97081000D01*
X129239196Y-96795572D01*
X129188383Y-96561989D01*
X129178370Y-96515958D01*
X129164199Y-96477964D01*
X129078367Y-96247839D01*
X128958109Y-96027604D01*
X128941227Y-95996686D01*
X128898354Y-95939414D01*
X128769739Y-95767605D01*
X128567395Y-95565261D01*
X128452855Y-95479517D01*
X128338313Y-95393772D01*
X128087163Y-95256634D01*
X128087162Y-95256633D01*
X128087161Y-95256633D01*
X127819046Y-95156631D01*
X127819041Y-95156629D01*
X127539429Y-95095804D01*
X127327658Y-95080658D01*
X127327656Y-95080657D01*
X127325448Y-95080500D01*
X127182552Y-95080500D01*
X127180344Y-95080657D01*
X127180341Y-95080658D01*
X126968570Y-95095804D01*
X126688958Y-95156629D01*
X126420836Y-95256634D01*
X126169686Y-95393772D01*
X125940602Y-95565263D01*
X125738263Y-95767602D01*
X125566772Y-95996686D01*
X125429634Y-96247836D01*
X125329629Y-96515958D01*
X125268804Y-96795570D01*
X125248389Y-97081000D01*
X113772255Y-97081000D01*
X113725316Y-96832059D01*
X113617595Y-96474809D01*
X113535785Y-96280961D01*
X113473794Y-96134075D01*
X113473792Y-96134072D01*
X113472510Y-96131033D01*
X113291706Y-95804626D01*
X113077231Y-95499287D01*
X113042181Y-95459231D01*
X112900417Y-95297218D01*
X112831516Y-95218475D01*
X112764524Y-95156631D01*
X112559763Y-94967604D01*
X112559760Y-94967602D01*
X112557345Y-94965372D01*
X112257823Y-94742845D01*
X112254981Y-94741170D01*
X112254976Y-94741167D01*
X111939184Y-94555089D01*
X111936345Y-94553416D01*
X111933346Y-94552055D01*
X111933340Y-94552052D01*
X111599567Y-94400598D01*
X111599556Y-94400594D01*
X111596553Y-94399231D01*
X111593411Y-94398191D01*
X111593407Y-94398190D01*
X111245424Y-94283071D01*
X111245421Y-94283070D01*
X111242298Y-94282037D01*
X111239085Y-94281342D01*
X111239081Y-94281341D01*
X110880820Y-94203860D01*
X110880817Y-94203859D01*
X110877592Y-94203162D01*
X110874312Y-94202811D01*
X110874310Y-94202811D01*
X110509836Y-94163849D01*
X110509831Y-94163848D01*
X110506569Y-94163500D01*
X110226787Y-94163500D01*
X110225143Y-94163587D01*
X110225128Y-94163588D01*
X109950703Y-94178214D01*
X109950693Y-94178215D01*
X109947392Y-94178391D01*
X109944127Y-94178917D01*
X109944118Y-94178918D01*
X109582267Y-94237218D01*
X109582259Y-94237219D01*
X109579005Y-94237744D01*
X109575820Y-94238612D01*
X109575818Y-94238613D01*
X109222209Y-94335045D01*
X109222197Y-94335048D01*
X109219014Y-94335917D01*
X109215944Y-94337117D01*
X109215933Y-94337121D01*
X108874577Y-94470594D01*
X108874559Y-94470601D01*
X108871498Y-94471799D01*
X108868581Y-94473314D01*
X108868565Y-94473322D01*
X108543316Y-94642331D01*
X108543306Y-94642336D01*
X108540394Y-94643850D01*
X108537653Y-94645668D01*
X108537645Y-94645673D01*
X108232211Y-94848290D01*
X108232205Y-94848293D01*
X108229453Y-94850120D01*
X108226910Y-94852228D01*
X108226901Y-94852235D01*
X107944753Y-95086155D01*
X107944738Y-95086168D01*
X107942200Y-95088273D01*
X107939901Y-95090633D01*
X107939889Y-95090645D01*
X107684192Y-95353240D01*
X107684176Y-95353257D01*
X107681887Y-95355609D01*
X107679856Y-95358195D01*
X107679848Y-95358205D01*
X107453503Y-95646505D01*
X107453493Y-95646518D01*
X107451466Y-95649101D01*
X107449719Y-95651892D01*
X107449712Y-95651903D01*
X107255296Y-95962623D01*
X107255285Y-95962641D01*
X107253546Y-95965422D01*
X107252112Y-95968369D01*
X107252103Y-95968387D01*
X107091812Y-96298022D01*
X107091807Y-96298033D01*
X107090370Y-96300989D01*
X107089251Y-96304089D01*
X107089250Y-96304094D01*
X107012848Y-96515958D01*
X106963788Y-96652000D01*
X106963006Y-96655198D01*
X106963001Y-96655217D01*
X106876014Y-97011273D01*
X106876012Y-97011282D01*
X106875232Y-97014476D01*
X106874796Y-97017726D01*
X106874794Y-97017741D01*
X106826145Y-97381034D01*
X106826143Y-97381051D01*
X106825707Y-97384312D01*
X106825619Y-97387599D01*
X106825618Y-97387618D01*
X106815861Y-97754019D01*
X106815861Y-97754034D01*
X106815774Y-97757317D01*
X100000500Y-97757317D01*
X100000500Y-91600000D01*
X125275389Y-91600000D01*
X125295804Y-91885429D01*
X125356629Y-92165041D01*
X125456634Y-92433163D01*
X125593772Y-92684313D01*
X125679517Y-92798854D01*
X125765261Y-92913395D01*
X125967605Y-93115739D01*
X126139415Y-93244354D01*
X126196686Y-93287227D01*
X126336435Y-93363535D01*
X126447839Y-93424367D01*
X126715954Y-93524369D01*
X126715957Y-93524369D01*
X126715958Y-93524370D01*
X126768217Y-93535738D01*
X126995572Y-93585196D01*
X127209552Y-93600500D01*
X127211767Y-93600500D01*
X127350233Y-93600500D01*
X127352448Y-93600500D01*
X127566428Y-93585196D01*
X127846046Y-93524369D01*
X128114161Y-93424367D01*
X128365315Y-93287226D01*
X128594395Y-93115739D01*
X128796739Y-92913395D01*
X128968226Y-92684315D01*
X129105367Y-92433161D01*
X129205369Y-92165046D01*
X129266196Y-91885428D01*
X129286610Y-91600000D01*
X129266196Y-91314572D01*
X129205369Y-91034954D01*
X129105367Y-90766839D01*
X128968226Y-90515685D01*
X128796739Y-90286605D01*
X128594395Y-90084261D01*
X128479854Y-89998517D01*
X128365313Y-89912772D01*
X128114163Y-89775634D01*
X128114162Y-89775633D01*
X128114161Y-89775633D01*
X127846046Y-89675631D01*
X127846041Y-89675629D01*
X127566429Y-89614804D01*
X127354658Y-89599658D01*
X127354656Y-89599657D01*
X127352448Y-89599500D01*
X127209552Y-89599500D01*
X127207344Y-89599657D01*
X127207341Y-89599658D01*
X126995570Y-89614804D01*
X126715958Y-89675629D01*
X126447836Y-89775634D01*
X126196686Y-89912772D01*
X125967602Y-90084263D01*
X125765263Y-90286602D01*
X125593772Y-90515686D01*
X125456634Y-90766836D01*
X125356629Y-91034958D01*
X125295804Y-91314570D01*
X125275389Y-91600000D01*
X100000500Y-91600000D01*
X100000500Y-86511317D01*
X106815774Y-86511317D01*
X106816035Y-86514584D01*
X106816036Y-86514602D01*
X106845281Y-86879976D01*
X106845282Y-86879989D01*
X106845545Y-86883265D01*
X106846155Y-86886503D01*
X106846156Y-86886506D01*
X106858146Y-86950094D01*
X106914684Y-87249941D01*
X106915637Y-87253101D01*
X106968006Y-87426782D01*
X107022405Y-87607191D01*
X107023680Y-87610213D01*
X107023684Y-87610223D01*
X107166205Y-87947924D01*
X107166210Y-87947935D01*
X107167490Y-87950967D01*
X107348294Y-88277374D01*
X107562769Y-88582713D01*
X107564937Y-88585191D01*
X107564942Y-88585197D01*
X107728377Y-88771976D01*
X107808484Y-88863525D01*
X108082655Y-89116628D01*
X108382177Y-89339155D01*
X108703655Y-89528584D01*
X109043447Y-89682769D01*
X109397702Y-89799963D01*
X109762408Y-89878838D01*
X110133431Y-89918500D01*
X110136722Y-89918500D01*
X110411557Y-89918500D01*
X110413213Y-89918500D01*
X110692608Y-89903609D01*
X111060995Y-89844256D01*
X111420986Y-89746083D01*
X111768502Y-89610201D01*
X112099606Y-89438150D01*
X112410547Y-89231880D01*
X112697800Y-88993727D01*
X112958113Y-88726391D01*
X113188534Y-88432899D01*
X113207043Y-88403317D01*
X177427774Y-88403317D01*
X177428035Y-88406584D01*
X177428036Y-88406602D01*
X177457281Y-88771976D01*
X177457282Y-88771989D01*
X177457545Y-88775265D01*
X177458155Y-88778503D01*
X177458156Y-88778506D01*
X177521490Y-89114395D01*
X177526684Y-89141941D01*
X177527637Y-89145101D01*
X177586149Y-89339155D01*
X177634405Y-89499191D01*
X177635680Y-89502213D01*
X177635684Y-89502223D01*
X177778205Y-89839924D01*
X177778210Y-89839935D01*
X177779490Y-89842967D01*
X177960294Y-90169374D01*
X178174769Y-90474713D01*
X178176937Y-90477191D01*
X178176942Y-90477197D01*
X178361840Y-90688505D01*
X178420484Y-90755525D01*
X178422905Y-90757760D01*
X178422909Y-90757764D01*
X178558953Y-90883354D01*
X178694655Y-91008628D01*
X178994177Y-91231155D01*
X179315655Y-91420584D01*
X179655447Y-91574769D01*
X180009702Y-91691963D01*
X180374408Y-91770838D01*
X180745431Y-91810500D01*
X180748722Y-91810500D01*
X181023557Y-91810500D01*
X181025213Y-91810500D01*
X181304608Y-91795609D01*
X181672995Y-91736256D01*
X182032986Y-91638083D01*
X182380502Y-91502201D01*
X182711606Y-91330150D01*
X183022547Y-91123880D01*
X183309800Y-90885727D01*
X183570113Y-90618391D01*
X183800534Y-90324899D01*
X183998454Y-90008578D01*
X184161630Y-89673011D01*
X184288212Y-89322000D01*
X184376768Y-88959524D01*
X184426293Y-88589688D01*
X184436226Y-88216683D01*
X184406455Y-87844735D01*
X184337316Y-87478059D01*
X184229595Y-87120809D01*
X184130711Y-86886506D01*
X184085794Y-86780075D01*
X184085792Y-86780072D01*
X184084510Y-86777033D01*
X183903706Y-86450626D01*
X183689231Y-86145287D01*
X183680259Y-86135034D01*
X183445691Y-85866961D01*
X183443516Y-85864475D01*
X183339526Y-85768476D01*
X183171763Y-85613604D01*
X183171760Y-85613602D01*
X183169345Y-85611372D01*
X182869823Y-85388845D01*
X182866981Y-85387170D01*
X182866976Y-85387167D01*
X182603582Y-85231964D01*
X182548345Y-85199416D01*
X182545346Y-85198055D01*
X182545340Y-85198052D01*
X182211567Y-85046598D01*
X182211556Y-85046594D01*
X182208553Y-85045231D01*
X182205411Y-85044191D01*
X182205407Y-85044190D01*
X181857424Y-84929071D01*
X181857421Y-84929070D01*
X181854298Y-84928037D01*
X181851085Y-84927342D01*
X181851081Y-84927341D01*
X181492820Y-84849860D01*
X181492817Y-84849859D01*
X181489592Y-84849162D01*
X181486312Y-84848811D01*
X181486310Y-84848811D01*
X181121836Y-84809849D01*
X181121831Y-84809848D01*
X181118569Y-84809500D01*
X180838787Y-84809500D01*
X180837143Y-84809587D01*
X180837128Y-84809588D01*
X180562703Y-84824214D01*
X180562693Y-84824215D01*
X180559392Y-84824391D01*
X180556127Y-84824917D01*
X180556118Y-84824918D01*
X180194267Y-84883218D01*
X180194259Y-84883219D01*
X180191005Y-84883744D01*
X180187820Y-84884612D01*
X180187818Y-84884613D01*
X179834209Y-84981045D01*
X179834197Y-84981048D01*
X179831014Y-84981917D01*
X179827944Y-84983117D01*
X179827933Y-84983121D01*
X179486577Y-85116594D01*
X179486559Y-85116601D01*
X179483498Y-85117799D01*
X179480581Y-85119314D01*
X179480565Y-85119322D01*
X179155316Y-85288331D01*
X179155306Y-85288336D01*
X179152394Y-85289850D01*
X179149653Y-85291668D01*
X179149645Y-85291673D01*
X178844211Y-85494290D01*
X178844205Y-85494293D01*
X178841453Y-85496120D01*
X178838910Y-85498228D01*
X178838901Y-85498235D01*
X178556753Y-85732155D01*
X178556738Y-85732168D01*
X178554200Y-85734273D01*
X178551901Y-85736633D01*
X178551889Y-85736645D01*
X178296192Y-85999240D01*
X178296176Y-85999257D01*
X178293887Y-86001609D01*
X178291856Y-86004195D01*
X178291848Y-86004205D01*
X178065503Y-86292505D01*
X178065493Y-86292518D01*
X178063466Y-86295101D01*
X178061719Y-86297892D01*
X178061712Y-86297903D01*
X177867296Y-86608623D01*
X177867285Y-86608641D01*
X177865546Y-86611422D01*
X177864112Y-86614369D01*
X177864103Y-86614387D01*
X177703812Y-86944022D01*
X177703807Y-86944033D01*
X177702370Y-86946989D01*
X177701251Y-86950089D01*
X177701250Y-86950094D01*
X177591980Y-87253101D01*
X177575788Y-87298000D01*
X177575006Y-87301198D01*
X177575001Y-87301217D01*
X177488014Y-87657273D01*
X177488012Y-87657282D01*
X177487232Y-87660476D01*
X177486796Y-87663726D01*
X177486794Y-87663741D01*
X177438145Y-88027034D01*
X177438143Y-88027051D01*
X177437707Y-88030312D01*
X177437619Y-88033599D01*
X177437618Y-88033618D01*
X177427861Y-88400019D01*
X177427861Y-88400034D01*
X177427774Y-88403317D01*
X113207043Y-88403317D01*
X113386454Y-88116578D01*
X113549630Y-87781011D01*
X113676212Y-87430000D01*
X113764768Y-87067524D01*
X113814293Y-86697688D01*
X113824226Y-86324683D01*
X113794455Y-85952735D01*
X113725316Y-85586059D01*
X113617595Y-85228809D01*
X113539680Y-85044190D01*
X113473794Y-84888075D01*
X113473792Y-84888072D01*
X113472510Y-84885033D01*
X113291706Y-84558626D01*
X113077231Y-84253287D01*
X112951510Y-84109609D01*
X112833691Y-83974961D01*
X112831516Y-83972475D01*
X112557345Y-83719372D01*
X112257823Y-83496845D01*
X112254981Y-83495170D01*
X112254976Y-83495167D01*
X111939184Y-83309089D01*
X111936345Y-83307416D01*
X111933346Y-83306055D01*
X111933340Y-83306052D01*
X111599567Y-83154598D01*
X111599556Y-83154594D01*
X111596553Y-83153231D01*
X111593411Y-83152191D01*
X111593407Y-83152190D01*
X111245424Y-83037071D01*
X111245421Y-83037070D01*
X111242298Y-83036037D01*
X111239085Y-83035342D01*
X111239081Y-83035341D01*
X110880820Y-82957860D01*
X110880817Y-82957859D01*
X110877592Y-82957162D01*
X110874312Y-82956811D01*
X110874310Y-82956811D01*
X110509836Y-82917849D01*
X110509831Y-82917848D01*
X110506569Y-82917500D01*
X110226787Y-82917500D01*
X110225143Y-82917587D01*
X110225128Y-82917588D01*
X109950703Y-82932214D01*
X109950693Y-82932215D01*
X109947392Y-82932391D01*
X109944127Y-82932917D01*
X109944118Y-82932918D01*
X109582267Y-82991218D01*
X109582259Y-82991219D01*
X109579005Y-82991744D01*
X109575820Y-82992612D01*
X109575818Y-82992613D01*
X109222209Y-83089045D01*
X109222197Y-83089048D01*
X109219014Y-83089917D01*
X109215944Y-83091117D01*
X109215933Y-83091121D01*
X108874577Y-83224594D01*
X108874559Y-83224601D01*
X108871498Y-83225799D01*
X108868581Y-83227314D01*
X108868565Y-83227322D01*
X108543316Y-83396331D01*
X108543306Y-83396336D01*
X108540394Y-83397850D01*
X108537653Y-83399668D01*
X108537645Y-83399673D01*
X108232211Y-83602290D01*
X108232205Y-83602293D01*
X108229453Y-83604120D01*
X108226910Y-83606228D01*
X108226901Y-83606235D01*
X107944753Y-83840155D01*
X107944738Y-83840168D01*
X107942200Y-83842273D01*
X107939901Y-83844633D01*
X107939889Y-83844645D01*
X107684192Y-84107240D01*
X107684176Y-84107257D01*
X107681887Y-84109609D01*
X107679856Y-84112195D01*
X107679848Y-84112205D01*
X107453503Y-84400505D01*
X107453493Y-84400518D01*
X107451466Y-84403101D01*
X107449719Y-84405892D01*
X107449712Y-84405903D01*
X107255296Y-84716623D01*
X107255285Y-84716641D01*
X107253546Y-84719422D01*
X107252112Y-84722369D01*
X107252103Y-84722387D01*
X107091812Y-85052022D01*
X107091807Y-85052033D01*
X107090370Y-85054989D01*
X107089251Y-85058089D01*
X107089250Y-85058094D01*
X106970580Y-85387167D01*
X106963788Y-85406000D01*
X106963006Y-85409198D01*
X106963001Y-85409217D01*
X106876014Y-85765273D01*
X106876012Y-85765282D01*
X106875232Y-85768476D01*
X106874796Y-85771726D01*
X106874794Y-85771741D01*
X106826145Y-86135034D01*
X106826143Y-86135051D01*
X106825707Y-86138312D01*
X106825619Y-86141599D01*
X106825618Y-86141618D01*
X106815861Y-86508019D01*
X106815861Y-86508034D01*
X106815774Y-86511317D01*
X100000500Y-86511317D01*
X100000500Y-75405317D01*
X106815774Y-75405317D01*
X106816035Y-75408584D01*
X106816036Y-75408602D01*
X106845281Y-75773976D01*
X106845282Y-75773989D01*
X106845545Y-75777265D01*
X106846155Y-75780503D01*
X106846156Y-75780506D01*
X106874225Y-75929369D01*
X106914684Y-76143941D01*
X106915637Y-76147101D01*
X106968006Y-76320782D01*
X107022405Y-76501191D01*
X107023680Y-76504213D01*
X107023684Y-76504223D01*
X107166205Y-76841924D01*
X107166210Y-76841935D01*
X107167490Y-76844967D01*
X107348294Y-77171374D01*
X107350194Y-77174080D01*
X107350196Y-77174082D01*
X107369989Y-77202261D01*
X107562769Y-77476713D01*
X107564937Y-77479191D01*
X107564942Y-77479197D01*
X107700122Y-77633685D01*
X107808484Y-77757525D01*
X108082655Y-78010628D01*
X108382177Y-78233155D01*
X108703655Y-78422584D01*
X109043447Y-78576769D01*
X109397702Y-78693963D01*
X109762408Y-78772838D01*
X110133431Y-78812500D01*
X110136722Y-78812500D01*
X110411557Y-78812500D01*
X110413213Y-78812500D01*
X110692608Y-78797609D01*
X111060995Y-78738256D01*
X111135272Y-78718000D01*
X120616389Y-78718000D01*
X120636804Y-79003429D01*
X120697629Y-79283041D01*
X120797634Y-79551163D01*
X120934772Y-79802313D01*
X121020517Y-79916855D01*
X121106261Y-80031395D01*
X121308605Y-80233739D01*
X121480414Y-80362354D01*
X121537686Y-80405227D01*
X121677435Y-80481535D01*
X121788839Y-80542367D01*
X122056954Y-80642369D01*
X122056957Y-80642369D01*
X122056958Y-80642370D01*
X122109217Y-80653738D01*
X122336572Y-80703196D01*
X122550552Y-80718500D01*
X122552767Y-80718500D01*
X122691233Y-80718500D01*
X122693448Y-80718500D01*
X122907428Y-80703196D01*
X123187046Y-80642369D01*
X123455161Y-80542367D01*
X123706315Y-80405226D01*
X123935395Y-80233739D01*
X124137739Y-80031395D01*
X124309226Y-79802315D01*
X124446367Y-79551161D01*
X124515428Y-79366003D01*
X127255500Y-79366003D01*
X127255779Y-79368932D01*
X127255780Y-79368938D01*
X127295523Y-79785155D01*
X127295525Y-79785170D01*
X127295804Y-79788090D01*
X127296362Y-79790988D01*
X127296363Y-79790991D01*
X127342697Y-80031397D01*
X127376048Y-80204435D01*
X127376876Y-80207256D01*
X127376880Y-80207271D01*
X127475273Y-80542365D01*
X127495504Y-80611267D01*
X127653092Y-81004901D01*
X127847383Y-81381773D01*
X127848973Y-81384247D01*
X127848977Y-81384254D01*
X128075024Y-81735990D01*
X128075029Y-81735998D01*
X128076619Y-81738471D01*
X128338722Y-82071763D01*
X128340754Y-82073894D01*
X128629294Y-82376506D01*
X128629302Y-82376514D01*
X128631321Y-82378631D01*
X128633537Y-82380552D01*
X128633539Y-82380553D01*
X128949537Y-82654368D01*
X128949545Y-82654374D01*
X128951764Y-82656297D01*
X129297149Y-82902245D01*
X129391660Y-82956811D01*
X129624292Y-83091121D01*
X129664350Y-83114248D01*
X129667029Y-83115471D01*
X129667034Y-83115474D01*
X129908612Y-83225799D01*
X130050040Y-83290387D01*
X130450727Y-83429066D01*
X130862782Y-83529029D01*
X131282473Y-83589372D01*
X131600050Y-83604500D01*
X131601517Y-83604500D01*
X131810483Y-83604500D01*
X131811950Y-83604500D01*
X132129527Y-83589372D01*
X132549218Y-83529029D01*
X132961273Y-83429066D01*
X133361960Y-83290387D01*
X133747650Y-83114248D01*
X134114851Y-82902245D01*
X134460236Y-82656297D01*
X134780679Y-82378631D01*
X135073278Y-82071763D01*
X135335381Y-81738471D01*
X135564617Y-81381774D01*
X135758908Y-81004901D01*
X135916496Y-80611267D01*
X136035952Y-80204435D01*
X136116196Y-79788090D01*
X136156500Y-79366003D01*
X156967500Y-79366003D01*
X156967779Y-79368932D01*
X156967780Y-79368938D01*
X157007523Y-79785155D01*
X157007525Y-79785170D01*
X157007804Y-79788090D01*
X157008362Y-79790988D01*
X157008363Y-79790991D01*
X157054697Y-80031397D01*
X157088048Y-80204435D01*
X157088876Y-80207256D01*
X157088880Y-80207271D01*
X157187273Y-80542365D01*
X157207504Y-80611267D01*
X157365092Y-81004901D01*
X157559383Y-81381773D01*
X157560973Y-81384247D01*
X157560977Y-81384254D01*
X157787024Y-81735990D01*
X157787029Y-81735998D01*
X157788619Y-81738471D01*
X158050722Y-82071763D01*
X158052754Y-82073894D01*
X158341294Y-82376506D01*
X158341302Y-82376514D01*
X158343321Y-82378631D01*
X158345537Y-82380552D01*
X158345539Y-82380553D01*
X158661537Y-82654368D01*
X158661545Y-82654374D01*
X158663764Y-82656297D01*
X159009149Y-82902245D01*
X159103660Y-82956811D01*
X159336292Y-83091121D01*
X159376350Y-83114248D01*
X159379029Y-83115471D01*
X159379034Y-83115474D01*
X159620612Y-83225799D01*
X159762040Y-83290387D01*
X160162727Y-83429066D01*
X160574782Y-83529029D01*
X160994473Y-83589372D01*
X161312050Y-83604500D01*
X161313517Y-83604500D01*
X161522483Y-83604500D01*
X161523950Y-83604500D01*
X161841527Y-83589372D01*
X162261218Y-83529029D01*
X162673273Y-83429066D01*
X163073960Y-83290387D01*
X163459650Y-83114248D01*
X163826851Y-82902245D01*
X164172236Y-82656297D01*
X164492679Y-82378631D01*
X164785278Y-82071763D01*
X165047381Y-81738471D01*
X165276617Y-81381774D01*
X165470908Y-81004901D01*
X165628496Y-80611267D01*
X165747952Y-80204435D01*
X165828196Y-79788090D01*
X165868500Y-79366003D01*
X165868500Y-78941997D01*
X165828196Y-78519910D01*
X165747952Y-78103565D01*
X165628496Y-77696733D01*
X165470908Y-77303099D01*
X165276617Y-76926227D01*
X165191403Y-76793631D01*
X165048975Y-76572009D01*
X165048972Y-76572006D01*
X165047381Y-76569529D01*
X164785278Y-76236237D01*
X164694184Y-76140701D01*
X164494705Y-75931493D01*
X164494696Y-75931484D01*
X164492679Y-75929369D01*
X164490460Y-75927446D01*
X164174462Y-75653631D01*
X164174451Y-75653622D01*
X164172236Y-75651703D01*
X164169836Y-75649994D01*
X164169831Y-75649990D01*
X164002713Y-75530986D01*
X163826851Y-75405755D01*
X163820380Y-75402019D01*
X163462206Y-75195227D01*
X163462194Y-75195221D01*
X163459650Y-75193752D01*
X163456978Y-75192532D01*
X163456965Y-75192525D01*
X163076646Y-75018839D01*
X163076634Y-75018834D01*
X163073960Y-75017613D01*
X163071173Y-75016648D01*
X163071167Y-75016646D01*
X162676071Y-74879902D01*
X162676063Y-74879899D01*
X162673273Y-74878934D01*
X162554100Y-74850023D01*
X162264089Y-74779667D01*
X162264079Y-74779665D01*
X162261218Y-74778971D01*
X162258294Y-74778550D01*
X162258291Y-74778550D01*
X161844439Y-74719046D01*
X161844424Y-74719044D01*
X161841527Y-74718628D01*
X161838591Y-74718488D01*
X161838590Y-74718488D01*
X161525406Y-74703569D01*
X161525391Y-74703568D01*
X161523950Y-74703500D01*
X161312050Y-74703500D01*
X161310609Y-74703568D01*
X161310593Y-74703569D01*
X160997409Y-74718488D01*
X160997406Y-74718488D01*
X160994473Y-74718628D01*
X160991577Y-74719044D01*
X160991560Y-74719046D01*
X160577708Y-74778550D01*
X160577701Y-74778551D01*
X160574782Y-74778971D01*
X160571924Y-74779664D01*
X160571910Y-74779667D01*
X160165599Y-74878237D01*
X160165593Y-74878238D01*
X160162727Y-74878934D01*
X160159942Y-74879897D01*
X160159928Y-74879902D01*
X159764832Y-75016646D01*
X159764819Y-75016651D01*
X159762040Y-75017613D01*
X159759372Y-75018831D01*
X159759353Y-75018839D01*
X159379034Y-75192525D01*
X159379012Y-75192536D01*
X159376350Y-75193752D01*
X159373813Y-75195216D01*
X159373793Y-75195227D01*
X159011711Y-75404275D01*
X159011698Y-75404283D01*
X159009149Y-75405755D01*
X159006740Y-75407470D01*
X159006736Y-75407473D01*
X158666168Y-75649990D01*
X158666152Y-75650001D01*
X158663764Y-75651703D01*
X158661558Y-75653614D01*
X158661537Y-75653631D01*
X158345539Y-75927446D01*
X158345526Y-75927457D01*
X158343321Y-75929369D01*
X158341313Y-75931474D01*
X158341294Y-75931493D01*
X158052754Y-76234105D01*
X158052745Y-76234114D01*
X158050722Y-76236237D01*
X158048911Y-76238538D01*
X158048903Y-76238549D01*
X157790438Y-76567215D01*
X157790430Y-76567225D01*
X157788619Y-76569529D01*
X157787029Y-76572002D01*
X157787024Y-76572010D01*
X157560980Y-76923740D01*
X157560977Y-76923745D01*
X157559383Y-76926226D01*
X157558033Y-76928843D01*
X157558031Y-76928848D01*
X157431605Y-77174082D01*
X157365092Y-77303099D01*
X157363996Y-77305836D01*
X157363994Y-77305841D01*
X157232745Y-77633685D01*
X157207504Y-77696733D01*
X157206675Y-77699554D01*
X157206674Y-77699559D01*
X157088880Y-78100728D01*
X157088875Y-78100747D01*
X157088048Y-78103565D01*
X157087490Y-78106458D01*
X157087488Y-78106468D01*
X157008363Y-78517008D01*
X157007804Y-78519910D01*
X157007525Y-78522826D01*
X157007523Y-78522844D01*
X156979865Y-78812500D01*
X156967500Y-78941997D01*
X156967500Y-79366003D01*
X136156500Y-79366003D01*
X136156500Y-78941997D01*
X136116196Y-78519910D01*
X136035952Y-78103565D01*
X135916496Y-77696733D01*
X135758908Y-77303099D01*
X135564617Y-76926227D01*
X135479403Y-76793631D01*
X135336975Y-76572009D01*
X135336972Y-76572006D01*
X135335381Y-76569529D01*
X135073278Y-76236237D01*
X134982184Y-76140701D01*
X134782705Y-75931493D01*
X134782696Y-75931484D01*
X134780679Y-75929369D01*
X134778460Y-75927446D01*
X134462462Y-75653631D01*
X134462451Y-75653622D01*
X134460236Y-75651703D01*
X134457836Y-75649994D01*
X134457831Y-75649990D01*
X134290713Y-75530986D01*
X134114851Y-75405755D01*
X134108380Y-75402019D01*
X133750206Y-75195227D01*
X133750194Y-75195221D01*
X133747650Y-75193752D01*
X133744978Y-75192532D01*
X133744965Y-75192525D01*
X133364646Y-75018839D01*
X133364634Y-75018834D01*
X133361960Y-75017613D01*
X133359173Y-75016648D01*
X133359167Y-75016646D01*
X132964071Y-74879902D01*
X132964063Y-74879899D01*
X132961273Y-74878934D01*
X132842100Y-74850023D01*
X132552089Y-74779667D01*
X132552079Y-74779665D01*
X132549218Y-74778971D01*
X132546294Y-74778550D01*
X132546291Y-74778550D01*
X132132439Y-74719046D01*
X132132424Y-74719044D01*
X132129527Y-74718628D01*
X132126591Y-74718488D01*
X132126590Y-74718488D01*
X131813406Y-74703569D01*
X131813391Y-74703568D01*
X131811950Y-74703500D01*
X131600050Y-74703500D01*
X131598609Y-74703568D01*
X131598593Y-74703569D01*
X131285409Y-74718488D01*
X131285406Y-74718488D01*
X131282473Y-74718628D01*
X131279577Y-74719044D01*
X131279560Y-74719046D01*
X130865708Y-74778550D01*
X130865701Y-74778551D01*
X130862782Y-74778971D01*
X130859924Y-74779664D01*
X130859910Y-74779667D01*
X130453599Y-74878237D01*
X130453593Y-74878238D01*
X130450727Y-74878934D01*
X130447942Y-74879897D01*
X130447928Y-74879902D01*
X130052832Y-75016646D01*
X130052819Y-75016651D01*
X130050040Y-75017613D01*
X130047372Y-75018831D01*
X130047353Y-75018839D01*
X129667034Y-75192525D01*
X129667012Y-75192536D01*
X129664350Y-75193752D01*
X129661813Y-75195216D01*
X129661793Y-75195227D01*
X129299711Y-75404275D01*
X129299698Y-75404283D01*
X129297149Y-75405755D01*
X129294740Y-75407470D01*
X129294736Y-75407473D01*
X128954168Y-75649990D01*
X128954152Y-75650001D01*
X128951764Y-75651703D01*
X128949558Y-75653614D01*
X128949537Y-75653631D01*
X128633539Y-75927446D01*
X128633526Y-75927457D01*
X128631321Y-75929369D01*
X128629313Y-75931474D01*
X128629294Y-75931493D01*
X128340754Y-76234105D01*
X128340745Y-76234114D01*
X128338722Y-76236237D01*
X128336911Y-76238538D01*
X128336903Y-76238549D01*
X128078438Y-76567215D01*
X128078430Y-76567225D01*
X128076619Y-76569529D01*
X128075029Y-76572002D01*
X128075024Y-76572010D01*
X127848980Y-76923740D01*
X127848977Y-76923745D01*
X127847383Y-76926226D01*
X127846033Y-76928843D01*
X127846031Y-76928848D01*
X127719605Y-77174082D01*
X127653092Y-77303099D01*
X127651996Y-77305836D01*
X127651994Y-77305841D01*
X127520745Y-77633685D01*
X127495504Y-77696733D01*
X127494675Y-77699554D01*
X127494674Y-77699559D01*
X127376880Y-78100728D01*
X127376875Y-78100747D01*
X127376048Y-78103565D01*
X127375490Y-78106458D01*
X127375488Y-78106468D01*
X127296363Y-78517008D01*
X127295804Y-78519910D01*
X127295525Y-78522826D01*
X127295523Y-78522844D01*
X127267865Y-78812500D01*
X127255500Y-78941997D01*
X127255500Y-79366003D01*
X124515428Y-79366003D01*
X124546369Y-79283046D01*
X124607196Y-79003428D01*
X124627610Y-78718000D01*
X124607196Y-78432572D01*
X124546369Y-78152954D01*
X124446367Y-77884839D01*
X124309226Y-77633685D01*
X124137739Y-77404605D01*
X123935395Y-77202261D01*
X123820855Y-77116517D01*
X123706313Y-77030772D01*
X123455163Y-76893634D01*
X123455162Y-76893633D01*
X123455161Y-76893633D01*
X123187046Y-76793631D01*
X123187041Y-76793629D01*
X122907429Y-76732804D01*
X122695658Y-76717658D01*
X122695656Y-76717657D01*
X122693448Y-76717500D01*
X122550552Y-76717500D01*
X122548344Y-76717657D01*
X122548341Y-76717658D01*
X122336570Y-76732804D01*
X122056958Y-76793629D01*
X121788836Y-76893634D01*
X121537686Y-77030772D01*
X121308602Y-77202263D01*
X121106263Y-77404602D01*
X120934772Y-77633686D01*
X120797634Y-77884836D01*
X120697629Y-78152958D01*
X120636804Y-78432570D01*
X120616389Y-78718000D01*
X111135272Y-78718000D01*
X111420986Y-78640083D01*
X111768502Y-78504201D01*
X112099606Y-78332150D01*
X112410547Y-78125880D01*
X112697800Y-77887727D01*
X112958113Y-77620391D01*
X113188534Y-77326899D01*
X113386454Y-77010578D01*
X113549630Y-76675011D01*
X113676212Y-76324000D01*
X113764768Y-75961524D01*
X113814293Y-75591688D01*
X113824226Y-75218683D01*
X113794455Y-74846735D01*
X113725316Y-74480059D01*
X113617595Y-74122809D01*
X113472510Y-73779033D01*
X113291706Y-73452626D01*
X113077231Y-73147287D01*
X112951510Y-73003609D01*
X112833691Y-72868961D01*
X112831516Y-72866475D01*
X112557345Y-72613372D01*
X112257823Y-72390845D01*
X112254981Y-72389170D01*
X112254976Y-72389167D01*
X111939184Y-72203089D01*
X111936345Y-72201416D01*
X111933346Y-72200055D01*
X111933340Y-72200052D01*
X111599567Y-72048598D01*
X111599556Y-72048594D01*
X111596553Y-72047231D01*
X111593411Y-72046191D01*
X111593407Y-72046190D01*
X111245424Y-71931071D01*
X111245421Y-71931070D01*
X111242298Y-71930037D01*
X111239085Y-71929342D01*
X111239081Y-71929341D01*
X110880820Y-71851860D01*
X110880817Y-71851859D01*
X110877592Y-71851162D01*
X110874312Y-71850811D01*
X110874310Y-71850811D01*
X110509836Y-71811849D01*
X110509831Y-71811848D01*
X110506569Y-71811500D01*
X110226787Y-71811500D01*
X110225143Y-71811587D01*
X110225128Y-71811588D01*
X109950703Y-71826214D01*
X109950693Y-71826215D01*
X109947392Y-71826391D01*
X109944127Y-71826917D01*
X109944118Y-71826918D01*
X109582267Y-71885218D01*
X109582259Y-71885219D01*
X109579005Y-71885744D01*
X109575820Y-71886612D01*
X109575818Y-71886613D01*
X109222209Y-71983045D01*
X109222197Y-71983048D01*
X109219014Y-71983917D01*
X109215944Y-71985117D01*
X109215933Y-71985121D01*
X108874577Y-72118594D01*
X108874559Y-72118601D01*
X108871498Y-72119799D01*
X108868581Y-72121314D01*
X108868565Y-72121322D01*
X108543316Y-72290331D01*
X108543306Y-72290336D01*
X108540394Y-72291850D01*
X108537653Y-72293668D01*
X108537645Y-72293673D01*
X108232211Y-72496290D01*
X108232205Y-72496293D01*
X108229453Y-72498120D01*
X108226910Y-72500228D01*
X108226901Y-72500235D01*
X107944753Y-72734155D01*
X107944738Y-72734168D01*
X107942200Y-72736273D01*
X107939901Y-72738633D01*
X107939889Y-72738645D01*
X107684192Y-73001240D01*
X107684176Y-73001257D01*
X107681887Y-73003609D01*
X107679856Y-73006195D01*
X107679848Y-73006205D01*
X107453503Y-73294505D01*
X107453493Y-73294518D01*
X107451466Y-73297101D01*
X107449719Y-73299892D01*
X107449712Y-73299903D01*
X107255296Y-73610623D01*
X107255285Y-73610641D01*
X107253546Y-73613422D01*
X107252112Y-73616369D01*
X107252103Y-73616387D01*
X107091812Y-73946022D01*
X107091807Y-73946033D01*
X107090370Y-73948989D01*
X107089251Y-73952089D01*
X107089250Y-73952094D01*
X107028781Y-74119776D01*
X106963788Y-74300000D01*
X106963006Y-74303198D01*
X106963001Y-74303217D01*
X106876014Y-74659273D01*
X106876012Y-74659282D01*
X106875232Y-74662476D01*
X106874796Y-74665726D01*
X106874794Y-74665741D01*
X106826145Y-75029034D01*
X106826143Y-75029051D01*
X106825707Y-75032312D01*
X106825619Y-75035599D01*
X106825618Y-75035618D01*
X106815861Y-75402019D01*
X106815861Y-75402034D01*
X106815774Y-75405317D01*
X100000500Y-75405317D01*
X100000500Y-58387317D01*
X106815774Y-58387317D01*
X106816035Y-58390584D01*
X106816036Y-58390602D01*
X106845281Y-58755976D01*
X106845282Y-58755989D01*
X106845545Y-58759265D01*
X106914684Y-59125941D01*
X106915637Y-59129101D01*
X106968006Y-59302782D01*
X107022405Y-59483191D01*
X107023680Y-59486213D01*
X107023684Y-59486223D01*
X107166205Y-59823924D01*
X107166210Y-59823935D01*
X107167490Y-59826967D01*
X107348294Y-60153374D01*
X107562769Y-60458713D01*
X107564937Y-60461191D01*
X107564942Y-60461197D01*
X107749840Y-60672505D01*
X107808484Y-60739525D01*
X108082655Y-60992628D01*
X108382177Y-61215155D01*
X108703655Y-61404584D01*
X109043447Y-61558769D01*
X109397702Y-61675963D01*
X109762408Y-61754838D01*
X110133431Y-61794500D01*
X110136722Y-61794500D01*
X110411557Y-61794500D01*
X110413213Y-61794500D01*
X110692608Y-61779609D01*
X111060995Y-61720256D01*
X111420986Y-61622083D01*
X111768502Y-61486201D01*
X112099606Y-61314150D01*
X112410547Y-61107880D01*
X112697800Y-60869727D01*
X112958113Y-60602391D01*
X113188534Y-60308899D01*
X113386454Y-59992578D01*
X113549630Y-59657011D01*
X113676212Y-59306000D01*
X113764768Y-58943524D01*
X113814293Y-58573688D01*
X113824226Y-58200683D01*
X113794455Y-57828735D01*
X113725316Y-57462059D01*
X113617595Y-57104809D01*
X113472510Y-56761033D01*
X113291706Y-56434626D01*
X113077231Y-56129287D01*
X112951510Y-55985609D01*
X112833691Y-55850961D01*
X112831516Y-55848475D01*
X112828134Y-55845353D01*
X112559763Y-55597604D01*
X112559760Y-55597602D01*
X112557345Y-55595372D01*
X112257823Y-55372845D01*
X112254981Y-55371170D01*
X112254976Y-55371167D01*
X111939184Y-55185089D01*
X111936345Y-55183416D01*
X111933346Y-55182055D01*
X111933340Y-55182052D01*
X111599567Y-55030598D01*
X111599556Y-55030594D01*
X111596553Y-55029231D01*
X111593411Y-55028191D01*
X111593407Y-55028190D01*
X111245424Y-54913071D01*
X111245421Y-54913070D01*
X111242298Y-54912037D01*
X111239085Y-54911342D01*
X111239081Y-54911341D01*
X110880820Y-54833860D01*
X110880817Y-54833859D01*
X110877592Y-54833162D01*
X110874312Y-54832811D01*
X110874310Y-54832811D01*
X110509836Y-54793849D01*
X110509831Y-54793848D01*
X110506569Y-54793500D01*
X110226787Y-54793500D01*
X110225143Y-54793587D01*
X110225128Y-54793588D01*
X109950703Y-54808214D01*
X109950693Y-54808215D01*
X109947392Y-54808391D01*
X109944127Y-54808917D01*
X109944118Y-54808918D01*
X109582267Y-54867218D01*
X109582259Y-54867219D01*
X109579005Y-54867744D01*
X109575820Y-54868612D01*
X109575818Y-54868613D01*
X109222209Y-54965045D01*
X109222197Y-54965048D01*
X109219014Y-54965917D01*
X109215944Y-54967117D01*
X109215933Y-54967121D01*
X108874577Y-55100594D01*
X108874559Y-55100601D01*
X108871498Y-55101799D01*
X108868581Y-55103314D01*
X108868565Y-55103322D01*
X108543316Y-55272331D01*
X108543306Y-55272336D01*
X108540394Y-55273850D01*
X108537653Y-55275668D01*
X108537645Y-55275673D01*
X108232211Y-55478290D01*
X108232205Y-55478293D01*
X108229453Y-55480120D01*
X108226910Y-55482228D01*
X108226901Y-55482235D01*
X107944753Y-55716155D01*
X107944738Y-55716168D01*
X107942200Y-55718273D01*
X107939901Y-55720633D01*
X107939889Y-55720645D01*
X107684192Y-55983240D01*
X107684176Y-55983257D01*
X107681887Y-55985609D01*
X107679856Y-55988195D01*
X107679848Y-55988205D01*
X107453503Y-56276505D01*
X107453493Y-56276518D01*
X107451466Y-56279101D01*
X107449719Y-56281892D01*
X107449712Y-56281903D01*
X107255296Y-56592623D01*
X107255285Y-56592641D01*
X107253546Y-56595422D01*
X107252112Y-56598369D01*
X107252103Y-56598387D01*
X107091812Y-56928022D01*
X107091807Y-56928033D01*
X107090370Y-56930989D01*
X107089251Y-56934089D01*
X107089250Y-56934094D01*
X107028781Y-57101776D01*
X106963788Y-57282000D01*
X106963006Y-57285198D01*
X106963001Y-57285217D01*
X106876014Y-57641273D01*
X106876012Y-57641282D01*
X106875232Y-57644476D01*
X106874796Y-57647726D01*
X106874794Y-57647741D01*
X106826145Y-58011034D01*
X106826143Y-58011051D01*
X106825707Y-58014312D01*
X106825619Y-58017599D01*
X106825618Y-58017618D01*
X106815861Y-58384019D01*
X106815861Y-58384034D01*
X106815774Y-58387317D01*
X100000500Y-58387317D01*
X100000500Y-51920003D01*
X126407500Y-51920003D01*
X126407779Y-51922932D01*
X126407780Y-51922938D01*
X126447523Y-52339155D01*
X126447525Y-52339170D01*
X126447804Y-52342090D01*
X126528048Y-52758435D01*
X126528876Y-52761256D01*
X126528880Y-52761271D01*
X126635222Y-53123438D01*
X126647504Y-53165267D01*
X126805092Y-53558901D01*
X126999383Y-53935773D01*
X127000973Y-53938247D01*
X127000977Y-53938254D01*
X127227024Y-54289990D01*
X127227029Y-54289998D01*
X127228619Y-54292471D01*
X127490722Y-54625763D01*
X127492754Y-54627894D01*
X127781294Y-54930506D01*
X127781302Y-54930514D01*
X127783321Y-54932631D01*
X127785537Y-54934552D01*
X127785539Y-54934553D01*
X128101537Y-55208368D01*
X128101545Y-55208374D01*
X128103764Y-55210297D01*
X128449149Y-55456245D01*
X128451711Y-55457724D01*
X128693990Y-55597604D01*
X128816350Y-55668248D01*
X128819029Y-55669471D01*
X128819034Y-55669474D01*
X128925889Y-55718273D01*
X129202040Y-55844387D01*
X129602727Y-55983066D01*
X130014782Y-56083029D01*
X130434473Y-56143372D01*
X130752050Y-56158500D01*
X130753517Y-56158500D01*
X130962483Y-56158500D01*
X130963950Y-56158500D01*
X131281527Y-56143372D01*
X131701218Y-56083029D01*
X132113273Y-55983066D01*
X132513960Y-55844387D01*
X132899650Y-55668248D01*
X133266851Y-55456245D01*
X133612236Y-55210297D01*
X133932679Y-54932631D01*
X134225278Y-54625763D01*
X134487381Y-54292471D01*
X134716617Y-53935774D01*
X134910908Y-53558901D01*
X135068496Y-53165267D01*
X135187952Y-52758435D01*
X135268196Y-52342090D01*
X135308500Y-51920003D01*
X162729500Y-51920003D01*
X162729779Y-51922932D01*
X162729780Y-51922938D01*
X162769523Y-52339155D01*
X162769525Y-52339170D01*
X162769804Y-52342090D01*
X162850048Y-52758435D01*
X162850876Y-52761256D01*
X162850880Y-52761271D01*
X162957222Y-53123438D01*
X162969504Y-53165267D01*
X163127092Y-53558901D01*
X163321383Y-53935773D01*
X163322973Y-53938247D01*
X163322977Y-53938254D01*
X163549024Y-54289990D01*
X163549029Y-54289998D01*
X163550619Y-54292471D01*
X163812722Y-54625763D01*
X163814754Y-54627894D01*
X164103294Y-54930506D01*
X164103302Y-54930514D01*
X164105321Y-54932631D01*
X164107537Y-54934552D01*
X164107539Y-54934553D01*
X164423537Y-55208368D01*
X164423545Y-55208374D01*
X164425764Y-55210297D01*
X164771149Y-55456245D01*
X164773711Y-55457724D01*
X165015990Y-55597604D01*
X165138350Y-55668248D01*
X165141029Y-55669471D01*
X165141034Y-55669474D01*
X165247889Y-55718273D01*
X165524040Y-55844387D01*
X165924727Y-55983066D01*
X166336782Y-56083029D01*
X166756473Y-56143372D01*
X167074050Y-56158500D01*
X167075517Y-56158500D01*
X167284483Y-56158500D01*
X167285950Y-56158500D01*
X167603527Y-56143372D01*
X168023218Y-56083029D01*
X168435273Y-55983066D01*
X168835960Y-55844387D01*
X169221650Y-55668248D01*
X169588851Y-55456245D01*
X169934236Y-55210297D01*
X170254679Y-54932631D01*
X170547278Y-54625763D01*
X170809381Y-54292471D01*
X171038617Y-53935774D01*
X171232908Y-53558901D01*
X171390496Y-53165267D01*
X171509952Y-52758435D01*
X171590196Y-52342090D01*
X171630500Y-51920003D01*
X171630500Y-51495997D01*
X171590196Y-51073910D01*
X171509952Y-50657565D01*
X171390496Y-50250733D01*
X171232908Y-49857099D01*
X171038617Y-49480227D01*
X171031078Y-49468496D01*
X170810975Y-49126009D01*
X170810972Y-49126006D01*
X170809381Y-49123529D01*
X170729538Y-49022000D01*
X181828531Y-49022000D01*
X181848364Y-49248689D01*
X181907261Y-49468497D01*
X182003432Y-49674735D01*
X182133953Y-49861140D01*
X182294859Y-50022046D01*
X182481264Y-50152567D01*
X182481265Y-50152567D01*
X182481266Y-50152568D01*
X182687504Y-50248739D01*
X182907308Y-50307635D01*
X183077216Y-50322500D01*
X183079925Y-50322500D01*
X183188075Y-50322500D01*
X183190784Y-50322500D01*
X183360692Y-50307635D01*
X183580496Y-50248739D01*
X183786734Y-50152568D01*
X183973139Y-50022047D01*
X184134047Y-49861139D01*
X184264568Y-49674734D01*
X184360739Y-49468496D01*
X184419635Y-49248692D01*
X184439468Y-49022000D01*
X184419635Y-48795308D01*
X184360739Y-48575504D01*
X184264568Y-48369266D01*
X184134047Y-48182861D01*
X184134046Y-48182859D01*
X183973140Y-48021953D01*
X183786735Y-47891432D01*
X183580497Y-47795261D01*
X183360689Y-47736364D01*
X183193484Y-47721736D01*
X183193479Y-47721735D01*
X183190784Y-47721500D01*
X183077216Y-47721500D01*
X183074521Y-47721735D01*
X183074515Y-47721736D01*
X182907310Y-47736364D01*
X182687502Y-47795261D01*
X182481264Y-47891432D01*
X182294859Y-48021953D01*
X182133953Y-48182859D01*
X182003432Y-48369264D01*
X181907261Y-48575502D01*
X181848364Y-48795310D01*
X181828531Y-49022000D01*
X170729538Y-49022000D01*
X170547278Y-48790237D01*
X170342528Y-48575502D01*
X170256705Y-48485493D01*
X170256696Y-48485484D01*
X170254679Y-48483369D01*
X170252460Y-48481446D01*
X169936462Y-48207631D01*
X169936451Y-48207622D01*
X169934236Y-48205703D01*
X169931836Y-48203994D01*
X169931831Y-48203990D01*
X169764713Y-48084986D01*
X169588851Y-47959755D01*
X169470512Y-47891432D01*
X169224206Y-47749227D01*
X169224194Y-47749221D01*
X169221650Y-47747752D01*
X169218978Y-47746532D01*
X169218965Y-47746525D01*
X168838646Y-47572839D01*
X168838634Y-47572834D01*
X168835960Y-47571613D01*
X168833173Y-47570648D01*
X168833167Y-47570646D01*
X168438071Y-47433902D01*
X168438063Y-47433899D01*
X168435273Y-47432934D01*
X168432400Y-47432237D01*
X168026089Y-47333667D01*
X168026079Y-47333665D01*
X168023218Y-47332971D01*
X168020294Y-47332550D01*
X168020291Y-47332550D01*
X167606439Y-47273046D01*
X167606424Y-47273044D01*
X167603527Y-47272628D01*
X167600591Y-47272488D01*
X167600590Y-47272488D01*
X167287406Y-47257569D01*
X167287391Y-47257568D01*
X167285950Y-47257500D01*
X167074050Y-47257500D01*
X167072609Y-47257568D01*
X167072593Y-47257569D01*
X166759409Y-47272488D01*
X166759406Y-47272488D01*
X166756473Y-47272628D01*
X166753577Y-47273044D01*
X166753560Y-47273046D01*
X166339708Y-47332550D01*
X166339701Y-47332551D01*
X166336782Y-47332971D01*
X166333924Y-47333664D01*
X166333910Y-47333667D01*
X165927599Y-47432237D01*
X165927593Y-47432238D01*
X165924727Y-47432934D01*
X165921942Y-47433897D01*
X165921928Y-47433902D01*
X165526832Y-47570646D01*
X165526819Y-47570651D01*
X165524040Y-47571613D01*
X165521372Y-47572831D01*
X165521353Y-47572839D01*
X165141034Y-47746525D01*
X165141012Y-47746536D01*
X165138350Y-47747752D01*
X165135813Y-47749216D01*
X165135793Y-47749227D01*
X164773711Y-47958275D01*
X164773698Y-47958283D01*
X164771149Y-47959755D01*
X164768740Y-47961470D01*
X164768736Y-47961473D01*
X164428168Y-48203990D01*
X164428152Y-48204001D01*
X164425764Y-48205703D01*
X164423558Y-48207614D01*
X164423537Y-48207631D01*
X164107539Y-48481446D01*
X164107526Y-48481457D01*
X164105321Y-48483369D01*
X164103313Y-48485474D01*
X164103294Y-48485493D01*
X163814754Y-48788105D01*
X163814745Y-48788114D01*
X163812722Y-48790237D01*
X163810911Y-48792538D01*
X163810903Y-48792549D01*
X163552438Y-49121215D01*
X163552430Y-49121225D01*
X163550619Y-49123529D01*
X163549029Y-49126002D01*
X163549024Y-49126010D01*
X163322980Y-49477740D01*
X163322977Y-49477745D01*
X163321383Y-49480226D01*
X163127092Y-49857099D01*
X163125996Y-49859836D01*
X163125994Y-49859841D01*
X163008804Y-50152568D01*
X162969504Y-50250733D01*
X162968675Y-50253554D01*
X162968674Y-50253559D01*
X162850880Y-50654728D01*
X162850875Y-50654747D01*
X162850048Y-50657565D01*
X162769804Y-51073910D01*
X162769525Y-51076826D01*
X162769523Y-51076844D01*
X162729780Y-51493061D01*
X162729500Y-51495997D01*
X162729500Y-51920003D01*
X135308500Y-51920003D01*
X135308500Y-51495997D01*
X135268196Y-51073910D01*
X135187952Y-50657565D01*
X135068496Y-50250733D01*
X134910908Y-49857099D01*
X134716617Y-49480227D01*
X134709078Y-49468496D01*
X134488975Y-49126009D01*
X134488972Y-49126006D01*
X134487381Y-49123529D01*
X134225278Y-48790237D01*
X134020528Y-48575502D01*
X133934705Y-48485493D01*
X133934696Y-48485484D01*
X133932679Y-48483369D01*
X133930460Y-48481446D01*
X133614462Y-48207631D01*
X133614451Y-48207622D01*
X133612236Y-48205703D01*
X133609836Y-48203994D01*
X133609831Y-48203990D01*
X133442713Y-48084986D01*
X133266851Y-47959755D01*
X133148512Y-47891432D01*
X132902206Y-47749227D01*
X132902194Y-47749221D01*
X132899650Y-47747752D01*
X132896978Y-47746532D01*
X132896965Y-47746525D01*
X132516646Y-47572839D01*
X132516634Y-47572834D01*
X132513960Y-47571613D01*
X132511173Y-47570648D01*
X132511167Y-47570646D01*
X132116071Y-47433902D01*
X132116063Y-47433899D01*
X132113273Y-47432934D01*
X132110400Y-47432237D01*
X131704089Y-47333667D01*
X131704079Y-47333665D01*
X131701218Y-47332971D01*
X131698294Y-47332550D01*
X131698291Y-47332550D01*
X131284439Y-47273046D01*
X131284424Y-47273044D01*
X131281527Y-47272628D01*
X131278591Y-47272488D01*
X131278590Y-47272488D01*
X130965406Y-47257569D01*
X130965391Y-47257568D01*
X130963950Y-47257500D01*
X130752050Y-47257500D01*
X130750609Y-47257568D01*
X130750593Y-47257569D01*
X130437409Y-47272488D01*
X130437406Y-47272488D01*
X130434473Y-47272628D01*
X130431577Y-47273044D01*
X130431560Y-47273046D01*
X130017708Y-47332550D01*
X130017701Y-47332551D01*
X130014782Y-47332971D01*
X130011924Y-47333664D01*
X130011910Y-47333667D01*
X129605599Y-47432237D01*
X129605593Y-47432238D01*
X129602727Y-47432934D01*
X129599942Y-47433897D01*
X129599928Y-47433902D01*
X129204832Y-47570646D01*
X129204819Y-47570651D01*
X129202040Y-47571613D01*
X129199372Y-47572831D01*
X129199353Y-47572839D01*
X128819034Y-47746525D01*
X128819012Y-47746536D01*
X128816350Y-47747752D01*
X128813813Y-47749216D01*
X128813793Y-47749227D01*
X128451711Y-47958275D01*
X128451698Y-47958283D01*
X128449149Y-47959755D01*
X128446740Y-47961470D01*
X128446736Y-47961473D01*
X128106168Y-48203990D01*
X128106152Y-48204001D01*
X128103764Y-48205703D01*
X128101558Y-48207614D01*
X128101537Y-48207631D01*
X127785539Y-48481446D01*
X127785526Y-48481457D01*
X127783321Y-48483369D01*
X127781313Y-48485474D01*
X127781294Y-48485493D01*
X127492754Y-48788105D01*
X127492745Y-48788114D01*
X127490722Y-48790237D01*
X127488911Y-48792538D01*
X127488903Y-48792549D01*
X127230438Y-49121215D01*
X127230430Y-49121225D01*
X127228619Y-49123529D01*
X127227029Y-49126002D01*
X127227024Y-49126010D01*
X127000980Y-49477740D01*
X127000977Y-49477745D01*
X126999383Y-49480226D01*
X126805092Y-49857099D01*
X126803996Y-49859836D01*
X126803994Y-49859841D01*
X126686804Y-50152568D01*
X126647504Y-50250733D01*
X126646675Y-50253554D01*
X126646674Y-50253559D01*
X126528880Y-50654728D01*
X126528875Y-50654747D01*
X126528048Y-50657565D01*
X126447804Y-51073910D01*
X126447525Y-51076826D01*
X126447523Y-51076844D01*
X126407780Y-51493061D01*
X126407500Y-51495997D01*
X126407500Y-51920003D01*
X100000500Y-51920003D01*
X100000500Y-41623317D01*
X106815774Y-41623317D01*
X106816035Y-41626584D01*
X106816036Y-41626602D01*
X106845281Y-41991976D01*
X106845282Y-41991989D01*
X106845545Y-41995265D01*
X106914684Y-42361941D01*
X106915637Y-42365101D01*
X106968006Y-42538782D01*
X107022405Y-42719191D01*
X107023680Y-42722213D01*
X107023684Y-42722223D01*
X107166205Y-43059924D01*
X107166210Y-43059935D01*
X107167490Y-43062967D01*
X107348294Y-43389374D01*
X107562769Y-43694713D01*
X107564937Y-43697191D01*
X107564942Y-43697197D01*
X107749840Y-43908505D01*
X107808484Y-43975525D01*
X108082655Y-44228628D01*
X108382177Y-44451155D01*
X108703655Y-44640584D01*
X109043447Y-44794769D01*
X109397702Y-44911963D01*
X109762408Y-44990838D01*
X110133431Y-45030500D01*
X110136722Y-45030500D01*
X110411557Y-45030500D01*
X110413213Y-45030500D01*
X110692608Y-45015609D01*
X111060995Y-44956256D01*
X111420986Y-44858083D01*
X111768502Y-44722201D01*
X112099606Y-44550150D01*
X112410547Y-44343880D01*
X112697800Y-44105727D01*
X112958113Y-43838391D01*
X113188534Y-43544899D01*
X113386454Y-43228578D01*
X113549630Y-42893011D01*
X113676212Y-42542000D01*
X113683708Y-42511317D01*
X179629774Y-42511317D01*
X179630035Y-42514584D01*
X179630036Y-42514602D01*
X179659281Y-42879976D01*
X179659282Y-42879989D01*
X179659545Y-42883265D01*
X179728684Y-43249941D01*
X179729637Y-43253101D01*
X179818404Y-43547494D01*
X179836405Y-43607191D01*
X179837680Y-43610213D01*
X179837684Y-43610223D01*
X179980205Y-43947924D01*
X179980210Y-43947935D01*
X179981490Y-43950967D01*
X180162294Y-44277374D01*
X180164194Y-44280080D01*
X180164196Y-44280082D01*
X180285538Y-44452832D01*
X180376769Y-44582713D01*
X180378937Y-44585191D01*
X180378942Y-44585197D01*
X180561124Y-44793401D01*
X180622484Y-44863525D01*
X180624905Y-44865760D01*
X180624909Y-44865764D01*
X180803261Y-45030411D01*
X180896655Y-45116628D01*
X181196177Y-45339155D01*
X181517655Y-45528584D01*
X181857447Y-45682769D01*
X182211702Y-45799963D01*
X182576408Y-45878838D01*
X182947431Y-45918500D01*
X182950722Y-45918500D01*
X183225557Y-45918500D01*
X183227213Y-45918500D01*
X183506608Y-45903609D01*
X183874995Y-45844256D01*
X184234986Y-45746083D01*
X184582502Y-45610201D01*
X184913606Y-45438150D01*
X185224547Y-45231880D01*
X185511800Y-44993727D01*
X185772113Y-44726391D01*
X186002534Y-44432899D01*
X186200454Y-44116578D01*
X186363630Y-43781011D01*
X186490212Y-43430000D01*
X186578768Y-43067524D01*
X186628293Y-42697688D01*
X186638226Y-42324683D01*
X186608455Y-41952735D01*
X186539316Y-41586059D01*
X186431595Y-41228809D01*
X186286510Y-40885033D01*
X186105706Y-40558626D01*
X185891231Y-40253287D01*
X185765510Y-40109609D01*
X185669666Y-40000075D01*
X185645516Y-39972475D01*
X185371345Y-39719372D01*
X185071823Y-39496845D01*
X185068981Y-39495170D01*
X185068976Y-39495167D01*
X184753184Y-39309089D01*
X184750345Y-39307416D01*
X184747346Y-39306055D01*
X184747340Y-39306052D01*
X184413567Y-39154598D01*
X184413556Y-39154594D01*
X184410553Y-39153231D01*
X184407411Y-39152191D01*
X184407407Y-39152190D01*
X184059424Y-39037071D01*
X184059421Y-39037070D01*
X184056298Y-39036037D01*
X184053085Y-39035342D01*
X184053081Y-39035341D01*
X183694820Y-38957860D01*
X183694817Y-38957859D01*
X183691592Y-38957162D01*
X183688312Y-38956811D01*
X183688310Y-38956811D01*
X183323836Y-38917849D01*
X183323831Y-38917848D01*
X183320569Y-38917500D01*
X183040787Y-38917500D01*
X183039143Y-38917587D01*
X183039128Y-38917588D01*
X182764703Y-38932214D01*
X182764693Y-38932215D01*
X182761392Y-38932391D01*
X182758127Y-38932917D01*
X182758118Y-38932918D01*
X182396267Y-38991218D01*
X182396259Y-38991219D01*
X182393005Y-38991744D01*
X182389820Y-38992612D01*
X182389818Y-38992613D01*
X182036209Y-39089045D01*
X182036197Y-39089048D01*
X182033014Y-39089917D01*
X182029944Y-39091117D01*
X182029933Y-39091121D01*
X181688577Y-39224594D01*
X181688559Y-39224601D01*
X181685498Y-39225799D01*
X181682581Y-39227314D01*
X181682565Y-39227322D01*
X181357316Y-39396331D01*
X181357306Y-39396336D01*
X181354394Y-39397850D01*
X181351653Y-39399668D01*
X181351645Y-39399673D01*
X181046211Y-39602290D01*
X181046205Y-39602293D01*
X181043453Y-39604120D01*
X181040910Y-39606228D01*
X181040901Y-39606235D01*
X180758753Y-39840155D01*
X180758738Y-39840168D01*
X180756200Y-39842273D01*
X180753901Y-39844633D01*
X180753889Y-39844645D01*
X180498192Y-40107240D01*
X180498176Y-40107257D01*
X180495887Y-40109609D01*
X180493856Y-40112195D01*
X180493848Y-40112205D01*
X180267503Y-40400505D01*
X180267493Y-40400518D01*
X180265466Y-40403101D01*
X180263719Y-40405892D01*
X180263712Y-40405903D01*
X180069296Y-40716623D01*
X180069285Y-40716641D01*
X180067546Y-40719422D01*
X180066112Y-40722369D01*
X180066103Y-40722387D01*
X179905812Y-41052022D01*
X179905807Y-41052033D01*
X179904370Y-41054989D01*
X179903251Y-41058089D01*
X179903250Y-41058094D01*
X179835115Y-41247034D01*
X179777788Y-41406000D01*
X179777006Y-41409198D01*
X179777001Y-41409217D01*
X179690014Y-41765273D01*
X179690012Y-41765282D01*
X179689232Y-41768476D01*
X179688796Y-41771726D01*
X179688794Y-41771741D01*
X179640145Y-42135034D01*
X179640143Y-42135051D01*
X179639707Y-42138312D01*
X179639619Y-42141599D01*
X179639618Y-42141618D01*
X179629861Y-42508019D01*
X179629861Y-42508034D01*
X179629774Y-42511317D01*
X113683708Y-42511317D01*
X113764768Y-42179524D01*
X113814293Y-41809688D01*
X113824226Y-41436683D01*
X113794455Y-41064735D01*
X113725316Y-40698059D01*
X113617595Y-40340809D01*
X113542985Y-40164022D01*
X113473794Y-40000075D01*
X113473792Y-40000072D01*
X113472510Y-39997033D01*
X113291706Y-39670626D01*
X113077231Y-39365287D01*
X113025399Y-39306052D01*
X112892875Y-39154598D01*
X112831516Y-39084475D01*
X112780166Y-39037071D01*
X112559763Y-38833604D01*
X112559760Y-38833602D01*
X112557345Y-38831372D01*
X112257823Y-38608845D01*
X112254981Y-38607170D01*
X112254976Y-38607167D01*
X111939184Y-38421089D01*
X111936345Y-38419416D01*
X111933346Y-38418055D01*
X111933340Y-38418052D01*
X111599567Y-38266598D01*
X111599556Y-38266594D01*
X111596553Y-38265231D01*
X111593411Y-38264191D01*
X111593407Y-38264190D01*
X111245424Y-38149071D01*
X111245421Y-38149070D01*
X111242298Y-38148037D01*
X111239085Y-38147342D01*
X111239081Y-38147341D01*
X110880820Y-38069860D01*
X110880817Y-38069859D01*
X110877592Y-38069162D01*
X110874312Y-38068811D01*
X110874310Y-38068811D01*
X110509836Y-38029849D01*
X110509831Y-38029848D01*
X110506569Y-38029500D01*
X110226787Y-38029500D01*
X110225143Y-38029587D01*
X110225128Y-38029588D01*
X109950703Y-38044214D01*
X109950693Y-38044215D01*
X109947392Y-38044391D01*
X109944127Y-38044917D01*
X109944118Y-38044918D01*
X109582267Y-38103218D01*
X109582259Y-38103219D01*
X109579005Y-38103744D01*
X109575820Y-38104612D01*
X109575818Y-38104613D01*
X109222209Y-38201045D01*
X109222197Y-38201048D01*
X109219014Y-38201917D01*
X109215944Y-38203117D01*
X109215933Y-38203121D01*
X108874577Y-38336594D01*
X108874559Y-38336601D01*
X108871498Y-38337799D01*
X108868581Y-38339314D01*
X108868565Y-38339322D01*
X108543316Y-38508331D01*
X108543306Y-38508336D01*
X108540394Y-38509850D01*
X108537653Y-38511668D01*
X108537645Y-38511673D01*
X108232211Y-38714290D01*
X108232205Y-38714293D01*
X108229453Y-38716120D01*
X108226910Y-38718228D01*
X108226901Y-38718235D01*
X107944753Y-38952155D01*
X107944738Y-38952168D01*
X107942200Y-38954273D01*
X107939901Y-38956633D01*
X107939889Y-38956645D01*
X107684192Y-39219240D01*
X107684176Y-39219257D01*
X107681887Y-39221609D01*
X107679856Y-39224195D01*
X107679848Y-39224205D01*
X107453503Y-39512505D01*
X107453493Y-39512518D01*
X107451466Y-39515101D01*
X107449719Y-39517892D01*
X107449712Y-39517903D01*
X107255296Y-39828623D01*
X107255285Y-39828641D01*
X107253546Y-39831422D01*
X107252112Y-39834369D01*
X107252103Y-39834387D01*
X107091812Y-40164022D01*
X107091807Y-40164033D01*
X107090370Y-40166989D01*
X107089251Y-40170089D01*
X107089250Y-40170094D01*
X107004213Y-40405903D01*
X106963788Y-40518000D01*
X106963006Y-40521198D01*
X106963001Y-40521217D01*
X106876014Y-40877273D01*
X106876012Y-40877282D01*
X106875232Y-40880476D01*
X106874796Y-40883726D01*
X106874794Y-40883741D01*
X106826145Y-41247034D01*
X106826143Y-41247051D01*
X106825707Y-41250312D01*
X106825619Y-41253599D01*
X106825618Y-41253618D01*
X106815861Y-41620019D01*
X106815861Y-41620034D01*
X106815774Y-41623317D01*
X100000500Y-41623317D01*
X100000500Y-35305999D01*
X178272531Y-35305999D01*
X178292364Y-35532689D01*
X178351261Y-35752497D01*
X178447432Y-35958735D01*
X178577953Y-36145140D01*
X178738859Y-36306046D01*
X178925264Y-36436567D01*
X178925265Y-36436567D01*
X178925266Y-36436568D01*
X179131504Y-36532739D01*
X179351308Y-36591635D01*
X179521216Y-36606500D01*
X179523925Y-36606500D01*
X179632075Y-36606500D01*
X179634784Y-36606500D01*
X179804692Y-36591635D01*
X180024496Y-36532739D01*
X180230734Y-36436568D01*
X180417139Y-36306047D01*
X180578047Y-36145139D01*
X180708568Y-35958734D01*
X180804739Y-35752496D01*
X180863635Y-35532692D01*
X180883468Y-35306000D01*
X181828531Y-35306000D01*
X181848364Y-35532689D01*
X181907261Y-35752497D01*
X182003432Y-35958735D01*
X182133953Y-36145140D01*
X182294859Y-36306046D01*
X182481264Y-36436567D01*
X182481265Y-36436567D01*
X182481266Y-36436568D01*
X182687504Y-36532739D01*
X182907308Y-36591635D01*
X183077216Y-36606500D01*
X183079925Y-36606500D01*
X183188075Y-36606500D01*
X183190784Y-36606500D01*
X183360692Y-36591635D01*
X183580496Y-36532739D01*
X183786734Y-36436568D01*
X183973139Y-36306047D01*
X184134047Y-36145139D01*
X184264568Y-35958734D01*
X184360739Y-35752496D01*
X184419635Y-35532692D01*
X184439468Y-35306000D01*
X184439468Y-35305999D01*
X185638531Y-35305999D01*
X185658364Y-35532689D01*
X185717261Y-35752497D01*
X185813432Y-35958735D01*
X185943953Y-36145140D01*
X186104859Y-36306046D01*
X186291264Y-36436567D01*
X186291265Y-36436567D01*
X186291266Y-36436568D01*
X186497504Y-36532739D01*
X186717308Y-36591635D01*
X186887216Y-36606500D01*
X186889925Y-36606500D01*
X186998075Y-36606500D01*
X187000784Y-36606500D01*
X187170692Y-36591635D01*
X187390496Y-36532739D01*
X187596734Y-36436568D01*
X187783139Y-36306047D01*
X187944047Y-36145139D01*
X188074568Y-35958734D01*
X188170739Y-35752496D01*
X188229635Y-35532692D01*
X188249468Y-35306000D01*
X188229635Y-35079308D01*
X188170739Y-34859504D01*
X188074568Y-34653266D01*
X187944047Y-34466861D01*
X187944046Y-34466859D01*
X187783140Y-34305953D01*
X187596735Y-34175432D01*
X187390497Y-34079261D01*
X187170689Y-34020364D01*
X187003484Y-34005736D01*
X187003479Y-34005735D01*
X187000784Y-34005500D01*
X186887216Y-34005500D01*
X186884521Y-34005735D01*
X186884515Y-34005736D01*
X186717310Y-34020364D01*
X186497502Y-34079261D01*
X186291264Y-34175432D01*
X186104859Y-34305953D01*
X185943953Y-34466859D01*
X185813432Y-34653264D01*
X185717261Y-34859502D01*
X185658364Y-35079310D01*
X185638531Y-35305999D01*
X184439468Y-35305999D01*
X184419635Y-35079308D01*
X184360739Y-34859504D01*
X184264568Y-34653266D01*
X184134047Y-34466861D01*
X184134046Y-34466859D01*
X183973140Y-34305953D01*
X183786735Y-34175432D01*
X183580497Y-34079261D01*
X183360689Y-34020364D01*
X183193484Y-34005736D01*
X183193479Y-34005735D01*
X183190784Y-34005500D01*
X183077216Y-34005500D01*
X183074521Y-34005735D01*
X183074515Y-34005736D01*
X182907310Y-34020364D01*
X182687502Y-34079261D01*
X182481264Y-34175432D01*
X182294859Y-34305953D01*
X182133953Y-34466859D01*
X182003432Y-34653264D01*
X181907261Y-34859502D01*
X181848364Y-35079310D01*
X181828531Y-35306000D01*
X180883468Y-35306000D01*
X180863635Y-35079308D01*
X180804739Y-34859504D01*
X180708568Y-34653266D01*
X180578047Y-34466861D01*
X180578046Y-34466859D01*
X180417140Y-34305953D01*
X180230735Y-34175432D01*
X180024497Y-34079261D01*
X179804689Y-34020364D01*
X179637484Y-34005736D01*
X179637479Y-34005735D01*
X179634784Y-34005500D01*
X179521216Y-34005500D01*
X179518521Y-34005735D01*
X179518515Y-34005736D01*
X179351310Y-34020364D01*
X179131502Y-34079261D01*
X178925264Y-34175432D01*
X178738859Y-34305953D01*
X178577953Y-34466859D01*
X178447432Y-34653264D01*
X178351261Y-34859502D01*
X178292364Y-35079310D01*
X178272531Y-35305999D01*
X100000500Y-35305999D01*
X100000500Y-30723317D01*
X106815774Y-30723317D01*
X106816035Y-30726584D01*
X106816036Y-30726602D01*
X106845281Y-31091976D01*
X106845282Y-31091989D01*
X106845545Y-31095265D01*
X106846155Y-31098503D01*
X106846156Y-31098506D01*
X106879463Y-31275149D01*
X106914684Y-31461941D01*
X106915637Y-31465101D01*
X106968006Y-31638782D01*
X107022405Y-31819191D01*
X107023680Y-31822213D01*
X107023684Y-31822223D01*
X107166205Y-32159924D01*
X107166210Y-32159935D01*
X107167490Y-32162967D01*
X107348294Y-32489374D01*
X107350194Y-32492080D01*
X107350196Y-32492082D01*
X107356027Y-32500384D01*
X107562769Y-32794713D01*
X107564937Y-32797191D01*
X107564942Y-32797197D01*
X107749840Y-33008505D01*
X107808484Y-33075525D01*
X108082655Y-33328628D01*
X108382177Y-33551155D01*
X108703655Y-33740584D01*
X109043447Y-33894769D01*
X109397702Y-34011963D01*
X109762408Y-34090838D01*
X110133431Y-34130500D01*
X110136722Y-34130500D01*
X110411557Y-34130500D01*
X110413213Y-34130500D01*
X110692608Y-34115609D01*
X111060995Y-34056256D01*
X111420986Y-33958083D01*
X111768502Y-33822201D01*
X112099606Y-33650150D01*
X112410547Y-33443880D01*
X112697800Y-33205727D01*
X112958113Y-32938391D01*
X113188534Y-32644899D01*
X113294282Y-32475889D01*
X177999416Y-32475889D01*
X177999459Y-32500000D01*
X177999501Y-32500101D01*
X177999616Y-32500382D01*
X177999618Y-32500384D01*
X177999808Y-32500462D01*
X178000000Y-32500541D01*
X178000002Y-32500539D01*
X178024616Y-32500524D01*
X178024616Y-32500528D01*
X178024760Y-32500500D01*
X187975240Y-32500500D01*
X187975383Y-32500528D01*
X187975384Y-32500524D01*
X187999997Y-32500539D01*
X188000000Y-32500541D01*
X188000383Y-32500383D01*
X188000500Y-32500099D01*
X188000541Y-32500000D01*
X188000540Y-32499997D01*
X188000583Y-32475889D01*
X188000500Y-32475467D01*
X188000500Y-17524759D01*
X188000528Y-17524616D01*
X188000524Y-17524616D01*
X188000539Y-17500002D01*
X188000541Y-17500000D01*
X188000462Y-17499808D01*
X188000384Y-17499618D01*
X188000383Y-17499617D01*
X188000379Y-17499615D01*
X188000097Y-17499499D01*
X188000000Y-17499459D01*
X187975446Y-17499459D01*
X187975240Y-17499500D01*
X178024760Y-17499500D01*
X178024554Y-17499459D01*
X177999999Y-17499459D01*
X177999900Y-17499500D01*
X177999618Y-17499615D01*
X177999615Y-17499618D01*
X177999459Y-17499999D01*
X177999476Y-17524616D01*
X177999471Y-17524616D01*
X177999500Y-17524759D01*
X177999500Y-32475467D01*
X177999416Y-32475889D01*
X113294282Y-32475889D01*
X113386454Y-32328578D01*
X113549630Y-31993011D01*
X113676212Y-31642000D01*
X113764768Y-31279524D01*
X113814293Y-30909688D01*
X113824226Y-30536683D01*
X113794455Y-30164735D01*
X113725316Y-29798059D01*
X113617595Y-29440809D01*
X113472510Y-29097033D01*
X113291706Y-28770626D01*
X113077231Y-28465287D01*
X113039814Y-28422526D01*
X112932968Y-28300418D01*
X112831516Y-28184475D01*
X112826678Y-28180009D01*
X112559763Y-27933604D01*
X112559760Y-27933602D01*
X112557345Y-27931372D01*
X112257823Y-27708845D01*
X112254981Y-27707170D01*
X112254976Y-27707167D01*
X111939184Y-27521089D01*
X111936345Y-27519416D01*
X111933346Y-27518055D01*
X111933340Y-27518052D01*
X111599567Y-27366598D01*
X111599556Y-27366594D01*
X111596553Y-27365231D01*
X111593411Y-27364191D01*
X111593407Y-27364190D01*
X111245424Y-27249071D01*
X111245421Y-27249070D01*
X111242298Y-27248037D01*
X111239085Y-27247342D01*
X111239081Y-27247341D01*
X110880820Y-27169860D01*
X110880817Y-27169859D01*
X110877592Y-27169162D01*
X110874312Y-27168811D01*
X110874310Y-27168811D01*
X110509836Y-27129849D01*
X110509831Y-27129848D01*
X110506569Y-27129500D01*
X110226787Y-27129500D01*
X110225143Y-27129587D01*
X110225128Y-27129588D01*
X109950703Y-27144214D01*
X109950693Y-27144215D01*
X109947392Y-27144391D01*
X109944127Y-27144917D01*
X109944118Y-27144918D01*
X109582267Y-27203218D01*
X109582259Y-27203219D01*
X109579005Y-27203744D01*
X109575820Y-27204612D01*
X109575818Y-27204613D01*
X109222209Y-27301045D01*
X109222197Y-27301048D01*
X109219014Y-27301917D01*
X109215944Y-27303117D01*
X109215933Y-27303121D01*
X108874577Y-27436594D01*
X108874559Y-27436601D01*
X108871498Y-27437799D01*
X108868581Y-27439314D01*
X108868565Y-27439322D01*
X108543316Y-27608331D01*
X108543306Y-27608336D01*
X108540394Y-27609850D01*
X108537653Y-27611668D01*
X108537645Y-27611673D01*
X108232211Y-27814290D01*
X108232205Y-27814293D01*
X108229453Y-27816120D01*
X108226910Y-27818228D01*
X108226901Y-27818235D01*
X107944753Y-28052155D01*
X107944738Y-28052168D01*
X107942200Y-28054273D01*
X107939901Y-28056633D01*
X107939889Y-28056645D01*
X107684192Y-28319240D01*
X107684176Y-28319257D01*
X107681887Y-28321609D01*
X107679856Y-28324195D01*
X107679848Y-28324205D01*
X107453503Y-28612505D01*
X107453493Y-28612518D01*
X107451466Y-28615101D01*
X107449719Y-28617892D01*
X107449712Y-28617903D01*
X107255296Y-28928623D01*
X107255285Y-28928641D01*
X107253546Y-28931422D01*
X107252112Y-28934369D01*
X107252103Y-28934387D01*
X107091812Y-29264022D01*
X107091807Y-29264033D01*
X107090370Y-29266989D01*
X107089251Y-29270089D01*
X107089250Y-29270094D01*
X107028781Y-29437776D01*
X106963788Y-29618000D01*
X106963006Y-29621198D01*
X106963001Y-29621217D01*
X106876014Y-29977273D01*
X106876012Y-29977282D01*
X106875232Y-29980476D01*
X106874796Y-29983726D01*
X106874794Y-29983741D01*
X106826145Y-30347034D01*
X106826143Y-30347051D01*
X106825707Y-30350312D01*
X106825619Y-30353599D01*
X106825618Y-30353618D01*
X106815861Y-30720019D01*
X106815861Y-30720034D01*
X106815774Y-30723317D01*
X100000500Y-30723317D01*
X100000500Y-24888003D01*
X126379500Y-24888003D01*
X126379779Y-24890932D01*
X126379780Y-24890938D01*
X126419523Y-25307155D01*
X126419525Y-25307170D01*
X126419804Y-25310090D01*
X126420362Y-25312988D01*
X126420363Y-25312991D01*
X126472722Y-25584658D01*
X126500048Y-25726435D01*
X126500876Y-25729256D01*
X126500880Y-25729271D01*
X126591325Y-26037297D01*
X126619504Y-26133267D01*
X126777092Y-26526901D01*
X126971383Y-26903773D01*
X126972973Y-26906247D01*
X126972977Y-26906254D01*
X127199024Y-27257990D01*
X127199029Y-27257998D01*
X127200619Y-27260471D01*
X127462722Y-27593763D01*
X127464754Y-27595894D01*
X127753294Y-27898506D01*
X127753302Y-27898514D01*
X127755321Y-27900631D01*
X127757537Y-27902552D01*
X127757539Y-27902553D01*
X128073537Y-28176368D01*
X128073545Y-28176374D01*
X128075764Y-28178297D01*
X128421149Y-28424245D01*
X128423711Y-28425724D01*
X128747225Y-28612505D01*
X128788350Y-28636248D01*
X128791029Y-28637471D01*
X128791034Y-28637474D01*
X129076664Y-28767917D01*
X129174040Y-28812387D01*
X129574727Y-28951066D01*
X129986782Y-29051029D01*
X130406473Y-29111372D01*
X130724050Y-29126500D01*
X130725517Y-29126500D01*
X130934483Y-29126500D01*
X130935950Y-29126500D01*
X131253527Y-29111372D01*
X131673218Y-29051029D01*
X132085273Y-28951066D01*
X132485960Y-28812387D01*
X132871650Y-28636248D01*
X133238851Y-28424245D01*
X133584236Y-28178297D01*
X133904679Y-27900631D01*
X134197278Y-27593763D01*
X134459381Y-27260471D01*
X134688617Y-26903774D01*
X134882908Y-26526901D01*
X135040496Y-26133267D01*
X135067882Y-26040000D01*
X161174498Y-26040000D01*
X161174616Y-26042702D01*
X161194378Y-26495341D01*
X161194379Y-26495360D01*
X161194497Y-26498047D01*
X161194848Y-26500717D01*
X161194850Y-26500734D01*
X161247912Y-26903774D01*
X161254341Y-26952608D01*
X161254924Y-26955241D01*
X161254926Y-26955248D01*
X161352989Y-27397585D01*
X161352994Y-27397605D01*
X161353575Y-27400224D01*
X161354384Y-27402789D01*
X161354387Y-27402801D01*
X161490631Y-27834911D01*
X161491444Y-27837488D01*
X161492472Y-27839971D01*
X161492478Y-27839986D01*
X161665859Y-28258563D01*
X161666898Y-28261071D01*
X161668147Y-28263470D01*
X161668152Y-28263481D01*
X161862841Y-28637474D01*
X161878602Y-28667751D01*
X162124945Y-29054432D01*
X162404052Y-29418172D01*
X162405875Y-29420161D01*
X162405878Y-29420165D01*
X162587161Y-29618000D01*
X162713799Y-29756201D01*
X163051828Y-30065948D01*
X163415568Y-30345055D01*
X163802249Y-30591398D01*
X164208929Y-30803102D01*
X164632512Y-30978556D01*
X165069776Y-31116425D01*
X165072410Y-31117009D01*
X165072414Y-31117010D01*
X165183811Y-31141706D01*
X165517392Y-31215659D01*
X165971953Y-31275503D01*
X166315437Y-31290500D01*
X166316812Y-31290500D01*
X166543188Y-31290500D01*
X166544563Y-31290500D01*
X166888047Y-31275503D01*
X167342608Y-31215659D01*
X167790224Y-31116425D01*
X168227488Y-30978556D01*
X168651071Y-30803102D01*
X169057751Y-30591398D01*
X169444432Y-30345055D01*
X169808172Y-30065948D01*
X170146201Y-29756201D01*
X170455948Y-29418172D01*
X170735055Y-29054432D01*
X170981398Y-28667751D01*
X171193102Y-28261071D01*
X171368556Y-27837488D01*
X171506425Y-27400224D01*
X171605659Y-26952608D01*
X171665503Y-26498047D01*
X171685502Y-26040000D01*
X171665503Y-25581953D01*
X171605659Y-25127392D01*
X171506425Y-24679776D01*
X171368556Y-24242512D01*
X171193102Y-23818929D01*
X170981398Y-23412249D01*
X170735055Y-23025568D01*
X170455948Y-22661828D01*
X170345929Y-22541764D01*
X170148029Y-22325794D01*
X170146201Y-22323799D01*
X169984389Y-22175525D01*
X169810165Y-22015878D01*
X169810161Y-22015875D01*
X169808172Y-22014052D01*
X169444432Y-21734945D01*
X169057751Y-21488602D01*
X169055350Y-21487352D01*
X168653481Y-21278152D01*
X168653470Y-21278147D01*
X168651071Y-21276898D01*
X168617439Y-21262967D01*
X168229986Y-21102478D01*
X168229971Y-21102472D01*
X168227488Y-21101444D01*
X168224920Y-21100634D01*
X168224911Y-21100631D01*
X167792801Y-20964387D01*
X167792789Y-20964384D01*
X167790224Y-20963575D01*
X167787605Y-20962994D01*
X167787585Y-20962989D01*
X167345248Y-20864926D01*
X167345241Y-20864924D01*
X167342608Y-20864341D01*
X167339926Y-20863987D01*
X167339921Y-20863987D01*
X166890734Y-20804850D01*
X166890717Y-20804848D01*
X166888047Y-20804497D01*
X166885360Y-20804379D01*
X166885341Y-20804378D01*
X166545935Y-20789559D01*
X166545894Y-20789558D01*
X166544563Y-20789500D01*
X166315437Y-20789500D01*
X166314106Y-20789558D01*
X166314064Y-20789559D01*
X165974658Y-20804378D01*
X165974637Y-20804379D01*
X165971953Y-20804497D01*
X165969284Y-20804848D01*
X165969265Y-20804850D01*
X165520078Y-20863987D01*
X165520069Y-20863988D01*
X165517392Y-20864341D01*
X165514761Y-20864924D01*
X165514751Y-20864926D01*
X165072414Y-20962989D01*
X165072388Y-20962995D01*
X165069776Y-20963575D01*
X165067215Y-20964382D01*
X165067198Y-20964387D01*
X164635088Y-21100631D01*
X164635071Y-21100636D01*
X164632512Y-21101444D01*
X164630035Y-21102469D01*
X164630013Y-21102478D01*
X164211436Y-21275859D01*
X164211425Y-21275864D01*
X164208929Y-21276898D01*
X164206537Y-21278142D01*
X164206518Y-21278152D01*
X163804649Y-21487352D01*
X163804637Y-21487358D01*
X163802249Y-21488602D01*
X163799975Y-21490050D01*
X163799971Y-21490053D01*
X163417840Y-21733497D01*
X163417830Y-21733503D01*
X163415568Y-21734945D01*
X163413439Y-21736578D01*
X163413427Y-21736587D01*
X163053970Y-22012408D01*
X163053964Y-22012412D01*
X163051828Y-22014052D01*
X163049849Y-22015865D01*
X163049834Y-22015878D01*
X162715794Y-22321970D01*
X162715783Y-22321980D01*
X162713799Y-22323799D01*
X162711980Y-22325783D01*
X162711970Y-22325794D01*
X162405878Y-22659834D01*
X162405865Y-22659849D01*
X162404052Y-22661828D01*
X162402412Y-22663964D01*
X162402408Y-22663970D01*
X162126587Y-23023427D01*
X162126578Y-23023439D01*
X162124945Y-23025568D01*
X162123503Y-23027830D01*
X162123497Y-23027840D01*
X161880053Y-23409971D01*
X161878602Y-23412249D01*
X161877358Y-23414637D01*
X161877352Y-23414649D01*
X161668152Y-23816518D01*
X161668142Y-23816537D01*
X161666898Y-23818929D01*
X161665864Y-23821425D01*
X161665859Y-23821436D01*
X161492478Y-24240013D01*
X161492469Y-24240035D01*
X161491444Y-24242512D01*
X161490636Y-24245071D01*
X161490631Y-24245088D01*
X161354387Y-24677198D01*
X161354382Y-24677215D01*
X161353575Y-24679776D01*
X161352995Y-24682388D01*
X161352989Y-24682414D01*
X161254926Y-25124751D01*
X161254341Y-25127392D01*
X161253988Y-25130069D01*
X161253987Y-25130078D01*
X161194850Y-25579265D01*
X161194848Y-25579284D01*
X161194497Y-25581953D01*
X161194379Y-25584637D01*
X161194378Y-25584658D01*
X161174616Y-26037297D01*
X161174498Y-26040000D01*
X135067882Y-26040000D01*
X135159952Y-25726435D01*
X135240196Y-25310090D01*
X135280500Y-24888003D01*
X135280500Y-24463997D01*
X135240196Y-24041910D01*
X135159952Y-23625565D01*
X135040496Y-23218733D01*
X134882908Y-22825099D01*
X134688617Y-22448227D01*
X134677283Y-22430591D01*
X134460975Y-22094009D01*
X134460972Y-22094006D01*
X134459381Y-22091529D01*
X134197278Y-21758237D01*
X134036267Y-21589374D01*
X133906705Y-21453493D01*
X133906696Y-21453484D01*
X133904679Y-21451369D01*
X133874954Y-21425612D01*
X133586462Y-21175631D01*
X133586451Y-21175622D01*
X133584236Y-21173703D01*
X133581836Y-21171994D01*
X133581831Y-21171990D01*
X133288330Y-20962989D01*
X133238851Y-20927755D01*
X133236288Y-20926275D01*
X132874206Y-20717227D01*
X132874194Y-20717221D01*
X132871650Y-20715752D01*
X132868978Y-20714532D01*
X132868965Y-20714525D01*
X132488646Y-20540839D01*
X132488634Y-20540834D01*
X132485960Y-20539613D01*
X132483173Y-20538648D01*
X132483167Y-20538646D01*
X132088071Y-20401902D01*
X132088063Y-20401899D01*
X132085273Y-20400934D01*
X132082400Y-20400237D01*
X131676089Y-20301667D01*
X131676079Y-20301665D01*
X131673218Y-20300971D01*
X131670294Y-20300550D01*
X131670291Y-20300550D01*
X131256439Y-20241046D01*
X131256424Y-20241044D01*
X131253527Y-20240628D01*
X131250591Y-20240488D01*
X131250590Y-20240488D01*
X130937406Y-20225569D01*
X130937391Y-20225568D01*
X130935950Y-20225500D01*
X130724050Y-20225500D01*
X130722609Y-20225568D01*
X130722593Y-20225569D01*
X130409409Y-20240488D01*
X130409406Y-20240488D01*
X130406473Y-20240628D01*
X130403577Y-20241044D01*
X130403560Y-20241046D01*
X129989708Y-20300550D01*
X129989701Y-20300551D01*
X129986782Y-20300971D01*
X129983924Y-20301664D01*
X129983910Y-20301667D01*
X129577599Y-20400237D01*
X129577593Y-20400238D01*
X129574727Y-20400934D01*
X129571942Y-20401897D01*
X129571928Y-20401902D01*
X129176832Y-20538646D01*
X129176819Y-20538651D01*
X129174040Y-20539613D01*
X129171372Y-20540831D01*
X129171353Y-20540839D01*
X128791034Y-20714525D01*
X128791012Y-20714536D01*
X128788350Y-20715752D01*
X128785813Y-20717216D01*
X128785793Y-20717227D01*
X128423711Y-20926275D01*
X128423698Y-20926283D01*
X128421149Y-20927755D01*
X128418740Y-20929470D01*
X128418736Y-20929473D01*
X128078168Y-21171990D01*
X128078152Y-21172001D01*
X128075764Y-21173703D01*
X128073558Y-21175614D01*
X128073537Y-21175631D01*
X127757539Y-21449446D01*
X127757526Y-21449457D01*
X127755321Y-21451369D01*
X127753313Y-21453474D01*
X127753294Y-21453493D01*
X127464754Y-21756105D01*
X127464745Y-21756114D01*
X127462722Y-21758237D01*
X127460911Y-21760538D01*
X127460903Y-21760549D01*
X127202438Y-22089215D01*
X127202430Y-22089225D01*
X127200619Y-22091529D01*
X127199029Y-22094002D01*
X127199024Y-22094010D01*
X126972980Y-22445740D01*
X126972977Y-22445745D01*
X126971383Y-22448226D01*
X126970033Y-22450843D01*
X126970031Y-22450848D01*
X126860160Y-22663970D01*
X126777092Y-22825099D01*
X126775996Y-22827836D01*
X126775994Y-22827841D01*
X126620755Y-23215609D01*
X126619504Y-23218733D01*
X126618675Y-23221554D01*
X126618674Y-23221559D01*
X126500880Y-23622728D01*
X126500875Y-23622747D01*
X126500048Y-23625565D01*
X126499490Y-23628458D01*
X126499488Y-23628468D01*
X126462780Y-23818929D01*
X126419804Y-24041910D01*
X126419525Y-24044826D01*
X126419523Y-24044844D01*
X126379780Y-24461061D01*
X126379500Y-24463997D01*
X126379500Y-24888003D01*
X100000500Y-24888003D01*
X100000500Y-19823317D01*
X106815774Y-19823317D01*
X106816035Y-19826584D01*
X106816036Y-19826602D01*
X106845281Y-20191976D01*
X106845282Y-20191989D01*
X106845545Y-20195265D01*
X106846155Y-20198503D01*
X106846156Y-20198506D01*
X106865608Y-20301667D01*
X106914684Y-20561941D01*
X106915637Y-20565101D01*
X107006042Y-20864926D01*
X107022405Y-20919191D01*
X107023680Y-20922213D01*
X107023684Y-20922223D01*
X107166205Y-21259924D01*
X107166210Y-21259935D01*
X107167490Y-21262967D01*
X107348294Y-21589374D01*
X107350194Y-21592080D01*
X107350196Y-21592082D01*
X107465408Y-21756105D01*
X107562769Y-21894713D01*
X107564937Y-21897191D01*
X107564942Y-21897197D01*
X107732961Y-22089215D01*
X107808484Y-22175525D01*
X108082655Y-22428628D01*
X108382177Y-22651155D01*
X108703655Y-22840584D01*
X109043447Y-22994769D01*
X109397702Y-23111963D01*
X109762408Y-23190838D01*
X110133431Y-23230500D01*
X110136722Y-23230500D01*
X110411557Y-23230500D01*
X110413213Y-23230500D01*
X110692608Y-23215609D01*
X111060995Y-23156256D01*
X111420986Y-23058083D01*
X111768502Y-22922201D01*
X112099606Y-22750150D01*
X112410547Y-22543880D01*
X112697800Y-22305727D01*
X112958113Y-22038391D01*
X113188534Y-21744899D01*
X113386454Y-21428578D01*
X113549630Y-21093011D01*
X113676212Y-20742000D01*
X113764768Y-20379524D01*
X113814293Y-20009688D01*
X113824226Y-19636683D01*
X113794455Y-19264735D01*
X113725316Y-18898059D01*
X113617595Y-18540809D01*
X113472510Y-18197033D01*
X113291706Y-17870626D01*
X113077231Y-17565287D01*
X113041768Y-17524759D01*
X112833691Y-17286961D01*
X112831516Y-17284475D01*
X112557345Y-17031372D01*
X112257823Y-16808845D01*
X112254981Y-16807170D01*
X112254976Y-16807167D01*
X111939184Y-16621089D01*
X111936345Y-16619416D01*
X111933346Y-16618055D01*
X111933340Y-16618052D01*
X111599567Y-16466598D01*
X111599556Y-16466594D01*
X111596553Y-16465231D01*
X111593411Y-16464191D01*
X111593407Y-16464190D01*
X111245424Y-16349071D01*
X111245421Y-16349070D01*
X111242298Y-16348037D01*
X111239085Y-16347342D01*
X111239081Y-16347341D01*
X110880820Y-16269860D01*
X110880817Y-16269859D01*
X110877592Y-16269162D01*
X110874312Y-16268811D01*
X110874310Y-16268811D01*
X110509836Y-16229849D01*
X110509831Y-16229848D01*
X110506569Y-16229500D01*
X110226787Y-16229500D01*
X110225143Y-16229587D01*
X110225128Y-16229588D01*
X109950703Y-16244214D01*
X109950693Y-16244215D01*
X109947392Y-16244391D01*
X109944127Y-16244917D01*
X109944118Y-16244918D01*
X109582267Y-16303218D01*
X109582259Y-16303219D01*
X109579005Y-16303744D01*
X109575820Y-16304612D01*
X109575818Y-16304613D01*
X109222209Y-16401045D01*
X109222197Y-16401048D01*
X109219014Y-16401917D01*
X109215944Y-16403117D01*
X109215933Y-16403121D01*
X108874577Y-16536594D01*
X108874559Y-16536601D01*
X108871498Y-16537799D01*
X108868581Y-16539314D01*
X108868565Y-16539322D01*
X108543316Y-16708331D01*
X108543306Y-16708336D01*
X108540394Y-16709850D01*
X108537653Y-16711668D01*
X108537645Y-16711673D01*
X108232211Y-16914290D01*
X108232205Y-16914293D01*
X108229453Y-16916120D01*
X108226910Y-16918228D01*
X108226901Y-16918235D01*
X107944753Y-17152155D01*
X107944738Y-17152168D01*
X107942200Y-17154273D01*
X107939901Y-17156633D01*
X107939889Y-17156645D01*
X107684192Y-17419240D01*
X107684176Y-17419257D01*
X107681887Y-17421609D01*
X107679856Y-17424195D01*
X107679848Y-17424205D01*
X107453503Y-17712505D01*
X107453493Y-17712518D01*
X107451466Y-17715101D01*
X107449719Y-17717892D01*
X107449712Y-17717903D01*
X107255296Y-18028623D01*
X107255285Y-18028641D01*
X107253546Y-18031422D01*
X107252112Y-18034369D01*
X107252103Y-18034387D01*
X107091812Y-18364022D01*
X107091807Y-18364033D01*
X107090370Y-18366989D01*
X107089251Y-18370089D01*
X107089250Y-18370094D01*
X107028781Y-18537776D01*
X106963788Y-18718000D01*
X106963006Y-18721198D01*
X106963001Y-18721217D01*
X106876014Y-19077273D01*
X106876012Y-19077282D01*
X106875232Y-19080476D01*
X106874796Y-19083726D01*
X106874794Y-19083741D01*
X106826145Y-19447034D01*
X106826143Y-19447051D01*
X106825707Y-19450312D01*
X106825619Y-19453599D01*
X106825618Y-19453618D01*
X106815861Y-19820019D01*
X106815861Y-19820034D01*
X106815774Y-19823317D01*
X100000500Y-19823317D01*
X100000500Y-3000000D01*
X107994389Y-3000000D01*
X108014804Y-3285429D01*
X108075629Y-3565041D01*
X108175634Y-3833163D01*
X108312772Y-4084313D01*
X108398517Y-4198854D01*
X108484261Y-4313395D01*
X108686605Y-4515739D01*
X108858414Y-4644354D01*
X108915686Y-4687227D01*
X109055435Y-4763535D01*
X109166839Y-4824367D01*
X109434954Y-4924369D01*
X109434957Y-4924369D01*
X109434958Y-4924370D01*
X109487217Y-4935738D01*
X109714572Y-4985196D01*
X109928552Y-5000500D01*
X109930767Y-5000500D01*
X110069233Y-5000500D01*
X110071448Y-5000500D01*
X110285428Y-4985196D01*
X110565046Y-4924369D01*
X110833161Y-4824367D01*
X111084315Y-4687226D01*
X111313395Y-4515739D01*
X111515739Y-4313395D01*
X111687226Y-4084315D01*
X111824367Y-3833161D01*
X111924369Y-3565046D01*
X111985196Y-3285428D01*
X112005610Y-3000000D01*
X179394389Y-3000000D01*
X179414804Y-3285429D01*
X179475629Y-3565041D01*
X179575634Y-3833163D01*
X179712772Y-4084313D01*
X179798517Y-4198854D01*
X179884261Y-4313395D01*
X180086605Y-4515739D01*
X180258415Y-4644354D01*
X180315686Y-4687227D01*
X180455435Y-4763535D01*
X180566839Y-4824367D01*
X180834954Y-4924369D01*
X180834957Y-4924369D01*
X180834958Y-4924370D01*
X180887217Y-4935738D01*
X181114572Y-4985196D01*
X181328552Y-5000500D01*
X181330767Y-5000500D01*
X181469233Y-5000500D01*
X181471448Y-5000500D01*
X181685428Y-4985196D01*
X181965046Y-4924369D01*
X182233161Y-4824367D01*
X182484315Y-4687226D01*
X182713395Y-4515739D01*
X182915739Y-4313395D01*
X183087226Y-4084315D01*
X183224367Y-3833161D01*
X183324369Y-3565046D01*
X183385196Y-3285428D01*
X183405610Y-3000000D01*
X183385196Y-2714572D01*
X183324369Y-2434954D01*
X183224367Y-2166839D01*
X183087226Y-1915685D01*
X182915739Y-1686605D01*
X182713395Y-1484261D01*
X182598854Y-1398517D01*
X182484313Y-1312772D01*
X182233163Y-1175634D01*
X182233162Y-1175633D01*
X182233161Y-1175633D01*
X181965046Y-1075631D01*
X181965041Y-1075629D01*
X181685429Y-1014804D01*
X181473658Y-999658D01*
X181473656Y-999657D01*
X181471448Y-999500D01*
X181328552Y-999500D01*
X181326344Y-999657D01*
X181326341Y-999658D01*
X181114570Y-1014804D01*
X180834958Y-1075629D01*
X180566836Y-1175634D01*
X180315686Y-1312772D01*
X180086602Y-1484263D01*
X179884263Y-1686602D01*
X179712772Y-1915686D01*
X179575634Y-2166836D01*
X179475629Y-2434958D01*
X179414804Y-2714570D01*
X179394389Y-3000000D01*
X112005610Y-3000000D01*
X111985196Y-2714572D01*
X111924369Y-2434954D01*
X111824367Y-2166839D01*
X111687226Y-1915685D01*
X111515739Y-1686605D01*
X111313395Y-1484261D01*
X111198855Y-1398517D01*
X111084313Y-1312772D01*
X110833163Y-1175634D01*
X110833162Y-1175633D01*
X110833161Y-1175633D01*
X110565046Y-1075631D01*
X110565041Y-1075629D01*
X110285429Y-1014804D01*
X110073658Y-999658D01*
X110073656Y-999657D01*
X110071448Y-999500D01*
X109928552Y-999500D01*
X109926344Y-999657D01*
X109926341Y-999658D01*
X109714570Y-1014804D01*
X109434958Y-1075629D01*
X109166836Y-1175634D01*
X108915686Y-1312772D01*
X108686602Y-1484263D01*
X108484263Y-1686602D01*
X108312772Y-1915686D01*
X108175634Y-2166836D01*
X108075629Y-2434958D01*
X108014804Y-2714570D01*
X107994389Y-3000000D01*
X100000500Y-3000000D01*
X100000500Y-124500D01*
X100020185Y-57461D01*
X100072989Y-11706D01*
X100124500Y-500D01*
X191315500Y-500D01*
X191382539Y-20185D01*
G37*
%TD.AperFunction*%
M02*
