%TF.GenerationSoftware,KiCad,Pcbnew,(5.1.10)-1*%
%TF.CreationDate,2021-10-30T12:19:22-04:00*%
%TF.ProjectId,Processor Board,50726f63-6573-4736-9f72-20426f617264,rev?*%
%TF.SameCoordinates,Original*%
%TF.FileFunction,Legend,Bot*%
%TF.FilePolarity,Positive*%
%FSLAX46Y46*%
G04 Gerber Fmt 4.6, Leading zero omitted, Abs format (unit mm)*
G04 Created by KiCad (PCBNEW (5.1.10)-1) date 2021-10-30 12:19:22*
%MOMM*%
%LPD*%
G01*
G04 APERTURE LIST*
%ADD10C,0.120000*%
%ADD11C,0.150000*%
G04 APERTURE END LIST*
D10*
%TO.C,J3*%
X51370000Y-74130000D02*
X53970000Y-74130000D01*
X51370000Y-74130000D02*
X51370000Y-61310000D01*
X51370000Y-61310000D02*
X56570000Y-61310000D01*
X56570000Y-71530000D02*
X56570000Y-61310000D01*
X53970000Y-71530000D02*
X56570000Y-71530000D01*
X53970000Y-74130000D02*
X53970000Y-71530000D01*
X56570000Y-74130000D02*
X56570000Y-72800000D01*
X55240000Y-74130000D02*
X56570000Y-74130000D01*
%TO.C,J4*%
X112129200Y-130962400D02*
X114789200Y-130962400D01*
X112129200Y-130962400D02*
X112129200Y-52162400D01*
X112129200Y-52162400D02*
X114789200Y-52162400D01*
X114789200Y-130962400D02*
X114789200Y-52162400D01*
X114789200Y-133562400D02*
X114789200Y-132232400D01*
X113459200Y-133562400D02*
X114789200Y-133562400D01*
%TO.C,J3*%
D11*
X54303333Y-75022380D02*
X54303333Y-75736666D01*
X54350952Y-75879523D01*
X54446190Y-75974761D01*
X54589047Y-76022380D01*
X54684285Y-76022380D01*
X53922380Y-75022380D02*
X53303333Y-75022380D01*
X53636666Y-75403333D01*
X53493809Y-75403333D01*
X53398571Y-75450952D01*
X53350952Y-75498571D01*
X53303333Y-75593809D01*
X53303333Y-75831904D01*
X53350952Y-75927142D01*
X53398571Y-75974761D01*
X53493809Y-76022380D01*
X53779523Y-76022380D01*
X53874761Y-75974761D01*
X53922380Y-75927142D01*
%TO.C,J4*%
X113792533Y-134454780D02*
X113792533Y-135169066D01*
X113840152Y-135311923D01*
X113935390Y-135407161D01*
X114078247Y-135454780D01*
X114173485Y-135454780D01*
X112887771Y-134788114D02*
X112887771Y-135454780D01*
X113125866Y-134407161D02*
X113363961Y-135121447D01*
X112744914Y-135121447D01*
%TD*%
M02*
