%TF.GenerationSoftware,KiCad,Pcbnew,(5.1.10)-1*%
%TF.CreationDate,2021-10-30T12:19:22-04:00*%
%TF.ProjectId,Processor Board,50726f63-6573-4736-9f72-20426f617264,rev?*%
%TF.SameCoordinates,Original*%
%TF.FileFunction,Soldermask,Bot*%
%TF.FilePolarity,Negative*%
%FSLAX46Y46*%
G04 Gerber Fmt 4.6, Leading zero omitted, Abs format (unit mm)*
G04 Created by KiCad (PCBNEW (5.1.10)-1) date 2021-10-30 12:19:22*
%MOMM*%
%LPD*%
G01*
G04 APERTURE LIST*
%ADD10C,3.200000*%
%ADD11C,1.600000*%
%ADD12R,1.600000X1.600000*%
%ADD13O,1.600000X1.600000*%
%ADD14R,2.200000X2.200000*%
%ADD15O,2.200000X2.200000*%
%ADD16C,2.000000*%
%ADD17O,2.000000X2.000000*%
%ADD18C,1.700000*%
%ADD19R,1.700000X1.700000*%
%ADD20O,1.700000X1.700000*%
%ADD21C,1.500000*%
%ADD22C,1.440000*%
G04 APERTURE END LIST*
D10*
%TO.C,REF\u002A\u002A*%
X53500000Y-53500000D03*
%TD*%
%TO.C,m3*%
X53500000Y-86600000D03*
%TD*%
%TO.C,m3*%
X53500000Y-146500000D03*
%TD*%
D11*
%TO.C,C4*%
X77038200Y-144963900D03*
D12*
X77038200Y-142963900D03*
%TD*%
%TO.C,C6*%
X77038200Y-129025900D03*
D11*
X77038200Y-131025900D03*
%TD*%
D12*
%TO.C,C8*%
X77038200Y-135851900D03*
D11*
X77038200Y-137851900D03*
%TD*%
D12*
%TO.C,D1*%
X88193880Y-131490720D03*
D13*
X88193880Y-139110720D03*
%TD*%
D14*
%TO.C,D2*%
X91937840Y-91313000D03*
D15*
X91937840Y-83693000D03*
%TD*%
D14*
%TO.C,D3*%
X91968320Y-109534960D03*
D15*
X91968320Y-117154960D03*
%TD*%
%TO.C,D4*%
X98384360Y-117154960D03*
D14*
X98384360Y-109534960D03*
%TD*%
D15*
%TO.C,D5*%
X98455480Y-83693000D03*
D14*
X98455480Y-91313000D03*
%TD*%
D13*
%TO.C,D6*%
X81610200Y-89192100D03*
D12*
X81610200Y-96812100D03*
%TD*%
%TO.C,D7*%
X81622900Y-104279700D03*
D13*
X81622900Y-111899700D03*
%TD*%
%TO.C,D8*%
X109004100Y-111975900D03*
D12*
X109004100Y-104355900D03*
%TD*%
%TO.C,D9*%
X108826300Y-96685100D03*
D13*
X108826300Y-89065100D03*
%TD*%
D16*
%TO.C,FB1*%
X65976500Y-143878300D03*
D17*
X71056500Y-143878300D03*
%TD*%
%TO.C,FB2*%
X71005700Y-136766300D03*
D16*
X65925700Y-136766300D03*
%TD*%
%TO.C,FB3*%
X65976500Y-130009900D03*
D17*
X71056500Y-130009900D03*
%TD*%
%TO.C,J2*%
G36*
G01*
X67884600Y-57555500D02*
X66684600Y-57555500D01*
G75*
G02*
X66434600Y-57305500I0J250000D01*
G01*
X66434600Y-56105500D01*
G75*
G02*
X66684600Y-55855500I250000J0D01*
G01*
X67884600Y-55855500D01*
G75*
G02*
X68134600Y-56105500I0J-250000D01*
G01*
X68134600Y-57305500D01*
G75*
G02*
X67884600Y-57555500I-250000J0D01*
G01*
G37*
D18*
X69824600Y-56705500D03*
X72364600Y-56705500D03*
X67284600Y-54165500D03*
X69824600Y-54165500D03*
X72364600Y-54165500D03*
%TD*%
D19*
%TO.C,J3*%
X55240000Y-72800000D03*
D20*
X52700000Y-72800000D03*
X55240000Y-70260000D03*
X52700000Y-70260000D03*
X55240000Y-67720000D03*
X52700000Y-67720000D03*
X55240000Y-65180000D03*
X52700000Y-65180000D03*
X55240000Y-62640000D03*
X52700000Y-62640000D03*
%TD*%
D19*
%TO.C,J4*%
X113459200Y-132232400D03*
D20*
X113459200Y-129692400D03*
X113459200Y-127152400D03*
X113459200Y-124612400D03*
X113459200Y-122072400D03*
X113459200Y-119532400D03*
X113459200Y-116992400D03*
X113459200Y-114452400D03*
X113459200Y-111912400D03*
X113459200Y-109372400D03*
X113459200Y-106832400D03*
X113459200Y-104292400D03*
X113459200Y-101752400D03*
X113459200Y-99212400D03*
X113459200Y-96672400D03*
X113459200Y-94132400D03*
X113459200Y-91592400D03*
X113459200Y-89052400D03*
X113459200Y-86512400D03*
X113459200Y-83972400D03*
X113459200Y-81432400D03*
X113459200Y-78892400D03*
X113459200Y-76352400D03*
X113459200Y-73812400D03*
X113459200Y-71272400D03*
X113459200Y-68732400D03*
X113459200Y-66192400D03*
X113459200Y-63652400D03*
X113459200Y-61112400D03*
X113459200Y-58572400D03*
X113459200Y-56032400D03*
X113459200Y-53492400D03*
%TD*%
D11*
%TO.C,L1*%
X54259480Y-107980480D03*
D13*
X54259480Y-97980480D03*
%TD*%
D12*
%TO.C,U4*%
X77998320Y-118805960D03*
D13*
X62758320Y-70545960D03*
X77998320Y-116265960D03*
X62758320Y-73085960D03*
X77998320Y-113725960D03*
X62758320Y-75625960D03*
X77998320Y-111185960D03*
X62758320Y-78165960D03*
X77998320Y-108645960D03*
X62758320Y-80705960D03*
X77998320Y-106105960D03*
X62758320Y-83245960D03*
X77998320Y-103565960D03*
X62758320Y-85785960D03*
X77998320Y-101025960D03*
X62758320Y-88325960D03*
X77998320Y-98485960D03*
X62758320Y-90865960D03*
X77998320Y-95945960D03*
X62758320Y-93405960D03*
X77998320Y-93405960D03*
X62758320Y-95945960D03*
X77998320Y-90865960D03*
X62758320Y-98485960D03*
X77998320Y-88325960D03*
X62758320Y-101025960D03*
X77998320Y-85785960D03*
X62758320Y-103565960D03*
X77998320Y-83245960D03*
X62758320Y-106105960D03*
X77998320Y-80705960D03*
X62758320Y-108645960D03*
X77998320Y-78165960D03*
X62758320Y-111185960D03*
X77998320Y-75625960D03*
X62758320Y-113725960D03*
X77998320Y-73085960D03*
X62758320Y-116265960D03*
X77998320Y-70545960D03*
X62758320Y-118805960D03*
%TD*%
D21*
%TO.C,Y1*%
X83248500Y-72593200D03*
X83248500Y-77473200D03*
%TD*%
D22*
%TO.C,RV1*%
X52679600Y-78854300D03*
X55219600Y-78854300D03*
X57759600Y-78854300D03*
%TD*%
%TO.C,RV2*%
X102732840Y-122473720D03*
X100192840Y-122473720D03*
X97652840Y-122473720D03*
%TD*%
%TO.C,RV3*%
X97612200Y-129908300D03*
X100152200Y-129908300D03*
X102692200Y-129908300D03*
%TD*%
%TO.C,RV4*%
X102641400Y-137274300D03*
X100101400Y-137274300D03*
X97561400Y-137274300D03*
%TD*%
%TO.C,RV5*%
X97612200Y-144589500D03*
X100152200Y-144589500D03*
X102692200Y-144589500D03*
%TD*%
%TO.C,J1*%
G36*
G01*
X57542800Y-136521900D02*
X57542800Y-137721900D01*
G75*
G02*
X57292800Y-137971900I-250000J0D01*
G01*
X56092800Y-137971900D01*
G75*
G02*
X55842800Y-137721900I0J250000D01*
G01*
X55842800Y-136521900D01*
G75*
G02*
X56092800Y-136271900I250000J0D01*
G01*
X57292800Y-136271900D01*
G75*
G02*
X57542800Y-136521900I0J-250000D01*
G01*
G37*
D18*
X56692800Y-134581900D03*
X56692800Y-132041900D03*
X56692800Y-129501900D03*
X56692800Y-126961900D03*
X56692800Y-124421900D03*
X56692800Y-121881900D03*
X56692800Y-119341900D03*
X54152800Y-137121900D03*
X54152800Y-134581900D03*
X54152800Y-132041900D03*
X54152800Y-129501900D03*
X54152800Y-126961900D03*
X54152800Y-124421900D03*
X54152800Y-121881900D03*
X54152800Y-119341900D03*
%TD*%
M02*
