%TF.GenerationSoftware,KiCad,Pcbnew,(5.1.10)-1*%
%TF.CreationDate,2021-10-30T12:19:22-04:00*%
%TF.ProjectId,Processor Board,50726f63-6573-4736-9f72-20426f617264,rev?*%
%TF.SameCoordinates,Original*%
%TF.FileFunction,Paste,Top*%
%TF.FilePolarity,Positive*%
%FSLAX46Y46*%
G04 Gerber Fmt 4.6, Leading zero omitted, Abs format (unit mm)*
G04 Created by KiCad (PCBNEW (5.1.10)-1) date 2021-10-30 12:19:22*
%MOMM*%
%LPD*%
G01*
G04 APERTURE LIST*
%ADD10R,2.160000X1.120000*%
G04 APERTURE END LIST*
%TO.C,C1*%
G36*
G01*
X87980500Y-73030500D02*
X88930500Y-73030500D01*
G75*
G02*
X89180500Y-73280500I0J-250000D01*
G01*
X89180500Y-73955500D01*
G75*
G02*
X88930500Y-74205500I-250000J0D01*
G01*
X87980500Y-74205500D01*
G75*
G02*
X87730500Y-73955500I0J250000D01*
G01*
X87730500Y-73280500D01*
G75*
G02*
X87980500Y-73030500I250000J0D01*
G01*
G37*
G36*
G01*
X87980500Y-70955500D02*
X88930500Y-70955500D01*
G75*
G02*
X89180500Y-71205500I0J-250000D01*
G01*
X89180500Y-71880500D01*
G75*
G02*
X88930500Y-72130500I-250000J0D01*
G01*
X87980500Y-72130500D01*
G75*
G02*
X87730500Y-71880500I0J250000D01*
G01*
X87730500Y-71205500D01*
G75*
G02*
X87980500Y-70955500I250000J0D01*
G01*
G37*
%TD*%
%TO.C,C2*%
G36*
G01*
X88905100Y-79167300D02*
X87955100Y-79167300D01*
G75*
G02*
X87705100Y-78917300I0J250000D01*
G01*
X87705100Y-78242300D01*
G75*
G02*
X87955100Y-77992300I250000J0D01*
G01*
X88905100Y-77992300D01*
G75*
G02*
X89155100Y-78242300I0J-250000D01*
G01*
X89155100Y-78917300D01*
G75*
G02*
X88905100Y-79167300I-250000J0D01*
G01*
G37*
G36*
G01*
X88905100Y-77092300D02*
X87955100Y-77092300D01*
G75*
G02*
X87705100Y-76842300I0J250000D01*
G01*
X87705100Y-76167300D01*
G75*
G02*
X87955100Y-75917300I250000J0D01*
G01*
X88905100Y-75917300D01*
G75*
G02*
X89155100Y-76167300I0J-250000D01*
G01*
X89155100Y-76842300D01*
G75*
G02*
X88905100Y-77092300I-250000J0D01*
G01*
G37*
%TD*%
%TO.C,C3*%
G36*
G01*
X84549000Y-137838940D02*
X83599000Y-137838940D01*
G75*
G02*
X83349000Y-137588940I0J250000D01*
G01*
X83349000Y-136913940D01*
G75*
G02*
X83599000Y-136663940I250000J0D01*
G01*
X84549000Y-136663940D01*
G75*
G02*
X84799000Y-136913940I0J-250000D01*
G01*
X84799000Y-137588940D01*
G75*
G02*
X84549000Y-137838940I-250000J0D01*
G01*
G37*
G36*
G01*
X84549000Y-139913940D02*
X83599000Y-139913940D01*
G75*
G02*
X83349000Y-139663940I0J250000D01*
G01*
X83349000Y-138988940D01*
G75*
G02*
X83599000Y-138738940I250000J0D01*
G01*
X84549000Y-138738940D01*
G75*
G02*
X84799000Y-138988940I0J-250000D01*
G01*
X84799000Y-139663940D01*
G75*
G02*
X84549000Y-139913940I-250000J0D01*
G01*
G37*
%TD*%
%TO.C,C5*%
G36*
G01*
X102688900Y-101033600D02*
X102688900Y-100083600D01*
G75*
G02*
X102938900Y-99833600I250000J0D01*
G01*
X103613900Y-99833600D01*
G75*
G02*
X103863900Y-100083600I0J-250000D01*
G01*
X103863900Y-101033600D01*
G75*
G02*
X103613900Y-101283600I-250000J0D01*
G01*
X102938900Y-101283600D01*
G75*
G02*
X102688900Y-101033600I0J250000D01*
G01*
G37*
G36*
G01*
X100613900Y-101033600D02*
X100613900Y-100083600D01*
G75*
G02*
X100863900Y-99833600I250000J0D01*
G01*
X101538900Y-99833600D01*
G75*
G02*
X101788900Y-100083600I0J-250000D01*
G01*
X101788900Y-101033600D01*
G75*
G02*
X101538900Y-101283600I-250000J0D01*
G01*
X100863900Y-101283600D01*
G75*
G02*
X100613900Y-101033600I0J250000D01*
G01*
G37*
%TD*%
%TO.C,C7*%
G36*
G01*
X92463640Y-126881380D02*
X91513640Y-126881380D01*
G75*
G02*
X91263640Y-126631380I0J250000D01*
G01*
X91263640Y-125956380D01*
G75*
G02*
X91513640Y-125706380I250000J0D01*
G01*
X92463640Y-125706380D01*
G75*
G02*
X92713640Y-125956380I0J-250000D01*
G01*
X92713640Y-126631380D01*
G75*
G02*
X92463640Y-126881380I-250000J0D01*
G01*
G37*
G36*
G01*
X92463640Y-124806380D02*
X91513640Y-124806380D01*
G75*
G02*
X91263640Y-124556380I0J250000D01*
G01*
X91263640Y-123881380D01*
G75*
G02*
X91513640Y-123631380I250000J0D01*
G01*
X92463640Y-123631380D01*
G75*
G02*
X92713640Y-123881380I0J-250000D01*
G01*
X92713640Y-124556380D01*
G75*
G02*
X92463640Y-124806380I-250000J0D01*
G01*
G37*
%TD*%
%TO.C,C9*%
G36*
G01*
X86631200Y-101046300D02*
X86631200Y-100096300D01*
G75*
G02*
X86881200Y-99846300I250000J0D01*
G01*
X87556200Y-99846300D01*
G75*
G02*
X87806200Y-100096300I0J-250000D01*
G01*
X87806200Y-101046300D01*
G75*
G02*
X87556200Y-101296300I-250000J0D01*
G01*
X86881200Y-101296300D01*
G75*
G02*
X86631200Y-101046300I0J250000D01*
G01*
G37*
G36*
G01*
X88706200Y-101046300D02*
X88706200Y-100096300D01*
G75*
G02*
X88956200Y-99846300I250000J0D01*
G01*
X89631200Y-99846300D01*
G75*
G02*
X89881200Y-100096300I0J-250000D01*
G01*
X89881200Y-101046300D01*
G75*
G02*
X89631200Y-101296300I-250000J0D01*
G01*
X88956200Y-101296300D01*
G75*
G02*
X88706200Y-101046300I0J250000D01*
G01*
G37*
%TD*%
%TO.C,C10*%
G36*
G01*
X58930520Y-92818460D02*
X59880520Y-92818460D01*
G75*
G02*
X60130520Y-93068460I0J-250000D01*
G01*
X60130520Y-93743460D01*
G75*
G02*
X59880520Y-93993460I-250000J0D01*
G01*
X58930520Y-93993460D01*
G75*
G02*
X58680520Y-93743460I0J250000D01*
G01*
X58680520Y-93068460D01*
G75*
G02*
X58930520Y-92818460I250000J0D01*
G01*
G37*
G36*
G01*
X58930520Y-90743460D02*
X59880520Y-90743460D01*
G75*
G02*
X60130520Y-90993460I0J-250000D01*
G01*
X60130520Y-91668460D01*
G75*
G02*
X59880520Y-91918460I-250000J0D01*
G01*
X58930520Y-91918460D01*
G75*
G02*
X58680520Y-91668460I0J250000D01*
G01*
X58680520Y-90993460D01*
G75*
G02*
X58930520Y-90743460I250000J0D01*
G01*
G37*
%TD*%
%TO.C,C11*%
G36*
G01*
X90650080Y-56287160D02*
X89700080Y-56287160D01*
G75*
G02*
X89450080Y-56037160I0J250000D01*
G01*
X89450080Y-55362160D01*
G75*
G02*
X89700080Y-55112160I250000J0D01*
G01*
X90650080Y-55112160D01*
G75*
G02*
X90900080Y-55362160I0J-250000D01*
G01*
X90900080Y-56037160D01*
G75*
G02*
X90650080Y-56287160I-250000J0D01*
G01*
G37*
G36*
G01*
X90650080Y-54212160D02*
X89700080Y-54212160D01*
G75*
G02*
X89450080Y-53962160I0J250000D01*
G01*
X89450080Y-53287160D01*
G75*
G02*
X89700080Y-53037160I250000J0D01*
G01*
X90650080Y-53037160D01*
G75*
G02*
X90900080Y-53287160I0J-250000D01*
G01*
X90900080Y-53962160D01*
G75*
G02*
X90650080Y-54212160I-250000J0D01*
G01*
G37*
%TD*%
%TO.C,C12*%
G36*
G01*
X89700080Y-64400760D02*
X90650080Y-64400760D01*
G75*
G02*
X90900080Y-64650760I0J-250000D01*
G01*
X90900080Y-65325760D01*
G75*
G02*
X90650080Y-65575760I-250000J0D01*
G01*
X89700080Y-65575760D01*
G75*
G02*
X89450080Y-65325760I0J250000D01*
G01*
X89450080Y-64650760D01*
G75*
G02*
X89700080Y-64400760I250000J0D01*
G01*
G37*
G36*
G01*
X89700080Y-62325760D02*
X90650080Y-62325760D01*
G75*
G02*
X90900080Y-62575760I0J-250000D01*
G01*
X90900080Y-63250760D01*
G75*
G02*
X90650080Y-63500760I-250000J0D01*
G01*
X89700080Y-63500760D01*
G75*
G02*
X89450080Y-63250760I0J250000D01*
G01*
X89450080Y-62575760D01*
G75*
G02*
X89700080Y-62325760I250000J0D01*
G01*
G37*
%TD*%
%TO.C,C13*%
G36*
G01*
X102006380Y-62262260D02*
X102956380Y-62262260D01*
G75*
G02*
X103206380Y-62512260I0J-250000D01*
G01*
X103206380Y-63187260D01*
G75*
G02*
X102956380Y-63437260I-250000J0D01*
G01*
X102006380Y-63437260D01*
G75*
G02*
X101756380Y-63187260I0J250000D01*
G01*
X101756380Y-62512260D01*
G75*
G02*
X102006380Y-62262260I250000J0D01*
G01*
G37*
G36*
G01*
X102006380Y-64337260D02*
X102956380Y-64337260D01*
G75*
G02*
X103206380Y-64587260I0J-250000D01*
G01*
X103206380Y-65262260D01*
G75*
G02*
X102956380Y-65512260I-250000J0D01*
G01*
X102006380Y-65512260D01*
G75*
G02*
X101756380Y-65262260I0J250000D01*
G01*
X101756380Y-64587260D01*
G75*
G02*
X102006380Y-64337260I250000J0D01*
G01*
G37*
%TD*%
%TO.C,C14*%
G36*
G01*
X102947980Y-59806860D02*
X102947980Y-58856860D01*
G75*
G02*
X103197980Y-58606860I250000J0D01*
G01*
X103872980Y-58606860D01*
G75*
G02*
X104122980Y-58856860I0J-250000D01*
G01*
X104122980Y-59806860D01*
G75*
G02*
X103872980Y-60056860I-250000J0D01*
G01*
X103197980Y-60056860D01*
G75*
G02*
X102947980Y-59806860I0J250000D01*
G01*
G37*
G36*
G01*
X100872980Y-59806860D02*
X100872980Y-58856860D01*
G75*
G02*
X101122980Y-58606860I250000J0D01*
G01*
X101797980Y-58606860D01*
G75*
G02*
X102047980Y-58856860I0J-250000D01*
G01*
X102047980Y-59806860D01*
G75*
G02*
X101797980Y-60056860I-250000J0D01*
G01*
X101122980Y-60056860D01*
G75*
G02*
X100872980Y-59806860I0J250000D01*
G01*
G37*
%TD*%
%TO.C,C15*%
G36*
G01*
X91829380Y-58856860D02*
X91829380Y-59806860D01*
G75*
G02*
X91579380Y-60056860I-250000J0D01*
G01*
X90904380Y-60056860D01*
G75*
G02*
X90654380Y-59806860I0J250000D01*
G01*
X90654380Y-58856860D01*
G75*
G02*
X90904380Y-58606860I250000J0D01*
G01*
X91579380Y-58606860D01*
G75*
G02*
X91829380Y-58856860I0J-250000D01*
G01*
G37*
G36*
G01*
X89754380Y-58856860D02*
X89754380Y-59806860D01*
G75*
G02*
X89504380Y-60056860I-250000J0D01*
G01*
X88829380Y-60056860D01*
G75*
G02*
X88579380Y-59806860I0J250000D01*
G01*
X88579380Y-58856860D01*
G75*
G02*
X88829380Y-58606860I250000J0D01*
G01*
X89504380Y-58606860D01*
G75*
G02*
X89754380Y-58856860I0J-250000D01*
G01*
G37*
%TD*%
%TO.C,C16*%
G36*
G01*
X102905580Y-56452260D02*
X101955580Y-56452260D01*
G75*
G02*
X101705580Y-56202260I0J250000D01*
G01*
X101705580Y-55527260D01*
G75*
G02*
X101955580Y-55277260I250000J0D01*
G01*
X102905580Y-55277260D01*
G75*
G02*
X103155580Y-55527260I0J-250000D01*
G01*
X103155580Y-56202260D01*
G75*
G02*
X102905580Y-56452260I-250000J0D01*
G01*
G37*
G36*
G01*
X102905580Y-54377260D02*
X101955580Y-54377260D01*
G75*
G02*
X101705580Y-54127260I0J250000D01*
G01*
X101705580Y-53452260D01*
G75*
G02*
X101955580Y-53202260I250000J0D01*
G01*
X102905580Y-53202260D01*
G75*
G02*
X103155580Y-53452260I0J-250000D01*
G01*
X103155580Y-54127260D01*
G75*
G02*
X102905580Y-54377260I-250000J0D01*
G01*
G37*
%TD*%
%TO.C,C17*%
G36*
G01*
X107954140Y-74343280D02*
X107954140Y-73393280D01*
G75*
G02*
X108204140Y-73143280I250000J0D01*
G01*
X108879140Y-73143280D01*
G75*
G02*
X109129140Y-73393280I0J-250000D01*
G01*
X109129140Y-74343280D01*
G75*
G02*
X108879140Y-74593280I-250000J0D01*
G01*
X108204140Y-74593280D01*
G75*
G02*
X107954140Y-74343280I0J250000D01*
G01*
G37*
G36*
G01*
X105879140Y-74343280D02*
X105879140Y-73393280D01*
G75*
G02*
X106129140Y-73143280I250000J0D01*
G01*
X106804140Y-73143280D01*
G75*
G02*
X107054140Y-73393280I0J-250000D01*
G01*
X107054140Y-74343280D01*
G75*
G02*
X106804140Y-74593280I-250000J0D01*
G01*
X106129140Y-74593280D01*
G75*
G02*
X105879140Y-74343280I0J250000D01*
G01*
G37*
%TD*%
%TO.C,C18*%
G36*
G01*
X95756220Y-73393280D02*
X95756220Y-74343280D01*
G75*
G02*
X95506220Y-74593280I-250000J0D01*
G01*
X94831220Y-74593280D01*
G75*
G02*
X94581220Y-74343280I0J250000D01*
G01*
X94581220Y-73393280D01*
G75*
G02*
X94831220Y-73143280I250000J0D01*
G01*
X95506220Y-73143280D01*
G75*
G02*
X95756220Y-73393280I0J-250000D01*
G01*
G37*
G36*
G01*
X93681220Y-73393280D02*
X93681220Y-74343280D01*
G75*
G02*
X93431220Y-74593280I-250000J0D01*
G01*
X92756220Y-74593280D01*
G75*
G02*
X92506220Y-74343280I0J250000D01*
G01*
X92506220Y-73393280D01*
G75*
G02*
X92756220Y-73143280I250000J0D01*
G01*
X93431220Y-73143280D01*
G75*
G02*
X93681220Y-73393280I0J-250000D01*
G01*
G37*
%TD*%
%TO.C,C19*%
G36*
G01*
X84983300Y-96440500D02*
X85933300Y-96440500D01*
G75*
G02*
X86183300Y-96690500I0J-250000D01*
G01*
X86183300Y-97365500D01*
G75*
G02*
X85933300Y-97615500I-250000J0D01*
G01*
X84983300Y-97615500D01*
G75*
G02*
X84733300Y-97365500I0J250000D01*
G01*
X84733300Y-96690500D01*
G75*
G02*
X84983300Y-96440500I250000J0D01*
G01*
G37*
G36*
G01*
X84983300Y-94365500D02*
X85933300Y-94365500D01*
G75*
G02*
X86183300Y-94615500I0J-250000D01*
G01*
X86183300Y-95290500D01*
G75*
G02*
X85933300Y-95540500I-250000J0D01*
G01*
X84983300Y-95540500D01*
G75*
G02*
X84733300Y-95290500I0J250000D01*
G01*
X84733300Y-94615500D01*
G75*
G02*
X84983300Y-94365500I250000J0D01*
G01*
G37*
%TD*%
%TO.C,C20*%
G36*
G01*
X85882500Y-106662800D02*
X84932500Y-106662800D01*
G75*
G02*
X84682500Y-106412800I0J250000D01*
G01*
X84682500Y-105737800D01*
G75*
G02*
X84932500Y-105487800I250000J0D01*
G01*
X85882500Y-105487800D01*
G75*
G02*
X86132500Y-105737800I0J-250000D01*
G01*
X86132500Y-106412800D01*
G75*
G02*
X85882500Y-106662800I-250000J0D01*
G01*
G37*
G36*
G01*
X85882500Y-104587800D02*
X84932500Y-104587800D01*
G75*
G02*
X84682500Y-104337800I0J250000D01*
G01*
X84682500Y-103662800D01*
G75*
G02*
X84932500Y-103412800I250000J0D01*
G01*
X85882500Y-103412800D01*
G75*
G02*
X86132500Y-103662800I0J-250000D01*
G01*
X86132500Y-104337800D01*
G75*
G02*
X85882500Y-104587800I-250000J0D01*
G01*
G37*
%TD*%
%TO.C,C21*%
G36*
G01*
X105529400Y-106840600D02*
X104579400Y-106840600D01*
G75*
G02*
X104329400Y-106590600I0J250000D01*
G01*
X104329400Y-105915600D01*
G75*
G02*
X104579400Y-105665600I250000J0D01*
G01*
X105529400Y-105665600D01*
G75*
G02*
X105779400Y-105915600I0J-250000D01*
G01*
X105779400Y-106590600D01*
G75*
G02*
X105529400Y-106840600I-250000J0D01*
G01*
G37*
G36*
G01*
X105529400Y-104765600D02*
X104579400Y-104765600D01*
G75*
G02*
X104329400Y-104515600I0J250000D01*
G01*
X104329400Y-103840600D01*
G75*
G02*
X104579400Y-103590600I250000J0D01*
G01*
X105529400Y-103590600D01*
G75*
G02*
X105779400Y-103840600I0J-250000D01*
G01*
X105779400Y-104515600D01*
G75*
G02*
X105529400Y-104765600I-250000J0D01*
G01*
G37*
%TD*%
%TO.C,C22*%
G36*
G01*
X104554000Y-96364300D02*
X105504000Y-96364300D01*
G75*
G02*
X105754000Y-96614300I0J-250000D01*
G01*
X105754000Y-97289300D01*
G75*
G02*
X105504000Y-97539300I-250000J0D01*
G01*
X104554000Y-97539300D01*
G75*
G02*
X104304000Y-97289300I0J250000D01*
G01*
X104304000Y-96614300D01*
G75*
G02*
X104554000Y-96364300I250000J0D01*
G01*
G37*
G36*
G01*
X104554000Y-94289300D02*
X105504000Y-94289300D01*
G75*
G02*
X105754000Y-94539300I0J-250000D01*
G01*
X105754000Y-95214300D01*
G75*
G02*
X105504000Y-95464300I-250000J0D01*
G01*
X104554000Y-95464300D01*
G75*
G02*
X104304000Y-95214300I0J250000D01*
G01*
X104304000Y-94539300D01*
G75*
G02*
X104554000Y-94289300I250000J0D01*
G01*
G37*
%TD*%
%TO.C,C23*%
G36*
G01*
X58651160Y-71066240D02*
X57701160Y-71066240D01*
G75*
G02*
X57451160Y-70816240I0J250000D01*
G01*
X57451160Y-70141240D01*
G75*
G02*
X57701160Y-69891240I250000J0D01*
G01*
X58651160Y-69891240D01*
G75*
G02*
X58901160Y-70141240I0J-250000D01*
G01*
X58901160Y-70816240D01*
G75*
G02*
X58651160Y-71066240I-250000J0D01*
G01*
G37*
G36*
G01*
X58651160Y-73141240D02*
X57701160Y-73141240D01*
G75*
G02*
X57451160Y-72891240I0J250000D01*
G01*
X57451160Y-72216240D01*
G75*
G02*
X57701160Y-71966240I250000J0D01*
G01*
X58651160Y-71966240D01*
G75*
G02*
X58901160Y-72216240I0J-250000D01*
G01*
X58901160Y-72891240D01*
G75*
G02*
X58651160Y-73141240I-250000J0D01*
G01*
G37*
%TD*%
%TO.C,C24*%
G36*
G01*
X59850040Y-99098860D02*
X58900040Y-99098860D01*
G75*
G02*
X58650040Y-98848860I0J250000D01*
G01*
X58650040Y-98173860D01*
G75*
G02*
X58900040Y-97923860I250000J0D01*
G01*
X59850040Y-97923860D01*
G75*
G02*
X60100040Y-98173860I0J-250000D01*
G01*
X60100040Y-98848860D01*
G75*
G02*
X59850040Y-99098860I-250000J0D01*
G01*
G37*
G36*
G01*
X59850040Y-97023860D02*
X58900040Y-97023860D01*
G75*
G02*
X58650040Y-96773860I0J250000D01*
G01*
X58650040Y-96098860D01*
G75*
G02*
X58900040Y-95848860I250000J0D01*
G01*
X59850040Y-95848860D01*
G75*
G02*
X60100040Y-96098860I0J-250000D01*
G01*
X60100040Y-96773860D01*
G75*
G02*
X59850040Y-97023860I-250000J0D01*
G01*
G37*
%TD*%
%TO.C,R1*%
G36*
G01*
X92016159Y-136702240D02*
X92916161Y-136702240D01*
G75*
G02*
X93166160Y-136952239I0J-249999D01*
G01*
X93166160Y-137652241D01*
G75*
G02*
X92916161Y-137902240I-249999J0D01*
G01*
X92016159Y-137902240D01*
G75*
G02*
X91766160Y-137652241I0J249999D01*
G01*
X91766160Y-136952239D01*
G75*
G02*
X92016159Y-136702240I249999J0D01*
G01*
G37*
G36*
G01*
X92016159Y-138702240D02*
X92916161Y-138702240D01*
G75*
G02*
X93166160Y-138952239I0J-249999D01*
G01*
X93166160Y-139652241D01*
G75*
G02*
X92916161Y-139902240I-249999J0D01*
G01*
X92016159Y-139902240D01*
G75*
G02*
X91766160Y-139652241I0J249999D01*
G01*
X91766160Y-138952239D01*
G75*
G02*
X92016159Y-138702240I249999J0D01*
G01*
G37*
%TD*%
%TO.C,R2*%
G36*
G01*
X93546240Y-135047680D02*
X91396240Y-135047680D01*
G75*
G02*
X91146240Y-134797680I0J250000D01*
G01*
X91146240Y-133997680D01*
G75*
G02*
X91396240Y-133747680I250000J0D01*
G01*
X93546240Y-133747680D01*
G75*
G02*
X93796240Y-133997680I0J-250000D01*
G01*
X93796240Y-134797680D01*
G75*
G02*
X93546240Y-135047680I-250000J0D01*
G01*
G37*
G36*
G01*
X93546240Y-131947680D02*
X91396240Y-131947680D01*
G75*
G02*
X91146240Y-131697680I0J250000D01*
G01*
X91146240Y-130897680D01*
G75*
G02*
X91396240Y-130647680I250000J0D01*
G01*
X93546240Y-130647680D01*
G75*
G02*
X93796240Y-130897680I0J-250000D01*
G01*
X93796240Y-131697680D01*
G75*
G02*
X93546240Y-131947680I-250000J0D01*
G01*
G37*
%TD*%
%TO.C,R3*%
G36*
G01*
X87155180Y-53174660D02*
X85905180Y-53174660D01*
G75*
G02*
X85655180Y-52924660I0J250000D01*
G01*
X85655180Y-52124660D01*
G75*
G02*
X85905180Y-51874660I250000J0D01*
G01*
X87155180Y-51874660D01*
G75*
G02*
X87405180Y-52124660I0J-250000D01*
G01*
X87405180Y-52924660D01*
G75*
G02*
X87155180Y-53174660I-250000J0D01*
G01*
G37*
G36*
G01*
X87155180Y-56274660D02*
X85905180Y-56274660D01*
G75*
G02*
X85655180Y-56024660I0J250000D01*
G01*
X85655180Y-55224660D01*
G75*
G02*
X85905180Y-54974660I250000J0D01*
G01*
X87155180Y-54974660D01*
G75*
G02*
X87405180Y-55224660I0J-250000D01*
G01*
X87405180Y-56024660D01*
G75*
G02*
X87155180Y-56274660I-250000J0D01*
G01*
G37*
%TD*%
%TO.C,R4*%
G36*
G01*
X85917880Y-62288660D02*
X87167880Y-62288660D01*
G75*
G02*
X87417880Y-62538660I0J-250000D01*
G01*
X87417880Y-63338660D01*
G75*
G02*
X87167880Y-63588660I-250000J0D01*
G01*
X85917880Y-63588660D01*
G75*
G02*
X85667880Y-63338660I0J250000D01*
G01*
X85667880Y-62538660D01*
G75*
G02*
X85917880Y-62288660I250000J0D01*
G01*
G37*
G36*
G01*
X85917880Y-65388660D02*
X87167880Y-65388660D01*
G75*
G02*
X87417880Y-65638660I0J-250000D01*
G01*
X87417880Y-66438660D01*
G75*
G02*
X87167880Y-66688660I-250000J0D01*
G01*
X85917880Y-66688660D01*
G75*
G02*
X85667880Y-66438660I0J250000D01*
G01*
X85667880Y-65638660D01*
G75*
G02*
X85917880Y-65388660I250000J0D01*
G01*
G37*
%TD*%
%TO.C,R5*%
G36*
G01*
X105539380Y-65325160D02*
X106789380Y-65325160D01*
G75*
G02*
X107039380Y-65575160I0J-250000D01*
G01*
X107039380Y-66375160D01*
G75*
G02*
X106789380Y-66625160I-250000J0D01*
G01*
X105539380Y-66625160D01*
G75*
G02*
X105289380Y-66375160I0J250000D01*
G01*
X105289380Y-65575160D01*
G75*
G02*
X105539380Y-65325160I250000J0D01*
G01*
G37*
G36*
G01*
X105539380Y-62225160D02*
X106789380Y-62225160D01*
G75*
G02*
X107039380Y-62475160I0J-250000D01*
G01*
X107039380Y-63275160D01*
G75*
G02*
X106789380Y-63525160I-250000J0D01*
G01*
X105539380Y-63525160D01*
G75*
G02*
X105289380Y-63275160I0J250000D01*
G01*
X105289380Y-62475160D01*
G75*
G02*
X105539380Y-62225160I250000J0D01*
G01*
G37*
%TD*%
%TO.C,R6*%
G36*
G01*
X106827480Y-56490560D02*
X105577480Y-56490560D01*
G75*
G02*
X105327480Y-56240560I0J250000D01*
G01*
X105327480Y-55440560D01*
G75*
G02*
X105577480Y-55190560I250000J0D01*
G01*
X106827480Y-55190560D01*
G75*
G02*
X107077480Y-55440560I0J-250000D01*
G01*
X107077480Y-56240560D01*
G75*
G02*
X106827480Y-56490560I-250000J0D01*
G01*
G37*
G36*
G01*
X106827480Y-53390560D02*
X105577480Y-53390560D01*
G75*
G02*
X105327480Y-53140560I0J250000D01*
G01*
X105327480Y-52340560D01*
G75*
G02*
X105577480Y-52090560I250000J0D01*
G01*
X106827480Y-52090560D01*
G75*
G02*
X107077480Y-52340560I0J-250000D01*
G01*
X107077480Y-53140560D01*
G75*
G02*
X106827480Y-53390560I-250000J0D01*
G01*
G37*
%TD*%
%TO.C,R7*%
G36*
G01*
X107350400Y-145361900D02*
X108600400Y-145361900D01*
G75*
G02*
X108850400Y-145611900I0J-250000D01*
G01*
X108850400Y-146411900D01*
G75*
G02*
X108600400Y-146661900I-250000J0D01*
G01*
X107350400Y-146661900D01*
G75*
G02*
X107100400Y-146411900I0J250000D01*
G01*
X107100400Y-145611900D01*
G75*
G02*
X107350400Y-145361900I250000J0D01*
G01*
G37*
G36*
G01*
X107350400Y-142261900D02*
X108600400Y-142261900D01*
G75*
G02*
X108850400Y-142511900I0J-250000D01*
G01*
X108850400Y-143311900D01*
G75*
G02*
X108600400Y-143561900I-250000J0D01*
G01*
X107350400Y-143561900D01*
G75*
G02*
X107100400Y-143311900I0J250000D01*
G01*
X107100400Y-142511900D01*
G75*
G02*
X107350400Y-142261900I250000J0D01*
G01*
G37*
%TD*%
%TO.C,R8*%
G36*
G01*
X107325000Y-135011400D02*
X108575000Y-135011400D01*
G75*
G02*
X108825000Y-135261400I0J-250000D01*
G01*
X108825000Y-136061400D01*
G75*
G02*
X108575000Y-136311400I-250000J0D01*
G01*
X107325000Y-136311400D01*
G75*
G02*
X107075000Y-136061400I0J250000D01*
G01*
X107075000Y-135261400D01*
G75*
G02*
X107325000Y-135011400I250000J0D01*
G01*
G37*
G36*
G01*
X107325000Y-138111400D02*
X108575000Y-138111400D01*
G75*
G02*
X108825000Y-138361400I0J-250000D01*
G01*
X108825000Y-139161400D01*
G75*
G02*
X108575000Y-139411400I-250000J0D01*
G01*
X107325000Y-139411400D01*
G75*
G02*
X107075000Y-139161400I0J250000D01*
G01*
X107075000Y-138361400D01*
G75*
G02*
X107325000Y-138111400I250000J0D01*
G01*
G37*
%TD*%
%TO.C,R9*%
G36*
G01*
X107312300Y-130668000D02*
X108562300Y-130668000D01*
G75*
G02*
X108812300Y-130918000I0J-250000D01*
G01*
X108812300Y-131718000D01*
G75*
G02*
X108562300Y-131968000I-250000J0D01*
G01*
X107312300Y-131968000D01*
G75*
G02*
X107062300Y-131718000I0J250000D01*
G01*
X107062300Y-130918000D01*
G75*
G02*
X107312300Y-130668000I250000J0D01*
G01*
G37*
G36*
G01*
X107312300Y-127568000D02*
X108562300Y-127568000D01*
G75*
G02*
X108812300Y-127818000I0J-250000D01*
G01*
X108812300Y-128618000D01*
G75*
G02*
X108562300Y-128868000I-250000J0D01*
G01*
X107312300Y-128868000D01*
G75*
G02*
X107062300Y-128618000I0J250000D01*
G01*
X107062300Y-127818000D01*
G75*
G02*
X107312300Y-127568000I250000J0D01*
G01*
G37*
%TD*%
%TO.C,R10*%
G36*
G01*
X107312300Y-120215900D02*
X108562300Y-120215900D01*
G75*
G02*
X108812300Y-120465900I0J-250000D01*
G01*
X108812300Y-121265900D01*
G75*
G02*
X108562300Y-121515900I-250000J0D01*
G01*
X107312300Y-121515900D01*
G75*
G02*
X107062300Y-121265900I0J250000D01*
G01*
X107062300Y-120465900D01*
G75*
G02*
X107312300Y-120215900I250000J0D01*
G01*
G37*
G36*
G01*
X107312300Y-123315900D02*
X108562300Y-123315900D01*
G75*
G02*
X108812300Y-123565900I0J-250000D01*
G01*
X108812300Y-124365900D01*
G75*
G02*
X108562300Y-124615900I-250000J0D01*
G01*
X107312300Y-124615900D01*
G75*
G02*
X107062300Y-124365900I0J250000D01*
G01*
X107062300Y-123565900D01*
G75*
G02*
X107312300Y-123315900I250000J0D01*
G01*
G37*
%TD*%
%TO.C,R11*%
G36*
G01*
X88440100Y-96352600D02*
X89690100Y-96352600D01*
G75*
G02*
X89940100Y-96602600I0J-250000D01*
G01*
X89940100Y-97402600D01*
G75*
G02*
X89690100Y-97652600I-250000J0D01*
G01*
X88440100Y-97652600D01*
G75*
G02*
X88190100Y-97402600I0J250000D01*
G01*
X88190100Y-96602600D01*
G75*
G02*
X88440100Y-96352600I250000J0D01*
G01*
G37*
G36*
G01*
X88440100Y-93252600D02*
X89690100Y-93252600D01*
G75*
G02*
X89940100Y-93502600I0J-250000D01*
G01*
X89940100Y-94302600D01*
G75*
G02*
X89690100Y-94552600I-250000J0D01*
G01*
X88440100Y-94552600D01*
G75*
G02*
X88190100Y-94302600I0J250000D01*
G01*
X88190100Y-93502600D01*
G75*
G02*
X88440100Y-93252600I250000J0D01*
G01*
G37*
%TD*%
%TO.C,R12*%
G36*
G01*
X89626600Y-104713800D02*
X88376600Y-104713800D01*
G75*
G02*
X88126600Y-104463800I0J250000D01*
G01*
X88126600Y-103663800D01*
G75*
G02*
X88376600Y-103413800I250000J0D01*
G01*
X89626600Y-103413800D01*
G75*
G02*
X89876600Y-103663800I0J-250000D01*
G01*
X89876600Y-104463800D01*
G75*
G02*
X89626600Y-104713800I-250000J0D01*
G01*
G37*
G36*
G01*
X89626600Y-107813800D02*
X88376600Y-107813800D01*
G75*
G02*
X88126600Y-107563800I0J250000D01*
G01*
X88126600Y-106763800D01*
G75*
G02*
X88376600Y-106513800I250000J0D01*
G01*
X89626600Y-106513800D01*
G75*
G02*
X89876600Y-106763800I0J-250000D01*
G01*
X89876600Y-107563800D01*
G75*
G02*
X89626600Y-107813800I-250000J0D01*
G01*
G37*
%TD*%
%TO.C,R13*%
G36*
G01*
X102077680Y-107670360D02*
X100827680Y-107670360D01*
G75*
G02*
X100577680Y-107420360I0J250000D01*
G01*
X100577680Y-106620360D01*
G75*
G02*
X100827680Y-106370360I250000J0D01*
G01*
X102077680Y-106370360D01*
G75*
G02*
X102327680Y-106620360I0J-250000D01*
G01*
X102327680Y-107420360D01*
G75*
G02*
X102077680Y-107670360I-250000J0D01*
G01*
G37*
G36*
G01*
X102077680Y-104570360D02*
X100827680Y-104570360D01*
G75*
G02*
X100577680Y-104320360I0J250000D01*
G01*
X100577680Y-103520360D01*
G75*
G02*
X100827680Y-103270360I250000J0D01*
G01*
X102077680Y-103270360D01*
G75*
G02*
X102327680Y-103520360I0J-250000D01*
G01*
X102327680Y-104320360D01*
G75*
G02*
X102077680Y-104570360I-250000J0D01*
G01*
G37*
%TD*%
%TO.C,R14*%
G36*
G01*
X100771800Y-93151000D02*
X102021800Y-93151000D01*
G75*
G02*
X102271800Y-93401000I0J-250000D01*
G01*
X102271800Y-94201000D01*
G75*
G02*
X102021800Y-94451000I-250000J0D01*
G01*
X100771800Y-94451000D01*
G75*
G02*
X100521800Y-94201000I0J250000D01*
G01*
X100521800Y-93401000D01*
G75*
G02*
X100771800Y-93151000I250000J0D01*
G01*
G37*
G36*
G01*
X100771800Y-96251000D02*
X102021800Y-96251000D01*
G75*
G02*
X102271800Y-96501000I0J-250000D01*
G01*
X102271800Y-97301000D01*
G75*
G02*
X102021800Y-97551000I-250000J0D01*
G01*
X100771800Y-97551000D01*
G75*
G02*
X100521800Y-97301000I0J250000D01*
G01*
X100521800Y-96501000D01*
G75*
G02*
X100771800Y-96251000I250000J0D01*
G01*
G37*
%TD*%
%TO.C,R15*%
G36*
G01*
X88843880Y-88569640D02*
X88843880Y-89819640D01*
G75*
G02*
X88593880Y-90069640I-250000J0D01*
G01*
X87793880Y-90069640D01*
G75*
G02*
X87543880Y-89819640I0J250000D01*
G01*
X87543880Y-88569640D01*
G75*
G02*
X87793880Y-88319640I250000J0D01*
G01*
X88593880Y-88319640D01*
G75*
G02*
X88843880Y-88569640I0J-250000D01*
G01*
G37*
G36*
G01*
X85743880Y-88569640D02*
X85743880Y-89819640D01*
G75*
G02*
X85493880Y-90069640I-250000J0D01*
G01*
X84693880Y-90069640D01*
G75*
G02*
X84443880Y-89819640I0J250000D01*
G01*
X84443880Y-88569640D01*
G75*
G02*
X84693880Y-88319640I250000J0D01*
G01*
X85493880Y-88319640D01*
G75*
G02*
X85743880Y-88569640I0J-250000D01*
G01*
G37*
%TD*%
%TO.C,R16*%
G36*
G01*
X88401920Y-111302640D02*
X88401920Y-112552640D01*
G75*
G02*
X88151920Y-112802640I-250000J0D01*
G01*
X87351920Y-112802640D01*
G75*
G02*
X87101920Y-112552640I0J250000D01*
G01*
X87101920Y-111302640D01*
G75*
G02*
X87351920Y-111052640I250000J0D01*
G01*
X88151920Y-111052640D01*
G75*
G02*
X88401920Y-111302640I0J-250000D01*
G01*
G37*
G36*
G01*
X85301920Y-111302640D02*
X85301920Y-112552640D01*
G75*
G02*
X85051920Y-112802640I-250000J0D01*
G01*
X84251920Y-112802640D01*
G75*
G02*
X84001920Y-112552640I0J250000D01*
G01*
X84001920Y-111302640D01*
G75*
G02*
X84251920Y-111052640I250000J0D01*
G01*
X85051920Y-111052640D01*
G75*
G02*
X85301920Y-111302640I0J-250000D01*
G01*
G37*
%TD*%
%TO.C,R17*%
G36*
G01*
X105019080Y-112623760D02*
X105019080Y-111373760D01*
G75*
G02*
X105269080Y-111123760I250000J0D01*
G01*
X106069080Y-111123760D01*
G75*
G02*
X106319080Y-111373760I0J-250000D01*
G01*
X106319080Y-112623760D01*
G75*
G02*
X106069080Y-112873760I-250000J0D01*
G01*
X105269080Y-112873760D01*
G75*
G02*
X105019080Y-112623760I0J250000D01*
G01*
G37*
G36*
G01*
X101919080Y-112623760D02*
X101919080Y-111373760D01*
G75*
G02*
X102169080Y-111123760I250000J0D01*
G01*
X102969080Y-111123760D01*
G75*
G02*
X103219080Y-111373760I0J-250000D01*
G01*
X103219080Y-112623760D01*
G75*
G02*
X102969080Y-112873760I-250000J0D01*
G01*
X102169080Y-112873760D01*
G75*
G02*
X101919080Y-112623760I0J250000D01*
G01*
G37*
%TD*%
%TO.C,R18*%
G36*
G01*
X101787000Y-89677400D02*
X101787000Y-88427400D01*
G75*
G02*
X102037000Y-88177400I250000J0D01*
G01*
X102837000Y-88177400D01*
G75*
G02*
X103087000Y-88427400I0J-250000D01*
G01*
X103087000Y-89677400D01*
G75*
G02*
X102837000Y-89927400I-250000J0D01*
G01*
X102037000Y-89927400D01*
G75*
G02*
X101787000Y-89677400I0J250000D01*
G01*
G37*
G36*
G01*
X104887000Y-89677400D02*
X104887000Y-88427400D01*
G75*
G02*
X105137000Y-88177400I250000J0D01*
G01*
X105937000Y-88177400D01*
G75*
G02*
X106187000Y-88427400I0J-250000D01*
G01*
X106187000Y-89677400D01*
G75*
G02*
X105937000Y-89927400I-250000J0D01*
G01*
X105137000Y-89927400D01*
G75*
G02*
X104887000Y-89677400I0J250000D01*
G01*
G37*
%TD*%
D10*
%TO.C,SW1*%
X84232480Y-144363440D03*
X90962480Y-144363440D03*
%TD*%
%TO.C,U1*%
G36*
G01*
X91774600Y-96873200D02*
X91774600Y-96573200D01*
G75*
G02*
X91924600Y-96423200I150000J0D01*
G01*
X93574600Y-96423200D01*
G75*
G02*
X93724600Y-96573200I0J-150000D01*
G01*
X93724600Y-96873200D01*
G75*
G02*
X93574600Y-97023200I-150000J0D01*
G01*
X91924600Y-97023200D01*
G75*
G02*
X91774600Y-96873200I0J150000D01*
G01*
G37*
G36*
G01*
X91774600Y-98143200D02*
X91774600Y-97843200D01*
G75*
G02*
X91924600Y-97693200I150000J0D01*
G01*
X93574600Y-97693200D01*
G75*
G02*
X93724600Y-97843200I0J-150000D01*
G01*
X93724600Y-98143200D01*
G75*
G02*
X93574600Y-98293200I-150000J0D01*
G01*
X91924600Y-98293200D01*
G75*
G02*
X91774600Y-98143200I0J150000D01*
G01*
G37*
G36*
G01*
X91774600Y-99413200D02*
X91774600Y-99113200D01*
G75*
G02*
X91924600Y-98963200I150000J0D01*
G01*
X93574600Y-98963200D01*
G75*
G02*
X93724600Y-99113200I0J-150000D01*
G01*
X93724600Y-99413200D01*
G75*
G02*
X93574600Y-99563200I-150000J0D01*
G01*
X91924600Y-99563200D01*
G75*
G02*
X91774600Y-99413200I0J150000D01*
G01*
G37*
G36*
G01*
X91774600Y-100683200D02*
X91774600Y-100383200D01*
G75*
G02*
X91924600Y-100233200I150000J0D01*
G01*
X93574600Y-100233200D01*
G75*
G02*
X93724600Y-100383200I0J-150000D01*
G01*
X93724600Y-100683200D01*
G75*
G02*
X93574600Y-100833200I-150000J0D01*
G01*
X91924600Y-100833200D01*
G75*
G02*
X91774600Y-100683200I0J150000D01*
G01*
G37*
G36*
G01*
X91774600Y-101953200D02*
X91774600Y-101653200D01*
G75*
G02*
X91924600Y-101503200I150000J0D01*
G01*
X93574600Y-101503200D01*
G75*
G02*
X93724600Y-101653200I0J-150000D01*
G01*
X93724600Y-101953200D01*
G75*
G02*
X93574600Y-102103200I-150000J0D01*
G01*
X91924600Y-102103200D01*
G75*
G02*
X91774600Y-101953200I0J150000D01*
G01*
G37*
G36*
G01*
X91774600Y-103223200D02*
X91774600Y-102923200D01*
G75*
G02*
X91924600Y-102773200I150000J0D01*
G01*
X93574600Y-102773200D01*
G75*
G02*
X93724600Y-102923200I0J-150000D01*
G01*
X93724600Y-103223200D01*
G75*
G02*
X93574600Y-103373200I-150000J0D01*
G01*
X91924600Y-103373200D01*
G75*
G02*
X91774600Y-103223200I0J150000D01*
G01*
G37*
G36*
G01*
X91774600Y-104493200D02*
X91774600Y-104193200D01*
G75*
G02*
X91924600Y-104043200I150000J0D01*
G01*
X93574600Y-104043200D01*
G75*
G02*
X93724600Y-104193200I0J-150000D01*
G01*
X93724600Y-104493200D01*
G75*
G02*
X93574600Y-104643200I-150000J0D01*
G01*
X91924600Y-104643200D01*
G75*
G02*
X91774600Y-104493200I0J150000D01*
G01*
G37*
G36*
G01*
X96724600Y-104493200D02*
X96724600Y-104193200D01*
G75*
G02*
X96874600Y-104043200I150000J0D01*
G01*
X98524600Y-104043200D01*
G75*
G02*
X98674600Y-104193200I0J-150000D01*
G01*
X98674600Y-104493200D01*
G75*
G02*
X98524600Y-104643200I-150000J0D01*
G01*
X96874600Y-104643200D01*
G75*
G02*
X96724600Y-104493200I0J150000D01*
G01*
G37*
G36*
G01*
X96724600Y-103223200D02*
X96724600Y-102923200D01*
G75*
G02*
X96874600Y-102773200I150000J0D01*
G01*
X98524600Y-102773200D01*
G75*
G02*
X98674600Y-102923200I0J-150000D01*
G01*
X98674600Y-103223200D01*
G75*
G02*
X98524600Y-103373200I-150000J0D01*
G01*
X96874600Y-103373200D01*
G75*
G02*
X96724600Y-103223200I0J150000D01*
G01*
G37*
G36*
G01*
X96724600Y-101953200D02*
X96724600Y-101653200D01*
G75*
G02*
X96874600Y-101503200I150000J0D01*
G01*
X98524600Y-101503200D01*
G75*
G02*
X98674600Y-101653200I0J-150000D01*
G01*
X98674600Y-101953200D01*
G75*
G02*
X98524600Y-102103200I-150000J0D01*
G01*
X96874600Y-102103200D01*
G75*
G02*
X96724600Y-101953200I0J150000D01*
G01*
G37*
G36*
G01*
X96724600Y-100683200D02*
X96724600Y-100383200D01*
G75*
G02*
X96874600Y-100233200I150000J0D01*
G01*
X98524600Y-100233200D01*
G75*
G02*
X98674600Y-100383200I0J-150000D01*
G01*
X98674600Y-100683200D01*
G75*
G02*
X98524600Y-100833200I-150000J0D01*
G01*
X96874600Y-100833200D01*
G75*
G02*
X96724600Y-100683200I0J150000D01*
G01*
G37*
G36*
G01*
X96724600Y-99413200D02*
X96724600Y-99113200D01*
G75*
G02*
X96874600Y-98963200I150000J0D01*
G01*
X98524600Y-98963200D01*
G75*
G02*
X98674600Y-99113200I0J-150000D01*
G01*
X98674600Y-99413200D01*
G75*
G02*
X98524600Y-99563200I-150000J0D01*
G01*
X96874600Y-99563200D01*
G75*
G02*
X96724600Y-99413200I0J150000D01*
G01*
G37*
G36*
G01*
X96724600Y-98143200D02*
X96724600Y-97843200D01*
G75*
G02*
X96874600Y-97693200I150000J0D01*
G01*
X98524600Y-97693200D01*
G75*
G02*
X98674600Y-97843200I0J-150000D01*
G01*
X98674600Y-98143200D01*
G75*
G02*
X98524600Y-98293200I-150000J0D01*
G01*
X96874600Y-98293200D01*
G75*
G02*
X96724600Y-98143200I0J150000D01*
G01*
G37*
G36*
G01*
X96724600Y-96873200D02*
X96724600Y-96573200D01*
G75*
G02*
X96874600Y-96423200I150000J0D01*
G01*
X98524600Y-96423200D01*
G75*
G02*
X98674600Y-96573200I0J-150000D01*
G01*
X98674600Y-96873200D01*
G75*
G02*
X98524600Y-97023200I-150000J0D01*
G01*
X96874600Y-97023200D01*
G75*
G02*
X96724600Y-96873200I0J150000D01*
G01*
G37*
%TD*%
%TO.C,U2*%
G36*
G01*
X97376800Y-70203200D02*
X97376800Y-69903200D01*
G75*
G02*
X97526800Y-69753200I150000J0D01*
G01*
X99176800Y-69753200D01*
G75*
G02*
X99326800Y-69903200I0J-150000D01*
G01*
X99326800Y-70203200D01*
G75*
G02*
X99176800Y-70353200I-150000J0D01*
G01*
X97526800Y-70353200D01*
G75*
G02*
X97376800Y-70203200I0J150000D01*
G01*
G37*
G36*
G01*
X97376800Y-71473200D02*
X97376800Y-71173200D01*
G75*
G02*
X97526800Y-71023200I150000J0D01*
G01*
X99176800Y-71023200D01*
G75*
G02*
X99326800Y-71173200I0J-150000D01*
G01*
X99326800Y-71473200D01*
G75*
G02*
X99176800Y-71623200I-150000J0D01*
G01*
X97526800Y-71623200D01*
G75*
G02*
X97376800Y-71473200I0J150000D01*
G01*
G37*
G36*
G01*
X97376800Y-72743200D02*
X97376800Y-72443200D01*
G75*
G02*
X97526800Y-72293200I150000J0D01*
G01*
X99176800Y-72293200D01*
G75*
G02*
X99326800Y-72443200I0J-150000D01*
G01*
X99326800Y-72743200D01*
G75*
G02*
X99176800Y-72893200I-150000J0D01*
G01*
X97526800Y-72893200D01*
G75*
G02*
X97376800Y-72743200I0J150000D01*
G01*
G37*
G36*
G01*
X97376800Y-74013200D02*
X97376800Y-73713200D01*
G75*
G02*
X97526800Y-73563200I150000J0D01*
G01*
X99176800Y-73563200D01*
G75*
G02*
X99326800Y-73713200I0J-150000D01*
G01*
X99326800Y-74013200D01*
G75*
G02*
X99176800Y-74163200I-150000J0D01*
G01*
X97526800Y-74163200D01*
G75*
G02*
X97376800Y-74013200I0J150000D01*
G01*
G37*
G36*
G01*
X97376800Y-75283200D02*
X97376800Y-74983200D01*
G75*
G02*
X97526800Y-74833200I150000J0D01*
G01*
X99176800Y-74833200D01*
G75*
G02*
X99326800Y-74983200I0J-150000D01*
G01*
X99326800Y-75283200D01*
G75*
G02*
X99176800Y-75433200I-150000J0D01*
G01*
X97526800Y-75433200D01*
G75*
G02*
X97376800Y-75283200I0J150000D01*
G01*
G37*
G36*
G01*
X97376800Y-76553200D02*
X97376800Y-76253200D01*
G75*
G02*
X97526800Y-76103200I150000J0D01*
G01*
X99176800Y-76103200D01*
G75*
G02*
X99326800Y-76253200I0J-150000D01*
G01*
X99326800Y-76553200D01*
G75*
G02*
X99176800Y-76703200I-150000J0D01*
G01*
X97526800Y-76703200D01*
G75*
G02*
X97376800Y-76553200I0J150000D01*
G01*
G37*
G36*
G01*
X97376800Y-77823200D02*
X97376800Y-77523200D01*
G75*
G02*
X97526800Y-77373200I150000J0D01*
G01*
X99176800Y-77373200D01*
G75*
G02*
X99326800Y-77523200I0J-150000D01*
G01*
X99326800Y-77823200D01*
G75*
G02*
X99176800Y-77973200I-150000J0D01*
G01*
X97526800Y-77973200D01*
G75*
G02*
X97376800Y-77823200I0J150000D01*
G01*
G37*
G36*
G01*
X102326800Y-77823200D02*
X102326800Y-77523200D01*
G75*
G02*
X102476800Y-77373200I150000J0D01*
G01*
X104126800Y-77373200D01*
G75*
G02*
X104276800Y-77523200I0J-150000D01*
G01*
X104276800Y-77823200D01*
G75*
G02*
X104126800Y-77973200I-150000J0D01*
G01*
X102476800Y-77973200D01*
G75*
G02*
X102326800Y-77823200I0J150000D01*
G01*
G37*
G36*
G01*
X102326800Y-76553200D02*
X102326800Y-76253200D01*
G75*
G02*
X102476800Y-76103200I150000J0D01*
G01*
X104126800Y-76103200D01*
G75*
G02*
X104276800Y-76253200I0J-150000D01*
G01*
X104276800Y-76553200D01*
G75*
G02*
X104126800Y-76703200I-150000J0D01*
G01*
X102476800Y-76703200D01*
G75*
G02*
X102326800Y-76553200I0J150000D01*
G01*
G37*
G36*
G01*
X102326800Y-75283200D02*
X102326800Y-74983200D01*
G75*
G02*
X102476800Y-74833200I150000J0D01*
G01*
X104126800Y-74833200D01*
G75*
G02*
X104276800Y-74983200I0J-150000D01*
G01*
X104276800Y-75283200D01*
G75*
G02*
X104126800Y-75433200I-150000J0D01*
G01*
X102476800Y-75433200D01*
G75*
G02*
X102326800Y-75283200I0J150000D01*
G01*
G37*
G36*
G01*
X102326800Y-74013200D02*
X102326800Y-73713200D01*
G75*
G02*
X102476800Y-73563200I150000J0D01*
G01*
X104126800Y-73563200D01*
G75*
G02*
X104276800Y-73713200I0J-150000D01*
G01*
X104276800Y-74013200D01*
G75*
G02*
X104126800Y-74163200I-150000J0D01*
G01*
X102476800Y-74163200D01*
G75*
G02*
X102326800Y-74013200I0J150000D01*
G01*
G37*
G36*
G01*
X102326800Y-72743200D02*
X102326800Y-72443200D01*
G75*
G02*
X102476800Y-72293200I150000J0D01*
G01*
X104126800Y-72293200D01*
G75*
G02*
X104276800Y-72443200I0J-150000D01*
G01*
X104276800Y-72743200D01*
G75*
G02*
X104126800Y-72893200I-150000J0D01*
G01*
X102476800Y-72893200D01*
G75*
G02*
X102326800Y-72743200I0J150000D01*
G01*
G37*
G36*
G01*
X102326800Y-71473200D02*
X102326800Y-71173200D01*
G75*
G02*
X102476800Y-71023200I150000J0D01*
G01*
X104126800Y-71023200D01*
G75*
G02*
X104276800Y-71173200I0J-150000D01*
G01*
X104276800Y-71473200D01*
G75*
G02*
X104126800Y-71623200I-150000J0D01*
G01*
X102476800Y-71623200D01*
G75*
G02*
X102326800Y-71473200I0J150000D01*
G01*
G37*
G36*
G01*
X102326800Y-70203200D02*
X102326800Y-69903200D01*
G75*
G02*
X102476800Y-69753200I150000J0D01*
G01*
X104126800Y-69753200D01*
G75*
G02*
X104276800Y-69903200I0J-150000D01*
G01*
X104276800Y-70203200D01*
G75*
G02*
X104126800Y-70353200I-150000J0D01*
G01*
X102476800Y-70353200D01*
G75*
G02*
X102326800Y-70203200I0J150000D01*
G01*
G37*
%TD*%
%TO.C,U3*%
G36*
G01*
X97872680Y-55671860D02*
X97872680Y-55371860D01*
G75*
G02*
X98022680Y-55221860I150000J0D01*
G01*
X99672680Y-55221860D01*
G75*
G02*
X99822680Y-55371860I0J-150000D01*
G01*
X99822680Y-55671860D01*
G75*
G02*
X99672680Y-55821860I-150000J0D01*
G01*
X98022680Y-55821860D01*
G75*
G02*
X97872680Y-55671860I0J150000D01*
G01*
G37*
G36*
G01*
X97872680Y-56941860D02*
X97872680Y-56641860D01*
G75*
G02*
X98022680Y-56491860I150000J0D01*
G01*
X99672680Y-56491860D01*
G75*
G02*
X99822680Y-56641860I0J-150000D01*
G01*
X99822680Y-56941860D01*
G75*
G02*
X99672680Y-57091860I-150000J0D01*
G01*
X98022680Y-57091860D01*
G75*
G02*
X97872680Y-56941860I0J150000D01*
G01*
G37*
G36*
G01*
X97872680Y-58211860D02*
X97872680Y-57911860D01*
G75*
G02*
X98022680Y-57761860I150000J0D01*
G01*
X99672680Y-57761860D01*
G75*
G02*
X99822680Y-57911860I0J-150000D01*
G01*
X99822680Y-58211860D01*
G75*
G02*
X99672680Y-58361860I-150000J0D01*
G01*
X98022680Y-58361860D01*
G75*
G02*
X97872680Y-58211860I0J150000D01*
G01*
G37*
G36*
G01*
X97872680Y-59481860D02*
X97872680Y-59181860D01*
G75*
G02*
X98022680Y-59031860I150000J0D01*
G01*
X99672680Y-59031860D01*
G75*
G02*
X99822680Y-59181860I0J-150000D01*
G01*
X99822680Y-59481860D01*
G75*
G02*
X99672680Y-59631860I-150000J0D01*
G01*
X98022680Y-59631860D01*
G75*
G02*
X97872680Y-59481860I0J150000D01*
G01*
G37*
G36*
G01*
X97872680Y-60751860D02*
X97872680Y-60451860D01*
G75*
G02*
X98022680Y-60301860I150000J0D01*
G01*
X99672680Y-60301860D01*
G75*
G02*
X99822680Y-60451860I0J-150000D01*
G01*
X99822680Y-60751860D01*
G75*
G02*
X99672680Y-60901860I-150000J0D01*
G01*
X98022680Y-60901860D01*
G75*
G02*
X97872680Y-60751860I0J150000D01*
G01*
G37*
G36*
G01*
X97872680Y-62021860D02*
X97872680Y-61721860D01*
G75*
G02*
X98022680Y-61571860I150000J0D01*
G01*
X99672680Y-61571860D01*
G75*
G02*
X99822680Y-61721860I0J-150000D01*
G01*
X99822680Y-62021860D01*
G75*
G02*
X99672680Y-62171860I-150000J0D01*
G01*
X98022680Y-62171860D01*
G75*
G02*
X97872680Y-62021860I0J150000D01*
G01*
G37*
G36*
G01*
X97872680Y-63291860D02*
X97872680Y-62991860D01*
G75*
G02*
X98022680Y-62841860I150000J0D01*
G01*
X99672680Y-62841860D01*
G75*
G02*
X99822680Y-62991860I0J-150000D01*
G01*
X99822680Y-63291860D01*
G75*
G02*
X99672680Y-63441860I-150000J0D01*
G01*
X98022680Y-63441860D01*
G75*
G02*
X97872680Y-63291860I0J150000D01*
G01*
G37*
G36*
G01*
X92922680Y-63291860D02*
X92922680Y-62991860D01*
G75*
G02*
X93072680Y-62841860I150000J0D01*
G01*
X94722680Y-62841860D01*
G75*
G02*
X94872680Y-62991860I0J-150000D01*
G01*
X94872680Y-63291860D01*
G75*
G02*
X94722680Y-63441860I-150000J0D01*
G01*
X93072680Y-63441860D01*
G75*
G02*
X92922680Y-63291860I0J150000D01*
G01*
G37*
G36*
G01*
X92922680Y-62021860D02*
X92922680Y-61721860D01*
G75*
G02*
X93072680Y-61571860I150000J0D01*
G01*
X94722680Y-61571860D01*
G75*
G02*
X94872680Y-61721860I0J-150000D01*
G01*
X94872680Y-62021860D01*
G75*
G02*
X94722680Y-62171860I-150000J0D01*
G01*
X93072680Y-62171860D01*
G75*
G02*
X92922680Y-62021860I0J150000D01*
G01*
G37*
G36*
G01*
X92922680Y-60751860D02*
X92922680Y-60451860D01*
G75*
G02*
X93072680Y-60301860I150000J0D01*
G01*
X94722680Y-60301860D01*
G75*
G02*
X94872680Y-60451860I0J-150000D01*
G01*
X94872680Y-60751860D01*
G75*
G02*
X94722680Y-60901860I-150000J0D01*
G01*
X93072680Y-60901860D01*
G75*
G02*
X92922680Y-60751860I0J150000D01*
G01*
G37*
G36*
G01*
X92922680Y-59481860D02*
X92922680Y-59181860D01*
G75*
G02*
X93072680Y-59031860I150000J0D01*
G01*
X94722680Y-59031860D01*
G75*
G02*
X94872680Y-59181860I0J-150000D01*
G01*
X94872680Y-59481860D01*
G75*
G02*
X94722680Y-59631860I-150000J0D01*
G01*
X93072680Y-59631860D01*
G75*
G02*
X92922680Y-59481860I0J150000D01*
G01*
G37*
G36*
G01*
X92922680Y-58211860D02*
X92922680Y-57911860D01*
G75*
G02*
X93072680Y-57761860I150000J0D01*
G01*
X94722680Y-57761860D01*
G75*
G02*
X94872680Y-57911860I0J-150000D01*
G01*
X94872680Y-58211860D01*
G75*
G02*
X94722680Y-58361860I-150000J0D01*
G01*
X93072680Y-58361860D01*
G75*
G02*
X92922680Y-58211860I0J150000D01*
G01*
G37*
G36*
G01*
X92922680Y-56941860D02*
X92922680Y-56641860D01*
G75*
G02*
X93072680Y-56491860I150000J0D01*
G01*
X94722680Y-56491860D01*
G75*
G02*
X94872680Y-56641860I0J-150000D01*
G01*
X94872680Y-56941860D01*
G75*
G02*
X94722680Y-57091860I-150000J0D01*
G01*
X93072680Y-57091860D01*
G75*
G02*
X92922680Y-56941860I0J150000D01*
G01*
G37*
G36*
G01*
X92922680Y-55671860D02*
X92922680Y-55371860D01*
G75*
G02*
X93072680Y-55221860I150000J0D01*
G01*
X94722680Y-55221860D01*
G75*
G02*
X94872680Y-55371860I0J-150000D01*
G01*
X94872680Y-55671860D01*
G75*
G02*
X94722680Y-55821860I-150000J0D01*
G01*
X93072680Y-55821860D01*
G75*
G02*
X92922680Y-55671860I0J150000D01*
G01*
G37*
%TD*%
%TO.C,U5*%
G36*
G01*
X89601720Y-126415660D02*
X89601720Y-126715660D01*
G75*
G02*
X89451720Y-126865660I-150000J0D01*
G01*
X87801720Y-126865660D01*
G75*
G02*
X87651720Y-126715660I0J150000D01*
G01*
X87651720Y-126415660D01*
G75*
G02*
X87801720Y-126265660I150000J0D01*
G01*
X89451720Y-126265660D01*
G75*
G02*
X89601720Y-126415660I0J-150000D01*
G01*
G37*
G36*
G01*
X89601720Y-125145660D02*
X89601720Y-125445660D01*
G75*
G02*
X89451720Y-125595660I-150000J0D01*
G01*
X87801720Y-125595660D01*
G75*
G02*
X87651720Y-125445660I0J150000D01*
G01*
X87651720Y-125145660D01*
G75*
G02*
X87801720Y-124995660I150000J0D01*
G01*
X89451720Y-124995660D01*
G75*
G02*
X89601720Y-125145660I0J-150000D01*
G01*
G37*
G36*
G01*
X89601720Y-123875660D02*
X89601720Y-124175660D01*
G75*
G02*
X89451720Y-124325660I-150000J0D01*
G01*
X87801720Y-124325660D01*
G75*
G02*
X87651720Y-124175660I0J150000D01*
G01*
X87651720Y-123875660D01*
G75*
G02*
X87801720Y-123725660I150000J0D01*
G01*
X89451720Y-123725660D01*
G75*
G02*
X89601720Y-123875660I0J-150000D01*
G01*
G37*
G36*
G01*
X89601720Y-122605660D02*
X89601720Y-122905660D01*
G75*
G02*
X89451720Y-123055660I-150000J0D01*
G01*
X87801720Y-123055660D01*
G75*
G02*
X87651720Y-122905660I0J150000D01*
G01*
X87651720Y-122605660D01*
G75*
G02*
X87801720Y-122455660I150000J0D01*
G01*
X89451720Y-122455660D01*
G75*
G02*
X89601720Y-122605660I0J-150000D01*
G01*
G37*
G36*
G01*
X84651720Y-122605660D02*
X84651720Y-122905660D01*
G75*
G02*
X84501720Y-123055660I-150000J0D01*
G01*
X82851720Y-123055660D01*
G75*
G02*
X82701720Y-122905660I0J150000D01*
G01*
X82701720Y-122605660D01*
G75*
G02*
X82851720Y-122455660I150000J0D01*
G01*
X84501720Y-122455660D01*
G75*
G02*
X84651720Y-122605660I0J-150000D01*
G01*
G37*
G36*
G01*
X84651720Y-123875660D02*
X84651720Y-124175660D01*
G75*
G02*
X84501720Y-124325660I-150000J0D01*
G01*
X82851720Y-124325660D01*
G75*
G02*
X82701720Y-124175660I0J150000D01*
G01*
X82701720Y-123875660D01*
G75*
G02*
X82851720Y-123725660I150000J0D01*
G01*
X84501720Y-123725660D01*
G75*
G02*
X84651720Y-123875660I0J-150000D01*
G01*
G37*
G36*
G01*
X84651720Y-125145660D02*
X84651720Y-125445660D01*
G75*
G02*
X84501720Y-125595660I-150000J0D01*
G01*
X82851720Y-125595660D01*
G75*
G02*
X82701720Y-125445660I0J150000D01*
G01*
X82701720Y-125145660D01*
G75*
G02*
X82851720Y-124995660I150000J0D01*
G01*
X84501720Y-124995660D01*
G75*
G02*
X84651720Y-125145660I0J-150000D01*
G01*
G37*
G36*
G01*
X84651720Y-126415660D02*
X84651720Y-126715660D01*
G75*
G02*
X84501720Y-126865660I-150000J0D01*
G01*
X82851720Y-126865660D01*
G75*
G02*
X82701720Y-126715660I0J150000D01*
G01*
X82701720Y-126415660D01*
G75*
G02*
X82851720Y-126265660I150000J0D01*
G01*
X84501720Y-126265660D01*
G75*
G02*
X84651720Y-126415660I0J-150000D01*
G01*
G37*
G36*
G01*
X87181720Y-125035660D02*
X87181720Y-125785660D01*
G75*
G02*
X86951720Y-126015660I-230000J0D01*
G01*
X86491720Y-126015660D01*
G75*
G02*
X86261720Y-125785660I0J230000D01*
G01*
X86261720Y-125035660D01*
G75*
G02*
X86491720Y-124805660I230000J0D01*
G01*
X86951720Y-124805660D01*
G75*
G02*
X87181720Y-125035660I0J-230000D01*
G01*
G37*
G36*
G01*
X87181720Y-123535660D02*
X87181720Y-124285660D01*
G75*
G02*
X86951720Y-124515660I-230000J0D01*
G01*
X86491720Y-124515660D01*
G75*
G02*
X86261720Y-124285660I0J230000D01*
G01*
X86261720Y-123535660D01*
G75*
G02*
X86491720Y-123305660I230000J0D01*
G01*
X86951720Y-123305660D01*
G75*
G02*
X87181720Y-123535660I0J-230000D01*
G01*
G37*
G36*
G01*
X86041720Y-125035660D02*
X86041720Y-125785660D01*
G75*
G02*
X85811720Y-126015660I-230000J0D01*
G01*
X85351720Y-126015660D01*
G75*
G02*
X85121720Y-125785660I0J230000D01*
G01*
X85121720Y-125035660D01*
G75*
G02*
X85351720Y-124805660I230000J0D01*
G01*
X85811720Y-124805660D01*
G75*
G02*
X86041720Y-125035660I0J-230000D01*
G01*
G37*
G36*
G01*
X86041720Y-123535660D02*
X86041720Y-124285660D01*
G75*
G02*
X85811720Y-124515660I-230000J0D01*
G01*
X85351720Y-124515660D01*
G75*
G02*
X85121720Y-124285660I0J230000D01*
G01*
X85121720Y-123535660D01*
G75*
G02*
X85351720Y-123305660I230000J0D01*
G01*
X85811720Y-123305660D01*
G75*
G02*
X86041720Y-123535660I0J-230000D01*
G01*
G37*
%TD*%
M02*
