M48
; DRILL file {KiCad (5.1.10)-1} date 10/30/21 12:19:39
; FORMAT={-:-/ absolute / inch / decimal}
; #@! TF.CreationDate,2021-10-30T12:19:39-04:00
; #@! TF.GenerationSoftware,Kicad,Pcbnew,(5.1.10)-1
; #@! TF.FileFunction,Plated,1,2,PTH
FMAT,2
INCH
T1C0.0157
T2C0.0315
T3C0.0335
T4C0.0394
T5C0.0433
%
G90
G05
T1
X2.1835Y-2.9688
X2.2257Y-3.9576
X2.2288Y-4.2237
X2.3151Y-4.0254
X2.35Y-3.2428
X2.3735Y-2.8478
X2.3836Y-4.0235
X2.5369Y-3.6275
X2.5506Y-4.9492
X2.6936Y-3.14
X2.6988Y-2.9452
X2.6998Y-2.8079
X2.7664Y-4.9618
X2.8025Y-2.7283
X2.8025Y-2.9483
X2.8067Y-3.1767
X2.9482Y-2.9719
X2.9482Y-3.2924
X2.9485Y-3.5731
X2.9523Y-3.1475
X2.9536Y-3.4664
X3.0785Y-4.7751
X3.1249Y-4.9199
X3.1304Y-4.7933
X3.168Y-5.035
X3.1948Y-4.9233
X3.213Y-3.3264
X3.2474Y-3.977
X3.2714Y-2.1245
X3.2849Y-4.6984
X3.3219Y-3.9764
X3.3862Y-3.1512
X3.4115Y-2.958
X3.4797Y-4.5358
X3.5062Y-2.6471
X3.507Y-5.0801
X3.5814Y-4.084
X3.5814Y-3.8342
X3.627Y-3.0299
X3.6288Y-3.1059
X3.642Y-4.8166
X3.6968Y-2.7036
X3.7886Y-3.0337
X3.7929Y-2.783
X3.7954Y-5.5499
X3.8041Y-2.8634
X3.8403Y-5.5478
X3.8859Y-5.5455
X3.8886Y-4.4213
X3.918Y-3.8353
X3.9184Y-2.5655
X3.9209Y-4.0829
X3.9608Y-4.5358
X3.9962Y-4.5673
X4.0212Y-2.6598
X4.0287Y-3.2389
X4.031Y-4.6028
X4.0554Y-3.6259
X4.0585Y-3.2859
X4.0728Y-2.0405
X4.0742Y-4.6333
X4.0857Y-2.6368
X4.0953Y-3.3355
X4.1191Y-2.7036
X4.1326Y-4.6552
X4.1328Y-3.392
X4.134Y-3.631
X4.1476Y-2.8425
X4.1501Y-5.078
X4.159Y-3.0337
X4.1811Y-2.9692
X4.1818Y-2.3576
X4.2066Y-3.3031
X4.2348Y-3.0673
X4.3154Y-2.6037
X4.317Y-2.9065
X4.3938Y-3.7909
T2
X2.074Y-3.1045
X2.174Y-3.1045
X2.274Y-3.1045
X2.4708Y-2.7774
X2.4708Y-2.8774
X2.4708Y-2.9774
X2.4708Y-3.0774
X2.4708Y-3.1774
X2.4708Y-3.2774
X2.4708Y-3.3774
X2.4708Y-3.4774
X2.4708Y-3.5774
X2.4708Y-3.6774
X2.4708Y-3.7774
X2.4708Y-3.8774
X2.4708Y-3.9774
X2.4708Y-4.0774
X2.4708Y-4.1774
X2.4708Y-4.2774
X2.4708Y-4.3774
X2.4708Y-4.4774
X2.4708Y-4.5774
X2.4708Y-4.6774
X3.033Y-5.0798
X3.033Y-5.1585
X3.033Y-5.3485
X3.033Y-5.4272
X3.033Y-5.6285
X3.033Y-5.7072
X3.0708Y-2.7774
X3.0708Y-2.8774
X3.0708Y-2.9774
X3.0708Y-3.0774
X3.0708Y-3.1774
X3.0708Y-3.2774
X3.0708Y-3.3774
X3.0708Y-3.4774
X3.0708Y-3.5774
X3.0708Y-3.6774
X3.0708Y-3.7774
X3.0708Y-3.8774
X3.0708Y-3.9774
X3.0708Y-4.0774
X3.0708Y-4.1774
X3.0708Y-4.2774
X3.0708Y-4.3774
X3.0708Y-4.4774
X3.0708Y-4.5774
X3.0708Y-4.6774
X3.213Y-3.5115
X3.213Y-3.8115
X3.2135Y-4.1055
X3.2135Y-4.4055
X3.2775Y-2.858
X3.2775Y-3.0501
X3.4722Y-5.1768
X3.4722Y-5.4768
X3.841Y-5.4045
X3.843Y-5.1145
X3.843Y-5.6925
X3.8446Y-4.8218
X3.941Y-5.4045
X3.943Y-5.1145
X3.943Y-5.6925
X3.9446Y-4.8218
X4.041Y-5.4045
X4.043Y-5.1145
X4.043Y-5.6925
X4.0446Y-4.8218
X4.2845Y-3.5065
X4.2845Y-3.8065
X4.2915Y-4.1085
X4.2915Y-4.4085
T3
X2.1362Y-3.8575
X2.1362Y-4.2512
T4
X2.0748Y-2.4661
X2.0748Y-2.5661
X2.0748Y-2.6661
X2.0748Y-2.7661
X2.0748Y-2.8661
X2.132Y-4.6985
X2.132Y-4.7985
X2.132Y-4.8985
X2.132Y-4.9985
X2.132Y-5.0985
X2.132Y-5.1985
X2.132Y-5.2985
X2.132Y-5.3985
X2.1748Y-2.4661
X2.1748Y-2.5661
X2.1748Y-2.6661
X2.1748Y-2.7661
X2.1748Y-2.8661
X2.232Y-4.6985
X2.232Y-4.7985
X2.232Y-4.8985
X2.232Y-4.9985
X2.232Y-5.0985
X2.232Y-5.1985
X2.232Y-5.2985
X2.232Y-5.3985
X2.5955Y-5.3845
X2.5975Y-5.1185
X2.5975Y-5.6645
X2.649Y-2.1325
X2.649Y-2.2325
X2.749Y-2.1325
X2.749Y-2.2325
X2.7955Y-5.3845
X2.7975Y-5.1185
X2.7975Y-5.6645
X2.849Y-2.1325
X2.849Y-2.2325
X4.4669Y-2.106
X4.4669Y-2.206
X4.4669Y-2.306
X4.4669Y-2.406
X4.4669Y-2.506
X4.4669Y-2.606
X4.4669Y-2.706
X4.4669Y-2.806
X4.4669Y-2.906
X4.4669Y-3.006
X4.4669Y-3.106
X4.4669Y-3.206
X4.4669Y-3.306
X4.4669Y-3.406
X4.4669Y-3.506
X4.4669Y-3.606
X4.4669Y-3.706
X4.4669Y-3.806
X4.4669Y-3.906
X4.4669Y-4.006
X4.4669Y-4.106
X4.4669Y-4.206
X4.4669Y-4.306
X4.4669Y-4.406
X4.4669Y-4.506
X4.4669Y-4.606
X4.4669Y-4.706
X4.4669Y-4.806
X4.4669Y-4.906
X4.4669Y-5.006
X4.4669Y-5.106
X4.4669Y-5.206
T5
X3.6196Y-3.295
X3.6196Y-3.595
X3.6208Y-4.3124
X3.6208Y-4.6124
X3.8734Y-4.3124
X3.8734Y-4.6124
X3.8762Y-3.295
X3.8762Y-3.595
T0
M30
