%TF.GenerationSoftware,KiCad,Pcbnew,(5.1.10)-1*%
%TF.CreationDate,2022-01-02T13:32:58-05:00*%
%TF.ProjectId,Single Power Supply,53696e67-6c65-4205-906f-776572205375,rev?*%
%TF.SameCoordinates,Original*%
%TF.FileFunction,Soldermask,Bot*%
%TF.FilePolarity,Negative*%
%FSLAX46Y46*%
G04 Gerber Fmt 4.6, Leading zero omitted, Abs format (unit mm)*
G04 Created by KiCad (PCBNEW (5.1.10)-1) date 2022-01-02 13:32:58*
%MOMM*%
%LPD*%
G01*
G04 APERTURE LIST*
%ADD10C,4.000000*%
%ADD11C,3.000000*%
%ADD12R,3.000000X3.000000*%
%ADD13C,3.200000*%
%ADD14C,2.400000*%
%ADD15R,2.400000X2.400000*%
%ADD16C,1.600000*%
%ADD17R,1.600000X1.600000*%
%ADD18R,3.200000X3.200000*%
%ADD19R,2.200000X2.200000*%
%ADD20O,2.200000X2.200000*%
%ADD21O,2.000000X1.700000*%
%ADD22C,1.800000*%
%ADD23O,1.600000X1.600000*%
%ADD24O,1.905000X2.000000*%
%ADD25R,1.905000X2.000000*%
G04 APERTURE END LIST*
D10*
%TO.C,REF\u002A\u002A*%
X122189240Y-104579420D03*
X96789240Y-104579420D03*
%TD*%
D11*
%TO.C,J7*%
X74777600Y-112395000D03*
X69697600Y-112395000D03*
D12*
X79857600Y-112395000D03*
D11*
X64617600Y-112395000D03*
%TD*%
D13*
%TO.C,REF\u002A\u002A*%
X189255400Y-25430480D03*
%TD*%
%TO.C,REF\u002A\u002A*%
X189631320Y-114569240D03*
%TD*%
%TO.C,REF\u002A\u002A*%
X26035000Y-114894360D03*
%TD*%
%TO.C,REF\u002A\u002A*%
X25024080Y-24998680D03*
%TD*%
D10*
%TO.C,REF\u002A\u002A*%
X146497040Y-104833420D03*
X171897040Y-104833420D03*
%TD*%
%TO.C,REF\u002A\u002A*%
X172633640Y-69019420D03*
X147233640Y-69019420D03*
%TD*%
%TO.C,REF\u002A\u002A*%
X96992440Y-69019420D03*
X122392440Y-69019420D03*
%TD*%
%TO.C,REF\u002A\u002A*%
X172633640Y-34665920D03*
X147233640Y-34665920D03*
%TD*%
%TO.C,REF\u002A\u002A*%
X97119440Y-34792920D03*
X122519440Y-34792920D03*
%TD*%
D14*
%TO.C,C1*%
X60372640Y-50667920D03*
D15*
X52872640Y-50667920D03*
%TD*%
D14*
%TO.C,C2*%
X62390640Y-67177920D03*
D15*
X69890640Y-67177920D03*
%TD*%
D14*
%TO.C,C3*%
X79295640Y-84068920D03*
D15*
X71795640Y-84068920D03*
%TD*%
%TO.C,C4*%
X52872640Y-83687920D03*
D14*
X60372640Y-83687920D03*
%TD*%
D15*
%TO.C,C5*%
X70144640Y-33903920D03*
D14*
X62644640Y-33903920D03*
%TD*%
D15*
%TO.C,C6*%
X71795640Y-50667920D03*
D14*
X79295640Y-50667920D03*
%TD*%
D16*
%TO.C,C7*%
X157647640Y-54350920D03*
X157647640Y-49350920D03*
%TD*%
%TO.C,C8*%
X106746040Y-54601120D03*
X106746040Y-49601120D03*
%TD*%
%TO.C,C9*%
X89559120Y-84891880D03*
X94559120Y-84891880D03*
%TD*%
%TO.C,C10*%
X139124680Y-84833460D03*
X144124680Y-84833460D03*
%TD*%
D17*
%TO.C,C11*%
X150124160Y-86019640D03*
D16*
X150124160Y-88519640D03*
%TD*%
%TO.C,C12*%
X100045520Y-88672040D03*
D17*
X100045520Y-86172040D03*
%TD*%
D16*
%TO.C,C13*%
X129644140Y-89161620D03*
X129644140Y-84161620D03*
%TD*%
%TO.C,C14*%
X179212240Y-89542620D03*
X179212240Y-84542620D03*
%TD*%
%TO.C,C15*%
X113988840Y-54731920D03*
X118988840Y-54731920D03*
%TD*%
%TO.C,C16*%
X164966640Y-54604920D03*
X169966640Y-54604920D03*
%TD*%
D17*
%TO.C,C17*%
X109809280Y-86065360D03*
D16*
X109809280Y-88565360D03*
%TD*%
%TO.C,C18*%
X157708600Y-88235160D03*
D17*
X157708600Y-85735160D03*
%TD*%
D18*
%TO.C,D1*%
X39410640Y-100959920D03*
D13*
X44490640Y-100959920D03*
X49570640Y-100959920D03*
X54650640Y-100959920D03*
%TD*%
%TO.C,D2*%
X79923640Y-100959920D03*
X74843640Y-100959920D03*
X69763640Y-100959920D03*
D18*
X64683640Y-100959920D03*
%TD*%
D19*
%TO.C,D3*%
X111445040Y-50058320D03*
D20*
X121605040Y-50058320D03*
%TD*%
%TO.C,D4*%
X172379640Y-49842420D03*
D19*
X162219640Y-49842420D03*
%TD*%
D20*
%TO.C,D5*%
X125389640Y-84716620D03*
D19*
X115229640Y-84716620D03*
%TD*%
%TO.C,D6*%
X174957740Y-84589620D03*
D20*
X164797740Y-84589620D03*
%TD*%
%TO.C,D7*%
X115229640Y-89225120D03*
D19*
X125389640Y-89225120D03*
%TD*%
%TO.C,D8*%
X174970440Y-88971120D03*
D20*
X164810440Y-88971120D03*
%TD*%
D11*
%TO.C,F1*%
X41061640Y-66923920D03*
X41061640Y-89523920D03*
%TD*%
D12*
%TO.C,J1*%
X41005760Y-25554940D03*
D11*
X46085760Y-25554940D03*
X51165760Y-25554940D03*
%TD*%
%TO.C,J2*%
X28361640Y-88894920D03*
X28361640Y-83814920D03*
D12*
X28361640Y-93974920D03*
D11*
X28361640Y-78734920D03*
%TD*%
D12*
%TO.C,J3*%
X28361640Y-106928920D03*
D11*
X28361640Y-101848920D03*
%TD*%
%TO.C,J4*%
X28361640Y-55747920D03*
D12*
X28361640Y-70987920D03*
D11*
X28361640Y-60827920D03*
X28361640Y-65907920D03*
%TD*%
%TO.C,J5*%
X28361640Y-43301920D03*
X28361640Y-38221920D03*
D12*
X28361640Y-48381920D03*
D11*
X28361640Y-33141920D03*
%TD*%
%TO.C,J6*%
X39380160Y-112389920D03*
D12*
X54620160Y-112389920D03*
D11*
X44460160Y-112389920D03*
X49540160Y-112389920D03*
%TD*%
%TO.C,J8*%
G36*
G01*
X186361640Y-32990420D02*
X187861640Y-32990420D01*
G75*
G02*
X188111640Y-33240420I0J-250000D01*
G01*
X188111640Y-34440420D01*
G75*
G02*
X187861640Y-34690420I-250000J0D01*
G01*
X186361640Y-34690420D01*
G75*
G02*
X186111640Y-34440420I0J250000D01*
G01*
X186111640Y-33240420D01*
G75*
G02*
X186361640Y-32990420I250000J0D01*
G01*
G37*
D21*
X187111640Y-36340420D03*
%TD*%
D11*
%TO.C,J9*%
X188711840Y-84195920D03*
X188711840Y-89275920D03*
D12*
X188711840Y-79115920D03*
D11*
X188711840Y-94355920D03*
%TD*%
%TO.C,J10*%
X187238640Y-59176920D03*
D12*
X187238640Y-43936920D03*
D11*
X187238640Y-54096920D03*
X187238640Y-49016920D03*
%TD*%
D22*
%TO.C,RV1*%
X36482640Y-44462590D03*
X43982640Y-46095920D03*
%TD*%
%TO.C,RV2*%
X43982640Y-40253920D03*
X36482640Y-38620590D03*
%TD*%
%TO.C,RV3*%
X36489640Y-33141920D03*
X43989640Y-34775250D03*
%TD*%
D16*
%TO.C,TH1*%
X37759640Y-58414920D03*
D23*
X45379640Y-58414920D03*
%TD*%
D24*
%TO.C,U1*%
X112359440Y-38094920D03*
X109819440Y-38094920D03*
D25*
X107279440Y-38094920D03*
%TD*%
D24*
%TO.C,U2*%
X162727640Y-38094920D03*
X160187640Y-38094920D03*
D25*
X157647640Y-38094920D03*
%TD*%
%TO.C,U3*%
X107152440Y-72448420D03*
D24*
X109692440Y-72448420D03*
X112232440Y-72448420D03*
%TD*%
D25*
%TO.C,U4*%
X157266640Y-72448420D03*
D24*
X159806640Y-72448420D03*
X162346640Y-72448420D03*
%TD*%
%TO.C,U5*%
X112156240Y-108008420D03*
X109616240Y-108008420D03*
D25*
X107076240Y-108008420D03*
%TD*%
%TO.C,U6*%
X156784040Y-108262420D03*
D24*
X159324040Y-108262420D03*
X161864040Y-108262420D03*
%TD*%
M02*
