M48
; DRILL file {KiCad (5.1.10)-1} date 10/01/21 01:20:58
; FORMAT={-:-/ absolute / inch / decimal}
; #@! TF.CreationDate,2021-10-01T01:20:58-04:00
; #@! TF.GenerationSoftware,Kicad,Pcbnew,(5.1.10)-1
; #@! TF.FileFunction,Plated,1,2,PTH
FMAT,2
INCH
T1C0.0315
T2C0.0520
T3C0.0551
%
G90
G05
T1
X7.14Y-3.14
X7.44Y-3.14
T2
X6.78Y-4.36
X6.78Y-4.5569
X6.78Y-4.7537
X8.025Y-2.9594
X8.025Y-3.1563
X8.025Y-3.3531
X8.025Y-3.55
X8.025Y-3.9094
X8.025Y-4.1063
X8.025Y-4.3031
X8.025Y-4.5
X8.025Y-4.8594
X8.025Y-5.0563
X8.025Y-5.2531
X8.025Y-5.45
T3
X6.7098Y-3.9
X7.0Y-3.9
X7.44Y-3.62
X7.44Y-3.9102
X7.44Y-4.54
X7.44Y-4.8302
T0
M30
