%TF.GenerationSoftware,KiCad,Pcbnew,(5.1.10)-1*%
%TF.CreationDate,2021-10-01T01:20:56-04:00*%
%TF.ProjectId,Circuit Protector,43697263-7569-4742-9050-726f74656374,rev?*%
%TF.SameCoordinates,Original*%
%TF.FileFunction,Copper,L2,Bot*%
%TF.FilePolarity,Positive*%
%FSLAX46Y46*%
G04 Gerber Fmt 4.6, Leading zero omitted, Abs format (unit mm)*
G04 Created by KiCad (PCBNEW (5.1.10)-1) date 2021-10-01 01:20:56*
%MOMM*%
%LPD*%
G01*
G04 APERTURE LIST*
%TA.AperFunction,ComponentPad*%
%ADD10R,3.960000X1.980000*%
%TD*%
%TA.AperFunction,ComponentPad*%
%ADD11O,3.960000X1.980000*%
%TD*%
%TA.AperFunction,ComponentPad*%
%ADD12C,2.800000*%
%TD*%
%TA.AperFunction,ComponentPad*%
%ADD13C,1.600000*%
%TD*%
%TA.AperFunction,ComponentPad*%
%ADD14O,1.600000X1.600000*%
%TD*%
%TA.AperFunction,Conductor*%
%ADD15C,3.500000*%
%TD*%
%TA.AperFunction,Conductor*%
%ADD16C,0.254000*%
%TD*%
%TA.AperFunction,Conductor*%
%ADD17C,0.100000*%
%TD*%
G04 APERTURE END LIST*
D10*
%TO.P,Ground,1*%
%TO.N,Net-(Ground1-Pad1)*%
X203835000Y-138430000D03*
D11*
%TO.P,Ground,2*%
X203835000Y-133430000D03*
%TO.P,Ground,4*%
X203835000Y-123430000D03*
%TO.P,Ground,3*%
X203835000Y-128430000D03*
%TD*%
D10*
%TO.P,Input,1*%
%TO.N,Net-(Input1-Pad1)*%
X172212000Y-110744000D03*
D11*
%TO.P,Input,2*%
%TO.N,Net-(Input1-Pad2)*%
X172212000Y-115744000D03*
%TO.P,Input,3*%
%TO.N,Net-(Ground1-Pad1)*%
X172212000Y-120744000D03*
%TD*%
D10*
%TO.P,Line,1*%
%TO.N,Net-(Line1-Pad1)*%
X203835000Y-90170000D03*
D11*
%TO.P,Line,2*%
X203835000Y-85170000D03*
%TO.P,Line,4*%
X203835000Y-75170000D03*
%TO.P,Line,3*%
X203835000Y-80170000D03*
%TD*%
%TO.P,Neutral,3*%
%TO.N,Net-(Input1-Pad2)*%
X203835000Y-104300000D03*
%TO.P,Neutral,4*%
X203835000Y-99300000D03*
%TO.P,Neutral,2*%
X203835000Y-109300000D03*
D10*
%TO.P,Neutral,1*%
X203835000Y-114300000D03*
%TD*%
D12*
%TO.P,MOV,1*%
%TO.N,Net-(Input1-Pad1)*%
X188976000Y-91948000D03*
%TO.P,MOV,2*%
%TO.N,Net-(Input1-Pad2)*%
X188976000Y-99318000D03*
%TD*%
%TO.P,MOV,2*%
%TO.N,Net-(Ground1-Pad1)*%
X188976000Y-122686000D03*
%TO.P,MOV,1*%
%TO.N,Net-(Input1-Pad2)*%
X188976000Y-115316000D03*
%TD*%
%TO.P,MOV,1*%
%TO.N,Net-(Input1-Pad1)*%
X177800000Y-99060000D03*
%TO.P,MOV,2*%
%TO.N,Net-(Ground1-Pad1)*%
X170430000Y-99060000D03*
%TD*%
D13*
%TO.P,NTC,1*%
%TO.N,Net-(Line1-Pad1)*%
X188976000Y-79756000D03*
D14*
%TO.P,NTC,2*%
%TO.N,Net-(Input1-Pad1)*%
X181356000Y-79756000D03*
%TD*%
D15*
%TO.N,Net-(Input1-Pad1)*%
X177800000Y-105156000D02*
X172212000Y-110744000D01*
X177800000Y-99060000D02*
X177800000Y-105156000D01*
X177800000Y-99060000D02*
X184912000Y-91948000D01*
X184912000Y-91948000D02*
X188976000Y-91948000D01*
X181356000Y-88392000D02*
X184912000Y-91948000D01*
X188976000Y-87376000D02*
X181356000Y-79756000D01*
X188976000Y-91948000D02*
X188976000Y-87376000D01*
X188976000Y-91948000D02*
X180848000Y-100076000D01*
X178816000Y-100076000D02*
X177800000Y-99060000D01*
X180848000Y-100076000D02*
X178816000Y-100076000D01*
X177800000Y-83312000D02*
X181356000Y-79756000D01*
X177800000Y-99060000D02*
X177800000Y-95504000D01*
X181356000Y-91948000D02*
X181356000Y-85852000D01*
X181356000Y-85852000D02*
X181356000Y-88392000D01*
X181356000Y-79756000D02*
X181356000Y-85852000D01*
X181356000Y-79756000D02*
X181356000Y-88392000D01*
X181356000Y-84328000D02*
X188976000Y-91948000D01*
X181356000Y-79756000D02*
X181356000Y-84328000D01*
X188976000Y-91948000D02*
X181356000Y-91948000D01*
X179832000Y-93472000D02*
X181356000Y-91948000D01*
X177800000Y-95504000D02*
X179832000Y-93472000D01*
X181356000Y-83820000D02*
X177800000Y-87376000D01*
X181356000Y-79756000D02*
X181356000Y-83820000D01*
X177800000Y-87376000D02*
X177800000Y-83312000D01*
X181356000Y-87884000D02*
X177800000Y-91440000D01*
X181356000Y-79756000D02*
X181356000Y-87884000D01*
X177800000Y-91440000D02*
X177800000Y-87376000D01*
X177800000Y-99060000D02*
X177800000Y-91440000D01*
X172212000Y-104648000D02*
X177800000Y-99060000D01*
X172212000Y-110744000D02*
X172212000Y-104648000D01*
X172212000Y-110744000D02*
X172212000Y-108204000D01*
X177800000Y-102616000D02*
X177800000Y-99060000D01*
X175006000Y-105918000D02*
X174498000Y-105918000D01*
X188976000Y-91948000D02*
X175006000Y-105918000D01*
X174498000Y-105918000D02*
X177800000Y-102616000D01*
X172212000Y-108204000D02*
X174498000Y-105918000D01*
%TO.N,Net-(Input1-Pad2)*%
X203817000Y-99318000D02*
X203835000Y-99300000D01*
X188976000Y-99318000D02*
X203817000Y-99318000D01*
X203835000Y-99300000D02*
X203835000Y-104300000D01*
X203835000Y-104300000D02*
X203835000Y-109300000D01*
X203835000Y-109300000D02*
X203835000Y-114300000D01*
X189992000Y-114300000D02*
X188976000Y-115316000D01*
X202819000Y-115316000D02*
X203835000Y-114300000D01*
X188976000Y-115316000D02*
X202819000Y-115316000D01*
X172640000Y-115316000D02*
X172212000Y-115744000D01*
X202391000Y-115744000D02*
X202819000Y-115316000D01*
X188976000Y-104460000D02*
X188976000Y-99318000D01*
X177692000Y-115744000D02*
X188976000Y-104460000D01*
X172212000Y-115744000D02*
X177692000Y-115744000D01*
X203835000Y-99300000D02*
X197372000Y-99300000D01*
X197372000Y-99300000D02*
X181356000Y-115316000D01*
X181356000Y-115316000D02*
X172640000Y-115316000D01*
X199912000Y-99300000D02*
X183896000Y-115316000D01*
X203835000Y-99300000D02*
X199912000Y-99300000D01*
X183896000Y-115316000D02*
X181356000Y-115316000D01*
X188976000Y-115316000D02*
X183896000Y-115316000D01*
X199992000Y-104300000D02*
X188976000Y-115316000D01*
X203835000Y-104300000D02*
X199992000Y-104300000D01*
X203835000Y-99789000D02*
X187880000Y-115744000D01*
X203835000Y-99300000D02*
X203835000Y-99789000D01*
X187880000Y-115744000D02*
X202391000Y-115744000D01*
X172212000Y-115744000D02*
X187880000Y-115744000D01*
X203835000Y-105029000D02*
X194564000Y-114300000D01*
X203835000Y-104300000D02*
X203835000Y-105029000D01*
X194564000Y-114300000D02*
X189992000Y-114300000D01*
X203835000Y-109300000D02*
X202104000Y-109300000D01*
X202104000Y-109300000D02*
X197104000Y-114300000D01*
X197104000Y-114300000D02*
X194564000Y-114300000D01*
X203835000Y-114300000D02*
X197104000Y-114300000D01*
X203835000Y-114177000D02*
X188976000Y-99318000D01*
X203835000Y-114300000D02*
X203835000Y-114177000D01*
%TO.N,Net-(Line1-Pad1)*%
X189390000Y-80170000D02*
X188976000Y-79756000D01*
X203835000Y-80170000D02*
X189390000Y-80170000D01*
X203835000Y-80170000D02*
X203835000Y-85170000D01*
X199390000Y-90170000D02*
X189390000Y-80170000D01*
X203835000Y-90170000D02*
X199390000Y-90170000D01*
X194390000Y-75170000D02*
X189390000Y-80170000D01*
X203835000Y-75170000D02*
X194390000Y-75170000D01*
X188976000Y-79756000D02*
X193548000Y-79756000D01*
X193548000Y-79756000D02*
X196215000Y-77089000D01*
X196215000Y-77089000D02*
X203835000Y-77089000D01*
X203835000Y-77089000D02*
X203835000Y-80170000D01*
X203835000Y-75170000D02*
X203835000Y-77089000D01*
X193548000Y-79756000D02*
X202819000Y-89027000D01*
X203835000Y-89027000D02*
X203835000Y-85170000D01*
X202819000Y-89027000D02*
X203835000Y-89027000D01*
X203835000Y-90170000D02*
X203835000Y-89027000D01*
X198421000Y-79756000D02*
X203835000Y-85170000D01*
X188976000Y-79756000D02*
X198421000Y-79756000D01*
X193562000Y-75170000D02*
X194390000Y-75170000D01*
X188976000Y-79756000D02*
X193562000Y-75170000D01*
%TD*%
D16*
%TO.N,Net-(Ground1-Pad1)*%
X210663385Y-142088000D02*
X163220000Y-142088000D01*
X163220000Y-139420000D01*
X201216928Y-139420000D01*
X201229188Y-139544482D01*
X201265498Y-139664180D01*
X201324463Y-139774494D01*
X201403815Y-139871185D01*
X201500506Y-139950537D01*
X201610820Y-140009502D01*
X201730518Y-140045812D01*
X201855000Y-140058072D01*
X203549250Y-140055000D01*
X203708000Y-139896250D01*
X203708000Y-138557000D01*
X203962000Y-138557000D01*
X203962000Y-139896250D01*
X204120750Y-140055000D01*
X205815000Y-140058072D01*
X205939482Y-140045812D01*
X206059180Y-140009502D01*
X206169494Y-139950537D01*
X206266185Y-139871185D01*
X206345537Y-139774494D01*
X206404502Y-139664180D01*
X206440812Y-139544482D01*
X206453072Y-139420000D01*
X206450000Y-138715750D01*
X206291250Y-138557000D01*
X203962000Y-138557000D01*
X203708000Y-138557000D01*
X201378750Y-138557000D01*
X201220000Y-138715750D01*
X201216928Y-139420000D01*
X163220000Y-139420000D01*
X163220000Y-136939872D01*
X165913000Y-136939872D01*
X165913000Y-137380128D01*
X165998890Y-137811925D01*
X166167369Y-138218669D01*
X166411962Y-138584729D01*
X166723271Y-138896038D01*
X167089331Y-139140631D01*
X167496075Y-139309110D01*
X167927872Y-139395000D01*
X168368128Y-139395000D01*
X168799925Y-139309110D01*
X169206669Y-139140631D01*
X169572729Y-138896038D01*
X169884038Y-138584729D01*
X170128631Y-138218669D01*
X170297110Y-137811925D01*
X170371090Y-137440000D01*
X201216928Y-137440000D01*
X201220000Y-138144250D01*
X201378750Y-138303000D01*
X203708000Y-138303000D01*
X203708000Y-136963750D01*
X203962000Y-136963750D01*
X203962000Y-138303000D01*
X206291250Y-138303000D01*
X206450000Y-138144250D01*
X206453072Y-137440000D01*
X206440812Y-137315518D01*
X206404502Y-137195820D01*
X206345537Y-137085506D01*
X206266185Y-136988815D01*
X206169494Y-136909463D01*
X206059180Y-136850498D01*
X205939482Y-136814188D01*
X205815000Y-136801928D01*
X204120750Y-136805000D01*
X203962000Y-136963750D01*
X203708000Y-136963750D01*
X203549250Y-136805000D01*
X201855000Y-136801928D01*
X201730518Y-136814188D01*
X201610820Y-136850498D01*
X201500506Y-136909463D01*
X201403815Y-136988815D01*
X201324463Y-137085506D01*
X201265498Y-137195820D01*
X201229188Y-137315518D01*
X201216928Y-137440000D01*
X170371090Y-137440000D01*
X170383000Y-137380128D01*
X170383000Y-136939872D01*
X170297110Y-136508075D01*
X170128631Y-136101331D01*
X169884038Y-135735271D01*
X169572729Y-135423962D01*
X169206669Y-135179369D01*
X168799925Y-135010890D01*
X168368128Y-134925000D01*
X167927872Y-134925000D01*
X167496075Y-135010890D01*
X167089331Y-135179369D01*
X166723271Y-135423962D01*
X166411962Y-135735271D01*
X166167369Y-136101331D01*
X165998890Y-136508075D01*
X165913000Y-136939872D01*
X163220000Y-136939872D01*
X163220000Y-133808865D01*
X201264782Y-133808865D01*
X201295095Y-133934528D01*
X201423304Y-134227205D01*
X201606148Y-134489246D01*
X201836601Y-134710581D01*
X202105806Y-134882704D01*
X202403418Y-134999000D01*
X202718000Y-135055000D01*
X203708000Y-135055000D01*
X203708000Y-133557000D01*
X203962000Y-133557000D01*
X203962000Y-135055000D01*
X204952000Y-135055000D01*
X205266582Y-134999000D01*
X205564194Y-134882704D01*
X205833399Y-134710581D01*
X206063852Y-134489246D01*
X206246696Y-134227205D01*
X206374905Y-133934528D01*
X206405218Y-133808865D01*
X206285740Y-133557000D01*
X203962000Y-133557000D01*
X203708000Y-133557000D01*
X201384260Y-133557000D01*
X201264782Y-133808865D01*
X163220000Y-133808865D01*
X163220000Y-133051135D01*
X201264782Y-133051135D01*
X201384260Y-133303000D01*
X203708000Y-133303000D01*
X203708000Y-131805000D01*
X203962000Y-131805000D01*
X203962000Y-133303000D01*
X206285740Y-133303000D01*
X206405218Y-133051135D01*
X206374905Y-132925472D01*
X206246696Y-132632795D01*
X206063852Y-132370754D01*
X205833399Y-132149419D01*
X205564194Y-131977296D01*
X205266582Y-131861000D01*
X204952000Y-131805000D01*
X203962000Y-131805000D01*
X203708000Y-131805000D01*
X202718000Y-131805000D01*
X202403418Y-131861000D01*
X202105806Y-131977296D01*
X201836601Y-132149419D01*
X201606148Y-132370754D01*
X201423304Y-132632795D01*
X201295095Y-132925472D01*
X201264782Y-133051135D01*
X163220000Y-133051135D01*
X163220000Y-128808865D01*
X201264782Y-128808865D01*
X201295095Y-128934528D01*
X201423304Y-129227205D01*
X201606148Y-129489246D01*
X201836601Y-129710581D01*
X202105806Y-129882704D01*
X202403418Y-129999000D01*
X202718000Y-130055000D01*
X203708000Y-130055000D01*
X203708000Y-128557000D01*
X203962000Y-128557000D01*
X203962000Y-130055000D01*
X204952000Y-130055000D01*
X205266582Y-129999000D01*
X205564194Y-129882704D01*
X205833399Y-129710581D01*
X206063852Y-129489246D01*
X206246696Y-129227205D01*
X206374905Y-128934528D01*
X206405218Y-128808865D01*
X206285740Y-128557000D01*
X203962000Y-128557000D01*
X203708000Y-128557000D01*
X201384260Y-128557000D01*
X201264782Y-128808865D01*
X163220000Y-128808865D01*
X163220000Y-128051135D01*
X201264782Y-128051135D01*
X201384260Y-128303000D01*
X203708000Y-128303000D01*
X203708000Y-126805000D01*
X203962000Y-126805000D01*
X203962000Y-128303000D01*
X206285740Y-128303000D01*
X206405218Y-128051135D01*
X206374905Y-127925472D01*
X206246696Y-127632795D01*
X206063852Y-127370754D01*
X205833399Y-127149419D01*
X205564194Y-126977296D01*
X205266582Y-126861000D01*
X204952000Y-126805000D01*
X203962000Y-126805000D01*
X203708000Y-126805000D01*
X202718000Y-126805000D01*
X202403418Y-126861000D01*
X202105806Y-126977296D01*
X201836601Y-127149419D01*
X201606148Y-127370754D01*
X201423304Y-127632795D01*
X201295095Y-127925472D01*
X201264782Y-128051135D01*
X163220000Y-128051135D01*
X163220000Y-124106447D01*
X187735158Y-124106447D01*
X187879135Y-124411770D01*
X188236892Y-124592597D01*
X188623053Y-124700155D01*
X189022777Y-124730310D01*
X189420704Y-124681904D01*
X189801540Y-124556795D01*
X190072865Y-124411770D01*
X190216842Y-124106447D01*
X188976000Y-122865605D01*
X187735158Y-124106447D01*
X163220000Y-124106447D01*
X163220000Y-122732777D01*
X186931690Y-122732777D01*
X186980096Y-123130704D01*
X187105205Y-123511540D01*
X187250230Y-123782865D01*
X187555553Y-123926842D01*
X188796395Y-122686000D01*
X189155605Y-122686000D01*
X190396447Y-123926842D01*
X190646633Y-123808865D01*
X201264782Y-123808865D01*
X201295095Y-123934528D01*
X201423304Y-124227205D01*
X201606148Y-124489246D01*
X201836601Y-124710581D01*
X202105806Y-124882704D01*
X202403418Y-124999000D01*
X202718000Y-125055000D01*
X203708000Y-125055000D01*
X203708000Y-123557000D01*
X203962000Y-123557000D01*
X203962000Y-125055000D01*
X204952000Y-125055000D01*
X205266582Y-124999000D01*
X205564194Y-124882704D01*
X205833399Y-124710581D01*
X206063852Y-124489246D01*
X206246696Y-124227205D01*
X206374905Y-123934528D01*
X206405218Y-123808865D01*
X206285740Y-123557000D01*
X203962000Y-123557000D01*
X203708000Y-123557000D01*
X201384260Y-123557000D01*
X201264782Y-123808865D01*
X190646633Y-123808865D01*
X190701770Y-123782865D01*
X190882597Y-123425108D01*
X190986760Y-123051135D01*
X201264782Y-123051135D01*
X201384260Y-123303000D01*
X203708000Y-123303000D01*
X203708000Y-121805000D01*
X203962000Y-121805000D01*
X203962000Y-123303000D01*
X206285740Y-123303000D01*
X206405218Y-123051135D01*
X206374905Y-122925472D01*
X206246696Y-122632795D01*
X206063852Y-122370754D01*
X205833399Y-122149419D01*
X205564194Y-121977296D01*
X205266582Y-121861000D01*
X204952000Y-121805000D01*
X203962000Y-121805000D01*
X203708000Y-121805000D01*
X202718000Y-121805000D01*
X202403418Y-121861000D01*
X202105806Y-121977296D01*
X201836601Y-122149419D01*
X201606148Y-122370754D01*
X201423304Y-122632795D01*
X201295095Y-122925472D01*
X201264782Y-123051135D01*
X190986760Y-123051135D01*
X190990155Y-123038947D01*
X191020310Y-122639223D01*
X190971904Y-122241296D01*
X190846795Y-121860460D01*
X190701770Y-121589135D01*
X190396447Y-121445158D01*
X189155605Y-122686000D01*
X188796395Y-122686000D01*
X187555553Y-121445158D01*
X187250230Y-121589135D01*
X187069403Y-121946892D01*
X186961845Y-122333053D01*
X186931690Y-122732777D01*
X163220000Y-122732777D01*
X163220000Y-121122865D01*
X169641782Y-121122865D01*
X169672095Y-121248528D01*
X169800304Y-121541205D01*
X169983148Y-121803246D01*
X170213601Y-122024581D01*
X170482806Y-122196704D01*
X170780418Y-122313000D01*
X171095000Y-122369000D01*
X172085000Y-122369000D01*
X172085000Y-120871000D01*
X172339000Y-120871000D01*
X172339000Y-122369000D01*
X173329000Y-122369000D01*
X173643582Y-122313000D01*
X173941194Y-122196704D01*
X174210399Y-122024581D01*
X174440852Y-121803246D01*
X174623696Y-121541205D01*
X174744447Y-121265553D01*
X187735158Y-121265553D01*
X188976000Y-122506395D01*
X190216842Y-121265553D01*
X190072865Y-120960230D01*
X189715108Y-120779403D01*
X189328947Y-120671845D01*
X188929223Y-120641690D01*
X188531296Y-120690096D01*
X188150460Y-120815205D01*
X187879135Y-120960230D01*
X187735158Y-121265553D01*
X174744447Y-121265553D01*
X174751905Y-121248528D01*
X174782218Y-121122865D01*
X174662740Y-120871000D01*
X172339000Y-120871000D01*
X172085000Y-120871000D01*
X169761260Y-120871000D01*
X169641782Y-121122865D01*
X163220000Y-121122865D01*
X163220000Y-120365135D01*
X169641782Y-120365135D01*
X169761260Y-120617000D01*
X172085000Y-120617000D01*
X172085000Y-119119000D01*
X172339000Y-119119000D01*
X172339000Y-120617000D01*
X174662740Y-120617000D01*
X174782218Y-120365135D01*
X174751905Y-120239472D01*
X174623696Y-119946795D01*
X174440852Y-119684754D01*
X174210399Y-119463419D01*
X173941194Y-119291296D01*
X173643582Y-119175000D01*
X173329000Y-119119000D01*
X172339000Y-119119000D01*
X172085000Y-119119000D01*
X171095000Y-119119000D01*
X170780418Y-119175000D01*
X170482806Y-119291296D01*
X170213601Y-119463419D01*
X169983148Y-119684754D01*
X169800304Y-119946795D01*
X169672095Y-120239472D01*
X169641782Y-120365135D01*
X163220000Y-120365135D01*
X163220000Y-115744000D01*
X169589138Y-115744000D01*
X169620513Y-116062556D01*
X169713432Y-116368869D01*
X169864325Y-116651170D01*
X170067392Y-116898608D01*
X170169714Y-116982581D01*
X170219351Y-117075446D01*
X170517391Y-117438609D01*
X170880554Y-117736649D01*
X171294884Y-117958113D01*
X171744458Y-118094490D01*
X172094843Y-118129000D01*
X172212000Y-118140539D01*
X172329157Y-118129000D01*
X177574843Y-118129000D01*
X177692000Y-118140539D01*
X177809157Y-118129000D01*
X187762843Y-118129000D01*
X187880000Y-118140539D01*
X187997157Y-118129000D01*
X202273843Y-118129000D01*
X202391000Y-118140539D01*
X202508157Y-118129000D01*
X202858542Y-118094490D01*
X203308116Y-117958113D01*
X203722446Y-117736649D01*
X204085609Y-117438609D01*
X204160295Y-117347603D01*
X204422601Y-117085297D01*
X204513609Y-117010609D01*
X204588294Y-116919605D01*
X205438607Y-116069292D01*
X205529609Y-115994609D01*
X205584214Y-115928072D01*
X205815000Y-115928072D01*
X205939482Y-115915812D01*
X206059180Y-115879502D01*
X206169494Y-115820537D01*
X206266185Y-115741185D01*
X206345537Y-115644494D01*
X206404502Y-115534180D01*
X206440812Y-115414482D01*
X206453072Y-115290000D01*
X206453072Y-113310000D01*
X206440812Y-113185518D01*
X206404502Y-113065820D01*
X206345537Y-112955506D01*
X206266185Y-112858815D01*
X206220000Y-112820912D01*
X206220000Y-110137340D01*
X206333568Y-109924869D01*
X206426487Y-109618556D01*
X206457862Y-109300000D01*
X206426487Y-108981444D01*
X206333568Y-108675131D01*
X206220000Y-108462660D01*
X206220000Y-105146156D01*
X206221065Y-105135348D01*
X206333568Y-104924869D01*
X206426487Y-104618556D01*
X206457862Y-104300000D01*
X206426487Y-103981444D01*
X206333568Y-103675131D01*
X206220000Y-103462660D01*
X206220000Y-100137340D01*
X206333568Y-99924869D01*
X206426487Y-99618556D01*
X206457862Y-99300000D01*
X206426487Y-98981444D01*
X206333568Y-98675131D01*
X206182675Y-98392830D01*
X205979608Y-98145392D01*
X205877286Y-98061419D01*
X205827649Y-97968554D01*
X205529609Y-97605391D01*
X205166446Y-97307351D01*
X204752116Y-97085887D01*
X204302542Y-96949510D01*
X203952157Y-96915000D01*
X203835000Y-96903461D01*
X203717843Y-96915000D01*
X200029146Y-96915000D01*
X199911999Y-96903462D01*
X199794852Y-96915000D01*
X197489146Y-96915000D01*
X197371999Y-96903462D01*
X197254852Y-96915000D01*
X197254843Y-96915000D01*
X197072086Y-96933000D01*
X189093157Y-96933000D01*
X188976000Y-96921461D01*
X188858843Y-96933000D01*
X188508458Y-96967510D01*
X188058884Y-97103887D01*
X187644554Y-97325351D01*
X187281391Y-97623391D01*
X186983351Y-97986554D01*
X186761887Y-98400884D01*
X186625510Y-98850458D01*
X186579461Y-99318000D01*
X186591001Y-99435167D01*
X186591000Y-103472100D01*
X177132101Y-112931000D01*
X173179840Y-112931000D01*
X173543445Y-112736649D01*
X173742375Y-112573392D01*
X173906609Y-112438609D01*
X173961214Y-112372072D01*
X174192000Y-112372072D01*
X174316482Y-112359812D01*
X174436180Y-112323502D01*
X174546494Y-112264537D01*
X174643185Y-112185185D01*
X174722537Y-112088494D01*
X174781502Y-111978180D01*
X174817812Y-111858482D01*
X174830072Y-111734000D01*
X174830072Y-111498827D01*
X179403605Y-106925294D01*
X179494609Y-106850609D01*
X179792649Y-106487446D01*
X180014113Y-106073116D01*
X180150490Y-105623542D01*
X180185000Y-105273157D01*
X180185000Y-105273148D01*
X180196538Y-105156001D01*
X180185000Y-105038854D01*
X180185000Y-104111899D01*
X182451607Y-101845292D01*
X182542609Y-101770609D01*
X182617294Y-101679605D01*
X186598386Y-97698513D01*
X190579610Y-93717290D01*
X190670609Y-93642609D01*
X190745293Y-93551607D01*
X190968649Y-93279446D01*
X191190113Y-92865116D01*
X191326490Y-92415542D01*
X191372539Y-91948000D01*
X191361000Y-91830843D01*
X191361000Y-87493146D01*
X191372538Y-87375999D01*
X191361000Y-87258852D01*
X191361000Y-87258843D01*
X191326490Y-86908458D01*
X191190113Y-86458884D01*
X190968649Y-86044554D01*
X190670609Y-85681391D01*
X190579605Y-85606706D01*
X184728899Y-79756000D01*
X186579461Y-79756000D01*
X186625510Y-80223542D01*
X186761887Y-80673116D01*
X186983351Y-81087446D01*
X187281391Y-81450609D01*
X187372393Y-81525292D01*
X187620703Y-81773601D01*
X187695391Y-81864609D01*
X187786393Y-81939292D01*
X197620706Y-91773605D01*
X197695391Y-91864609D01*
X198058554Y-92162649D01*
X198472884Y-92384113D01*
X198922458Y-92520490D01*
X199272843Y-92555000D01*
X199390000Y-92566539D01*
X199507157Y-92555000D01*
X203717843Y-92555000D01*
X203835000Y-92566539D01*
X203952157Y-92555000D01*
X204302542Y-92520490D01*
X204752116Y-92384113D01*
X205166446Y-92162649D01*
X205529609Y-91864609D01*
X205584214Y-91798072D01*
X205815000Y-91798072D01*
X205939482Y-91785812D01*
X206059180Y-91749502D01*
X206169494Y-91690537D01*
X206266185Y-91611185D01*
X206345537Y-91514494D01*
X206404502Y-91404180D01*
X206440812Y-91284482D01*
X206453072Y-91160000D01*
X206453072Y-89180000D01*
X206440812Y-89055518D01*
X206404502Y-88935820D01*
X206345537Y-88825506D01*
X206266185Y-88728815D01*
X206220000Y-88690912D01*
X206220000Y-86007340D01*
X206333568Y-85794869D01*
X206426487Y-85488556D01*
X206457862Y-85170000D01*
X206426487Y-84851444D01*
X206333568Y-84545131D01*
X206220000Y-84332660D01*
X206220000Y-81007340D01*
X206333568Y-80794869D01*
X206426487Y-80488556D01*
X206457862Y-80170000D01*
X206426487Y-79851444D01*
X206333568Y-79545131D01*
X206220000Y-79332660D01*
X206220000Y-77206156D01*
X206231539Y-77089000D01*
X206220000Y-76971843D01*
X206220000Y-76007340D01*
X206333568Y-75794869D01*
X206426487Y-75488556D01*
X206457862Y-75170000D01*
X206426487Y-74851444D01*
X206333568Y-74545131D01*
X206182675Y-74262830D01*
X205979608Y-74015392D01*
X205877286Y-73931419D01*
X205827649Y-73838554D01*
X205529609Y-73475391D01*
X205166446Y-73177351D01*
X204752116Y-72955887D01*
X204302542Y-72819510D01*
X203952157Y-72785000D01*
X203835000Y-72773461D01*
X203717843Y-72785000D01*
X194507157Y-72785000D01*
X194390000Y-72773461D01*
X194272843Y-72785000D01*
X193679146Y-72785000D01*
X193561999Y-72773462D01*
X193444852Y-72785000D01*
X193444843Y-72785000D01*
X193094458Y-72819510D01*
X192644884Y-72955887D01*
X192230554Y-73177351D01*
X191867391Y-73475391D01*
X191792706Y-73566395D01*
X187372395Y-77986706D01*
X187281391Y-78061391D01*
X186983351Y-78424554D01*
X186761887Y-78838884D01*
X186625510Y-79288458D01*
X186579461Y-79756000D01*
X184728899Y-79756000D01*
X183125292Y-78152393D01*
X183050609Y-78061391D01*
X182687445Y-77763351D01*
X182273115Y-77541887D01*
X181823541Y-77405510D01*
X181356000Y-77359461D01*
X180888458Y-77405510D01*
X180438884Y-77541887D01*
X180024554Y-77763351D01*
X179661391Y-78061391D01*
X179586708Y-78152393D01*
X176196390Y-81542711D01*
X176105392Y-81617391D01*
X176030712Y-81708389D01*
X176030708Y-81708393D01*
X175807351Y-81980555D01*
X175585887Y-82394885D01*
X175449510Y-82844459D01*
X175403461Y-83312000D01*
X175415001Y-83429166D01*
X175415000Y-87258843D01*
X175403461Y-87376000D01*
X175415001Y-87493166D01*
X175415000Y-91322843D01*
X175403461Y-91440000D01*
X175415000Y-91557156D01*
X175415001Y-91557166D01*
X175415000Y-95386838D01*
X175403461Y-95504000D01*
X175415000Y-95621157D01*
X175415000Y-98072101D01*
X170608390Y-102878711D01*
X170517392Y-102953391D01*
X170442712Y-103044389D01*
X170442708Y-103044393D01*
X170219351Y-103316555D01*
X169997887Y-103730885D01*
X169861510Y-104180459D01*
X169815461Y-104648000D01*
X169827001Y-104765167D01*
X169827000Y-108086839D01*
X169815461Y-108204000D01*
X169827000Y-108321157D01*
X169827000Y-109264912D01*
X169780815Y-109302815D01*
X169701463Y-109399506D01*
X169642498Y-109509820D01*
X169606188Y-109629518D01*
X169593928Y-109754000D01*
X169593928Y-111734000D01*
X169606188Y-111858482D01*
X169642498Y-111978180D01*
X169701463Y-112088494D01*
X169780815Y-112185185D01*
X169877506Y-112264537D01*
X169987820Y-112323502D01*
X170107518Y-112359812D01*
X170232000Y-112372072D01*
X170462786Y-112372072D01*
X170517391Y-112438609D01*
X170880554Y-112736649D01*
X171294884Y-112958113D01*
X171744458Y-113094490D01*
X171746580Y-113094699D01*
X171722884Y-113101887D01*
X171308554Y-113323351D01*
X170945391Y-113621391D01*
X170870703Y-113712399D01*
X170608397Y-113974705D01*
X170517391Y-114049391D01*
X170219351Y-114412554D01*
X170169714Y-114505419D01*
X170067392Y-114589392D01*
X169864325Y-114836830D01*
X169713432Y-115119131D01*
X169620513Y-115425444D01*
X169589138Y-115744000D01*
X163220000Y-115744000D01*
X163220000Y-100480447D01*
X169189158Y-100480447D01*
X169333135Y-100785770D01*
X169690892Y-100966597D01*
X170077053Y-101074155D01*
X170476777Y-101104310D01*
X170874704Y-101055904D01*
X171255540Y-100930795D01*
X171526865Y-100785770D01*
X171670842Y-100480447D01*
X170430000Y-99239605D01*
X169189158Y-100480447D01*
X163220000Y-100480447D01*
X163220000Y-99106777D01*
X168385690Y-99106777D01*
X168434096Y-99504704D01*
X168559205Y-99885540D01*
X168704230Y-100156865D01*
X169009553Y-100300842D01*
X170250395Y-99060000D01*
X170609605Y-99060000D01*
X171850447Y-100300842D01*
X172155770Y-100156865D01*
X172336597Y-99799108D01*
X172444155Y-99412947D01*
X172474310Y-99013223D01*
X172425904Y-98615296D01*
X172300795Y-98234460D01*
X172155770Y-97963135D01*
X171850447Y-97819158D01*
X170609605Y-99060000D01*
X170250395Y-99060000D01*
X169009553Y-97819158D01*
X168704230Y-97963135D01*
X168523403Y-98320892D01*
X168415845Y-98707053D01*
X168385690Y-99106777D01*
X163220000Y-99106777D01*
X163220000Y-97639553D01*
X169189158Y-97639553D01*
X170430000Y-98880395D01*
X171670842Y-97639553D01*
X171526865Y-97334230D01*
X171169108Y-97153403D01*
X170782947Y-97045845D01*
X170383223Y-97015690D01*
X169985296Y-97064096D01*
X169604460Y-97189205D01*
X169333135Y-97334230D01*
X169189158Y-97639553D01*
X163220000Y-97639553D01*
X163220000Y-75979872D01*
X165913000Y-75979872D01*
X165913000Y-76420128D01*
X165998890Y-76851925D01*
X166167369Y-77258669D01*
X166411962Y-77624729D01*
X166723271Y-77936038D01*
X167089331Y-78180631D01*
X167496075Y-78349110D01*
X167927872Y-78435000D01*
X168368128Y-78435000D01*
X168799925Y-78349110D01*
X169206669Y-78180631D01*
X169572729Y-77936038D01*
X169884038Y-77624729D01*
X170128631Y-77258669D01*
X170297110Y-76851925D01*
X170383000Y-76420128D01*
X170383000Y-75979872D01*
X170297110Y-75548075D01*
X170128631Y-75141331D01*
X169884038Y-74775271D01*
X169572729Y-74463962D01*
X169206669Y-74219369D01*
X168799925Y-74050890D01*
X168368128Y-73965000D01*
X167927872Y-73965000D01*
X167496075Y-74050890D01*
X167089331Y-74219369D01*
X166723271Y-74463962D01*
X166411962Y-74775271D01*
X166167369Y-75141331D01*
X165998890Y-75548075D01*
X165913000Y-75979872D01*
X163220000Y-75979872D01*
X163220000Y-70510000D01*
X210164584Y-70510000D01*
X210663385Y-142088000D01*
%TA.AperFunction,Conductor*%
D17*
G36*
X210663385Y-142088000D02*
G01*
X163220000Y-142088000D01*
X163220000Y-139420000D01*
X201216928Y-139420000D01*
X201229188Y-139544482D01*
X201265498Y-139664180D01*
X201324463Y-139774494D01*
X201403815Y-139871185D01*
X201500506Y-139950537D01*
X201610820Y-140009502D01*
X201730518Y-140045812D01*
X201855000Y-140058072D01*
X203549250Y-140055000D01*
X203708000Y-139896250D01*
X203708000Y-138557000D01*
X203962000Y-138557000D01*
X203962000Y-139896250D01*
X204120750Y-140055000D01*
X205815000Y-140058072D01*
X205939482Y-140045812D01*
X206059180Y-140009502D01*
X206169494Y-139950537D01*
X206266185Y-139871185D01*
X206345537Y-139774494D01*
X206404502Y-139664180D01*
X206440812Y-139544482D01*
X206453072Y-139420000D01*
X206450000Y-138715750D01*
X206291250Y-138557000D01*
X203962000Y-138557000D01*
X203708000Y-138557000D01*
X201378750Y-138557000D01*
X201220000Y-138715750D01*
X201216928Y-139420000D01*
X163220000Y-139420000D01*
X163220000Y-136939872D01*
X165913000Y-136939872D01*
X165913000Y-137380128D01*
X165998890Y-137811925D01*
X166167369Y-138218669D01*
X166411962Y-138584729D01*
X166723271Y-138896038D01*
X167089331Y-139140631D01*
X167496075Y-139309110D01*
X167927872Y-139395000D01*
X168368128Y-139395000D01*
X168799925Y-139309110D01*
X169206669Y-139140631D01*
X169572729Y-138896038D01*
X169884038Y-138584729D01*
X170128631Y-138218669D01*
X170297110Y-137811925D01*
X170371090Y-137440000D01*
X201216928Y-137440000D01*
X201220000Y-138144250D01*
X201378750Y-138303000D01*
X203708000Y-138303000D01*
X203708000Y-136963750D01*
X203962000Y-136963750D01*
X203962000Y-138303000D01*
X206291250Y-138303000D01*
X206450000Y-138144250D01*
X206453072Y-137440000D01*
X206440812Y-137315518D01*
X206404502Y-137195820D01*
X206345537Y-137085506D01*
X206266185Y-136988815D01*
X206169494Y-136909463D01*
X206059180Y-136850498D01*
X205939482Y-136814188D01*
X205815000Y-136801928D01*
X204120750Y-136805000D01*
X203962000Y-136963750D01*
X203708000Y-136963750D01*
X203549250Y-136805000D01*
X201855000Y-136801928D01*
X201730518Y-136814188D01*
X201610820Y-136850498D01*
X201500506Y-136909463D01*
X201403815Y-136988815D01*
X201324463Y-137085506D01*
X201265498Y-137195820D01*
X201229188Y-137315518D01*
X201216928Y-137440000D01*
X170371090Y-137440000D01*
X170383000Y-137380128D01*
X170383000Y-136939872D01*
X170297110Y-136508075D01*
X170128631Y-136101331D01*
X169884038Y-135735271D01*
X169572729Y-135423962D01*
X169206669Y-135179369D01*
X168799925Y-135010890D01*
X168368128Y-134925000D01*
X167927872Y-134925000D01*
X167496075Y-135010890D01*
X167089331Y-135179369D01*
X166723271Y-135423962D01*
X166411962Y-135735271D01*
X166167369Y-136101331D01*
X165998890Y-136508075D01*
X165913000Y-136939872D01*
X163220000Y-136939872D01*
X163220000Y-133808865D01*
X201264782Y-133808865D01*
X201295095Y-133934528D01*
X201423304Y-134227205D01*
X201606148Y-134489246D01*
X201836601Y-134710581D01*
X202105806Y-134882704D01*
X202403418Y-134999000D01*
X202718000Y-135055000D01*
X203708000Y-135055000D01*
X203708000Y-133557000D01*
X203962000Y-133557000D01*
X203962000Y-135055000D01*
X204952000Y-135055000D01*
X205266582Y-134999000D01*
X205564194Y-134882704D01*
X205833399Y-134710581D01*
X206063852Y-134489246D01*
X206246696Y-134227205D01*
X206374905Y-133934528D01*
X206405218Y-133808865D01*
X206285740Y-133557000D01*
X203962000Y-133557000D01*
X203708000Y-133557000D01*
X201384260Y-133557000D01*
X201264782Y-133808865D01*
X163220000Y-133808865D01*
X163220000Y-133051135D01*
X201264782Y-133051135D01*
X201384260Y-133303000D01*
X203708000Y-133303000D01*
X203708000Y-131805000D01*
X203962000Y-131805000D01*
X203962000Y-133303000D01*
X206285740Y-133303000D01*
X206405218Y-133051135D01*
X206374905Y-132925472D01*
X206246696Y-132632795D01*
X206063852Y-132370754D01*
X205833399Y-132149419D01*
X205564194Y-131977296D01*
X205266582Y-131861000D01*
X204952000Y-131805000D01*
X203962000Y-131805000D01*
X203708000Y-131805000D01*
X202718000Y-131805000D01*
X202403418Y-131861000D01*
X202105806Y-131977296D01*
X201836601Y-132149419D01*
X201606148Y-132370754D01*
X201423304Y-132632795D01*
X201295095Y-132925472D01*
X201264782Y-133051135D01*
X163220000Y-133051135D01*
X163220000Y-128808865D01*
X201264782Y-128808865D01*
X201295095Y-128934528D01*
X201423304Y-129227205D01*
X201606148Y-129489246D01*
X201836601Y-129710581D01*
X202105806Y-129882704D01*
X202403418Y-129999000D01*
X202718000Y-130055000D01*
X203708000Y-130055000D01*
X203708000Y-128557000D01*
X203962000Y-128557000D01*
X203962000Y-130055000D01*
X204952000Y-130055000D01*
X205266582Y-129999000D01*
X205564194Y-129882704D01*
X205833399Y-129710581D01*
X206063852Y-129489246D01*
X206246696Y-129227205D01*
X206374905Y-128934528D01*
X206405218Y-128808865D01*
X206285740Y-128557000D01*
X203962000Y-128557000D01*
X203708000Y-128557000D01*
X201384260Y-128557000D01*
X201264782Y-128808865D01*
X163220000Y-128808865D01*
X163220000Y-128051135D01*
X201264782Y-128051135D01*
X201384260Y-128303000D01*
X203708000Y-128303000D01*
X203708000Y-126805000D01*
X203962000Y-126805000D01*
X203962000Y-128303000D01*
X206285740Y-128303000D01*
X206405218Y-128051135D01*
X206374905Y-127925472D01*
X206246696Y-127632795D01*
X206063852Y-127370754D01*
X205833399Y-127149419D01*
X205564194Y-126977296D01*
X205266582Y-126861000D01*
X204952000Y-126805000D01*
X203962000Y-126805000D01*
X203708000Y-126805000D01*
X202718000Y-126805000D01*
X202403418Y-126861000D01*
X202105806Y-126977296D01*
X201836601Y-127149419D01*
X201606148Y-127370754D01*
X201423304Y-127632795D01*
X201295095Y-127925472D01*
X201264782Y-128051135D01*
X163220000Y-128051135D01*
X163220000Y-124106447D01*
X187735158Y-124106447D01*
X187879135Y-124411770D01*
X188236892Y-124592597D01*
X188623053Y-124700155D01*
X189022777Y-124730310D01*
X189420704Y-124681904D01*
X189801540Y-124556795D01*
X190072865Y-124411770D01*
X190216842Y-124106447D01*
X188976000Y-122865605D01*
X187735158Y-124106447D01*
X163220000Y-124106447D01*
X163220000Y-122732777D01*
X186931690Y-122732777D01*
X186980096Y-123130704D01*
X187105205Y-123511540D01*
X187250230Y-123782865D01*
X187555553Y-123926842D01*
X188796395Y-122686000D01*
X189155605Y-122686000D01*
X190396447Y-123926842D01*
X190646633Y-123808865D01*
X201264782Y-123808865D01*
X201295095Y-123934528D01*
X201423304Y-124227205D01*
X201606148Y-124489246D01*
X201836601Y-124710581D01*
X202105806Y-124882704D01*
X202403418Y-124999000D01*
X202718000Y-125055000D01*
X203708000Y-125055000D01*
X203708000Y-123557000D01*
X203962000Y-123557000D01*
X203962000Y-125055000D01*
X204952000Y-125055000D01*
X205266582Y-124999000D01*
X205564194Y-124882704D01*
X205833399Y-124710581D01*
X206063852Y-124489246D01*
X206246696Y-124227205D01*
X206374905Y-123934528D01*
X206405218Y-123808865D01*
X206285740Y-123557000D01*
X203962000Y-123557000D01*
X203708000Y-123557000D01*
X201384260Y-123557000D01*
X201264782Y-123808865D01*
X190646633Y-123808865D01*
X190701770Y-123782865D01*
X190882597Y-123425108D01*
X190986760Y-123051135D01*
X201264782Y-123051135D01*
X201384260Y-123303000D01*
X203708000Y-123303000D01*
X203708000Y-121805000D01*
X203962000Y-121805000D01*
X203962000Y-123303000D01*
X206285740Y-123303000D01*
X206405218Y-123051135D01*
X206374905Y-122925472D01*
X206246696Y-122632795D01*
X206063852Y-122370754D01*
X205833399Y-122149419D01*
X205564194Y-121977296D01*
X205266582Y-121861000D01*
X204952000Y-121805000D01*
X203962000Y-121805000D01*
X203708000Y-121805000D01*
X202718000Y-121805000D01*
X202403418Y-121861000D01*
X202105806Y-121977296D01*
X201836601Y-122149419D01*
X201606148Y-122370754D01*
X201423304Y-122632795D01*
X201295095Y-122925472D01*
X201264782Y-123051135D01*
X190986760Y-123051135D01*
X190990155Y-123038947D01*
X191020310Y-122639223D01*
X190971904Y-122241296D01*
X190846795Y-121860460D01*
X190701770Y-121589135D01*
X190396447Y-121445158D01*
X189155605Y-122686000D01*
X188796395Y-122686000D01*
X187555553Y-121445158D01*
X187250230Y-121589135D01*
X187069403Y-121946892D01*
X186961845Y-122333053D01*
X186931690Y-122732777D01*
X163220000Y-122732777D01*
X163220000Y-121122865D01*
X169641782Y-121122865D01*
X169672095Y-121248528D01*
X169800304Y-121541205D01*
X169983148Y-121803246D01*
X170213601Y-122024581D01*
X170482806Y-122196704D01*
X170780418Y-122313000D01*
X171095000Y-122369000D01*
X172085000Y-122369000D01*
X172085000Y-120871000D01*
X172339000Y-120871000D01*
X172339000Y-122369000D01*
X173329000Y-122369000D01*
X173643582Y-122313000D01*
X173941194Y-122196704D01*
X174210399Y-122024581D01*
X174440852Y-121803246D01*
X174623696Y-121541205D01*
X174744447Y-121265553D01*
X187735158Y-121265553D01*
X188976000Y-122506395D01*
X190216842Y-121265553D01*
X190072865Y-120960230D01*
X189715108Y-120779403D01*
X189328947Y-120671845D01*
X188929223Y-120641690D01*
X188531296Y-120690096D01*
X188150460Y-120815205D01*
X187879135Y-120960230D01*
X187735158Y-121265553D01*
X174744447Y-121265553D01*
X174751905Y-121248528D01*
X174782218Y-121122865D01*
X174662740Y-120871000D01*
X172339000Y-120871000D01*
X172085000Y-120871000D01*
X169761260Y-120871000D01*
X169641782Y-121122865D01*
X163220000Y-121122865D01*
X163220000Y-120365135D01*
X169641782Y-120365135D01*
X169761260Y-120617000D01*
X172085000Y-120617000D01*
X172085000Y-119119000D01*
X172339000Y-119119000D01*
X172339000Y-120617000D01*
X174662740Y-120617000D01*
X174782218Y-120365135D01*
X174751905Y-120239472D01*
X174623696Y-119946795D01*
X174440852Y-119684754D01*
X174210399Y-119463419D01*
X173941194Y-119291296D01*
X173643582Y-119175000D01*
X173329000Y-119119000D01*
X172339000Y-119119000D01*
X172085000Y-119119000D01*
X171095000Y-119119000D01*
X170780418Y-119175000D01*
X170482806Y-119291296D01*
X170213601Y-119463419D01*
X169983148Y-119684754D01*
X169800304Y-119946795D01*
X169672095Y-120239472D01*
X169641782Y-120365135D01*
X163220000Y-120365135D01*
X163220000Y-115744000D01*
X169589138Y-115744000D01*
X169620513Y-116062556D01*
X169713432Y-116368869D01*
X169864325Y-116651170D01*
X170067392Y-116898608D01*
X170169714Y-116982581D01*
X170219351Y-117075446D01*
X170517391Y-117438609D01*
X170880554Y-117736649D01*
X171294884Y-117958113D01*
X171744458Y-118094490D01*
X172094843Y-118129000D01*
X172212000Y-118140539D01*
X172329157Y-118129000D01*
X177574843Y-118129000D01*
X177692000Y-118140539D01*
X177809157Y-118129000D01*
X187762843Y-118129000D01*
X187880000Y-118140539D01*
X187997157Y-118129000D01*
X202273843Y-118129000D01*
X202391000Y-118140539D01*
X202508157Y-118129000D01*
X202858542Y-118094490D01*
X203308116Y-117958113D01*
X203722446Y-117736649D01*
X204085609Y-117438609D01*
X204160295Y-117347603D01*
X204422601Y-117085297D01*
X204513609Y-117010609D01*
X204588294Y-116919605D01*
X205438607Y-116069292D01*
X205529609Y-115994609D01*
X205584214Y-115928072D01*
X205815000Y-115928072D01*
X205939482Y-115915812D01*
X206059180Y-115879502D01*
X206169494Y-115820537D01*
X206266185Y-115741185D01*
X206345537Y-115644494D01*
X206404502Y-115534180D01*
X206440812Y-115414482D01*
X206453072Y-115290000D01*
X206453072Y-113310000D01*
X206440812Y-113185518D01*
X206404502Y-113065820D01*
X206345537Y-112955506D01*
X206266185Y-112858815D01*
X206220000Y-112820912D01*
X206220000Y-110137340D01*
X206333568Y-109924869D01*
X206426487Y-109618556D01*
X206457862Y-109300000D01*
X206426487Y-108981444D01*
X206333568Y-108675131D01*
X206220000Y-108462660D01*
X206220000Y-105146156D01*
X206221065Y-105135348D01*
X206333568Y-104924869D01*
X206426487Y-104618556D01*
X206457862Y-104300000D01*
X206426487Y-103981444D01*
X206333568Y-103675131D01*
X206220000Y-103462660D01*
X206220000Y-100137340D01*
X206333568Y-99924869D01*
X206426487Y-99618556D01*
X206457862Y-99300000D01*
X206426487Y-98981444D01*
X206333568Y-98675131D01*
X206182675Y-98392830D01*
X205979608Y-98145392D01*
X205877286Y-98061419D01*
X205827649Y-97968554D01*
X205529609Y-97605391D01*
X205166446Y-97307351D01*
X204752116Y-97085887D01*
X204302542Y-96949510D01*
X203952157Y-96915000D01*
X203835000Y-96903461D01*
X203717843Y-96915000D01*
X200029146Y-96915000D01*
X199911999Y-96903462D01*
X199794852Y-96915000D01*
X197489146Y-96915000D01*
X197371999Y-96903462D01*
X197254852Y-96915000D01*
X197254843Y-96915000D01*
X197072086Y-96933000D01*
X189093157Y-96933000D01*
X188976000Y-96921461D01*
X188858843Y-96933000D01*
X188508458Y-96967510D01*
X188058884Y-97103887D01*
X187644554Y-97325351D01*
X187281391Y-97623391D01*
X186983351Y-97986554D01*
X186761887Y-98400884D01*
X186625510Y-98850458D01*
X186579461Y-99318000D01*
X186591001Y-99435167D01*
X186591000Y-103472100D01*
X177132101Y-112931000D01*
X173179840Y-112931000D01*
X173543445Y-112736649D01*
X173742375Y-112573392D01*
X173906609Y-112438609D01*
X173961214Y-112372072D01*
X174192000Y-112372072D01*
X174316482Y-112359812D01*
X174436180Y-112323502D01*
X174546494Y-112264537D01*
X174643185Y-112185185D01*
X174722537Y-112088494D01*
X174781502Y-111978180D01*
X174817812Y-111858482D01*
X174830072Y-111734000D01*
X174830072Y-111498827D01*
X179403605Y-106925294D01*
X179494609Y-106850609D01*
X179792649Y-106487446D01*
X180014113Y-106073116D01*
X180150490Y-105623542D01*
X180185000Y-105273157D01*
X180185000Y-105273148D01*
X180196538Y-105156001D01*
X180185000Y-105038854D01*
X180185000Y-104111899D01*
X182451607Y-101845292D01*
X182542609Y-101770609D01*
X182617294Y-101679605D01*
X186598386Y-97698513D01*
X190579610Y-93717290D01*
X190670609Y-93642609D01*
X190745293Y-93551607D01*
X190968649Y-93279446D01*
X191190113Y-92865116D01*
X191326490Y-92415542D01*
X191372539Y-91948000D01*
X191361000Y-91830843D01*
X191361000Y-87493146D01*
X191372538Y-87375999D01*
X191361000Y-87258852D01*
X191361000Y-87258843D01*
X191326490Y-86908458D01*
X191190113Y-86458884D01*
X190968649Y-86044554D01*
X190670609Y-85681391D01*
X190579605Y-85606706D01*
X184728899Y-79756000D01*
X186579461Y-79756000D01*
X186625510Y-80223542D01*
X186761887Y-80673116D01*
X186983351Y-81087446D01*
X187281391Y-81450609D01*
X187372393Y-81525292D01*
X187620703Y-81773601D01*
X187695391Y-81864609D01*
X187786393Y-81939292D01*
X197620706Y-91773605D01*
X197695391Y-91864609D01*
X198058554Y-92162649D01*
X198472884Y-92384113D01*
X198922458Y-92520490D01*
X199272843Y-92555000D01*
X199390000Y-92566539D01*
X199507157Y-92555000D01*
X203717843Y-92555000D01*
X203835000Y-92566539D01*
X203952157Y-92555000D01*
X204302542Y-92520490D01*
X204752116Y-92384113D01*
X205166446Y-92162649D01*
X205529609Y-91864609D01*
X205584214Y-91798072D01*
X205815000Y-91798072D01*
X205939482Y-91785812D01*
X206059180Y-91749502D01*
X206169494Y-91690537D01*
X206266185Y-91611185D01*
X206345537Y-91514494D01*
X206404502Y-91404180D01*
X206440812Y-91284482D01*
X206453072Y-91160000D01*
X206453072Y-89180000D01*
X206440812Y-89055518D01*
X206404502Y-88935820D01*
X206345537Y-88825506D01*
X206266185Y-88728815D01*
X206220000Y-88690912D01*
X206220000Y-86007340D01*
X206333568Y-85794869D01*
X206426487Y-85488556D01*
X206457862Y-85170000D01*
X206426487Y-84851444D01*
X206333568Y-84545131D01*
X206220000Y-84332660D01*
X206220000Y-81007340D01*
X206333568Y-80794869D01*
X206426487Y-80488556D01*
X206457862Y-80170000D01*
X206426487Y-79851444D01*
X206333568Y-79545131D01*
X206220000Y-79332660D01*
X206220000Y-77206156D01*
X206231539Y-77089000D01*
X206220000Y-76971843D01*
X206220000Y-76007340D01*
X206333568Y-75794869D01*
X206426487Y-75488556D01*
X206457862Y-75170000D01*
X206426487Y-74851444D01*
X206333568Y-74545131D01*
X206182675Y-74262830D01*
X205979608Y-74015392D01*
X205877286Y-73931419D01*
X205827649Y-73838554D01*
X205529609Y-73475391D01*
X205166446Y-73177351D01*
X204752116Y-72955887D01*
X204302542Y-72819510D01*
X203952157Y-72785000D01*
X203835000Y-72773461D01*
X203717843Y-72785000D01*
X194507157Y-72785000D01*
X194390000Y-72773461D01*
X194272843Y-72785000D01*
X193679146Y-72785000D01*
X193561999Y-72773462D01*
X193444852Y-72785000D01*
X193444843Y-72785000D01*
X193094458Y-72819510D01*
X192644884Y-72955887D01*
X192230554Y-73177351D01*
X191867391Y-73475391D01*
X191792706Y-73566395D01*
X187372395Y-77986706D01*
X187281391Y-78061391D01*
X186983351Y-78424554D01*
X186761887Y-78838884D01*
X186625510Y-79288458D01*
X186579461Y-79756000D01*
X184728899Y-79756000D01*
X183125292Y-78152393D01*
X183050609Y-78061391D01*
X182687445Y-77763351D01*
X182273115Y-77541887D01*
X181823541Y-77405510D01*
X181356000Y-77359461D01*
X180888458Y-77405510D01*
X180438884Y-77541887D01*
X180024554Y-77763351D01*
X179661391Y-78061391D01*
X179586708Y-78152393D01*
X176196390Y-81542711D01*
X176105392Y-81617391D01*
X176030712Y-81708389D01*
X176030708Y-81708393D01*
X175807351Y-81980555D01*
X175585887Y-82394885D01*
X175449510Y-82844459D01*
X175403461Y-83312000D01*
X175415001Y-83429166D01*
X175415000Y-87258843D01*
X175403461Y-87376000D01*
X175415001Y-87493166D01*
X175415000Y-91322843D01*
X175403461Y-91440000D01*
X175415000Y-91557156D01*
X175415001Y-91557166D01*
X175415000Y-95386838D01*
X175403461Y-95504000D01*
X175415000Y-95621157D01*
X175415000Y-98072101D01*
X170608390Y-102878711D01*
X170517392Y-102953391D01*
X170442712Y-103044389D01*
X170442708Y-103044393D01*
X170219351Y-103316555D01*
X169997887Y-103730885D01*
X169861510Y-104180459D01*
X169815461Y-104648000D01*
X169827001Y-104765167D01*
X169827000Y-108086839D01*
X169815461Y-108204000D01*
X169827000Y-108321157D01*
X169827000Y-109264912D01*
X169780815Y-109302815D01*
X169701463Y-109399506D01*
X169642498Y-109509820D01*
X169606188Y-109629518D01*
X169593928Y-109754000D01*
X169593928Y-111734000D01*
X169606188Y-111858482D01*
X169642498Y-111978180D01*
X169701463Y-112088494D01*
X169780815Y-112185185D01*
X169877506Y-112264537D01*
X169987820Y-112323502D01*
X170107518Y-112359812D01*
X170232000Y-112372072D01*
X170462786Y-112372072D01*
X170517391Y-112438609D01*
X170880554Y-112736649D01*
X171294884Y-112958113D01*
X171744458Y-113094490D01*
X171746580Y-113094699D01*
X171722884Y-113101887D01*
X171308554Y-113323351D01*
X170945391Y-113621391D01*
X170870703Y-113712399D01*
X170608397Y-113974705D01*
X170517391Y-114049391D01*
X170219351Y-114412554D01*
X170169714Y-114505419D01*
X170067392Y-114589392D01*
X169864325Y-114836830D01*
X169713432Y-115119131D01*
X169620513Y-115425444D01*
X169589138Y-115744000D01*
X163220000Y-115744000D01*
X163220000Y-100480447D01*
X169189158Y-100480447D01*
X169333135Y-100785770D01*
X169690892Y-100966597D01*
X170077053Y-101074155D01*
X170476777Y-101104310D01*
X170874704Y-101055904D01*
X171255540Y-100930795D01*
X171526865Y-100785770D01*
X171670842Y-100480447D01*
X170430000Y-99239605D01*
X169189158Y-100480447D01*
X163220000Y-100480447D01*
X163220000Y-99106777D01*
X168385690Y-99106777D01*
X168434096Y-99504704D01*
X168559205Y-99885540D01*
X168704230Y-100156865D01*
X169009553Y-100300842D01*
X170250395Y-99060000D01*
X170609605Y-99060000D01*
X171850447Y-100300842D01*
X172155770Y-100156865D01*
X172336597Y-99799108D01*
X172444155Y-99412947D01*
X172474310Y-99013223D01*
X172425904Y-98615296D01*
X172300795Y-98234460D01*
X172155770Y-97963135D01*
X171850447Y-97819158D01*
X170609605Y-99060000D01*
X170250395Y-99060000D01*
X169009553Y-97819158D01*
X168704230Y-97963135D01*
X168523403Y-98320892D01*
X168415845Y-98707053D01*
X168385690Y-99106777D01*
X163220000Y-99106777D01*
X163220000Y-97639553D01*
X169189158Y-97639553D01*
X170430000Y-98880395D01*
X171670842Y-97639553D01*
X171526865Y-97334230D01*
X171169108Y-97153403D01*
X170782947Y-97045845D01*
X170383223Y-97015690D01*
X169985296Y-97064096D01*
X169604460Y-97189205D01*
X169333135Y-97334230D01*
X169189158Y-97639553D01*
X163220000Y-97639553D01*
X163220000Y-75979872D01*
X165913000Y-75979872D01*
X165913000Y-76420128D01*
X165998890Y-76851925D01*
X166167369Y-77258669D01*
X166411962Y-77624729D01*
X166723271Y-77936038D01*
X167089331Y-78180631D01*
X167496075Y-78349110D01*
X167927872Y-78435000D01*
X168368128Y-78435000D01*
X168799925Y-78349110D01*
X169206669Y-78180631D01*
X169572729Y-77936038D01*
X169884038Y-77624729D01*
X170128631Y-77258669D01*
X170297110Y-76851925D01*
X170383000Y-76420128D01*
X170383000Y-75979872D01*
X170297110Y-75548075D01*
X170128631Y-75141331D01*
X169884038Y-74775271D01*
X169572729Y-74463962D01*
X169206669Y-74219369D01*
X168799925Y-74050890D01*
X168368128Y-73965000D01*
X167927872Y-73965000D01*
X167496075Y-74050890D01*
X167089331Y-74219369D01*
X166723271Y-74463962D01*
X166411962Y-74775271D01*
X166167369Y-75141331D01*
X165998890Y-75548075D01*
X165913000Y-75979872D01*
X163220000Y-75979872D01*
X163220000Y-70510000D01*
X210164584Y-70510000D01*
X210663385Y-142088000D01*
G37*
%TD.AperFunction*%
%TD*%
M02*
