M48
; DRILL file {KiCad (5.1.10)-1} date 10/12/22 12:02:38
; FORMAT={-:-/ absolute / inch / decimal}
; #@! TF.CreationDate,2022-10-12T12:02:38-04:00
; #@! TF.GenerationSoftware,Kicad,Pcbnew,(5.1.10)-1
; #@! TF.FileFunction,Plated,1,2,PTH
FMAT,2
INCH
T1C0.0472
T2C0.0551
T3C0.0630
%
G90
G05
T1
X7.225Y-4.05
X7.225Y-4.3453
X7.775Y-3.3
X7.775Y-3.5953
X7.775Y-4.8
X7.775Y-5.0953
X8.0Y-4.05
X8.0Y-4.3453
X8.55Y-3.3
X8.55Y-3.5953
X8.575Y-4.8
X8.575Y-5.0953
X8.775Y-4.05
X8.775Y-4.3453
X9.35Y-3.3
X9.35Y-3.5953
X9.375Y-4.8
X9.375Y-5.0953
X9.55Y-4.05
X9.55Y-4.3453
X10.125Y-3.525
X10.125Y-3.8203
X10.125Y-4.575
X10.125Y-4.8703
T2
X6.575Y-3.8
X6.575Y-3.9969
X6.575Y-4.1937
X6.575Y-4.3906
X6.575Y-4.5874
X9.8Y-5.425
X9.8344Y-2.975
X9.9969Y-5.425
X10.0313Y-2.975
X10.1937Y-5.425
X10.2281Y-2.975
X10.3906Y-5.425
X10.425Y-2.975
X10.825Y-3.4094
X10.825Y-3.6063
X10.825Y-3.8031
X10.825Y-4.0
X10.825Y-4.4094
X10.825Y-4.6063
X10.825Y-4.8031
X10.825Y-5.0
T3
X6.975Y-2.95
X6.975Y-3.15
X6.975Y-3.35
X6.975Y-3.55
X6.975Y-4.825
X6.975Y-5.025
X6.975Y-5.225
X6.975Y-5.425
T0
M30
